  0
SECTION
  2
HEADER
  9
$ACADVER
  1
AC1015
  9
$ACADMAINTVER
 70
     6
  9
$DWGCODEPAGE
  3
ANSI_1256
  9
$INSBASE
 10
0.0
 20
0.0
 30
0.0
  9
$EXTMIN
 10
-341.2959544223
 20
-115.6441463415
 30
0.0
  9
$EXTMAX
 10
58.7040455777
 20
169.3558536585
 30
0.0
  9
$LIMMIN
 10
0.0
 20
0.0
  9
$LIMMAX
 10
420.0
 20
297.0
  9
$ORTHOMODE
 70
     0
  9
$REGENMODE
 70
     1
  9
$FILLMODE
 70
     1
  9
$QTEXTMODE
 70
     0
  9
$MIRRTEXT
 70
     1
  9
$LTSCALE
 40
1.0
  9
$ATTMODE
 70
     1
  9
$TEXTSIZE
 40
6.35
  9
$TRACEWID
 40
1.0
  9
$TEXTSTYLE
  7
Standard
  9
$CLAYER
  8
0
  9
$CELTYPE
  6
ByLayer
  9
$CECOLOR
 62
   256
  9
$CELTSCALE
 40
1.0
  9
$DISPSILH
 70
     0
  9
$DIMSCALE
 40
1.0
  9
$DIMASZ
 40
5.9944
  9
$DIMEXO
 40
0.9906
  9
$DIMDLI
 40
3.75
  9
$DIMRND
 40
0.0
  9
$DIMDLE
 40
0.0
  9
$DIMEXE
 40
0.9906
  9
$DIMTP
 40
0.0
  9
$DIMTM
 40
0.0
  9
$DIMTXT
 40
6.35
  9
$DIMCEN
 40
2.5
  9
$DIMTSZ
 40
0.0
  9
$DIMTOL
 70
     0
  9
$DIMLIM
 70
     0
  9
$DIMTIH
 70
     1
  9
$DIMTOH
 70
     1
  9
$DIMSE1
 70
     0
  9
$DIMSE2
 70
     0
  9
$DIMTAD
 70
     1
  9
$DIMZIN
 70
     1
  9
$DIMBLK
  1

  9
$DIMASO
 70
     1
  9
$DIMSHO
 70
     1
  9
$DIMPOST
  1

  9
$DIMAPOST
  1

  9
$DIMALT
 70
     0
  9
$DIMALTD
 70
     3
  9
$DIMALTF
 40
0.0393700787
  9
$DIMLFAC
 40
1.0
  9
$DIMTOFL
 70
     1
  9
$DIMTVP
 40
0.0
  9
$DIMTIX
 70
     0
  9
$DIMSOXD
 70
     0
  9
$DIMSAH
 70
     0
  9
$DIMBLK1
  1

  9
$DIMBLK2
  1

  9
$DIMSTYLE
  2
ISO-25
  9
$DIMCLRD
 70
     0
  9
$DIMCLRE
 70
     0
  9
$DIMCLRT
 70
     0
  9
$DIMTFAC
 40
1.0
  9
$DIMGAP
 40
1.524
  9
$DIMJUST
 70
     0
  9
$DIMSD1
 70
     0
  9
$DIMSD2
 70
     0
  9
$DIMTOLJ
 70
     0
  9
$DIMTZIN
 70
     1
  9
$DIMALTZ
 70
     0
  9
$DIMALTTZ
 70
     0
  9
$DIMUPT
 70
     0
  9
$DIMDEC
 70
     2
  9
$DIMTDEC
 70
     2
  9
$DIMALTU
 70
     2
  9
$DIMALTTD
 70
     3
  9
$DIMTXSTY
  7
Standard
  9
$DIMAUNIT
 70
     0
  9
$DIMADEC
 70
     2
  9
$DIMALTRND
 40
0.0
  9
$DIMAZIN
 70
     0
  9
$DIMDSEP
 70
    44
  9
$DIMATFIT
 70
     3
  9
$DIMFRAC
 70
     0
  9
$DIMLDRBLK
  1

  9
$DIMLUNIT
 70
     2
  9
$DIMLWD
 70
    -2
  9
$DIMLWE
 70
    -2
  9
$DIMTMOVE
 70
     0
  9
$LUNITS
 70
     2
  9
$LUPREC
 70
     2
  9
$SKETCHINC
 40
1.0
  9
$FILLETRAD
 40
10.0
  9
$AUNITS
 70
     0
  9
$AUPREC
 70
     2
  9
$MENU
  1
.
  9
$ELEVATION
 40
0.0
  9
$PELEVATION
 40
0.0
  9
$THICKNESS
 40
0.0
  9
$LIMCHECK
 70
     0
  9
$CHAMFERA
 40
0.0
  9
$CHAMFERB
 40
0.0
  9
$CHAMFERC
 40
0.0
  9
$CHAMFERD
 40
0.0
  9
$SKPOLY
 70
     0
  9
$TDCREATE
 40
2458839.754156019
  9
$TDUCREATE
 40
2458839.670822685
  9
$TDUPDATE
 40
2458839.754229745
  9
$TDUUPDATE
 40
2458839.670896412
  9
$TDINDWG
 40
0.0000000116
  9
$TDUSRTIMER
 40
0.0000000116
  9
$USRTIMER
 70
     1
  9
$ANGBASE
 50
0.0
  9
$ANGDIR
 70
     0
  9
$PDMODE
 70
     0
  9
$PDSIZE
 40
-1.0
  9
$PLINEWID
 40
0.0
  9
$SPLFRAME
 70
     0
  9
$SPLINETYPE
 70
     6
  9
$SPLINESEGS
 70
     8
  9
$HANDSEED
  5
67F
  9
$SURFTAB1
 70
     6
  9
$SURFTAB2
 70
     6
  9
$SURFTYPE
 70
     6
  9
$SURFU
 70
     6
  9
$SURFV
 70
     6
  9
$UCSBASE
  2

  9
$UCSNAME
  2

  9
$UCSORG
 10
0.0
 20
0.0
 30
0.0
  9
$UCSXDIR
 10
1.0
 20
0.0
 30
0.0
  9
$UCSYDIR
 10
0.0
 20
1.0
 30
0.0
  9
$UCSORTHOREF
  2

  9
$UCSORTHOVIEW
 70
     0
  9
$UCSORGTOP
 10
0.0
 20
0.0
 30
0.0
  9
$UCSORGBOTTOM
 10
0.0
 20
0.0
 30
0.0
  9
$UCSORGLEFT
 10
0.0
 20
0.0
 30
0.0
  9
$UCSORGRIGHT
 10
0.0
 20
0.0
 30
0.0
  9
$UCSORGFRONT
 10
0.0
 20
0.0
 30
0.0
  9
$UCSORGBACK
 10
0.0
 20
0.0
 30
0.0
  9
$PUCSBASE
  2

  9
$PUCSNAME
  2

  9
$PUCSORG
 10
0.0
 20
0.0
 30
0.0
  9
$PUCSXDIR
 10
1.0
 20
0.0
 30
0.0
  9
$PUCSYDIR
 10
0.0
 20
1.0
 30
0.0
  9
$PUCSORTHOREF
  2

  9
$PUCSORTHOVIEW
 70
     0
  9
$PUCSORGTOP
 10
0.0
 20
0.0
 30
0.0
  9
$PUCSORGBOTTOM
 10
0.0
 20
0.0
 30
0.0
  9
$PUCSORGLEFT
 10
0.0
 20
0.0
 30
0.0
  9
$PUCSORGRIGHT
 10
0.0
 20
0.0
 30
0.0
  9
$PUCSORGFRONT
 10
0.0
 20
0.0
 30
0.0
  9
$PUCSORGBACK
 10
0.0
 20
0.0
 30
0.0
  9
$USERI1
 70
     0
  9
$USERI2
 70
     0
  9
$USERI3
 70
     0
  9
$USERI4
 70
     0
  9
$USERI5
 70
     0
  9
$USERR1
 40
0.0
  9
$USERR2
 40
0.0
  9
$USERR3
 40
0.0
  9
$USERR4
 40
0.0
  9
$USERR5
 40
0.0
  9
$WORLDVIEW
 70
     1
  9
$SHADEDGE
 70
     3
  9
$SHADEDIF
 70
    70
  9
$TILEMODE
 70
     1
  9
$MAXACTVP
 70
    64
  9
$PINSBASE
 10
0.0
 20
0.0
 30
0.0
  9
$PLIMCHECK
 70
     0
  9
$PEXTMIN
 10
1.0000000000E+20
 20
1.0000000000E+20
 30
1.0000000000E+20
  9
$PEXTMAX
 10
-1.0000000000E+20
 20
-1.0000000000E+20
 30
-1.0000000000E+20
  9
$PLIMMIN
 10
0.0
 20
0.0
  9
$PLIMMAX
 10
420.0
 20
297.0
  9
$UNITMODE
 70
     0
  9
$VISRETAIN
 70
     1
  9
$PLINEGEN
 70
     0
  9
$PSLTSCALE
 70
     1
  9
$TREEDEPTH
 70
  3020
  9
$CMLSTYLE
  2
Standard
  9
$CMLJUST
 70
     0
  9
$CMLSCALE
 40
20.0
  9
$PROXYGRAPHICS
 70
     1
  9
$MEASUREMENT
 70
     1
  9
$CELWEIGHT
370
    -1
  9
$ENDCAPS
280
     0
  9
$JOINSTYLE
280
     0
  9
$LWDISPLAY
290
     1
  9
$INSUNITS
 70
     4
  9
$HYPERLINKBASE
  1

  9
$STYLESHEET
  1

  9
$XEDIT
290
     1
  9
$CEPSNTYPE
380
     0
  9
$PSTYLEMODE
290
     1
  9
$FINGERPRINTGUID
  2
{3CA5F3A5-95CE-4B25-8211-C8CC5706F2D0}
  9
$VERSIONGUID
  2
{FAEB1C32-E019-11D5-929B-00C0DF256EC4}
  9
$EXTNAMES
290
     1
  9
$PSVPSCALE
 40
0.0
  9
$OLESTARTUP
290
     0
  0
ENDSEC
  0
SECTION
  2
CLASSES
  0
CLASS
  1
ACDBDICTIONARYWDFLT
  2
AcDbDictionaryWithDefault
  3
ObjectDBX Classes
 90
        0
280
     0
281
     0
  0
CLASS
  1
VISUALSTYLE
  2
AcDbVisualStyle
  3
ObjectDBX Classes
 90
     4095
280
     0
281
     0
  0
CLASS
  1
MATERIAL
  2
AcDbMaterial
  3
ObjectDBX Classes
 90
     1153
280
     0
281
     0
  0
CLASS
  1
SCALE
  2
AcDbScale
  3
ObjectDBX Classes
 90
     1153
280
     0
281
     0
  0
CLASS
  1
TABLESTYLE
  2
AcDbTableStyle
  3
ObjectDBX Classes
 90
     4095
280
     0
281
     0
  0
CLASS
  1
MLEADERSTYLE
  2
AcDbMLeaderStyle
  3
ACDB_MLEADERSTYLE_CLASS
 90
     4095
280
     0
281
     0
  0
CLASS
  1
SUN
  2
AcDbSun
  3
SCENEOE
 90
     1153
280
     0
281
     0
  0
CLASS
  1
ACDBPLACEHOLDER
  2
AcDbPlaceHolder
  3
ObjectDBX Classes
 90
        0
280
     0
281
     0
  0
CLASS
  1
LAYOUT
  2
AcDbLayout
  3
ObjectDBX Classes
 90
        0
280
     0
281
     0
  0
ENDSEC
  0
SECTION
  2
TABLES
  0
TABLE
  2
VPORT
  5
8
330
0
100
AcDbSymbolTable
 70
     1
  0
VPORT
  5
29
330
8
100
AcDbSymbolTableRecord
100
AcDbViewportTableRecord
  2
*Active
 70
     0
 10
0.0
 20
0.0
 11
1.0
 21
1.0
 12
-141.2959544223
 22
26.8558536585
 13
0.0
 23
0.0
 14
10.0
 24
10.0
 15
10.0
 25
10.0
 16
0.0
 26
0.0
 36
1.0
 17
0.0
 27
0.0
 37
0.0
 40
290.7
 41
1.4035087719
 42
50.0
 43
0.0
 44
0.0
 50
0.0
 51
0.0
 71
     0
 72
   100
 73
     1
 74
     3
 75
     0
 76
     0
 77
     0
 78
     0
281
     0
 65
     1
110
0.0
120
0.0
130
0.0
111
1.0
121
0.0
131
0.0
112
0.0
122
1.0
132
0.0
 79
     0
146
0.0
  0
ENDTAB
  0
TABLE
  2
LTYPE
  5
5
330
0
100
AcDbSymbolTable
 70
     6
  0
LTYPE
  5
14
330
5
100
AcDbSymbolTableRecord
100
AcDbLinetypeTableRecord
  2
ByBlock
 70
     0
  3

 72
    65
 73
     0
 40
0.0
  0
LTYPE
  5
15
330
5
100
AcDbSymbolTableRecord
100
AcDbLinetypeTableRecord
  2
ByLayer
 70
     0
  3

 72
    65
 73
     0
 40
0.0
  0
LTYPE
  5
16
330
5
100
AcDbSymbolTableRecord
100
AcDbLinetypeTableRecord
  2
Continuous
 70
     0
  3
Solid line
 72
    65
 73
     0
 40
0.0
  0
LTYPE
  5
6E
330
5
100
AcDbSymbolTableRecord
100
AcDbLinetypeTableRecord
  2
HIDDEN
 70
     0
  3
Hidden __ __ __ __ __ __ __ __ __ __ __ __ __ __
 72
    65
 73
     2
 40
1.905
 49
1.27
 74
     0
 49
-0.635
 74
     0
  0
LTYPE
  5
6F
330
5
100
AcDbSymbolTableRecord
100
AcDbLinetypeTableRecord
  2
PHANTOM
 70
     0
  3
Phantom ______  __  __  ______  __  __  ______
 72
    65
 73
     6
 40
12.7
 49
6.35
 74
     0
 49
-1.27
 74
     0
 49
1.27
 74
     0
 49
-1.27
 74
     0
 49
1.27
 74
     0
 49
-1.27
 74
     0
  0
LTYPE
  5
70
330
5
100
AcDbSymbolTableRecord
100
AcDbLinetypeTableRecord
  2
CENTER
 70
     0
  3
Center ____ _ ____ _ ____ _ ____ _ ____ _ ____
 72
    65
 73
     4
 40
10.16
 49
6.35
 74
     0
 49
-1.27
 74
     0
 49
1.27
 74
     0
 49
-1.27
 74
     0
  0
LTYPE
  5
71
330
5
100
AcDbSymbolTableRecord
100
AcDbLinetypeTableRecord
  2
CENTERX2
 70
     0
  3
Center (2x) ________  __  ________  __  _____
 72
    65
 73
     4
 40
20.32
 49
12.7
 74
     0
 49
-2.54
 74
     0
 49
2.54
 74
     0
 49
-2.54
 74
     0
  0
LTYPE
  5
72
330
5
100
AcDbSymbolTableRecord
100
AcDbLinetypeTableRecord
  2
DOT2
 70
     0
  3
Dot (.5x) ........................................
 72
    65
 73
     2
 40
0.635
 49
0.0
 74
     0
 49
-0.635
 74
     0
  0
ENDTAB
  0
TABLE
  2
LAYER
  5
2
330
0
100
AcDbSymbolTable
 70
     1
  0
LAYER
  5
10
330
2
100
AcDbSymbolTableRecord
100
AcDbLayerTableRecord
  2
0
 70
     0
 62
     7
  6
Continuous
370
    -3
390
F
  0
ENDTAB
  0
TABLE
  2
STYLE
  5
3
330
0
100
AcDbSymbolTable
 70
     1
  0
STYLE
  5
11
330
3
100
AcDbSymbolTableRecord
100
AcDbTextStyleTableRecord
  2
Standard
 70
     0
 40
0.0
 41
1.0
 50
0.0
 71
     0
 42
6.35
  3
txt
  4

  0
ENDTAB
  0
TABLE
  2
VIEW
  5
6
330
0
100
AcDbSymbolTable
 70
     0
  0
ENDTAB
  0
TABLE
  2
UCS
  5
7
330
0
100
AcDbSymbolTable
 70
     0
  0
ENDTAB
  0
TABLE
  2
APPID
  5
9
330
0
100
AcDbSymbolTable
 70
     1
  0
APPID
  5
12
330
9
100
AcDbSymbolTableRecord
100
AcDbRegAppTableRecord
  2
ACAD
 70
     0
  0
ENDTAB
  0
TABLE
  2
DIMSTYLE
  5
A
330
0
100
AcDbSymbolTable
 70
     1
100
AcDbDimStyleTable
  0
DIMSTYLE
105
27
330
A
100
AcDbSymbolTableRecord
100
AcDbDimStyleTableRecord
  2
ISO-25
 70
     0
 41
2.5
 42
0.625
 43
3.75
 44
1.25
 73
     0
 74
     0
 77
     1
 78
     8
140
2.5
141
2.5
143
0.0393700787
147
0.625
171
     3
172
     1
178
     0
271
     2
272
     2
274
     3
278
    44
283
     0
284
     8
340
11
  0
ENDTAB
  0
TABLE
  2
BLOCK_RECORD
  5
1
330
0
100
AcDbSymbolTable
 70
     1
  0
BLOCK_RECORD
  5
1F
330
1
100
AcDbSymbolTableRecord
100
AcDbBlockTableRecord
  2
*Model_Space
340
22
  0
BLOCK_RECORD
  5
1B
330
1
100
AcDbSymbolTableRecord
100
AcDbBlockTableRecord
  2
*Paper_Space
340
1E
  0
BLOCK_RECORD
  5
23
330
1
100
AcDbSymbolTableRecord
100
AcDbBlockTableRecord
  2
*Paper_Space0
340
26
  0
ENDTAB
  0
ENDSEC
  0
SECTION
  2
BLOCKS
  0
BLOCK
  5
20
330
1F
100
AcDbEntity
  8
0
100
AcDbBlockBegin
  2
*Model_Space
 70
     0
 10
0.0
 20
0.0
 30
0.0
  3
*Model_Space
  1

  0
ENDBLK
  5
21
330
1F
100
AcDbEntity
  8
0
100
AcDbBlockEnd
  0
BLOCK
  5
1C
330
1B
100
AcDbEntity
 67
     1
  8
0
100
AcDbBlockBegin
  2
*Paper_Space
 70
     0
 10
0.0
 20
0.0
 30
0.0
  3
*Paper_Space
  1

  0
ENDBLK
  5
1D
330
1B
100
AcDbEntity
 67
     1
  8
0
100
AcDbBlockEnd
  0
BLOCK
  5
24
330
23
100
AcDbEntity
  8
0
100
AcDbBlockBegin
  2
*Paper_Space0
 70
     0
 10
0.0
 20
0.0
 30
0.0
  3
*Paper_Space0
  1

  0
ENDBLK
  5
25
330
23
100
AcDbEntity
  8
0
100
AcDbBlockEnd
  0
ENDSEC
  0
SECTION
  2
ENTITIES
  0
LINE
  5
3BF
330
1F
100
AcDbEntity
  8
0
  6
Continuous
 62
     7
370
    25
100
AcDbLine
 10
-331.2959544223
 20
-75.6441463415
 30
0.0
 11
-336.2959544223
 21
-75.6441463415
 31
0.0
  0
LINE
  5
3C0
330
1F
100
AcDbEntity
  8
0
  6
Continuous
 62
     7
370
    25
100
AcDbLine
 10
48.7040455777
 20
-95.6441463415
 30
0.0
 11
53.7040455777
 21
-95.6441463415
 31
0.0
  0
LINE
  5
3C1
330
1F
100
AcDbEntity
  8
0
  6
Continuous
 62
     7
370
    25
100
AcDbLine
 10
48.7040455777
 20
-50.6441463415
 30
0.0
 11
53.7040455777
 21
-50.6441463415
 31
0.0
  0
LINE
  5
3C2
330
1F
100
AcDbEntity
  8
0
  6
Continuous
 62
     7
370
    25
100
AcDbLine
 10
48.7040455777
 20
-5.6441463415
 30
0.0
 11
53.7040455777
 21
-5.6441463415
 31
0.0
  0
LINE
  5
3C3
330
1F
100
AcDbEntity
  8
0
  6
Continuous
 62
     7
370
    25
100
AcDbLine
 10
48.7040455777
 20
39.3558536585
 30
0.0
 11
53.7040455777
 21
39.3558536585
 31
0.0
  0
LINE
  5
3C4
330
1F
100
AcDbEntity
  8
0
  6
Continuous
 62
     7
370
    25
100
AcDbLine
 10
48.7040455777
 20
84.3558536585
 30
0.0
 11
53.7040455777
 21
84.3558536585
 31
0.0
  0
LINE
  5
3C5
330
1F
100
AcDbEntity
  8
0
  6
Continuous
 62
     7
370
    25
100
AcDbLine
 10
48.7040455777
 20
129.3558536585
 30
0.0
 11
53.7040455777
 21
129.3558536585
 31
0.0
  0
LINE
  5
3C6
330
1F
100
AcDbEntity
  8
0
  6
Continuous
 62
     7
370
    25
100
AcDbLine
 10
-331.2959544223
 20
129.3558536585
 30
0.0
 11
-336.2959544223
 21
129.3558536585
 31
0.0
  0
LINE
  5
3C7
330
1F
100
AcDbEntity
  8
0
  6
Continuous
 62
     7
370
    25
100
AcDbLine
 10
38.7040455777
 20
164.3558536585
 30
0.0
 11
38.7040455777
 21
159.3558536585
 31
0.0
  0
LINE
  5
3C8
330
1F
100
AcDbEntity
  8
0
  6
Continuous
 62
     7
370
    25
100
AcDbLine
 10
-3.7959544223
 20
164.3558536585
 30
0.0
 11
-3.7959544223
 21
159.3558536585
 31
0.0
  0
LINE
  5
3C9
330
1F
100
AcDbEntity
  8
0
  6
Continuous
 62
     7
370
    25
100
AcDbLine
 10
-46.2959544223
 20
164.3558536585
 30
0.0
 11
-46.2959544223
 21
159.3558536585
 31
0.0
  0
LINE
  5
3CA
330
1F
100
AcDbEntity
  8
0
  6
Continuous
 62
     7
370
    25
100
AcDbLine
 10
-88.7959544223
 20
164.3558536585
 30
0.0
 11
-88.7959544223
 21
159.3558536585
 31
0.0
  0
LINE
  5
3CB
330
1F
100
AcDbEntity
  8
0
  6
Continuous
 62
     7
370
    25
100
AcDbLine
 10
-131.2959544223
 20
164.3558536585
 30
0.0
 11
-131.2959544223
 21
159.3558536585
 31
0.0
  0
LINE
  5
3CC
330
1F
100
AcDbEntity
  8
0
  6
Continuous
 62
     7
370
    25
100
AcDbLine
 10
-173.7959544223
 20
164.3558536585
 30
0.0
 11
-173.7959544223
 21
159.3558536585
 31
0.0
  0
LINE
  5
3CD
330
1F
100
AcDbEntity
  8
0
  6
Continuous
 62
     7
370
    25
100
AcDbLine
 10
-216.2959544223
 20
164.3558536585
 30
0.0
 11
-216.2959544223
 21
159.3558536585
 31
0.0
  0
LINE
  5
3CE
330
1F
100
AcDbEntity
  8
0
  6
Continuous
 62
     7
370
    25
100
AcDbLine
 10
-258.7959544223
 20
164.3558536585
 30
0.0
 11
-258.7959544223
 21
159.3558536585
 31
0.0
  0
LINE
  5
3CF
330
1F
100
AcDbEntity
  8
0
  6
Continuous
 62
     7
370
    25
100
AcDbLine
 10
-323.7959544223
 20
-98.6441463415
 30
0.0
 11
-258.7959544223
 21
-98.6441463415
 31
0.0
  0
LINE
  5
3D0
330
1F
100
AcDbEntity
  8
0
  6
Continuous
 62
     7
370
    25
100
AcDbLine
 10
-323.7959544223
 20
-33.6441463415
 30
0.0
 11
-258.7959544223
 21
-33.6441463415
 31
0.0
  0
LINE
  5
3D1
330
1F
100
AcDbEntity
  8
0
  6
Continuous
 62
     7
370
    25
100
AcDbLine
 10
-323.7959544223
 20
31.3558536585
 30
0.0
 11
-258.7959544223
 21
31.3558536585
 31
0.0
  0
LINE
  5
3D2
330
1F
100
AcDbEntity
  8
0
  6
Continuous
 62
     7
370
    25
100
AcDbLine
 10
-323.7959544223
 20
96.3558536585
 30
0.0
 11
-258.7959544223
 21
96.3558536585
 31
0.0
  0
LINE
  5
3D3
330
1F
100
AcDbEntity
  8
0
  6
Continuous
 62
     7
370
    25
100
AcDbLine
 10
-248.7959544223
 20
-98.6441463415
 30
0.0
 11
-183.7959544223
 21
-98.6441463415
 31
0.0
  0
LINE
  5
3D4
330
1F
100
AcDbEntity
  8
0
  6
Continuous
 62
     7
370
    25
100
AcDbLine
 10
-248.7959544223
 20
-33.6441463415
 30
0.0
 11
-183.7959544223
 21
-33.6441463415
 31
0.0
  0
LINE
  5
3D5
330
1F
100
AcDbEntity
  8
0
  6
Continuous
 62
     7
370
    25
100
AcDbLine
 10
-248.7959544223
 20
31.3558536585
 30
0.0
 11
-183.7959544223
 21
31.3558536585
 31
0.0
  0
LINE
  5
3D6
330
1F
100
AcDbEntity
  8
0
  6
Continuous
 62
     7
370
    25
100
AcDbLine
 10
-248.7959544223
 20
96.3558536585
 30
0.0
 11
-183.7959544223
 21
96.3558536585
 31
0.0
  0
LINE
  5
3D7
330
1F
100
AcDbEntity
  8
0
  6
Continuous
 62
     7
370
    25
100
AcDbLine
 10
-173.7959544223
 20
-98.6441463415
 30
0.0
 11
-108.7959544223
 21
-98.6441463415
 31
0.0
  0
LINE
  5
3D8
330
1F
100
AcDbEntity
  8
0
  6
Continuous
 62
     7
370
    25
100
AcDbLine
 10
-173.7959544223
 20
-33.6441463415
 30
0.0
 11
-108.7959544223
 21
-33.6441463415
 31
0.0
  0
LINE
  5
3D9
330
1F
100
AcDbEntity
  8
0
  6
Continuous
 62
     7
370
    25
100
AcDbLine
 10
-173.7959544223
 20
31.3558536585
 30
0.0
 11
-108.7959544223
 21
31.3558536585
 31
0.0
  0
LINE
  5
3DA
330
1F
100
AcDbEntity
  8
0
  6
Continuous
 62
     7
370
    25
100
AcDbLine
 10
-173.7959544223
 20
96.3558536585
 30
0.0
 11
-108.7959544223
 21
96.3558536585
 31
0.0
  0
LINE
  5
3DB
330
1F
100
AcDbEntity
  8
0
  6
Continuous
 62
     7
370
    25
100
AcDbLine
 10
-98.7959544223
 20
-98.6441463415
 30
0.0
 11
-33.7959544223
 21
-98.6441463415
 31
0.0
  0
LINE
  5
3DC
330
1F
100
AcDbEntity
  8
0
  6
Continuous
 62
     7
370
    25
100
AcDbLine
 10
-98.7959544223
 20
-33.6441463415
 30
0.0
 11
-33.7959544223
 21
-33.6441463415
 31
0.0
  0
LINE
  5
3DD
330
1F
100
AcDbEntity
  8
0
  6
Continuous
 62
     7
370
    25
100
AcDbLine
 10
-98.7959544223
 20
31.3558536585
 30
0.0
 11
-33.7959544223
 21
31.3558536585
 31
0.0
  0
LINE
  5
3DE
330
1F
100
AcDbEntity
  8
0
  6
Continuous
 62
     7
370
    25
100
AcDbLine
 10
-98.7959544223
 20
96.3558536585
 30
0.0
 11
-33.7959544223
 21
96.3558536585
 31
0.0
  0
LINE
  5
3DF
330
1F
100
AcDbEntity
  8
0
  6
Continuous
 62
     7
370
    25
100
AcDbLine
 10
-23.7959544223
 20
-98.6441463415
 30
0.0
 11
41.2040455777
 21
-98.6441463415
 31
0.0
  0
LINE
  5
3E0
330
1F
100
AcDbEntity
  8
0
  6
Continuous
 62
     7
370
    25
100
AcDbLine
 10
-23.7959544223
 20
-33.6441463415
 30
0.0
 11
41.2040455777
 21
-33.6441463415
 31
0.0
  0
LINE
  5
3E1
330
1F
100
AcDbEntity
  8
0
  6
Continuous
 62
     7
370
    25
100
AcDbLine
 10
-23.7959544223
 20
31.3558536585
 30
0.0
 11
41.2040455777
 21
31.3558536585
 31
0.0
  0
LINE
  5
3E2
330
1F
100
AcDbEntity
  8
0
  6
Continuous
 62
     7
370
    25
100
AcDbLine
 10
-341.2959544223
 20
-115.6441463415
 30
0.0
 11
-341.2959544223
 21
169.3558536585
 31
0.0
  0
LINE
  5
3E3
330
1F
100
AcDbEntity
  8
0
  6
Continuous
 62
     7
370
    25
100
AcDbLine
 10
-23.7959544223
 20
96.3558536585
 30
0.0
 11
41.2040455777
 21
96.3558536585
 31
0.0
  0
LINE
  5
3E4
330
1F
100
AcDbEntity
  8
0
  6
Continuous
 62
     7
370
    25
100
AcDbLine
 10
-321.2959544223
 20
164.3558536585
 30
0.0
 11
-321.2959544223
 21
159.3558536585
 31
0.0
  0
LINE
  5
3E5
330
1F
100
AcDbEntity
  8
0
  6
Continuous
 62
     7
370
    25
100
AcDbLine
 10
-301.2959544223
 20
-110.6441463415
 30
0.0
 11
-301.2959544223
 21
-105.6441463415
 31
0.0
  0
LINE
  5
3E6
330
1F
100
AcDbEntity
  8
0
  6
Continuous
 62
     7
370
    25
100
AcDbLine
 10
-258.7959544223
 20
-110.6441463415
 30
0.0
 11
-258.7959544223
 21
-105.6441463415
 31
0.0
  0
LINE
  5
3E7
330
1F
100
AcDbEntity
  8
0
  6
Continuous
 62
     7
370
    25
100
AcDbLine
 10
-216.2959544223
 20
-110.6441463415
 30
0.0
 11
-216.2959544223
 21
-105.6441463415
 31
0.0
  0
LINE
  5
3E8
330
1F
100
AcDbEntity
  8
0
  6
Continuous
 62
     7
370
    25
100
AcDbLine
 10
-173.7959544223
 20
-110.6441463415
 30
0.0
 11
-173.7959544223
 21
-105.6441463415
 31
0.0
  0
LINE
  5
3E9
330
1F
100
AcDbEntity
  8
0
  6
Continuous
 62
     7
370
    25
100
AcDbLine
 10
-131.2959544223
 20
-110.6441463415
 30
0.0
 11
-131.2959544223
 21
-105.6441463415
 31
0.0
  0
LINE
  5
3EA
330
1F
100
AcDbEntity
  8
0
  6
Continuous
 62
     7
370
    25
100
AcDbLine
 10
-88.7959544223
 20
-110.6441463415
 30
0.0
 11
-88.7959544223
 21
-105.6441463415
 31
0.0
  0
LINE
  5
3EB
330
1F
100
AcDbEntity
  8
0
  6
Continuous
 62
     7
370
    25
100
AcDbLine
 10
-46.2959544223
 20
-110.6441463415
 30
0.0
 11
-46.2959544223
 21
-105.6441463415
 31
0.0
  0
LINE
  5
3EC
330
1F
100
AcDbEntity
  8
0
  6
Continuous
 62
     7
370
    25
100
AcDbLine
 10
-3.7959544223
 20
-110.6441463415
 30
0.0
 11
-3.7959544223
 21
-105.6441463415
 31
0.0
  0
LINE
  5
3ED
330
1F
100
AcDbEntity
  8
0
  6
Continuous
 62
     7
370
    25
100
AcDbLine
 10
38.7040455777
 20
-110.6441463415
 30
0.0
 11
38.7040455777
 21
-105.6441463415
 31
0.0
  0
LINE
  5
3EE
330
1F
100
AcDbEntity
  8
0
  6
Continuous
 62
     7
370
    25
100
AcDbLine
 10
-331.2959544223
 20
104.3558536585
 30
0.0
 11
-336.2959544223
 21
104.3558536585
 31
0.0
  0
LINE
  5
3EF
330
1F
100
AcDbEntity
  8
0
  6
Continuous
 62
     7
370
    25
100
AcDbLine
 10
-331.2959544223
 20
59.3558536585
 30
0.0
 11
-336.2959544223
 21
59.3558536585
 31
0.0
  0
LINE
  5
3F0
330
1F
100
AcDbEntity
  8
0
  6
Continuous
 62
     7
370
    25
100
AcDbLine
 10
-331.2959544223
 20
14.3558536585
 30
0.0
 11
-336.2959544223
 21
14.3558536585
 31
0.0
  0
LINE
  5
3F1
330
1F
100
AcDbEntity
  8
0
  6
Continuous
 62
     7
370
    25
100
AcDbLine
 10
-331.2959544223
 20
-30.6441463415
 30
0.0
 11
-336.2959544223
 21
-30.6441463415
 31
0.0
  0
LINE
  5
3F2
330
1F
100
AcDbEntity
  8
0
  6
Continuous
 62
     7
370
    25
100
AcDbLine
 10
53.7040455777
 20
-75.6441463415
 30
0.0
 11
53.7040455777
 21
-95.6441463415
 31
0.0
  0
LINE
  5
3F3
330
1F
100
AcDbEntity
  8
0
  6
Continuous
 62
     7
370
    25
100
AcDbLine
 10
48.7040455777
 20
-75.6441463415
 30
0.0
 11
53.7040455777
 21
-75.6441463415
 31
0.0
  0
LINE
  5
3F4
330
1F
100
AcDbEntity
  8
0
  6
Continuous
 62
     7
370
    25
100
AcDbLine
 10
48.7040455777
 20
-75.6441463415
 30
0.0
 11
48.7040455777
 21
-95.6441463415
 31
0.0
  0
LINE
  5
3F5
330
1F
100
AcDbEntity
  8
0
  6
Continuous
 62
     7
370
    25
100
AcDbLine
 10
53.7040455777
 20
-30.6441463415
 30
0.0
 11
53.7040455777
 21
-50.6441463415
 31
0.0
  0
LINE
  5
3F6
330
1F
100
AcDbEntity
  8
0
  6
Continuous
 62
     7
370
    25
100
AcDbLine
 10
48.7040455777
 20
-30.6441463415
 30
0.0
 11
53.7040455777
 21
-30.6441463415
 31
0.0
  0
LINE
  5
3F7
330
1F
100
AcDbEntity
  8
0
  6
Continuous
 62
     7
370
    25
100
AcDbLine
 10
48.7040455777
 20
-30.6441463415
 30
0.0
 11
48.7040455777
 21
-50.6441463415
 31
0.0
  0
LINE
  5
3F8
330
1F
100
AcDbEntity
  8
0
  6
Continuous
 62
     7
370
    25
100
AcDbLine
 10
53.7040455777
 20
14.3558536585
 30
0.0
 11
53.7040455777
 21
-5.6441463415
 31
0.0
  0
LINE
  5
3F9
330
1F
100
AcDbEntity
  8
0
  6
Continuous
 62
     7
370
    25
100
AcDbLine
 10
48.7040455777
 20
14.3558536585
 30
0.0
 11
53.7040455777
 21
14.3558536585
 31
0.0
  0
LINE
  5
3FA
330
1F
100
AcDbEntity
  8
0
  6
Continuous
 62
     7
370
    25
100
AcDbLine
 10
48.7040455777
 20
14.3558536585
 30
0.0
 11
48.7040455777
 21
-5.6441463415
 31
0.0
  0
LINE
  5
3FB
330
1F
100
AcDbEntity
  8
0
  6
Continuous
 62
     7
370
    25
100
AcDbLine
 10
53.7040455777
 20
59.3558536585
 30
0.0
 11
53.7040455777
 21
39.3558536585
 31
0.0
  0
LINE
  5
3FC
330
1F
100
AcDbEntity
  8
0
  6
Continuous
 62
     7
370
    25
100
AcDbLine
 10
48.7040455777
 20
59.3558536585
 30
0.0
 11
53.7040455777
 21
59.3558536585
 31
0.0
  0
LINE
  5
3FD
330
1F
100
AcDbEntity
  8
0
  6
Continuous
 62
     7
370
    25
100
AcDbLine
 10
48.7040455777
 20
59.3558536585
 30
0.0
 11
48.7040455777
 21
39.3558536585
 31
0.0
  0
LINE
  5
3FE
330
1F
100
AcDbEntity
  8
0
  6
Continuous
 62
     7
370
    25
100
AcDbLine
 10
53.7040455777
 20
104.3558536585
 30
0.0
 11
53.7040455777
 21
84.3558536585
 31
0.0
  0
LINE
  5
3FF
330
1F
100
AcDbEntity
  8
0
  6
Continuous
 62
     7
370
    25
100
AcDbLine
 10
48.7040455777
 20
104.3558536585
 30
0.0
 11
53.7040455777
 21
104.3558536585
 31
0.0
  0
LINE
  5
400
330
1F
100
AcDbEntity
  8
0
  6
Continuous
 62
     7
370
    25
100
AcDbLine
 10
48.7040455777
 20
104.3558536585
 30
0.0
 11
48.7040455777
 21
84.3558536585
 31
0.0
  0
LINE
  5
401
330
1F
100
AcDbEntity
  8
0
  6
Continuous
 62
     7
370
    25
100
AcDbLine
 10
53.7040455777
 20
149.3558536585
 30
0.0
 11
53.7040455777
 21
129.3558536585
 31
0.0
  0
LINE
  5
402
330
1F
100
AcDbEntity
  8
0
  6
Continuous
 62
     7
370
    25
100
AcDbLine
 10
48.7040455777
 20
149.3558536585
 30
0.0
 11
53.7040455777
 21
149.3558536585
 31
0.0
  0
LINE
  5
403
330
1F
100
AcDbEntity
  8
0
  6
Continuous
 62
     7
370
    25
100
AcDbLine
 10
48.7040455777
 20
149.3558536585
 30
0.0
 11
48.7040455777
 21
129.3558536585
 31
0.0
  0
LINE
  5
404
330
1F
100
AcDbEntity
  8
0
  6
Continuous
 62
     7
370
    25
100
AcDbLine
 10
-331.2959544223
 20
149.3558536585
 30
0.0
 11
-331.2959544223
 21
129.3558536585
 31
0.0
  0
LINE
  5
405
330
1F
100
AcDbEntity
  8
0
  6
Continuous
 62
     7
370
    25
100
AcDbLine
 10
-331.2959544223
 20
149.3558536585
 30
0.0
 11
-336.2959544223
 21
149.3558536585
 31
0.0
  0
LINE
  5
406
330
1F
100
AcDbEntity
  8
0
  6
Continuous
 62
     7
370
    25
100
AcDbLine
 10
-336.2959544223
 20
149.3558536585
 30
0.0
 11
-336.2959544223
 21
129.3558536585
 31
0.0
  0
LINE
  5
407
330
1F
100
AcDbEntity
  8
0
  6
Continuous
 62
     7
370
    25
100
AcDbLine
 10
18.7040455777
 20
164.3558536585
 30
0.0
 11
38.7040455777
 21
164.3558536585
 31
0.0
  0
LINE
  5
408
330
1F
100
AcDbEntity
  8
0
  6
Continuous
 62
     7
370
    25
100
AcDbLine
 10
18.7040455777
 20
164.3558536585
 30
0.0
 11
18.7040455777
 21
159.3558536585
 31
0.0
  0
LINE
  5
409
330
1F
100
AcDbEntity
  8
0
  6
Continuous
 62
     7
370
    25
100
AcDbLine
 10
18.7040455777
 20
159.3558536585
 30
0.0
 11
38.7040455777
 21
159.3558536585
 31
0.0
  0
LINE
  5
40A
330
1F
100
AcDbEntity
  8
0
  6
Continuous
 62
     7
370
    25
100
AcDbLine
 10
-23.7959544223
 20
164.3558536585
 30
0.0
 11
-3.7959544223
 21
164.3558536585
 31
0.0
  0
LINE
  5
40B
330
1F
100
AcDbEntity
  8
0
  6
Continuous
 62
     7
370
    25
100
AcDbLine
 10
-23.7959544223
 20
164.3558536585
 30
0.0
 11
-23.7959544223
 21
159.3558536585
 31
0.0
  0
LINE
  5
40C
330
1F
100
AcDbEntity
  8
0
  6
Continuous
 62
     7
370
    25
100
AcDbLine
 10
-23.7959544223
 20
159.3558536585
 30
0.0
 11
-3.7959544223
 21
159.3558536585
 31
0.0
  0
LINE
  5
40D
330
1F
100
AcDbEntity
  8
0
  6
Continuous
 62
     7
370
    25
100
AcDbLine
 10
-66.2959544223
 20
164.3558536585
 30
0.0
 11
-46.2959544223
 21
164.3558536585
 31
0.0
  0
LINE
  5
40E
330
1F
100
AcDbEntity
  8
0
  6
Continuous
 62
     7
370
    25
100
AcDbLine
 10
-66.2959544223
 20
164.3558536585
 30
0.0
 11
-66.2959544223
 21
159.3558536585
 31
0.0
  0
LINE
  5
40F
330
1F
100
AcDbEntity
  8
0
  6
Continuous
 62
     7
370
    25
100
AcDbLine
 10
-66.2959544223
 20
159.3558536585
 30
0.0
 11
-46.2959544223
 21
159.3558536585
 31
0.0
  0
LINE
  5
410
330
1F
100
AcDbEntity
  8
0
  6
Continuous
 62
     7
370
    25
100
AcDbLine
 10
-108.7959544223
 20
164.3558536585
 30
0.0
 11
-88.7959544223
 21
164.3558536585
 31
0.0
  0
LINE
  5
411
330
1F
100
AcDbEntity
  8
0
  6
Continuous
 62
     7
370
    25
100
AcDbLine
 10
-108.7959544223
 20
164.3558536585
 30
0.0
 11
-108.7959544223
 21
159.3558536585
 31
0.0
  0
LINE
  5
412
330
1F
100
AcDbEntity
  8
0
  6
Continuous
 62
     7
370
    25
100
AcDbLine
 10
-108.7959544223
 20
159.3558536585
 30
0.0
 11
-88.7959544223
 21
159.3558536585
 31
0.0
  0
LINE
  5
413
330
1F
100
AcDbEntity
  8
0
  6
Continuous
 62
     7
370
    25
100
AcDbLine
 10
-151.2959544223
 20
164.3558536585
 30
0.0
 11
-131.2959544223
 21
164.3558536585
 31
0.0
  0
LINE
  5
414
330
1F
100
AcDbEntity
  8
0
  6
Continuous
 62
     7
370
    25
100
AcDbLine
 10
-151.2959544223
 20
164.3558536585
 30
0.0
 11
-151.2959544223
 21
159.3558536585
 31
0.0
  0
LINE
  5
415
330
1F
100
AcDbEntity
  8
0
  6
Continuous
 62
     7
370
    25
100
AcDbLine
 10
-151.2959544223
 20
159.3558536585
 30
0.0
 11
-131.2959544223
 21
159.3558536585
 31
0.0
  0
LINE
  5
416
330
1F
100
AcDbEntity
  8
0
  6
Continuous
 62
     7
370
    25
100
AcDbLine
 10
-193.7959544223
 20
164.3558536585
 30
0.0
 11
-173.7959544223
 21
164.3558536585
 31
0.0
  0
LINE
  5
417
330
1F
100
AcDbEntity
  8
0
  6
Continuous
 62
     7
370
    25
100
AcDbLine
 10
-193.7959544223
 20
164.3558536585
 30
0.0
 11
-193.7959544223
 21
159.3558536585
 31
0.0
  0
LINE
  5
418
330
1F
100
AcDbEntity
  8
0
  6
Continuous
 62
     7
370
    25
100
AcDbLine
 10
-193.7959544223
 20
159.3558536585
 30
0.0
 11
-173.7959544223
 21
159.3558536585
 31
0.0
  0
LINE
  5
419
330
1F
100
AcDbEntity
  8
0
  6
Continuous
 62
     7
370
    25
100
AcDbLine
 10
-236.2959544223
 20
164.3558536585
 30
0.0
 11
-216.2959544223
 21
164.3558536585
 31
0.0
  0
LINE
  5
41A
330
1F
100
AcDbEntity
  8
0
  6
Continuous
 62
     7
370
    25
100
AcDbLine
 10
-236.2959544223
 20
164.3558536585
 30
0.0
 11
-236.2959544223
 21
159.3558536585
 31
0.0
  0
LINE
  5
41B
330
1F
100
AcDbEntity
  8
0
  6
Continuous
 62
     7
370
    25
100
AcDbLine
 10
-236.2959544223
 20
159.3558536585
 30
0.0
 11
-216.2959544223
 21
159.3558536585
 31
0.0
  0
LINE
  5
41C
330
1F
100
AcDbEntity
  8
0
  6
Continuous
 62
     7
370
    25
100
AcDbLine
 10
-278.7959544223
 20
164.3558536585
 30
0.0
 11
-258.7959544223
 21
164.3558536585
 31
0.0
  0
LINE
  5
41D
330
1F
100
AcDbEntity
  8
0
  6
Continuous
 62
     7
370
    25
100
AcDbLine
 10
-278.7959544223
 20
164.3558536585
 30
0.0
 11
-278.7959544223
 21
159.3558536585
 31
0.0
  0
LINE
  5
41E
330
1F
100
AcDbEntity
  8
0
  6
Continuous
 62
     7
370
    25
100
AcDbLine
 10
-278.7959544223
 20
159.3558536585
 30
0.0
 11
-258.7959544223
 21
159.3558536585
 31
0.0
  0
LINE
  5
41F
330
1F
100
AcDbEntity
  8
0
  6
Continuous
 62
     7
370
    25
100
AcDbLine
 10
-258.7959544223
 20
-100.6441463415
 30
0.0
 11
-258.7959544223
 21
-98.6441463415
 31
0.0
  0
LINE
  5
420
330
1F
100
AcDbEntity
  8
0
  6
Continuous
 62
     7
370
    25
100
AcDbLine
 10
-256.2959544223
 20
-100.6441463415
 30
0.0
 11
-258.7959544223
 21
-100.6441463415
 31
0.0
  0
LINE
  5
421
330
1F
100
AcDbEntity
  8
0
  6
Continuous
 62
     7
370
    25
100
AcDbLine
 10
-256.2959544223
 20
-40.6441463415
 30
0.0
 11
-256.2959544223
 21
-100.6441463415
 31
0.0
  0
LINE
  5
422
330
1F
100
AcDbEntity
  8
0
  6
Continuous
 62
     7
370
    25
100
AcDbLine
 10
-326.2959544223
 20
-40.6441463415
 30
0.0
 11
-256.2959544223
 21
-40.6441463415
 31
0.0
  0
LINE
  5
423
330
1F
100
AcDbEntity
  8
0
  6
Continuous
 62
     7
370
    25
100
AcDbLine
 10
-326.2959544223
 20
-100.6441463415
 30
0.0
 11
-326.2959544223
 21
-40.6441463415
 31
0.0
  0
LINE
  5
424
330
1F
100
AcDbEntity
  8
0
  6
Continuous
 62
     7
370
    25
100
AcDbLine
 10
-323.7959544223
 20
-100.6441463415
 30
0.0
 11
-326.2959544223
 21
-100.6441463415
 31
0.0
  0
LINE
  5
425
330
1F
100
AcDbEntity
  8
0
  6
Continuous
 62
     7
370
    25
100
AcDbLine
 10
-323.7959544223
 20
-100.6441463415
 30
0.0
 11
-323.7959544223
 21
-98.6441463415
 31
0.0
  0
LINE
  5
426
330
1F
100
AcDbEntity
  8
0
  6
Continuous
 62
     7
370
    25
100
AcDbLine
 10
-258.7959544223
 20
-35.6441463415
 30
0.0
 11
-258.7959544223
 21
-33.6441463415
 31
0.0
  0
LINE
  5
427
330
1F
100
AcDbEntity
  8
0
  6
Continuous
 62
     7
370
    25
100
AcDbLine
 10
-256.2959544223
 20
-35.6441463415
 30
0.0
 11
-258.7959544223
 21
-35.6441463415
 31
0.0
  0
LINE
  5
428
330
1F
100
AcDbEntity
  8
0
  6
Continuous
 62
     7
370
    25
100
AcDbLine
 10
-256.2959544223
 20
24.3558536585
 30
0.0
 11
-256.2959544223
 21
-35.6441463415
 31
0.0
  0
LINE
  5
429
330
1F
100
AcDbEntity
  8
0
  6
Continuous
 62
     7
370
    25
100
AcDbLine
 10
-326.2959544223
 20
24.3558536585
 30
0.0
 11
-256.2959544223
 21
24.3558536585
 31
0.0
  0
LINE
  5
42A
330
1F
100
AcDbEntity
  8
0
  6
Continuous
 62
     7
370
    25
100
AcDbLine
 10
-326.2959544223
 20
-35.6441463415
 30
0.0
 11
-326.2959544223
 21
24.3558536585
 31
0.0
  0
LINE
  5
42B
330
1F
100
AcDbEntity
  8
0
  6
Continuous
 62
     7
370
    25
100
AcDbLine
 10
-323.7959544223
 20
-35.6441463415
 30
0.0
 11
-326.2959544223
 21
-35.6441463415
 31
0.0
  0
LINE
  5
42C
330
1F
100
AcDbEntity
  8
0
  6
Continuous
 62
     7
370
    25
100
AcDbLine
 10
-323.7959544223
 20
-35.6441463415
 30
0.0
 11
-323.7959544223
 21
-33.6441463415
 31
0.0
  0
LINE
  5
42D
330
1F
100
AcDbEntity
  8
0
  6
Continuous
 62
     7
370
    25
100
AcDbLine
 10
-258.7959544223
 20
29.3558536585
 30
0.0
 11
-258.7959544223
 21
31.3558536585
 31
0.0
  0
LINE
  5
42E
330
1F
100
AcDbEntity
  8
0
  6
Continuous
 62
     7
370
    25
100
AcDbLine
 10
-256.2959544223
 20
29.3558536585
 30
0.0
 11
-258.7959544223
 21
29.3558536585
 31
0.0
  0
LINE
  5
42F
330
1F
100
AcDbEntity
  8
0
  6
Continuous
 62
     7
370
    25
100
AcDbLine
 10
-256.2959544223
 20
89.3558536585
 30
0.0
 11
-256.2959544223
 21
29.3558536585
 31
0.0
  0
LINE
  5
430
330
1F
100
AcDbEntity
  8
0
  6
Continuous
 62
     7
370
    25
100
AcDbLine
 10
-326.2959544223
 20
89.3558536585
 30
0.0
 11
-256.2959544223
 21
89.3558536585
 31
0.0
  0
LINE
  5
431
330
1F
100
AcDbEntity
  8
0
  6
Continuous
 62
     7
370
    25
100
AcDbLine
 10
-326.2959544223
 20
29.3558536585
 30
0.0
 11
-326.2959544223
 21
89.3558536585
 31
0.0
  0
LINE
  5
432
330
1F
100
AcDbEntity
  8
0
  6
Continuous
 62
     7
370
    25
100
AcDbLine
 10
-323.7959544223
 20
29.3558536585
 30
0.0
 11
-326.2959544223
 21
29.3558536585
 31
0.0
  0
LINE
  5
433
330
1F
100
AcDbEntity
  8
0
  6
Continuous
 62
     7
370
    25
100
AcDbLine
 10
-323.7959544223
 20
29.3558536585
 30
0.0
 11
-323.7959544223
 21
31.3558536585
 31
0.0
  0
LINE
  5
434
330
1F
100
AcDbEntity
  8
0
  6
Continuous
 62
     7
370
    25
100
AcDbLine
 10
-258.7959544223
 20
94.3558536585
 30
0.0
 11
-258.7959544223
 21
96.3558536585
 31
0.0
  0
LINE
  5
435
330
1F
100
AcDbEntity
  8
0
  6
Continuous
 62
     7
370
    25
100
AcDbLine
 10
-256.2959544223
 20
94.3558536585
 30
0.0
 11
-258.7959544223
 21
94.3558536585
 31
0.0
  0
LINE
  5
436
330
1F
100
AcDbEntity
  8
0
  6
Continuous
 62
     7
370
    25
100
AcDbLine
 10
-256.2959544223
 20
154.3558536585
 30
0.0
 11
-256.2959544223
 21
94.3558536585
 31
0.0
  0
LINE
  5
437
330
1F
100
AcDbEntity
  8
0
  6
Continuous
 62
     7
370
    25
100
AcDbLine
 10
-326.2959544223
 20
154.3558536585
 30
0.0
 11
-256.2959544223
 21
154.3558536585
 31
0.0
  0
LINE
  5
438
330
1F
100
AcDbEntity
  8
0
  6
Continuous
 62
     7
370
    25
100
AcDbLine
 10
-326.2959544223
 20
94.3558536585
 30
0.0
 11
-326.2959544223
 21
154.3558536585
 31
0.0
  0
LINE
  5
439
330
1F
100
AcDbEntity
  8
0
  6
Continuous
 62
     7
370
    25
100
AcDbLine
 10
-323.7959544223
 20
94.3558536585
 30
0.0
 11
-326.2959544223
 21
94.3558536585
 31
0.0
  0
LINE
  5
43A
330
1F
100
AcDbEntity
  8
0
  6
Continuous
 62
     7
370
    25
100
AcDbLine
 10
-323.7959544223
 20
94.3558536585
 30
0.0
 11
-323.7959544223
 21
96.3558536585
 31
0.0
  0
LINE
  5
43B
330
1F
100
AcDbEntity
  8
0
  6
Continuous
 62
     7
370
    25
100
AcDbLine
 10
-183.7959544223
 20
-100.6441463415
 30
0.0
 11
-183.7959544223
 21
-98.6441463415
 31
0.0
  0
LINE
  5
43C
330
1F
100
AcDbEntity
  8
0
  6
Continuous
 62
     7
370
    25
100
AcDbLine
 10
-181.2959544223
 20
-100.6441463415
 30
0.0
 11
-183.7959544223
 21
-100.6441463415
 31
0.0
  0
LINE
  5
43D
330
1F
100
AcDbEntity
  8
0
  6
Continuous
 62
     7
370
    25
100
AcDbLine
 10
-181.2959544223
 20
-40.6441463415
 30
0.0
 11
-181.2959544223
 21
-100.6441463415
 31
0.0
  0
LINE
  5
43E
330
1F
100
AcDbEntity
  8
0
  6
Continuous
 62
     7
370
    25
100
AcDbLine
 10
-251.2959544223
 20
-40.6441463415
 30
0.0
 11
-181.2959544223
 21
-40.6441463415
 31
0.0
  0
LINE
  5
43F
330
1F
100
AcDbEntity
  8
0
  6
Continuous
 62
     7
370
    25
100
AcDbLine
 10
-251.2959544223
 20
-100.6441463415
 30
0.0
 11
-251.2959544223
 21
-40.6441463415
 31
0.0
  0
LINE
  5
440
330
1F
100
AcDbEntity
  8
0
  6
Continuous
 62
     7
370
    25
100
AcDbLine
 10
-248.7959544223
 20
-100.6441463415
 30
0.0
 11
-251.2959544223
 21
-100.6441463415
 31
0.0
  0
LINE
  5
441
330
1F
100
AcDbEntity
  8
0
  6
Continuous
 62
     7
370
    25
100
AcDbLine
 10
-248.7959544223
 20
-100.6441463415
 30
0.0
 11
-248.7959544223
 21
-98.6441463415
 31
0.0
  0
LINE
  5
442
330
1F
100
AcDbEntity
  8
0
  6
Continuous
 62
     7
370
    25
100
AcDbLine
 10
-183.7959544223
 20
-35.6441463415
 30
0.0
 11
-183.7959544223
 21
-33.6441463415
 31
0.0
  0
LINE
  5
443
330
1F
100
AcDbEntity
  8
0
  6
Continuous
 62
     7
370
    25
100
AcDbLine
 10
-181.2959544223
 20
-35.6441463415
 30
0.0
 11
-183.7959544223
 21
-35.6441463415
 31
0.0
  0
LINE
  5
444
330
1F
100
AcDbEntity
  8
0
  6
Continuous
 62
     7
370
    25
100
AcDbLine
 10
-181.2959544223
 20
24.3558536585
 30
0.0
 11
-181.2959544223
 21
-35.6441463415
 31
0.0
  0
LINE
  5
445
330
1F
100
AcDbEntity
  8
0
  6
Continuous
 62
     7
370
    25
100
AcDbLine
 10
-251.2959544223
 20
24.3558536585
 30
0.0
 11
-181.2959544223
 21
24.3558536585
 31
0.0
  0
LINE
  5
446
330
1F
100
AcDbEntity
  8
0
  6
Continuous
 62
     7
370
    25
100
AcDbLine
 10
-251.2959544223
 20
-35.6441463415
 30
0.0
 11
-251.2959544223
 21
24.3558536585
 31
0.0
  0
LINE
  5
447
330
1F
100
AcDbEntity
  8
0
  6
Continuous
 62
     7
370
    25
100
AcDbLine
 10
-248.7959544223
 20
-35.6441463415
 30
0.0
 11
-251.2959544223
 21
-35.6441463415
 31
0.0
  0
LINE
  5
448
330
1F
100
AcDbEntity
  8
0
  6
Continuous
 62
     7
370
    25
100
AcDbLine
 10
-248.7959544223
 20
-35.6441463415
 30
0.0
 11
-248.7959544223
 21
-33.6441463415
 31
0.0
  0
LINE
  5
449
330
1F
100
AcDbEntity
  8
0
  6
Continuous
 62
     7
370
    25
100
AcDbLine
 10
-183.7959544223
 20
29.3558536585
 30
0.0
 11
-183.7959544223
 21
31.3558536585
 31
0.0
  0
LINE
  5
44A
330
1F
100
AcDbEntity
  8
0
  6
Continuous
 62
     7
370
    25
100
AcDbLine
 10
-181.2959544223
 20
29.3558536585
 30
0.0
 11
-183.7959544223
 21
29.3558536585
 31
0.0
  0
LINE
  5
44B
330
1F
100
AcDbEntity
  8
0
  6
Continuous
 62
     7
370
    25
100
AcDbLine
 10
-181.2959544223
 20
89.3558536585
 30
0.0
 11
-181.2959544223
 21
29.3558536585
 31
0.0
  0
LINE
  5
44C
330
1F
100
AcDbEntity
  8
0
  6
Continuous
 62
     7
370
    25
100
AcDbLine
 10
-251.2959544223
 20
89.3558536585
 30
0.0
 11
-181.2959544223
 21
89.3558536585
 31
0.0
  0
LINE
  5
44D
330
1F
100
AcDbEntity
  8
0
  6
Continuous
 62
     7
370
    25
100
AcDbLine
 10
-251.2959544223
 20
29.3558536585
 30
0.0
 11
-251.2959544223
 21
89.3558536585
 31
0.0
  0
LINE
  5
44E
330
1F
100
AcDbEntity
  8
0
  6
Continuous
 62
     7
370
    25
100
AcDbLine
 10
-248.7959544223
 20
29.3558536585
 30
0.0
 11
-251.2959544223
 21
29.3558536585
 31
0.0
  0
LINE
  5
44F
330
1F
100
AcDbEntity
  8
0
  6
Continuous
 62
     7
370
    25
100
AcDbLine
 10
-248.7959544223
 20
29.3558536585
 30
0.0
 11
-248.7959544223
 21
31.3558536585
 31
0.0
  0
LINE
  5
450
330
1F
100
AcDbEntity
  8
0
  6
Continuous
 62
     7
370
    25
100
AcDbLine
 10
-183.7959544223
 20
94.3558536585
 30
0.0
 11
-183.7959544223
 21
96.3558536585
 31
0.0
  0
LINE
  5
451
330
1F
100
AcDbEntity
  8
0
  6
Continuous
 62
     7
370
    25
100
AcDbLine
 10
-181.2959544223
 20
94.3558536585
 30
0.0
 11
-183.7959544223
 21
94.3558536585
 31
0.0
  0
LINE
  5
452
330
1F
100
AcDbEntity
  8
0
  6
Continuous
 62
     7
370
    25
100
AcDbLine
 10
-181.2959544223
 20
154.3558536585
 30
0.0
 11
-181.2959544223
 21
94.3558536585
 31
0.0
  0
LINE
  5
453
330
1F
100
AcDbEntity
  8
0
  6
Continuous
 62
     7
370
    25
100
AcDbLine
 10
-251.2959544223
 20
154.3558536585
 30
0.0
 11
-181.2959544223
 21
154.3558536585
 31
0.0
  0
LINE
  5
454
330
1F
100
AcDbEntity
  8
0
  6
Continuous
 62
     7
370
    25
100
AcDbLine
 10
-251.2959544223
 20
94.3558536585
 30
0.0
 11
-251.2959544223
 21
154.3558536585
 31
0.0
  0
LINE
  5
455
330
1F
100
AcDbEntity
  8
0
  6
Continuous
 62
     7
370
    25
100
AcDbLine
 10
-248.7959544223
 20
94.3558536585
 30
0.0
 11
-251.2959544223
 21
94.3558536585
 31
0.0
  0
LINE
  5
456
330
1F
100
AcDbEntity
  8
0
  6
Continuous
 62
     7
370
    25
100
AcDbLine
 10
-248.7959544223
 20
94.3558536585
 30
0.0
 11
-248.7959544223
 21
96.3558536585
 31
0.0
  0
LINE
  5
457
330
1F
100
AcDbEntity
  8
0
  6
Continuous
 62
     7
370
    25
100
AcDbLine
 10
-108.7959544223
 20
-100.6441463415
 30
0.0
 11
-108.7959544223
 21
-98.6441463415
 31
0.0
  0
LINE
  5
458
330
1F
100
AcDbEntity
  8
0
  6
Continuous
 62
     7
370
    25
100
AcDbLine
 10
-106.2959544223
 20
-100.6441463415
 30
0.0
 11
-108.7959544223
 21
-100.6441463415
 31
0.0
  0
LINE
  5
459
330
1F
100
AcDbEntity
  8
0
  6
Continuous
 62
     7
370
    25
100
AcDbLine
 10
-106.2959544223
 20
-40.6441463415
 30
0.0
 11
-106.2959544223
 21
-100.6441463415
 31
0.0
  0
LINE
  5
45A
330
1F
100
AcDbEntity
  8
0
  6
Continuous
 62
     7
370
    25
100
AcDbLine
 10
-176.2959544223
 20
-40.6441463415
 30
0.0
 11
-106.2959544223
 21
-40.6441463415
 31
0.0
  0
LINE
  5
45B
330
1F
100
AcDbEntity
  8
0
  6
Continuous
 62
     7
370
    25
100
AcDbLine
 10
-176.2959544223
 20
-100.6441463415
 30
0.0
 11
-176.2959544223
 21
-40.6441463415
 31
0.0
  0
LINE
  5
45C
330
1F
100
AcDbEntity
  8
0
  6
Continuous
 62
     7
370
    25
100
AcDbLine
 10
-173.7959544223
 20
-100.6441463415
 30
0.0
 11
-176.2959544223
 21
-100.6441463415
 31
0.0
  0
LINE
  5
45D
330
1F
100
AcDbEntity
  8
0
  6
Continuous
 62
     7
370
    25
100
AcDbLine
 10
-173.7959544223
 20
-100.6441463415
 30
0.0
 11
-173.7959544223
 21
-98.6441463415
 31
0.0
  0
LINE
  5
45E
330
1F
100
AcDbEntity
  8
0
  6
Continuous
 62
     7
370
    25
100
AcDbLine
 10
-108.7959544223
 20
-35.6441463415
 30
0.0
 11
-108.7959544223
 21
-33.6441463415
 31
0.0
  0
LINE
  5
45F
330
1F
100
AcDbEntity
  8
0
  6
Continuous
 62
     7
370
    25
100
AcDbLine
 10
-106.2959544223
 20
-35.6441463415
 30
0.0
 11
-108.7959544223
 21
-35.6441463415
 31
0.0
  0
LINE
  5
460
330
1F
100
AcDbEntity
  8
0
  6
Continuous
 62
     7
370
    25
100
AcDbLine
 10
-106.2959544223
 20
24.3558536585
 30
0.0
 11
-106.2959544223
 21
-35.6441463415
 31
0.0
  0
LINE
  5
461
330
1F
100
AcDbEntity
  8
0
  6
Continuous
 62
     7
370
    25
100
AcDbLine
 10
-176.2959544223
 20
24.3558536585
 30
0.0
 11
-106.2959544223
 21
24.3558536585
 31
0.0
  0
LINE
  5
462
330
1F
100
AcDbEntity
  8
0
  6
Continuous
 62
     7
370
    25
100
AcDbLine
 10
-176.2959544223
 20
-35.6441463415
 30
0.0
 11
-176.2959544223
 21
24.3558536585
 31
0.0
  0
LINE
  5
463
330
1F
100
AcDbEntity
  8
0
  6
Continuous
 62
     7
370
    25
100
AcDbLine
 10
-173.7959544223
 20
-35.6441463415
 30
0.0
 11
-176.2959544223
 21
-35.6441463415
 31
0.0
  0
LINE
  5
464
330
1F
100
AcDbEntity
  8
0
  6
Continuous
 62
     7
370
    25
100
AcDbLine
 10
-173.7959544223
 20
-35.6441463415
 30
0.0
 11
-173.7959544223
 21
-33.6441463415
 31
0.0
  0
LINE
  5
465
330
1F
100
AcDbEntity
  8
0
  6
Continuous
 62
     7
370
    25
100
AcDbLine
 10
-108.7959544223
 20
29.3558536585
 30
0.0
 11
-108.7959544223
 21
31.3558536585
 31
0.0
  0
LINE
  5
466
330
1F
100
AcDbEntity
  8
0
  6
Continuous
 62
     7
370
    25
100
AcDbLine
 10
-106.2959544223
 20
29.3558536585
 30
0.0
 11
-108.7959544223
 21
29.3558536585
 31
0.0
  0
LINE
  5
467
330
1F
100
AcDbEntity
  8
0
  6
Continuous
 62
     7
370
    25
100
AcDbLine
 10
-106.2959544223
 20
89.3558536585
 30
0.0
 11
-106.2959544223
 21
29.3558536585
 31
0.0
  0
LINE
  5
468
330
1F
100
AcDbEntity
  8
0
  6
Continuous
 62
     7
370
    25
100
AcDbLine
 10
-176.2959544223
 20
89.3558536585
 30
0.0
 11
-106.2959544223
 21
89.3558536585
 31
0.0
  0
LINE
  5
469
330
1F
100
AcDbEntity
  8
0
  6
Continuous
 62
     7
370
    25
100
AcDbLine
 10
-176.2959544223
 20
29.3558536585
 30
0.0
 11
-176.2959544223
 21
89.3558536585
 31
0.0
  0
LINE
  5
46A
330
1F
100
AcDbEntity
  8
0
  6
Continuous
 62
     7
370
    25
100
AcDbLine
 10
-173.7959544223
 20
29.3558536585
 30
0.0
 11
-176.2959544223
 21
29.3558536585
 31
0.0
  0
LINE
  5
46B
330
1F
100
AcDbEntity
  8
0
  6
Continuous
 62
     7
370
    25
100
AcDbLine
 10
-173.7959544223
 20
29.3558536585
 30
0.0
 11
-173.7959544223
 21
31.3558536585
 31
0.0
  0
LINE
  5
46C
330
1F
100
AcDbEntity
  8
0
  6
Continuous
 62
     7
370
    25
100
AcDbLine
 10
-108.7959544223
 20
94.3558536585
 30
0.0
 11
-108.7959544223
 21
96.3558536585
 31
0.0
  0
LINE
  5
46D
330
1F
100
AcDbEntity
  8
0
  6
Continuous
 62
     7
370
    25
100
AcDbLine
 10
-106.2959544223
 20
94.3558536585
 30
0.0
 11
-108.7959544223
 21
94.3558536585
 31
0.0
  0
LINE
  5
46E
330
1F
100
AcDbEntity
  8
0
  6
Continuous
 62
     7
370
    25
100
AcDbLine
 10
-106.2959544223
 20
154.3558536585
 30
0.0
 11
-106.2959544223
 21
94.3558536585
 31
0.0
  0
LINE
  5
46F
330
1F
100
AcDbEntity
  8
0
  6
Continuous
 62
     7
370
    25
100
AcDbLine
 10
-176.2959544223
 20
154.3558536585
 30
0.0
 11
-106.2959544223
 21
154.3558536585
 31
0.0
  0
LINE
  5
470
330
1F
100
AcDbEntity
  8
0
  6
Continuous
 62
     7
370
    25
100
AcDbLine
 10
-176.2959544223
 20
94.3558536585
 30
0.0
 11
-176.2959544223
 21
154.3558536585
 31
0.0
  0
LINE
  5
471
330
1F
100
AcDbEntity
  8
0
  6
Continuous
 62
     7
370
    25
100
AcDbLine
 10
-173.7959544223
 20
94.3558536585
 30
0.0
 11
-176.2959544223
 21
94.3558536585
 31
0.0
  0
LINE
  5
472
330
1F
100
AcDbEntity
  8
0
  6
Continuous
 62
     7
370
    25
100
AcDbLine
 10
-173.7959544223
 20
94.3558536585
 30
0.0
 11
-173.7959544223
 21
96.3558536585
 31
0.0
  0
LINE
  5
473
330
1F
100
AcDbEntity
  8
0
  6
Continuous
 62
     7
370
    25
100
AcDbLine
 10
-33.7959544223
 20
-100.6441463415
 30
0.0
 11
-33.7959544223
 21
-98.6441463415
 31
0.0
  0
LINE
  5
474
330
1F
100
AcDbEntity
  8
0
  6
Continuous
 62
     7
370
    25
100
AcDbLine
 10
-31.2959544223
 20
-100.6441463415
 30
0.0
 11
-33.7959544223
 21
-100.6441463415
 31
0.0
  0
LINE
  5
475
330
1F
100
AcDbEntity
  8
0
  6
Continuous
 62
     7
370
    25
100
AcDbLine
 10
-31.2959544223
 20
-40.6441463415
 30
0.0
 11
-31.2959544223
 21
-100.6441463415
 31
0.0
  0
LINE
  5
476
330
1F
100
AcDbEntity
  8
0
  6
Continuous
 62
     7
370
    25
100
AcDbLine
 10
-101.2959544223
 20
-40.6441463415
 30
0.0
 11
-31.2959544223
 21
-40.6441463415
 31
0.0
  0
LINE
  5
477
330
1F
100
AcDbEntity
  8
0
  6
Continuous
 62
     7
370
    25
100
AcDbLine
 10
-101.2959544223
 20
-100.6441463415
 30
0.0
 11
-101.2959544223
 21
-40.6441463415
 31
0.0
  0
LINE
  5
478
330
1F
100
AcDbEntity
  8
0
  6
Continuous
 62
     7
370
    25
100
AcDbLine
 10
-98.7959544223
 20
-100.6441463415
 30
0.0
 11
-101.2959544223
 21
-100.6441463415
 31
0.0
  0
LINE
  5
479
330
1F
100
AcDbEntity
  8
0
  6
Continuous
 62
     7
370
    25
100
AcDbLine
 10
-98.7959544223
 20
-100.6441463415
 30
0.0
 11
-98.7959544223
 21
-98.6441463415
 31
0.0
  0
LINE
  5
47A
330
1F
100
AcDbEntity
  8
0
  6
Continuous
 62
     7
370
    25
100
AcDbLine
 10
-33.7959544223
 20
-35.6441463415
 30
0.0
 11
-33.7959544223
 21
-33.6441463415
 31
0.0
  0
LINE
  5
47B
330
1F
100
AcDbEntity
  8
0
  6
Continuous
 62
     7
370
    25
100
AcDbLine
 10
-31.2959544223
 20
-35.6441463415
 30
0.0
 11
-33.7959544223
 21
-35.6441463415
 31
0.0
  0
LINE
  5
47C
330
1F
100
AcDbEntity
  8
0
  6
Continuous
 62
     7
370
    25
100
AcDbLine
 10
-31.2959544223
 20
24.3558536585
 30
0.0
 11
-31.2959544223
 21
-35.6441463415
 31
0.0
  0
LINE
  5
47D
330
1F
100
AcDbEntity
  8
0
  6
Continuous
 62
     7
370
    25
100
AcDbLine
 10
-101.2959544223
 20
24.3558536585
 30
0.0
 11
-31.2959544223
 21
24.3558536585
 31
0.0
  0
LINE
  5
47E
330
1F
100
AcDbEntity
  8
0
  6
Continuous
 62
     7
370
    25
100
AcDbLine
 10
-101.2959544223
 20
-35.6441463415
 30
0.0
 11
-101.2959544223
 21
24.3558536585
 31
0.0
  0
LINE
  5
47F
330
1F
100
AcDbEntity
  8
0
  6
Continuous
 62
     7
370
    25
100
AcDbLine
 10
-98.7959544223
 20
-35.6441463415
 30
0.0
 11
-101.2959544223
 21
-35.6441463415
 31
0.0
  0
LINE
  5
480
330
1F
100
AcDbEntity
  8
0
  6
Continuous
 62
     7
370
    25
100
AcDbLine
 10
-98.7959544223
 20
-35.6441463415
 30
0.0
 11
-98.7959544223
 21
-33.6441463415
 31
0.0
  0
LINE
  5
481
330
1F
100
AcDbEntity
  8
0
  6
Continuous
 62
     7
370
    25
100
AcDbLine
 10
-33.7959544223
 20
29.3558536585
 30
0.0
 11
-33.7959544223
 21
31.3558536585
 31
0.0
  0
LINE
  5
482
330
1F
100
AcDbEntity
  8
0
  6
Continuous
 62
     7
370
    25
100
AcDbLine
 10
-31.2959544223
 20
29.3558536585
 30
0.0
 11
-33.7959544223
 21
29.3558536585
 31
0.0
  0
LINE
  5
483
330
1F
100
AcDbEntity
  8
0
  6
Continuous
 62
     7
370
    25
100
AcDbLine
 10
-31.2959544223
 20
89.3558536585
 30
0.0
 11
-31.2959544223
 21
29.3558536585
 31
0.0
  0
LINE
  5
484
330
1F
100
AcDbEntity
  8
0
  6
Continuous
 62
     7
370
    25
100
AcDbLine
 10
-101.2959544223
 20
89.3558536585
 30
0.0
 11
-31.2959544223
 21
89.3558536585
 31
0.0
  0
LINE
  5
485
330
1F
100
AcDbEntity
  8
0
  6
Continuous
 62
     7
370
    25
100
AcDbLine
 10
-101.2959544223
 20
29.3558536585
 30
0.0
 11
-101.2959544223
 21
89.3558536585
 31
0.0
  0
LINE
  5
486
330
1F
100
AcDbEntity
  8
0
  6
Continuous
 62
     7
370
    25
100
AcDbLine
 10
-98.7959544223
 20
29.3558536585
 30
0.0
 11
-101.2959544223
 21
29.3558536585
 31
0.0
  0
LINE
  5
487
330
1F
100
AcDbEntity
  8
0
  6
Continuous
 62
     7
370
    25
100
AcDbLine
 10
-98.7959544223
 20
29.3558536585
 30
0.0
 11
-98.7959544223
 21
31.3558536585
 31
0.0
  0
LINE
  5
488
330
1F
100
AcDbEntity
  8
0
  6
Continuous
 62
     7
370
    25
100
AcDbLine
 10
-33.7959544223
 20
94.3558536585
 30
0.0
 11
-33.7959544223
 21
96.3558536585
 31
0.0
  0
LINE
  5
489
330
1F
100
AcDbEntity
  8
0
  6
Continuous
 62
     7
370
    25
100
AcDbLine
 10
-31.2959544223
 20
94.3558536585
 30
0.0
 11
-33.7959544223
 21
94.3558536585
 31
0.0
  0
LINE
  5
48A
330
1F
100
AcDbEntity
  8
0
  6
Continuous
 62
     7
370
    25
100
AcDbLine
 10
-31.2959544223
 20
154.3558536585
 30
0.0
 11
-31.2959544223
 21
94.3558536585
 31
0.0
  0
LINE
  5
48B
330
1F
100
AcDbEntity
  8
0
  6
Continuous
 62
     7
370
    25
100
AcDbLine
 10
-101.2959544223
 20
154.3558536585
 30
0.0
 11
-31.2959544223
 21
154.3558536585
 31
0.0
  0
LINE
  5
48C
330
1F
100
AcDbEntity
  8
0
  6
Continuous
 62
     7
370
    25
100
AcDbLine
 10
-101.2959544223
 20
94.3558536585
 30
0.0
 11
-101.2959544223
 21
154.3558536585
 31
0.0
  0
LINE
  5
48D
330
1F
100
AcDbEntity
  8
0
  6
Continuous
 62
     7
370
    25
100
AcDbLine
 10
-98.7959544223
 20
94.3558536585
 30
0.0
 11
-101.2959544223
 21
94.3558536585
 31
0.0
  0
LINE
  5
48E
330
1F
100
AcDbEntity
  8
0
  6
Continuous
 62
     7
370
    25
100
AcDbLine
 10
-98.7959544223
 20
94.3558536585
 30
0.0
 11
-98.7959544223
 21
96.3558536585
 31
0.0
  0
LINE
  5
48F
330
1F
100
AcDbEntity
  8
0
  6
Continuous
 62
     7
370
    25
100
AcDbLine
 10
41.2040455777
 20
-100.6441463415
 30
0.0
 11
41.2040455777
 21
-98.6441463415
 31
0.0
  0
LINE
  5
490
330
1F
100
AcDbEntity
  8
0
  6
Continuous
 62
     7
370
    25
100
AcDbLine
 10
43.7040455777
 20
-100.6441463415
 30
0.0
 11
41.2040455777
 21
-100.6441463415
 31
0.0
  0
LINE
  5
491
330
1F
100
AcDbEntity
  8
0
  6
Continuous
 62
     7
370
    25
100
AcDbLine
 10
43.7040455777
 20
-40.6441463415
 30
0.0
 11
43.7040455777
 21
-100.6441463415
 31
0.0
  0
LINE
  5
492
330
1F
100
AcDbEntity
  8
0
  6
Continuous
 62
     7
370
    25
100
AcDbLine
 10
-26.2959544223
 20
-40.6441463415
 30
0.0
 11
43.7040455777
 21
-40.6441463415
 31
0.0
  0
LINE
  5
493
330
1F
100
AcDbEntity
  8
0
  6
Continuous
 62
     7
370
    25
100
AcDbLine
 10
-26.2959544223
 20
-100.6441463415
 30
0.0
 11
-26.2959544223
 21
-40.6441463415
 31
0.0
  0
LINE
  5
494
330
1F
100
AcDbEntity
  8
0
  6
Continuous
 62
     7
370
    25
100
AcDbLine
 10
-23.7959544223
 20
-100.6441463415
 30
0.0
 11
-26.2959544223
 21
-100.6441463415
 31
0.0
  0
LINE
  5
495
330
1F
100
AcDbEntity
  8
0
  6
Continuous
 62
     7
370
    25
100
AcDbLine
 10
-23.7959544223
 20
-100.6441463415
 30
0.0
 11
-23.7959544223
 21
-98.6441463415
 31
0.0
  0
LINE
  5
496
330
1F
100
AcDbEntity
  8
0
  6
Continuous
 62
     7
370
    25
100
AcDbLine
 10
41.2040455777
 20
-35.6441463415
 30
0.0
 11
41.2040455777
 21
-33.6441463415
 31
0.0
  0
LINE
  5
497
330
1F
100
AcDbEntity
  8
0
  6
Continuous
 62
     7
370
    25
100
AcDbLine
 10
43.7040455777
 20
-35.6441463415
 30
0.0
 11
41.2040455777
 21
-35.6441463415
 31
0.0
  0
LINE
  5
498
330
1F
100
AcDbEntity
  8
0
  6
Continuous
 62
     7
370
    25
100
AcDbLine
 10
43.7040455777
 20
24.3558536585
 30
0.0
 11
43.7040455777
 21
-35.6441463415
 31
0.0
  0
LINE
  5
499
330
1F
100
AcDbEntity
  8
0
  6
Continuous
 62
     7
370
    25
100
AcDbLine
 10
-26.2959544223
 20
24.3558536585
 30
0.0
 11
43.7040455777
 21
24.3558536585
 31
0.0
  0
LINE
  5
49A
330
1F
100
AcDbEntity
  8
0
  6
Continuous
 62
     7
370
    25
100
AcDbLine
 10
-26.2959544223
 20
-35.6441463415
 30
0.0
 11
-26.2959544223
 21
24.3558536585
 31
0.0
  0
LINE
  5
49B
330
1F
100
AcDbEntity
  8
0
  6
Continuous
 62
     7
370
    25
100
AcDbLine
 10
-23.7959544223
 20
-35.6441463415
 30
0.0
 11
-26.2959544223
 21
-35.6441463415
 31
0.0
  0
LINE
  5
49C
330
1F
100
AcDbEntity
  8
0
  6
Continuous
 62
     7
370
    25
100
AcDbLine
 10
-23.7959544223
 20
-35.6441463415
 30
0.0
 11
-23.7959544223
 21
-33.6441463415
 31
0.0
  0
LINE
  5
49D
330
1F
100
AcDbEntity
  8
0
  6
Continuous
 62
     7
370
    25
100
AcDbLine
 10
41.2040455777
 20
29.3558536585
 30
0.0
 11
41.2040455777
 21
31.3558536585
 31
0.0
  0
LINE
  5
49E
330
1F
100
AcDbEntity
  8
0
  6
Continuous
 62
     7
370
    25
100
AcDbLine
 10
43.7040455777
 20
29.3558536585
 30
0.0
 11
41.2040455777
 21
29.3558536585
 31
0.0
  0
LINE
  5
49F
330
1F
100
AcDbEntity
  8
0
  6
Continuous
 62
     7
370
    25
100
AcDbLine
 10
43.7040455777
 20
89.3558536585
 30
0.0
 11
43.7040455777
 21
29.3558536585
 31
0.0
  0
LINE
  5
4A0
330
1F
100
AcDbEntity
  8
0
  6
Continuous
 62
     7
370
    25
100
AcDbLine
 10
-26.2959544223
 20
89.3558536585
 30
0.0
 11
43.7040455777
 21
89.3558536585
 31
0.0
  0
LINE
  5
4A1
330
1F
100
AcDbEntity
  8
0
  6
Continuous
 62
     7
370
    25
100
AcDbLine
 10
-26.2959544223
 20
29.3558536585
 30
0.0
 11
-26.2959544223
 21
89.3558536585
 31
0.0
  0
LINE
  5
4A2
330
1F
100
AcDbEntity
  8
0
  6
Continuous
 62
     7
370
    25
100
AcDbLine
 10
-23.7959544223
 20
29.3558536585
 30
0.0
 11
-26.2959544223
 21
29.3558536585
 31
0.0
  0
LINE
  5
4A3
330
1F
100
AcDbEntity
  8
0
  6
Continuous
 62
     7
370
    25
100
AcDbLine
 10
-23.7959544223
 20
29.3558536585
 30
0.0
 11
-23.7959544223
 21
31.3558536585
 31
0.0
  0
LINE
  5
4A4
330
1F
100
AcDbEntity
  8
0
  6
Continuous
 62
     7
370
    25
100
AcDbLine
 10
-341.2959544223
 20
169.3558536585
 30
0.0
 11
58.7040455777
 21
169.3558536585
 31
0.0
  0
LINE
  5
4A5
330
1F
100
AcDbEntity
  8
0
  6
Continuous
 62
     7
370
    25
100
AcDbLine
 10
58.7040455777
 20
-115.6441463415
 30
0.0
 11
58.7040455777
 21
169.3558536585
 31
0.0
  0
LINE
  5
4A6
330
1F
100
AcDbEntity
  8
0
  6
Continuous
 62
     7
370
    25
100
AcDbLine
 10
-341.2959544223
 20
-115.6441463415
 30
0.0
 11
58.7040455777
 21
-115.6441463415
 31
0.0
  0
LINE
  5
4A7
330
1F
100
AcDbEntity
  8
0
  6
Continuous
 62
     7
370
    25
100
AcDbLine
 10
41.2040455777
 20
94.3558536585
 30
0.0
 11
41.2040455777
 21
96.3558536585
 31
0.0
  0
LINE
  5
4A8
330
1F
100
AcDbEntity
  8
0
  6
Continuous
 62
     7
370
    25
100
AcDbLine
 10
43.7040455777
 20
94.3558536585
 30
0.0
 11
41.2040455777
 21
94.3558536585
 31
0.0
  0
LINE
  5
4A9
330
1F
100
AcDbEntity
  8
0
  6
Continuous
 62
     7
370
    25
100
AcDbLine
 10
43.7040455777
 20
154.3558536585
 30
0.0
 11
43.7040455777
 21
94.3558536585
 31
0.0
  0
LINE
  5
4AA
330
1F
100
AcDbEntity
  8
0
  6
Continuous
 62
     7
370
    25
100
AcDbLine
 10
-26.2959544223
 20
154.3558536585
 30
0.0
 11
43.7040455777
 21
154.3558536585
 31
0.0
  0
LINE
  5
4AB
330
1F
100
AcDbEntity
  8
0
  6
Continuous
 62
     7
370
    25
100
AcDbLine
 10
-26.2959544223
 20
94.3558536585
 30
0.0
 11
-26.2959544223
 21
154.3558536585
 31
0.0
  0
LINE
  5
4AC
330
1F
100
AcDbEntity
  8
0
  6
Continuous
 62
     7
370
    25
100
AcDbLine
 10
-23.7959544223
 20
94.3558536585
 30
0.0
 11
-26.2959544223
 21
94.3558536585
 31
0.0
  0
LINE
  5
4AD
330
1F
100
AcDbEntity
  8
0
  6
Continuous
 62
     7
370
    25
100
AcDbLine
 10
-23.7959544223
 20
94.3558536585
 30
0.0
 11
-23.7959544223
 21
96.3558536585
 31
0.0
  0
LINE
  5
4AE
330
1F
100
AcDbEntity
  8
0
  6
Continuous
 62
     7
370
    25
100
AcDbLine
 10
-321.2959544223
 20
159.3558536585
 30
0.0
 11
-301.2959544223
 21
159.3558536585
 31
0.0
  0
LINE
  5
4AF
330
1F
100
AcDbEntity
  8
0
  6
Continuous
 62
     7
370
    25
100
AcDbLine
 10
-301.2959544223
 20
164.3558536585
 30
0.0
 11
-301.2959544223
 21
159.3558536585
 31
0.0
  0
LINE
  5
4B0
330
1F
100
AcDbEntity
  8
0
  6
Continuous
 62
     7
370
    25
100
AcDbLine
 10
-321.2959544223
 20
164.3558536585
 30
0.0
 11
-301.2959544223
 21
164.3558536585
 31
0.0
  0
LINE
  5
4B1
330
1F
100
AcDbEntity
  8
0
  6
Continuous
 62
     7
370
    25
100
AcDbLine
 10
-321.2959544223
 20
-105.6441463415
 30
0.0
 11
-301.2959544223
 21
-105.6441463415
 31
0.0
  0
LINE
  5
4B2
330
1F
100
AcDbEntity
  8
0
  6
Continuous
 62
     7
370
    25
100
AcDbLine
 10
-321.2959544223
 20
-110.6441463415
 30
0.0
 11
-321.2959544223
 21
-105.6441463415
 31
0.0
  0
LINE
  5
4B3
330
1F
100
AcDbEntity
  8
0
  6
Continuous
 62
     7
370
    25
100
AcDbLine
 10
-321.2959544223
 20
-110.6441463415
 30
0.0
 11
-301.2959544223
 21
-110.6441463415
 31
0.0
  0
LINE
  5
4B4
330
1F
100
AcDbEntity
  8
0
  6
Continuous
 62
     7
370
    25
100
AcDbLine
 10
-278.7959544223
 20
-105.6441463415
 30
0.0
 11
-258.7959544223
 21
-105.6441463415
 31
0.0
  0
LINE
  5
4B5
330
1F
100
AcDbEntity
  8
0
  6
Continuous
 62
     7
370
    25
100
AcDbLine
 10
-278.7959544223
 20
-110.6441463415
 30
0.0
 11
-278.7959544223
 21
-105.6441463415
 31
0.0
  0
LINE
  5
4B6
330
1F
100
AcDbEntity
  8
0
  6
Continuous
 62
     7
370
    25
100
AcDbLine
 10
-278.7959544223
 20
-110.6441463415
 30
0.0
 11
-258.7959544223
 21
-110.6441463415
 31
0.0
  0
LINE
  5
4B7
330
1F
100
AcDbEntity
  8
0
  6
Continuous
 62
     7
370
    25
100
AcDbLine
 10
-236.2959544223
 20
-105.6441463415
 30
0.0
 11
-216.2959544223
 21
-105.6441463415
 31
0.0
  0
LINE
  5
4B8
330
1F
100
AcDbEntity
  8
0
  6
Continuous
 62
     7
370
    25
100
AcDbLine
 10
-236.2959544223
 20
-110.6441463415
 30
0.0
 11
-236.2959544223
 21
-105.6441463415
 31
0.0
  0
LINE
  5
4B9
330
1F
100
AcDbEntity
  8
0
  6
Continuous
 62
     7
370
    25
100
AcDbLine
 10
-236.2959544223
 20
-110.6441463415
 30
0.0
 11
-216.2959544223
 21
-110.6441463415
 31
0.0
  0
LINE
  5
4BA
330
1F
100
AcDbEntity
  8
0
  6
Continuous
 62
     7
370
    25
100
AcDbLine
 10
-193.7959544223
 20
-105.6441463415
 30
0.0
 11
-173.7959544223
 21
-105.6441463415
 31
0.0
  0
LINE
  5
4BB
330
1F
100
AcDbEntity
  8
0
  6
Continuous
 62
     7
370
    25
100
AcDbLine
 10
-193.7959544223
 20
-110.6441463415
 30
0.0
 11
-193.7959544223
 21
-105.6441463415
 31
0.0
  0
LINE
  5
4BC
330
1F
100
AcDbEntity
  8
0
  6
Continuous
 62
     7
370
    25
100
AcDbLine
 10
-193.7959544223
 20
-110.6441463415
 30
0.0
 11
-173.7959544223
 21
-110.6441463415
 31
0.0
  0
LINE
  5
4BD
330
1F
100
AcDbEntity
  8
0
  6
Continuous
 62
     7
370
    25
100
AcDbLine
 10
-151.2959544223
 20
-105.6441463415
 30
0.0
 11
-131.2959544223
 21
-105.6441463415
 31
0.0
  0
LINE
  5
4BE
330
1F
100
AcDbEntity
  8
0
  6
Continuous
 62
     7
370
    25
100
AcDbLine
 10
-151.2959544223
 20
-110.6441463415
 30
0.0
 11
-151.2959544223
 21
-105.6441463415
 31
0.0
  0
LINE
  5
4BF
330
1F
100
AcDbEntity
  8
0
  6
Continuous
 62
     7
370
    25
100
AcDbLine
 10
-151.2959544223
 20
-110.6441463415
 30
0.0
 11
-131.2959544223
 21
-110.6441463415
 31
0.0
  0
LINE
  5
4C0
330
1F
100
AcDbEntity
  8
0
  6
Continuous
 62
     7
370
    25
100
AcDbLine
 10
-108.7959544223
 20
-105.6441463415
 30
0.0
 11
-88.7959544223
 21
-105.6441463415
 31
0.0
  0
LINE
  5
4C1
330
1F
100
AcDbEntity
  8
0
  6
Continuous
 62
     7
370
    25
100
AcDbLine
 10
-108.7959544223
 20
-110.6441463415
 30
0.0
 11
-108.7959544223
 21
-105.6441463415
 31
0.0
  0
LINE
  5
4C2
330
1F
100
AcDbEntity
  8
0
  6
Continuous
 62
     7
370
    25
100
AcDbLine
 10
-108.7959544223
 20
-110.6441463415
 30
0.0
 11
-88.7959544223
 21
-110.6441463415
 31
0.0
  0
LINE
  5
4C3
330
1F
100
AcDbEntity
  8
0
  6
Continuous
 62
     7
370
    25
100
AcDbLine
 10
-66.2959544223
 20
-105.6441463415
 30
0.0
 11
-46.2959544223
 21
-105.6441463415
 31
0.0
  0
LINE
  5
4C4
330
1F
100
AcDbEntity
  8
0
  6
Continuous
 62
     7
370
    25
100
AcDbLine
 10
-66.2959544223
 20
-110.6441463415
 30
0.0
 11
-66.2959544223
 21
-105.6441463415
 31
0.0
  0
LINE
  5
4C5
330
1F
100
AcDbEntity
  8
0
  6
Continuous
 62
     7
370
    25
100
AcDbLine
 10
-66.2959544223
 20
-110.6441463415
 30
0.0
 11
-46.2959544223
 21
-110.6441463415
 31
0.0
  0
LINE
  5
4C6
330
1F
100
AcDbEntity
  8
0
  6
Continuous
 62
     7
370
    25
100
AcDbLine
 10
-23.7959544223
 20
-105.6441463415
 30
0.0
 11
-3.7959544223
 21
-105.6441463415
 31
0.0
  0
LINE
  5
4C7
330
1F
100
AcDbEntity
  8
0
  6
Continuous
 62
     7
370
    25
100
AcDbLine
 10
-23.7959544223
 20
-110.6441463415
 30
0.0
 11
-23.7959544223
 21
-105.6441463415
 31
0.0
  0
LINE
  5
4C8
330
1F
100
AcDbEntity
  8
0
  6
Continuous
 62
     7
370
    25
100
AcDbLine
 10
-23.7959544223
 20
-110.6441463415
 30
0.0
 11
-3.7959544223
 21
-110.6441463415
 31
0.0
  0
LINE
  5
4C9
330
1F
100
AcDbEntity
  8
0
  6
Continuous
 62
     7
370
    25
100
AcDbLine
 10
18.7040455777
 20
-105.6441463415
 30
0.0
 11
38.7040455777
 21
-105.6441463415
 31
0.0
  0
LINE
  5
4CA
330
1F
100
AcDbEntity
  8
0
  6
Continuous
 62
     7
370
    25
100
AcDbLine
 10
18.7040455777
 20
-110.6441463415
 30
0.0
 11
18.7040455777
 21
-105.6441463415
 31
0.0
  0
LINE
  5
4CB
330
1F
100
AcDbEntity
  8
0
  6
Continuous
 62
     7
370
    25
100
AcDbLine
 10
18.7040455777
 20
-110.6441463415
 30
0.0
 11
38.7040455777
 21
-110.6441463415
 31
0.0
  0
LINE
  5
4CC
330
1F
100
AcDbEntity
  8
0
  6
Continuous
 62
     7
370
    25
100
AcDbLine
 10
-336.2959544223
 20
104.3558536585
 30
0.0
 11
-336.2959544223
 21
84.3558536585
 31
0.0
  0
LINE
  5
4CD
330
1F
100
AcDbEntity
  8
0
  6
Continuous
 62
     7
370
    25
100
AcDbLine
 10
-331.2959544223
 20
84.3558536585
 30
0.0
 11
-336.2959544223
 21
84.3558536585
 31
0.0
  0
LINE
  5
4CE
330
1F
100
AcDbEntity
  8
0
  6
Continuous
 62
     7
370
    25
100
AcDbLine
 10
-331.2959544223
 20
104.3558536585
 30
0.0
 11
-331.2959544223
 21
84.3558536585
 31
0.0
  0
LINE
  5
4CF
330
1F
100
AcDbEntity
  8
0
  6
Continuous
 62
     7
370
    25
100
AcDbLine
 10
-336.2959544223
 20
59.3558536585
 30
0.0
 11
-336.2959544223
 21
39.3558536585
 31
0.0
  0
LINE
  5
4D0
330
1F
100
AcDbEntity
  8
0
  6
Continuous
 62
     7
370
    25
100
AcDbLine
 10
-331.2959544223
 20
39.3558536585
 30
0.0
 11
-336.2959544223
 21
39.3558536585
 31
0.0
  0
LINE
  5
4D1
330
1F
100
AcDbEntity
  8
0
  6
Continuous
 62
     7
370
    25
100
AcDbLine
 10
-331.2959544223
 20
59.3558536585
 30
0.0
 11
-331.2959544223
 21
39.3558536585
 31
0.0
  0
LINE
  5
4D2
330
1F
100
AcDbEntity
  8
0
  6
Continuous
 62
     7
370
    25
100
AcDbLine
 10
-336.2959544223
 20
14.3558536585
 30
0.0
 11
-336.2959544223
 21
-5.6441463415
 31
0.0
  0
LINE
  5
4D3
330
1F
100
AcDbEntity
  8
0
  6
Continuous
 62
     7
370
    25
100
AcDbLine
 10
-331.2959544223
 20
-5.6441463415
 30
0.0
 11
-336.2959544223
 21
-5.6441463415
 31
0.0
  0
LINE
  5
4D4
330
1F
100
AcDbEntity
  8
0
  6
Continuous
 62
     7
370
    25
100
AcDbLine
 10
-331.2959544223
 20
14.3558536585
 30
0.0
 11
-331.2959544223
 21
-5.6441463415
 31
0.0
  0
LINE
  5
4D5
330
1F
100
AcDbEntity
  8
0
  6
Continuous
 62
     7
370
    25
100
AcDbLine
 10
-336.2959544223
 20
-30.6441463415
 30
0.0
 11
-336.2959544223
 21
-50.6441463415
 31
0.0
  0
LINE
  5
4D6
330
1F
100
AcDbEntity
  8
0
  6
Continuous
 62
     7
370
    25
100
AcDbLine
 10
-331.2959544223
 20
-50.6441463415
 30
0.0
 11
-336.2959544223
 21
-50.6441463415
 31
0.0
  0
LINE
  5
4D7
330
1F
100
AcDbEntity
  8
0
  6
Continuous
 62
     7
370
    25
100
AcDbLine
 10
-331.2959544223
 20
-30.6441463415
 30
0.0
 11
-331.2959544223
 21
-50.6441463415
 31
0.0
  0
LINE
  5
4D8
330
1F
100
AcDbEntity
  8
0
  6
Continuous
 62
     7
370
    25
100
AcDbLine
 10
-336.2959544223
 20
-75.6441463415
 30
0.0
 11
-336.2959544223
 21
-95.6441463415
 31
0.0
  0
LINE
  5
4D9
330
1F
100
AcDbEntity
  8
0
  6
Continuous
 62
     7
370
    25
100
AcDbLine
 10
-331.2959544223
 20
-95.6441463415
 30
0.0
 11
-336.2959544223
 21
-95.6441463415
 31
0.0
  0
LINE
  5
4DA
330
1F
100
AcDbEntity
  8
0
  6
Continuous
 62
     7
370
    25
100
AcDbLine
 10
-331.2959544223
 20
-75.6441463415
 30
0.0
 11
-331.2959544223
 21
-95.6441463415
 31
0.0
  0
LINE
  5
4DB
330
1F
100
AcDbEntity
  8
0
  6
Continuous
 62
     7
370
    25
100
AcDbLine
 10
-316.2959544223
 20
98.8558536585
 30
0.0
 11
-316.2959544223
 21
96.3558536585
 31
0.0
  0
LINE
  5
4DC
330
1F
100
AcDbEntity
  8
0
  6
Continuous
 62
     7
370
    25
100
AcDbLine
 10
-323.7959544223
 20
98.8558536585
 30
0.0
 11
-316.2959544223
 21
98.8558536585
 31
0.0
  0
LINE
  5
4DD
330
1F
100
AcDbEntity
  8
0
  6
Continuous
 62
     7
370
    25
100
AcDbLine
 10
-323.7959544223
 20
104.3558536585
 30
0.0
 11
-323.7959544223
 21
98.8558536585
 31
0.0
  0
LINE
  5
4DE
330
1F
100
AcDbEntity
  8
0
  6
Continuous
 62
     7
370
    25
100
AcDbLine
 10
-326.2959544223
 20
104.3558536585
 30
0.0
 11
-323.7959544223
 21
104.3558536585
 31
0.0
  0
LINE
  5
4DF
330
1F
100
AcDbEntity
  8
0
  6
Continuous
 62
     7
370
    25
100
AcDbLine
 10
-323.7959544223
 20
114.3558536585
 30
0.0
 11
-326.2959544223
 21
114.3558536585
 31
0.0
  0
LINE
  5
4E0
330
1F
100
AcDbEntity
  8
0
  6
Continuous
 62
     7
370
    25
100
AcDbLine
 10
-323.7959544223
 20
114.3558536585
 30
0.0
 11
-323.7959544223
 21
134.3558536585
 31
0.0
  0
LINE
  5
4E1
330
1F
100
AcDbEntity
  8
0
  6
Continuous
 62
     7
370
    25
100
AcDbLine
 10
-323.7959544223
 20
134.3558536585
 30
0.0
 11
-326.2959544223
 21
134.3558536585
 31
0.0
  0
LINE
  5
4E2
330
1F
100
AcDbEntity
  8
0
  6
Continuous
 62
     7
370
    25
100
AcDbLine
 10
-326.2959544223
 20
144.3558536585
 30
0.0
 11
-323.7959544223
 21
144.3558536585
 31
0.0
  0
LINE
  5
4E3
330
1F
100
AcDbEntity
  8
0
  6
Continuous
 62
     7
370
    25
100
AcDbLine
 10
-323.7959544223
 20
154.3558536585
 30
0.0
 11
-323.7959544223
 21
144.3558536585
 31
0.0
  0
LINE
  5
4E4
330
1F
100
AcDbEntity
  8
0
  6
Continuous
 62
     7
370
    25
100
AcDbLine
 10
-258.7959544223
 20
154.3558536585
 30
0.0
 11
-258.7959544223
 21
144.3558536585
 31
0.0
  0
LINE
  5
4E5
330
1F
100
AcDbEntity
  8
0
  6
Continuous
 62
     7
370
    25
100
AcDbLine
 10
-256.2959544223
 20
144.3558536585
 30
0.0
 11
-258.7959544223
 21
144.3558536585
 31
0.0
  0
LINE
  5
4E6
330
1F
100
AcDbEntity
  8
0
  6
Continuous
 62
     7
370
    25
100
AcDbLine
 10
-258.7959544223
 20
134.3558536585
 30
0.0
 11
-256.2959544223
 21
134.3558536585
 31
0.0
  0
LINE
  5
4E7
330
1F
100
AcDbEntity
  8
0
  6
Continuous
 62
     7
370
    25
100
AcDbLine
 10
-258.7959544223
 20
114.3558536585
 30
0.0
 11
-258.7959544223
 21
134.3558536585
 31
0.0
  0
LINE
  5
4E8
330
1F
100
AcDbEntity
  8
0
  6
Continuous
 62
     7
370
    25
100
AcDbLine
 10
-258.7959544223
 20
114.3558536585
 30
0.0
 11
-256.2959544223
 21
114.3558536585
 31
0.0
  0
LINE
  5
4E9
330
1F
100
AcDbEntity
  8
0
  6
Continuous
 62
     7
370
    25
100
AcDbLine
 10
-256.2959544223
 20
104.3558536585
 30
0.0
 11
-258.7959544223
 21
104.3558536585
 31
0.0
  0
LINE
  5
4EA
330
1F
100
AcDbEntity
  8
0
  6
Continuous
 62
     7
370
    25
100
AcDbLine
 10
-258.7959544223
 20
98.8558536585
 30
0.0
 11
-258.7959544223
 21
104.3558536585
 31
0.0
  0
LINE
  5
4EB
330
1F
100
AcDbEntity
  8
0
  6
Continuous
 62
     7
370
    25
100
AcDbLine
 10
-266.2959544223
 20
98.8558536585
 30
0.0
 11
-258.7959544223
 21
98.8558536585
 31
0.0
  0
LINE
  5
4EC
330
1F
100
AcDbEntity
  8
0
  6
Continuous
 62
     7
370
    25
100
AcDbLine
 10
-266.2959544223
 20
98.8558536585
 30
0.0
 11
-266.2959544223
 21
96.3558536585
 31
0.0
  0
LINE
  5
4ED
330
1F
100
AcDbEntity
  8
0
  6
Continuous
 62
     7
370
    25
100
AcDbLine
 10
-281.2959544223
 20
98.8558536585
 30
0.0
 11
-281.2959544223
 21
96.3558536585
 31
0.0
  0
LINE
  5
4EE
330
1F
100
AcDbEntity
  8
0
  6
Continuous
 62
     7
370
    25
100
AcDbLine
 10
-301.2959544223
 20
98.8558536585
 30
0.0
 11
-281.2959544223
 21
98.8558536585
 31
0.0
  0
LINE
  5
4EF
330
1F
100
AcDbEntity
  8
0
  6
Continuous
 62
     7
370
    25
100
AcDbLine
 10
-301.2959544223
 20
98.8558536585
 30
0.0
 11
-301.2959544223
 21
96.3558536585
 31
0.0
  0
LINE
  5
4F0
330
1F
100
AcDbEntity
  8
0
  6
Continuous
 62
     7
370
    25
100
AcDbLine
 10
-241.2959544223
 20
98.8558536585
 30
0.0
 11
-241.2959544223
 21
96.3558536585
 31
0.0
  0
LINE
  5
4F1
330
1F
100
AcDbEntity
  8
0
  6
Continuous
 62
     7
370
    25
100
AcDbLine
 10
-248.7959544223
 20
98.8558536585
 30
0.0
 11
-241.2959544223
 21
98.8558536585
 31
0.0
  0
LINE
  5
4F2
330
1F
100
AcDbEntity
  8
0
  6
Continuous
 62
     7
370
    25
100
AcDbLine
 10
-248.7959544223
 20
104.3558536585
 30
0.0
 11
-248.7959544223
 21
98.8558536585
 31
0.0
  0
LINE
  5
4F3
330
1F
100
AcDbEntity
  8
0
  6
Continuous
 62
     7
370
    25
100
AcDbLine
 10
-251.2959544223
 20
104.3558536585
 30
0.0
 11
-248.7959544223
 21
104.3558536585
 31
0.0
  0
LINE
  5
4F4
330
1F
100
AcDbEntity
  8
0
  6
Continuous
 62
     7
370
    25
100
AcDbLine
 10
-248.7959544223
 20
114.3558536585
 30
0.0
 11
-251.2959544223
 21
114.3558536585
 31
0.0
  0
LINE
  5
4F5
330
1F
100
AcDbEntity
  8
0
  6
Continuous
 62
     7
370
    25
100
AcDbLine
 10
-248.7959544223
 20
114.3558536585
 30
0.0
 11
-248.7959544223
 21
134.3558536585
 31
0.0
  0
LINE
  5
4F6
330
1F
100
AcDbEntity
  8
0
  6
Continuous
 62
     7
370
    25
100
AcDbLine
 10
-248.7959544223
 20
134.3558536585
 30
0.0
 11
-251.2959544223
 21
134.3558536585
 31
0.0
  0
LINE
  5
4F7
330
1F
100
AcDbEntity
  8
0
  6
Continuous
 62
     7
370
    25
100
AcDbLine
 10
-251.2959544223
 20
144.3558536585
 30
0.0
 11
-248.7959544223
 21
144.3558536585
 31
0.0
  0
LINE
  5
4F8
330
1F
100
AcDbEntity
  8
0
  6
Continuous
 62
     7
370
    25
100
AcDbLine
 10
-248.7959544223
 20
154.3558536585
 30
0.0
 11
-248.7959544223
 21
144.3558536585
 31
0.0
  0
LINE
  5
4F9
330
1F
100
AcDbEntity
  8
0
  6
Continuous
 62
     7
370
    25
100
AcDbLine
 10
-183.7959544223
 20
154.3558536585
 30
0.0
 11
-183.7959544223
 21
144.3558536585
 31
0.0
  0
LINE
  5
4FA
330
1F
100
AcDbEntity
  8
0
  6
Continuous
 62
     7
370
    25
100
AcDbLine
 10
-181.2959544223
 20
144.3558536585
 30
0.0
 11
-183.7959544223
 21
144.3558536585
 31
0.0
  0
LINE
  5
4FB
330
1F
100
AcDbEntity
  8
0
  6
Continuous
 62
     7
370
    25
100
AcDbLine
 10
-183.7959544223
 20
134.3558536585
 30
0.0
 11
-181.2959544223
 21
134.3558536585
 31
0.0
  0
LINE
  5
4FC
330
1F
100
AcDbEntity
  8
0
  6
Continuous
 62
     7
370
    25
100
AcDbLine
 10
-183.7959544223
 20
114.3558536585
 30
0.0
 11
-183.7959544223
 21
134.3558536585
 31
0.0
  0
LINE
  5
4FD
330
1F
100
AcDbEntity
  8
0
  6
Continuous
 62
     7
370
    25
100
AcDbLine
 10
-183.7959544223
 20
114.3558536585
 30
0.0
 11
-181.2959544223
 21
114.3558536585
 31
0.0
  0
LINE
  5
4FE
330
1F
100
AcDbEntity
  8
0
  6
Continuous
 62
     7
370
    25
100
AcDbLine
 10
-181.2959544223
 20
104.3558536585
 30
0.0
 11
-183.7959544223
 21
104.3558536585
 31
0.0
  0
LINE
  5
4FF
330
1F
100
AcDbEntity
  8
0
  6
Continuous
 62
     7
370
    25
100
AcDbLine
 10
-183.7959544223
 20
98.8558536585
 30
0.0
 11
-183.7959544223
 21
104.3558536585
 31
0.0
  0
LINE
  5
500
330
1F
100
AcDbEntity
  8
0
  6
Continuous
 62
     7
370
    25
100
AcDbLine
 10
-191.2959544223
 20
98.8558536585
 30
0.0
 11
-183.7959544223
 21
98.8558536585
 31
0.0
  0
LINE
  5
501
330
1F
100
AcDbEntity
  8
0
  6
Continuous
 62
     7
370
    25
100
AcDbLine
 10
-191.2959544223
 20
98.8558536585
 30
0.0
 11
-191.2959544223
 21
96.3558536585
 31
0.0
  0
LINE
  5
502
330
1F
100
AcDbEntity
  8
0
  6
Continuous
 62
     7
370
    25
100
AcDbLine
 10
-206.2959544223
 20
98.8558536585
 30
0.0
 11
-206.2959544223
 21
96.3558536585
 31
0.0
  0
LINE
  5
503
330
1F
100
AcDbEntity
  8
0
  6
Continuous
 62
     7
370
    25
100
AcDbLine
 10
-226.2959544223
 20
98.8558536585
 30
0.0
 11
-206.2959544223
 21
98.8558536585
 31
0.0
  0
LINE
  5
504
330
1F
100
AcDbEntity
  8
0
  6
Continuous
 62
     7
370
    25
100
AcDbLine
 10
-226.2959544223
 20
98.8558536585
 30
0.0
 11
-226.2959544223
 21
96.3558536585
 31
0.0
  0
LINE
  5
505
330
1F
100
AcDbEntity
  8
0
  6
Continuous
 62
     7
370
    25
100
AcDbLine
 10
-166.2959544223
 20
98.8558536585
 30
0.0
 11
-166.2959544223
 21
96.3558536585
 31
0.0
  0
LINE
  5
506
330
1F
100
AcDbEntity
  8
0
  6
Continuous
 62
     7
370
    25
100
AcDbLine
 10
-173.7959544223
 20
98.8558536585
 30
0.0
 11
-166.2959544223
 21
98.8558536585
 31
0.0
  0
LINE
  5
507
330
1F
100
AcDbEntity
  8
0
  6
Continuous
 62
     7
370
    25
100
AcDbLine
 10
-173.7959544223
 20
104.3558536585
 30
0.0
 11
-173.7959544223
 21
98.8558536585
 31
0.0
  0
LINE
  5
508
330
1F
100
AcDbEntity
  8
0
  6
Continuous
 62
     7
370
    25
100
AcDbLine
 10
-176.2959544223
 20
104.3558536585
 30
0.0
 11
-173.7959544223
 21
104.3558536585
 31
0.0
  0
LINE
  5
509
330
1F
100
AcDbEntity
  8
0
  6
Continuous
 62
     7
370
    25
100
AcDbLine
 10
-173.7959544223
 20
114.3558536585
 30
0.0
 11
-176.2959544223
 21
114.3558536585
 31
0.0
  0
LINE
  5
50A
330
1F
100
AcDbEntity
  8
0
  6
Continuous
 62
     7
370
    25
100
AcDbLine
 10
-173.7959544223
 20
114.3558536585
 30
0.0
 11
-173.7959544223
 21
134.3558536585
 31
0.0
  0
LINE
  5
50B
330
1F
100
AcDbEntity
  8
0
  6
Continuous
 62
     7
370
    25
100
AcDbLine
 10
-173.7959544223
 20
134.3558536585
 30
0.0
 11
-176.2959544223
 21
134.3558536585
 31
0.0
  0
LINE
  5
50C
330
1F
100
AcDbEntity
  8
0
  6
Continuous
 62
     7
370
    25
100
AcDbLine
 10
-176.2959544223
 20
144.3558536585
 30
0.0
 11
-173.7959544223
 21
144.3558536585
 31
0.0
  0
LINE
  5
50D
330
1F
100
AcDbEntity
  8
0
  6
Continuous
 62
     7
370
    25
100
AcDbLine
 10
-173.7959544223
 20
154.3558536585
 30
0.0
 11
-173.7959544223
 21
144.3558536585
 31
0.0
  0
LINE
  5
50E
330
1F
100
AcDbEntity
  8
0
  6
Continuous
 62
     7
370
    25
100
AcDbLine
 10
-108.7959544223
 20
154.3558536585
 30
0.0
 11
-108.7959544223
 21
144.3558536585
 31
0.0
  0
LINE
  5
50F
330
1F
100
AcDbEntity
  8
0
  6
Continuous
 62
     7
370
    25
100
AcDbLine
 10
-106.2959544223
 20
144.3558536585
 30
0.0
 11
-108.7959544223
 21
144.3558536585
 31
0.0
  0
LINE
  5
510
330
1F
100
AcDbEntity
  8
0
  6
Continuous
 62
     7
370
    25
100
AcDbLine
 10
-108.7959544223
 20
134.3558536585
 30
0.0
 11
-106.2959544223
 21
134.3558536585
 31
0.0
  0
LINE
  5
511
330
1F
100
AcDbEntity
  8
0
  6
Continuous
 62
     7
370
    25
100
AcDbLine
 10
-108.7959544223
 20
114.3558536585
 30
0.0
 11
-108.7959544223
 21
134.3558536585
 31
0.0
  0
LINE
  5
512
330
1F
100
AcDbEntity
  8
0
  6
Continuous
 62
     7
370
    25
100
AcDbLine
 10
-108.7959544223
 20
114.3558536585
 30
0.0
 11
-106.2959544223
 21
114.3558536585
 31
0.0
  0
LINE
  5
513
330
1F
100
AcDbEntity
  8
0
  6
Continuous
 62
     7
370
    25
100
AcDbLine
 10
-106.2959544223
 20
104.3558536585
 30
0.0
 11
-108.7959544223
 21
104.3558536585
 31
0.0
  0
LINE
  5
514
330
1F
100
AcDbEntity
  8
0
  6
Continuous
 62
     7
370
    25
100
AcDbLine
 10
-108.7959544223
 20
98.8558536585
 30
0.0
 11
-108.7959544223
 21
104.3558536585
 31
0.0
  0
LINE
  5
515
330
1F
100
AcDbEntity
  8
0
  6
Continuous
 62
     7
370
    25
100
AcDbLine
 10
-116.2959544223
 20
98.8558536585
 30
0.0
 11
-108.7959544223
 21
98.8558536585
 31
0.0
  0
LINE
  5
516
330
1F
100
AcDbEntity
  8
0
  6
Continuous
 62
     7
370
    25
100
AcDbLine
 10
-116.2959544223
 20
98.8558536585
 30
0.0
 11
-116.2959544223
 21
96.3558536585
 31
0.0
  0
LINE
  5
517
330
1F
100
AcDbEntity
  8
0
  6
Continuous
 62
     7
370
    25
100
AcDbLine
 10
-131.2959544223
 20
98.8558536585
 30
0.0
 11
-131.2959544223
 21
96.3558536585
 31
0.0
  0
LINE
  5
518
330
1F
100
AcDbEntity
  8
0
  6
Continuous
 62
     7
370
    25
100
AcDbLine
 10
-151.2959544223
 20
98.8558536585
 30
0.0
 11
-131.2959544223
 21
98.8558536585
 31
0.0
  0
LINE
  5
519
330
1F
100
AcDbEntity
  8
0
  6
Continuous
 62
     7
370
    25
100
AcDbLine
 10
-151.2959544223
 20
98.8558536585
 30
0.0
 11
-151.2959544223
 21
96.3558536585
 31
0.0
  0
LINE
  5
51A
330
1F
100
AcDbEntity
  8
0
  6
Continuous
 62
     7
370
    25
100
AcDbLine
 10
-91.2959544223
 20
98.8558536585
 30
0.0
 11
-91.2959544223
 21
96.3558536585
 31
0.0
  0
LINE
  5
51B
330
1F
100
AcDbEntity
  8
0
  6
Continuous
 62
     7
370
    25
100
AcDbLine
 10
-98.7959544223
 20
98.8558536585
 30
0.0
 11
-91.2959544223
 21
98.8558536585
 31
0.0
  0
LINE
  5
51C
330
1F
100
AcDbEntity
  8
0
  6
Continuous
 62
     7
370
    25
100
AcDbLine
 10
-98.7959544223
 20
104.3558536585
 30
0.0
 11
-98.7959544223
 21
98.8558536585
 31
0.0
  0
LINE
  5
51D
330
1F
100
AcDbEntity
  8
0
  6
Continuous
 62
     7
370
    25
100
AcDbLine
 10
-101.2959544223
 20
104.3558536585
 30
0.0
 11
-98.7959544223
 21
104.3558536585
 31
0.0
  0
LINE
  5
51E
330
1F
100
AcDbEntity
  8
0
  6
Continuous
 62
     7
370
    25
100
AcDbLine
 10
-98.7959544223
 20
114.3558536585
 30
0.0
 11
-101.2959544223
 21
114.3558536585
 31
0.0
  0
LINE
  5
51F
330
1F
100
AcDbEntity
  8
0
  6
Continuous
 62
     7
370
    25
100
AcDbLine
 10
-98.7959544223
 20
114.3558536585
 30
0.0
 11
-98.7959544223
 21
134.3558536585
 31
0.0
  0
LINE
  5
520
330
1F
100
AcDbEntity
  8
0
  6
Continuous
 62
     7
370
    25
100
AcDbLine
 10
-98.7959544223
 20
134.3558536585
 30
0.0
 11
-101.2959544223
 21
134.3558536585
 31
0.0
  0
LINE
  5
521
330
1F
100
AcDbEntity
  8
0
  6
Continuous
 62
     7
370
    25
100
AcDbLine
 10
-101.2959544223
 20
144.3558536585
 30
0.0
 11
-98.7959544223
 21
144.3558536585
 31
0.0
  0
LINE
  5
522
330
1F
100
AcDbEntity
  8
0
  6
Continuous
 62
     7
370
    25
100
AcDbLine
 10
-98.7959544223
 20
154.3558536585
 30
0.0
 11
-98.7959544223
 21
144.3558536585
 31
0.0
  0
LINE
  5
523
330
1F
100
AcDbEntity
  8
0
  6
Continuous
 62
     7
370
    25
100
AcDbLine
 10
-33.7959544223
 20
154.3558536585
 30
0.0
 11
-33.7959544223
 21
144.3558536585
 31
0.0
  0
LINE
  5
524
330
1F
100
AcDbEntity
  8
0
  6
Continuous
 62
     7
370
    25
100
AcDbLine
 10
-31.2959544223
 20
144.3558536585
 30
0.0
 11
-33.7959544223
 21
144.3558536585
 31
0.0
  0
LINE
  5
525
330
1F
100
AcDbEntity
  8
0
  6
Continuous
 62
     7
370
    25
100
AcDbLine
 10
-33.7959544223
 20
134.3558536585
 30
0.0
 11
-31.2959544223
 21
134.3558536585
 31
0.0
  0
LINE
  5
526
330
1F
100
AcDbEntity
  8
0
  6
Continuous
 62
     7
370
    25
100
AcDbLine
 10
-33.7959544223
 20
114.3558536585
 30
0.0
 11
-33.7959544223
 21
134.3558536585
 31
0.0
  0
LINE
  5
527
330
1F
100
AcDbEntity
  8
0
  6
Continuous
 62
     7
370
    25
100
AcDbLine
 10
-33.7959544223
 20
114.3558536585
 30
0.0
 11
-31.2959544223
 21
114.3558536585
 31
0.0
  0
LINE
  5
528
330
1F
100
AcDbEntity
  8
0
  6
Continuous
 62
     7
370
    25
100
AcDbLine
 10
-31.2959544223
 20
104.3558536585
 30
0.0
 11
-33.7959544223
 21
104.3558536585
 31
0.0
  0
LINE
  5
529
330
1F
100
AcDbEntity
  8
0
  6
Continuous
 62
     7
370
    25
100
AcDbLine
 10
-33.7959544223
 20
98.8558536585
 30
0.0
 11
-33.7959544223
 21
104.3558536585
 31
0.0
  0
LINE
  5
52A
330
1F
100
AcDbEntity
  8
0
  6
Continuous
 62
     7
370
    25
100
AcDbLine
 10
-41.2959544223
 20
98.8558536585
 30
0.0
 11
-33.7959544223
 21
98.8558536585
 31
0.0
  0
LINE
  5
52B
330
1F
100
AcDbEntity
  8
0
  6
Continuous
 62
     7
370
    25
100
AcDbLine
 10
-41.2959544223
 20
98.8558536585
 30
0.0
 11
-41.2959544223
 21
96.3558536585
 31
0.0
  0
LINE
  5
52C
330
1F
100
AcDbEntity
  8
0
  6
Continuous
 62
     7
370
    25
100
AcDbLine
 10
-56.2959544223
 20
98.8558536585
 30
0.0
 11
-56.2959544223
 21
96.3558536585
 31
0.0
  0
LINE
  5
52D
330
1F
100
AcDbEntity
  8
0
  6
Continuous
 62
     7
370
    25
100
AcDbLine
 10
-76.2959544223
 20
98.8558536585
 30
0.0
 11
-56.2959544223
 21
98.8558536585
 31
0.0
  0
LINE
  5
52E
330
1F
100
AcDbEntity
  8
0
  6
Continuous
 62
     7
370
    25
100
AcDbLine
 10
-76.2959544223
 20
98.8558536585
 30
0.0
 11
-76.2959544223
 21
96.3558536585
 31
0.0
  0
LINE
  5
52F
330
1F
100
AcDbEntity
  8
0
  6
Continuous
 62
     7
370
    25
100
AcDbLine
 10
33.7040455777
 20
98.8558536585
 30
0.0
 11
33.7040455777
 21
96.3558536585
 31
0.0
  0
LINE
  5
530
330
1F
100
AcDbEntity
  8
0
  6
Continuous
 62
     7
370
    25
100
AcDbLine
 10
18.7040455777
 20
98.8558536585
 30
0.0
 11
18.7040455777
 21
96.3558536585
 31
0.0
  0
LINE
  5
531
330
1F
100
AcDbEntity
  8
0
  6
Continuous
 62
     7
370
    25
100
AcDbLine
 10
-1.2959544223
 20
98.8558536585
 30
0.0
 11
18.7040455777
 21
98.8558536585
 31
0.0
  0
LINE
  5
532
330
1F
100
AcDbEntity
  8
0
  6
Continuous
 62
     7
370
    25
100
AcDbLine
 10
-1.2959544223
 20
98.8558536585
 30
0.0
 11
-1.2959544223
 21
96.3558536585
 31
0.0
  0
LINE
  5
533
330
1F
100
AcDbEntity
  8
0
  6
Continuous
 62
     7
370
    25
100
AcDbLine
 10
-16.2959544223
 20
98.8558536585
 30
0.0
 11
-16.2959544223
 21
96.3558536585
 31
0.0
  0
LINE
  5
534
330
1F
100
AcDbEntity
  8
0
  6
Continuous
 62
     7
370
    25
100
AcDbLine
 10
-23.7959544223
 20
98.8558536585
 30
0.0
 11
-16.2959544223
 21
98.8558536585
 31
0.0
  0
LINE
  5
535
330
1F
100
AcDbEntity
  8
0
  6
Continuous
 62
     7
370
    25
100
AcDbLine
 10
-23.7959544223
 20
104.3558536585
 30
0.0
 11
-23.7959544223
 21
98.8558536585
 31
0.0
  0
LINE
  5
536
330
1F
100
AcDbEntity
  8
0
  6
Continuous
 62
     7
370
    25
100
AcDbLine
 10
-26.2959544223
 20
104.3558536585
 30
0.0
 11
-23.7959544223
 21
104.3558536585
 31
0.0
  0
LINE
  5
537
330
1F
100
AcDbEntity
  8
0
  6
Continuous
 62
     7
370
    25
100
AcDbLine
 10
-23.7959544223
 20
114.3558536585
 30
0.0
 11
-26.2959544223
 21
114.3558536585
 31
0.0
  0
LINE
  5
538
330
1F
100
AcDbEntity
  8
0
  6
Continuous
 62
     7
370
    25
100
AcDbLine
 10
-23.7959544223
 20
114.3558536585
 30
0.0
 11
-23.7959544223
 21
134.3558536585
 31
0.0
  0
LINE
  5
539
330
1F
100
AcDbEntity
  8
0
  6
Continuous
 62
     7
370
    25
100
AcDbLine
 10
-23.7959544223
 20
134.3558536585
 30
0.0
 11
-26.2959544223
 21
134.3558536585
 31
0.0
  0
LINE
  5
53A
330
1F
100
AcDbEntity
  8
0
  6
Continuous
 62
     7
370
    25
100
AcDbLine
 10
-26.2959544223
 20
144.3558536585
 30
0.0
 11
-23.7959544223
 21
144.3558536585
 31
0.0
  0
LINE
  5
53B
330
1F
100
AcDbEntity
  8
0
  6
Continuous
 62
     7
370
    25
100
AcDbLine
 10
-23.7959544223
 20
154.3558536585
 30
0.0
 11
-23.7959544223
 21
144.3558536585
 31
0.0
  0
LINE
  5
53C
330
1F
100
AcDbEntity
  8
0
  6
Continuous
 62
     7
370
    25
100
AcDbLine
 10
41.2040455777
 20
154.3558536585
 30
0.0
 11
41.2040455777
 21
144.3558536585
 31
0.0
  0
LINE
  5
53D
330
1F
100
AcDbEntity
  8
0
  6
Continuous
 62
     7
370
    25
100
AcDbLine
 10
43.7040455777
 20
144.3558536585
 30
0.0
 11
41.2040455777
 21
144.3558536585
 31
0.0
  0
LINE
  5
53E
330
1F
100
AcDbEntity
  8
0
  6
Continuous
 62
     7
370
    25
100
AcDbLine
 10
41.2040455777
 20
134.3558536585
 30
0.0
 11
43.7040455777
 21
134.3558536585
 31
0.0
  0
LINE
  5
53F
330
1F
100
AcDbEntity
  8
0
  6
Continuous
 62
     7
370
    25
100
AcDbLine
 10
41.2040455777
 20
114.3558536585
 30
0.0
 11
41.2040455777
 21
134.3558536585
 31
0.0
  0
LINE
  5
540
330
1F
100
AcDbEntity
  8
0
  6
Continuous
 62
     7
370
    25
100
AcDbLine
 10
41.2040455777
 20
114.3558536585
 30
0.0
 11
43.7040455777
 21
114.3558536585
 31
0.0
  0
LINE
  5
541
330
1F
100
AcDbEntity
  8
0
  6
Continuous
 62
     7
370
    25
100
AcDbLine
 10
43.7040455777
 20
104.3558536585
 30
0.0
 11
41.2040455777
 21
104.3558536585
 31
0.0
  0
LINE
  5
542
330
1F
100
AcDbEntity
  8
0
  6
Continuous
 62
     7
370
    25
100
AcDbLine
 10
41.2040455777
 20
98.8558536585
 30
0.0
 11
41.2040455777
 21
104.3558536585
 31
0.0
  0
LINE
  5
543
330
1F
100
AcDbEntity
  8
0
  6
Continuous
 62
     7
370
    25
100
AcDbLine
 10
33.7040455777
 20
98.8558536585
 30
0.0
 11
41.2040455777
 21
98.8558536585
 31
0.0
  0
LINE
  5
544
330
1F
100
AcDbEntity
  8
0
  6
Continuous
 62
     7
370
    25
100
AcDbLine
 10
-16.2959544223
 20
33.8558536585
 30
0.0
 11
-16.2959544223
 21
31.3558536585
 31
0.0
  0
LINE
  5
545
330
1F
100
AcDbEntity
  8
0
  6
Continuous
 62
     7
370
    25
100
AcDbLine
 10
-23.7959544223
 20
33.8558536585
 30
0.0
 11
-16.2959544223
 21
33.8558536585
 31
0.0
  0
LINE
  5
546
330
1F
100
AcDbEntity
  8
0
  6
Continuous
 62
     7
370
    25
100
AcDbLine
 10
-23.7959544223
 20
39.3558536585
 30
0.0
 11
-23.7959544223
 21
33.8558536585
 31
0.0
  0
LINE
  5
547
330
1F
100
AcDbEntity
  8
0
  6
Continuous
 62
     7
370
    25
100
AcDbLine
 10
-26.2959544223
 20
39.3558536585
 30
0.0
 11
-23.7959544223
 21
39.3558536585
 31
0.0
  0
LINE
  5
548
330
1F
100
AcDbEntity
  8
0
  6
Continuous
 62
     7
370
    25
100
AcDbLine
 10
-23.7959544223
 20
49.3558536585
 30
0.0
 11
-26.2959544223
 21
49.3558536585
 31
0.0
  0
LINE
  5
549
330
1F
100
AcDbEntity
  8
0
  6
Continuous
 62
     7
370
    25
100
AcDbLine
 10
-23.7959544223
 20
49.3558536585
 30
0.0
 11
-23.7959544223
 21
69.3558536585
 31
0.0
  0
LINE
  5
54A
330
1F
100
AcDbEntity
  8
0
  6
Continuous
 62
     7
370
    25
100
AcDbLine
 10
-23.7959544223
 20
69.3558536585
 30
0.0
 11
-26.2959544223
 21
69.3558536585
 31
0.0
  0
LINE
  5
54B
330
1F
100
AcDbEntity
  8
0
  6
Continuous
 62
     7
370
    25
100
AcDbLine
 10
-26.2959544223
 20
79.3558536585
 30
0.0
 11
-23.7959544223
 21
79.3558536585
 31
0.0
  0
LINE
  5
54C
330
1F
100
AcDbEntity
  8
0
  6
Continuous
 62
     7
370
    25
100
AcDbLine
 10
-23.7959544223
 20
89.3558536585
 30
0.0
 11
-23.7959544223
 21
79.3558536585
 31
0.0
  0
LINE
  5
54D
330
1F
100
AcDbEntity
  8
0
  6
Continuous
 62
     7
370
    25
100
AcDbLine
 10
41.2040455777
 20
89.3558536585
 30
0.0
 11
41.2040455777
 21
79.3558536585
 31
0.0
  0
LINE
  5
54E
330
1F
100
AcDbEntity
  8
0
  6
Continuous
 62
     7
370
    25
100
AcDbLine
 10
43.7040455777
 20
79.3558536585
 30
0.0
 11
41.2040455777
 21
79.3558536585
 31
0.0
  0
LINE
  5
54F
330
1F
100
AcDbEntity
  8
0
  6
Continuous
 62
     7
370
    25
100
AcDbLine
 10
41.2040455777
 20
69.3558536585
 30
0.0
 11
43.7040455777
 21
69.3558536585
 31
0.0
  0
LINE
  5
550
330
1F
100
AcDbEntity
  8
0
  6
Continuous
 62
     7
370
    25
100
AcDbLine
 10
41.2040455777
 20
49.3558536585
 30
0.0
 11
41.2040455777
 21
69.3558536585
 31
0.0
  0
LINE
  5
551
330
1F
100
AcDbEntity
  8
0
  6
Continuous
 62
     7
370
    25
100
AcDbLine
 10
41.2040455777
 20
49.3558536585
 30
0.0
 11
43.7040455777
 21
49.3558536585
 31
0.0
  0
LINE
  5
552
330
1F
100
AcDbEntity
  8
0
  6
Continuous
 62
     7
370
    25
100
AcDbLine
 10
43.7040455777
 20
39.3558536585
 30
0.0
 11
41.2040455777
 21
39.3558536585
 31
0.0
  0
LINE
  5
553
330
1F
100
AcDbEntity
  8
0
  6
Continuous
 62
     7
370
    25
100
AcDbLine
 10
41.2040455777
 20
33.8558536585
 30
0.0
 11
41.2040455777
 21
39.3558536585
 31
0.0
  0
LINE
  5
554
330
1F
100
AcDbEntity
  8
0
  6
Continuous
 62
     7
370
    25
100
AcDbLine
 10
33.7040455777
 20
33.8558536585
 30
0.0
 11
41.2040455777
 21
33.8558536585
 31
0.0
  0
LINE
  5
555
330
1F
100
AcDbEntity
  8
0
  6
Continuous
 62
     7
370
    25
100
AcDbLine
 10
33.7040455777
 20
33.8558536585
 30
0.0
 11
33.7040455777
 21
31.3558536585
 31
0.0
  0
LINE
  5
556
330
1F
100
AcDbEntity
  8
0
  6
Continuous
 62
     7
370
    25
100
AcDbLine
 10
18.7040455777
 20
33.8558536585
 30
0.0
 11
18.7040455777
 21
31.3558536585
 31
0.0
  0
LINE
  5
557
330
1F
100
AcDbEntity
  8
0
  6
Continuous
 62
     7
370
    25
100
AcDbLine
 10
-1.2959544223
 20
33.8558536585
 30
0.0
 11
18.7040455777
 21
33.8558536585
 31
0.0
  0
LINE
  5
558
330
1F
100
AcDbEntity
  8
0
  6
Continuous
 62
     7
370
    25
100
AcDbLine
 10
-1.2959544223
 20
33.8558536585
 30
0.0
 11
-1.2959544223
 21
31.3558536585
 31
0.0
  0
LINE
  5
559
330
1F
100
AcDbEntity
  8
0
  6
Continuous
 62
     7
370
    25
100
AcDbLine
 10
-91.2959544223
 20
33.8558536585
 30
0.0
 11
-91.2959544223
 21
31.3558536585
 31
0.0
  0
LINE
  5
55A
330
1F
100
AcDbEntity
  8
0
  6
Continuous
 62
     7
370
    25
100
AcDbLine
 10
-98.7959544223
 20
33.8558536585
 30
0.0
 11
-91.2959544223
 21
33.8558536585
 31
0.0
  0
LINE
  5
55B
330
1F
100
AcDbEntity
  8
0
  6
Continuous
 62
     7
370
    25
100
AcDbLine
 10
-98.7959544223
 20
39.3558536585
 30
0.0
 11
-98.7959544223
 21
33.8558536585
 31
0.0
  0
LINE
  5
55C
330
1F
100
AcDbEntity
  8
0
  6
Continuous
 62
     7
370
    25
100
AcDbLine
 10
-101.2959544223
 20
39.3558536585
 30
0.0
 11
-98.7959544223
 21
39.3558536585
 31
0.0
  0
LINE
  5
55D
330
1F
100
AcDbEntity
  8
0
  6
Continuous
 62
     7
370
    25
100
AcDbLine
 10
-98.7959544223
 20
49.3558536585
 30
0.0
 11
-101.2959544223
 21
49.3558536585
 31
0.0
  0
LINE
  5
55E
330
1F
100
AcDbEntity
  8
0
  6
Continuous
 62
     7
370
    25
100
AcDbLine
 10
-98.7959544223
 20
49.3558536585
 30
0.0
 11
-98.7959544223
 21
69.3558536585
 31
0.0
  0
LINE
  5
55F
330
1F
100
AcDbEntity
  8
0
  6
Continuous
 62
     7
370
    25
100
AcDbLine
 10
-98.7959544223
 20
69.3558536585
 30
0.0
 11
-101.2959544223
 21
69.3558536585
 31
0.0
  0
LINE
  5
560
330
1F
100
AcDbEntity
  8
0
  6
Continuous
 62
     7
370
    25
100
AcDbLine
 10
-101.2959544223
 20
79.3558536585
 30
0.0
 11
-98.7959544223
 21
79.3558536585
 31
0.0
  0
LINE
  5
561
330
1F
100
AcDbEntity
  8
0
  6
Continuous
 62
     7
370
    25
100
AcDbLine
 10
-98.7959544223
 20
89.3558536585
 30
0.0
 11
-98.7959544223
 21
79.3558536585
 31
0.0
  0
LINE
  5
562
330
1F
100
AcDbEntity
  8
0
  6
Continuous
 62
     7
370
    25
100
AcDbLine
 10
-33.7959544223
 20
89.3558536585
 30
0.0
 11
-33.7959544223
 21
79.3558536585
 31
0.0
  0
LINE
  5
563
330
1F
100
AcDbEntity
  8
0
  6
Continuous
 62
     7
370
    25
100
AcDbLine
 10
-31.2959544223
 20
79.3558536585
 30
0.0
 11
-33.7959544223
 21
79.3558536585
 31
0.0
  0
LINE
  5
564
330
1F
100
AcDbEntity
  8
0
  6
Continuous
 62
     7
370
    25
100
AcDbLine
 10
-33.7959544223
 20
69.3558536585
 30
0.0
 11
-31.2959544223
 21
69.3558536585
 31
0.0
  0
LINE
  5
565
330
1F
100
AcDbEntity
  8
0
  6
Continuous
 62
     7
370
    25
100
AcDbLine
 10
-33.7959544223
 20
49.3558536585
 30
0.0
 11
-33.7959544223
 21
69.3558536585
 31
0.0
  0
LINE
  5
566
330
1F
100
AcDbEntity
  8
0
  6
Continuous
 62
     7
370
    25
100
AcDbLine
 10
-33.7959544223
 20
49.3558536585
 30
0.0
 11
-31.2959544223
 21
49.3558536585
 31
0.0
  0
LINE
  5
567
330
1F
100
AcDbEntity
  8
0
  6
Continuous
 62
     7
370
    25
100
AcDbLine
 10
-31.2959544223
 20
39.3558536585
 30
0.0
 11
-33.7959544223
 21
39.3558536585
 31
0.0
  0
LINE
  5
568
330
1F
100
AcDbEntity
  8
0
  6
Continuous
 62
     7
370
    25
100
AcDbLine
 10
-33.7959544223
 20
33.8558536585
 30
0.0
 11
-33.7959544223
 21
39.3558536585
 31
0.0
  0
LINE
  5
569
330
1F
100
AcDbEntity
  8
0
  6
Continuous
 62
     7
370
    25
100
AcDbLine
 10
-41.2959544223
 20
33.8558536585
 30
0.0
 11
-33.7959544223
 21
33.8558536585
 31
0.0
  0
LINE
  5
56A
330
1F
100
AcDbEntity
  8
0
  6
Continuous
 62
     7
370
    25
100
AcDbLine
 10
-41.2959544223
 20
33.8558536585
 30
0.0
 11
-41.2959544223
 21
31.3558536585
 31
0.0
  0
LINE
  5
56B
330
1F
100
AcDbEntity
  8
0
  6
Continuous
 62
     7
370
    25
100
AcDbLine
 10
-56.2959544223
 20
33.8558536585
 30
0.0
 11
-56.2959544223
 21
31.3558536585
 31
0.0
  0
LINE
  5
56C
330
1F
100
AcDbEntity
  8
0
  6
Continuous
 62
     7
370
    25
100
AcDbLine
 10
-76.2959544223
 20
33.8558536585
 30
0.0
 11
-56.2959544223
 21
33.8558536585
 31
0.0
  0
LINE
  5
56D
330
1F
100
AcDbEntity
  8
0
  6
Continuous
 62
     7
370
    25
100
AcDbLine
 10
-76.2959544223
 20
33.8558536585
 30
0.0
 11
-76.2959544223
 21
31.3558536585
 31
0.0
  0
LINE
  5
56E
330
1F
100
AcDbEntity
  8
0
  6
Continuous
 62
     7
370
    25
100
AcDbLine
 10
-166.2959544223
 20
33.8558536585
 30
0.0
 11
-166.2959544223
 21
31.3558536585
 31
0.0
  0
LINE
  5
56F
330
1F
100
AcDbEntity
  8
0
  6
Continuous
 62
     7
370
    25
100
AcDbLine
 10
-173.7959544223
 20
33.8558536585
 30
0.0
 11
-166.2959544223
 21
33.8558536585
 31
0.0
  0
LINE
  5
570
330
1F
100
AcDbEntity
  8
0
  6
Continuous
 62
     7
370
    25
100
AcDbLine
 10
-173.7959544223
 20
39.3558536585
 30
0.0
 11
-173.7959544223
 21
33.8558536585
 31
0.0
  0
LINE
  5
571
330
1F
100
AcDbEntity
  8
0
  6
Continuous
 62
     7
370
    25
100
AcDbLine
 10
-176.2959544223
 20
39.3558536585
 30
0.0
 11
-173.7959544223
 21
39.3558536585
 31
0.0
  0
LINE
  5
572
330
1F
100
AcDbEntity
  8
0
  6
Continuous
 62
     7
370
    25
100
AcDbLine
 10
-173.7959544223
 20
49.3558536585
 30
0.0
 11
-176.2959544223
 21
49.3558536585
 31
0.0
  0
LINE
  5
573
330
1F
100
AcDbEntity
  8
0
  6
Continuous
 62
     7
370
    25
100
AcDbLine
 10
-173.7959544223
 20
49.3558536585
 30
0.0
 11
-173.7959544223
 21
69.3558536585
 31
0.0
  0
LINE
  5
574
330
1F
100
AcDbEntity
  8
0
  6
Continuous
 62
     7
370
    25
100
AcDbLine
 10
-173.7959544223
 20
69.3558536585
 30
0.0
 11
-176.2959544223
 21
69.3558536585
 31
0.0
  0
LINE
  5
575
330
1F
100
AcDbEntity
  8
0
  6
Continuous
 62
     7
370
    25
100
AcDbLine
 10
-176.2959544223
 20
79.3558536585
 30
0.0
 11
-173.7959544223
 21
79.3558536585
 31
0.0
  0
LINE
  5
576
330
1F
100
AcDbEntity
  8
0
  6
Continuous
 62
     7
370
    25
100
AcDbLine
 10
-173.7959544223
 20
89.3558536585
 30
0.0
 11
-173.7959544223
 21
79.3558536585
 31
0.0
  0
LINE
  5
577
330
1F
100
AcDbEntity
  8
0
  6
Continuous
 62
     7
370
    25
100
AcDbLine
 10
-108.7959544223
 20
89.3558536585
 30
0.0
 11
-108.7959544223
 21
79.3558536585
 31
0.0
  0
LINE
  5
578
330
1F
100
AcDbEntity
  8
0
  6
Continuous
 62
     7
370
    25
100
AcDbLine
 10
-106.2959544223
 20
79.3558536585
 30
0.0
 11
-108.7959544223
 21
79.3558536585
 31
0.0
  0
LINE
  5
579
330
1F
100
AcDbEntity
  8
0
  6
Continuous
 62
     7
370
    25
100
AcDbLine
 10
-108.7959544223
 20
69.3558536585
 30
0.0
 11
-106.2959544223
 21
69.3558536585
 31
0.0
  0
LINE
  5
57A
330
1F
100
AcDbEntity
  8
0
  6
Continuous
 62
     7
370
    25
100
AcDbLine
 10
-108.7959544223
 20
49.3558536585
 30
0.0
 11
-108.7959544223
 21
69.3558536585
 31
0.0
  0
LINE
  5
57B
330
1F
100
AcDbEntity
  8
0
  6
Continuous
 62
     7
370
    25
100
AcDbLine
 10
-108.7959544223
 20
49.3558536585
 30
0.0
 11
-106.2959544223
 21
49.3558536585
 31
0.0
  0
LINE
  5
57C
330
1F
100
AcDbEntity
  8
0
  6
Continuous
 62
     7
370
    25
100
AcDbLine
 10
-106.2959544223
 20
39.3558536585
 30
0.0
 11
-108.7959544223
 21
39.3558536585
 31
0.0
  0
LINE
  5
57D
330
1F
100
AcDbEntity
  8
0
  6
Continuous
 62
     7
370
    25
100
AcDbLine
 10
-108.7959544223
 20
33.8558536585
 30
0.0
 11
-108.7959544223
 21
39.3558536585
 31
0.0
  0
LINE
  5
57E
330
1F
100
AcDbEntity
  8
0
  6
Continuous
 62
     7
370
    25
100
AcDbLine
 10
-116.2959544223
 20
33.8558536585
 30
0.0
 11
-108.7959544223
 21
33.8558536585
 31
0.0
  0
LINE
  5
57F
330
1F
100
AcDbEntity
  8
0
  6
Continuous
 62
     7
370
    25
100
AcDbLine
 10
-116.2959544223
 20
33.8558536585
 30
0.0
 11
-116.2959544223
 21
31.3558536585
 31
0.0
  0
LINE
  5
580
330
1F
100
AcDbEntity
  8
0
  6
Continuous
 62
     7
370
    25
100
AcDbLine
 10
-131.2959544223
 20
33.8558536585
 30
0.0
 11
-131.2959544223
 21
31.3558536585
 31
0.0
  0
LINE
  5
581
330
1F
100
AcDbEntity
  8
0
  6
Continuous
 62
     7
370
    25
100
AcDbLine
 10
-151.2959544223
 20
33.8558536585
 30
0.0
 11
-131.2959544223
 21
33.8558536585
 31
0.0
  0
LINE
  5
582
330
1F
100
AcDbEntity
  8
0
  6
Continuous
 62
     7
370
    25
100
AcDbLine
 10
-151.2959544223
 20
33.8558536585
 30
0.0
 11
-151.2959544223
 21
31.3558536585
 31
0.0
  0
LINE
  5
583
330
1F
100
AcDbEntity
  8
0
  6
Continuous
 62
     7
370
    25
100
AcDbLine
 10
-241.2959544223
 20
33.8558536585
 30
0.0
 11
-241.2959544223
 21
31.3558536585
 31
0.0
  0
LINE
  5
584
330
1F
100
AcDbEntity
  8
0
  6
Continuous
 62
     7
370
    25
100
AcDbLine
 10
-248.7959544223
 20
33.8558536585
 30
0.0
 11
-241.2959544223
 21
33.8558536585
 31
0.0
  0
LINE
  5
585
330
1F
100
AcDbEntity
  8
0
  6
Continuous
 62
     7
370
    25
100
AcDbLine
 10
-248.7959544223
 20
39.3558536585
 30
0.0
 11
-248.7959544223
 21
33.8558536585
 31
0.0
  0
LINE
  5
586
330
1F
100
AcDbEntity
  8
0
  6
Continuous
 62
     7
370
    25
100
AcDbLine
 10
-251.2959544223
 20
39.3558536585
 30
0.0
 11
-248.7959544223
 21
39.3558536585
 31
0.0
  0
LINE
  5
587
330
1F
100
AcDbEntity
  8
0
  6
Continuous
 62
     7
370
    25
100
AcDbLine
 10
-248.7959544223
 20
49.3558536585
 30
0.0
 11
-251.2959544223
 21
49.3558536585
 31
0.0
  0
LINE
  5
588
330
1F
100
AcDbEntity
  8
0
  6
Continuous
 62
     7
370
    25
100
AcDbLine
 10
-248.7959544223
 20
49.3558536585
 30
0.0
 11
-248.7959544223
 21
69.3558536585
 31
0.0
  0
LINE
  5
589
330
1F
100
AcDbEntity
  8
0
  6
Continuous
 62
     7
370
    25
100
AcDbLine
 10
-248.7959544223
 20
69.3558536585
 30
0.0
 11
-251.2959544223
 21
69.3558536585
 31
0.0
  0
LINE
  5
58A
330
1F
100
AcDbEntity
  8
0
  6
Continuous
 62
     7
370
    25
100
AcDbLine
 10
-251.2959544223
 20
79.3558536585
 30
0.0
 11
-248.7959544223
 21
79.3558536585
 31
0.0
  0
LINE
  5
58B
330
1F
100
AcDbEntity
  8
0
  6
Continuous
 62
     7
370
    25
100
AcDbLine
 10
-248.7959544223
 20
89.3558536585
 30
0.0
 11
-248.7959544223
 21
79.3558536585
 31
0.0
  0
LINE
  5
58C
330
1F
100
AcDbEntity
  8
0
  6
Continuous
 62
     7
370
    25
100
AcDbLine
 10
-183.7959544223
 20
89.3558536585
 30
0.0
 11
-183.7959544223
 21
79.3558536585
 31
0.0
  0
LINE
  5
58D
330
1F
100
AcDbEntity
  8
0
  6
Continuous
 62
     7
370
    25
100
AcDbLine
 10
-181.2959544223
 20
79.3558536585
 30
0.0
 11
-183.7959544223
 21
79.3558536585
 31
0.0
  0
LINE
  5
58E
330
1F
100
AcDbEntity
  8
0
  6
Continuous
 62
     7
370
    25
100
AcDbLine
 10
-183.7959544223
 20
69.3558536585
 30
0.0
 11
-181.2959544223
 21
69.3558536585
 31
0.0
  0
LINE
  5
58F
330
1F
100
AcDbEntity
  8
0
  6
Continuous
 62
     7
370
    25
100
AcDbLine
 10
-183.7959544223
 20
49.3558536585
 30
0.0
 11
-183.7959544223
 21
69.3558536585
 31
0.0
  0
LINE
  5
590
330
1F
100
AcDbEntity
  8
0
  6
Continuous
 62
     7
370
    25
100
AcDbLine
 10
-183.7959544223
 20
49.3558536585
 30
0.0
 11
-181.2959544223
 21
49.3558536585
 31
0.0
  0
LINE
  5
591
330
1F
100
AcDbEntity
  8
0
  6
Continuous
 62
     7
370
    25
100
AcDbLine
 10
-181.2959544223
 20
39.3558536585
 30
0.0
 11
-183.7959544223
 21
39.3558536585
 31
0.0
  0
LINE
  5
592
330
1F
100
AcDbEntity
  8
0
  6
Continuous
 62
     7
370
    25
100
AcDbLine
 10
-183.7959544223
 20
33.8558536585
 30
0.0
 11
-183.7959544223
 21
39.3558536585
 31
0.0
  0
LINE
  5
593
330
1F
100
AcDbEntity
  8
0
  6
Continuous
 62
     7
370
    25
100
AcDbLine
 10
-191.2959544223
 20
33.8558536585
 30
0.0
 11
-183.7959544223
 21
33.8558536585
 31
0.0
  0
LINE
  5
594
330
1F
100
AcDbEntity
  8
0
  6
Continuous
 62
     7
370
    25
100
AcDbLine
 10
-191.2959544223
 20
33.8558536585
 30
0.0
 11
-191.2959544223
 21
31.3558536585
 31
0.0
  0
LINE
  5
595
330
1F
100
AcDbEntity
  8
0
  6
Continuous
 62
     7
370
    25
100
AcDbLine
 10
-206.2959544223
 20
33.8558536585
 30
0.0
 11
-206.2959544223
 21
31.3558536585
 31
0.0
  0
LINE
  5
596
330
1F
100
AcDbEntity
  8
0
  6
Continuous
 62
     7
370
    25
100
AcDbLine
 10
-226.2959544223
 20
33.8558536585
 30
0.0
 11
-206.2959544223
 21
33.8558536585
 31
0.0
  0
LINE
  5
597
330
1F
100
AcDbEntity
  8
0
  6
Continuous
 62
     7
370
    25
100
AcDbLine
 10
-226.2959544223
 20
33.8558536585
 30
0.0
 11
-226.2959544223
 21
31.3558536585
 31
0.0
  0
LINE
  5
598
330
1F
100
AcDbEntity
  8
0
  6
Continuous
 62
     7
370
    25
100
AcDbLine
 10
-316.2959544223
 20
33.8558536585
 30
0.0
 11
-316.2959544223
 21
31.3558536585
 31
0.0
  0
LINE
  5
599
330
1F
100
AcDbEntity
  8
0
  6
Continuous
 62
     7
370
    25
100
AcDbLine
 10
-323.7959544223
 20
33.8558536585
 30
0.0
 11
-316.2959544223
 21
33.8558536585
 31
0.0
  0
LINE
  5
59A
330
1F
100
AcDbEntity
  8
0
  6
Continuous
 62
     7
370
    25
100
AcDbLine
 10
-323.7959544223
 20
39.3558536585
 30
0.0
 11
-323.7959544223
 21
33.8558536585
 31
0.0
  0
LINE
  5
59B
330
1F
100
AcDbEntity
  8
0
  6
Continuous
 62
     7
370
    25
100
AcDbLine
 10
-326.2959544223
 20
39.3558536585
 30
0.0
 11
-323.7959544223
 21
39.3558536585
 31
0.0
  0
LINE
  5
59C
330
1F
100
AcDbEntity
  8
0
  6
Continuous
 62
     7
370
    25
100
AcDbLine
 10
-323.7959544223
 20
49.3558536585
 30
0.0
 11
-326.2959544223
 21
49.3558536585
 31
0.0
  0
LINE
  5
59D
330
1F
100
AcDbEntity
  8
0
  6
Continuous
 62
     7
370
    25
100
AcDbLine
 10
-323.7959544223
 20
49.3558536585
 30
0.0
 11
-323.7959544223
 21
69.3558536585
 31
0.0
  0
LINE
  5
59E
330
1F
100
AcDbEntity
  8
0
  6
Continuous
 62
     7
370
    25
100
AcDbLine
 10
-323.7959544223
 20
69.3558536585
 30
0.0
 11
-326.2959544223
 21
69.3558536585
 31
0.0
  0
LINE
  5
59F
330
1F
100
AcDbEntity
  8
0
  6
Continuous
 62
     7
370
    25
100
AcDbLine
 10
-326.2959544223
 20
79.3558536585
 30
0.0
 11
-323.7959544223
 21
79.3558536585
 31
0.0
  0
LINE
  5
5A0
330
1F
100
AcDbEntity
  8
0
  6
Continuous
 62
     7
370
    25
100
AcDbLine
 10
-323.7959544223
 20
89.3558536585
 30
0.0
 11
-323.7959544223
 21
79.3558536585
 31
0.0
  0
LINE
  5
5A1
330
1F
100
AcDbEntity
  8
0
  6
Continuous
 62
     7
370
    25
100
AcDbLine
 10
-258.7959544223
 20
89.3558536585
 30
0.0
 11
-258.7959544223
 21
79.3558536585
 31
0.0
  0
LINE
  5
5A2
330
1F
100
AcDbEntity
  8
0
  6
Continuous
 62
     7
370
    25
100
AcDbLine
 10
-256.2959544223
 20
79.3558536585
 30
0.0
 11
-258.7959544223
 21
79.3558536585
 31
0.0
  0
LINE
  5
5A3
330
1F
100
AcDbEntity
  8
0
  6
Continuous
 62
     7
370
    25
100
AcDbLine
 10
-258.7959544223
 20
69.3558536585
 30
0.0
 11
-256.2959544223
 21
69.3558536585
 31
0.0
  0
LINE
  5
5A4
330
1F
100
AcDbEntity
  8
0
  6
Continuous
 62
     7
370
    25
100
AcDbLine
 10
-258.7959544223
 20
49.3558536585
 30
0.0
 11
-258.7959544223
 21
69.3558536585
 31
0.0
  0
LINE
  5
5A5
330
1F
100
AcDbEntity
  8
0
  6
Continuous
 62
     7
370
    25
100
AcDbLine
 10
-258.7959544223
 20
49.3558536585
 30
0.0
 11
-256.2959544223
 21
49.3558536585
 31
0.0
  0
LINE
  5
5A6
330
1F
100
AcDbEntity
  8
0
  6
Continuous
 62
     7
370
    25
100
AcDbLine
 10
-256.2959544223
 20
39.3558536585
 30
0.0
 11
-258.7959544223
 21
39.3558536585
 31
0.0
  0
LINE
  5
5A7
330
1F
100
AcDbEntity
  8
0
  6
Continuous
 62
     7
370
    25
100
AcDbLine
 10
-258.7959544223
 20
33.8558536585
 30
0.0
 11
-258.7959544223
 21
39.3558536585
 31
0.0
  0
LINE
  5
5A8
330
1F
100
AcDbEntity
  8
0
  6
Continuous
 62
     7
370
    25
100
AcDbLine
 10
-266.2959544223
 20
33.8558536585
 30
0.0
 11
-258.7959544223
 21
33.8558536585
 31
0.0
  0
LINE
  5
5A9
330
1F
100
AcDbEntity
  8
0
  6
Continuous
 62
     7
370
    25
100
AcDbLine
 10
-266.2959544223
 20
33.8558536585
 30
0.0
 11
-266.2959544223
 21
31.3558536585
 31
0.0
  0
LINE
  5
5AA
330
1F
100
AcDbEntity
  8
0
  6
Continuous
 62
     7
370
    25
100
AcDbLine
 10
-281.2959544223
 20
33.8558536585
 30
0.0
 11
-281.2959544223
 21
31.3558536585
 31
0.0
  0
LINE
  5
5AB
330
1F
100
AcDbEntity
  8
0
  6
Continuous
 62
     7
370
    25
100
AcDbLine
 10
-301.2959544223
 20
33.8558536585
 30
0.0
 11
-281.2959544223
 21
33.8558536585
 31
0.0
  0
LINE
  5
5AC
330
1F
100
AcDbEntity
  8
0
  6
Continuous
 62
     7
370
    25
100
AcDbLine
 10
-301.2959544223
 20
33.8558536585
 30
0.0
 11
-301.2959544223
 21
31.3558536585
 31
0.0
  0
LINE
  5
5AD
330
1F
100
AcDbEntity
  8
0
  6
Continuous
 62
     7
370
    25
100
AcDbLine
 10
-316.2959544223
 20
-31.1441463415
 30
0.0
 11
-316.2959544223
 21
-33.6441463415
 31
0.0
  0
LINE
  5
5AE
330
1F
100
AcDbEntity
  8
0
  6
Continuous
 62
     7
370
    25
100
AcDbLine
 10
-323.7959544223
 20
-31.1441463415
 30
0.0
 11
-316.2959544223
 21
-31.1441463415
 31
0.0
  0
LINE
  5
5AF
330
1F
100
AcDbEntity
  8
0
  6
Continuous
 62
     7
370
    25
100
AcDbLine
 10
-323.7959544223
 20
-25.6441463415
 30
0.0
 11
-323.7959544223
 21
-31.1441463415
 31
0.0
  0
LINE
  5
5B0
330
1F
100
AcDbEntity
  8
0
  6
Continuous
 62
     7
370
    25
100
AcDbLine
 10
-326.2959544223
 20
-25.6441463415
 30
0.0
 11
-323.7959544223
 21
-25.6441463415
 31
0.0
  0
LINE
  5
5B1
330
1F
100
AcDbEntity
  8
0
  6
Continuous
 62
     7
370
    25
100
AcDbLine
 10
-323.7959544223
 20
-15.6441463415
 30
0.0
 11
-326.2959544223
 21
-15.6441463415
 31
0.0
  0
LINE
  5
5B2
330
1F
100
AcDbEntity
  8
0
  6
Continuous
 62
     7
370
    25
100
AcDbLine
 10
-323.7959544223
 20
-15.6441463415
 30
0.0
 11
-323.7959544223
 21
4.3558536585
 31
0.0
  0
LINE
  5
5B3
330
1F
100
AcDbEntity
  8
0
  6
Continuous
 62
     7
370
    25
100
AcDbLine
 10
-323.7959544223
 20
4.3558536585
 30
0.0
 11
-326.2959544223
 21
4.3558536585
 31
0.0
  0
LINE
  5
5B4
330
1F
100
AcDbEntity
  8
0
  6
Continuous
 62
     7
370
    25
100
AcDbLine
 10
-326.2959544223
 20
14.3558536585
 30
0.0
 11
-323.7959544223
 21
14.3558536585
 31
0.0
  0
LINE
  5
5B5
330
1F
100
AcDbEntity
  8
0
  6
Continuous
 62
     7
370
    25
100
AcDbLine
 10
-323.7959544223
 20
24.3558536585
 30
0.0
 11
-323.7959544223
 21
14.3558536585
 31
0.0
  0
LINE
  5
5B6
330
1F
100
AcDbEntity
  8
0
  6
Continuous
 62
     7
370
    25
100
AcDbLine
 10
-258.7959544223
 20
24.3558536585
 30
0.0
 11
-258.7959544223
 21
14.3558536585
 31
0.0
  0
LINE
  5
5B7
330
1F
100
AcDbEntity
  8
0
  6
Continuous
 62
     7
370
    25
100
AcDbLine
 10
-256.2959544223
 20
14.3558536585
 30
0.0
 11
-258.7959544223
 21
14.3558536585
 31
0.0
  0
LINE
  5
5B8
330
1F
100
AcDbEntity
  8
0
  6
Continuous
 62
     7
370
    25
100
AcDbLine
 10
-258.7959544223
 20
4.3558536585
 30
0.0
 11
-256.2959544223
 21
4.3558536585
 31
0.0
  0
LINE
  5
5B9
330
1F
100
AcDbEntity
  8
0
  6
Continuous
 62
     7
370
    25
100
AcDbLine
 10
-258.7959544223
 20
-15.6441463415
 30
0.0
 11
-258.7959544223
 21
4.3558536585
 31
0.0
  0
LINE
  5
5BA
330
1F
100
AcDbEntity
  8
0
  6
Continuous
 62
     7
370
    25
100
AcDbLine
 10
-258.7959544223
 20
-15.6441463415
 30
0.0
 11
-256.2959544223
 21
-15.6441463415
 31
0.0
  0
LINE
  5
5BB
330
1F
100
AcDbEntity
  8
0
  6
Continuous
 62
     7
370
    25
100
AcDbLine
 10
-256.2959544223
 20
-25.6441463415
 30
0.0
 11
-258.7959544223
 21
-25.6441463415
 31
0.0
  0
LINE
  5
5BC
330
1F
100
AcDbEntity
  8
0
  6
Continuous
 62
     7
370
    25
100
AcDbLine
 10
-258.7959544223
 20
-31.1441463415
 30
0.0
 11
-258.7959544223
 21
-25.6441463415
 31
0.0
  0
LINE
  5
5BD
330
1F
100
AcDbEntity
  8
0
  6
Continuous
 62
     7
370
    25
100
AcDbLine
 10
-266.2959544223
 20
-31.1441463415
 30
0.0
 11
-258.7959544223
 21
-31.1441463415
 31
0.0
  0
LINE
  5
5BE
330
1F
100
AcDbEntity
  8
0
  6
Continuous
 62
     7
370
    25
100
AcDbLine
 10
-266.2959544223
 20
-31.1441463415
 30
0.0
 11
-266.2959544223
 21
-33.6441463415
 31
0.0
  0
LINE
  5
5BF
330
1F
100
AcDbEntity
  8
0
  6
Continuous
 62
     7
370
    25
100
AcDbLine
 10
-281.2959544223
 20
-31.1441463415
 30
0.0
 11
-281.2959544223
 21
-33.6441463415
 31
0.0
  0
LINE
  5
5C0
330
1F
100
AcDbEntity
  8
0
  6
Continuous
 62
     7
370
    25
100
AcDbLine
 10
-301.2959544223
 20
-31.1441463415
 30
0.0
 11
-281.2959544223
 21
-31.1441463415
 31
0.0
  0
LINE
  5
5C1
330
1F
100
AcDbEntity
  8
0
  6
Continuous
 62
     7
370
    25
100
AcDbLine
 10
-301.2959544223
 20
-31.1441463415
 30
0.0
 11
-301.2959544223
 21
-33.6441463415
 31
0.0
  0
LINE
  5
5C2
330
1F
100
AcDbEntity
  8
0
  6
Continuous
 62
     7
370
    25
100
AcDbLine
 10
-241.2959544223
 20
-31.1441463415
 30
0.0
 11
-241.2959544223
 21
-33.6441463415
 31
0.0
  0
LINE
  5
5C3
330
1F
100
AcDbEntity
  8
0
  6
Continuous
 62
     7
370
    25
100
AcDbLine
 10
-248.7959544223
 20
-31.1441463415
 30
0.0
 11
-241.2959544223
 21
-31.1441463415
 31
0.0
  0
LINE
  5
5C4
330
1F
100
AcDbEntity
  8
0
  6
Continuous
 62
     7
370
    25
100
AcDbLine
 10
-248.7959544223
 20
-25.6441463415
 30
0.0
 11
-248.7959544223
 21
-31.1441463415
 31
0.0
  0
LINE
  5
5C5
330
1F
100
AcDbEntity
  8
0
  6
Continuous
 62
     7
370
    25
100
AcDbLine
 10
-251.2959544223
 20
-25.6441463415
 30
0.0
 11
-248.7959544223
 21
-25.6441463415
 31
0.0
  0
LINE
  5
5C6
330
1F
100
AcDbEntity
  8
0
  6
Continuous
 62
     7
370
    25
100
AcDbLine
 10
-248.7959544223
 20
-15.6441463415
 30
0.0
 11
-251.2959544223
 21
-15.6441463415
 31
0.0
  0
LINE
  5
5C7
330
1F
100
AcDbEntity
  8
0
  6
Continuous
 62
     7
370
    25
100
AcDbLine
 10
-248.7959544223
 20
-15.6441463415
 30
0.0
 11
-248.7959544223
 21
4.3558536585
 31
0.0
  0
LINE
  5
5C8
330
1F
100
AcDbEntity
  8
0
  6
Continuous
 62
     7
370
    25
100
AcDbLine
 10
-248.7959544223
 20
4.3558536585
 30
0.0
 11
-251.2959544223
 21
4.3558536585
 31
0.0
  0
LINE
  5
5C9
330
1F
100
AcDbEntity
  8
0
  6
Continuous
 62
     7
370
    25
100
AcDbLine
 10
-251.2959544223
 20
14.3558536585
 30
0.0
 11
-248.7959544223
 21
14.3558536585
 31
0.0
  0
LINE
  5
5CA
330
1F
100
AcDbEntity
  8
0
  6
Continuous
 62
     7
370
    25
100
AcDbLine
 10
-248.7959544223
 20
24.3558536585
 30
0.0
 11
-248.7959544223
 21
14.3558536585
 31
0.0
  0
LINE
  5
5CB
330
1F
100
AcDbEntity
  8
0
  6
Continuous
 62
     7
370
    25
100
AcDbLine
 10
-183.7959544223
 20
24.3558536585
 30
0.0
 11
-183.7959544223
 21
14.3558536585
 31
0.0
  0
LINE
  5
5CC
330
1F
100
AcDbEntity
  8
0
  6
Continuous
 62
     7
370
    25
100
AcDbLine
 10
-181.2959544223
 20
14.3558536585
 30
0.0
 11
-183.7959544223
 21
14.3558536585
 31
0.0
  0
LINE
  5
5CD
330
1F
100
AcDbEntity
  8
0
  6
Continuous
 62
     7
370
    25
100
AcDbLine
 10
-183.7959544223
 20
4.3558536585
 30
0.0
 11
-181.2959544223
 21
4.3558536585
 31
0.0
  0
LINE
  5
5CE
330
1F
100
AcDbEntity
  8
0
  6
Continuous
 62
     7
370
    25
100
AcDbLine
 10
-183.7959544223
 20
-15.6441463415
 30
0.0
 11
-183.7959544223
 21
4.3558536585
 31
0.0
  0
LINE
  5
5CF
330
1F
100
AcDbEntity
  8
0
  6
Continuous
 62
     7
370
    25
100
AcDbLine
 10
-183.7959544223
 20
-15.6441463415
 30
0.0
 11
-181.2959544223
 21
-15.6441463415
 31
0.0
  0
LINE
  5
5D0
330
1F
100
AcDbEntity
  8
0
  6
Continuous
 62
     7
370
    25
100
AcDbLine
 10
-181.2959544223
 20
-25.6441463415
 30
0.0
 11
-183.7959544223
 21
-25.6441463415
 31
0.0
  0
LINE
  5
5D1
330
1F
100
AcDbEntity
  8
0
  6
Continuous
 62
     7
370
    25
100
AcDbLine
 10
-183.7959544223
 20
-31.1441463415
 30
0.0
 11
-183.7959544223
 21
-25.6441463415
 31
0.0
  0
LINE
  5
5D2
330
1F
100
AcDbEntity
  8
0
  6
Continuous
 62
     7
370
    25
100
AcDbLine
 10
-191.2959544223
 20
-31.1441463415
 30
0.0
 11
-183.7959544223
 21
-31.1441463415
 31
0.0
  0
LINE
  5
5D3
330
1F
100
AcDbEntity
  8
0
  6
Continuous
 62
     7
370
    25
100
AcDbLine
 10
-191.2959544223
 20
-31.1441463415
 30
0.0
 11
-191.2959544223
 21
-33.6441463415
 31
0.0
  0
LINE
  5
5D4
330
1F
100
AcDbEntity
  8
0
  6
Continuous
 62
     7
370
    25
100
AcDbLine
 10
-206.2959544223
 20
-31.1441463415
 30
0.0
 11
-206.2959544223
 21
-33.6441463415
 31
0.0
  0
LINE
  5
5D5
330
1F
100
AcDbEntity
  8
0
  6
Continuous
 62
     7
370
    25
100
AcDbLine
 10
-226.2959544223
 20
-31.1441463415
 30
0.0
 11
-206.2959544223
 21
-31.1441463415
 31
0.0
  0
LINE
  5
5D6
330
1F
100
AcDbEntity
  8
0
  6
Continuous
 62
     7
370
    25
100
AcDbLine
 10
-226.2959544223
 20
-31.1441463415
 30
0.0
 11
-226.2959544223
 21
-33.6441463415
 31
0.0
  0
LINE
  5
5D7
330
1F
100
AcDbEntity
  8
0
  6
Continuous
 62
     7
370
    25
100
AcDbLine
 10
-166.2959544223
 20
-31.1441463415
 30
0.0
 11
-166.2959544223
 21
-33.6441463415
 31
0.0
  0
LINE
  5
5D8
330
1F
100
AcDbEntity
  8
0
  6
Continuous
 62
     7
370
    25
100
AcDbLine
 10
-173.7959544223
 20
-31.1441463415
 30
0.0
 11
-166.2959544223
 21
-31.1441463415
 31
0.0
  0
LINE
  5
5D9
330
1F
100
AcDbEntity
  8
0
  6
Continuous
 62
     7
370
    25
100
AcDbLine
 10
-173.7959544223
 20
-25.6441463415
 30
0.0
 11
-173.7959544223
 21
-31.1441463415
 31
0.0
  0
LINE
  5
5DA
330
1F
100
AcDbEntity
  8
0
  6
Continuous
 62
     7
370
    25
100
AcDbLine
 10
-176.2959544223
 20
-25.6441463415
 30
0.0
 11
-173.7959544223
 21
-25.6441463415
 31
0.0
  0
LINE
  5
5DB
330
1F
100
AcDbEntity
  8
0
  6
Continuous
 62
     7
370
    25
100
AcDbLine
 10
-173.7959544223
 20
-15.6441463415
 30
0.0
 11
-176.2959544223
 21
-15.6441463415
 31
0.0
  0
LINE
  5
5DC
330
1F
100
AcDbEntity
  8
0
  6
Continuous
 62
     7
370
    25
100
AcDbLine
 10
-173.7959544223
 20
-15.6441463415
 30
0.0
 11
-173.7959544223
 21
4.3558536585
 31
0.0
  0
LINE
  5
5DD
330
1F
100
AcDbEntity
  8
0
  6
Continuous
 62
     7
370
    25
100
AcDbLine
 10
-173.7959544223
 20
4.3558536585
 30
0.0
 11
-176.2959544223
 21
4.3558536585
 31
0.0
  0
LINE
  5
5DE
330
1F
100
AcDbEntity
  8
0
  6
Continuous
 62
     7
370
    25
100
AcDbLine
 10
-176.2959544223
 20
14.3558536585
 30
0.0
 11
-173.7959544223
 21
14.3558536585
 31
0.0
  0
LINE
  5
5DF
330
1F
100
AcDbEntity
  8
0
  6
Continuous
 62
     7
370
    25
100
AcDbLine
 10
-173.7959544223
 20
24.3558536585
 30
0.0
 11
-173.7959544223
 21
14.3558536585
 31
0.0
  0
LINE
  5
5E0
330
1F
100
AcDbEntity
  8
0
  6
Continuous
 62
     7
370
    25
100
AcDbLine
 10
-108.7959544223
 20
24.3558536585
 30
0.0
 11
-108.7959544223
 21
14.3558536585
 31
0.0
  0
LINE
  5
5E1
330
1F
100
AcDbEntity
  8
0
  6
Continuous
 62
     7
370
    25
100
AcDbLine
 10
-106.2959544223
 20
14.3558536585
 30
0.0
 11
-108.7959544223
 21
14.3558536585
 31
0.0
  0
LINE
  5
5E2
330
1F
100
AcDbEntity
  8
0
  6
Continuous
 62
     7
370
    25
100
AcDbLine
 10
-108.7959544223
 20
4.3558536585
 30
0.0
 11
-106.2959544223
 21
4.3558536585
 31
0.0
  0
LINE
  5
5E3
330
1F
100
AcDbEntity
  8
0
  6
Continuous
 62
     7
370
    25
100
AcDbLine
 10
-108.7959544223
 20
-15.6441463415
 30
0.0
 11
-108.7959544223
 21
4.3558536585
 31
0.0
  0
LINE
  5
5E4
330
1F
100
AcDbEntity
  8
0
  6
Continuous
 62
     7
370
    25
100
AcDbLine
 10
-108.7959544223
 20
-15.6441463415
 30
0.0
 11
-106.2959544223
 21
-15.6441463415
 31
0.0
  0
LINE
  5
5E5
330
1F
100
AcDbEntity
  8
0
  6
Continuous
 62
     7
370
    25
100
AcDbLine
 10
-106.2959544223
 20
-25.6441463415
 30
0.0
 11
-108.7959544223
 21
-25.6441463415
 31
0.0
  0
LINE
  5
5E6
330
1F
100
AcDbEntity
  8
0
  6
Continuous
 62
     7
370
    25
100
AcDbLine
 10
-108.7959544223
 20
-31.1441463415
 30
0.0
 11
-108.7959544223
 21
-25.6441463415
 31
0.0
  0
LINE
  5
5E7
330
1F
100
AcDbEntity
  8
0
  6
Continuous
 62
     7
370
    25
100
AcDbLine
 10
-116.2959544223
 20
-31.1441463415
 30
0.0
 11
-108.7959544223
 21
-31.1441463415
 31
0.0
  0
LINE
  5
5E8
330
1F
100
AcDbEntity
  8
0
  6
Continuous
 62
     7
370
    25
100
AcDbLine
 10
-116.2959544223
 20
-31.1441463415
 30
0.0
 11
-116.2959544223
 21
-33.6441463415
 31
0.0
  0
LINE
  5
5E9
330
1F
100
AcDbEntity
  8
0
  6
Continuous
 62
     7
370
    25
100
AcDbLine
 10
-131.2959544223
 20
-31.1441463415
 30
0.0
 11
-131.2959544223
 21
-33.6441463415
 31
0.0
  0
LINE
  5
5EA
330
1F
100
AcDbEntity
  8
0
  6
Continuous
 62
     7
370
    25
100
AcDbLine
 10
-151.2959544223
 20
-31.1441463415
 30
0.0
 11
-131.2959544223
 21
-31.1441463415
 31
0.0
  0
LINE
  5
5EB
330
1F
100
AcDbEntity
  8
0
  6
Continuous
 62
     7
370
    25
100
AcDbLine
 10
-151.2959544223
 20
-31.1441463415
 30
0.0
 11
-151.2959544223
 21
-33.6441463415
 31
0.0
  0
LINE
  5
5EC
330
1F
100
AcDbEntity
  8
0
  6
Continuous
 62
     7
370
    25
100
AcDbLine
 10
-91.2959544223
 20
-31.1441463415
 30
0.0
 11
-91.2959544223
 21
-33.6441463415
 31
0.0
  0
LINE
  5
5ED
330
1F
100
AcDbEntity
  8
0
  6
Continuous
 62
     7
370
    25
100
AcDbLine
 10
-98.7959544223
 20
-31.1441463415
 30
0.0
 11
-91.2959544223
 21
-31.1441463415
 31
0.0
  0
LINE
  5
5EE
330
1F
100
AcDbEntity
  8
0
  6
Continuous
 62
     7
370
    25
100
AcDbLine
 10
-98.7959544223
 20
-25.6441463415
 30
0.0
 11
-98.7959544223
 21
-31.1441463415
 31
0.0
  0
LINE
  5
5EF
330
1F
100
AcDbEntity
  8
0
  6
Continuous
 62
     7
370
    25
100
AcDbLine
 10
-101.2959544223
 20
-25.6441463415
 30
0.0
 11
-98.7959544223
 21
-25.6441463415
 31
0.0
  0
LINE
  5
5F0
330
1F
100
AcDbEntity
  8
0
  6
Continuous
 62
     7
370
    25
100
AcDbLine
 10
-98.7959544223
 20
-15.6441463415
 30
0.0
 11
-101.2959544223
 21
-15.6441463415
 31
0.0
  0
LINE
  5
5F1
330
1F
100
AcDbEntity
  8
0
  6
Continuous
 62
     7
370
    25
100
AcDbLine
 10
-98.7959544223
 20
-15.6441463415
 30
0.0
 11
-98.7959544223
 21
4.3558536585
 31
0.0
  0
LINE
  5
5F2
330
1F
100
AcDbEntity
  8
0
  6
Continuous
 62
     7
370
    25
100
AcDbLine
 10
-98.7959544223
 20
4.3558536585
 30
0.0
 11
-101.2959544223
 21
4.3558536585
 31
0.0
  0
LINE
  5
5F3
330
1F
100
AcDbEntity
  8
0
  6
Continuous
 62
     7
370
    25
100
AcDbLine
 10
-101.2959544223
 20
14.3558536585
 30
0.0
 11
-98.7959544223
 21
14.3558536585
 31
0.0
  0
LINE
  5
5F4
330
1F
100
AcDbEntity
  8
0
  6
Continuous
 62
     7
370
    25
100
AcDbLine
 10
-98.7959544223
 20
24.3558536585
 30
0.0
 11
-98.7959544223
 21
14.3558536585
 31
0.0
  0
LINE
  5
5F5
330
1F
100
AcDbEntity
  8
0
  6
Continuous
 62
     7
370
    25
100
AcDbLine
 10
-33.7959544223
 20
24.3558536585
 30
0.0
 11
-33.7959544223
 21
14.3558536585
 31
0.0
  0
LINE
  5
5F6
330
1F
100
AcDbEntity
  8
0
  6
Continuous
 62
     7
370
    25
100
AcDbLine
 10
-31.2959544223
 20
14.3558536585
 30
0.0
 11
-33.7959544223
 21
14.3558536585
 31
0.0
  0
LINE
  5
5F7
330
1F
100
AcDbEntity
  8
0
  6
Continuous
 62
     7
370
    25
100
AcDbLine
 10
-33.7959544223
 20
4.3558536585
 30
0.0
 11
-31.2959544223
 21
4.3558536585
 31
0.0
  0
LINE
  5
5F8
330
1F
100
AcDbEntity
  8
0
  6
Continuous
 62
     7
370
    25
100
AcDbLine
 10
-33.7959544223
 20
-15.6441463415
 30
0.0
 11
-31.2959544223
 21
-15.6441463415
 31
0.0
  0
LINE
  5
5F9
330
1F
100
AcDbEntity
  8
0
  6
Continuous
 62
     7
370
    25
100
AcDbLine
 10
-31.2959544223
 20
-25.6441463415
 30
0.0
 11
-33.7959544223
 21
-25.6441463415
 31
0.0
  0
LINE
  5
5FA
330
1F
100
AcDbEntity
  8
0
  6
Continuous
 62
     7
370
    25
100
AcDbLine
 10
-33.7959544223
 20
-31.1441463415
 30
0.0
 11
-33.7959544223
 21
-25.6441463415
 31
0.0
  0
LINE
  5
5FB
330
1F
100
AcDbEntity
  8
0
  6
Continuous
 62
     7
370
    25
100
AcDbLine
 10
-41.2959544223
 20
-31.1441463415
 30
0.0
 11
-33.7959544223
 21
-31.1441463415
 31
0.0
  0
LINE
  5
5FC
330
1F
100
AcDbEntity
  8
0
  6
Continuous
 62
     7
370
    25
100
AcDbLine
 10
-41.2959544223
 20
-31.1441463415
 30
0.0
 11
-41.2959544223
 21
-33.6441463415
 31
0.0
  0
LINE
  5
5FD
330
1F
100
AcDbEntity
  8
0
  6
Continuous
 62
     7
370
    25
100
AcDbLine
 10
-56.2959544223
 20
-31.1441463415
 30
0.0
 11
-56.2959544223
 21
-33.6441463415
 31
0.0
  0
LINE
  5
5FE
330
1F
100
AcDbEntity
  8
0
  6
Continuous
 62
     7
370
    25
100
AcDbLine
 10
-76.2959544223
 20
-31.1441463415
 30
0.0
 11
-56.2959544223
 21
-31.1441463415
 31
0.0
  0
LINE
  5
5FF
330
1F
100
AcDbEntity
  8
0
  6
Continuous
 62
     7
370
    25
100
AcDbLine
 10
-76.2959544223
 20
-31.1441463415
 30
0.0
 11
-76.2959544223
 21
-33.6441463415
 31
0.0
  0
LINE
  5
600
330
1F
100
AcDbEntity
  8
0
  6
Continuous
 62
     7
370
    25
100
AcDbLine
 10
-33.7959544223
 20
-15.6441463415
 30
0.0
 11
-33.7959544223
 21
4.3558536585
 31
0.0
  0
LINE
  5
601
330
1F
100
AcDbEntity
  8
0
  6
Continuous
 62
     7
370
    25
100
AcDbLine
 10
-16.2959544223
 20
-31.1441463415
 30
0.0
 11
-16.2959544223
 21
-33.6441463415
 31
0.0
  0
LINE
  5
602
330
1F
100
AcDbEntity
  8
0
  6
Continuous
 62
     7
370
    25
100
AcDbLine
 10
-23.7959544223
 20
-31.1441463415
 30
0.0
 11
-16.2959544223
 21
-31.1441463415
 31
0.0
  0
LINE
  5
603
330
1F
100
AcDbEntity
  8
0
  6
Continuous
 62
     7
370
    25
100
AcDbLine
 10
-23.7959544223
 20
-25.6441463415
 30
0.0
 11
-23.7959544223
 21
-31.1441463415
 31
0.0
  0
LINE
  5
604
330
1F
100
AcDbEntity
  8
0
  6
Continuous
 62
     7
370
    25
100
AcDbLine
 10
-26.2959544223
 20
-25.6441463415
 30
0.0
 11
-23.7959544223
 21
-25.6441463415
 31
0.0
  0
LINE
  5
605
330
1F
100
AcDbEntity
  8
0
  6
Continuous
 62
     7
370
    25
100
AcDbLine
 10
-23.7959544223
 20
-15.6441463415
 30
0.0
 11
-26.2959544223
 21
-15.6441463415
 31
0.0
  0
LINE
  5
606
330
1F
100
AcDbEntity
  8
0
  6
Continuous
 62
     7
370
    25
100
AcDbLine
 10
-23.7959544223
 20
-15.6441463415
 30
0.0
 11
-23.7959544223
 21
4.3558536585
 31
0.0
  0
LINE
  5
607
330
1F
100
AcDbEntity
  8
0
  6
Continuous
 62
     7
370
    25
100
AcDbLine
 10
-23.7959544223
 20
4.3558536585
 30
0.0
 11
-26.2959544223
 21
4.3558536585
 31
0.0
  0
LINE
  5
608
330
1F
100
AcDbEntity
  8
0
  6
Continuous
 62
     7
370
    25
100
AcDbLine
 10
-26.2959544223
 20
14.3558536585
 30
0.0
 11
-23.7959544223
 21
14.3558536585
 31
0.0
  0
LINE
  5
609
330
1F
100
AcDbEntity
  8
0
  6
Continuous
 62
     7
370
    25
100
AcDbLine
 10
-23.7959544223
 20
24.3558536585
 30
0.0
 11
-23.7959544223
 21
14.3558536585
 31
0.0
  0
LINE
  5
60A
330
1F
100
AcDbEntity
  8
0
  6
Continuous
 62
     7
370
    25
100
AcDbLine
 10
41.2040455777
 20
24.3558536585
 30
0.0
 11
41.2040455777
 21
14.3558536585
 31
0.0
  0
LINE
  5
60B
330
1F
100
AcDbEntity
  8
0
  6
Continuous
 62
     7
370
    25
100
AcDbLine
 10
43.7040455777
 20
14.3558536585
 30
0.0
 11
41.2040455777
 21
14.3558536585
 31
0.0
  0
LINE
  5
60C
330
1F
100
AcDbEntity
  8
0
  6
Continuous
 62
     7
370
    25
100
AcDbLine
 10
41.2040455777
 20
4.3558536585
 30
0.0
 11
43.7040455777
 21
4.3558536585
 31
0.0
  0
LINE
  5
60D
330
1F
100
AcDbEntity
  8
0
  6
Continuous
 62
     7
370
    25
100
AcDbLine
 10
41.2040455777
 20
-15.6441463415
 30
0.0
 11
43.7040455777
 21
-15.6441463415
 31
0.0
  0
LINE
  5
60E
330
1F
100
AcDbEntity
  8
0
  6
Continuous
 62
     7
370
    25
100
AcDbLine
 10
43.7040455777
 20
-25.6441463415
 30
0.0
 11
41.2040455777
 21
-25.6441463415
 31
0.0
  0
LINE
  5
60F
330
1F
100
AcDbEntity
  8
0
  6
Continuous
 62
     7
370
    25
100
AcDbLine
 10
41.2040455777
 20
-31.1441463415
 30
0.0
 11
41.2040455777
 21
-25.6441463415
 31
0.0
  0
LINE
  5
610
330
1F
100
AcDbEntity
  8
0
  6
Continuous
 62
     7
370
    25
100
AcDbLine
 10
33.7040455777
 20
-31.1441463415
 30
0.0
 11
41.2040455777
 21
-31.1441463415
 31
0.0
  0
LINE
  5
611
330
1F
100
AcDbEntity
  8
0
  6
Continuous
 62
     7
370
    25
100
AcDbLine
 10
33.7040455777
 20
-31.1441463415
 30
0.0
 11
33.7040455777
 21
-33.6441463415
 31
0.0
  0
LINE
  5
612
330
1F
100
AcDbEntity
  8
0
  6
Continuous
 62
     7
370
    25
100
AcDbLine
 10
18.7040455777
 20
-31.1441463415
 30
0.0
 11
18.7040455777
 21
-33.6441463415
 31
0.0
  0
LINE
  5
613
330
1F
100
AcDbEntity
  8
0
  6
Continuous
 62
     7
370
    25
100
AcDbLine
 10
-1.2959544223
 20
-31.1441463415
 30
0.0
 11
18.7040455777
 21
-31.1441463415
 31
0.0
  0
LINE
  5
614
330
1F
100
AcDbEntity
  8
0
  6
Continuous
 62
     7
370
    25
100
AcDbLine
 10
-1.2959544223
 20
-31.1441463415
 30
0.0
 11
-1.2959544223
 21
-33.6441463415
 31
0.0
  0
LINE
  5
615
330
1F
100
AcDbEntity
  8
0
  6
Continuous
 62
     7
370
    25
100
AcDbLine
 10
41.2040455777
 20
-15.6441463415
 30
0.0
 11
41.2040455777
 21
4.3558536585
 31
0.0
  0
LINE
  5
616
330
1F
100
AcDbEntity
  8
0
  6
Continuous
 62
     7
370
    25
100
AcDbLine
 10
-91.2959544223
 20
-96.1441463415
 30
0.0
 11
-91.2959544223
 21
-98.6441463415
 31
0.0
  0
LINE
  5
617
330
1F
100
AcDbEntity
  8
0
  6
Continuous
 62
     7
370
    25
100
AcDbLine
 10
-98.7959544223
 20
-96.1441463415
 30
0.0
 11
-91.2959544223
 21
-96.1441463415
 31
0.0
  0
LINE
  5
618
330
1F
100
AcDbEntity
  8
0
  6
Continuous
 62
     7
370
    25
100
AcDbLine
 10
-98.7959544223
 20
-90.6441463415
 30
0.0
 11
-98.7959544223
 21
-96.1441463415
 31
0.0
  0
LINE
  5
619
330
1F
100
AcDbEntity
  8
0
  6
Continuous
 62
     7
370
    25
100
AcDbLine
 10
-101.2959544223
 20
-90.6441463415
 30
0.0
 11
-98.7959544223
 21
-90.6441463415
 31
0.0
  0
LINE
  5
61A
330
1F
100
AcDbEntity
  8
0
  6
Continuous
 62
     7
370
    25
100
AcDbLine
 10
-98.7959544223
 20
-80.6441463415
 30
0.0
 11
-101.2959544223
 21
-80.6441463415
 31
0.0
  0
LINE
  5
61B
330
1F
100
AcDbEntity
  8
0
  6
Continuous
 62
     7
370
    25
100
AcDbLine
 10
-98.7959544223
 20
-80.6441463415
 30
0.0
 11
-98.7959544223
 21
-60.6441463415
 31
0.0
  0
LINE
  5
61C
330
1F
100
AcDbEntity
  8
0
  6
Continuous
 62
     7
370
    25
100
AcDbLine
 10
-98.7959544223
 20
-60.6441463415
 30
0.0
 11
-101.2959544223
 21
-60.6441463415
 31
0.0
  0
LINE
  5
61D
330
1F
100
AcDbEntity
  8
0
  6
Continuous
 62
     7
370
    25
100
AcDbLine
 10
-101.2959544223
 20
-50.6441463415
 30
0.0
 11
-98.7959544223
 21
-50.6441463415
 31
0.0
  0
LINE
  5
61E
330
1F
100
AcDbEntity
  8
0
  6
Continuous
 62
     7
370
    25
100
AcDbLine
 10
-98.7959544223
 20
-40.6441463415
 30
0.0
 11
-98.7959544223
 21
-50.6441463415
 31
0.0
  0
LINE
  5
61F
330
1F
100
AcDbEntity
  8
0
  6
Continuous
 62
     7
370
    25
100
AcDbLine
 10
-33.7959544223
 20
-40.6441463415
 30
0.0
 11
-33.7959544223
 21
-50.6441463415
 31
0.0
  0
LINE
  5
620
330
1F
100
AcDbEntity
  8
0
  6
Continuous
 62
     7
370
    25
100
AcDbLine
 10
-31.2959544223
 20
-50.6441463415
 30
0.0
 11
-33.7959544223
 21
-50.6441463415
 31
0.0
  0
LINE
  5
621
330
1F
100
AcDbEntity
  8
0
  6
Continuous
 62
     7
370
    25
100
AcDbLine
 10
-33.7959544223
 20
-60.6441463415
 30
0.0
 11
-31.2959544223
 21
-60.6441463415
 31
0.0
  0
LINE
  5
622
330
1F
100
AcDbEntity
  8
0
  6
Continuous
 62
     7
370
    25
100
AcDbLine
 10
-33.7959544223
 20
-80.6441463415
 30
0.0
 11
-31.2959544223
 21
-80.6441463415
 31
0.0
  0
LINE
  5
623
330
1F
100
AcDbEntity
  8
0
  6
Continuous
 62
     7
370
    25
100
AcDbLine
 10
-31.2959544223
 20
-90.6441463415
 30
0.0
 11
-33.7959544223
 21
-90.6441463415
 31
0.0
  0
LINE
  5
624
330
1F
100
AcDbEntity
  8
0
  6
Continuous
 62
     7
370
    25
100
AcDbLine
 10
-33.7959544223
 20
-96.1441463415
 30
0.0
 11
-33.7959544223
 21
-90.6441463415
 31
0.0
  0
LINE
  5
625
330
1F
100
AcDbEntity
  8
0
  6
Continuous
 62
     7
370
    25
100
AcDbLine
 10
-41.2959544223
 20
-96.1441463415
 30
0.0
 11
-33.7959544223
 21
-96.1441463415
 31
0.0
  0
LINE
  5
626
330
1F
100
AcDbEntity
  8
0
  6
Continuous
 62
     7
370
    25
100
AcDbLine
 10
-41.2959544223
 20
-96.1441463415
 30
0.0
 11
-41.2959544223
 21
-98.6441463415
 31
0.0
  0
LINE
  5
627
330
1F
100
AcDbEntity
  8
0
  6
Continuous
 62
     7
370
    25
100
AcDbLine
 10
-56.2959544223
 20
-96.1441463415
 30
0.0
 11
-56.2959544223
 21
-98.6441463415
 31
0.0
  0
LINE
  5
628
330
1F
100
AcDbEntity
  8
0
  6
Continuous
 62
     7
370
    25
100
AcDbLine
 10
-76.2959544223
 20
-96.1441463415
 30
0.0
 11
-56.2959544223
 21
-96.1441463415
 31
0.0
  0
LINE
  5
629
330
1F
100
AcDbEntity
  8
0
  6
Continuous
 62
     7
370
    25
100
AcDbLine
 10
-76.2959544223
 20
-96.1441463415
 30
0.0
 11
-76.2959544223
 21
-98.6441463415
 31
0.0
  0
LINE
  5
62A
330
1F
100
AcDbEntity
  8
0
  6
Continuous
 62
     7
370
    25
100
AcDbLine
 10
-33.7959544223
 20
-80.6441463415
 30
0.0
 11
-33.7959544223
 21
-60.6441463415
 31
0.0
  0
LINE
  5
62B
330
1F
100
AcDbEntity
  8
0
  6
Continuous
 62
     7
370
    25
100
AcDbLine
 10
-166.2959544223
 20
-96.1441463415
 30
0.0
 11
-166.2959544223
 21
-98.6441463415
 31
0.0
  0
LINE
  5
62C
330
1F
100
AcDbEntity
  8
0
  6
Continuous
 62
     7
370
    25
100
AcDbLine
 10
-173.7959544223
 20
-96.1441463415
 30
0.0
 11
-166.2959544223
 21
-96.1441463415
 31
0.0
  0
LINE
  5
62D
330
1F
100
AcDbEntity
  8
0
  6
Continuous
 62
     7
370
    25
100
AcDbLine
 10
-173.7959544223
 20
-90.6441463415
 30
0.0
 11
-173.7959544223
 21
-96.1441463415
 31
0.0
  0
LINE
  5
62E
330
1F
100
AcDbEntity
  8
0
  6
Continuous
 62
     7
370
    25
100
AcDbLine
 10
-176.2959544223
 20
-90.6441463415
 30
0.0
 11
-173.7959544223
 21
-90.6441463415
 31
0.0
  0
LINE
  5
62F
330
1F
100
AcDbEntity
  8
0
  6
Continuous
 62
     7
370
    25
100
AcDbLine
 10
-173.7959544223
 20
-80.6441463415
 30
0.0
 11
-176.2959544223
 21
-80.6441463415
 31
0.0
  0
LINE
  5
630
330
1F
100
AcDbEntity
  8
0
  6
Continuous
 62
     7
370
    25
100
AcDbLine
 10
-173.7959544223
 20
-80.6441463415
 30
0.0
 11
-173.7959544223
 21
-60.6441463415
 31
0.0
  0
LINE
  5
631
330
1F
100
AcDbEntity
  8
0
  6
Continuous
 62
     7
370
    25
100
AcDbLine
 10
-176.2959544223
 20
-50.6441463415
 30
0.0
 11
-173.7959544223
 21
-50.6441463415
 31
0.0
  0
LINE
  5
632
330
1F
100
AcDbEntity
  8
0
  6
Continuous
 62
     7
370
    25
100
AcDbLine
 10
-173.7959544223
 20
-40.6441463415
 30
0.0
 11
-173.7959544223
 21
-50.6441463415
 31
0.0
  0
LINE
  5
633
330
1F
100
AcDbEntity
  8
0
  6
Continuous
 62
     7
370
    25
100
AcDbLine
 10
-108.7959544223
 20
-40.6441463415
 30
0.0
 11
-108.7959544223
 21
-50.6441463415
 31
0.0
  0
LINE
  5
634
330
1F
100
AcDbEntity
  8
0
  6
Continuous
 62
     7
370
    25
100
AcDbLine
 10
-106.2959544223
 20
-50.6441463415
 30
0.0
 11
-108.7959544223
 21
-50.6441463415
 31
0.0
  0
LINE
  5
635
330
1F
100
AcDbEntity
  8
0
  6
Continuous
 62
     7
370
    25
100
AcDbLine
 10
-108.7959544223
 20
-60.6441463415
 30
0.0
 11
-106.2959544223
 21
-60.6441463415
 31
0.0
  0
LINE
  5
636
330
1F
100
AcDbEntity
  8
0
  6
Continuous
 62
     7
370
    25
100
AcDbLine
 10
-108.7959544223
 20
-80.6441463415
 30
0.0
 11
-106.2959544223
 21
-80.6441463415
 31
0.0
  0
LINE
  5
637
330
1F
100
AcDbEntity
  8
0
  6
Continuous
 62
     7
370
    25
100
AcDbLine
 10
-106.2959544223
 20
-90.6441463415
 30
0.0
 11
-108.7959544223
 21
-90.6441463415
 31
0.0
  0
LINE
  5
638
330
1F
100
AcDbEntity
  8
0
  6
Continuous
 62
     7
370
    25
100
AcDbLine
 10
-108.7959544223
 20
-96.1441463415
 30
0.0
 11
-108.7959544223
 21
-90.6441463415
 31
0.0
  0
LINE
  5
639
330
1F
100
AcDbEntity
  8
0
  6
Continuous
 62
     7
370
    25
100
AcDbLine
 10
-116.2959544223
 20
-96.1441463415
 30
0.0
 11
-108.7959544223
 21
-96.1441463415
 31
0.0
  0
LINE
  5
63A
330
1F
100
AcDbEntity
  8
0
  6
Continuous
 62
     7
370
    25
100
AcDbLine
 10
-116.2959544223
 20
-96.1441463415
 30
0.0
 11
-116.2959544223
 21
-98.6441463415
 31
0.0
  0
LINE
  5
63B
330
1F
100
AcDbEntity
  8
0
  6
Continuous
 62
     7
370
    25
100
AcDbLine
 10
-131.2959544223
 20
-96.1441463415
 30
0.0
 11
-131.2959544223
 21
-98.6441463415
 31
0.0
  0
LINE
  5
63C
330
1F
100
AcDbEntity
  8
0
  6
Continuous
 62
     7
370
    25
100
AcDbLine
 10
-151.2959544223
 20
-96.1441463415
 30
0.0
 11
-131.2959544223
 21
-96.1441463415
 31
0.0
  0
LINE
  5
63D
330
1F
100
AcDbEntity
  8
0
  6
Continuous
 62
     7
370
    25
100
AcDbLine
 10
-151.2959544223
 20
-96.1441463415
 30
0.0
 11
-151.2959544223
 21
-98.6441463415
 31
0.0
  0
LINE
  5
63E
330
1F
100
AcDbEntity
  8
0
  6
Continuous
 62
     7
370
    25
100
AcDbLine
 10
-173.7959544223
 20
-60.6441463415
 30
0.0
 11
-176.2959544223
 21
-60.6441463415
 31
0.0
  0
LINE
  5
63F
330
1F
100
AcDbEntity
  8
0
  6
Continuous
 62
     7
370
    25
100
AcDbLine
 10
-108.7959544223
 20
-80.6441463415
 30
0.0
 11
-108.7959544223
 21
-60.6441463415
 31
0.0
  0
LINE
  5
640
330
1F
100
AcDbEntity
  8
0
  6
Continuous
 62
     7
370
    25
100
AcDbLine
 10
-241.2959544223
 20
-96.1441463415
 30
0.0
 11
-241.2959544223
 21
-98.6441463415
 31
0.0
  0
LINE
  5
641
330
1F
100
AcDbEntity
  8
0
  6
Continuous
 62
     7
370
    25
100
AcDbLine
 10
-248.7959544223
 20
-96.1441463415
 30
0.0
 11
-241.2959544223
 21
-96.1441463415
 31
0.0
  0
LINE
  5
642
330
1F
100
AcDbEntity
  8
0
  6
Continuous
 62
     7
370
    25
100
AcDbLine
 10
-248.7959544223
 20
-90.6441463415
 30
0.0
 11
-248.7959544223
 21
-96.1441463415
 31
0.0
  0
LINE
  5
643
330
1F
100
AcDbEntity
  8
0
  6
Continuous
 62
     7
370
    25
100
AcDbLine
 10
-251.2959544223
 20
-90.6441463415
 30
0.0
 11
-248.7959544223
 21
-90.6441463415
 31
0.0
  0
LINE
  5
644
330
1F
100
AcDbEntity
  8
0
  6
Continuous
 62
     7
370
    25
100
AcDbLine
 10
-248.7959544223
 20
-80.6441463415
 30
0.0
 11
-251.2959544223
 21
-80.6441463415
 31
0.0
  0
LINE
  5
645
330
1F
100
AcDbEntity
  8
0
  6
Continuous
 62
     7
370
    25
100
AcDbLine
 10
-248.7959544223
 20
-80.6441463415
 30
0.0
 11
-248.7959544223
 21
-60.6441463415
 31
0.0
  0
LINE
  5
646
330
1F
100
AcDbEntity
  8
0
  6
Continuous
 62
     7
370
    25
100
AcDbLine
 10
-251.2959544223
 20
-50.6441463415
 30
0.0
 11
-248.7959544223
 21
-50.6441463415
 31
0.0
  0
LINE
  5
647
330
1F
100
AcDbEntity
  8
0
  6
Continuous
 62
     7
370
    25
100
AcDbLine
 10
-248.7959544223
 20
-40.6441463415
 30
0.0
 11
-248.7959544223
 21
-50.6441463415
 31
0.0
  0
LINE
  5
648
330
1F
100
AcDbEntity
  8
0
  6
Continuous
 62
     7
370
    25
100
AcDbLine
 10
-183.7959544223
 20
-40.6441463415
 30
0.0
 11
-183.7959544223
 21
-50.6441463415
 31
0.0
  0
LINE
  5
649
330
1F
100
AcDbEntity
  8
0
  6
Continuous
 62
     7
370
    25
100
AcDbLine
 10
-181.2959544223
 20
-50.6441463415
 30
0.0
 11
-183.7959544223
 21
-50.6441463415
 31
0.0
  0
LINE
  5
64A
330
1F
100
AcDbEntity
  8
0
  6
Continuous
 62
     7
370
    25
100
AcDbLine
 10
-183.7959544223
 20
-60.6441463415
 30
0.0
 11
-181.2959544223
 21
-60.6441463415
 31
0.0
  0
LINE
  5
64B
330
1F
100
AcDbEntity
  8
0
  6
Continuous
 62
     7
370
    25
100
AcDbLine
 10
-183.7959544223
 20
-80.6441463415
 30
0.0
 11
-181.2959544223
 21
-80.6441463415
 31
0.0
  0
LINE
  5
64C
330
1F
100
AcDbEntity
  8
0
  6
Continuous
 62
     7
370
    25
100
AcDbLine
 10
-181.2959544223
 20
-90.6441463415
 30
0.0
 11
-183.7959544223
 21
-90.6441463415
 31
0.0
  0
LINE
  5
64D
330
1F
100
AcDbEntity
  8
0
  6
Continuous
 62
     7
370
    25
100
AcDbLine
 10
-183.7959544223
 20
-96.1441463415
 30
0.0
 11
-183.7959544223
 21
-90.6441463415
 31
0.0
  0
LINE
  5
64E
330
1F
100
AcDbEntity
  8
0
  6
Continuous
 62
     7
370
    25
100
AcDbLine
 10
-191.2959544223
 20
-96.1441463415
 30
0.0
 11
-183.7959544223
 21
-96.1441463415
 31
0.0
  0
LINE
  5
64F
330
1F
100
AcDbEntity
  8
0
  6
Continuous
 62
     7
370
    25
100
AcDbLine
 10
-191.2959544223
 20
-96.1441463415
 30
0.0
 11
-191.2959544223
 21
-98.6441463415
 31
0.0
  0
LINE
  5
650
330
1F
100
AcDbEntity
  8
0
  6
Continuous
 62
     7
370
    25
100
AcDbLine
 10
-206.2959544223
 20
-96.1441463415
 30
0.0
 11
-206.2959544223
 21
-98.6441463415
 31
0.0
  0
LINE
  5
651
330
1F
100
AcDbEntity
  8
0
  6
Continuous
 62
     7
370
    25
100
AcDbLine
 10
-226.2959544223
 20
-96.1441463415
 30
0.0
 11
-206.2959544223
 21
-96.1441463415
 31
0.0
  0
LINE
  5
652
330
1F
100
AcDbEntity
  8
0
  6
Continuous
 62
     7
370
    25
100
AcDbLine
 10
-248.7959544223
 20
-60.6441463415
 30
0.0
 11
-251.2959544223
 21
-60.6441463415
 31
0.0
  0
LINE
  5
653
330
1F
100
AcDbEntity
  8
0
  6
Continuous
 62
     7
370
    25
100
AcDbLine
 10
-226.2959544223
 20
-96.1441463415
 30
0.0
 11
-226.2959544223
 21
-98.6441463415
 31
0.0
  0
LINE
  5
654
330
1F
100
AcDbEntity
  8
0
  6
Continuous
 62
     7
370
    25
100
AcDbLine
 10
-183.7959544223
 20
-80.6441463415
 30
0.0
 11
-183.7959544223
 21
-60.6441463415
 31
0.0
  0
LINE
  5
655
330
1F
100
AcDbEntity
  8
0
  6
Continuous
 62
     7
370
    25
100
AcDbLine
 10
-316.2959544223
 20
-96.1441463415
 30
0.0
 11
-316.2959544223
 21
-98.6441463415
 31
0.0
  0
LINE
  5
656
330
1F
100
AcDbEntity
  8
0
  6
Continuous
 62
     7
370
    25
100
AcDbLine
 10
-326.2959544223
 20
-90.6441463415
 30
0.0
 11
-323.7959544223
 21
-90.6441463415
 31
0.0
  0
LINE
  5
657
330
1F
100
AcDbEntity
  8
0
  6
Continuous
 62
     7
370
    25
100
AcDbLine
 10
-323.7959544223
 20
-80.6441463415
 30
0.0
 11
-326.2959544223
 21
-80.6441463415
 31
0.0
  0
LINE
  5
658
330
1F
100
AcDbEntity
  8
0
  6
Continuous
 62
     7
370
    25
100
AcDbLine
 10
-323.7959544223
 20
-80.6441463415
 30
0.0
 11
-323.7959544223
 21
-60.6441463415
 31
0.0
  0
LINE
  5
659
330
1F
100
AcDbEntity
  8
0
  6
Continuous
 62
     7
370
    25
100
AcDbLine
 10
-323.7959544223
 20
-40.6441463415
 30
0.0
 11
-323.7959544223
 21
-50.6441463415
 31
0.0
  0
LINE
  5
65A
330
1F
100
AcDbEntity
  8
0
  6
Continuous
 62
     7
370
    25
100
AcDbLine
 10
-256.2959544223
 20
-50.6441463415
 30
0.0
 11
-258.7959544223
 21
-50.6441463415
 31
0.0
  0
LINE
  5
65B
330
1F
100
AcDbEntity
  8
0
  6
Continuous
 62
     7
370
    25
100
AcDbLine
 10
-258.7959544223
 20
-60.6441463415
 30
0.0
 11
-256.2959544223
 21
-60.6441463415
 31
0.0
  0
LINE
  5
65C
330
1F
100
AcDbEntity
  8
0
  6
Continuous
 62
     7
370
    25
100
AcDbLine
 10
-258.7959544223
 20
-80.6441463415
 30
0.0
 11
-256.2959544223
 21
-80.6441463415
 31
0.0
  0
LINE
  5
65D
330
1F
100
AcDbEntity
  8
0
  6
Continuous
 62
     7
370
    25
100
AcDbLine
 10
-256.2959544223
 20
-90.6441463415
 30
0.0
 11
-258.7959544223
 21
-90.6441463415
 31
0.0
  0
LINE
  5
65E
330
1F
100
AcDbEntity
  8
0
  6
Continuous
 62
     7
370
    25
100
AcDbLine
 10
-258.7959544223
 20
-96.1441463415
 30
0.0
 11
-258.7959544223
 21
-90.6441463415
 31
0.0
  0
LINE
  5
65F
330
1F
100
AcDbEntity
  8
0
  6
Continuous
 62
     7
370
    25
100
AcDbLine
 10
-266.2959544223
 20
-96.1441463415
 30
0.0
 11
-266.2959544223
 21
-98.6441463415
 31
0.0
  0
LINE
  5
660
330
1F
100
AcDbEntity
  8
0
  6
Continuous
 62
     7
370
    25
100
AcDbLine
 10
-281.2959544223
 20
-96.1441463415
 30
0.0
 11
-281.2959544223
 21
-98.6441463415
 31
0.0
  0
LINE
  5
661
330
1F
100
AcDbEntity
  8
0
  6
Continuous
 62
     7
370
    25
100
AcDbLine
 10
-301.2959544223
 20
-96.1441463415
 30
0.0
 11
-281.2959544223
 21
-96.1441463415
 31
0.0
  0
LINE
  5
662
330
1F
100
AcDbEntity
  8
0
  6
Continuous
 62
     7
370
    25
100
AcDbLine
 10
-323.7959544223
 20
-96.1441463415
 30
0.0
 11
-316.2959544223
 21
-96.1441463415
 31
0.0
  0
LINE
  5
663
330
1F
100
AcDbEntity
  8
0
  6
Continuous
 62
     7
370
    25
100
AcDbLine
 10
-323.7959544223
 20
-90.6441463415
 30
0.0
 11
-323.7959544223
 21
-96.1441463415
 31
0.0
  0
LINE
  5
664
330
1F
100
AcDbEntity
  8
0
  6
Continuous
 62
     7
370
    25
100
AcDbLine
 10
-326.2959544223
 20
-50.6441463415
 30
0.0
 11
-323.7959544223
 21
-50.6441463415
 31
0.0
  0
LINE
  5
665
330
1F
100
AcDbEntity
  8
0
  6
Continuous
 62
     7
370
    25
100
AcDbLine
 10
-258.7959544223
 20
-40.6441463415
 30
0.0
 11
-258.7959544223
 21
-50.6441463415
 31
0.0
  0
LINE
  5
666
330
1F
100
AcDbEntity
  8
0
  6
Continuous
 62
     7
370
    25
100
AcDbLine
 10
-266.2959544223
 20
-96.1441463415
 30
0.0
 11
-258.7959544223
 21
-96.1441463415
 31
0.0
  0
LINE
  5
667
330
1F
100
AcDbEntity
  8
0
  6
Continuous
 62
     7
370
    25
100
AcDbLine
 10
-323.7959544223
 20
-60.6441463415
 30
0.0
 11
-326.2959544223
 21
-60.6441463415
 31
0.0
  0
LINE
  5
668
330
1F
100
AcDbEntity
  8
0
  6
Continuous
 62
     7
370
    25
100
AcDbLine
 10
-301.2959544223
 20
-96.1441463415
 30
0.0
 11
-301.2959544223
 21
-98.6441463415
 31
0.0
  0
LINE
  5
669
330
1F
100
AcDbEntity
  8
0
  6
Continuous
 62
     7
370
    25
100
AcDbLine
 10
-258.7959544223
 20
-80.6441463415
 30
0.0
 11
-258.7959544223
 21
-60.6441463415
 31
0.0
  0
LINE
  5
66A
330
1F
100
AcDbEntity
  8
0
  6
Continuous
 62
     7
370
    25
100
AcDbLine
 10
-26.2959544223
 20
-90.6441463415
 30
0.0
 11
-23.7959544223
 21
-90.6441463415
 31
0.0
  0
LINE
  5
66B
330
1F
100
AcDbEntity
  8
0
  6
Continuous
 62
     7
370
    25
100
AcDbLine
 10
-23.7959544223
 20
-80.6441463415
 30
0.0
 11
-23.7959544223
 21
-60.6441463415
 31
0.0
  0
LINE
  5
66C
330
1F
100
AcDbEntity
  8
0
  6
Continuous
 62
     7
370
    25
100
AcDbLine
 10
41.2040455777
 20
-96.1441463415
 30
0.0
 11
41.2040455777
 21
-90.6441463415
 31
0.0
  0
LINE
  5
66D
330
1F
100
AcDbEntity
  8
0
  6
Continuous
 62
     7
370
    25
100
AcDbLine
 10
33.7040455777
 20
-96.1441463415
 30
0.0
 11
33.7040455777
 21
-98.6441463415
 31
0.0
  0
LINE
  5
66E
330
1F
100
AcDbEntity
  8
0
  6
Continuous
 62
     7
370
    25
100
AcDbLine
 10
-1.2959544223
 20
-96.1441463415
 30
0.0
 11
18.7040455777
 21
-96.1441463415
 31
0.0
  0
LINE
  5
66F
330
1F
100
AcDbEntity
  8
0
  6
Continuous
 62
     7
370
    25
100
AcDbLine
 10
43.7040455777
 20
-50.6441463415
 30
0.0
 11
41.2040455777
 21
-50.6441463415
 31
0.0
  0
LINE
  5
670
330
1F
100
AcDbEntity
  8
0
  6
Continuous
 62
     7
370
    25
100
AcDbLine
 10
-16.2959544223
 20
-96.1441463415
 30
0.0
 11
-16.2959544223
 21
-98.6441463415
 31
0.0
  0
LINE
  5
671
330
1F
100
AcDbEntity
  8
0
  6
Continuous
 62
     7
370
    25
100
AcDbLine
 10
-23.7959544223
 20
-80.6441463415
 30
0.0
 11
-26.2959544223
 21
-80.6441463415
 31
0.0
  0
LINE
  5
672
330
1F
100
AcDbEntity
  8
0
  6
Continuous
 62
     7
370
    25
100
AcDbLine
 10
-23.7959544223
 20
-40.6441463415
 30
0.0
 11
-23.7959544223
 21
-50.6441463415
 31
0.0
  0
LINE
  5
673
330
1F
100
AcDbEntity
  8
0
  6
Continuous
 62
     7
370
    25
100
AcDbLine
 10
41.2040455777
 20
-60.6441463415
 30
0.0
 11
43.7040455777
 21
-60.6441463415
 31
0.0
  0
LINE
  5
674
330
1F
100
AcDbEntity
  8
0
  6
Continuous
 62
     7
370
    25
100
AcDbLine
 10
41.2040455777
 20
-80.6441463415
 30
0.0
 11
43.7040455777
 21
-80.6441463415
 31
0.0
  0
LINE
  5
675
330
1F
100
AcDbEntity
  8
0
  6
Continuous
 62
     7
370
    25
100
AcDbLine
 10
43.7040455777
 20
-90.6441463415
 30
0.0
 11
41.2040455777
 21
-90.6441463415
 31
0.0
  0
LINE
  5
676
330
1F
100
AcDbEntity
  8
0
  6
Continuous
 62
     7
370
    25
100
AcDbLine
 10
18.7040455777
 20
-96.1441463415
 30
0.0
 11
18.7040455777
 21
-98.6441463415
 31
0.0
  0
LINE
  5
677
330
1F
100
AcDbEntity
  8
0
  6
Continuous
 62
     7
370
    25
100
AcDbLine
 10
-23.7959544223
 20
-96.1441463415
 30
0.0
 11
-16.2959544223
 21
-96.1441463415
 31
0.0
  0
LINE
  5
678
330
1F
100
AcDbEntity
  8
0
  6
Continuous
 62
     7
370
    25
100
AcDbLine
 10
-23.7959544223
 20
-90.6441463415
 30
0.0
 11
-23.7959544223
 21
-96.1441463415
 31
0.0
  0
LINE
  5
679
330
1F
100
AcDbEntity
  8
0
  6
Continuous
 62
     7
370
    25
100
AcDbLine
 10
-26.2959544223
 20
-50.6441463415
 30
0.0
 11
-23.7959544223
 21
-50.6441463415
 31
0.0
  0
LINE
  5
67A
330
1F
100
AcDbEntity
  8
0
  6
Continuous
 62
     7
370
    25
100
AcDbLine
 10
41.2040455777
 20
-40.6441463415
 30
0.0
 11
41.2040455777
 21
-50.6441463415
 31
0.0
  0
LINE
  5
67B
330
1F
100
AcDbEntity
  8
0
  6
Continuous
 62
     7
370
    25
100
AcDbLine
 10
33.7040455777
 20
-96.1441463415
 30
0.0
 11
41.2040455777
 21
-96.1441463415
 31
0.0
  0
LINE
  5
67C
330
1F
100
AcDbEntity
  8
0
  6
Continuous
 62
     7
370
    25
100
AcDbLine
 10
-23.7959544223
 20
-60.6441463415
 30
0.0
 11
-26.2959544223
 21
-60.6441463415
 31
0.0
  0
LINE
  5
67D
330
1F
100
AcDbEntity
  8
0
  6
Continuous
 62
     7
370
    25
100
AcDbLine
 10
-1.2959544223
 20
-96.1441463415
 30
0.0
 11
-1.2959544223
 21
-98.6441463415
 31
0.0
  0
LINE
  5
67E
330
1F
100
AcDbEntity
  8
0
  6
Continuous
 62
     7
370
    25
100
AcDbLine
 10
41.2040455777
 20
-80.6441463415
 30
0.0
 11
41.2040455777
 21
-60.6441463415
 31
0.0
  0
ENDSEC
  0
SECTION
  2
OBJECTS
  0
DICTIONARY
  5
C
330
0
100
AcDbDictionary
281
     1
  3
ACAD_GROUP
350
D
  3
ACAD_LAYOUT
350
1A
  3
ACAD_MLINESTYLE
350
17
  3
ACAD_PLOTSETTINGS
350
19
  3
ACAD_PLOTSTYLENAME
350
E
  3
ACAD_SCALELIST
350
47
  0
DICTIONARY
  5
D
102
{ACAD_REACTORS
330
C
102
}
330
C
100
AcDbDictionary
281
     1
  0
DICTIONARY
  5
1A
102
{ACAD_REACTORS
330
C
102
}
330
C
100
AcDbDictionary
281
     1
  3
Layout1
350
1E
  3
Layout2
350
26
  3
Model
350
22
  0
DICTIONARY
  5
17
102
{ACAD_REACTORS
330
C
102
}
330
C
100
AcDbDictionary
281
     1
  3
Standard
350
18
  0
DICTIONARY
  5
19
102
{ACAD_REACTORS
330
C
102
}
330
C
100
AcDbDictionary
281
     1
  0
ACDBDICTIONARYWDFLT
  5
E
102
{ACAD_REACTORS
330
C
102
}
330
C
100
AcDbDictionary
281
     1
  3
Normal
350
F
100
AcDbDictionaryWithDefault
340
F
  0
DICTIONARY
  5
47
102
{ACAD_REACTORS
330
C
102
}
330
C
100
AcDbDictionary
281
     1
  3
A0
350
48
  3
A1
350
49
  3
A2
350
4A
  3
A3
350
4B
  3
A4
350
4C
  3
A5
350
4D
  3
A6
350
4E
  3
A7
350
4F
  3
A8
350
50
  3
A9
350
51
  3
B0
350
52
  3
B1
350
53
  3
B2
350
54
  3
B3
350
55
  3
B4
350
56
  3
B5
350
57
  3
B6
350
58
  3
B7
350
59
  3
B8
350
5A
  3
B9
350
5B
  3
C0
350
5C
  3
C1
350
5D
  3
C2
350
5E
  3
C3
350
5F
  3
C4
350
60
  3
C5
350
61
  3
C6
350
62
  3
C7
350
63
  3
C8
350
64
  3
C9
350
65
  3
D0
350
66
  3
D1
350
67
  3
D2
350
68
  0
LAYOUT
  5
1E
102
{ACAD_REACTORS
330
1A
102
}
330
1A
100
AcDbPlotSettings
  1

  2
none_device
  4

  6

 40
0.0
 41
0.0
 42
0.0
 43
0.0
 44
0.0
 45
0.0
 46
0.0
 47
0.0
 48
0.0
 49
0.0
140
0.0
141
0.0
142
1.0
143
1.0
 70
   688
 72
     1
 73
     0
 74
     5
  7

 75
    16
147
1.0
148
0.0
149
0.0
100
AcDbLayout
  1
Layout1
 70
     1
 71
     1
 10
0.0
 20
0.0
 11
420.0
 21
297.0
 12
0.0
 22
0.0
 32
0.0
 14
1.0000000000E+20
 24
1.0000000000E+20
 34
1.0000000000E+20
 15
-1.0000000000E+20
 25
-1.0000000000E+20
 35
-1.0000000000E+20
146
0.0
 13
0.0
 23
0.0
 33
0.0
 16
1.0
 26
0.0
 36
0.0
 17
0.0
 27
1.0
 37
0.0
 76
     0
330
1B
  0
LAYOUT
  5
26
102
{ACAD_REACTORS
330
1A
102
}
330
1A
100
AcDbPlotSettings
  1

  2
none_device
  4

  6

 40
0.0
 41
0.0
 42
0.0
 43
0.0
 44
0.0
 45
0.0
 46
0.0
 47
0.0
 48
0.0
 49
0.0
140
0.0
141
0.0
142
1.0
143
1.0
 70
   688
 72
     1
 73
     0
 74
     5
  7

 75
    16
147
1.0
148
0.0
149
0.0
100
AcDbLayout
  1
Layout2
 70
     1
 71
     2
 10
0.0
 20
0.0
 11
0.0
 21
0.0
 12
0.0
 22
0.0
 32
0.0
 14
0.0
 24
0.0
 34
0.0
 15
0.0
 25
0.0
 35
0.0
146
0.0
 13
0.0
 23
0.0
 33
0.0
 16
1.0
 26
0.0
 36
0.0
 17
0.0
 27
1.0
 37
0.0
 76
     0
330
23
  0
LAYOUT
  5
22
102
{ACAD_REACTORS
330
1A
102
}
330
1A
100
AcDbPlotSettings
  1

  2
none_device
  4
ANSI_A_(11.00_x_8.50_Inches)
  6

 40
6.35
 41
19.05
 42
6.35000508
 43
19.05000254
 44
279.4
 45
215.9
 46
231.0582693823
 47
70.3287730873
 48
0.0
 49
0.0
140
0.0
141
0.0
142
0.027225
143
1.0
 70
  1696
 72
     0
 73
     0
 74
     0
  7

 75
     0
147
0.0179189148
148
-1300.4909072572
149
0.0
100
AcDbLayout
  1
Model
 70
     1
 71
     0
 10
0.0
 20
0.0
 11
420.0
 21
297.0
 12
0.0
 22
0.0
 32
0.0
 14
-341.2959544223
 24
-115.6441463415
 34
0.0
 15
58.7040455777
 25
169.3558536585
 35
0.0
146
0.0
 13
0.0
 23
0.0
 33
0.0
 16
1.0
 26
0.0
 36
0.0
 17
0.0
 27
1.0
 37
0.0
 76
     0
330
1F
331
29
  0
MLINESTYLE
  5
18
102
{ACAD_REACTORS
330
17
102
}
330
17
100
AcDbMlineStyle
  2
Standard
 70
     0
  3

 62
   256
 51
90.0
 52
90.0
 71
     2
 49
0.5
 62
   256
  6
BYLAYER
 49
-0.5
 62
   256
  6
BYLAYER
  0
ACDBPLACEHOLDER
  5
F
102
{ACAD_REACTORS
330
E
102
}
330
E
  0
SCALE
  5
48
102
{ACAD_REACTORS
330
47
102
}
330
47
100
AcDbScale
 70
     0
300
1:1
140
1.0
141
1.0
290
     1
  0
SCALE
  5
49
102
{ACAD_REACTORS
330
47
102
}
330
47
100
AcDbScale
 70
     0
300
1:2
140
1.0
141
2.0
290
     0
  0
SCALE
  5
4A
102
{ACAD_REACTORS
330
47
102
}
330
47
100
AcDbScale
 70
     0
300
1:4
140
1.0
141
4.0
290
     0
  0
SCALE
  5
4B
102
{ACAD_REACTORS
330
47
102
}
330
47
100
AcDbScale
 70
     0
300
1:5
140
1.0
141
5.0
290
     0
  0
SCALE
  5
4C
102
{ACAD_REACTORS
330
47
102
}
330
47
100
AcDbScale
 70
     0
300
1:8
140
1.0
141
8.0
290
     0
  0
SCALE
  5
4D
102
{ACAD_REACTORS
330
47
102
}
330
47
100
AcDbScale
 70
     0
300
1:10
140
1.0
141
10.0
290
     0
  0
SCALE
  5
4E
102
{ACAD_REACTORS
330
47
102
}
330
47
100
AcDbScale
 70
     0
300
1:16
140
1.0
141
16.0
290
     0
  0
SCALE
  5
4F
102
{ACAD_REACTORS
330
47
102
}
330
47
100
AcDbScale
 70
     0
300
1:20
140
1.0
141
20.0
290
     0
  0
SCALE
  5
50
102
{ACAD_REACTORS
330
47
102
}
330
47
100
AcDbScale
 70
     0
300
1:30
140
1.0
141
30.0
290
     0
  0
SCALE
  5
51
102
{ACAD_REACTORS
330
47
102
}
330
47
100
AcDbScale
 70
     0
300
1:40
140
1.0
141
40.0
290
     0
  0
SCALE
  5
52
102
{ACAD_REACTORS
330
47
102
}
330
47
100
AcDbScale
 70
     0
300
1:50
140
1.0
141
50.0
290
     0
  0
SCALE
  5
53
102
{ACAD_REACTORS
330
47
102
}
330
47
100
AcDbScale
 70
     0
300
1:100
140
1.0
141
100.0
290
     0
  0
SCALE
  5
54
102
{ACAD_REACTORS
330
47
102
}
330
47
100
AcDbScale
 70
     0
300
2:1
140
2.0
141
1.0
290
     0
  0
SCALE
  5
55
102
{ACAD_REACTORS
330
47
102
}
330
47
100
AcDbScale
 70
     0
300
4:1
140
4.0
141
1.0
290
     0
  0
SCALE
  5
56
102
{ACAD_REACTORS
330
47
102
}
330
47
100
AcDbScale
 70
     0
300
8:1
140
8.0
141
1.0
290
     0
  0
SCALE
  5
57
102
{ACAD_REACTORS
330
47
102
}
330
47
100
AcDbScale
 70
     0
300
10:1
140
10.0
141
1.0
290
     0
  0
SCALE
  5
58
102
{ACAD_REACTORS
330
47
102
}
330
47
100
AcDbScale
 70
     0
300
100:1
140
100.0
141
1.0
290
     0
  0
SCALE
  5
59
102
{ACAD_REACTORS
330
47
102
}
330
47
100
AcDbScale
 70
     0
300
1/128" = 1'-0"
140
0.0078125
141
12.0
290
     0
  0
SCALE
  5
5A
102
{ACAD_REACTORS
330
47
102
}
330
47
100
AcDbScale
 70
     0
300
1/64" = 1'-0"
140
0.015625
141
12.0
290
     0
  0
SCALE
  5
5B
102
{ACAD_REACTORS
330
47
102
}
330
47
100
AcDbScale
 70
     0
300
1/32" = 1'-0"
140
0.03125
141
12.0
290
     0
  0
SCALE
  5
5C
102
{ACAD_REACTORS
330
47
102
}
330
47
100
AcDbScale
 70
     0
300
1/16" = 1'-0"
140
0.0625
141
12.0
290
     0
  0
SCALE
  5
5D
102
{ACAD_REACTORS
330
47
102
}
330
47
100
AcDbScale
 70
     0
300
3/32" = 1'-0"
140
0.09375
141
12.0
290
     0
  0
SCALE
  5
5E
102
{ACAD_REACTORS
330
47
102
}
330
47
100
AcDbScale
 70
     0
300
1/8" = 1'-0"
140
0.125
141
12.0
290
     0
  0
SCALE
  5
5F
102
{ACAD_REACTORS
330
47
102
}
330
47
100
AcDbScale
 70
     0
300
3/16" = 1'-0"
140
0.1875
141
12.0
290
     0
  0
SCALE
  5
60
102
{ACAD_REACTORS
330
47
102
}
330
47
100
AcDbScale
 70
     0
300
1/4" = 1'-0"
140
0.25
141
12.0
290
     0
  0
SCALE
  5
61
102
{ACAD_REACTORS
330
47
102
}
330
47
100
AcDbScale
 70
     0
300
3/8" = 1'-0"
140
0.375
141
12.0
290
     0
  0
SCALE
  5
62
102
{ACAD_REACTORS
330
47
102
}
330
47
100
AcDbScale
 70
     0
300
1/2" = 1'-0"
140
0.5
141
12.0
290
     0
  0
SCALE
  5
63
102
{ACAD_REACTORS
330
47
102
}
330
47
100
AcDbScale
 70
     0
300
3/4" = 1'-0"
140
0.75
141
12.0
290
     0
  0
SCALE
  5
64
102
{ACAD_REACTORS
330
47
102
}
330
47
100
AcDbScale
 70
     0
300
1" = 1'-0"
140
1.0
141
12.0
290
     0
  0
SCALE
  5
65
102
{ACAD_REACTORS
330
47
102
}
330
47
100
AcDbScale
 70
     0
300
1-1/2" = 1'-0"
140
1.5
141
12.0
290
     0
  0
SCALE
  5
66
102
{ACAD_REACTORS
330
47
102
}
330
47
100
AcDbScale
 70
     0
300
3" = 1'-0"
140
3.0
141
12.0
290
     0
  0
SCALE
  5
67
102
{ACAD_REACTORS
330
47
102
}
330
47
100
AcDbScale
 70
     0
300
6" = 1'-0"
140
6.0
141
12.0
290
     0
  0
SCALE
  5
68
102
{ACAD_REACTORS
330
47
102
}
330
47
100
AcDbScale
 70
     0
300
1'-0" = 1'-0"
140
12.0
141
12.0
290
     0
  0
ENDSEC
  0
EOF
