  0
SECTION
  2
HEADER
  9
$ACADVER
  1
AC1015
  9
$ACADMAINTVER
 70
     6
  9
$DWGCODEPAGE
  3
ANSI_1256
  9
$INSBASE
 10
0.0
 20
0.0
 30
0.0
  9
$EXTMIN
 10
-73.0
 20
-30.0
 30
0.0
  9
$EXTMAX
 10
73.0
 20
30.0
 30
0.0
  9
$LIMMIN
 10
0.0
 20
0.0
  9
$LIMMAX
 10
420.0
 20
297.0
  9
$ORTHOMODE
 70
     0
  9
$REGENMODE
 70
     1
  9
$FILLMODE
 70
     1
  9
$QTEXTMODE
 70
     0
  9
$MIRRTEXT
 70
     1
  9
$LTSCALE
 40
1.0
  9
$ATTMODE
 70
     1
  9
$TEXTSIZE
 40
6.35
  9
$TRACEWID
 40
1.0
  9
$TEXTSTYLE
  7
Standard
  9
$CLAYER
  8
0
  9
$CELTYPE
  6
ByLayer
  9
$CECOLOR
 62
   256
  9
$CELTSCALE
 40
1.0
  9
$DISPSILH
 70
     0
  9
$DIMSCALE
 40
1.0
  9
$DIMASZ
 40
5.9944
  9
$DIMEXO
 40
0.9906
  9
$DIMDLI
 40
3.75
  9
$DIMRND
 40
0.0
  9
$DIMDLE
 40
0.0
  9
$DIMEXE
 40
0.9906
  9
$DIMTP
 40
0.0
  9
$DIMTM
 40
0.0
  9
$DIMTXT
 40
6.35
  9
$DIMCEN
 40
2.5
  9
$DIMTSZ
 40
0.0
  9
$DIMTOL
 70
     0
  9
$DIMLIM
 70
     0
  9
$DIMTIH
 70
     1
  9
$DIMTOH
 70
     1
  9
$DIMSE1
 70
     0
  9
$DIMSE2
 70
     0
  9
$DIMTAD
 70
     1
  9
$DIMZIN
 70
     1
  9
$DIMBLK
  1

  9
$DIMASO
 70
     1
  9
$DIMSHO
 70
     1
  9
$DIMPOST
  1

  9
$DIMAPOST
  1

  9
$DIMALT
 70
     0
  9
$DIMALTD
 70
     3
  9
$DIMALTF
 40
0.0393700787
  9
$DIMLFAC
 40
1.0
  9
$DIMTOFL
 70
     1
  9
$DIMTVP
 40
0.0
  9
$DIMTIX
 70
     0
  9
$DIMSOXD
 70
     0
  9
$DIMSAH
 70
     0
  9
$DIMBLK1
  1

  9
$DIMBLK2
  1

  9
$DIMSTYLE
  2
ISO-25
  9
$DIMCLRD
 70
     0
  9
$DIMCLRE
 70
     0
  9
$DIMCLRT
 70
     0
  9
$DIMTFAC
 40
1.0
  9
$DIMGAP
 40
1.524
  9
$DIMJUST
 70
     0
  9
$DIMSD1
 70
     0
  9
$DIMSD2
 70
     0
  9
$DIMTOLJ
 70
     0
  9
$DIMTZIN
 70
     1
  9
$DIMALTZ
 70
     0
  9
$DIMALTTZ
 70
     0
  9
$DIMUPT
 70
     0
  9
$DIMDEC
 70
     2
  9
$DIMTDEC
 70
     2
  9
$DIMALTU
 70
     2
  9
$DIMALTTD
 70
     3
  9
$DIMTXSTY
  7
Standard
  9
$DIMAUNIT
 70
     0
  9
$DIMADEC
 70
     2
  9
$DIMALTRND
 40
0.0
  9
$DIMAZIN
 70
     0
  9
$DIMDSEP
 70
    44
  9
$DIMATFIT
 70
     3
  9
$DIMFRAC
 70
     0
  9
$DIMLDRBLK
  1

  9
$DIMLUNIT
 70
     2
  9
$DIMLWD
 70
    -2
  9
$DIMLWE
 70
    -2
  9
$DIMTMOVE
 70
     0
  9
$LUNITS
 70
     2
  9
$LUPREC
 70
     2
  9
$SKETCHINC
 40
1.0
  9
$FILLETRAD
 40
10.0
  9
$AUNITS
 70
     0
  9
$AUPREC
 70
     2
  9
$MENU
  1
.
  9
$ELEVATION
 40
0.0
  9
$PELEVATION
 40
0.0
  9
$THICKNESS
 40
0.0
  9
$LIMCHECK
 70
     0
  9
$CHAMFERA
 40
0.0
  9
$CHAMFERB
 40
0.0
  9
$CHAMFERC
 40
0.0
  9
$CHAMFERD
 40
0.0
  9
$SKPOLY
 70
     0
  9
$TDCREATE
 40
2458830.574314896
  9
$TDUCREATE
 40
2458830.490981563
  9
$TDUPDATE
 40
2458830.574351725
  9
$TDUUPDATE
 40
2458830.491018391
  9
$TDINDWG
 40
0.0000000116
  9
$TDUSRTIMER
 40
0.0000000116
  9
$USRTIMER
 70
     1
  9
$ANGBASE
 50
0.0
  9
$ANGDIR
 70
     0
  9
$PDMODE
 70
     0
  9
$PDSIZE
 40
-1.0
  9
$PLINEWID
 40
0.0
  9
$SPLFRAME
 70
     0
  9
$SPLINETYPE
 70
     6
  9
$SPLINESEGS
 70
     8
  9
$HANDSEED
  5
19F
  9
$SURFTAB1
 70
     6
  9
$SURFTAB2
 70
     6
  9
$SURFTYPE
 70
     6
  9
$SURFU
 70
     6
  9
$SURFV
 70
     6
  9
$UCSBASE
  2

  9
$UCSNAME
  2

  9
$UCSORG
 10
0.0
 20
0.0
 30
0.0
  9
$UCSXDIR
 10
1.0
 20
0.0
 30
0.0
  9
$UCSYDIR
 10
0.0
 20
1.0
 30
0.0
  9
$UCSORTHOREF
  2

  9
$UCSORTHOVIEW
 70
     0
  9
$UCSORGTOP
 10
0.0
 20
0.0
 30
0.0
  9
$UCSORGBOTTOM
 10
0.0
 20
0.0
 30
0.0
  9
$UCSORGLEFT
 10
0.0
 20
0.0
 30
0.0
  9
$UCSORGRIGHT
 10
0.0
 20
0.0
 30
0.0
  9
$UCSORGFRONT
 10
0.0
 20
0.0
 30
0.0
  9
$UCSORGBACK
 10
0.0
 20
0.0
 30
0.0
  9
$PUCSBASE
  2

  9
$PUCSNAME
  2

  9
$PUCSORG
 10
0.0
 20
0.0
 30
0.0
  9
$PUCSXDIR
 10
1.0
 20
0.0
 30
0.0
  9
$PUCSYDIR
 10
0.0
 20
1.0
 30
0.0
  9
$PUCSORTHOREF
  2

  9
$PUCSORTHOVIEW
 70
     0
  9
$PUCSORGTOP
 10
0.0
 20
0.0
 30
0.0
  9
$PUCSORGBOTTOM
 10
0.0
 20
0.0
 30
0.0
  9
$PUCSORGLEFT
 10
0.0
 20
0.0
 30
0.0
  9
$PUCSORGRIGHT
 10
0.0
 20
0.0
 30
0.0
  9
$PUCSORGFRONT
 10
0.0
 20
0.0
 30
0.0
  9
$PUCSORGBACK
 10
0.0
 20
0.0
 30
0.0
  9
$USERI1
 70
     0
  9
$USERI2
 70
     0
  9
$USERI3
 70
     0
  9
$USERI4
 70
     0
  9
$USERI5
 70
     0
  9
$USERR1
 40
0.0
  9
$USERR2
 40
0.0
  9
$USERR3
 40
0.0
  9
$USERR4
 40
0.0
  9
$USERR5
 40
0.0
  9
$WORLDVIEW
 70
     1
  9
$SHADEDGE
 70
     3
  9
$SHADEDIF
 70
    70
  9
$TILEMODE
 70
     1
  9
$MAXACTVP
 70
    64
  9
$PINSBASE
 10
0.0
 20
0.0
 30
0.0
  9
$PLIMCHECK
 70
     0
  9
$PEXTMIN
 10
1.0000000000E+20
 20
1.0000000000E+20
 30
1.0000000000E+20
  9
$PEXTMAX
 10
-1.0000000000E+20
 20
-1.0000000000E+20
 30
-1.0000000000E+20
  9
$PLIMMIN
 10
0.0
 20
0.0
  9
$PLIMMAX
 10
420.0
 20
297.0
  9
$UNITMODE
 70
     0
  9
$VISRETAIN
 70
     1
  9
$PLINEGEN
 70
     0
  9
$PSLTSCALE
 70
     1
  9
$TREEDEPTH
 70
  3020
  9
$CMLSTYLE
  2
Standard
  9
$CMLJUST
 70
     0
  9
$CMLSCALE
 40
20.0
  9
$PROXYGRAPHICS
 70
     1
  9
$MEASUREMENT
 70
     1
  9
$CELWEIGHT
370
    -1
  9
$ENDCAPS
280
     0
  9
$JOINSTYLE
280
     0
  9
$LWDISPLAY
290
     1
  9
$INSUNITS
 70
     4
  9
$HYPERLINKBASE
  1

  9
$STYLESHEET
  1

  9
$XEDIT
290
     1
  9
$CEPSNTYPE
380
     0
  9
$PSTYLEMODE
290
     1
  9
$FINGERPRINTGUID
  2
{107D57EA-607C-4CA5-9241-580E96B52B48}
  9
$VERSIONGUID
  2
{FAEB1C32-E019-11D5-929B-00C0DF256EC4}
  9
$EXTNAMES
290
     1
  9
$PSVPSCALE
 40
0.0
  9
$OLESTARTUP
290
     0
  0
ENDSEC
  0
SECTION
  2
CLASSES
  0
CLASS
  1
ACDBDICTIONARYWDFLT
  2
AcDbDictionaryWithDefault
  3
ObjectDBX Classes
 90
        0
280
     0
281
     0
  0
CLASS
  1
VISUALSTYLE
  2
AcDbVisualStyle
  3
ObjectDBX Classes
 90
     4095
280
     0
281
     0
  0
CLASS
  1
MATERIAL
  2
AcDbMaterial
  3
ObjectDBX Classes
 90
     1153
280
     0
281
     0
  0
CLASS
  1
SCALE
  2
AcDbScale
  3
ObjectDBX Classes
 90
     1153
280
     0
281
     0
  0
CLASS
  1
TABLESTYLE
  2
AcDbTableStyle
  3
ObjectDBX Classes
 90
     4095
280
     0
281
     0
  0
CLASS
  1
MLEADERSTYLE
  2
AcDbMLeaderStyle
  3
ACDB_MLEADERSTYLE_CLASS
 90
     4095
280
     0
281
     0
  0
CLASS
  1
SUN
  2
AcDbSun
  3
SCENEOE
 90
     1153
280
     0
281
     0
  0
CLASS
  1
ACDBPLACEHOLDER
  2
AcDbPlaceHolder
  3
ObjectDBX Classes
 90
        0
280
     0
281
     0
  0
CLASS
  1
LAYOUT
  2
AcDbLayout
  3
ObjectDBX Classes
 90
        0
280
     0
281
     0
  0
ENDSEC
  0
SECTION
  2
TABLES
  0
TABLE
  2
VPORT
  5
8
330
0
100
AcDbSymbolTable
 70
     1
  0
VPORT
  5
29
330
8
100
AcDbSymbolTableRecord
100
AcDbViewportTableRecord
  2
*Active
 70
     0
 10
0.0
 20
0.0
 11
1.0
 21
1.0
 12
0.0
 22
0.0
 13
0.0
 23
0.0
 14
10.0
 24
10.0
 15
10.0
 25
10.0
 16
0.0
 26
0.0
 36
1.0
 17
0.0
 27
0.0
 37
0.0
 40
61.2
 41
2.4333333333
 42
50.0
 43
0.0
 44
0.0
 50
0.0
 51
0.0
 71
     0
 72
   100
 73
     1
 74
     3
 75
     0
 76
     0
 77
     0
 78
     0
281
     0
 65
     1
110
0.0
120
0.0
130
0.0
111
1.0
121
0.0
131
0.0
112
0.0
122
1.0
132
0.0
 79
     0
146
0.0
  0
ENDTAB
  0
TABLE
  2
LTYPE
  5
5
330
0
100
AcDbSymbolTable
 70
     6
  0
LTYPE
  5
14
330
5
100
AcDbSymbolTableRecord
100
AcDbLinetypeTableRecord
  2
ByBlock
 70
     0
  3

 72
    65
 73
     0
 40
0.0
  0
LTYPE
  5
15
330
5
100
AcDbSymbolTableRecord
100
AcDbLinetypeTableRecord
  2
ByLayer
 70
     0
  3

 72
    65
 73
     0
 40
0.0
  0
LTYPE
  5
16
330
5
100
AcDbSymbolTableRecord
100
AcDbLinetypeTableRecord
  2
Continuous
 70
     0
  3
Solid line
 72
    65
 73
     0
 40
0.0
  0
LTYPE
  5
6E
330
5
100
AcDbSymbolTableRecord
100
AcDbLinetypeTableRecord
  2
HIDDEN
 70
     0
  3
Hidden __ __ __ __ __ __ __ __ __ __ __ __ __ __
 72
    65
 73
     2
 40
1.905
 49
1.27
 74
     0
 49
-0.635
 74
     0
  0
LTYPE
  5
6F
330
5
100
AcDbSymbolTableRecord
100
AcDbLinetypeTableRecord
  2
PHANTOM
 70
     0
  3
Phantom ______  __  __  ______  __  __  ______
 72
    65
 73
     6
 40
12.7
 49
6.35
 74
     0
 49
-1.27
 74
     0
 49
1.27
 74
     0
 49
-1.27
 74
     0
 49
1.27
 74
     0
 49
-1.27
 74
     0
  0
LTYPE
  5
70
330
5
100
AcDbSymbolTableRecord
100
AcDbLinetypeTableRecord
  2
CENTER
 70
     0
  3
Center ____ _ ____ _ ____ _ ____ _ ____ _ ____
 72
    65
 73
     4
 40
10.16
 49
6.35
 74
     0
 49
-1.27
 74
     0
 49
1.27
 74
     0
 49
-1.27
 74
     0
  0
LTYPE
  5
71
330
5
100
AcDbSymbolTableRecord
100
AcDbLinetypeTableRecord
  2
CENTERX2
 70
     0
  3
Center (2x) ________  __  ________  __  _____
 72
    65
 73
     4
 40
20.32
 49
12.7
 74
     0
 49
-2.54
 74
     0
 49
2.54
 74
     0
 49
-2.54
 74
     0
  0
LTYPE
  5
72
330
5
100
AcDbSymbolTableRecord
100
AcDbLinetypeTableRecord
  2
DOT2
 70
     0
  3
Dot (.5x) ........................................
 72
    65
 73
     2
 40
0.635
 49
0.0
 74
     0
 49
-0.635
 74
     0
  0
ENDTAB
  0
TABLE
  2
LAYER
  5
2
330
0
100
AcDbSymbolTable
 70
     1
  0
LAYER
  5
10
330
2
100
AcDbSymbolTableRecord
100
AcDbLayerTableRecord
  2
0
 70
     0
 62
     7
  6
Continuous
370
    -3
390
F
  0
ENDTAB
  0
TABLE
  2
STYLE
  5
3
330
0
100
AcDbSymbolTable
 70
     1
  0
STYLE
  5
11
330
3
100
AcDbSymbolTableRecord
100
AcDbTextStyleTableRecord
  2
Standard
 70
     0
 40
0.0
 41
1.0
 50
0.0
 71
     0
 42
6.35
  3
txt
  4

  0
ENDTAB
  0
TABLE
  2
VIEW
  5
6
330
0
100
AcDbSymbolTable
 70
     0
  0
ENDTAB
  0
TABLE
  2
UCS
  5
7
330
0
100
AcDbSymbolTable
 70
     0
  0
ENDTAB
  0
TABLE
  2
APPID
  5
9
330
0
100
AcDbSymbolTable
 70
     1
  0
APPID
  5
12
330
9
100
AcDbSymbolTableRecord
100
AcDbRegAppTableRecord
  2
ACAD
 70
     0
  0
ENDTAB
  0
TABLE
  2
DIMSTYLE
  5
A
330
0
100
AcDbSymbolTable
 70
     1
100
AcDbDimStyleTable
  0
DIMSTYLE
105
27
330
A
100
AcDbSymbolTableRecord
100
AcDbDimStyleTableRecord
  2
ISO-25
 70
     0
 41
2.5
 42
0.625
 43
3.75
 44
1.25
 73
     0
 74
     0
 77
     1
 78
     8
140
2.5
141
2.5
143
0.0393700787
147
0.625
171
     3
172
     1
178
     0
271
     2
272
     2
274
     3
278
    44
283
     0
284
     8
340
11
  0
ENDTAB
  0
TABLE
  2
BLOCK_RECORD
  5
1
330
0
100
AcDbSymbolTable
 70
     1
  0
BLOCK_RECORD
  5
1F
330
1
100
AcDbSymbolTableRecord
100
AcDbBlockTableRecord
  2
*Model_Space
340
22
  0
BLOCK_RECORD
  5
1B
330
1
100
AcDbSymbolTableRecord
100
AcDbBlockTableRecord
  2
*Paper_Space
340
1E
  0
BLOCK_RECORD
  5
23
330
1
100
AcDbSymbolTableRecord
100
AcDbBlockTableRecord
  2
*Paper_Space0
340
26
  0
ENDTAB
  0
ENDSEC
  0
SECTION
  2
BLOCKS
  0
BLOCK
  5
20
330
1F
100
AcDbEntity
  8
0
100
AcDbBlockBegin
  2
*Model_Space
 70
     0
 10
0.0
 20
0.0
 30
0.0
  3
*Model_Space
  1

  0
ENDBLK
  5
21
330
1F
100
AcDbEntity
  8
0
100
AcDbBlockEnd
  0
BLOCK
  5
1C
330
1B
100
AcDbEntity
 67
     1
  8
0
100
AcDbBlockBegin
  2
*Paper_Space
 70
     0
 10
0.0
 20
0.0
 30
0.0
  3
*Paper_Space
  1

  0
ENDBLK
  5
1D
330
1B
100
AcDbEntity
 67
     1
  8
0
100
AcDbBlockEnd
  0
BLOCK
  5
24
330
23
100
AcDbEntity
  8
0
100
AcDbBlockBegin
  2
*Paper_Space0
 70
     0
 10
0.0
 20
0.0
 30
0.0
  3
*Paper_Space0
  1

  0
ENDBLK
  5
25
330
23
100
AcDbEntity
  8
0
100
AcDbBlockEnd
  0
ENDSEC
  0
SECTION
  2
ENTITIES
  0
CIRCLE
  5
C7
330
1F
100
AcDbEntity
  8
0
  6
Continuous
 62
     7
370
    25
100
AcDbCircle
 10
50.0
 20
0.0
 30
0.0
 40
4.000000000000007
  0
CIRCLE
  5
C8
330
1F
100
AcDbEntity
  8
0
  6
Continuous
 62
     7
370
    25
100
AcDbCircle
 10
50.0
 20
20.0
 30
0.0
 40
2.500000000000007
  0
CIRCLE
  5
C9
330
1F
100
AcDbEntity
  8
0
  6
Continuous
 62
     7
370
    25
100
AcDbCircle
 10
25.0
 20
0.0
 30
0.0
 40
4.000000000000011
  0
CIRCLE
  5
CA
330
1F
100
AcDbEntity
  8
0
  6
Continuous
 62
     7
370
    25
100
AcDbCircle
 10
25.0
 20
20.0
 30
0.0
 40
2.500000000000007
  0
CIRCLE
  5
CB
330
1F
100
AcDbEntity
  8
0
  6
Continuous
 62
     7
370
    25
100
AcDbCircle
 10
0.0
 20
0.0
 30
0.0
 40
4.000000000000006
  0
CIRCLE
  5
CC
330
1F
100
AcDbEntity
  8
0
  6
Continuous
 62
     7
370
    25
100
AcDbCircle
 10
0.0
 20
20.0
 30
0.0
 40
2.500000000000002
  0
CIRCLE
  5
CD
330
1F
100
AcDbEntity
  8
0
  6
Continuous
 62
     7
370
    25
100
AcDbCircle
 10
-25.0
 20
0.0
 30
0.0
 40
4.000000000000011
  0
CIRCLE
  5
CE
330
1F
100
AcDbEntity
  8
0
  6
Continuous
 62
     7
370
    25
100
AcDbCircle
 10
-25.0
 20
20.0
 30
0.0
 40
2.499999999999993
  0
CIRCLE
  5
CF
330
1F
100
AcDbEntity
  8
0
  6
Continuous
 62
     7
370
    25
100
AcDbCircle
 10
50.0
 20
-15.0
 30
0.0
 40
4.000000000000007
  0
CIRCLE
  5
D0
330
1F
100
AcDbEntity
  8
0
  6
Continuous
 62
     7
370
    25
100
AcDbCircle
 10
25.0
 20
-15.0
 30
0.0
 40
4.000000000000011
  0
CIRCLE
  5
D1
330
1F
100
AcDbEntity
  8
0
  6
Continuous
 62
     7
370
    25
100
AcDbCircle
 10
-50.0
 20
15.0
 30
0.0
 40
2.5
  0
CIRCLE
  5
D2
330
1F
100
AcDbEntity
  8
0
  6
Continuous
 62
     7
370
    25
100
AcDbCircle
 10
-50.0
 20
0.0
 30
0.0
 40
6.249999999999986
  0
CIRCLE
  5
D3
330
1F
100
AcDbEntity
  8
0
  6
Continuous
 62
     7
370
    25
100
AcDbCircle
 10
0.0
 20
-15.0
 30
0.0
 40
4.000000000000005
  0
CIRCLE
  5
D4
330
1F
100
AcDbEntity
  8
0
  6
Continuous
 62
     7
370
    25
100
AcDbCircle
 10
-25.0
 20
-15.0
 30
0.0
 40
4.000000000000011
  0
SPLINE
  5
F8
330
1F
100
AcDbEntity
  8
0
  6
Continuous
 62
     7
370
    25
100
AcDbSpline
210
0.0
220
0.0
230
1.0
 70
     8
 71
     3
 72
    13
 73
     9
 74
     0
 42
0.000000001
 43
0.00000001
 40
0.0
 40
0.0
 40
0.0
 40
0.0
 40
0.0945559513854638
 40
0.2024248930605955
 40
0.3252945227279573
 40
0.4598434807462219
 40
0.73857986186785
 40
0.9999999999999999
 40
0.9999999999999999
 40
0.9999999999999999
 40
0.9999999999999999
 10
-24.22967664930563
 20
11.91087239583315
 30
0.0
 10
-24.20396292294836
 20
11.91416828495019
 30
0.0
 10
-24.14891511017938
 20
11.92122410737364
 30
0.0
 10
-24.0602406109711
 20
11.930784863792
 30
0.0
 10
-23.96053592835559
 20
11.94022409078814
 30
0.0
 10
-23.81411547550517
 20
11.95306301520652
 30
0.0
 10
-23.62955117080264
 20
11.96686621079487
 30
0.0
 10
-23.48143019390582
 20
11.96813563526049
 30
0.0
 10
-23.40974392361118
 20
11.96874999999982
 30
0.0
  0
SPLINE
  5
F9
330
1F
100
AcDbEntity
  8
0
  6
Continuous
 62
     7
370
    25
100
AcDbSpline
210
0.0
220
0.0
230
1.0
 70
     8
 71
     3
 72
    13
 73
     9
 74
     0
 42
0.000000001
 43
0.00000001
 40
0.0
 40
0.0
 40
0.0
 40
0.0
 40
0.1092740134243917
 40
0.2259896927316183
 40
0.3498638766146636
 40
0.481732398407936
 40
0.7476770116702715
 40
1.0
 40
1.0
 40
1.0
 40
1.0
 10
51.48387152777779
 20
14.23700086805555
 30
0.0
 10
51.54337657185955
 20
14.2548092037298
 30
0.0
 10
51.6664390110123
 20
14.2916386399422
 30
0.0
 10
51.86112741707782
 20
14.33251535789187
 30
0.0
 10
52.06954635619109
 20
14.36964122198905
 30
0.0
 10
52.36434589673919
 20
14.40157549312427
 30
0.0
 10
52.73269421304285
 20
14.43171915780478
 30
0.0
 10
53.02720513256991
 20
14.43607416981797
 30
0.0
 10
53.17059027777778
 20
14.43819444444444
 30
0.0
  0
SPLINE
  5
FB
330
1F
100
AcDbEntity
  8
0
  6
Continuous
 62
     7
370
    25
100
AcDbSpline
210
0.0
220
0.0
230
1.0
 70
     8
 71
     3
 72
    11
 73
     7
 74
     0
 42
0.000000001
 43
0.00000001
 40
0.0
 40
0.0
 40
0.0
 40
0.0
 40
0.2547107251357455
 40
0.5004427310135589
 40
0.7465465355631303
 40
1.0
 40
1.0
 40
1.0
 40
1.0
 10
-25.1433159722223
 20
8.91501736111093
 30
0.0
 10
-25.01168226865812
 20
8.885578030711264
 30
0.0
 10
-24.75305503547045
 20
8.827737125517467
 30
0.0
 10
-24.36381086090223
 20
8.75803426696486
 30
0.0
 10
-23.97122566573259
 20
8.712646501539078
 30
0.0
 10
-23.70660789178544
 20
8.707942274291153
 30
0.0
 10
-23.57235243055563
 20
8.705555555555375
 30
0.0
  0
SPLINE
  5
FC
330
1F
100
AcDbEntity
  8
0
  6
Continuous
 62
     7
370
    25
100
AcDbSpline
210
0.0
220
0.0
230
1.0
 70
     8
 71
     3
 72
    11
 73
     7
 74
     0
 42
0.000000001
 43
0.00000001
 40
0.0
 40
0.0
 40
0.0
 40
0.0
 40
0.2547107251357446
 40
0.5004427310135587
 40
0.7465465355631298
 40
1.0
 40
1.0
 40
1.0
 40
1.0
 10
-1.995399305555611
 20
8.91501736111109
 30
0.0
 10
-1.863765601991438
 20
8.885578030711425
 30
0.0
 10
-1.605138368803763
 20
8.827737125517626
 30
0.0
 10
-1.215894194235541
 20
8.758034266965018
 30
0.0
 10
-0.8233089990659038
 20
8.712646501539234
 30
0.0
 10
-0.5586912251187525
 20
8.707942274291312
 30
0.0
 10
-0.4244357638889442
 20
8.705555555555534
 30
0.0
  0
SPLINE
  5
FE
330
1F
100
AcDbEntity
  8
0
  6
Continuous
 62
     7
370
    25
100
AcDbSpline
210
0.0
220
0.0
230
1.0
 70
     8
 71
     3
 72
    23
 73
    19
 74
     0
 42
0.000000001
 43
0.00000001
 40
0.0
 40
0.0
 40
0.0
 40
0.0
 40
0.0679697985410107
 40
0.1313739028980457
 40
0.190878215052512
 40
0.2470263892563218
 40
0.3012814898131385
 40
0.3545898475750914
 40
0.4077730387925045
 40
0.4619543864031434
 40
0.5179313767506154
 40
0.5764281021840545
 40
0.6378763721858709
 40
0.7021739477493674
 40
0.7706244632727143
 40
0.8428092451608044
 40
0.9189200938228951
 40
1.0
 40
1.0
 40
1.0
 40
1.0
 10
54.42736111111113
 20
12.65914713541667
 30
0.0
 10
54.42636871432308
 20
12.70191792801848
 30
0.0
 10
54.42445058241646
 20
12.78458649662918
 30
0.0
 10
54.40790407931373
 20
12.90385846952744
 30
0.0
 10
54.3800456521913
 20
13.013119613596
 30
0.0
 10
54.34377793916901
 20
13.11409775341692
 30
0.0
 10
54.29261297640722
 20
13.20380814021316
 30
0.0
 10
54.23425836120733
 20
13.28687329841426
 30
0.0
 10
54.16067796077904
 20
13.35688598547036
 30
0.0
 10
54.07897231245965
 20
13.41941454723299
 30
0.0
 10
53.98731128754793
 20
13.4734776903146
 30
0.0
 10
53.88582790099511
 20
13.51792673013062
 30
0.0
 10
53.7772170832907
 20
13.55870389403183
 30
0.0
 10
53.65891236881227
 20
13.58989259331917
 30
0.0
 10
53.53228715384552
 20
13.61437789168484
 30
0.0
 10
53.39704759136436
 20
13.63258390727394
 30
0.0
 10
53.25293131798777
 20
13.64147069910108
 30
0.0
 10
53.15406317157189
 20
13.64343252383111
 30
0.0
 10
53.10306640625001
 20
13.64444444444445
 30
0.0
  0
SPLINE
  5
FF
330
1F
100
AcDbEntity
  8
0
  6
Continuous
 62
     7
370
    25
100
AcDbSpline
210
0.0
220
0.0
230
1.0
 70
     8
 71
     3
 72
    13
 73
     9
 74
     0
 42
0.000000001
 43
0.00000001
 40
0.0
 40
0.0
 40
0.0
 40
0.0
 40
0.1155564950146502
 40
0.236315903107572
 40
0.3643419415014834
 40
0.4988739532413402
 40
0.7613541544497323
 40
1.0
 40
1.0
 40
1.0
 40
1.0
 10
-0.4051432291667218
 20
11.17499999999998
 30
0.0
 10
-0.4575219773626233
 20
11.17448601920943
 30
0.0
 10
-0.5646378186832631
 20
11.17343491572378
 30
0.0
 10
-0.7295273207560681
 20
11.16398584203605
 30
0.0
 10
-0.9029224774579176
 20
11.15274587690971
 30
0.0
 10
-1.13941184574208
 20
11.12588427464709
 30
0.0
 10
-1.425433556474297
 20
11.09127941554935
 30
0.0
 10
-1.650037830171995
 20
11.05744357302734
 30
0.0
 10
-1.756998697916722
 20
11.04133029513887
 30
0.0
  0
SPLINE
  5
100
330
1F
100
AcDbEntity
  8
0
  6
Continuous
 62
     7
370
    25
100
AcDbSpline
210
0.0
220
0.0
230
1.0
 70
     8
 71
     3
 72
    17
 73
    13
 74
     0
 42
0.000000001
 43
0.00000001
 40
0.0
 40
0.0
 40
0.0
 40
0.0
 40
0.1508826265970642
 40
0.2921735783926724
 40
0.4246213330283847
 40
0.5477823130931133
 40
0.664513852611464
 40
0.775468035701634
 40
0.8305696323161494
 40
0.8858091335123203
 40
0.9424863718008221
 40
1.0
 40
1.0
 40
1.0
 40
1.0
 10
53.22708984375001
 20
10.63343098958333
 30
0.0
 10
53.31283680426795
 20
10.71994090555306
 30
0.0
 10
53.47887975338579
 20
10.88746126416151
 30
0.0
 10
53.71514796843677
 20
11.13593248275976
 30
0.0
 10
53.92294554189213
 20
11.38014422033769
 30
0.0
 10
54.09927348850803
 20
11.62409678216594
 30
0.0
 10
54.24151766000507
 20
11.86962186372491
 30
0.0
 10
54.33117170267472
 20
12.08054367346851
 30
0.0
 10
54.38056621594144
 20
12.25236458339449
 30
0.0
 10
54.40931371772437
 20
12.38427894877178
 30
0.0
 10
54.42371316972824
 20
12.5205598425133
 30
0.0
 10
54.42613920748669
 20
12.61272634688862
 30
0.0
 10
54.42736111111112
 20
12.65914713541667
 30
0.0
  0
SPLINE
  5
101
330
1F
100
AcDbEntity
  8
0
  6
Continuous
 62
     7
370
    25
100
AcDbSpline
210
0.0
220
0.0
230
1.0
 70
     8
 71
     3
 72
    23
 73
    19
 74
     0
 42
0.000000001
 43
0.00000001
 40
0.0
 40
0.0
 40
0.0
 40
0.0
 40
0.0860526633649577
 40
0.1658957081195936
 40
0.2395694665883528
 40
0.3077564263823563
 40
0.3712302172461959
 40
0.4310008368359784
 40
0.4878437755114901
 40
0.5419901982303009
 40
0.5950656660150765
 40
0.6475835518172891
 40
0.7006210364659479
 40
0.7549212234855425
 40
0.8114944969837764
 40
0.8710929810688738
 40
0.9336171485290562
 40
1.0
 40
1.0
 40
1.0
 40
1.0
 10
-49.27777777777777
 20
-12.85306785736848
 30
0.0
 10
-49.27654548380805
 20
-12.76448289407634
 30
0.0
 10
-49.27416981903804
 20
-12.59370531858433
 30
0.0
 10
-49.25330920455925
 20
-12.34778309200879
 30
0.0
 10
-49.21920466000574
 20
-12.12197777531988
 30
0.0
 10
-49.17107378543361
 20
-11.91588888538786
 30
0.0
 10
-49.10830036654149
 20
-11.72883481349152
 30
0.0
 10
-49.0331644368183
 20
-11.55901009612548
 30
0.0
 10
-48.94354223866274
 20
-11.40734377404143
 30
0.0
 10
-48.84114196632216
 20
-11.27254885544874
 30
0.0
 10
-48.72508417146877
 20
-11.15536213913581
 30
0.0
 10
-48.59522329350481
 20
-11.0556516711964
 30
0.0
 10
-48.452744265377
 20
-10.97241585856862
 30
0.0
 10
-48.29656359348017
 20
-10.90744821168595
 30
0.0
 10
-48.12780809172065
 20
-10.85833149326356
 30
0.0
 10
-47.94705529173479
 20
-10.82335461032085
 30
0.0
 10
-47.75403465760373
 20
-10.80091617981397
 30
0.0
 10
-47.62130352990319
 20
-10.7986693466064
 30
0.0
 10
-47.55295138888889
 20
-10.79751230181292
 30
0.0
  0
SPLINE
  5
102
330
1F
100
AcDbEntity
  8
0
  6
Continuous
 62
     7
370
    25
100
AcDbSpline
210
0.0
220
0.0
230
1.0
 70
     8
 71
     3
 72
    23
 73
    19
 74
     0
 42
0.000000001
 43
0.00000001
 40
0.0
 40
0.0
 40
0.0
 40
0.0
 40
0.0861993883930521
 40
0.1658979800311838
 40
0.2400190129422358
 40
0.3083222356524611
 40
0.3719042531926588
 40
0.431662109106288
 40
0.4886019684516314
 40
0.5430646748122159
 40
0.5960311445465427
 40
0.6484157667030764
 40
0.7017871670869124
 40
0.7561799392300168
 40
0.8128496736025437
 40
0.8719973073682985
 40
0.9343482739086084
 40
0.9999999999999999
 40
0.9999999999999999
 40
0.9999999999999999
 40
0.9999999999999999
 10
-57.38888888888888
 20
-12.85306785736848
 30
0.0
 10
-57.39013721488067
 20
-12.94164918316657
 30
0.0
 10
-57.39253972334761
 20
-13.11213140226748
 30
0.0
 10
-57.41316136927542
 20
-13.35814523997582
 30
0.0
 10
-57.44852286365909
 20
-13.58378490381865
 30
0.0
 10
-57.49631419453225
 20
-13.79029788960439
 30
0.0
 10
-57.55951067627124
 20
-13.97704554302065
 30
0.0
 10
-57.63324034113054
 20
-14.14739559863461
 30
0.0
 10
-57.72353332646012
 20
-14.29877169335748
 30
0.0
 10
-57.82487404890533
 20
-14.43446044593623
 30
0.0
 10
-57.94190808133471
 20
-14.55037512665818
 30
0.0
 10
-58.07072097366392
 20
-14.65109323652819
 30
0.0
 10
-58.21382815443568
 20
-14.7334082575488
 30
0.0
 10
-58.37005997053934
 20
-14.79876989190342
 30
0.0
 10
-58.53834213565747
 20
-14.84753571008712
 30
0.0
 10
-58.71812933470193
 20
-14.88291330173718
 30
0.0
 10
-58.90945571939873
 20
-14.90512749783309
 30
0.0
 10
-59.04102562080088
 20
-14.90743824575097
 30
0.0
 10
-59.10850694444443
 20
-14.90862341292403
 30
0.0
  0
SPLINE
  5
103
330
1F
100
AcDbEntity
  8
0
  6
Continuous
 62
     7
370
    25
100
AcDbSpline
210
0.0
220
0.0
230
1.0
 70
     8
 71
     3
 72
    13
 73
     9
 74
     0
 42
0.000000001
 43
0.00000001
 40
0.0
 40
0.0
 40
0.0
 40
0.0
 40
0.1399205702932921
 40
0.2727833923710575
 40
0.4003845454957662
 40
0.5211708746726138
 40
0.7582234144316482
 40
0.9999999999999999
 40
0.9999999999999999
 40
0.9999999999999999
 40
0.9999999999999999
 10
-0.3665581597222774
 20
7.911805555555535
 30
0.0
 10
-0.4474081909022313
 20
7.912830752388397
 30
0.0
 10
-0.605030088328352
 20
7.914829433992755
 30
0.0
 10
-0.8362977602659251
 20
7.923668224118542
 30
0.0
 10
-1.055884802849126
 20
7.942219038168047
 30
0.0
 10
-1.334751828799749
 20
7.972873279171454
 30
0.0
 10
-1.676765111718705
 20
8.031264057059396
 30
0.0
 10
-1.945263832245439
 20
8.09839502925503
 30
0.0
 10
-2.080837673611167
 20
8.132291666666648
 30
0.0
  0
SPLINE
  5
104
330
1F
100
AcDbEntity
  8
0
  6
Continuous
 62
     7
370
    25
100
AcDbSpline
210
0.0
220
0.0
230
1.0
 70
     8
 71
     3
 72
    21
 73
    17
 74
     0
 42
0.000000001
 43
0.00000001
 40
0.0
 40
0.0
 40
0.0
 40
0.0
 40
0.0794883936918974
 40
0.15241995667269
 40
0.2189133048549847
 40
0.2809143564829507
 40
0.339355860138262
 40
0.3951395262719663
 40
0.4486522395429036
 40
0.5022874777899735
 40
0.556474435557607
 40
0.6123315979895013
 40
0.6696818330373803
 40
0.7305812977898563
 40
0.8595810692048683
 40
1.0
 40
1.0
 40
1.0
 40
1.0
 10
-22.13368055555563
 20
9.963704427083155
 30
0.0
 10
-22.13504088262309
 20
10.02071106627686
 30
0.0
 10
-22.13764932623418
 20
10.13002198668165
 30
0.0
 10
-22.1562308140554
 20
10.28626377341342
 30
0.0
 10
-22.18962163886631
 20
10.42707128563377
 30
0.0
 10
-22.23457185358976
 20
10.55378190466912
 30
0.0
 10
-22.29342106987013
 20
10.66598984358727
 30
0.0
 10
-22.3605455727344
 20
10.76618322176533
 30
0.0
 10
-22.4392440677472
 20
10.85310735789867
 30
0.0
 10
-22.52802640824508
 20
10.92782485330514
 30
0.0
 10
-22.62702333408012
 20
10.99139372696872
 30
0.0
 10
-22.73457261192483
 20
11.04523699855323
 30
0.0
 10
-22.85206891235578
 20
11.08829891563022
 30
0.0
 10
-23.02414101277614
 20
11.13172992072158
 30
0.0
 10
-23.25898005146669
 20
11.16831964571356
 30
0.0
 10
-23.45230200053821
 20
11.17271117113037
 30
0.0
 10
-23.55305989583341
 20
11.17499999999982
 30
0.0
  0
SPLINE
  5
105
330
1F
100
AcDbEntity
  8
0
  6
Continuous
 62
     7
370
    25
100
AcDbSpline
210
0.0
220
0.0
230
1.0
 70
     8
 71
     3
 72
    21
 73
    17
 74
     0
 42
0.000000001
 43
0.00000001
 40
0.0
 40
0.0
 40
0.0
 40
0.0
 40
0.13625608141632
 40
0.2630298419448527
 40
0.3231886532517074
 40
0.3800177242500188
 40
0.4353445000417334
 40
0.488795484517093
 40
0.5426031611281769
 40
0.5963461607089413
 40
0.6518646868261533
 40
0.7102467781647911
 40
0.7727650306559224
 40
0.8415408961512553
 40
0.9172622558508017
 40
1.0
 40
1.0
 40
1.0
 40
1.0
 10
-23.57235243055563
 20
8.705555555555375
 30
0.0
 10
-23.47164040265936
 20
8.707735120121983
 30
0.0
 10
-23.27722508919848
 20
8.71194256919511
 30
0.0
 10
-23.03992709105253
 20
8.74396066052724
 30
0.0
 10
-22.86430057409743
 20
8.785072735629821
 30
0.0
 10
-22.74439055998026
 20
8.828636751536111
 30
0.0
 10
-22.63378574878142
 20
8.881664988768714
 30
0.0
 10
-22.53314581831552
 20
8.947793712531803
 30
0.0
 10
-22.44148331236226
 20
9.024277099257631
 30
0.0
 10
-22.3625315858721
 20
9.115860566567289
 30
0.0
 10
-22.29277868099183
 20
9.218558971482416
 30
0.0
 10
-22.23449207664804
 20
9.335636200268137
 30
0.0
 10
-22.18900076272265
 20
9.468573467494414
 30
0.0
 10
-22.15628126308937
 20
9.618300620103408
 30
0.0
 10
-22.13761085532257
 20
9.785466962378708
 30
0.0
 10
-22.13502876611164
 20
9.902563637413115
 30
0.0
 10
-22.13368055555563
 20
9.963704427083155
 30
0.0
  0
SPLINE
  5
106
330
1F
100
AcDbEntity
  8
0
  6
Continuous
 62
     7
370
    25
100
AcDbSpline
210
0.0
220
0.0
230
1.0
 70
     8
 71
     3
 72
    13
 73
     9
 74
     0
 42
0.000000001
 43
0.00000001
 40
0.0
 40
0.0
 40
0.0
 40
0.0
 40
0.1399205702932921
 40
0.272783392371056
 40
0.4003845454957655
 40
0.5211708746726124
 40
0.7582234144316479
 40
0.9999999999999999
 40
0.9999999999999999
 40
0.9999999999999999
 40
0.9999999999999999
 10
-23.51447482638897
 20
7.911805555555375
 30
0.0
 10
-23.59532485756892
 20
7.912830752388236
 30
0.0
 10
-23.75294675499504
 20
7.914829433992592
 30
0.0
 10
-23.98421442693262
 20
7.923668224118389
 30
0.0
 10
-24.20380146951582
 20
7.942219038167886
 30
0.0
 10
-24.48266849546643
 20
7.972873279171294
 30
0.0
 10
-24.8246817783854
 20
8.03126405705924
 30
0.0
 10
-25.09318049891213
 20
8.09839502925487
 30
0.0
 10
-25.22875434027785
 20
8.132291666666486
 30
0.0
  0
SPLINE
  5
107
330
1F
100
AcDbEntity
  8
0
  6
Continuous
 62
     7
370
    25
100
AcDbSpline
210
0.0
220
0.0
230
1.0
 70
     8
 71
     3
 72
    23
 73
    19
 74
     0
 42
0.000000001
 43
0.00000001
 40
0.0
 40
0.0
 40
0.0
 40
0.0
 40
0.0726668403487426
 40
0.1423163421122931
 40
0.2083669390221198
 40
0.2718553613705006
 40
0.3323888379900196
 40
0.3899097803690557
 40
0.4449028711309412
 40
0.4985005329592596
 40
0.551639901698077
 40
0.6057170220657274
 40
0.6611918722941332
 40
0.7193902677391874
 40
0.7814996800039207
 40
0.848132707884873
 40
0.9209145751512281
 40
0.9999999999999999
 40
0.9999999999999999
 40
0.9999999999999999
 40
0.9999999999999999
 10
-23.40974392361118
 20
11.96874999999982
 30
0.0
 10
-23.32611085877536
 20
11.96782818779953
 30
0.0
 10
-23.16231741722826
 20
11.96602283972288
 30
0.0
 10
-22.92304609945811
 20
11.94795462219359
 30
0.0
 10
-22.69570143894454
 20
11.91775980496185
 30
0.0
 10
-22.4809453603769
 20
11.87560003480408
 30
0.0
 10
-22.27908558196473
 20
11.82048910589762
 30
0.0
 10
-22.09370001640998
 20
11.7468449617797
 30
0.0
 10
-21.92335638764211
 20
11.65910762187065
 30
0.0
 10
-21.77082387605947
 20
11.55153998755407
 30
0.0
 10
-21.63255688755931
 20
11.42792992507115
 30
0.0
 10
-21.51025385085145
 20
11.28528560059046
 30
0.0
 10
-21.40700250484992
 20
11.12157686137717
 30
0.0
 10
-21.31769963089637
 20
10.93963908030474
 30
0.0
 10
-21.2473466613674
 20
10.73569091315851
 30
0.0
 10
-21.19884567648495
 20
10.50852748983041
 30
0.0
 10
-21.16807165206915
 20
10.25853080637646
 30
0.0
 10
-21.16509287517738
 20
10.08369144146766
 30
0.0
 10
-21.16354166666675
 20
9.992643229166486
 30
0.0
  0
SPLINE
  5
108
330
1F
100
AcDbEntity
  8
0
  6
Continuous
 62
     7
370
    25
100
AcDbSpline
210
0.0
220
0.0
230
1.0
 70
     8
 71
     3
 72
    15
 73
    11
 74
     0
 42
0.000000001
 43
0.00000001
 40
0.0
 40
0.0
 40
0.0
 40
0.0
 40
0.1172515735805893
 40
0.2473726496854577
 40
0.3850260002101107
 40
0.5247605554807214
 40
0.6614361279789486
 40
0.7914925766990999
 40
0.9064372008280106
 40
1.0
 40
1.0
 40
1.0
 40
1.0
 10
53.10306640625001
 20
13.64444444444445
 30
0.0
 10
53.04286109598284
 20
13.64377348572367
 30
0.0
 10
52.91584235609628
 20
13.64235792402572
 30
0.0
 10
52.71878637569178
 20
13.62545883542941
 30
0.0
 10
52.5107809547662
 20
13.60346422821164
 30
0.0
 10
52.29970118687908
 20
13.57824718804926
 30
0.0
 10
52.09335903125638
 20
13.5469313955105
 30
0.0
 10
51.90074315059427
 20
13.51100886091354
 30
0.0
 10
51.73004143045313
 20
13.4782128962108
 30
0.0
 10
51.62575309803513
 20
13.4540799567097
 30
0.0
 10
51.57895616319446
 20
13.44325086805556
 30
0.0
  0
SPLINE
  5
109
330
1F
100
AcDbEntity
  8
0
  6
Continuous
 62
     7
370
    25
100
AcDbSpline
210
0.0
220
0.0
230
1.0
 70
     8
 71
     3
 72
    19
 73
    15
 74
     0
 42
0.000000001
 43
0.00000001
 40
0.0
 40
0.0
 40
0.0
 40
0.0
 40
0.064006681578123
 40
0.1261849912713134
 40
0.1859756338911308
 40
0.2449465825098469
 40
0.3031588048521536
 40
0.3613993044308574
 40
0.4200921402764335
 40
0.4792425520955675
 40
0.6007336254708827
 40
0.7279616182113469
 40
0.8610983615337416
 40
1.0
 40
1.0
 40
1.0
 40
1.0
 10
55.48569444444446
 20
12.70186631944444
 30
0.0
 10
55.48467165812588
 20
12.63701377383131
 30
0.0
 10
55.48265530171588
 20
12.509161216874
 30
0.0
 10
55.45779156487477
 20
12.32218425532835
 30
0.0
 10
55.42164366619781
 20
12.14235941301627
 30
0.0
 10
55.36683184261243
 20
11.97140323734219
 30
0.0
 10
55.29967414187066
 20
11.80688489508061
 30
0.0
 10
55.22417401358694
 20
11.64628759844899
 30
0.0
 10
55.13685825795397
 20
11.49068625886862
 30
0.0
 10
55.00661420115294
 20
11.28621790156416
 30
0.0
 10
54.81794128589816
 20
11.03730940387237
 30
0.0
 10
54.55747355653266
 20
10.751212894615
 30
0.0
 10
54.27324125966549
 20
10.4637251497325
 30
0.0
 10
54.07878647983891
 20
10.26864116786075
 30
0.0
 10
53.97949869791668
 20
10.16903211805556
 30
0.0
  0
SPLINE
  5
10A
330
1F
100
AcDbEntity
  8
0
  6
Continuous
 62
     7
370
    25
100
AcDbSpline
210
0.0
220
0.0
230
1.0
 70
     8
 71
     3
 72
    19
 73
    15
 74
     0
 42
0.000000001
 43
0.00000001
 40
0.0
 40
0.0
 40
0.0
 40
0.0
 40
0.0640066815781229
 40
0.1261849912713132
 40
0.1859756338911306
 40
0.2449465825098467
 40
0.3031588048521538
 40
0.3613993044308567
 40
0.4200921402764339
 40
0.4792425520955678
 40
0.600733625470883
 40
0.7279616182113462
 40
0.8610983615337418
 40
1.0
 40
1.0
 40
1.0
 40
1.0
 10
29.48027777777772
 20
12.70186631944462
 30
0.0
 10
29.47925499145914
 20
12.63701377383149
 30
0.0
 10
29.47723863504917
 20
12.50916121687418
 30
0.0
 10
29.45237489820802
 20
12.32218425532853
 30
0.0
 10
29.41622699953108
 20
12.14235941301644
 30
0.0
 10
29.3614151759457
 20
11.97140323734237
 30
0.0
 10
29.29425747520392
 20
11.80688489508078
 30
0.0
 10
29.21875734692021
 20
11.64628759844915
 30
0.0
 10
29.13144159128724
 20
11.4906862588688
 30
0.0
 10
29.00119753448621
 20
11.28621790156433
 30
0.0
 10
28.81252461923142
 20
11.03730940387255
 30
0.0
 10
28.55205688986593
 20
10.75121289461517
 30
0.0
 10
28.26782459299875
 20
10.46372514973268
 30
0.0
 10
28.07336981317217
 20
10.26864116786092
 30
0.0
 10
27.97408203124995
 20
10.16903211805573
 30
0.0
  0
SPLINE
  5
10B
330
1F
100
AcDbEntity
  8
0
  6
Continuous
 62
     7
370
    25
100
AcDbSpline
210
0.0
220
0.0
230
1.0
 70
     8
 71
     3
 72
    23
 73
    19
 74
     0
 42
0.000000001
 43
0.00000001
 40
0.0
 40
0.0
 40
0.0
 40
0.0
 40
0.0725434809486945
 40
0.1427327986722083
 40
0.2107980433755803
 40
0.2769037873094797
 40
0.3409599730308793
 40
0.4022112051645846
 40
0.4615044899150862
 40
0.5191704797962743
 40
0.5755138984822149
 40
0.6309660023777567
 40
0.686683686031237
 40
0.7433412579862567
 40
0.801697955708014
 40
0.8632554244462886
 40
0.9290734263910171
 40
1.0
 40
1.0
 40
1.0
 40
1.0
 10
27.16517361111106
 20
14.43819444444462
 30
0.0
 10
27.24466577228676
 20
14.43713521736835
 30
0.0
 10
27.40107043454905
 20
14.43505113699271
 30
0.0
 10
27.6316262597241
 20
14.41862626359402
 30
0.0
 10
27.85374836445709
 20
14.38942687621091
 30
0.0
 10
28.06743941020247
 20
14.34996744597204
 30
0.0
 10
28.27103574714631
 20
14.29866276493411
 30
0.0
 10
28.46229583513404
 20
14.23208838451686
 30
0.0
 10
28.64098689926276
 20
14.15264678110036
 30
0.0
 10
28.80572793526982
 20
14.0574340300458
 30
0.0
 10
28.95551078590967
 20
13.94698533542985
 30
0.0
 10
29.08922840516634
 20
13.820547560472
 30
0.0
 10
29.20585845554204
 20
13.67766768315359
 30
0.0
 10
29.30416673510492
 20
13.51792427419467
 30
0.0
 10
29.38411527150461
 20
13.34101870939044
 30
0.0
 10
29.43967712370858
 20
13.14465813683569
 30
0.0
 10
29.47500198218697
 20
12.92959721955243
 30
0.0
 10
29.47847591889736
 20
12.77964396219692
 30
0.0
 10
29.48027777777772
 20
12.70186631944462
 30
0.0
  0
SPLINE
  5
10C
330
1F
100
AcDbEntity
  8
0
  6
Continuous
 62
     7
370
    25
100
AcDbSpline
210
0.0
220
0.0
230
1.0
 70
     8
 71
     3
 72
    13
 73
     9
 74
     0
 42
0.000000001
 43
0.00000001
 40
0.0
 40
0.0
 40
0.0
 40
0.0
 40
0.1092740134243935
 40
0.2259896927316178
 40
0.3498638766146628
 40
0.481732398407935
 40
0.7476770116702719
 40
1.0
 40
1.0
 40
1.0
 40
1.0
 10
25.47845486111106
 20
14.23700086805573
 30
0.0
 10
25.53795990519281
 20
14.25480920372998
 30
0.0
 10
25.66102234434558
 20
14.29163863994237
 30
0.0
 10
25.8557107504111
 20
14.33251535789205
 30
0.0
 10
26.06412968952435
 20
14.36964122198922
 30
0.0
 10
26.35892923007249
 20
14.40157549312445
 30
0.0
 10
26.72727754637613
 20
14.43171915780495
 30
0.0
 10
27.0217884659032
 20
14.43607416981814
 30
0.0
 10
27.16517361111106
 20
14.43819444444462
 30
0.0
  0
SPLINE
  5
10D
330
1F
100
AcDbEntity
  8
0
  6
Continuous
 62
     7
370
    25
100
AcDbSpline
210
0.0
220
0.0
230
1.0
 70
     8
 71
     3
 72
    23
 73
    19
 74
     0
 42
0.000000001
 43
0.00000001
 40
0.0
 40
0.0
 40
0.0
 40
0.0
 40
0.0663813810060243
 40
0.1289041634760649
 40
0.1885013273786427
 40
0.2450733477066342
 40
0.2993723319077546
 40
0.3524086417084106
 40
0.4049253641723947
 40
0.4578005052982536
 40
0.5121693031312305
 40
0.569010982663072
 40
0.6287802782573139
 40
0.6922526630956407
 40
0.7604381124614219
 40
0.8343880732349657
 40
0.9139492428114103
 40
1.0
 40
1.0
 40
1.0
 40
1.0
 10
-59.10850694444443
 20
-14.90862341292403
 30
0.0
 10
-59.17685905509422
 20
-14.90746633937329
 30
0.0
 10
-59.30959012383073
 20
-14.90521945032279
 30
0.0
 10
-59.50261117405191
 20
-14.88278141388147
 30
0.0
 10
-59.683362508336
 20
-14.84780314281985
 30
0.0
 10
-59.85212310034532
 20
-14.79869124520896
 30
0.0
 10
-60.00828584473649
 20
-14.73370661976362
 30
0.0
 10
-60.15082952550069
 20
-14.65053203756344
 30
0.0
 10
-60.28028892047869
 20
-14.5507209268537
 30
0.0
 10
-60.39729479472863
 20
-14.43440275274887
 30
0.0
 10
-60.49876372898355
 20
-14.29881446289406
 30
0.0
 10
-60.58878186100475
 20
-14.14717624822168
 30
0.0
 10
-60.66384010280839
 20
-13.97728644867375
 30
0.0
 10
-60.72662486021083
 20
-13.79024980117291
 30
0.0
 10
-60.77486502258269
 20
-13.58388367952054
 30
0.0
 10
-60.80872130001861
 20
-13.35804512021993
 30
0.0
 10
-60.82977935439784
 20
-13.11214711666328
 30
0.0
 10
-60.83211812504885
 20
-12.94165455637342
 30
0.0
 10
-60.83333333333333
 20
-12.85306785736848
 30
0.0
  0
SPLINE
  5
10E
330
1F
100
AcDbEntity
  8
0
  6
Continuous
 62
     7
370
    25
100
AcDbSpline
210
0.0
220
0.0
230
1.0
 70
     8
 71
     3
 72
    23
 73
    19
 74
     0
 42
0.000000001
 43
0.00000001
 40
0.0
 40
0.0
 40
0.0
 40
0.0
 40
0.0679697985410104
 40
0.1313739028980457
 40
0.1908782150525114
 40
0.2470263892563211
 40
0.3012814898131368
 40
0.3545898475750896
 40
0.4077730387925026
 40
0.4619543864031428
 40
0.5179313767506147
 40
0.5764281021840554
 40
0.63787637218587
 40
0.702173947749368
 40
0.770624463272713
 40
0.8428092451608046
 40
0.9189200938228933
 40
1.0
 40
1.0
 40
1.0
 40
1.0
 10
28.42194444444439
 20
12.65914713541684
 30
0.0
 10
28.42095204765635
 20
12.70191792801865
 30
0.0
 10
28.41903391574973
 20
12.78458649662935
 30
0.0
 10
28.402487412647
 20
12.90385846952761
 30
0.0
 10
28.37462898552456
 20
13.01311961359617
 30
0.0
 10
28.33836127250227
 20
13.11409775341709
 30
0.0
 10
28.2871963097405
 20
13.20380814021333
 30
0.0
 10
28.22884169454062
 20
13.28687329841443
 30
0.0
 10
28.15526129411229
 20
13.35688598547053
 30
0.0
 10
28.07355564579294
 20
13.41941454723317
 30
0.0
 10
27.98189462088121
 20
13.47347769031478
 30
0.0
 10
27.88041123432838
 20
13.5179267301308
 30
0.0
 10
27.77180041662396
 20
13.55870389403201
 30
0.0
 10
27.65349570214554
 20
13.58989259331934
 30
0.0
 10
27.5268704871788
 20
13.61437789168502
 30
0.0
 10
27.39163092469762
 20
13.63258390727411
 30
0.0
 10
27.24751465132104
 20
13.64147069910125
 30
0.0
 10
27.14864650490516
 20
13.64343252383129
 30
0.0
 10
27.09764973958328
 20
13.64444444444462
 30
0.0
  0
SPLINE
  5
10F
330
1F
100
AcDbEntity
  8
0
  6
Continuous
 62
     7
370
    25
100
AcDbSpline
210
0.0
220
0.0
230
1.0
 70
     8
 71
     3
 72
    23
 73
    19
 74
     0
 42
0.000000001
 43
0.00000001
 40
0.0
 40
0.0
 40
0.0
 40
0.0
 40
0.0860526633649576
 40
0.1658957081195936
 40
0.2395694665883527
 40
0.3077564263823563
 40
0.3712302172461958
 40
0.4310008368359783
 40
0.4878437755114899
 40
0.5419901982303008
 40
0.5950656660150764
 40
0.6475835518172871
 40
0.7006210364659479
 40
0.7549212234855425
 40
0.8114944969837764
 40
0.8710929810688738
 40
0.9336171485290562
 40
1.0
 40
1.0
 40
1.0
 40
1.0
 10
-60.83333333333332
 20
-12.85306785736848
 30
0.0
 10
-60.83210103936359
 20
-12.76448289407634
 30
0.0
 10
-60.82972537459361
 20
-12.59370531858433
 30
0.0
 10
-60.80886476011481
 20
-12.3477830920088
 30
0.0
 10
-60.77476021556127
 20
-12.12197777531987
 30
0.0
 10
-60.72662934098916
 20
-11.91588888538787
 30
0.0
 10
-60.66385592209704
 20
-11.72883481349151
 30
0.0
 10
-60.58871999237385
 20
-11.55901009612548
 30
0.0
 10
-60.49909779421828
 20
-11.40734377404142
 30
0.0
 10
-60.39669752187771
 20
-11.27254885544874
 30
0.0
 10
-60.2806397270243
 20
-11.15536213913581
 30
0.0
 10
-60.15077884906039
 20
-11.0556516711964
 30
0.0
 10
-60.00829982093252
 20
-10.97241585856862
 30
0.0
 10
-59.85211914903573
 20
-10.90744821168595
 30
0.0
 10
-59.6833636472762
 20
-10.85833149326356
 30
0.0
 10
-59.50261084729035
 20
-10.82335461032085
 30
0.0
 10
-59.30959021315925
 20
-10.80091617981397
 30
0.0
 10
-59.17685908545874
 20
-10.7986693466064
 30
0.0
 10
-59.10850694444443
 20
-10.79751230181292
 30
0.0
  0
SPLINE
  5
110
330
1F
100
AcDbEntity
  8
0
  6
Continuous
 62
     7
370
    25
100
AcDbSpline
210
0.0
220
0.0
230
1.0
 70
     8
 71
     3
 72
    23
 73
    19
 74
     0
 42
0.000000001
 43
0.00000001
 40
0.0
 40
0.0
 40
0.0
 40
0.0
 40
0.0726668403487435
 40
0.1423163421122937
 40
0.2083669390221206
 40
0.2718553613705005
 40
0.3323888379900201
 40
0.389909780369056
 40
0.4449028711309415
 40
0.49850053295926
 40
0.5516399016980771
 40
0.6057170220657275
 40
0.6611918722941335
 40
0.7193902677391874
 40
0.7814996800039207
 40
0.8481327078848733
 40
0.9209145751512282
 40
1.0
 40
1.0
 40
1.0
 40
1.0
 10
-0.2618272569444996
 20
11.96874999999998
 30
0.0
 10
-0.1781941921086777
 20
11.96782818779969
 30
0.0
 10
-0.0144007505615763
 20
11.96602283972303
 30
0.0
 10
0.2248705672085679
 20
11.94795462219376
 30
0.0
 10
0.4522152277221498
 20
11.91775980496201
 30
0.0
 10
0.6669713062897855
 20
11.87560003480424
 30
0.0
 10
0.8688310847019581
 20
11.82048910589777
 30
0.0
 10
1.054216650256699
 20
11.74684496177986
 30
0.0
 10
1.224560279024582
 20
11.65910762187081
 30
0.0
 10
1.377092790607219
 20
11.55153998755423
 30
0.0
 10
1.51535977910738
 20
11.42792992507131
 30
0.0
 10
1.637662815815231
 20
11.28528560059062
 30
0.0
 10
1.740914161816771
 20
11.12157686137733
 30
0.0
 10
1.830217035770315
 20
10.9396390803049
 30
0.0
 10
1.90057000529929
 20
10.73569091315866
 30
0.0
 10
1.949070990181744
 20
10.50852748983058
 30
0.0
 10
1.979845014597535
 20
10.25853080637662
 30
0.0
 10
1.982823791489311
 20
10.08369144146782
 30
0.0
 10
1.984374999999944
 20
9.992643229166646
 30
0.0
  0
SPLINE
  5
111
330
1F
100
AcDbEntity
  8
0
  6
Continuous
 62
     7
370
    25
100
AcDbSpline
210
0.0
220
0.0
230
1.0
 70
     8
 71
     3
 72
    13
 73
     9
 74
     0
 42
0.000000001
 43
0.00000001
 40
0.0
 40
0.0
 40
0.0
 40
0.0
 40
0.0945559513854651
 40
0.2024248930605987
 40
0.3252945227279594
 40
0.4598434807462236
 40
0.7385798618678542
 40
0.9999999999999999
 40
0.9999999999999999
 40
0.9999999999999999
 40
0.9999999999999999
 10
-1.081759982638944
 20
11.91087239583331
 30
0.0
 10
-1.056046256281674
 20
11.91416828495035
 30
0.0
 10
-1.000998443512694
 20
11.9212241073738
 30
0.0
 10
-0.9123239443044141
 20
11.93078486379216
 30
0.0
 10
-0.8126192616889053
 20
11.9402240907883
 30
0.0
 10
-0.6661988088384762
 20
11.95306301520668
 30
0.0
 10
-0.4816345041359581
 20
11.96686621079503
 30
0.0
 10
-0.3335135272391353
 20
11.96813563526065
 30
0.0
 10
-0.2618272569444996
 20
11.96874999999998
 30
0.0
  0
SPLINE
  5
112
330
1F
100
AcDbEntity
  8
0
  6
Continuous
 62
     7
370
    25
100
AcDbSpline
210
0.0
220
0.0
230
1.0
 70
     8
 71
     3
 72
    15
 73
    11
 74
     0
 42
0.000000001
 43
0.00000001
 40
0.0
 40
0.0
 40
0.0
 40
0.0
 40
0.1172515735805873
 40
0.2473726496854537
 40
0.3850260002101094
 40
0.5247605554807226
 40
0.6614361279789456
 40
0.7914925766990994
 40
0.9064372008280082
 40
1.0
 40
1.0
 40
1.0
 40
1.0
 10
27.09764973958328
 20
13.64444444444462
 30
0.0
 10
27.03744442931612
 20
13.64377348572385
 30
0.0
 10
26.91042568942955
 20
13.64235792402589
 30
0.0
 10
26.71336970902507
 20
13.62545883542959
 30
0.0
 10
26.50536428809947
 20
13.60346422821182
 30
0.0
 10
26.29428452021235
 20
13.57824718804943
 30
0.0
 10
26.08794236458968
 20
13.54693139551068
 30
0.0
 10
25.89532648392751
 20
13.51100886091371
 30
0.0
 10
25.72462476378642
 20
13.47821289621098
 30
0.0
 10
25.6203364313684
 20
13.45407995670987
 30
0.0
 10
25.57353949652773
 20
13.44325086805573
 30
0.0
  0
SPLINE
  5
113
330
1F
100
AcDbEntity
  8
0
  6
Continuous
 62
     7
370
    25
100
AcDbSpline
210
0.0
220
0.0
230
1.0
 70
     8
 71
     3
 72
    23
 73
    19
 74
     0
 42
0.000000001
 43
0.00000001
 40
0.0
 40
0.0
 40
0.0
 40
0.0
 40
0.0656531721800521
 40
0.1280055121042936
 40
0.187154448695238
 40
0.2438254313130916
 40
0.2982194015476353
 40
0.3515919775254959
 40
0.4039777535406194
 40
0.4571448892970355
 40
0.5113848296606149
 40
0.5683259432012376
 40
0.6280851153812159
 40
0.6916685334212948
 40
0.7599732606238118
 40
0.8338177692419464
 40
0.9137987129217872
 40
1.0
 40
1.0
 40
1.0
 40
1.0
 10
-59.10850694444443
 20
-10.79751230181292
 30
0.0
 10
-59.0410255909654
 20
-10.79869744071559
 30
0.0
 10
-58.90945563139234
 20
-10.80100813351402
 30
0.0
 10
-58.71812965912036
 20
-10.82322272040015
 30
0.0
 10
-58.53834100697064
 20
-10.85859893517071
 30
0.0
 10
-58.37006392753973
 20
-10.90736957226093
 30
0.0
 10
-58.21381413557984
 20
-10.97271417372161
 30
0.0
 10
-58.07077187517433
 20
-11.05509070957073
 30
0.0
 10
-57.94155881082227
 20
-11.15570963905047
 30
0.0
 10
-57.82547149048239
 20
-11.27249138870974
 30
0.0
 10
-57.72319890480753
 20
-11.40738635035175
 30
0.0
 10
-57.63330203188647
 20
-11.55879062452426
 30
0.0
 10
-57.55949495113288
 20
-11.72907575482735
 30
0.0
 10
-57.49630939203258
 20
-11.91584070297714
 30
0.0
 10
-57.44862835274892
 20
-12.12207696442449
 30
0.0
 10
-57.41301542578034
 20
-12.34768220739409
 30
0.0
 10
-57.39259427997618
 20
-12.59372118124526
 30
0.0
 10
-57.3901544607598
 20
-12.76448831194911
 30
0.0
 10
-57.38888888888888
 20
-12.85306785736848
 30
0.0
  0
SPLINE
  5
114
330
1F
100
AcDbEntity
  8
0
  6
Continuous
 62
     7
370
    25
100
AcDbSpline
210
0.0
220
0.0
230
1.0
 70
     8
 71
     3
 72
    23
 73
    19
 74
     0
 42
0.000000001
 43
0.00000001
 40
0.0
 40
0.0
 40
0.0
 40
0.0
 40
0.0768013649087237
 40
0.1483559276972021
 40
0.2144901089849367
 40
0.2767962791780557
 40
0.3353652797704524
 40
0.3917054584404934
 40
0.4462111570542328
 40
0.500248168462118
 40
0.5547057077018823
 40
0.6104057841337364
 40
0.6681173376155782
 40
0.7290060092507633
 40
0.7925778729242212
 40
0.8585045427503658
 40
0.9278156763649982
 40
1.0
 40
1.0
 40
1.0
 40
1.0
 10
1.984374999999944
 20
9.992643229166646
 30
0.0
 10
1.982312043961954
 20
9.900215272477917
 30
0.0
 10
1.97832706586712
 20
9.721673715618742
 30
0.0
 10
1.946479507480108
 20
9.465150499880329
 30
0.0
 10
1.895169617527507
 20
9.229590972363694
 30
0.0
 10
1.82029717720764
 20
9.016859585203418
 30
0.0
 10
1.72769007118921
 20
8.824250962367401
 30
0.0
 10
1.616586020624039
 20
8.65282286582123
 30
0.0
 10
1.490729993251926
 20
8.49878324922107
 30
0.0
 10
1.345651811687224
 20
8.365919893000102
 30
0.0
 10
1.18463165160509
 20
8.250699870344675
 30
0.0
 10
1.006817738173588
 20
8.15388538239794
 30
0.0
 10
0.8119815922426417
 20
8.075209503904103
 30
0.0
 10
0.6011297111208128
 20
8.014274702704848
 30
0.0
 10
0.3765856028772145
 20
7.968119127135703
 30
0.0
 10
0.1395446519921784
 20
7.935027355173093
 30
0.0
 10
-0.1094686716248166
 20
7.915976118470733
 30
0.0
 10
-0.2797093678751756
 20
7.913214435993189
 30
0.0
 10
-0.3665581597222774
 20
7.911805555555535
 30
0.0
  0
SPLINE
  5
115
330
1F
100
AcDbEntity
  8
0
  6
Continuous
 62
     7
370
    25
100
AcDbSpline
210
0.0
220
0.0
230
1.0
 70
     8
 71
     3
 72
    23
 73
    19
 74
     0
 42
0.000000001
 43
0.00000001
 40
0.0
 40
0.0
 40
0.0
 40
0.0
 40
0.0663813810060243
 40
0.1289041634760649
 40
0.1885013273786427
 40
0.2450733477066342
 40
0.2993723319077546
 40
0.3524086417084086
 40
0.4049253641723944
 40
0.4578005052982533
 40
0.5121693031312304
 40
0.5690109826630718
 40
0.6287802782573136
 40
0.6922526630956406
 40
0.7604381124614218
 40
0.8343880732349654
 40
0.9139492428114102
 40
0.9999999999999999
 40
0.9999999999999999
 40
0.9999999999999999
 40
0.9999999999999999
 10
-47.55295138888889
 20
-14.90862341292403
 30
0.0
 10
-47.62130349953868
 20
-14.90746633937329
 30
0.0
 10
-47.75403456827519
 20
-14.90521945032279
 30
0.0
 10
-47.94705561849636
 20
-14.88278141388147
 30
0.0
 10
-48.12780695278044
 20
-14.84780314281985
 30
0.0
 10
-48.29656754478977
 20
-14.79869124520896
 30
0.0
 10
-48.45273028918092
 20
-14.73370661976362
 30
0.0
 10
-48.59527396994515
 20
-14.65053203756344
 30
0.0
 10
-48.72473336492314
 20
-14.5507209268537
 30
0.0
 10
-48.84173923917308
 20
-14.43440275274886
 30
0.0
 10
-48.94320817342803
 20
-14.29881446289407
 30
0.0
 10
-49.03322630544918
 20
-14.14717624822167
 30
0.0
 10
-49.10828454725284
 20
-13.97728644867375
 30
0.0
 10
-49.17106930465528
 20
-13.79024980117291
 30
0.0
 10
-49.21930946702716
 20
-13.58388367952053
 30
0.0
 10
-49.25316574446306
 20
-13.35804512021993
 30
0.0
 10
-49.27422379884228
 20
-13.11214711666328
 30
0.0
 10
-49.27656256949331
 20
-12.94165455637343
 30
0.0
 10
-49.27777777777778
 20
-12.85306785736848
 30
0.0
  0
SPLINE
  5
116
330
1F
100
AcDbEntity
  8
0
  6
Continuous
 62
     7
370
    25
100
AcDbSpline
210
0.0
220
0.0
230
1.0
 70
     8
 71
     3
 72
    17
 73
    13
 74
     0
 42
0.000000001
 43
0.00000001
 40
0.0
 40
0.0
 40
0.0
 40
0.0
 40
0.1508826265970634
 40
0.2921735783926709
 40
0.4246213330283833
 40
0.5477823130931129
 40
0.664513852611463
 40
0.7754680357016338
 40
0.8305696323161491
 40
0.8858091335123197
 40
0.942486371800822
 40
1.0
 40
1.0
 40
1.0
 40
1.0
 10
27.22167317708328
 20
10.63343098958351
 30
0.0
 10
27.30742013760122
 20
10.71994090555324
 30
0.0
 10
27.47346308671906
 20
10.88746126416169
 30
0.0
 10
27.70973130177005
 20
11.13593248275994
 30
0.0
 10
27.91752887522541
 20
11.38014422033787
 30
0.0
 10
28.0938568218413
 20
11.62409678216611
 30
0.0
 10
28.23610099333835
 20
11.86962186372508
 30
0.0
 10
28.32575503600799
 20
12.08054367346868
 30
0.0
 10
28.37514954927473
 20
12.25236458339466
 30
0.0
 10
28.40389705105763
 20
12.38427894877195
 30
0.0
 10
28.41829650306149
 20
12.52055984251347
 30
0.0
 10
28.42072254081996
 20
12.61272634688879
 30
0.0
 10
28.42194444444439
 20
12.65914713541684
 30
0.0
  0
SPLINE
  5
117
330
1F
100
AcDbEntity
  8
0
  6
Continuous
 62
     7
370
    25
100
AcDbSpline
210
0.0
220
0.0
230
1.0
 70
     8
 71
     3
 72
    23
 73
    19
 74
     0
 42
0.000000001
 43
0.00000001
 40
0.0
 40
0.0
 40
0.0
 40
0.0
 40
0.0725434809486955
 40
0.1427327986722081
 40
0.2107980433755801
 40
0.2769037873094804
 40
0.340959973030881
 40
0.4022112051645852
 40
0.4615044899150858
 40
0.5191704797962738
 40
0.5755138984822143
 40
0.6309660023777561
 40
0.6866836860312376
 40
0.7433412579862568
 40
0.801697955708014
 40
0.8632554244462884
 40
0.929073426391017
 40
0.9999999999999999
 40
0.9999999999999999
 40
0.9999999999999999
 40
0.9999999999999999
 10
53.17059027777778
 20
14.43819444444444
 30
0.0
 10
53.25008243895349
 20
14.43713521736817
 30
0.0
 10
53.40648710121577
 20
14.43505113699254
 30
0.0
 10
53.63704292639085
 20
14.41862626359385
 30
0.0
 10
53.8591650311238
 20
14.38942687621073
 30
0.0
 10
54.07285607686923
 20
14.34996744597187
 30
0.0
 10
54.27645241381303
 20
14.29866276493394
 30
0.0
 10
54.46771250180075
 20
14.23208838451668
 30
0.0
 10
54.64640356592951
 20
14.15264678110019
 30
0.0
 10
54.81114460193653
 20
14.05743403004563
 30
0.0
 10
54.96092745257639
 20
13.94698533542968
 30
0.0
 10
55.09464507183309
 20
13.82054756047184
 30
0.0
 10
55.21127512220875
 20
13.67766768315341
 30
0.0
 10
55.30958340177168
 20
13.5179242741945
 30
0.0
 10
55.38953193817132
 20
13.34101870939026
 30
0.0
 10
55.44509379037532
 20
13.14465813683551
 30
0.0
 10
55.48041864885369
 20
12.92959721955225
 30
0.0
 10
55.4838925855641
 20
12.77964396219675
 30
0.0
 10
55.48569444444446
 20
12.70186631944444
 30
0.0
  0
SPLINE
  5
118
330
1F
100
AcDbEntity
  8
0
  6
Continuous
 62
     7
370
    25
100
AcDbSpline
210
0.0
220
0.0
230
1.0
 70
     8
 71
     3
 72
    21
 73
    17
 74
     0
 42
0.000000001
 43
0.00000001
 40
0.0
 40
0.0
 40
0.0
 40
0.0
 40
0.1362560814163207
 40
0.2630298419448532
 40
0.3231886532517078
 40
0.3800177242500188
 40
0.435344500041733
 40
0.4887954845170934
 40
0.5426031611281769
 40
0.5963461607089408
 40
0.6518646868261531
 40
0.710246778164791
 40
0.7727650306559223
 40
0.841540896151255
 40
0.9172622558508016
 40
1.0
 40
1.0
 40
1.0
 40
1.0
 10
-0.4244357638889442
 20
8.705555555555534
 30
0.0
 10
-0.3237237359926662
 20
8.707735120122141
 30
0.0
 10
-0.1293084225317973
 20
8.711942569195271
 30
0.0
 10
0.1079895756141665
 20
8.743960660527401
 30
0.0
 10
0.2836160925692494
 20
8.785072735629981
 30
0.0
 10
0.4035261066864358
 20
8.82863675153627
 30
0.0
 10
0.5141309178852688
 20
8.88166498876887
 30
0.0
 10
0.6147708483511662
 20
8.947793712531961
 30
0.0
 10
0.7064333543044249
 20
9.024277099257793
 30
0.0
 10
0.7853850807945922
 20
9.115860566567443
 30
0.0
 10
0.8551379856748462
 20
9.218558971482576
 30
0.0
 10
0.9134245900186444
 20
9.335636200268299
 30
0.0
 10
0.9589159039440347
 20
9.468573467494577
 30
0.0
 10
0.9916354035773214
 20
9.618300620103566
 30
0.0
 10
1.010305811344113
 20
9.785466962378866
 30
0.0
 10
1.012887900555047
 20
9.902563637413277
 30
0.0
 10
1.014236111111056
 20
9.963704427083313
 30
0.0
  0
SPLINE
  5
119
330
1F
100
AcDbEntity
  8
0
  6
Continuous
 62
     7
370
    25
100
AcDbSpline
210
0.0
220
0.0
230
1.0
 70
     8
 71
     3
 72
    13
 73
     9
 74
     0
 42
0.000000001
 43
0.00000001
 40
0.0
 40
0.0
 40
0.0
 40
0.0
 40
0.1155564950146506
 40
0.2363159031075708
 40
0.3643419415014833
 40
0.4988739532413388
 40
0.7613541544497309
 40
1.0
 40
1.0
 40
1.0
 40
1.0
 10
-23.55305989583341
 20
11.17499999999982
 30
0.0
 10
-23.60543864402932
 20
11.17448601920927
 30
0.0
 10
-23.71255448534996
 20
11.17343491572362
 30
0.0
 10
-23.87744398742274
 20
11.16398584203589
 30
0.0
 10
-24.05083914412461
 20
11.15274587690956
 30
0.0
 10
-24.28732851240876
 20
11.12588427464693
 30
0.0
 10
-24.57335022314097
 20
11.09127941554919
 30
0.0
 10
-24.79795449683868
 20
11.05744357302718
 30
0.0
 10
-24.90491536458341
 20
11.04133029513871
 30
0.0
  0
SPLINE
  5
11A
330
1F
100
AcDbEntity
  8
0
  6
Continuous
 62
     7
370
    25
100
AcDbSpline
210
0.0
220
0.0
230
1.0
 70
     8
 71
     3
 72
    23
 73
    19
 74
     0
 42
0.000000001
 43
0.00000001
 40
0.0
 40
0.0
 40
0.0
 40
0.0
 40
0.0861993883930521
 40
0.1658979800311838
 40
0.2400190129422359
 40
0.3083222356524612
 40
0.371904253192659
 40
0.431662109106289
 40
0.4886019684516313
 40
0.5430646748122159
 40
0.5960311445465427
 40
0.6484157667030763
 40
0.7017871670869124
 40
0.7561799392300168
 40
0.8128496736025437
 40
0.8719973073682985
 40
0.9343482739086084
 40
1.0
 40
1.0
 40
1.0
 40
1.0
 10
-45.83333333333333
 20
-12.85306785736848
 30
0.0
 10
-45.83458165932512
 20
-12.94164918316658
 30
0.0
 10
-45.83698416779204
 20
-13.11213140226748
 30
0.0
 10
-45.85760581371988
 20
-13.35814523997582
 30
0.0
 10
-45.89296730810351
 20
-13.58378490381864
 30
0.0
 10
-45.94075863897671
 20
-13.79029788960439
 30
0.0
 10
-46.00395512071567
 20
-13.97704554302066
 30
0.0
 10
-46.07768478557501
 20
-14.14739559863461
 30
0.0
 10
-46.16797777090457
 20
-14.29877169335748
 30
0.0
 10
-46.26931849334976
 20
-14.43446044593623
 30
0.0
 10
-46.38635252577916
 20
-14.55037512665818
 30
0.0
 10
-46.51516541810837
 20
-14.65109323652819
 30
0.0
 10
-46.65827259888014
 20
-14.7334082575488
 30
0.0
 10
-46.81450441498377
 20
-14.79876989190342
 30
0.0
 10
-46.98278658010192
 20
-14.84753571008712
 30
0.0
 10
-47.16257377914638
 20
-14.88291330173718
 30
0.0
 10
-47.35390016384319
 20
-14.90512749783309
 30
0.0
 10
-47.48547006524533
 20
-14.90743824575097
 30
0.0
 10
-47.55295138888889
 20
-14.90862341292403
 30
0.0
  0
SPLINE
  5
11B
330
1F
100
AcDbEntity
  8
0
  6
Continuous
 62
     7
370
    25
100
AcDbSpline
210
0.0
220
0.0
230
1.0
 70
     8
 71
     3
 72
    23
 73
    19
 74
     0
 42
0.000000001
 43
0.00000001
 40
0.0
 40
0.0
 40
0.0
 40
0.0
 40
0.0656531721800521
 40
0.1280055121042936
 40
0.187154448695238
 40
0.2438254313130916
 40
0.2982194015476354
 40
0.351591977525496
 40
0.4039777535406196
 40
0.4571448892970357
 40
0.5113848296606152
 40
0.5683259432012366
 40
0.6280851153812159
 40
0.6916685334212948
 40
0.7599732606238118
 40
0.8338177692419464
 40
0.9137987129217872
 40
1.0
 40
1.0
 40
1.0
 40
1.0
 10
-47.55295138888889
 20
-10.79751230181292
 30
0.0
 10
-47.48547003540985
 20
-10.79869744071559
 30
0.0
 10
-47.35390007583678
 20
-10.80100813351402
 30
0.0
 10
-47.16257410356484
 20
-10.82322272040016
 30
0.0
 10
-46.98278545141508
 20
-10.85859893517071
 30
0.0
 10
-46.81450837198418
 20
-10.90736957226093
 30
0.0
 10
-46.6582585800243
 20
-10.97271417372161
 30
0.0
 10
-46.51521631961877
 20
-11.05509070957074
 30
0.0
 10
-46.38600325526674
 20
-11.15570963905047
 30
0.0
 10
-46.26991593492684
 20
-11.27249138870975
 30
0.0
 10
-46.16764334925195
 20
-11.40738635035174
 30
0.0
 10
-46.07774647633095
 20
-11.55879062452427
 30
0.0
 10
-46.00393939557731
 20
-11.72907575482734
 30
0.0
 10
-45.94075383647705
 20
-11.91584070297714
 30
0.0
 10
-45.89307279719338
 20
-12.12207696442449
 30
0.0
 10
-45.85745987022479
 20
-12.34768220739409
 30
0.0
 10
-45.83703872442063
 20
-12.59372118124526
 30
0.0
 10
-45.83459890520425
 20
-12.76448831194911
 30
0.0
 10
-45.83333333333333
 20
-12.85306785736848
 30
0.0
  0
SPLINE
  5
11C
330
1F
100
AcDbEntity
  8
0
  6
Continuous
 62
     7
370
    25
100
AcDbSpline
210
0.0
220
0.0
230
1.0
 70
     8
 71
     3
 72
    23
 73
    19
 74
     0
 42
0.000000001
 43
0.00000001
 40
0.0
 40
0.0
 40
0.0
 40
0.0
 40
0.0768013649087236
 40
0.148355927697202
 40
0.2144901089849366
 40
0.2767962791780557
 40
0.3353652797704524
 40
0.3917054584404929
 40
0.4462111570542326
 40
0.5002481684621174
 40
0.5547057077018818
 40
0.6104057841337359
 40
0.668117337615578
 40
0.7290060092507634
 40
0.7925778729242211
 40
0.8585045427503655
 40
0.927815676364998
 40
0.9999999999999999
 40
0.9999999999999999
 40
0.9999999999999999
 40
0.9999999999999999
 10
-21.16354166666675
 20
9.992643229166486
 30
0.0
 10
-21.16560462270473
 20
9.900215272477755
 30
0.0
 10
-21.16958960079956
 20
9.721673715618582
 30
0.0
 10
-21.20143715918658
 20
9.465150499880167
 30
0.0
 10
-21.25274704913918
 20
9.229590972363535
 30
0.0
 10
-21.32761948945905
 20
9.01685958520326
 30
0.0
 10
-21.42022659547748
 20
8.824250962367243
 30
0.0
 10
-21.53133064604264
 20
8.65282286582107
 30
0.0
 10
-21.65718667341477
 20
8.498783249220915
 30
0.0
 10
-21.80226485497946
 20
8.365919892999942
 30
0.0
 10
-21.9632850150616
 20
8.250699870344514
 30
0.0
 10
-22.1410989284931
 20
8.153885382397778
 30
0.0
 10
-22.33593507442404
 20
8.075209503903944
 30
0.0
 10
-22.54678695554587
 20
8.01427470270469
 30
0.0
 10
-22.77133106378947
 20
7.968119127135543
 30
0.0
 10
-23.00837201467451
 20
7.935027355172932
 30
0.0
 10
-23.25738533829151
 20
7.915976118470573
 30
0.0
 10
-23.42762603454187
 20
7.913214435993034
 30
0.0
 10
-23.51447482638897
 20
7.911805555555375
 30
0.0
  0
SPLINE
  5
11D
330
1F
100
AcDbEntity
  8
0
  6
Continuous
 62
     7
370
    25
100
AcDbSpline
210
0.0
220
0.0
230
1.0
 70
     8
 71
     3
 72
    21
 73
    17
 74
     0
 42
0.000000001
 43
0.00000001
 40
0.0
 40
0.0
 40
0.0
 40
0.0
 40
0.0794883936918975
 40
0.1524199566726901
 40
0.2189133048549846
 40
0.2809143564829506
 40
0.3393558601382622
 40
0.3951395262719667
 40
0.4486522395429043
 40
0.5022874777899735
 40
0.5564744355576077
 40
0.6123315979895013
 40
0.6696818330373812
 40
0.7305812977898564
 40
0.8595810692048677
 40
1.0
 40
1.0
 40
1.0
 40
1.0
 10
1.014236111111056
 20
9.963704427083313
 30
0.0
 10
1.012875784043601
 20
10.02071106627701
 30
0.0
 10
1.010267340432502
 20
10.13002198668181
 30
0.0
 10
0.9916858526112827
 20
10.28626377341358
 30
0.0
 10
0.9582950278003727
 20
10.42707128563393
 30
0.0
 10
0.9133448130769257
 20
10.55378190466927
 30
0.0
 10
0.8544955967965663
 20
10.66598984358743
 30
0.0
 10
0.7873710939322816
 20
10.7661832217655
 30
0.0
 10
0.7086725989194941
 20
10.85310735789883
 30
0.0
 10
0.6198902584216092
 20
10.92782485330531
 30
0.0
 10
0.5208933325865671
 20
10.99139372696889
 30
0.0
 10
0.4133440547418584
 20
11.04523699855339
 30
0.0
 10
0.295847754310904
 20
11.08829891563038
 30
0.0
 10
0.1237756538905394
 20
11.13172992072175
 30
0.0
 10
-0.1110633847999975
 20
11.16831964571371
 30
0.0
 10
-0.3043853338715312
 20
11.17271117113053
 30
0.0
 10
-0.4051432291667218
 20
11.17499999999998
 30
0.0
  0
SPLINE
  5
11E
330
1F
100
AcDbEntity
  8
0
  6
Continuous
 62
     7
370
    25
100
AcDbSpline
210
0.0
220
0.0
230
1.0
 70
     8
 71
     3
 72
    23
 73
    19
 74
     0
 42
0.000000001
 43
0.00000001
 40
0.0
 40
0.0
 40
0.0
 40
0.0
 40
0.0584345772406308
 40
0.1136214788642265
 40
0.1659864341160302
 40
0.2165365664467571
 40
0.2657014109221723
 40
0.3146216197691088
 40
0.3636461132745446
 40
0.4148400192873147
 40
0.4691309581129748
 40
0.5271241034839415
 40
0.5899082055458138
 40
0.6577859132380098
 40
0.7318674100785035
 40
0.8137752844446061
 40
0.9029398625063964
 40
1.0
 40
1.0
 40
1.0
 40
1.0
 10
-47.55295138888889
 20
-14.40862341292403
 30
0.0
 10
-47.51094828912361
 20
-14.40762328507332
 30
0.0
 10
-47.42927653692523
 20
-14.40567861445505
 30
0.0
 10
-47.31074468489977
 20
-14.39064268261514
 30
0.0
 10
-47.19950840918984
 20
-14.36666805532384
 30
0.0
 10
-47.09566649744209
 20
-14.33196111005671
 30
0.0
 10
-46.99861671755429
 20
-14.28635532203212
 30
0.0
 10
-46.91177403728013
 20
-14.22535772703292
 30
0.0
 10
-46.8320275550793
 20
-14.15330491228664
 30
0.0
 10
-46.76153384623359
 20
-14.06702169479455
 30
0.0
 10
-46.69885836167406
 20
-13.96735002705296
 30
0.0
 10
-46.64493893555887
 20
-13.85335586144741
 30
0.0
 10
-46.60054039073226
 20
-13.72507167639394
 30
0.0
 10
-46.5629392901058
 20
-13.58267514334094
 30
0.0
 10
-46.53488749299362
 20
-13.42411571966501
 30
0.0
 10
-46.51432926495644
 20
-13.24907039206038
 30
0.0
 10
-46.50247767382619
 20
-13.05664477498014
 30
0.0
 10
-46.50084891006224
 20
-12.92281815782134
 30
0.0
 10
-46.5
 20
-12.85306785736848
 30
0.0
  0
SPLINE
  5
11F
330
1F
100
AcDbEntity
  8
0
  6
Continuous
 62
     7
370
    25
100
AcDbSpline
210
0.0
220
0.0
230
1.0
 70
     8
 71
     3
 72
    23
 73
    19
 74
     0
 42
0.000000001
 43
0.00000001
 40
0.0
 40
0.0
 40
0.0
 40
0.0
 40
0.0591584335283585
 40
0.1146691115452605
 40
0.1674428044935778
 40
0.2175430308031532
 40
0.2659176045952673
 40
0.3145438748865839
 40
0.364069579264874
 40
0.4154507938796456
 40
0.4695453003088079
 40
0.5276336034443183
 40
0.5904673441204272
 40
0.6582525041312489
 40
0.7322329947504315
 40
0.8140291920414454
 40
0.9030721988946484
 40
1.0
 40
1.0
 40
1.0
 40
1.0
 10
-47.55295138888889
 20
-11.29751230181292
 30
0.0
 10
-47.59552710949713
 20
-11.29852942744444
 30
0.0
 10
-47.67805329831523
 20
-11.30050096194156
 30
0.0
 10
-47.7978853867147
 20
-11.31521355921568
 30
0.0
 10
-47.90920353743578
 20
-11.34039276485055
 30
0.0
 10
-48.01275601831562
 20
-11.3746803682782
 30
0.0
 10
-48.10817881547955
 20
-11.42131202613085
 30
0.0
 10
-48.19566886182299
 20
-11.48080872104487
 30
0.0
 10
-48.27529933182789
 20
-11.55372105682564
 30
0.0
 10
-48.34673500711141
 20
-11.63976025261107
 30
0.0
 10
-48.41078215348427
 20
-11.73886500733341
 30
0.0
 10
-48.46522195737128
 20
-11.85276817106196
 30
0.0
 10
-48.51079868996483
 20
-11.98088273986391
 30
0.0
 10
-48.54809504986484
 20
-12.12348702138373
 30
0.0
 10
-48.5762473815392
 20
-12.282011807852
 30
0.0
 10
-48.59677460842057
 20
-12.45706781629561
 30
0.0
 10
-48.60863550427978
 20
-12.64949022761435
 30
0.0
 10
-48.61026290925052
 20
-12.78331731291865
 30
0.0
 10
-48.61111111111111
 20
-12.85306785736848
 30
0.0
  0
SPLINE
  5
120
330
1F
100
AcDbEntity
  8
0
  6
Continuous
 62
     7
370
    25
100
AcDbSpline
210
0.0
220
0.0
230
1.0
 70
     8
 71
     3
 72
    23
 73
    19
 74
     0
 42
0.000000001
 43
0.00000001
 40
0.0
 40
0.0
 40
0.0
 40
0.0
 40
0.0969076477380817
 40
0.1859321406417318
 40
0.2677113307502194
 40
0.3416764392398039
 40
0.4094475052630435
 40
0.4722681814577719
 40
0.530344406790074
 40
0.5847657872233665
 40
0.6361363185823833
 40
0.6853817064009768
 40
0.7342250574267749
 40
0.7825895731082021
 40
0.832679382506947
 40
0.8853547306206934
 40
0.9408538667778944
 40
1.0
 40
1.0
 40
1.0
 40
1.0
 10
-48.61111111111111
 20
-12.85306785736848
 30
0.0
 10
-48.61026287229347
 20
-12.92281838062452
 30
0.0
 10
-48.60863539641493
 20
-13.0566454252653
 30
0.0
 10
-48.59677498611725
 20
-13.24906811503924
 30
0.0
 10
-48.57624614145977
 20
-13.42412319573601
 30
0.0
 10
-48.54809905611919
 20
-13.58265099082186
 30
0.0
 10
-48.51078549563591
 20
-13.72524540831485
 30
0.0
 10
-48.46526591186067
 20
-13.85339275027731
 30
0.0
 10
-48.41053022852187
 20
-13.96740666264029
 30
0.0
 10
-48.34695633486049
 20
-14.06706429641643
 30
0.0
 10
-48.27560661488772
 20
-14.15336502809993
 30
0.0
 10
-48.1950898237026
 20
-14.22515831523679
 30
0.0
 10
-48.1085103951139
 20
-14.28588855264108
 30
0.0
 10
-48.01269012681611
 20
-14.33218214872316
 30
0.0
 10
-47.9093414176553
 20
-14.36689714321099
 30
0.0
 10
-47.79774789675146
 20
-14.39060621454639
 30
0.0
 10
-47.67807391263175
 20
-14.40572376346607
 30
0.0
 10
-47.59553412513248
 20
-14.40763658014306
 30
0.0
 10
-47.55295138888889
 20
-14.40862341292403
 30
0.0
  0
SPLINE
  5
121
330
1F
100
AcDbEntity
  8
0
  6
Continuous
 62
     7
370
    25
100
AcDbSpline
210
0.0
220
0.0
230
1.0
 70
     8
 71
     3
 72
    23
 73
    19
 74
     0
 42
0.000000001
 43
0.00000001
 40
0.0
 40
0.0
 40
0.0
 40
0.0
 40
0.097080263378404
 40
0.1862633301428963
 40
0.2681881884994022
 40
0.3422850464934009
 40
0.4101768289536821
 40
0.472973949600094
 40
0.5309791201277634
 40
0.5849412361614649
 40
0.636145757476063
 40
0.6854525538414795
 40
0.7341553106682805
 40
0.7833303497098862
 40
0.8338909638528813
 40
0.8863549611774473
 40
0.941553306069652
 40
0.9999999999999999
 40
0.9999999999999999
 40
0.9999999999999999
 40
0.9999999999999999
 10
-46.5
 20
-12.85306785736848
 30
0.0
 10
-46.50084887311113
 20
-12.78331753606036
 30
0.0
 10
-46.50247756597872
 20
-12.64949087888756
 30
0.0
 10
-46.51432964259227
 20
-12.45706553581473
 30
0.0
 10
-46.53488625311401
 20
-12.28201929528225
 30
0.0
 10
-46.56294329571465
 20
-12.12346283216694
 30
0.0
 10
-46.60052720989717
 20
-11.98105659906225
 30
0.0
 10
-46.64498272516678
 20
-11.85280456820214
 30
0.0
 10
-46.69860801703823
 20
-11.73892489140318
 30
0.0
 10
-46.76175359166926
 20
-11.63979996519178
 30
0.0
 10
-46.83233497238852
 20
-11.55377773795163
 30
0.0
 10
-46.91119492882875
 20
-11.48061337404605
 30
0.0
 10
-46.99895238082161
 20
-11.42085090432068
 30
0.0
 10
-47.0955991643449
 20
-11.37489825112355
 30
0.0
 10
-47.19964817312943
 20
-11.34062603041145
 30
0.0
 10
-47.31060637732138
 20
-11.31517801604162
 30
0.0
 10
-47.42929709437436
 20
-11.30054522619687
 30
0.0
 10
-47.51095527095195
 20
-11.29854235944757
 30
0.0
 10
-47.55295138888889
 20
-11.29751230181292
 30
0.0
  0
SPLINE
  5
122
330
1F
100
AcDbEntity
  8
0
  6
Continuous
 62
     7
370
    25
100
AcDbSpline
210
0.0
220
0.0
230
1.0
 70
     8
 71
     3
 72
    23
 73
    19
 74
     0
 42
0.000000001
 43
0.00000001
 40
0.0
 40
0.0
 40
0.0
 40
0.0
 40
0.0591584335283585
 40
0.1146691115452605
 40
0.1674428044935747
 40
0.2175430308031532
 40
0.2659176045952673
 40
0.3145438748865839
 40
0.3640695792648739
 40
0.4154507938796456
 40
0.4695453003088079
 40
0.5276336034443184
 40
0.5904673441204272
 40
0.658252504131249
 40
0.7322329947504315
 40
0.8140291920414455
 40
0.9030721988946485
 40
1.0
 40
1.0
 40
1.0
 40
1.0
 10
-59.10850694444443
 20
-11.29751230181292
 30
0.0
 10
-59.15108266505267
 20
-11.29852942744444
 30
0.0
 10
-59.2336088538708
 20
-11.30050096194156
 30
0.0
 10
-59.3534409422702
 20
-11.31521355921567
 30
0.0
 10
-59.46475909299135
 20
-11.34039276485056
 30
0.0
 10
-59.56831157387115
 20
-11.3746803682782
 30
0.0
 10
-59.66373437103509
 20
-11.42131202613085
 30
0.0
 10
-59.75122441737855
 20
-11.48080872104487
 30
0.0
 10
-59.83085488738345
 20
-11.55372105682564
 30
0.0
 10
-59.90229056266693
 20
-11.63976025261107
 30
0.0
 10
-59.96633770903983
 20
-11.73886500733341
 30
0.0
 10
-60.02077751292682
 20
-11.85276817106196
 30
0.0
 10
-60.06635424552039
 20
-11.9808827398639
 30
0.0
 10
-60.10365060542037
 20
-12.12348702138373
 30
0.0
 10
-60.13180293709475
 20
-12.28201180785199
 30
0.0
 10
-60.15233016397612
 20
-12.45706781629561
 30
0.0
 10
-60.16419105983532
 20
-12.64949022761435
 30
0.0
 10
-60.16581846480609
 20
-12.78331731291865
 30
0.0
 10
-60.16666666666666
 20
-12.85306785736848
 30
0.0
  0
SPLINE
  5
123
330
1F
100
AcDbEntity
  8
0
  6
Continuous
 62
     7
370
    25
100
AcDbSpline
210
0.0
220
0.0
230
1.0
 70
     8
 71
     3
 72
    23
 73
    19
 74
     0
 42
0.000000001
 43
0.00000001
 40
0.0
 40
0.0
 40
0.0
 40
0.0
 40
0.0584345772406308
 40
0.1136214788642265
 40
0.1659864341160333
 40
0.2165365664467571
 40
0.2657014109221723
 40
0.3146216197691089
 40
0.3636461132745446
 40
0.4148400192873147
 40
0.4691309581129748
 40
0.5271241034839413
 40
0.5899082055458137
 40
0.6577859132380097
 40
0.7318674100785034
 40
0.813775284444606
 40
0.9029398625063962
 40
0.9999999999999999
 40
0.9999999999999999
 40
0.9999999999999999
 40
0.9999999999999999
 10
-59.10850694444443
 20
-14.40862341292403
 30
0.0
 10
-59.06650384467914
 20
-14.40762328507332
 30
0.0
 10
-58.9848320924808
 20
-14.40567861445505
 30
0.0
 10
-58.86630024045531
 20
-14.39064268261514
 30
0.0
 10
-58.7550639647454
 20
-14.36666805532384
 30
0.0
 10
-58.65122205299762
 20
-14.33196111005671
 30
0.0
 10
-58.55417227310986
 20
-14.28635532203212
 30
0.0
 10
-58.46732959283568
 20
-14.22535772703292
 30
0.0
 10
-58.38758311063486
 20
-14.15330491228665
 30
0.0
 10
-58.31708940178914
 20
-14.06702169479455
 30
0.0
 10
-58.25441391722961
 20
-13.96735002705296
 30
0.0
 10
-58.20049449111441
 20
-13.85335586144741
 30
0.0
 10
-58.15609594628781
 20
-13.72507167639394
 30
0.0
 10
-58.11849484566135
 20
-13.58267514334094
 30
0.0
 10
-58.09044304854916
 20
-13.42411571966501
 30
0.0
 10
-58.06988482051199
 20
-13.24907039206038
 30
0.0
 10
-58.05803322938174
 20
-13.05664477498014
 30
0.0
 10
-58.0564044656178
 20
-12.92281815782134
 30
0.0
 10
-58.05555555555555
 20
-12.85306785736848
 30
0.0
  0
SPLINE
  5
124
330
1F
100
AcDbEntity
  8
0
  6
Continuous
 62
     7
370
    25
100
AcDbSpline
210
0.0
220
0.0
230
1.0
 70
     8
 71
     3
 72
    23
 73
    19
 74
     0
 42
0.000000001
 43
0.00000001
 40
0.0
 40
0.0
 40
0.0
 40
0.0
 40
0.0969076477380817
 40
0.1859321406417319
 40
0.2677113307502195
 40
0.341676439239804
 40
0.4094475052630436
 40
0.4722681814577721
 40
0.5303444067900741
 40
0.5847657872233666
 40
0.6361363185823834
 40
0.6853817064009771
 40
0.7342250574267751
 40
0.7825895731082023
 40
0.8326793825069502
 40
0.8853547306206934
 40
0.9408538667778944
 40
1.0
 40
1.0
 40
1.0
 40
1.0
 10
-60.16666666666666
 20
-12.85306785736848
 30
0.0
 10
-60.16581842784903
 20
-12.92281838062453
 30
0.0
 10
-60.16419095197049
 20
-13.0566454252653
 30
0.0
 10
-60.1523305416728
 20
-13.24906811503923
 30
0.0
 10
-60.13180169701531
 20
-13.42412319573601
 30
0.0
 10
-60.10365461167473
 20
-13.58265099082186
 30
0.0
 10
-60.06634105119149
 20
-13.72524540831486
 30
0.0
 10
-60.02082146741621
 20
-13.8533927502773
 30
0.0
 10
-59.96608578407743
 20
-13.96740666264029
 30
0.0
 10
-59.90251189041605
 20
-14.06706429641643
 30
0.0
 10
-59.83116217044325
 20
-14.15336502809993
 30
0.0
 10
-59.75064537925815
 20
-14.22515831523679
 30
0.0
 10
-59.66406595066945
 20
-14.28588855264108
 30
0.0
 10
-59.56824568237166
 20
-14.33218214872317
 30
0.0
 10
-59.46489697321083
 20
-14.36689714321098
 30
0.0
 10
-59.35330345230701
 20
-14.3906062145464
 30
0.0
 10
-59.2336294681873
 20
-14.40572376346607
 30
0.0
 10
-59.15108968068803
 20
-14.40763658014306
 30
0.0
 10
-59.10850694444443
 20
-14.40862341292403
 30
0.0
  0
SPLINE
  5
125
330
1F
100
AcDbEntity
  8
0
  6
Continuous
 62
     7
370
    25
100
AcDbSpline
210
0.0
220
0.0
230
1.0
 70
     8
 71
     3
 72
    23
 73
    19
 74
     0
 42
0.000000001
 43
0.00000001
 40
0.0
 40
0.0
 40
0.0
 40
0.0
 40
0.097080263378404
 40
0.1862633301428963
 40
0.2681881884994022
 40
0.3422850464934009
 40
0.4101768289536821
 40
0.472973949600094
 40
0.5309791201277634
 40
0.5849412361614649
 40
0.636145757476063
 40
0.6854525538414795
 40
0.7341553106682805
 40
0.7833303497098862
 40
0.8338909638528783
 40
0.8863549611774474
 40
0.941553306069652
 40
0.9999999999999999
 40
0.9999999999999999
 40
0.9999999999999999
 40
0.9999999999999999
 10
-58.05555555555555
 20
-12.85306785736848
 30
0.0
 10
-58.05640442866669
 20
-12.78331753606036
 30
0.0
 10
-58.05803312153429
 20
-12.64949087888756
 30
0.0
 10
-58.06988519814782
 20
-12.45706553581473
 30
0.0
 10
-58.09044180866955
 20
-12.28201929528225
 30
0.0
 10
-58.11849885127021
 20
-12.12346283216694
 30
0.0
 10
-58.15608276545271
 20
-11.98105659906225
 30
0.0
 10
-58.20053828072232
 20
-11.85280456820214
 30
0.0
 10
-58.25416357259378
 20
-11.73892489140318
 30
0.0
 10
-58.31730914722481
 20
-11.63979996519178
 30
0.0
 10
-58.38789052794405
 20
-11.55377773795163
 30
0.0
 10
-58.46675048438429
 20
-11.48061337404605
 30
0.0
 10
-58.55450793637716
 20
-11.42085090432068
 30
0.0
 10
-58.65115471990043
 20
-11.37489825112356
 30
0.0
 10
-58.75520372868498
 20
-11.34062603041145
 30
0.0
 10
-58.86616193287691
 20
-11.31517801604162
 30
0.0
 10
-58.98485264992993
 20
-11.30054522619687
 30
0.0
 10
-59.0665108265075
 20
-11.29854235944757
 30
0.0
 10
-59.10850694444444
 20
-11.29751230181292
 30
0.0
  0
LINE
  5
126
330
1F
100
AcDbEntity
  8
0
  6
Continuous
 62
     7
370
    25
100
AcDbLine
 10
48.7652777778
 20
13.4901041667
 30
0.0
 11
47.3183376736
 21
13.1180338542
 31
0.0
  0
LINE
  5
127
330
1F
100
AcDbEntity
  8
0
  6
Continuous
 62
     7
370
    25
100
AcDbLine
 10
48.7652777778
 20
8.0
 30
0.0
 11
48.7652777778
 21
13.4901041667
 31
0.0
  0
LINE
  5
128
330
1F
100
AcDbEntity
  8
0
  6
Continuous
 62
     7
370
    25
100
AcDbLine
 10
49.7354166667
 20
8.0
 30
0.0
 11
48.7652777778
 21
8.0
 31
0.0
  0
LINE
  5
129
330
1F
100
AcDbEntity
  8
0
  6
Continuous
 62
     7
370
    25
100
AcDbLine
 10
49.7354166667
 20
14.35
 30
0.0
 11
49.7354166667
 21
8.0
 31
0.0
  0
LINE
  5
12A
330
1F
100
AcDbEntity
  8
0
  6
Continuous
 62
     7
370
    25
100
AcDbLine
 10
48.9471788194
 20
14.35
 30
0.0
 11
49.7354166667
 21
14.35
 31
0.0
  0
LINE
  5
12B
330
1F
100
AcDbEntity
  8
0
  6
Continuous
 62
     7
370
    25
100
AcDbLine
 10
47.3183376736
 20
13.9200520833
 30
0.0
 11
48.9471788194
 21
14.35
 31
0.0
  0
LINE
  5
12C
330
1F
100
AcDbEntity
  8
0
  6
Continuous
 62
     7
370
    25
100
AcDbLine
 10
47.3183376736
 20
13.1180338542
 30
0.0
 11
47.3183376736
 21
13.9200520833
 31
0.0
  0
LINE
  5
12D
330
1F
100
AcDbEntity
  8
0
  6
Continuous
 62
     7
370
    25
100
AcDbLine
 10
51.3033485243
 20
8.7096896701
 30
0.0
 11
53.2270898438
 21
10.6334309896
 31
0.0
  0
LINE
  5
12E
330
1F
100
AcDbEntity
  8
0
  6
Continuous
 62
     7
370
    25
100
AcDbLine
 10
51.3033485243
 20
8.0
 30
0.0
 11
51.3033485243
 21
8.7096896701
 31
0.0
  0
LINE
  5
12F
330
1F
100
AcDbEntity
  8
0
  6
Continuous
 62
     7
370
    25
100
AcDbLine
 10
55.5628645833
 20
8.0
 30
0.0
 11
51.3033485243
 21
8.0
 31
0.0
  0
LINE
  5
130
330
1F
100
AcDbEntity
  8
0
  6
Continuous
 62
     7
370
    25
100
AcDbLine
 10
55.5628645833
 20
8.79375
 30
0.0
 11
55.5628645833
 21
8.0
 31
0.0
  0
LINE
  5
131
330
1F
100
AcDbEntity
  8
0
  6
Continuous
 62
     7
370
    25
100
AcDbLine
 10
52.5601193576
 20
8.79375
 30
0.0
 11
55.5628645833
 21
8.79375
 31
0.0
  0
LINE
  5
132
330
1F
100
AcDbEntity
  8
0
  6
Continuous
 62
     7
370
    25
100
AcDbLine
 10
53.9794986979
 20
10.1690321181
 30
0.0
 11
52.5601193576
 21
8.79375
 31
0.0
  0
LINE
  5
133
330
1F
100
AcDbEntity
  8
0
  6
Continuous
 62
     7
370
    25
100
AcDbLine
 10
51.5789561632
 20
13.4432508681
 30
0.0
 11
51.4838715278
 21
14.2370008681
 31
0.0
  0
LINE
  5
134
330
1F
100
AcDbEntity
  8
0
  6
Continuous
 62
     7
370
    25
100
AcDbLine
 10
22.1954166667
 20
13.4901041667
 30
0.0
 11
20.7484765625
 21
13.1180338542
 31
0.0
  0
LINE
  5
135
330
1F
100
AcDbEntity
  8
0
  6
Continuous
 62
     7
370
    25
100
AcDbLine
 10
22.1954166667
 20
8.0
 30
0.0
 11
22.1954166667
 21
13.4901041667
 31
0.0
  0
LINE
  5
136
330
1F
100
AcDbEntity
  8
0
  6
Continuous
 62
     7
370
    25
100
AcDbLine
 10
23.1655555556
 20
8.0
 30
0.0
 11
22.1954166667
 21
8.0
 31
0.0
  0
LINE
  5
137
330
1F
100
AcDbEntity
  8
0
  6
Continuous
 62
     7
370
    25
100
AcDbLine
 10
23.1655555556
 20
14.35
 30
0.0
 11
23.1655555556
 21
8.0
 31
0.0
  0
LINE
  5
138
330
1F
100
AcDbEntity
  8
0
  6
Continuous
 62
     7
370
    25
100
AcDbLine
 10
22.3773177083
 20
14.35
 30
0.0
 11
23.1655555556
 21
14.35
 31
0.0
  0
LINE
  5
139
330
1F
100
AcDbEntity
  8
0
  6
Continuous
 62
     7
370
    25
100
AcDbLine
 10
20.7484765625
 20
13.9200520833
 30
0.0
 11
22.3773177083
 21
14.35
 31
0.0
  0
LINE
  5
13A
330
1F
100
AcDbEntity
  8
0
  6
Continuous
 62
     7
370
    25
100
AcDbLine
 10
20.7484765625
 20
13.1180338542
 30
0.0
 11
20.7484765625
 21
13.9200520833
 31
0.0
  0
LINE
  5
13B
330
1F
100
AcDbEntity
  8
0
  6
Continuous
 62
     7
370
    25
100
AcDbLine
 10
25.2979318576
 20
8.7096896701
 30
0.0
 11
27.2216731771
 21
10.6334309896
 31
0.0
  0
LINE
  5
13C
330
1F
100
AcDbEntity
  8
0
  6
Continuous
 62
     7
370
    25
100
AcDbLine
 10
25.2979318576
 20
8.0
 30
0.0
 11
25.2979318576
 21
8.7096896701
 31
0.0
  0
LINE
  5
13D
330
1F
100
AcDbEntity
  8
0
  6
Continuous
 62
     7
370
    25
100
AcDbLine
 10
29.5574479167
 20
8.0
 30
0.0
 11
25.2979318576
 21
8.0
 31
0.0
  0
LINE
  5
13E
330
1F
100
AcDbEntity
  8
0
  6
Continuous
 62
     7
370
    25
100
AcDbLine
 10
29.5574479167
 20
8.79375
 30
0.0
 11
29.5574479167
 21
8.0
 31
0.0
  0
LINE
  5
13F
330
1F
100
AcDbEntity
  8
0
  6
Continuous
 62
     7
370
    25
100
AcDbLine
 10
26.554702691
 20
8.79375
 30
0.0
 11
29.5574479167
 21
8.79375
 31
0.0
  0
LINE
  5
140
330
1F
100
AcDbEntity
  8
0
  6
Continuous
 62
     7
370
    25
100
AcDbLine
 10
27.9740820312
 20
10.1690321181
 30
0.0
 11
26.554702691
 21
8.79375
 31
0.0
  0
LINE
  5
141
330
1F
100
AcDbEntity
  8
0
  6
Continuous
 62
     7
370
    25
100
AcDbLine
 10
25.5735394965
 20
13.4432508681
 30
0.0
 11
25.4784548611
 21
14.2370008681
 31
0.0
  0
LINE
  5
142
330
1F
100
AcDbEntity
  8
0
  6
Continuous
 62
     7
370
    25
100
AcDbLine
 10
-44.2777777778
 20
-14.8530678574
 30
0.0
 11
-44.8888888889
 21
-14.8530678574
 31
0.0
  0
LINE
  5
143
330
1F
100
AcDbEntity
  8
0
  6
Continuous
 62
     7
370
    25
100
AcDbLine
 10
-44.2777777778
 20
-13.1308456351
 30
0.0
 11
-44.2777777778
 21
-14.8530678574
 31
0.0
  0
LINE
  5
144
330
1F
100
AcDbEntity
  8
0
  6
Continuous
 62
     7
370
    25
100
AcDbLine
 10
-42.7057291667
 20
-13.1308456351
 30
0.0
 11
-44.2777777778
 21
-13.1308456351
 31
0.0
  0
LINE
  5
145
330
1F
100
AcDbEntity
  8
0
  6
Continuous
 62
     7
370
    25
100
AcDbLine
 10
-42.7057291667
 20
-12.6308456351
 30
0.0
 11
-42.7057291667
 21
-13.1308456351
 31
0.0
  0
LINE
  5
146
330
1F
100
AcDbEntity
  8
0
  6
Continuous
 62
     7
370
    25
100
AcDbLine
 10
-44.2777777778
 20
-12.6308456351
 30
0.0
 11
-42.7057291667
 21
-12.6308456351
 31
0.0
  0
LINE
  5
147
330
1F
100
AcDbEntity
  8
0
  6
Continuous
 62
     7
370
    25
100
AcDbLine
 10
-44.2777777778
 20
-11.3530678574
 30
0.0
 11
-44.2777777778
 21
-12.6308456351
 31
0.0
  0
LINE
  5
148
330
1F
100
AcDbEntity
  8
0
  6
Continuous
 62
     7
370
    25
100
AcDbLine
 10
-42.484375
 20
-11.3530678574
 30
0.0
 11
-44.2777777778
 21
-11.3530678574
 31
0.0
  0
LINE
  5
149
330
1F
100
AcDbEntity
  8
0
  6
Continuous
 62
     7
370
    25
100
AcDbLine
 10
-42.484375
 20
-10.8530678574
 30
0.0
 11
-42.484375
 21
-11.3530678574
 31
0.0
  0
LINE
  5
14A
330
1F
100
AcDbEntity
  8
0
  6
Continuous
 62
     7
370
    25
100
AcDbLine
 10
-44.8888888889
 20
-10.8530678574
 30
0.0
 11
-42.484375
 21
-10.8530678574
 31
0.0
  0
LINE
  5
14B
330
1F
100
AcDbEntity
  8
0
  6
Continuous
 62
     7
370
    25
100
AcDbLine
 10
-44.8888888889
 20
-14.8530678574
 30
0.0
 11
-44.8888888889
 21
-10.8530678574
 31
0.0
  0
LINE
  5
14C
330
1F
100
AcDbEntity
  8
0
  6
Continuous
 62
     7
370
    25
100
AcDbLine
 10
-40.9444444444
 20
-14.8530678574
 30
0.0
 11
-41.5555555556
 21
-14.8530678574
 31
0.0
  0
LINE
  5
14D
330
1F
100
AcDbEntity
  8
0
  6
Continuous
 62
     7
370
    25
100
AcDbLine
 10
-40.9444444444
 20
-13.1308456351
 30
0.0
 11
-40.9444444444
 21
-14.8530678574
 31
0.0
  0
LINE
  5
14E
330
1F
100
AcDbEntity
  8
0
  6
Continuous
 62
     7
370
    25
100
AcDbLine
 10
-39.3723958333
 20
-13.1308456351
 30
0.0
 11
-40.9444444444
 21
-13.1308456351
 31
0.0
  0
LINE
  5
14F
330
1F
100
AcDbEntity
  8
0
  6
Continuous
 62
     7
370
    25
100
AcDbLine
 10
-39.3723958333
 20
-12.6308456351
 30
0.0
 11
-39.3723958333
 21
-13.1308456351
 31
0.0
  0
LINE
  5
150
330
1F
100
AcDbEntity
  8
0
  6
Continuous
 62
     7
370
    25
100
AcDbLine
 10
-40.9444444444
 20
-12.6308456351
 30
0.0
 11
-39.3723958333
 21
-12.6308456351
 31
0.0
  0
LINE
  5
151
330
1F
100
AcDbEntity
  8
0
  6
Continuous
 62
     7
370
    25
100
AcDbLine
 10
-40.9444444444
 20
-11.3530678574
 30
0.0
 11
-40.9444444444
 21
-12.6308456351
 31
0.0
  0
LINE
  5
152
330
1F
100
AcDbEntity
  8
0
  6
Continuous
 62
     7
370
    25
100
AcDbLine
 10
-39.1510416667
 20
-11.3530678574
 30
0.0
 11
-40.9444444444
 21
-11.3530678574
 31
0.0
  0
LINE
  5
153
330
1F
100
AcDbEntity
  8
0
  6
Continuous
 62
     7
370
    25
100
AcDbLine
 10
-39.1510416667
 20
-10.8530678574
 30
0.0
 11
-39.1510416667
 21
-11.3530678574
 31
0.0
  0
LINE
  5
154
330
1F
100
AcDbEntity
  8
0
  6
Continuous
 62
     7
370
    25
100
AcDbLine
 10
-41.5555555556
 20
-10.8530678574
 30
0.0
 11
-39.1510416667
 21
-10.8530678574
 31
0.0
  0
LINE
  5
155
330
1F
100
AcDbEntity
  8
0
  6
Continuous
 62
     7
370
    25
100
AcDbLine
 10
-41.5555555556
 20
-14.8530678574
 30
0.0
 11
-41.5555555556
 21
-10.8530678574
 31
0.0
  0
LINE
  5
156
330
1F
100
AcDbEntity
  8
0
  6
Continuous
 62
     7
370
    25
100
AcDbLine
 10
46.6778255208
 20
10.2048611111
 30
0.0
 11
44.1353450521
 21
10.2048611111
 31
0.0
  0
LINE
  5
157
330
1F
100
AcDbEntity
  8
0
  6
Continuous
 62
     7
370
    25
100
AcDbLine
 10
46.6778255208
 20
10.9104166667
 30
0.0
 11
46.6778255208
 21
10.2048611111
 31
0.0
  0
LINE
  5
158
330
1F
100
AcDbEntity
  8
0
  6
Continuous
 62
     7
370
    25
100
AcDbLine
 10
44.1353450521
 20
10.9104166667
 30
0.0
 11
46.6778255208
 21
10.9104166667
 31
0.0
  0
LINE
  5
159
330
1F
100
AcDbEntity
  8
0
  6
Continuous
 62
     7
370
    25
100
AcDbLine
 10
44.1353450521
 20
10.2048611111
 30
0.0
 11
44.1353450521
 21
10.9104166667
 31
0.0
  0
LINE
  5
15A
330
1F
100
AcDbEntity
  8
0
  6
Continuous
 62
     7
370
    25
100
AcDbLine
 10
73.0
 20
10.0
 30
0.0
 11
73.0
 21
-10.0
 31
0.0
  0
LINE
  5
15B
330
1F
100
AcDbEntity
  8
0
  6
Continuous
 62
     7
370
    25
100
AcDbLine
 10
70.5
 20
-10.0
 30
0.0
 11
73.0
 21
-10.0
 31
0.0
  0
LINE
  5
15C
330
1F
100
AcDbEntity
  8
0
  6
Continuous
 62
     7
370
    25
100
AcDbLine
 10
35.0
 20
-27.5
 30
0.0
 11
70.5
 21
-27.5
 31
0.0
  0
LINE
  5
15D
330
1F
100
AcDbEntity
  8
0
  6
Continuous
 62
     7
370
    25
100
AcDbLine
 10
35.0
 20
-27.5
 30
0.0
 11
35.0
 21
-30.0
 31
0.0
  0
LINE
  5
15E
330
1F
100
AcDbEntity
  8
0
  6
Continuous
 62
     7
370
    25
100
AcDbLine
 10
25.0
 20
-30.0
 30
0.0
 11
35.0
 21
-30.0
 31
0.0
  0
LINE
  5
15F
330
1F
100
AcDbEntity
  8
0
  6
Continuous
 62
     7
370
    25
100
AcDbLine
 10
25.0
 20
-27.5
 30
0.0
 11
25.0
 21
-30.0
 31
0.0
  0
LINE
  5
160
330
1F
100
AcDbEntity
  8
0
  6
Continuous
 62
     7
370
    25
100
AcDbLine
 10
5.0
 20
-27.5
 30
0.0
 11
25.0
 21
-27.5
 31
0.0
  0
LINE
  5
161
330
1F
100
AcDbEntity
  8
0
  6
Continuous
 62
     7
370
    25
100
AcDbLine
 10
5.0
 20
-27.5
 30
0.0
 11
5.0
 21
-30.0
 31
0.0
  0
LINE
  5
162
330
1F
100
AcDbEntity
  8
0
  6
Continuous
 62
     7
370
    25
100
AcDbLine
 10
-5.0
 20
-30.0
 30
0.0
 11
5.0
 21
-30.0
 31
0.0
  0
LINE
  5
163
330
1F
100
AcDbEntity
  8
0
  6
Continuous
 62
     7
370
    25
100
AcDbLine
 10
-5.0
 20
-27.5
 30
0.0
 11
-5.0
 21
-30.0
 31
0.0
  0
LINE
  5
164
330
1F
100
AcDbEntity
  8
0
  6
Continuous
 62
     7
370
    25
100
AcDbLine
 10
-25.0
 20
-27.5
 30
0.0
 11
-25.0
 21
-30.0
 31
0.0
  0
LINE
  5
165
330
1F
100
AcDbEntity
  8
0
  6
Continuous
 62
     7
370
    25
100
AcDbLine
 10
-25.0
 20
-30.0
 30
0.0
 11
-35.0
 21
-30.0
 31
0.0
  0
LINE
  5
166
330
1F
100
AcDbEntity
  8
0
  6
Continuous
 62
     7
370
    25
100
AcDbLine
 10
-70.5
 20
-27.5
 30
0.0
 11
-35.0
 21
-27.5
 31
0.0
  0
LINE
  5
167
330
1F
100
AcDbEntity
  8
0
  6
Continuous
 62
     7
370
    25
100
AcDbLine
 10
-70.5
 20
-10.0
 30
0.0
 11
-70.5
 21
-27.5
 31
0.0
  0
LINE
  5
168
330
1F
100
AcDbEntity
  8
0
  6
Continuous
 62
     7
370
    25
100
AcDbLine
 10
-70.5
 20
-10.0
 30
0.0
 11
-73.0
 21
-10.0
 31
0.0
  0
LINE
  5
169
330
1F
100
AcDbEntity
  8
0
  6
Continuous
 62
     7
370
    25
100
AcDbLine
 10
-73.0
 20
10.0
 30
0.0
 11
-73.0
 21
-10.0
 31
0.0
  0
LINE
  5
16A
330
1F
100
AcDbEntity
  8
0
  6
Continuous
 62
     7
370
    25
100
AcDbLine
 10
-70.5
 20
10.0
 30
0.0
 11
-73.0
 21
10.0
 31
0.0
  0
LINE
  5
16B
330
1F
100
AcDbEntity
  8
0
  6
Continuous
 62
     7
370
    25
100
AcDbLine
 10
-70.5
 20
10.0
 30
0.0
 11
-70.5
 21
27.5
 31
0.0
  0
LINE
  5
16C
330
1F
100
AcDbEntity
  8
0
  6
Continuous
 62
     7
370
    25
100
AcDbLine
 10
-70.5
 20
27.5
 30
0.0
 11
-35.0
 21
27.5
 31
0.0
  0
LINE
  5
16D
330
1F
100
AcDbEntity
  8
0
  6
Continuous
 62
     7
370
    25
100
AcDbLine
 10
-35.0
 20
27.5
 30
0.0
 11
-35.0
 21
30.0
 31
0.0
  0
LINE
  5
16E
330
1F
100
AcDbEntity
  8
0
  6
Continuous
 62
     7
370
    25
100
AcDbLine
 10
-25.0
 20
30.0
 30
0.0
 11
-35.0
 21
30.0
 31
0.0
  0
LINE
  5
16F
330
1F
100
AcDbEntity
  8
0
  6
Continuous
 62
     7
370
    25
100
AcDbLine
 10
-25.0
 20
27.5
 30
0.0
 11
-25.0
 21
30.0
 31
0.0
  0
LINE
  5
170
330
1F
100
AcDbEntity
  8
0
  6
Continuous
 62
     7
370
    25
100
AcDbLine
 10
-25.0
 20
27.5
 30
0.0
 11
-5.0
 21
27.5
 31
0.0
  0
LINE
  5
171
330
1F
100
AcDbEntity
  8
0
  6
Continuous
 62
     7
370
    25
100
AcDbLine
 10
-5.0
 20
27.5
 30
0.0
 11
-5.0
 21
30.0
 31
0.0
  0
LINE
  5
172
330
1F
100
AcDbEntity
  8
0
  6
Continuous
 62
     7
370
    25
100
AcDbLine
 10
-5.0
 20
30.0
 30
0.0
 11
5.0
 21
30.0
 31
0.0
  0
LINE
  5
173
330
1F
100
AcDbEntity
  8
0
  6
Continuous
 62
     7
370
    25
100
AcDbLine
 10
5.0
 20
27.5
 30
0.0
 11
5.0
 21
30.0
 31
0.0
  0
LINE
  5
174
330
1F
100
AcDbEntity
  8
0
  6
Continuous
 62
     7
370
    25
100
AcDbLine
 10
5.0
 20
27.5
 30
0.0
 11
25.0
 21
27.5
 31
0.0
  0
LINE
  5
175
330
1F
100
AcDbEntity
  8
0
  6
Continuous
 62
     7
370
    25
100
AcDbLine
 10
25.0
 20
27.5
 30
0.0
 11
25.0
 21
30.0
 31
0.0
  0
LINE
  5
176
330
1F
100
AcDbEntity
  8
0
  6
Continuous
 62
     7
370
    25
100
AcDbLine
 10
25.0
 20
30.0
 30
0.0
 11
35.0
 21
30.0
 31
0.0
  0
LINE
  5
177
330
1F
100
AcDbEntity
  8
0
  6
Continuous
 62
     7
370
    25
100
AcDbLine
 10
35.0
 20
27.5
 30
0.0
 11
70.5
 21
27.5
 31
0.0
  0
LINE
  5
178
330
1F
100
AcDbEntity
  8
0
  6
Continuous
 62
     7
370
    25
100
AcDbLine
 10
70.5
 20
10.0
 30
0.0
 11
70.5
 21
27.5
 31
0.0
  0
LINE
  5
179
330
1F
100
AcDbEntity
  8
0
  6
Continuous
 62
     7
370
    25
100
AcDbLine
 10
70.5
 20
10.0
 30
0.0
 11
73.0
 21
10.0
 31
0.0
  0
LINE
  5
17A
330
1F
100
AcDbEntity
  8
0
  6
Continuous
 62
     7
370
    25
100
AcDbLine
 10
-51.8524305556
 20
-15.1864011907
 30
0.0
 11
-52.3680555556
 21
-15.1864011907
 31
0.0
  0
LINE
  5
17B
330
1F
100
AcDbEntity
  8
0
  6
Continuous
 62
     7
370
    25
100
AcDbLine
 10
-49.7100694444
 20
-10.4641789685
 30
0.0
 11
-51.8524305556
 21
-15.1864011907
 31
0.0
  0
LINE
  5
17C
330
1F
100
AcDbEntity
  8
0
  6
Continuous
 62
     7
370
    25
100
AcDbLine
 10
-50.2317708333
 20
-10.4641789685
 30
0.0
 11
-49.7100694444
 21
-10.4641789685
 31
0.0
  0
LINE
  5
17D
330
1F
100
AcDbEntity
  8
0
  6
Continuous
 62
     7
370
    25
100
AcDbLine
 10
-52.3680555556
 20
-15.1864011907
 30
0.0
 11
-50.2317708333
 21
-10.4641789685
 31
0.0
  0
LINE
  5
17E
330
1F
100
AcDbEntity
  8
0
  6
Continuous
 62
     7
370
    25
100
AcDbLine
 10
-55.8333333333
 20
-14.8530678574
 30
0.0
 11
-56.4444444444
 21
-14.8530678574
 31
0.0
  0
LINE
  5
17F
330
1F
100
AcDbEntity
  8
0
  6
Continuous
 62
     7
370
    25
100
AcDbLine
 10
-55.8333333333
 20
-11.7489011907
 30
0.0
 11
-55.8333333333
 21
-14.8530678574
 31
0.0
  0
LINE
  5
180
330
1F
100
AcDbEntity
  8
0
  6
Continuous
 62
     7
370
    25
100
AcDbLine
 10
-53.7777777778
 20
-13.9502900796
 30
0.0
 11
-55.8333333333
 21
-11.7489011907
 31
0.0
  0
LINE
  5
181
330
1F
100
AcDbEntity
  8
0
  6
Continuous
 62
     7
370
    25
100
AcDbLine
 10
-53.7777777778
 20
-14.8530678574
 30
0.0
 11
-53.7777777778
 21
-13.9502900796
 31
0.0
  0
LINE
  5
182
330
1F
100
AcDbEntity
  8
0
  6
Continuous
 62
     7
370
    25
100
AcDbLine
 10
-53.1666666667
 20
-14.8530678574
 30
0.0
 11
-53.7777777778
 21
-14.8530678574
 31
0.0
  0
LINE
  5
183
330
1F
100
AcDbEntity
  8
0
  6
Continuous
 62
     7
370
    25
100
AcDbLine
 10
-53.1666666667
 20
-10.8530678574
 30
0.0
 11
-53.1666666667
 21
-14.8530678574
 31
0.0
  0
LINE
  5
184
330
1F
100
AcDbEntity
  8
0
  6
Continuous
 62
     7
370
    25
100
AcDbLine
 10
-53.7777777778
 20
-10.8530678574
 30
0.0
 11
-53.1666666667
 21
-10.8530678574
 31
0.0
  0
LINE
  5
185
330
1F
100
AcDbEntity
  8
0
  6
Continuous
 62
     7
370
    25
100
AcDbLine
 10
-53.7777777778
 20
-13.1933456351
 30
0.0
 11
-53.7777777778
 21
-10.8530678574
 31
0.0
  0
LINE
  5
186
330
1F
100
AcDbEntity
  8
0
  6
Continuous
 62
     7
370
    25
100
AcDbLine
 10
-55.9435763889
 20
-10.8530678574
 30
0.0
 11
-53.7777777778
 21
-13.1933456351
 31
0.0
  0
LINE
  5
187
330
1F
100
AcDbEntity
  8
0
  6
Continuous
 62
     7
370
    25
100
AcDbLine
 10
-56.4444444444
 20
-10.8530678574
 30
0.0
 11
-55.9435763889
 21
-10.8530678574
 31
0.0
  0
LINE
  5
188
330
1F
100
AcDbEntity
  8
0
  6
Continuous
 62
     7
370
    25
100
AcDbLine
 10
-56.4444444444
 20
-14.8530678574
 30
0.0
 11
-56.4444444444
 21
-10.8530678574
 31
0.0
  0
LINE
  5
189
330
1F
100
AcDbEntity
  8
0
  6
Continuous
 62
     7
370
    25
100
AcDbLine
 10
-0.9287977431
 20
13.55625
 30
0.0
 11
-1.0817599826
 21
11.9108723958
 31
0.0
  0
LINE
  5
18A
330
1F
100
AcDbEntity
  8
0
  6
Continuous
 62
     7
370
    25
100
AcDbLine
 10
1.8010959201
 20
13.55625
 30
0.0
 11
-0.9287977431
 21
13.55625
 31
0.0
  0
LINE
  5
18B
330
1F
100
AcDbEntity
  8
0
  6
Continuous
 62
     7
370
    25
100
AcDbLine
 10
1.8010959201
 20
14.35
 30
0.0
 11
1.8010959201
 21
13.55625
 31
0.0
  0
LINE
  5
18C
330
1F
100
AcDbEntity
  8
0
  6
Continuous
 62
     7
370
    25
100
AcDbLine
 10
-1.7197916667
 20
14.35
 30
0.0
 11
1.8010959201
 21
14.35
 31
0.0
  0
LINE
  5
18D
330
1F
100
AcDbEntity
  8
0
  6
Continuous
 62
     7
370
    25
100
AcDbLine
 10
-1.9953993056
 20
11.2893771701
 30
0.0
 11
-1.7197916667
 21
14.35
 31
0.0
  0
LINE
  5
18E
330
1F
100
AcDbEntity
  8
0
  6
Continuous
 62
     7
370
    25
100
AcDbLine
 10
-26.5847439236
 20
10.2048611111
 30
0.0
 11
-29.1272243924
 21
10.2048611111
 31
0.0
  0
LINE
  5
18F
330
1F
100
AcDbEntity
  8
0
  6
Continuous
 62
     7
370
    25
100
AcDbLine
 10
-26.5847439236
 20
10.9104166667
 30
0.0
 11
-26.5847439236
 21
10.2048611111
 31
0.0
  0
LINE
  5
190
330
1F
100
AcDbEntity
  8
0
  6
Continuous
 62
     7
370
    25
100
AcDbLine
 10
-29.1272243924
 20
10.9104166667
 30
0.0
 11
-26.5847439236
 21
10.9104166667
 31
0.0
  0
LINE
  5
191
330
1F
100
AcDbEntity
  8
0
  6
Continuous
 62
     7
370
    25
100
AcDbLine
 10
-29.1272243924
 20
10.2048611111
 30
0.0
 11
-29.1272243924
 21
10.9104166667
 31
0.0
  0
LINE
  5
192
330
1F
100
AcDbEntity
  8
0
  6
Continuous
 62
     7
370
    25
100
AcDbLine
 10
-24.0767144097
 20
13.55625
 30
0.0
 11
-24.2296766493
 21
11.9108723958
 31
0.0
  0
LINE
  5
193
330
1F
100
AcDbEntity
  8
0
  6
Continuous
 62
     7
370
    25
100
AcDbLine
 10
-21.3468207465
 20
13.55625
 30
0.0
 11
-24.0767144097
 21
13.55625
 31
0.0
  0
LINE
  5
194
330
1F
100
AcDbEntity
  8
0
  6
Continuous
 62
     7
370
    25
100
AcDbLine
 10
-21.3468207465
 20
14.35
 30
0.0
 11
-21.3468207465
 21
13.55625
 31
0.0
  0
LINE
  5
195
330
1F
100
AcDbEntity
  8
0
  6
Continuous
 62
     7
370
    25
100
AcDbLine
 10
-24.8677083333
 20
14.35
 30
0.0
 11
-21.3468207465
 21
14.35
 31
0.0
  0
LINE
  5
196
330
1F
100
AcDbEntity
  8
0
  6
Continuous
 62
     7
370
    25
100
AcDbLine
 10
-25.1433159722
 20
11.2893771701
 30
0.0
 11
-24.8677083333
 21
14.35
 31
0.0
  0
LINE
  5
197
330
1F
100
AcDbEntity
  8
0
  6
Continuous
 62
     7
370
    25
100
AcDbLine
 10
-24.9049153646
 20
11.0413302951
 30
0.0
 11
-25.1433159722
 21
11.2893771701
 31
0.0
  0
LINE
  5
198
330
1F
100
AcDbEntity
  8
0
  6
Continuous
 62
     7
370
    25
100
AcDbLine
 10
-25.2287543403
 20
8.1322916667
 30
0.0
 11
-25.1433159722
 21
8.9150173611
 31
0.0
  0
LINE
  5
199
330
1F
100
AcDbEntity
  8
0
  6
Continuous
 62
     7
370
    25
100
AcDbLine
 10
-35.0
 20
-27.5
 30
0.0
 11
-35.0
 21
-30.0
 31
0.0
  0
LINE
  5
19A
330
1F
100
AcDbEntity
  8
0
  6
Continuous
 62
     7
370
    25
100
AcDbLine
 10
-25.0
 20
-27.5
 30
0.0
 11
-5.0
 21
-27.5
 31
0.0
  0
LINE
  5
19B
330
1F
100
AcDbEntity
  8
0
  6
Continuous
 62
     7
370
    25
100
AcDbLine
 10
35.0
 20
27.5
 30
0.0
 11
35.0
 21
30.0
 31
0.0
  0
LINE
  5
19C
330
1F
100
AcDbEntity
  8
0
  6
Continuous
 62
     7
370
    25
100
AcDbLine
 10
70.5
 20
-10.0
 30
0.0
 11
70.5
 21
-27.5
 31
0.0
  0
LINE
  5
19D
330
1F
100
AcDbEntity
  8
0
  6
Continuous
 62
     7
370
    25
100
AcDbLine
 10
-2.0808376736
 20
8.1322916667
 30
0.0
 11
-1.9953993056
 21
8.9150173611
 31
0.0
  0
LINE
  5
19E
330
1F
100
AcDbEntity
  8
0
  6
Continuous
 62
     7
370
    25
100
AcDbLine
 10
-1.7569986979
 20
11.0413302951
 30
0.0
 11
-1.9953993056
 21
11.2893771701
 31
0.0
  0
ENDSEC
  0
SECTION
  2
OBJECTS
  0
DICTIONARY
  5
C
330
0
100
AcDbDictionary
281
     1
  3
ACAD_GROUP
350
D
  3
ACAD_LAYOUT
350
1A
  3
ACAD_MLINESTYLE
350
17
  3
ACAD_PLOTSETTINGS
350
19
  3
ACAD_PLOTSTYLENAME
350
E
  3
ACAD_SCALELIST
350
47
  0
DICTIONARY
  5
D
102
{ACAD_REACTORS
330
C
102
}
330
C
100
AcDbDictionary
281
     1
  0
DICTIONARY
  5
1A
102
{ACAD_REACTORS
330
C
102
}
330
C
100
AcDbDictionary
281
     1
  3
Layout1
350
1E
  3
Layout2
350
26
  3
Model
350
22
  0
DICTIONARY
  5
17
102
{ACAD_REACTORS
330
C
102
}
330
C
100
AcDbDictionary
281
     1
  3
Standard
350
18
  0
DICTIONARY
  5
19
102
{ACAD_REACTORS
330
C
102
}
330
C
100
AcDbDictionary
281
     1
  0
ACDBDICTIONARYWDFLT
  5
E
102
{ACAD_REACTORS
330
C
102
}
330
C
100
AcDbDictionary
281
     1
  3
Normal
350
F
100
AcDbDictionaryWithDefault
340
F
  0
DICTIONARY
  5
47
102
{ACAD_REACTORS
330
C
102
}
330
C
100
AcDbDictionary
281
     1
  3
A0
350
48
  3
A1
350
49
  3
A2
350
4A
  3
A3
350
4B
  3
A4
350
4C
  3
A5
350
4D
  3
A6
350
4E
  3
A7
350
4F
  3
A8
350
50
  3
A9
350
51
  3
B0
350
52
  3
B1
350
53
  3
B2
350
54
  3
B3
350
55
  3
B4
350
56
  3
B5
350
57
  3
B6
350
58
  3
B7
350
59
  3
B8
350
5A
  3
B9
350
5B
  3
C0
350
5C
  3
C1
350
5D
  3
C2
350
5E
  3
C3
350
5F
  3
C4
350
60
  3
C5
350
61
  3
C6
350
62
  3
C7
350
63
  3
C8
350
64
  3
C9
350
65
  3
D0
350
66
  3
D1
350
67
  3
D2
350
68
  0
LAYOUT
  5
1E
102
{ACAD_REACTORS
330
1A
102
}
330
1A
100
AcDbPlotSettings
  1

  2
none_device
  4

  6

 40
0.0
 41
0.0
 42
0.0
 43
0.0
 44
0.0
 45
0.0
 46
0.0
 47
0.0
 48
0.0
 49
0.0
140
0.0
141
0.0
142
1.0
143
1.0
 70
   688
 72
     1
 73
     0
 74
     5
  7

 75
    16
147
1.0
148
0.0
149
0.0
100
AcDbLayout
  1
Layout1
 70
     1
 71
     1
 10
0.0
 20
0.0
 11
420.0
 21
297.0
 12
0.0
 22
0.0
 32
0.0
 14
1.0000000000E+20
 24
1.0000000000E+20
 34
1.0000000000E+20
 15
-1.0000000000E+20
 25
-1.0000000000E+20
 35
-1.0000000000E+20
146
0.0
 13
0.0
 23
0.0
 33
0.0
 16
1.0
 26
0.0
 36
0.0
 17
0.0
 27
1.0
 37
0.0
 76
     0
330
1B
  0
LAYOUT
  5
26
102
{ACAD_REACTORS
330
1A
102
}
330
1A
100
AcDbPlotSettings
  1

  2
none_device
  4

  6

 40
0.0
 41
0.0
 42
0.0
 43
0.0
 44
0.0
 45
0.0
 46
0.0
 47
0.0
 48
0.0
 49
0.0
140
0.0
141
0.0
142
1.0
143
1.0
 70
   688
 72
     1
 73
     0
 74
     5
  7

 75
    16
147
1.0
148
0.0
149
0.0
100
AcDbLayout
  1
Layout2
 70
     1
 71
     2
 10
0.0
 20
0.0
 11
0.0
 21
0.0
 12
0.0
 22
0.0
 32
0.0
 14
0.0
 24
0.0
 34
0.0
 15
0.0
 25
0.0
 35
0.0
146
0.0
 13
0.0
 23
0.0
 33
0.0
 16
1.0
 26
0.0
 36
0.0
 17
0.0
 27
1.0
 37
0.0
 76
     0
330
23
  0
LAYOUT
  5
22
102
{ACAD_REACTORS
330
1A
102
}
330
1A
100
AcDbPlotSettings
  1

  2
none_device
  4
ANSI_A_(11.00_x_8.50_Inches)
  6

 40
6.35
 41
19.05
 42
6.35000508
 43
19.05000254
 44
279.4
 45
215.9
 46
133.34999746
 47
88.89999873
 48
0.0
 49
0.0
140
0.0
141
0.0
142
0.0745890411
143
1.0
 70
  1696
 72
     0
 73
     0
 74
     0
  7

 75
     0
147
0.0179189148
148
-1300.4909072572
149
0.0
100
AcDbLayout
  1
Model
 70
     1
 71
     0
 10
0.0
 20
0.0
 11
420.0
 21
297.0
 12
0.0
 22
0.0
 32
0.0
 14
-73.0
 24
-30.0
 34
0.0
 15
73.0
 25
30.0
 35
0.0
146
0.0
 13
0.0
 23
0.0
 33
0.0
 16
1.0
 26
0.0
 36
0.0
 17
0.0
 27
1.0
 37
0.0
 76
     0
330
1F
331
29
  0
MLINESTYLE
  5
18
102
{ACAD_REACTORS
330
17
102
}
330
17
100
AcDbMlineStyle
  2
Standard
 70
     0
  3

 62
   256
 51
90.0
 52
90.0
 71
     2
 49
0.5
 62
   256
  6
BYLAYER
 49
-0.5
 62
   256
  6
BYLAYER
  0
ACDBPLACEHOLDER
  5
F
102
{ACAD_REACTORS
330
E
102
}
330
E
  0
SCALE
  5
48
102
{ACAD_REACTORS
330
47
102
}
330
47
100
AcDbScale
 70
     0
300
1:1
140
1.0
141
1.0
290
     1
  0
SCALE
  5
49
102
{ACAD_REACTORS
330
47
102
}
330
47
100
AcDbScale
 70
     0
300
1:2
140
1.0
141
2.0
290
     0
  0
SCALE
  5
4A
102
{ACAD_REACTORS
330
47
102
}
330
47
100
AcDbScale
 70
     0
300
1:4
140
1.0
141
4.0
290
     0
  0
SCALE
  5
4B
102
{ACAD_REACTORS
330
47
102
}
330
47
100
AcDbScale
 70
     0
300
1:5
140
1.0
141
5.0
290
     0
  0
SCALE
  5
4C
102
{ACAD_REACTORS
330
47
102
}
330
47
100
AcDbScale
 70
     0
300
1:8
140
1.0
141
8.0
290
     0
  0
SCALE
  5
4D
102
{ACAD_REACTORS
330
47
102
}
330
47
100
AcDbScale
 70
     0
300
1:10
140
1.0
141
10.0
290
     0
  0
SCALE
  5
4E
102
{ACAD_REACTORS
330
47
102
}
330
47
100
AcDbScale
 70
     0
300
1:16
140
1.0
141
16.0
290
     0
  0
SCALE
  5
4F
102
{ACAD_REACTORS
330
47
102
}
330
47
100
AcDbScale
 70
     0
300
1:20
140
1.0
141
20.0
290
     0
  0
SCALE
  5
50
102
{ACAD_REACTORS
330
47
102
}
330
47
100
AcDbScale
 70
     0
300
1:30
140
1.0
141
30.0
290
     0
  0
SCALE
  5
51
102
{ACAD_REACTORS
330
47
102
}
330
47
100
AcDbScale
 70
     0
300
1:40
140
1.0
141
40.0
290
     0
  0
SCALE
  5
52
102
{ACAD_REACTORS
330
47
102
}
330
47
100
AcDbScale
 70
     0
300
1:50
140
1.0
141
50.0
290
     0
  0
SCALE
  5
53
102
{ACAD_REACTORS
330
47
102
}
330
47
100
AcDbScale
 70
     0
300
1:100
140
1.0
141
100.0
290
     0
  0
SCALE
  5
54
102
{ACAD_REACTORS
330
47
102
}
330
47
100
AcDbScale
 70
     0
300
2:1
140
2.0
141
1.0
290
     0
  0
SCALE
  5
55
102
{ACAD_REACTORS
330
47
102
}
330
47
100
AcDbScale
 70
     0
300
4:1
140
4.0
141
1.0
290
     0
  0
SCALE
  5
56
102
{ACAD_REACTORS
330
47
102
}
330
47
100
AcDbScale
 70
     0
300
8:1
140
8.0
141
1.0
290
     0
  0
SCALE
  5
57
102
{ACAD_REACTORS
330
47
102
}
330
47
100
AcDbScale
 70
     0
300
10:1
140
10.0
141
1.0
290
     0
  0
SCALE
  5
58
102
{ACAD_REACTORS
330
47
102
}
330
47
100
AcDbScale
 70
     0
300
100:1
140
100.0
141
1.0
290
     0
  0
SCALE
  5
59
102
{ACAD_REACTORS
330
47
102
}
330
47
100
AcDbScale
 70
     0
300
1/128" = 1'-0"
140
0.0078125
141
12.0
290
     0
  0
SCALE
  5
5A
102
{ACAD_REACTORS
330
47
102
}
330
47
100
AcDbScale
 70
     0
300
1/64" = 1'-0"
140
0.015625
141
12.0
290
     0
  0
SCALE
  5
5B
102
{ACAD_REACTORS
330
47
102
}
330
47
100
AcDbScale
 70
     0
300
1/32" = 1'-0"
140
0.03125
141
12.0
290
     0
  0
SCALE
  5
5C
102
{ACAD_REACTORS
330
47
102
}
330
47
100
AcDbScale
 70
     0
300
1/16" = 1'-0"
140
0.0625
141
12.0
290
     0
  0
SCALE
  5
5D
102
{ACAD_REACTORS
330
47
102
}
330
47
100
AcDbScale
 70
     0
300
3/32" = 1'-0"
140
0.09375
141
12.0
290
     0
  0
SCALE
  5
5E
102
{ACAD_REACTORS
330
47
102
}
330
47
100
AcDbScale
 70
     0
300
1/8" = 1'-0"
140
0.125
141
12.0
290
     0
  0
SCALE
  5
5F
102
{ACAD_REACTORS
330
47
102
}
330
47
100
AcDbScale
 70
     0
300
3/16" = 1'-0"
140
0.1875
141
12.0
290
     0
  0
SCALE
  5
60
102
{ACAD_REACTORS
330
47
102
}
330
47
100
AcDbScale
 70
     0
300
1/4" = 1'-0"
140
0.25
141
12.0
290
     0
  0
SCALE
  5
61
102
{ACAD_REACTORS
330
47
102
}
330
47
100
AcDbScale
 70
     0
300
3/8" = 1'-0"
140
0.375
141
12.0
290
     0
  0
SCALE
  5
62
102
{ACAD_REACTORS
330
47
102
}
330
47
100
AcDbScale
 70
     0
300
1/2" = 1'-0"
140
0.5
141
12.0
290
     0
  0
SCALE
  5
63
102
{ACAD_REACTORS
330
47
102
}
330
47
100
AcDbScale
 70
     0
300
3/4" = 1'-0"
140
0.75
141
12.0
290
     0
  0
SCALE
  5
64
102
{ACAD_REACTORS
330
47
102
}
330
47
100
AcDbScale
 70
     0
300
1" = 1'-0"
140
1.0
141
12.0
290
     0
  0
SCALE
  5
65
102
{ACAD_REACTORS
330
47
102
}
330
47
100
AcDbScale
 70
     0
300
1-1/2" = 1'-0"
140
1.5
141
12.0
290
     0
  0
SCALE
  5
66
102
{ACAD_REACTORS
330
47
102
}
330
47
100
AcDbScale
 70
     0
300
3" = 1'-0"
140
3.0
141
12.0
290
     0
  0
SCALE
  5
67
102
{ACAD_REACTORS
330
47
102
}
330
47
100
AcDbScale
 70
     0
300
6" = 1'-0"
140
6.0
141
12.0
290
     0
  0
SCALE
  5
68
102
{ACAD_REACTORS
330
47
102
}
330
47
100
AcDbScale
 70
     0
300
1'-0" = 1'-0"
140
12.0
141
12.0
290
     0
  0
ENDSEC
  0
EOF
