  0
SECTION
  2
HEADER
  9
$ACADVER
  1
AC1015
  9
$ACADMAINTVER
 70
     6
  9
$DWGCODEPAGE
  3
ANSI_1252
  9
$INSBASE
 10
0.0
 20
0.0
 30
0.0
  9
$EXTMIN
 10
-100.0
 20
-125.5425740804
 30
0.0
  9
$EXTMAX
 10
100.0
 20
24.4574259196
 30
0.0
  9
$LIMMIN
 10
0.0
 20
0.0
  9
$LIMMAX
 10
420.0
 20
297.0
  9
$ORTHOMODE
 70
     0
  9
$REGENMODE
 70
     1
  9
$FILLMODE
 70
     1
  9
$QTEXTMODE
 70
     0
  9
$MIRRTEXT
 70
     1
  9
$LTSCALE
 40
1.0
  9
$ATTMODE
 70
     1
  9
$TEXTSIZE
 40
3.175
  9
$TRACEWID
 40
1.0
  9
$TEXTSTYLE
  7
Standard
  9
$CLAYER
  8
0
  9
$CELTYPE
  6
ByLayer
  9
$CECOLOR
 62
   256
  9
$CELTSCALE
 40
1.0
  9
$DISPSILH
 70
     0
  9
$DIMSCALE
 40
1.0
  9
$DIMASZ
 40
3.302
  9
$DIMEXO
 40
1.27
  9
$DIMDLI
 40
3.75
  9
$DIMRND
 40
0.0
  9
$DIMDLE
 40
0.0
  9
$DIMEXE
 40
3.175
  9
$DIMTP
 40
0.0
  9
$DIMTM
 40
0.0
  9
$DIMTXT
 40
3.175
  9
$DIMCEN
 40
2.5
  9
$DIMTSZ
 40
0.0
  9
$DIMTOL
 70
     0
  9
$DIMLIM
 70
     0
  9
$DIMTIH
 70
     1
  9
$DIMTOH
 70
     1
  9
$DIMSE1
 70
     0
  9
$DIMSE2
 70
     0
  9
$DIMTAD
 70
     0
  9
$DIMZIN
 70
     0
  9
$DIMBLK
  1

  9
$DIMASO
 70
     1
  9
$DIMSHO
 70
     1
  9
$DIMPOST
  1

  9
$DIMAPOST
  1

  9
$DIMALT
 70
     0
  9
$DIMALTD
 70
     3
  9
$DIMALTF
 40
0.0393700787
  9
$DIMLFAC
 40
1.0
  9
$DIMTOFL
 70
     1
  9
$DIMTVP
 40
0.0
  9
$DIMTIX
 70
     0
  9
$DIMSOXD
 70
     0
  9
$DIMSAH
 70
     0
  9
$DIMBLK1
  1

  9
$DIMBLK2
  1

  9
$DIMSTYLE
  2
ISO-25
  9
$DIMCLRD
 70
     0
  9
$DIMCLRE
 70
     0
  9
$DIMCLRT
 70
     0
  9
$DIMTFAC
 40
1.0
  9
$DIMGAP
 40
1.524
  9
$DIMJUST
 70
     0
  9
$DIMSD1
 70
     0
  9
$DIMSD2
 70
     0
  9
$DIMTOLJ
 70
     0
  9
$DIMTZIN
 70
     0
  9
$DIMALTZ
 70
     0
  9
$DIMALTTZ
 70
     0
  9
$DIMUPT
 70
     0
  9
$DIMDEC
 70
     2
  9
$DIMTDEC
 70
     2
  9
$DIMALTU
 70
     2
  9
$DIMALTTD
 70
     3
  9
$DIMTXSTY
  7
Standard
  9
$DIMAUNIT
 70
     0
  9
$DIMADEC
 70
     2
  9
$DIMALTRND
 40
0.0
  9
$DIMAZIN
 70
     0
  9
$DIMDSEP
 70
    44
  9
$DIMATFIT
 70
     3
  9
$DIMFRAC
 70
     0
  9
$DIMLDRBLK
  1

  9
$DIMLUNIT
 70
     2
  9
$DIMLWD
 70
    -2
  9
$DIMLWE
 70
    -2
  9
$DIMTMOVE
 70
     0
  9
$LUNITS
 70
     2
  9
$LUPREC
 70
     2
  9
$SKETCHINC
 40
1.0
  9
$FILLETRAD
 40
10.0
  9
$AUNITS
 70
     0
  9
$AUPREC
 70
     2
  9
$MENU
  1
.
  9
$ELEVATION
 40
0.0
  9
$PELEVATION
 40
0.0
  9
$THICKNESS
 40
0.0
  9
$LIMCHECK
 70
     0
  9
$CHAMFERA
 40
0.0
  9
$CHAMFERB
 40
0.0
  9
$CHAMFERC
 40
0.0
  9
$CHAMFERD
 40
0.0
  9
$SKPOLY
 70
     0
  9
$TDCREATE
 40
2458743.718616609
  9
$TDUCREATE
 40
2458743.635283276
  9
$TDUPDATE
 40
2458743.718721667
  9
$TDUUPDATE
 40
2458743.635388333
  9
$TDINDWG
 40
0.0000000116
  9
$TDUSRTIMER
 40
0.0000000116
  9
$USRTIMER
 70
     1
  9
$ANGBASE
 50
0.0
  9
$ANGDIR
 70
     0
  9
$PDMODE
 70
     0
  9
$PDSIZE
 40
-1.0
  9
$PLINEWID
 40
0.0
  9
$SPLFRAME
 70
     0
  9
$SPLINETYPE
 70
     6
  9
$SPLINESEGS
 70
     8
  9
$HANDSEED
  5
CF
  9
$SURFTAB1
 70
     6
  9
$SURFTAB2
 70
     6
  9
$SURFTYPE
 70
     6
  9
$SURFU
 70
     6
  9
$SURFV
 70
     6
  9
$UCSBASE
  2

  9
$UCSNAME
  2

  9
$UCSORG
 10
0.0
 20
0.0
 30
0.0
  9
$UCSXDIR
 10
1.0
 20
0.0
 30
0.0
  9
$UCSYDIR
 10
0.0
 20
1.0
 30
0.0
  9
$UCSORTHOREF
  2

  9
$UCSORTHOVIEW
 70
     0
  9
$UCSORGTOP
 10
0.0
 20
0.0
 30
0.0
  9
$UCSORGBOTTOM
 10
0.0
 20
0.0
 30
0.0
  9
$UCSORGLEFT
 10
0.0
 20
0.0
 30
0.0
  9
$UCSORGRIGHT
 10
0.0
 20
0.0
 30
0.0
  9
$UCSORGFRONT
 10
0.0
 20
0.0
 30
0.0
  9
$UCSORGBACK
 10
0.0
 20
0.0
 30
0.0
  9
$PUCSBASE
  2

  9
$PUCSNAME
  2

  9
$PUCSORG
 10
0.0
 20
0.0
 30
0.0
  9
$PUCSXDIR
 10
1.0
 20
0.0
 30
0.0
  9
$PUCSYDIR
 10
0.0
 20
1.0
 30
0.0
  9
$PUCSORTHOREF
  2

  9
$PUCSORTHOVIEW
 70
     0
  9
$PUCSORGTOP
 10
0.0
 20
0.0
 30
0.0
  9
$PUCSORGBOTTOM
 10
0.0
 20
0.0
 30
0.0
  9
$PUCSORGLEFT
 10
0.0
 20
0.0
 30
0.0
  9
$PUCSORGRIGHT
 10
0.0
 20
0.0
 30
0.0
  9
$PUCSORGFRONT
 10
0.0
 20
0.0
 30
0.0
  9
$PUCSORGBACK
 10
0.0
 20
0.0
 30
0.0
  9
$USERI1
 70
     0
  9
$USERI2
 70
     0
  9
$USERI3
 70
     0
  9
$USERI4
 70
     0
  9
$USERI5
 70
     0
  9
$USERR1
 40
0.0
  9
$USERR2
 40
0.0
  9
$USERR3
 40
0.0
  9
$USERR4
 40
0.0
  9
$USERR5
 40
0.0
  9
$WORLDVIEW
 70
     1
  9
$SHADEDGE
 70
     3
  9
$SHADEDIF
 70
    70
  9
$TILEMODE
 70
     1
  9
$MAXACTVP
 70
    64
  9
$PINSBASE
 10
0.0
 20
0.0
 30
0.0
  9
$PLIMCHECK
 70
     0
  9
$PEXTMIN
 10
1.0000000000E+20
 20
1.0000000000E+20
 30
1.0000000000E+20
  9
$PEXTMAX
 10
-1.0000000000E+20
 20
-1.0000000000E+20
 30
-1.0000000000E+20
  9
$PLIMMIN
 10
0.0
 20
0.0
  9
$PLIMMAX
 10
420.0
 20
297.0
  9
$UNITMODE
 70
     0
  9
$VISRETAIN
 70
     1
  9
$PLINEGEN
 70
     0
  9
$PSLTSCALE
 70
     1
  9
$TREEDEPTH
 70
  3020
  9
$CMLSTYLE
  2
Standard
  9
$CMLJUST
 70
     0
  9
$CMLSCALE
 40
20.0
  9
$PROXYGRAPHICS
 70
     1
  9
$MEASUREMENT
 70
     1
  9
$CELWEIGHT
370
    -1
  9
$ENDCAPS
280
     0
  9
$JOINSTYLE
280
     0
  9
$LWDISPLAY
290
     1
  9
$INSUNITS
 70
     4
  9
$HYPERLINKBASE
  1

  9
$STYLESHEET
  1

  9
$XEDIT
290
     1
  9
$CEPSNTYPE
380
     0
  9
$PSTYLEMODE
290
     1
  9
$FINGERPRINTGUID
  2
{C25BE8BE-7461-4C08-A198-CB26D3CA6CF9}
  9
$VERSIONGUID
  2
{FAEB1C32-E019-11D5-929B-00C0DF256EC4}
  9
$EXTNAMES
290
     1
  9
$PSVPSCALE
 40
0.0
  9
$OLESTARTUP
290
     0
  0
ENDSEC
  0
SECTION
  2
CLASSES
  0
CLASS
  1
ACDBDICTIONARYWDFLT
  2
AcDbDictionaryWithDefault
  3
ObjectDBX Classes
 90
        0
280
     0
281
     0
  0
CLASS
  1
VISUALSTYLE
  2
AcDbVisualStyle
  3
ObjectDBX Classes
 90
     4095
280
     0
281
     0
  0
CLASS
  1
MATERIAL
  2
AcDbMaterial
  3
ObjectDBX Classes
 90
     1153
280
     0
281
     0
  0
CLASS
  1
SCALE
  2
AcDbScale
  3
ObjectDBX Classes
 90
     1153
280
     0
281
     0
  0
CLASS
  1
TABLESTYLE
  2
AcDbTableStyle
  3
ObjectDBX Classes
 90
     4095
280
     0
281
     0
  0
CLASS
  1
MLEADERSTYLE
  2
AcDbMLeaderStyle
  3
ACDB_MLEADERSTYLE_CLASS
 90
     4095
280
     0
281
     0
  0
CLASS
  1
SUN
  2
AcDbSun
  3
SCENEOE
 90
     1153
280
     0
281
     0
  0
CLASS
  1
ACDBPLACEHOLDER
  2
AcDbPlaceHolder
  3
ObjectDBX Classes
 90
        0
280
     0
281
     0
  0
CLASS
  1
LAYOUT
  2
AcDbLayout
  3
ObjectDBX Classes
 90
        0
280
     0
281
     0
  0
ENDSEC
  0
SECTION
  2
TABLES
  0
TABLE
  2
VPORT
  5
8
330
0
100
AcDbSymbolTable
 70
     1
  0
VPORT
  5
29
330
8
100
AcDbSymbolTableRecord
100
AcDbViewportTableRecord
  2
*Active
 70
     0
 10
0.0
 20
0.0
 11
1.0
 21
1.0
 12
0.0
 22
-50.5425740804
 13
0.0
 23
0.0
 14
10.0
 24
10.0
 15
10.0
 25
10.0
 16
0.0
 26
0.0
 36
1.0
 17
0.0
 27
0.0
 37
0.0
 40
153.0
 41
1.3333333333
 42
50.0
 43
0.0
 44
0.0
 50
0.0
 51
0.0
 71
     0
 72
   100
 73
     1
 74
     3
 75
     0
 76
     0
 77
     0
 78
     0
281
     0
 65
     1
110
0.0
120
0.0
130
0.0
111
1.0
121
0.0
131
0.0
112
0.0
122
1.0
132
0.0
 79
     0
146
0.0
  0
ENDTAB
  0
TABLE
  2
LTYPE
  5
5
330
0
100
AcDbSymbolTable
 70
     6
  0
LTYPE
  5
14
330
5
100
AcDbSymbolTableRecord
100
AcDbLinetypeTableRecord
  2
ByBlock
 70
     0
  3

 72
    65
 73
     0
 40
0.0
  0
LTYPE
  5
15
330
5
100
AcDbSymbolTableRecord
100
AcDbLinetypeTableRecord
  2
ByLayer
 70
     0
  3

 72
    65
 73
     0
 40
0.0
  0
LTYPE
  5
16
330
5
100
AcDbSymbolTableRecord
100
AcDbLinetypeTableRecord
  2
Continuous
 70
     0
  3
Solid line
 72
    65
 73
     0
 40
0.0
  0
LTYPE
  5
6E
330
5
100
AcDbSymbolTableRecord
100
AcDbLinetypeTableRecord
  2
HIDDEN
 70
     0
  3
Hidden __ __ __ __ __ __ __ __ __ __ __ __ __ __
 72
    65
 73
     2
 40
1.905
 49
1.27
 74
     0
 49
-0.635
 74
     0
  0
LTYPE
  5
6F
330
5
100
AcDbSymbolTableRecord
100
AcDbLinetypeTableRecord
  2
PHANTOM
 70
     0
  3
Phantom ______  __  __  ______  __  __  ______
 72
    65
 73
     6
 40
12.7
 49
6.35
 74
     0
 49
-1.27
 74
     0
 49
1.27
 74
     0
 49
-1.27
 74
     0
 49
1.27
 74
     0
 49
-1.27
 74
     0
  0
LTYPE
  5
70
330
5
100
AcDbSymbolTableRecord
100
AcDbLinetypeTableRecord
  2
CENTER
 70
     0
  3
Center ____ _ ____ _ ____ _ ____ _ ____ _ ____
 72
    65
 73
     4
 40
10.16
 49
6.35
 74
     0
 49
-1.27
 74
     0
 49
1.27
 74
     0
 49
-1.27
 74
     0
  0
LTYPE
  5
71
330
5
100
AcDbSymbolTableRecord
100
AcDbLinetypeTableRecord
  2
CENTERX2
 70
     0
  3
Center (2x) ________  __  ________  __  _____
 72
    65
 73
     4
 40
20.32
 49
12.7
 74
     0
 49
-2.54
 74
     0
 49
2.54
 74
     0
 49
-2.54
 74
     0
  0
LTYPE
  5
72
330
5
100
AcDbSymbolTableRecord
100
AcDbLinetypeTableRecord
  2
DOT2
 70
     0
  3
Dot (.5x) ........................................
 72
    65
 73
     2
 40
0.635
 49
0.0
 74
     0
 49
-0.635
 74
     0
  0
ENDTAB
  0
TABLE
  2
LAYER
  5
2
330
0
100
AcDbSymbolTable
 70
     1
  0
LAYER
  5
10
330
2
100
AcDbSymbolTableRecord
100
AcDbLayerTableRecord
  2
0
 70
     0
 62
     7
  6
Continuous
370
    -3
390
F
  0
ENDTAB
  0
TABLE
  2
STYLE
  5
3
330
0
100
AcDbSymbolTable
 70
     1
  0
STYLE
  5
11
330
3
100
AcDbSymbolTableRecord
100
AcDbTextStyleTableRecord
  2
Standard
 70
     0
 40
0.0
 41
1.0
 50
0.0
 71
     0
 42
3.175
  3
txt
  4

  0
ENDTAB
  0
TABLE
  2
VIEW
  5
6
330
0
100
AcDbSymbolTable
 70
     0
  0
ENDTAB
  0
TABLE
  2
UCS
  5
7
330
0
100
AcDbSymbolTable
 70
     0
  0
ENDTAB
  0
TABLE
  2
APPID
  5
9
330
0
100
AcDbSymbolTable
 70
     1
  0
APPID
  5
12
330
9
100
AcDbSymbolTableRecord
100
AcDbRegAppTableRecord
  2
ACAD
 70
     0
  0
ENDTAB
  0
TABLE
  2
DIMSTYLE
  5
A
330
0
100
AcDbSymbolTable
 70
     1
100
AcDbDimStyleTable
  0
DIMSTYLE
105
27
330
A
100
AcDbSymbolTableRecord
100
AcDbDimStyleTableRecord
  2
ISO-25
 70
     0
 41
2.5
 42
0.625
 43
3.75
 44
1.25
 73
     0
 74
     0
 77
     1
 78
     8
140
2.5
141
2.5
143
0.0393700787
147
0.625
171
     3
172
     1
178
     0
271
     2
272
     2
274
     3
278
    44
283
     0
284
     8
340
11
  0
ENDTAB
  0
TABLE
  2
BLOCK_RECORD
  5
1
330
0
100
AcDbSymbolTable
 70
     1
  0
BLOCK_RECORD
  5
1F
330
1
100
AcDbSymbolTableRecord
100
AcDbBlockTableRecord
  2
*Model_Space
340
22
  0
BLOCK_RECORD
  5
1B
330
1
100
AcDbSymbolTableRecord
100
AcDbBlockTableRecord
  2
*Paper_Space
340
1E
  0
BLOCK_RECORD
  5
23
330
1
100
AcDbSymbolTableRecord
100
AcDbBlockTableRecord
  2
*Paper_Space0
340
26
  0
ENDTAB
  0
ENDSEC
  0
SECTION
  2
BLOCKS
  0
BLOCK
  5
20
330
1F
100
AcDbEntity
  8
0
100
AcDbBlockBegin
  2
*Model_Space
 70
     0
 10
0.0
 20
0.0
 30
0.0
  3
*Model_Space
  1

  0
ENDBLK
  5
21
330
1F
100
AcDbEntity
  8
0
100
AcDbBlockEnd
  0
BLOCK
  5
1C
330
1B
100
AcDbEntity
 67
     1
  8
0
100
AcDbBlockBegin
  2
*Paper_Space
 70
     0
 10
0.0
 20
0.0
 30
0.0
  3
*Paper_Space
  1

  0
ENDBLK
  5
1D
330
1B
100
AcDbEntity
 67
     1
  8
0
100
AcDbBlockEnd
  0
BLOCK
  5
24
330
23
100
AcDbEntity
  8
0
100
AcDbBlockBegin
  2
*Paper_Space0
 70
     0
 10
0.0
 20
0.0
 30
0.0
  3
*Paper_Space0
  1

  0
ENDBLK
  5
25
330
23
100
AcDbEntity
  8
0
100
AcDbBlockEnd
  0
ENDSEC
  0
SECTION
  2
ENTITIES
  0
CIRCLE
  5
7E
330
1F
100
AcDbEntity
  8
0
  6
Continuous
 62
     7
370
    15
100
AcDbCircle
 10
-70.0
 20
-95.5425740804
 30
0.0
 40
2.0
  0
CIRCLE
  5
7F
330
1F
100
AcDbEntity
  8
0
  6
Continuous
 62
     7
370
    15
100
AcDbCircle
 10
70.0
 20
-95.5425740804
 30
0.0
 40
2.000000000000028
  0
CIRCLE
  5
80
330
1F
100
AcDbEntity
  8
0
  6
Continuous
 62
     7
370
    15
100
AcDbCircle
 10
-70.0
 20
-24.3167871783
 30
0.0
 40
1.999999999999975
  0
CIRCLE
  5
81
330
1F
100
AcDbEntity
  8
0
  6
Continuous
 62
     7
370
    15
100
AcDbCircle
 10
70.0
 20
-24.3167871783
 30
0.0
 40
1.999999999999975
  0
SPLINE
  5
9F
330
1F
100
AcDbEntity
  8
0
  6
Continuous
 62
     7
370
    15
100
AcDbSpline
210
0.0
220
0.0
230
1.0
 70
     8
 71
     3
 72
    31
 73
    27
 74
     0
 42
0.000000001
 43
0.00000001
 40
0.0
 40
0.0
 40
0.0
 40
0.0
 40
0.041702529263033
 40
0.0828718221519202
 40
0.1237142076252204
 40
0.1644335786475723
 40
0.2049416820204126
 40
0.245726975778674
 40
0.2869913779451654
 40
0.3286109982051768
 40
0.3704375828309137
 40
0.4117418257657285
 40
0.452911118654617
 40
0.4938071647002114
 40
0.5347782174763195
 40
0.575994759886445
 40
0.617818067362846
 40
0.6603085507504985
 40
0.7030325867020681
 40
0.7452161540270369
 40
0.7872075757003633
 40
0.8290839414203847
 40
0.8712441073748015
 40
0.9136312388711525
 40
0.9564322019971336
 40
1.0
 40
1.0
 40
1.0
 40
1.0
 10
-9.13435074976653
 20
-113.1702243452521
 30
0.0
 10
-9.131402402105433
 20
-113.0275034975856
 30
0.0
 10
-9.125543406324356
 20
-112.7438867262722
 30
0.0
 10
-9.083913011870393
 20
-112.3221312751333
 30
0.0
 10
-9.014460275976614
 20
-111.9075866612193
 30
0.0
 10
-8.91530045411897
 20
-111.5014465946531
 30
0.0
 10
-8.790270690289578
 20
-111.1027375821746
 30
0.0
 10
-8.63577080256584
 20
-110.7124305791205
 30
0.0
 10
-8.452859537371896
 20
-110.3304241348621
 30
0.0
 10
-8.243335128583281
 20
-109.9583407873627
 30
0.0
 10
-8.012332045195476
 20
-109.5989479314959
 30
0.0
 10
-7.756068537571681
 20
-109.2589834676636
 30
0.0
 10
-7.479948491536204
 20
-108.9391942031767
 30
0.0
 10
-7.18288963398474
 20
-108.6403627272091
 30
0.0
 10
-6.867359525066582
 20
-108.3609197740079
 30
0.0
 10
-6.532033375365086
 20
-108.1003722566693
 30
0.0
 10
-6.176100518401112
 20
-107.8591729018095
 30
0.0
 10
-5.79889390194955
 20
-107.6425163390465
 30
0.0
 10
-5.409943927916532
 20
-107.4449153818286
 30
0.0
 10
-5.008890938328597
 20
-107.2775637590404
 30
0.0
 10
-4.602546123849499
 20
-107.1321453032923
 30
0.0
 10
-4.187415199614582
 20
-107.0140755944223
 30
0.0
 10
-3.764227753246563
 20
-106.9225379118823
 30
0.0
 10
-3.332923423147625
 20
-106.85900442203
 30
0.0
 10
-2.89407391451394
 20
-106.8150439729469
 30
0.0
 10
-2.598402752141844
 20
-106.8114568885448
 30
0.0
 10
-2.449254595920373
 20
-106.8096474221752
 30
0.0
  0
SPLINE
  5
A0
330
1F
100
AcDbEntity
  8
0
  6
Continuous
 62
     7
370
    15
100
AcDbSpline
210
0.0
220
0.0
230
1.0
 70
     8
 71
     3
 72
    23
 73
    19
 74
     0
 42
0.000000001
 43
0.00000001
 40
0.0
 40
0.0
 40
0.0
 40
0.0
 40
0.0690211983663307
 40
0.1354734547010594
 40
0.1999349662574424
 40
0.2632483898435394
 40
0.3257564439751928
 40
0.3879087597219456
 40
0.4506272389563387
 40
0.5145133034222836
 40
0.5778453346730829
 40
0.6388916892228385
 40
0.6986559434210076
 40
0.7576517255772284
 40
0.8166733754145727
 40
0.8761717738703777
 40
0.9372111092782027
 40
1.0
 40
1.0
 40
1.0
 40
1.0
 10
-2.449254595920373
 20
-106.8096474221752
 30
0.0
 10
-2.210250294498788
 20
-106.8152913881866
 30
0.0
 10
-1.741137338358199
 20
-106.8263692539999
 30
0.0
 10
-1.05260010278164
 20
-106.9104581862215
 30
0.0
 10
-0.3956265600005416
 20
-107.0574010575067
 30
0.0
 10
0.2349986115265782
 20
-107.2516177071495
 30
0.0
 10
0.8330132307961994
 20
-107.511533007535
 30
0.0
 10
1.401913507858824
 20
-107.8253927215669
 30
0.0
 10
1.940223039466806
 20
-108.1979491399886
 30
0.0
 10
2.443138545868613
 20
-108.6231671891016
 30
0.0
 10
2.901482907059385
 20
-109.0878040657057
 30
0.0
 10
3.305569830325164
 20
-109.5826263289007
 30
0.0
 10
3.641608312984307
 20
-110.1079380760697
 30
0.0
 10
3.92560109429742
 20
-110.6554285518809
 30
0.0
 10
4.137939972176837
 20
-111.2337619064127
 30
0.0
 10
4.293457564821724
 20
-111.8365885012669
 30
0.0
 10
4.386018721087884
 20
-112.466236860157
 30
0.0
 10
4.398023561140101
 20
-112.8950806164221
 30
0.0
 10
4.404110788695008
 20
-113.1125320375598
 30
0.0
  0
SPLINE
  5
A1
330
1F
100
AcDbEntity
  8
0
  6
Continuous
 62
     7
370
    15
100
AcDbSpline
210
0.0
220
0.0
230
1.0
 70
     8
 71
     3
 72
    23
 73
    19
 74
     0
 42
0.000000001
 43
0.00000001
 40
0.0
 40
0.0
 40
0.0
 40
0.0
 40
0.0681254897897316
 40
0.1341592404765459
 40
0.1985765514967258
 40
0.2615260037418123
 40
0.3240608011786356
 40
0.386789096402846
 40
0.4501215554840279
 40
0.5145142302958674
 40
0.5785255408928985
 40
0.6402266593431525
 40
0.7004355062798117
 40
0.7595410414918041
 40
0.8184030805749613
 40
0.8776339144560978
 40
0.937939463532062
 40
1.0
 40
1.0
 40
1.0
 40
1.0
 10
-2.343485365151141
 20
-119.4250320375598
 30
0.0
 10
-2.57695009629178
 20
-119.4197515024132
 30
0.0
 10
-3.036711209269646
 20
-119.4093525667613
 30
0.0
 10
-3.712206710018758
 20
-119.3193114274148
 30
0.0
 10
-4.360699664282195
 20
-119.1799427792749
 30
0.0
 10
-4.980525123733876
 20
-118.9786026977874
 30
0.0
 10
-5.572321799519059
 20
-118.7202760194471
 30
0.0
 10
-6.137109172435125
 20
-118.4043246099889
 30
0.0
 10
-6.672334654637328
 20
-118.0294260147303
 30
0.0
 10
-7.173565891151688
 20
-117.6036255513559
 30
0.0
 10
-7.631923667254684
 20
-117.139805587959
 30
0.0
 10
-8.034841867655746
 20
-116.6450430712577
 30
0.0
 10
-8.372094354692516
 20
-116.123308799643
 30
0.0
 10
-8.651102103901483
 20
-115.5793044500556
 30
0.0
 10
-8.869213940841835
 20
-115.0114164865749
 30
0.0
 10
-9.022819267854246
 20
-114.4188157005915
 30
0.0
 10
-9.116441893042982
 20
-113.8022170704018
 30
0.0
 10
-9.128324324494155
 20
-113.3828932492247
 30
0.0
 10
-9.13435074976653
 20
-113.1702243452521
 30
0.0
  0
SPLINE
  5
A2
330
1F
100
AcDbEntity
  8
0
  6
Continuous
 62
     7
370
    15
100
AcDbSpline
210
0.0
220
0.0
230
1.0
 70
     8
 71
     3
 72
    23
 73
    19
 74
     0
 42
0.000000001
 43
0.00000001
 40
0.0
 40
0.0
 40
0.0
 40
0.0
 40
0.0629310646059287
 40
0.1240999774932848
 40
0.1839491513285644
 40
0.2433243147172939
 40
0.3029948604965757
 40
0.363465754533253
 40
0.4254680818493206
 40
0.489417772980856
 40
0.5538963624381297
 40
0.6167818586241479
 40
0.6791542763669385
 40
0.7411975405021711
 40
0.8039335140150866
 40
0.8673727087248385
 40
0.9326441389004034
 40
1.0
 40
1.0
 40
1.0
 40
1.0
 10
4.404110788695008
 20
-113.1125320375598
 30
0.0
 10
4.398050368934313
 20
-113.3283920659395
 30
0.0
 10
4.386099229054325
 20
-113.754067760946
 30
0.0
 10
4.293053577245216
 20
-114.3795824013736
 30
0.0
 10
4.138376676658232
 20
-114.9795429705221
 30
0.0
 10
3.9236425457028
 20
-115.555449046032
 30
0.0
 10
3.645900790738487
 20
-116.1062835354732
 30
0.0
 10
3.303525104833898
 20
-116.630032235313
 30
0.0
 10
2.902767408083832
 20
-117.1293403910736
 30
0.0
 10
2.4456609486762
 20
-117.597050460792
 30
0.0
 10
1.945808282636392
 20
-118.023324324817
 30
0.0
 10
1.413543804049984
 20
-118.3990490893015
 30
0.0
 10
0.8549488484801946
 20
-118.7184153414075
 30
0.0
 10
0.2660063623340816
 20
-118.975934065716
 30
0.0
 10
-0.3476382965606188
 20
-119.1795005269742
 30
0.0
 10
-0.9898975693361364
 20
-119.3195406844242
 30
0.0
 10
-1.657446562082971
 20
-119.4093285278729
 30
0.0
 10
-2.112422229183565
 20
-119.4197429749329
 30
0.0
 10
-2.343485365151141
 20
-119.4250320375598
 30
0.0
  0
SPLINE
  5
A3
330
1F
100
AcDbEntity
  8
0
  6
Continuous
 62
     7
370
    15
100
AcDbSpline
210
0.0
220
0.0
230
1.0
 70
     8
 71
     3
 72
    31
 73
    27
 74
     0
 42
0.000000001
 43
0.00000001
 40
0.0
 40
0.0
 40
0.0
 40
0.0
 40
0.0416507883705571
 40
0.082613251449044
 40
0.1227762263795379
 40
0.1626725878135136
 40
0.2022537219911016
 40
0.2416501574624383
 40
0.2813217605450355
 40
0.3215964119265317
 40
0.3618864073968397
 40
0.4021477558377976
 40
0.4425847583172404
 40
0.483191581599318
 40
0.5245793671870154
 40
0.5662647677222192
 40
0.6091113100661616
 40
0.6528044573146184
 40
0.6968432925025067
 40
0.74034646659112
 40
0.7834700503083978
 40
0.8267281555480728
 40
0.8695756596010626
 40
0.9128137562450163
 40
0.9560623347364449
 40
1.0
 40
1.0
 40
1.0
 40
1.0
 10
3.173341557925782
 20
-113.110128191406
 30
0.0
 10
3.170901579663661
 20
-112.9938596558425
 30
0.0
 10
3.166061946475797
 20
-112.7632440507146
 30
0.0
 10
3.131393694008285
 20
-112.421962657591
 30
0.0
 10
3.076744616683043
 20
-112.0883902113328
 30
0.0
 10
2.997517320160627
 20
-111.7636025207414
 30
0.0
 10
2.893538851315978
 20
-111.4481821175227
 30
0.0
 10
2.767688647711216
 20
-111.141603013275
 30
0.0
 10
2.621083539900398
 20
-110.8421570291433
 30
0.0
 10
2.450347272829231
 20
-110.5528978129042
 30
0.0
 10
2.260835591647349
 20
-110.2736521999041
 30
0.0
 10
2.051169952620145
 20
-110.0084858762168
 30
0.0
 10
1.82203623317557
 20
-109.7589284294975
 30
0.0
 10
1.576327543648651
 20
-109.5209660371322
 30
0.0
 10
1.308980299895607
 20
-109.3021620371234
 30
0.0
 10
1.026613649719957
 20
-109.0925324297869
 30
0.0
 10
0.7234176391473285
 20
-108.9017918715501
 30
0.0
 10
0.4048256435505759
 20
-108.7244780046598
 30
0.0
 10
0.0752337390356709
 20
-108.5641796250441
 30
0.0
 10
-0.2618244644352702
 20
-108.4242387173813
 30
0.0
 10
-0.6049233712652098
 20
-108.3065587994617
 30
0.0
 10
-0.9519123209556207
 20
-108.2072816469583
 30
0.0
 10
-1.305443017996295
 20
-108.1324585009814
 30
0.0
 10
-1.662879889447003
 20
-108.0812076764355
 30
0.0
 10
-2.025417117222576
 20
-108.0444522456887
 30
0.0
 10
-2.268872505091477
 20
-108.0417689198534
 30
0.0
 10
-2.391562288228066
 20
-108.0404166529444
 30
0.0
  0
SPLINE
  5
A4
330
1F
100
AcDbEntity
  8
0
  6
Continuous
 62
     7
370
    15
100
AcDbSpline
210
0.0
220
0.0
230
1.0
 70
     8
 71
     3
 72
    31
 73
    27
 74
     0
 42
0.000000001
 43
0.00000001
 40
0.0
 40
0.0
 40
0.0
 40
0.0
 40
0.0430964315858299
 40
0.0857928876361613
 40
0.1281985585366058
 40
0.1705039322920641
 40
0.212953347950327
 40
0.2558252524605552
 40
0.2988182018700267
 40
0.3423611615965307
 40
0.3858235344252277
 40
0.4283622438130533
 40
0.4700073231714731
 40
0.5113781572796627
 40
0.5522030562974206
 40
0.5926789314327878
 40
0.6334107798214416
 40
0.6743557241441628
 40
0.7148967614691404
 40
0.755228704685968
 40
0.7954418495793028
 40
0.8354998240254221
 40
0.8756934771066234
 40
0.9164890678543007
 40
0.9577560904118301
 40
1.0
 40
1.0
 40
1.0
 40
1.0
 10
-2.391562288228067
 20
-108.0404166529444
 30
0.0
 10
-2.511846090150529
 20
-108.0418057002467
 30
0.0
 10
-2.751297346856827
 20
-108.044570903182
 30
0.0
 10
-3.107479041416581
 20
-108.0809661495932
 30
0.0
 10
-3.459211644377084
 20
-108.1328220753145
 30
0.0
 10
-3.806556963298609
 20
-108.2067868808043
 30
0.0
 10
-4.148287759581056
 20
-108.3075350934721
 30
0.0
 10
-4.487080948645479
 20
-108.4236860219005
 30
0.0
 10
-4.820001204855776
 20
-108.564158933558
 30
0.0
 10
-5.14504865102944
 20
-108.7253390965549
 30
0.0
 10
-5.46132727092055
 20
-108.9006848025509
 30
0.0
 10
-5.759556253098683
 20
-109.0959300386062
 30
0.0
 10
-6.039502964516631
 20
-109.3067603286084
 30
0.0
 10
-6.304261520900126
 20
-109.5290972417635
 30
0.0
 10
-6.54997383846861
 20
-109.7677611635507
 30
0.0
 10
-6.777377431028436
 20
-110.0215263333276
 30
0.0
 10
-6.986073395349886
 20
-110.2912578053194
 30
0.0
 10
-7.178028362729969
 20
-110.5733667576781
 30
0.0
 10
-7.348947972871618
 20
-110.8674323607811
 30
0.0
 10
-7.498868436376327
 20
-111.1704945364138
 30
0.0
 10
-7.623779319632528
 20
-111.483313644806
 30
0.0
 10
-7.724554049441967
 20
-111.8042178701592
 30
0.0
 10
-7.80431681466666
 20
-112.13262635241
 30
0.0
 10
-7.862174527781303
 20
-112.4690315490278
 30
0.0
 10
-7.89622177101061
 20
-112.8145532110403
 30
0.0
 10
-7.901109212370732
 20
-113.0475536481231
 30
0.0
 10
-7.903581518997298
 20
-113.1654166529445
 30
0.0
  0
SPLINE
  5
A5
330
1F
100
AcDbEntity
  8
0
  6
Continuous
 62
     7
370
    15
100
AcDbSpline
210
0.0
220
0.0
230
1.0
 70
     8
 71
     3
 72
    31
 73
    27
 74
     0
 42
0.000000001
 43
0.00000001
 40
0.0
 40
0.0
 40
0.0
 40
0.0
 40
0.0449190622534496
 40
0.0891221639081751
 40
0.1327665352682068
 40
0.1760155008081185
 40
0.2189617136984416
 40
0.2617428418251549
 40
0.3047119065508426
 40
0.3478244695643758
 40
0.3907173141595871
 40
0.4327694281105215
 40
0.4740707526174097
 40
0.5148668827455588
 40
0.5551179633943543
 40
0.595425910223085
 40
0.6357632741019758
 40
0.6763785337969122
 40
0.7169988285454493
 40
0.7570379848549182
 40
0.7968188742277089
 40
0.8367977128626636
 40
0.8768246085340045
 40
0.9171213915536487
 40
0.9582172034531079
 40
1.0
 40
1.0
 40
1.0
 40
1.0
 10
-2.391562288228066
 20
-118.1942628067906
 30
0.0
 10
-2.265694923781283
 20
-118.1926213787297
 30
0.0
 10
-2.01596638266387
 20
-118.1893646851715
 30
0.0
 10
-1.645104851223939
 20
-118.1570033254392
 30
0.0
 10
-1.281395781822477
 20
-118.1045983326206
 30
0.0
 10
-0.9252403614098267
 20
-118.0294336533226
 30
0.0
 10
-0.5762447111169328
 20
-117.9353643323462
 30
0.0
 10
-0.2331534233515637
 20
-117.8235514863536
 30
0.0
 10
0.1003720741885672
 20
-117.6847153429863
 30
0.0
 10
0.4271011681278288
 20
-117.5299660576225
 30
0.0
 10
0.7401756436602723
 20
-117.3543402506758
 30
0.0
 10
1.039601812017027
 20
-117.1656095901279
 30
0.0
 10
1.318510615393612
 20
-116.9573184961087
 30
0.0
 10
1.581165171395704
 20
-116.73678199856
 30
0.0
 10
1.825472925020758
 20
-116.4998629530636
 30
0.0
 10
2.050952735758713
 20
-116.2468481510989
 30
0.0
 10
2.26172556319607
 20
-115.9800334006919
 30
0.0
 10
2.450260234339683
 20
-115.6960295855362
 30
0.0
 10
2.621177718765938
 20
-115.4021005161475
 30
0.0
 10
2.767700537068952
 20
-115.0978160843946
 30
0.0
 10
2.893598007676704
 20
-114.7864527512931
 30
0.0
 10
2.99713086773757
 20
-114.4669209913573
 30
0.0
 10
3.076803707039945
 20
-114.1390772562201
 30
0.0
 10
3.131375799934991
 20
-113.8030859713811
 30
0.0
 10
3.16606525990318
 20
-113.4594123302371
 30
0.0
 10
3.170902759165978
 20
-113.2271978498991
 30
0.0
 10
3.173341557925782
 20
-113.110128191406
 30
0.0
  0
SPLINE
  5
A6
330
1F
100
AcDbEntity
  8
0
  6
Continuous
 62
     7
370
    15
100
AcDbSpline
210
0.0
220
0.0
230
1.0
 70
     8
 71
     3
 72
    23
 73
    19
 74
     0
 42
0.000000001
 43
0.00000001
 40
0.0
 40
0.0
 40
0.0
 40
0.0
 40
0.062624110366472
 40
0.1232296068449545
 40
0.1825791299731105
 40
0.2415147167732906
 40
0.3009602222595082
 40
0.3611102615466295
 40
0.4229855330669343
 40
0.4870706148542417
 40
0.5518764195444819
 40
0.6152411811441039
 40
0.6777044313171605
 40
0.7403613332075204
 40
0.8033598521222808
 40
0.8670834891847286
 40
0.9324842567111031
 40
1.0
 40
1.0
 40
1.0
 40
1.0
 10
-7.903581518997297
 20
-113.1654166529444
 30
0.0
 10
-7.898210266465171
 20
-113.3387377016516
 30
0.0
 10
-7.887640897352776
 20
-113.6797930007234
 30
0.0
 10
-7.812726488807308
 20
-114.1809048380745
 30
0.0
 10
-7.683291296378527
 20
-114.6595749532469
 30
0.0
 10
-7.508287160722981
 20
-115.1203548656293
 30
0.0
 10
-7.277404331800115
 20
-115.5582811749324
 30
0.0
 10
-7.000063222906925
 20
-115.9781325761356
 30
0.0
 10
-6.666845655294043
 20
-116.3720619428152
 30
0.0
 10
-6.292646828779111
 20
-116.7453901967625
 30
0.0
 10
-5.880146384671198
 20
-117.0827295009052
 30
0.0
 10
-5.443648210366857
 20
-117.3801064169695
 30
0.0
 10
-4.986383542275647
 20
-117.6330107092992
 30
0.0
 10
-4.506209078239547
 20
-117.8359580313597
 30
0.0
 10
-4.007433541529812
 20
-117.9995850255109
 30
0.0
 10
-3.48673085711191
 20
-118.110234502251
 30
0.0
 10
-2.946554930555748
 20
-118.1837677399549
 30
0.0
 10
-2.578511943282827
 20
-118.1907275362752
 30
0.0
 10
-2.391562288228067
 20
-118.1942628067906
 30
0.0
  0
LINE
  5
A7
330
1F
100
AcDbEntity
  8
0
  6
Continuous
 62
     7
370
    15
100
AcDbLine
 10
-18.0881969036
 20
-119.1173397299
 30
0.0
 11
-25.4728122882
 21
-119.1173397299
 31
0.0
  0
LINE
  5
A8
330
1F
100
AcDbEntity
  8
0
  6
Continuous
 62
     7
370
    15
100
AcDbLine
 10
-18.0881969036
 20
-117.8865704991
 30
0.0
 11
-18.0881969036
 21
-119.1173397299
 31
0.0
  0
LINE
  5
A9
330
1F
100
AcDbEntity
  8
0
  6
Continuous
 62
     7
370
    15
100
AcDbLine
 10
-24.2420430575
 20
-117.8865704991
 30
0.0
 11
-18.0881969036
 21
-117.8865704991
 31
0.0
  0
LINE
  5
AA
330
1F
100
AcDbEntity
  8
0
  6
Continuous
 62
     7
370
    15
100
AcDbLine
 10
-24.2420430575
 20
-113.2711858837
 30
0.0
 11
-24.2420430575
 21
-117.8865704991
 31
0.0
  0
LINE
  5
AB
330
1F
100
AcDbEntity
  8
0
  6
Continuous
 62
     7
370
    15
100
AcDbLine
 10
-18.0881969036
 20
-113.2711858837
 30
0.0
 11
-24.2420430575
 21
-113.2711858837
 31
0.0
  0
LINE
  5
AC
330
1F
100
AcDbEntity
  8
0
  6
Continuous
 62
     7
370
    15
100
AcDbLine
 10
-18.0881969036
 20
-112.0404166529
 30
0.0
 11
-18.0881969036
 21
-113.2711858837
 31
0.0
  0
LINE
  5
AD
330
1F
100
AcDbEntity
  8
0
  6
Continuous
 62
     7
370
    15
100
AcDbLine
 10
-24.2420430575
 20
-112.0404166529
 30
0.0
 11
-18.0881969036
 21
-112.0404166529
 31
0.0
  0
LINE
  5
AE
330
1F
100
AcDbEntity
  8
0
  6
Continuous
 62
     7
370
    15
100
AcDbLine
 10
-18.0881969036
 20
-108.3481089606
 30
0.0
 11
-24.2420430575
 21
-108.3481089606
 31
0.0
  0
LINE
  5
AF
330
1F
100
AcDbEntity
  8
0
  6
Continuous
 62
     7
370
    15
100
AcDbLine
 10
-18.0881969036
 20
-107.1173397299
 30
0.0
 11
-18.0881969036
 21
-108.3481089606
 31
0.0
  0
LINE
  5
B0
330
1F
100
AcDbEntity
  8
0
  6
Continuous
 62
     7
370
    15
100
AcDbLine
 10
-25.4728122882
 20
-107.1173397299
 30
0.0
 11
-18.0881969036
 21
-107.1173397299
 31
0.0
  0
LINE
  5
B1
330
1F
100
AcDbEntity
  8
0
  6
Continuous
 62
     7
370
    15
100
AcDbLine
 10
-25.4728122882
 20
-119.1173397299
 30
0.0
 11
-25.4728122882
 21
-107.1173397299
 31
0.0
  0
LINE
  5
B2
330
1F
100
AcDbEntity
  8
0
  6
Continuous
 62
     7
370
    15
100
AcDbLine
 10
80.0
 20
9.4574259196
 30
0.0
 11
65.0
 21
24.4574259196
 31
0.0
  0
LINE
  5
B3
330
1F
100
AcDbEntity
  8
0
  6
Continuous
 62
     7
370
    15
100
AcDbLine
 10
80.0
 20
-10.5425740804
 30
0.0
 11
80.0
 21
9.4574259196
 31
0.0
  0
LINE
  5
B4
330
1F
100
AcDbEntity
  8
0
  6
Continuous
 62
     7
370
    15
100
AcDbLine
 10
100.0
 20
-30.5425740804
 30
0.0
 11
80.0
 21
-10.5425740804
 31
0.0
  0
LINE
  5
B5
330
1F
100
AcDbEntity
  8
0
  6
Continuous
 62
     7
370
    15
100
AcDbLine
 10
100.0
 20
-105.5425740804
 30
0.0
 11
100.0
 21
-30.5425740804
 31
0.0
  0
LINE
  5
B6
330
1F
100
AcDbEntity
  8
0
  6
Continuous
 62
     7
370
    15
100
AcDbLine
 10
80.0
 20
-125.5425740804
 30
0.0
 11
100.0
 21
-105.5425740804
 31
0.0
  0
LINE
  5
B7
330
1F
100
AcDbEntity
  8
0
  6
Continuous
 62
     7
370
    15
100
AcDbLine
 10
-80.0
 20
-125.5425740804
 30
0.0
 11
80.0
 21
-125.5425740804
 31
0.0
  0
LINE
  5
B8
330
1F
100
AcDbEntity
  8
0
  6
Continuous
 62
     7
370
    15
100
AcDbLine
 10
-100.0
 20
-105.5425740804
 30
0.0
 11
-80.0
 21
-125.5425740804
 31
0.0
  0
LINE
  5
B9
330
1F
100
AcDbEntity
  8
0
  6
Continuous
 62
     7
370
    15
100
AcDbLine
 10
-100.0
 20
-30.5425740804
 30
0.0
 11
-100.0
 21
-105.5425740804
 31
0.0
  0
LINE
  5
BA
330
1F
100
AcDbEntity
  8
0
  6
Continuous
 62
     7
370
    15
100
AcDbLine
 10
-80.0
 20
-10.5425740804
 30
0.0
 11
-100.0
 21
-30.5425740804
 31
0.0
  0
LINE
  5
BB
330
1F
100
AcDbEntity
  8
0
  6
Continuous
 62
     7
370
    15
100
AcDbLine
 10
-80.0
 20
9.4574259196
 30
0.0
 11
-80.0
 21
-10.5425740804
 31
0.0
  0
LINE
  5
BC
330
1F
100
AcDbEntity
  8
0
  6
Continuous
 62
     7
370
    15
100
AcDbLine
 10
65.0
 20
24.4574259196
 30
0.0
 11
-65.0
 21
24.4574259196
 31
0.0
  0
LINE
  5
BD
330
1F
100
AcDbEntity
  8
0
  6
Continuous
 62
     7
370
    15
100
AcDbLine
 10
20.0
 20
-60.8801721746
 30
0.0
 11
20.0
 21
-40.2049759861
 31
0.0
  0
LINE
  5
BE
330
1F
100
AcDbEntity
  8
0
  6
Continuous
 62
     7
370
    15
100
AcDbLine
 10
10.3375980942
 20
-30.5425740804
 30
0.0
 11
-10.3375980942
 21
-30.5425740804
 31
0.0
  0
LINE
  5
BF
330
1F
100
AcDbEntity
  8
0
  6
Continuous
 62
     7
370
    15
100
AcDbLine
 10
-20.0
 20
-40.2049759861
 30
0.0
 11
-20.0
 21
-60.8801721746
 31
0.0
  0
LINE
  5
C0
330
1F
100
AcDbEntity
  8
0
  6
Continuous
 62
     7
370
    15
100
AcDbLine
 10
-10.3375980942
 20
-70.5425740804
 30
0.0
 11
10.3375980942
 21
-70.5425740804
 31
0.0
  0
LINE
  5
C1
330
1F
100
AcDbEntity
  8
0
  6
Continuous
 62
     7
370
    15
100
AcDbLine
 10
15.8194954041
 20
-119.1173397299
 30
0.0
 11
15.8194954041
 21
-108.3481089606
 31
0.0
  0
LINE
  5
C2
330
1F
100
AcDbEntity
  8
0
  6
Continuous
 62
     7
370
    15
100
AcDbLine
 10
17.0502646348
 20
-119.1173397299
 30
0.0
 11
15.8194954041
 21
-119.1173397299
 31
0.0
  0
LINE
  5
C3
330
1F
100
AcDbEntity
  8
0
  6
Continuous
 62
     7
370
    15
100
AcDbLine
 10
17.0502646348
 20
-108.3481089606
 30
0.0
 11
17.0502646348
 21
-119.1173397299
 31
0.0
  0
LINE
  5
C4
330
1F
100
AcDbEntity
  8
0
  6
Continuous
 62
     7
370
    15
100
AcDbLine
 10
19.9733415579
 20
-108.3481089606
 30
0.0
 11
17.0502646348
 21
-108.3481089606
 31
0.0
  0
LINE
  5
C5
330
1F
100
AcDbEntity
  8
0
  6
Continuous
 62
     7
370
    15
100
AcDbLine
 10
19.9733415579
 20
-107.1173397299
 30
0.0
 11
19.9733415579
 21
-108.3481089606
 31
0.0
  0
LINE
  5
C6
330
1F
100
AcDbEntity
  8
0
  6
Continuous
 62
     7
370
    15
100
AcDbLine
 10
12.896418481
 20
-107.1173397299
 30
0.0
 11
19.9733415579
 21
-107.1173397299
 31
0.0
  0
LINE
  5
C7
330
1F
100
AcDbEntity
  8
0
  6
Continuous
 62
     7
370
    15
100
AcDbLine
 10
12.896418481
 20
-108.3481089606
 30
0.0
 11
12.896418481
 21
-107.1173397299
 31
0.0
  0
LINE
  5
C8
330
1F
100
AcDbEntity
  8
0
  6
Continuous
 62
     7
370
    15
100
AcDbLine
 10
15.8194954041
 20
-108.3481089606
 30
0.0
 11
12.896418481
 21
-108.3481089606
 31
0.0
  0
LINE
  5
C9
330
1F
100
AcDbEntity
  8
0
  6
Continuous
 62
     7
370
    15
100
AcDbLine
 10
-24.2420430575
 20
-108.3481089606
 30
0.0
 11
-24.2420430575
 21
-112.0404166529
 31
0.0
  0
LINE
  5
CA
330
1F
100
AcDbEntity
  8
0
  6
Continuous
 62
     7
370
    15
100
AcDbLine
 10
-65.0
 20
24.4574259196
 30
0.0
 11
-80.0
 21
9.4574259196
 31
0.0
  0
ARC
  5
CB
330
1F
100
AcDbEntity
  8
0
  6
Continuous
 62
     7
370
    15
100
AcDbCircle
 10
10.3375980942
 20
-40.2049759861
 30
0.0
 40
9.662401905771421
100
AcDbArc
 50
0.0
 51
90.0
  0
ARC
  5
CC
330
1F
100
AcDbEntity
  8
0
  6
Continuous
 62
     7
370
    15
100
AcDbCircle
 10
-10.3375980942
 20
-40.2049759861
 30
0.0
 40
9.662401905771432
100
AcDbArc
 50
90.0
 51
180.0
  0
ARC
  5
CD
330
1F
100
AcDbEntity
  8
0
  6
Continuous
 62
     7
370
    15
100
AcDbCircle
 10
-10.3375980942
 20
-60.8801721746
 30
0.0
 40
9.662401905771398
100
AcDbArc
 50
180.0
 51
270.0
  0
ARC
  5
CE
330
1F
100
AcDbEntity
  8
0
  6
Continuous
 62
     7
370
    15
100
AcDbCircle
 10
10.3375980942
 20
-60.8801721746
 30
0.0
 40
9.662401905771418
100
AcDbArc
 50
270.0
 51
0.0
  0
ENDSEC
  0
SECTION
  2
OBJECTS
  0
DICTIONARY
  5
C
330
0
100
AcDbDictionary
281
     1
  3
ACAD_GROUP
350
D
  3
ACAD_LAYOUT
350
1A
  3
ACAD_MLINESTYLE
350
17
  3
ACAD_PLOTSETTINGS
350
19
  3
ACAD_PLOTSTYLENAME
350
E
  3
ACAD_SCALELIST
350
47
  0
DICTIONARY
  5
D
102
{ACAD_REACTORS
330
C
102
}
330
C
100
AcDbDictionary
281
     1
  0
DICTIONARY
  5
1A
102
{ACAD_REACTORS
330
C
102
}
330
C
100
AcDbDictionary
281
     1
  3
Layout1
350
1E
  3
Layout2
350
26
  3
Model
350
22
  0
DICTIONARY
  5
17
102
{ACAD_REACTORS
330
C
102
}
330
C
100
AcDbDictionary
281
     1
  3
Standard
350
18
  0
DICTIONARY
  5
19
102
{ACAD_REACTORS
330
C
102
}
330
C
100
AcDbDictionary
281
     1
  0
ACDBDICTIONARYWDFLT
  5
E
102
{ACAD_REACTORS
330
C
102
}
330
C
100
AcDbDictionary
281
     1
  3
Normal
350
F
100
AcDbDictionaryWithDefault
340
F
  0
DICTIONARY
  5
47
102
{ACAD_REACTORS
330
C
102
}
330
C
100
AcDbDictionary
281
     1
  3
A0
350
48
  3
A1
350
49
  3
A2
350
4A
  3
A3
350
4B
  3
A4
350
4C
  3
A5
350
4D
  3
A6
350
4E
  3
A7
350
4F
  3
A8
350
50
  3
A9
350
51
  3
B0
350
52
  3
B1
350
53
  3
B2
350
54
  3
B3
350
55
  3
B4
350
56
  3
B5
350
57
  3
B6
350
58
  3
B7
350
59
  3
B8
350
5A
  3
B9
350
5B
  3
C0
350
5C
  3
C1
350
5D
  3
C2
350
5E
  3
C3
350
5F
  3
C4
350
60
  3
C5
350
61
  3
C6
350
62
  3
C7
350
63
  3
C8
350
64
  3
C9
350
65
  3
D0
350
66
  3
D1
350
67
  3
D2
350
68
  0
LAYOUT
  5
1E
102
{ACAD_REACTORS
330
1A
102
}
330
1A
100
AcDbPlotSettings
  1

  2
none_device
  4

  6

 40
0.0
 41
0.0
 42
0.0
 43
0.0
 44
0.0
 45
0.0
 46
0.0
 47
0.0
 48
0.0
 49
0.0
140
0.0
141
0.0
142
1.0
143
1.0
 70
   688
 72
     1
 73
     0
 74
     5
  7

 75
    16
147
1.0
148
0.0
149
0.0
100
AcDbLayout
  1
Layout1
 70
     1
 71
     1
 10
0.0
 20
0.0
 11
420.0
 21
297.0
 12
0.0
 22
0.0
 32
0.0
 14
1.0000000000E+20
 24
1.0000000000E+20
 34
1.0000000000E+20
 15
-1.0000000000E+20
 25
-1.0000000000E+20
 35
-1.0000000000E+20
146
0.0
 13
0.0
 23
0.0
 33
0.0
 16
1.0
 26
0.0
 36
0.0
 17
0.0
 27
1.0
 37
0.0
 76
     0
330
1B
  0
LAYOUT
  5
26
102
{ACAD_REACTORS
330
1A
102
}
330
1A
100
AcDbPlotSettings
  1

  2
none_device
  4

  6

 40
0.0
 41
0.0
 42
0.0
 43
0.0
 44
0.0
 45
0.0
 46
0.0
 47
0.0
 48
0.0
 49
0.0
140
0.0
141
0.0
142
1.0
143
1.0
 70
   688
 72
     1
 73
     0
 74
     5
  7

 75
    16
147
1.0
148
0.0
149
0.0
100
AcDbLayout
  1
Layout2
 70
     1
 71
     2
 10
0.0
 20
0.0
 11
0.0
 21
0.0
 12
0.0
 22
0.0
 32
0.0
 14
0.0
 24
0.0
 34
0.0
 15
0.0
 25
0.0
 35
0.0
146
0.0
 13
0.0
 23
0.0
 33
0.0
 16
1.0
 26
0.0
 36
0.0
 17
0.0
 27
1.0
 37
0.0
 76
     0
330
23
  0
LAYOUT
  5
22
102
{ACAD_REACTORS
330
1A
102
}
330
1A
100
AcDbPlotSettings
  1

  2
none_device
  4
ANSI_A_(11.00_x_8.50_Inches)
  6

 40
6.35
 41
19.05
 42
6.35000508
 43
19.05000254
 44
279.4
 45
215.9
 46
133.34999746
 47
158.8018949604
 48
0.0
 49
0.0
140
0.0
141
0.0
142
0.05445
143
1.0
 70
  1696
 72
     0
 73
     0
 74
     0
  7

 75
     0
147
0.0179189148
148
-1300.4909072572
149
0.0
100
AcDbLayout
  1
Model
 70
     1
 71
     0
 10
0.0
 20
0.0
 11
420.0
 21
297.0
 12
0.0
 22
0.0
 32
0.0
 14
-100.0
 24
-125.5425740804
 34
0.0
 15
100.0
 25
24.4574259196
 35
0.0
146
0.0
 13
0.0
 23
0.0
 33
0.0
 16
1.0
 26
0.0
 36
0.0
 17
0.0
 27
1.0
 37
0.0
 76
     0
330
1F
331
29
  0
MLINESTYLE
  5
18
102
{ACAD_REACTORS
330
17
102
}
330
17
100
AcDbMlineStyle
  2
Standard
 70
     0
  3

 62
   256
 51
90.0
 52
90.0
 71
     2
 49
0.5
 62
   256
  6
BYLAYER
 49
-0.5
 62
   256
  6
BYLAYER
  0
ACDBPLACEHOLDER
  5
F
102
{ACAD_REACTORS
330
E
102
}
330
E
  0
SCALE
  5
48
102
{ACAD_REACTORS
330
47
102
}
330
47
100
AcDbScale
 70
     0
300
1:1
140
1.0
141
1.0
290
     1
  0
SCALE
  5
49
102
{ACAD_REACTORS
330
47
102
}
330
47
100
AcDbScale
 70
     0
300
1:2
140
1.0
141
2.0
290
     0
  0
SCALE
  5
4A
102
{ACAD_REACTORS
330
47
102
}
330
47
100
AcDbScale
 70
     0
300
1:4
140
1.0
141
4.0
290
     0
  0
SCALE
  5
4B
102
{ACAD_REACTORS
330
47
102
}
330
47
100
AcDbScale
 70
     0
300
1:5
140
1.0
141
5.0
290
     0
  0
SCALE
  5
4C
102
{ACAD_REACTORS
330
47
102
}
330
47
100
AcDbScale
 70
     0
300
1:8
140
1.0
141
8.0
290
     0
  0
SCALE
  5
4D
102
{ACAD_REACTORS
330
47
102
}
330
47
100
AcDbScale
 70
     0
300
1:10
140
1.0
141
10.0
290
     0
  0
SCALE
  5
4E
102
{ACAD_REACTORS
330
47
102
}
330
47
100
AcDbScale
 70
     0
300
1:16
140
1.0
141
16.0
290
     0
  0
SCALE
  5
4F
102
{ACAD_REACTORS
330
47
102
}
330
47
100
AcDbScale
 70
     0
300
1:20
140
1.0
141
20.0
290
     0
  0
SCALE
  5
50
102
{ACAD_REACTORS
330
47
102
}
330
47
100
AcDbScale
 70
     0
300
1:30
140
1.0
141
30.0
290
     0
  0
SCALE
  5
51
102
{ACAD_REACTORS
330
47
102
}
330
47
100
AcDbScale
 70
     0
300
1:40
140
1.0
141
40.0
290
     0
  0
SCALE
  5
52
102
{ACAD_REACTORS
330
47
102
}
330
47
100
AcDbScale
 70
     0
300
1:50
140
1.0
141
50.0
290
     0
  0
SCALE
  5
53
102
{ACAD_REACTORS
330
47
102
}
330
47
100
AcDbScale
 70
     0
300
1:100
140
1.0
141
100.0
290
     0
  0
SCALE
  5
54
102
{ACAD_REACTORS
330
47
102
}
330
47
100
AcDbScale
 70
     0
300
2:1
140
2.0
141
1.0
290
     0
  0
SCALE
  5
55
102
{ACAD_REACTORS
330
47
102
}
330
47
100
AcDbScale
 70
     0
300
4:1
140
4.0
141
1.0
290
     0
  0
SCALE
  5
56
102
{ACAD_REACTORS
330
47
102
}
330
47
100
AcDbScale
 70
     0
300
8:1
140
8.0
141
1.0
290
     0
  0
SCALE
  5
57
102
{ACAD_REACTORS
330
47
102
}
330
47
100
AcDbScale
 70
     0
300
10:1
140
10.0
141
1.0
290
     0
  0
SCALE
  5
58
102
{ACAD_REACTORS
330
47
102
}
330
47
100
AcDbScale
 70
     0
300
100:1
140
100.0
141
1.0
290
     0
  0
SCALE
  5
59
102
{ACAD_REACTORS
330
47
102
}
330
47
100
AcDbScale
 70
     0
300
1/128" = 1'-0"
140
0.0078125
141
12.0
290
     0
  0
SCALE
  5
5A
102
{ACAD_REACTORS
330
47
102
}
330
47
100
AcDbScale
 70
     0
300
1/64" = 1'-0"
140
0.015625
141
12.0
290
     0
  0
SCALE
  5
5B
102
{ACAD_REACTORS
330
47
102
}
330
47
100
AcDbScale
 70
     0
300
1/32" = 1'-0"
140
0.03125
141
12.0
290
     0
  0
SCALE
  5
5C
102
{ACAD_REACTORS
330
47
102
}
330
47
100
AcDbScale
 70
     0
300
1/16" = 1'-0"
140
0.0625
141
12.0
290
     0
  0
SCALE
  5
5D
102
{ACAD_REACTORS
330
47
102
}
330
47
100
AcDbScale
 70
     0
300
3/32" = 1'-0"
140
0.09375
141
12.0
290
     0
  0
SCALE
  5
5E
102
{ACAD_REACTORS
330
47
102
}
330
47
100
AcDbScale
 70
     0
300
1/8" = 1'-0"
140
0.125
141
12.0
290
     0
  0
SCALE
  5
5F
102
{ACAD_REACTORS
330
47
102
}
330
47
100
AcDbScale
 70
     0
300
3/16" = 1'-0"
140
0.1875
141
12.0
290
     0
  0
SCALE
  5
60
102
{ACAD_REACTORS
330
47
102
}
330
47
100
AcDbScale
 70
     0
300
1/4" = 1'-0"
140
0.25
141
12.0
290
     0
  0
SCALE
  5
61
102
{ACAD_REACTORS
330
47
102
}
330
47
100
AcDbScale
 70
     0
300
3/8" = 1'-0"
140
0.375
141
12.0
290
     0
  0
SCALE
  5
62
102
{ACAD_REACTORS
330
47
102
}
330
47
100
AcDbScale
 70
     0
300
1/2" = 1'-0"
140
0.5
141
12.0
290
     0
  0
SCALE
  5
63
102
{ACAD_REACTORS
330
47
102
}
330
47
100
AcDbScale
 70
     0
300
3/4" = 1'-0"
140
0.75
141
12.0
290
     0
  0
SCALE
  5
64
102
{ACAD_REACTORS
330
47
102
}
330
47
100
AcDbScale
 70
     0
300
1" = 1'-0"
140
1.0
141
12.0
290
     0
  0
SCALE
  5
65
102
{ACAD_REACTORS
330
47
102
}
330
47
100
AcDbScale
 70
     0
300
1-1/2" = 1'-0"
140
1.5
141
12.0
290
     0
  0
SCALE
  5
66
102
{ACAD_REACTORS
330
47
102
}
330
47
100
AcDbScale
 70
     0
300
3" = 1'-0"
140
3.0
141
12.0
290
     0
  0
SCALE
  5
67
102
{ACAD_REACTORS
330
47
102
}
330
47
100
AcDbScale
 70
     0
300
6" = 1'-0"
140
6.0
141
12.0
290
     0
  0
SCALE
  5
68
102
{ACAD_REACTORS
330
47
102
}
330
47
100
AcDbScale
 70
     0
300
1'-0" = 1'-0"
140
12.0
141
12.0
290
     0
  0
ENDSEC
  0
EOF
