  0
SECTION
  2
HEADER
  9
$ACADVER
  1
AC1015
  9
$ACADMAINTVER
 70
     6
  9
$DWGCODEPAGE
  3
ANSI_1252
  9
$INSBASE
 10
0.0
 20
0.0
 30
0.0
  9
$EXTMIN
 10
-100.0
 20
-100.0
 30
0.0
  9
$EXTMAX
 10
125.0
 20
100.0
 30
0.0
  9
$LIMMIN
 10
0.0
 20
0.0
  9
$LIMMAX
 10
420.0
 20
297.0
  9
$ORTHOMODE
 70
     0
  9
$REGENMODE
 70
     1
  9
$FILLMODE
 70
     1
  9
$QTEXTMODE
 70
     0
  9
$MIRRTEXT
 70
     1
  9
$LTSCALE
 40
1.0
  9
$ATTMODE
 70
     1
  9
$TEXTSIZE
 40
3.5
  9
$TRACEWID
 40
1.0
  9
$TEXTSTYLE
  7
Standard
  9
$CLAYER
  8
0
  9
$CELTYPE
  6
ByLayer
  9
$CECOLOR
 62
   256
  9
$CELTSCALE
 40
1.0
  9
$DISPSILH
 70
     0
  9
$DIMSCALE
 40
1.0
  9
$DIMASZ
 40
3.302
  9
$DIMEXO
 40
1.0
  9
$DIMDLI
 40
3.75
  9
$DIMRND
 40
0.0
  9
$DIMDLE
 40
0.0
  9
$DIMEXE
 40
1.0
  9
$DIMTP
 40
0.0
  9
$DIMTM
 40
0.0
  9
$DIMTXT
 40
3.5
  9
$DIMCEN
 40
2.5
  9
$DIMTSZ
 40
0.0
  9
$DIMTOL
 70
     0
  9
$DIMLIM
 70
     0
  9
$DIMTIH
 70
     1
  9
$DIMTOH
 70
     1
  9
$DIMSE1
 70
     0
  9
$DIMSE2
 70
     0
  9
$DIMTAD
 70
     1
  9
$DIMZIN
 70
     1
  9
$DIMBLK
  1

  9
$DIMASO
 70
     1
  9
$DIMSHO
 70
     1
  9
$DIMPOST
  1

  9
$DIMAPOST
  1

  9
$DIMALT
 70
     0
  9
$DIMALTD
 70
     3
  9
$DIMALTF
 40
0.0393700787
  9
$DIMLFAC
 40
1.0
  9
$DIMTOFL
 70
     1
  9
$DIMTVP
 40
0.0
  9
$DIMTIX
 70
     0
  9
$DIMSOXD
 70
     0
  9
$DIMSAH
 70
     0
  9
$DIMBLK1
  1

  9
$DIMBLK2
  1

  9
$DIMSTYLE
  2
ISO-25
  9
$DIMCLRD
 70
     0
  9
$DIMCLRE
 70
     0
  9
$DIMCLRT
 70
     0
  9
$DIMTFAC
 40
1.0
  9
$DIMGAP
 40
1.524
  9
$DIMJUST
 70
     0
  9
$DIMSD1
 70
     0
  9
$DIMSD2
 70
     0
  9
$DIMTOLJ
 70
     0
  9
$DIMTZIN
 70
     1
  9
$DIMALTZ
 70
     0
  9
$DIMALTTZ
 70
     0
  9
$DIMUPT
 70
     0
  9
$DIMDEC
 70
     2
  9
$DIMTDEC
 70
     2
  9
$DIMALTU
 70
     2
  9
$DIMALTTD
 70
     3
  9
$DIMTXSTY
  7
Standard
  9
$DIMAUNIT
 70
     0
  9
$DIMADEC
 70
     2
  9
$DIMALTRND
 40
0.0
  9
$DIMAZIN
 70
     0
  9
$DIMDSEP
 70
    44
  9
$DIMATFIT
 70
     3
  9
$DIMFRAC
 70
     0
  9
$DIMLDRBLK
  1

  9
$DIMLUNIT
 70
     2
  9
$DIMLWD
 70
    -2
  9
$DIMLWE
 70
    -2
  9
$DIMTMOVE
 70
     0
  9
$LUNITS
 70
     2
  9
$LUPREC
 70
     2
  9
$SKETCHINC
 40
1.0
  9
$FILLETRAD
 40
10.0
  9
$AUNITS
 70
     0
  9
$AUPREC
 70
     2
  9
$MENU
  1
.
  9
$ELEVATION
 40
0.0
  9
$PELEVATION
 40
0.0
  9
$THICKNESS
 40
0.0
  9
$LIMCHECK
 70
     0
  9
$CHAMFERA
 40
0.0
  9
$CHAMFERB
 40
0.0
  9
$CHAMFERC
 40
0.0
  9
$CHAMFERD
 40
0.0
  9
$SKPOLY
 70
     0
  9
$TDCREATE
 40
2458883.933779954
  9
$TDUCREATE
 40
2458883.85044662
  9
$TDUPDATE
 40
2458883.933803912
  9
$TDUUPDATE
 40
2458883.850470579
  9
$TDINDWG
 40
0.0000000116
  9
$TDUSRTIMER
 40
0.0000000116
  9
$USRTIMER
 70
     1
  9
$ANGBASE
 50
0.0
  9
$ANGDIR
 70
     0
  9
$PDMODE
 70
     0
  9
$PDSIZE
 40
-1.0
  9
$PLINEWID
 40
0.0
  9
$SPLFRAME
 70
     0
  9
$SPLINETYPE
 70
     6
  9
$SPLINESEGS
 70
     8
  9
$HANDSEED
  5
5C1
  9
$SURFTAB1
 70
     6
  9
$SURFTAB2
 70
     6
  9
$SURFTYPE
 70
     6
  9
$SURFU
 70
     6
  9
$SURFV
 70
     6
  9
$UCSBASE
  2

  9
$UCSNAME
  2

  9
$UCSORG
 10
0.0
 20
0.0
 30
0.0
  9
$UCSXDIR
 10
1.0
 20
0.0
 30
0.0
  9
$UCSYDIR
 10
0.0
 20
1.0
 30
0.0
  9
$UCSORTHOREF
  2

  9
$UCSORTHOVIEW
 70
     0
  9
$UCSORGTOP
 10
0.0
 20
0.0
 30
0.0
  9
$UCSORGBOTTOM
 10
0.0
 20
0.0
 30
0.0
  9
$UCSORGLEFT
 10
0.0
 20
0.0
 30
0.0
  9
$UCSORGRIGHT
 10
0.0
 20
0.0
 30
0.0
  9
$UCSORGFRONT
 10
0.0
 20
0.0
 30
0.0
  9
$UCSORGBACK
 10
0.0
 20
0.0
 30
0.0
  9
$PUCSBASE
  2

  9
$PUCSNAME
  2

  9
$PUCSORG
 10
0.0
 20
0.0
 30
0.0
  9
$PUCSXDIR
 10
1.0
 20
0.0
 30
0.0
  9
$PUCSYDIR
 10
0.0
 20
1.0
 30
0.0
  9
$PUCSORTHOREF
  2

  9
$PUCSORTHOVIEW
 70
     0
  9
$PUCSORGTOP
 10
0.0
 20
0.0
 30
0.0
  9
$PUCSORGBOTTOM
 10
0.0
 20
0.0
 30
0.0
  9
$PUCSORGLEFT
 10
0.0
 20
0.0
 30
0.0
  9
$PUCSORGRIGHT
 10
0.0
 20
0.0
 30
0.0
  9
$PUCSORGFRONT
 10
0.0
 20
0.0
 30
0.0
  9
$PUCSORGBACK
 10
0.0
 20
0.0
 30
0.0
  9
$USERI1
 70
     0
  9
$USERI2
 70
     0
  9
$USERI3
 70
     0
  9
$USERI4
 70
     0
  9
$USERI5
 70
     0
  9
$USERR1
 40
0.0
  9
$USERR2
 40
0.0
  9
$USERR3
 40
0.0
  9
$USERR4
 40
0.0
  9
$USERR5
 40
0.0
  9
$WORLDVIEW
 70
     1
  9
$SHADEDGE
 70
     3
  9
$SHADEDIF
 70
    70
  9
$TILEMODE
 70
     1
  9
$MAXACTVP
 70
    64
  9
$PINSBASE
 10
0.0
 20
0.0
 30
0.0
  9
$PLIMCHECK
 70
     0
  9
$PEXTMIN
 10
1.0000000000E+20
 20
1.0000000000E+20
 30
1.0000000000E+20
  9
$PEXTMAX
 10
-1.0000000000E+20
 20
-1.0000000000E+20
 30
-1.0000000000E+20
  9
$PLIMMIN
 10
0.0
 20
0.0
  9
$PLIMMAX
 10
420.0
 20
297.0
  9
$UNITMODE
 70
     0
  9
$VISRETAIN
 70
     1
  9
$PLINEGEN
 70
     0
  9
$PSLTSCALE
 70
     1
  9
$TREEDEPTH
 70
  3020
  9
$CMLSTYLE
  2
Standard
  9
$CMLJUST
 70
     0
  9
$CMLSCALE
 40
20.0
  9
$PROXYGRAPHICS
 70
     1
  9
$MEASUREMENT
 70
     1
  9
$CELWEIGHT
370
    -1
  9
$ENDCAPS
280
     0
  9
$JOINSTYLE
280
     0
  9
$LWDISPLAY
290
     1
  9
$INSUNITS
 70
     4
  9
$HYPERLINKBASE
  1

  9
$STYLESHEET
  1

  9
$XEDIT
290
     1
  9
$CEPSNTYPE
380
     0
  9
$PSTYLEMODE
290
     1
  9
$FINGERPRINTGUID
  2
{BABEDC08-9996-4511-9BF1-3FCAD5A3C785}
  9
$VERSIONGUID
  2
{FAEB1C32-E019-11D5-929B-00C0DF256EC4}
  9
$EXTNAMES
290
     1
  9
$PSVPSCALE
 40
0.0
  9
$OLESTARTUP
290
     0
  0
ENDSEC
  0
SECTION
  2
CLASSES
  0
CLASS
  1
ACDBDICTIONARYWDFLT
  2
AcDbDictionaryWithDefault
  3
ObjectDBX Classes
 90
        0
280
     0
281
     0
  0
CLASS
  1
VISUALSTYLE
  2
AcDbVisualStyle
  3
ObjectDBX Classes
 90
     4095
280
     0
281
     0
  0
CLASS
  1
MATERIAL
  2
AcDbMaterial
  3
ObjectDBX Classes
 90
     1153
280
     0
281
     0
  0
CLASS
  1
SCALE
  2
AcDbScale
  3
ObjectDBX Classes
 90
     1153
280
     0
281
     0
  0
CLASS
  1
TABLESTYLE
  2
AcDbTableStyle
  3
ObjectDBX Classes
 90
     4095
280
     0
281
     0
  0
CLASS
  1
MLEADERSTYLE
  2
AcDbMLeaderStyle
  3
ACDB_MLEADERSTYLE_CLASS
 90
     4095
280
     0
281
     0
  0
CLASS
  1
SUN
  2
AcDbSun
  3
SCENEOE
 90
     1153
280
     0
281
     0
  0
CLASS
  1
ACDBPLACEHOLDER
  2
AcDbPlaceHolder
  3
ObjectDBX Classes
 90
        0
280
     0
281
     0
  0
CLASS
  1
LAYOUT
  2
AcDbLayout
  3
ObjectDBX Classes
 90
        0
280
     0
281
     0
  0
ENDSEC
  0
SECTION
  2
TABLES
  0
TABLE
  2
VPORT
  5
8
330
0
100
AcDbSymbolTable
 70
     1
  0
VPORT
  5
29
330
8
100
AcDbSymbolTableRecord
100
AcDbViewportTableRecord
  2
*Active
 70
     0
 10
0.0
 20
0.0
 11
1.0
 21
1.0
 12
12.5
 22
0.0
 13
0.0
 23
0.0
 14
10.0
 24
10.0
 15
10.0
 25
10.0
 16
0.0
 26
0.0
 36
1.0
 17
0.0
 27
0.0
 37
0.0
 40
204.0
 41
1.125
 42
50.0
 43
0.0
 44
0.0
 50
0.0
 51
0.0
 71
     0
 72
   100
 73
     1
 74
     3
 75
     0
 76
     0
 77
     0
 78
     0
281
     0
 65
     1
110
0.0
120
0.0
130
0.0
111
1.0
121
0.0
131
0.0
112
0.0
122
1.0
132
0.0
 79
     0
146
0.0
  0
ENDTAB
  0
TABLE
  2
LTYPE
  5
5
330
0
100
AcDbSymbolTable
 70
     6
  0
LTYPE
  5
14
330
5
100
AcDbSymbolTableRecord
100
AcDbLinetypeTableRecord
  2
ByBlock
 70
     0
  3

 72
    65
 73
     0
 40
0.0
  0
LTYPE
  5
15
330
5
100
AcDbSymbolTableRecord
100
AcDbLinetypeTableRecord
  2
ByLayer
 70
     0
  3

 72
    65
 73
     0
 40
0.0
  0
LTYPE
  5
16
330
5
100
AcDbSymbolTableRecord
100
AcDbLinetypeTableRecord
  2
Continuous
 70
     0
  3
Solid line
 72
    65
 73
     0
 40
0.0
  0
LTYPE
  5
6E
330
5
100
AcDbSymbolTableRecord
100
AcDbLinetypeTableRecord
  2
HIDDEN
 70
     0
  3
Hidden __ __ __ __ __ __ __ __ __ __ __ __ __ __
 72
    65
 73
     2
 40
1.905
 49
1.27
 74
     0
 49
-0.635
 74
     0
  0
LTYPE
  5
6F
330
5
100
AcDbSymbolTableRecord
100
AcDbLinetypeTableRecord
  2
PHANTOM
 70
     0
  3
Phantom ______  __  __  ______  __  __  ______
 72
    65
 73
     6
 40
12.7
 49
6.35
 74
     0
 49
-1.27
 74
     0
 49
1.27
 74
     0
 49
-1.27
 74
     0
 49
1.27
 74
     0
 49
-1.27
 74
     0
  0
LTYPE
  5
70
330
5
100
AcDbSymbolTableRecord
100
AcDbLinetypeTableRecord
  2
CENTER
 70
     0
  3
Center ____ _ ____ _ ____ _ ____ _ ____ _ ____
 72
    65
 73
     4
 40
10.16
 49
6.35
 74
     0
 49
-1.27
 74
     0
 49
1.27
 74
     0
 49
-1.27
 74
     0
  0
LTYPE
  5
71
330
5
100
AcDbSymbolTableRecord
100
AcDbLinetypeTableRecord
  2
CENTERX2
 70
     0
  3
Center (2x) ________  __  ________  __  _____
 72
    65
 73
     4
 40
20.32
 49
12.7
 74
     0
 49
-2.54
 74
     0
 49
2.54
 74
     0
 49
-2.54
 74
     0
  0
LTYPE
  5
72
330
5
100
AcDbSymbolTableRecord
100
AcDbLinetypeTableRecord
  2
DOT2
 70
     0
  3
Dot (.5x) ........................................
 72
    65
 73
     2
 40
0.635
 49
0.0
 74
     0
 49
-0.635
 74
     0
  0
ENDTAB
  0
TABLE
  2
LAYER
  5
2
330
0
100
AcDbSymbolTable
 70
     1
  0
LAYER
  5
10
330
2
100
AcDbSymbolTableRecord
100
AcDbLayerTableRecord
  2
0
 70
     0
 62
     7
  6
Continuous
370
    -3
390
F
  0
ENDTAB
  0
TABLE
  2
STYLE
  5
3
330
0
100
AcDbSymbolTable
 70
     1
  0
STYLE
  5
11
330
3
100
AcDbSymbolTableRecord
100
AcDbTextStyleTableRecord
  2
Standard
 70
     0
 40
0.0
 41
1.0
 50
0.0
 71
     0
 42
3.5
  3
txt
  4

  0
ENDTAB
  0
TABLE
  2
VIEW
  5
6
330
0
100
AcDbSymbolTable
 70
     0
  0
ENDTAB
  0
TABLE
  2
UCS
  5
7
330
0
100
AcDbSymbolTable
 70
     0
  0
ENDTAB
  0
TABLE
  2
APPID
  5
9
330
0
100
AcDbSymbolTable
 70
     1
  0
APPID
  5
12
330
9
100
AcDbSymbolTableRecord
100
AcDbRegAppTableRecord
  2
ACAD
 70
     0
  0
ENDTAB
  0
TABLE
  2
DIMSTYLE
  5
A
330
0
100
AcDbSymbolTable
 70
     1
100
AcDbDimStyleTable
  0
DIMSTYLE
105
27
330
A
100
AcDbSymbolTableRecord
100
AcDbDimStyleTableRecord
  2
ISO-25
 70
     0
 41
2.5
 42
0.625
 43
3.75
 44
1.25
 73
     0
 74
     0
 77
     1
 78
     8
140
2.5
141
2.5
143
0.0393700787
147
0.625
171
     3
172
     1
178
     0
271
     2
272
     2
274
     3
278
    44
283
     0
284
     8
340
11
  0
ENDTAB
  0
TABLE
  2
BLOCK_RECORD
  5
1
330
0
100
AcDbSymbolTable
 70
     1
  0
BLOCK_RECORD
  5
1F
330
1
100
AcDbSymbolTableRecord
100
AcDbBlockTableRecord
  2
*Model_Space
340
22
  0
BLOCK_RECORD
  5
1B
330
1
100
AcDbSymbolTableRecord
100
AcDbBlockTableRecord
  2
*Paper_Space
340
1E
  0
BLOCK_RECORD
  5
23
330
1
100
AcDbSymbolTableRecord
100
AcDbBlockTableRecord
  2
*Paper_Space0
340
26
  0
ENDTAB
  0
ENDSEC
  0
SECTION
  2
BLOCKS
  0
BLOCK
  5
20
330
1F
100
AcDbEntity
  8
0
100
AcDbBlockBegin
  2
*Model_Space
 70
     0
 10
0.0
 20
0.0
 30
0.0
  3
*Model_Space
  1

  0
ENDBLK
  5
21
330
1F
100
AcDbEntity
  8
0
100
AcDbBlockEnd
  0
BLOCK
  5
1C
330
1B
100
AcDbEntity
 67
     1
  8
0
100
AcDbBlockBegin
  2
*Paper_Space
 70
     0
 10
0.0
 20
0.0
 30
0.0
  3
*Paper_Space
  1

  0
ENDBLK
  5
1D
330
1B
100
AcDbEntity
 67
     1
  8
0
100
AcDbBlockEnd
  0
BLOCK
  5
24
330
23
100
AcDbEntity
  8
0
100
AcDbBlockBegin
  2
*Paper_Space0
 70
     0
 10
0.0
 20
0.0
 30
0.0
  3
*Paper_Space0
  1

  0
ENDBLK
  5
25
330
23
100
AcDbEntity
  8
0
100
AcDbBlockEnd
  0
ENDSEC
  0
SECTION
  2
ENTITIES
  0
SPLINE
  5
75
330
1F
100
AcDbEntity
  8
0
  6
Continuous
 62
     7
370
    25
100
AcDbSpline
210
0.0
220
0.0
230
1.0
 70
     8
 71
     3
 72
    18
 73
    14
 74
     0
 42
0.000000001
 43
0.00000001
 40
0.0191336307238148
 40
0.0191336307238148
 40
0.0191336307238148
 40
0.0191336307238148
 40
0.2499999999999935
 40
0.2499999999999935
 40
0.3749999999999902
 40
0.3749999999999902
 40
0.49999999999999
 40
0.49999999999999
 40
0.6249999999999898
 40
0.6249999999999898
 40
0.7499999999999895
 40
0.7499999999999895
 40
0.8607462842766326
 40
0.8607462842766326
 40
0.8607462842766326
 40
0.8607462842766326
 10
85.86743752559516
 20
-32.67685366331327
 30
0.0
 10
85.7693609916644
 20
-32.36481017509362
 30
0.0
 10
85.708745916865
 20
-32.07679021059255
 30
0.0
 10
85.68431748279681
 20
-31.65560351510825
 30
0.0
 10
85.68912649527223
 20
-31.51172753167333
 30
0.0
 10
85.73316579423813
 20
-31.23143809993419
 30
0.0
 10
85.77276747828188
 20
-31.09473127952044
 30
0.0
 10
85.8948357203625
 20
-30.83830857232271
 30
0.0
 10
85.97776796039219
 20
-30.7192430383809
 30
0.0
 10
86.17949007556705
 20
-30.51707425137371
 30
0.0
 10
86.29739988658898
 20
-30.43446486342224
 30
0.0
 10
86.53610198725644
 20
-30.31547448489223
 30
0.0
 10
86.65409500263408
 20
-30.27423008955158
 30
0.0
 10
86.7773848085543
 20
-30.24504434083461
 30
0.0
  0
SPLINE
  5
77
330
1F
100
AcDbEntity
  8
0
  6
Continuous
 62
     7
370
    25
100
AcDbSpline
210
0.0
220
0.0
230
1.0
 70
     8
 71
     3
 72
    19
 73
    15
 74
     0
 42
0.000000001
 43
0.00000001
 40
0.0
 40
0.0
 40
0.0
 40
0.0
 40
0.0078124999999993
 40
0.0078124999999993
 40
0.0156249999999986
 40
0.0312499999999978
 40
0.0312499999999978
 40
0.0624999999999952
 40
0.0624999999999952
 40
0.124999999999993
 40
0.124999999999993
 40
0.2499999999999918
 40
0.2499999999999918
 40
0.3075738489453577
 40
0.3075738489453577
 40
0.3075738489453577
 40
0.3075738489453577
 10
85.8674375338584
 20
-34.28365028078473
 30
0.0
 10
85.8681194698714
 20
-34.29790428444745
 30
0.0
 10
85.86906521228586
 20
-34.31709344063364
 30
0.0
 10
85.87150658994824
 20
-34.35382651252795
 30
0.0
 10
85.87586624326454
 20
-34.40862637893479
 30
0.0
 10
85.88232019508796
 20
-34.46250874810517
 30
0.0
 10
85.89800823782622
 20
-34.56897894357281
 30
0.0
 10
85.9121833914701
 20
-34.63823776462138
 30
0.0
 10
85.96547305656453
 20
-34.84004793821275
 30
0.0
 10
86.01551165123138
 20
-34.9665500434593
 30
0.0
 10
86.20033848248657
 20
-35.31533474092119
 30
0.0
 10
86.36843380266245
 20
-35.50440939722654
 30
0.0
 10
86.63373953877993
 20
-35.7277903628995
 30
0.0
 10
86.72035376285805
 20
-35.79109783867832
 30
0.0
 10
86.80849999999957
 20
-35.84898729472977
 30
0.0
  0
SPLINE
  5
7F
330
1F
100
AcDbEntity
  8
0
  6
Continuous
 62
     7
370
    25
100
AcDbSpline
210
0.0
220
0.0
230
1.0
 70
     8
 71
     3
 72
    29
 73
    25
 74
     0
 42
0.000000001
 43
0.00000001
 40
0.0
 40
0.0
 40
0.0
 40
0.0
 40
0.0078124999999996
 40
0.0078124999999996
 40
0.0156249999999993
 40
0.0312499999999984
 40
0.0312499999999984
 40
0.0624999999999968
 40
0.0624999999999968
 40
0.1249999999999934
 40
0.1249999999999934
 40
0.2499999999999944
 40
0.2499999999999944
 40
0.3749999999999953
 40
0.3749999999999953
 40
0.4999999999999962
 40
0.4999999999999962
 40
0.6249999999999971
 40
0.6249999999999971
 40
0.749999999999998
 40
0.749999999999998
 40
0.874999999999999
 40
0.874999999999999
 40
1.0
 40
1.0
 40
1.0
 40
1.0
 10
75.78190026748476
 20
-37.33735770182617
 30
0.0
 10
75.78116135136143
 20
-37.32311498619373
 30
0.0
 10
75.78066601266495
 20
-37.31339228103015
 30
0.0
 10
75.77999132439791
 20
-37.2937650025704
 30
0.0
 10
75.77937460315731
 20
-37.26496486957397
 30
0.0
 10
75.77987491003644
 20
-37.23804609376725
 30
0.0
 10
75.78218493915162
 20
-37.18657426119482
 30
0.0
 10
75.78546307050004
 20
-37.15542653581015
 30
0.0
 10
75.79924236328452
 20
-37.06989020363561
 30
0.0
 10
75.81342113449737
 20
-37.02344541265765
 30
0.0
 10
75.86769083029809
 20
-36.89834102870695
 30
0.0
 10
75.92033839134164
 20
-36.82922917131981
 30
0.0
 10
76.09107092824706
 20
-36.6812179558181
 30
0.0
 10
76.20960588369209
 20
-36.60662948766438
 30
0.0
 10
76.49813128831055
 20
-36.46084216403155
 30
0.0
 10
76.66686542427915
 20
-36.38970510453865
 30
0.0
 10
77.02704631060067
 20
-36.23813360807815
 30
0.0
 10
77.21852689801956
 20
-36.15765714870267
 30
0.0
 10
77.60211365742838
 20
-35.96048512408195
 30
0.0
 10
77.79532345101777
 20
-35.84357629602737
 30
0.0
 10
78.1511905212668
 20
-35.53246953164474
 30
0.0
 10
78.31323375880754
 20
-35.33500865537834
 30
0.0
 10
78.53513396202884
 20
-34.8526498019061
 30
0.0
 10
78.5921204236078
 20
-34.57280962217153
 30
0.0
 10
78.58865791862777
 20
-34.26868460580696
 30
0.0
  0
SPLINE
  5
81
330
1F
100
AcDbEntity
  8
0
  6
Continuous
 62
     7
370
    25
100
AcDbSpline
210
0.0
220
0.0
230
1.0
 70
     8
 71
     3
 72
    18
 73
    14
 74
     0
 42
0.000000001
 43
0.00000001
 40
0.1382775074068135
 40
0.1382775074068135
 40
0.1382775074068135
 40
0.1382775074068135
 40
0.25
 40
0.25
 40
0.375
 40
0.375
 40
0.5
 40
0.5
 40
0.625
 40
0.625
 40
0.75
 40
0.75
 40
0.9772068383532054
 40
0.9772068383532054
 40
0.9772068383532054
 40
0.9772068383532054
 10
77.84834928257067
 20
-30.27186381603646
 30
0.0
 10
77.96635225872352
 20
-30.30772852918739
 30
0.0
 10
78.07948803372572
 20
-30.35557960151451
 30
0.0
 10
78.30334474869869
 20
-30.48820580934724
 30
0.0
 10
78.41182165818597
 20
-30.57726462926975
 30
0.0
 10
78.59241866109927
 20
-30.78856629096943
 30
0.0
 10
78.66377932270979
 20
-30.91012983003408
 30
0.0
 10
78.76359112928722
 20
-31.166965127178
 30
0.0
 10
78.79261001934493
 20
-31.3017467293118
 30
0.0
 10
78.81750608502249
 20
-31.57581079282647
 30
0.0
 10
78.81367380872572
 20
-31.71541873054626
 30
0.0
 10
78.76700572447066
 20
-32.11820585404174
 30
0.0
 10
78.69555427324825
 20
-32.38994953453662
 30
0.0
 10
78.5886579187249
 20
-32.68242135947828
 30
0.0
  0
SPLINE
  5
89
330
1F
100
AcDbEntity
  8
0
  6
Continuous
 62
     7
370
    25
100
AcDbSpline
210
0.0
220
0.0
230
1.0
 70
     8
 71
     3
 72
    18
 73
    14
 74
     0
 42
0.000000001
 43
0.00000001
 40
0.019944399942284
 40
0.019944399942284
 40
0.019944399942284
 40
0.019944399942284
 40
0.2500000000000001
 40
0.2500000000000001
 40
0.3749999999999998
 40
0.3749999999999998
 40
0.4999999999999997
 40
0.4999999999999997
 40
0.6249999999999994
 40
0.6249999999999994
 40
0.7499999999999992
 40
0.7499999999999992
 40
0.869842055053438
 40
0.869842055053438
 40
0.869842055053438
 40
0.869842055053438
 10
68.1354758915544
 20
-32.6740834714604
 30
0.0
 10
68.03258568530488
 20
-32.36163093439369
 30
0.0
 10
67.97035717700115
 20
-32.07139290098192
 30
0.0
 10
67.95160876409456
 20
-31.64244590343746
 30
0.0
 10
67.96020189623935
 20
-31.49477717654964
 30
0.0
 10
68.01662846441737
 20
-31.20751253003093
 30
0.0
 10
68.06501542071562
 20
-31.06776666448517
 30
0.0
 10
68.20717761194017
 20
-30.81031322877577
 30
0.0
 10
68.3010418207202
 20
-30.69353905458646
 30
0.0
 10
68.52143502627179
 20
-30.49911271585605
 30
0.0
 10
68.64705848387214
 20
-30.42147082980392
 30
0.0
 10
68.90935602743242
 20
-30.30514226391575
 30
0.0
 10
69.04481198330315
 20
-30.26412407911595
 30
0.0
 10
69.18736756625191
 20
-30.23609465554627
 30
0.0
  0
SPLINE
  5
8B
330
1F
100
AcDbEntity
  8
0
  6
Continuous
 62
     7
370
    25
100
AcDbSpline
210
0.0
220
0.0
230
1.0
 70
     8
 71
     3
 72
    39
 73
    35
 74
     0
 42
0.000000001
 43
0.00000001
 40
0.0
 40
0.0
 40
0.0
 40
0.0
 40
0.0078125000000028
 40
0.0078125000000028
 40
0.0156250000000056
 40
0.0156250000000056
 40
0.0312500000000082
 40
0.0312500000000082
 40
0.0625000000000092
 40
0.0625000000000092
 40
0.1250000000000114
 40
0.1250000000000114
 40
0.1875000000000135
 40
0.1875000000000135
 40
0.2500000000000157
 40
0.2500000000000157
 40
0.3750000000000139
 40
0.3750000000000139
 40
0.5000000000000121
 40
0.5000000000000121
 40
0.6250000000000103
 40
0.6250000000000103
 40
0.7500000000000085
 40
0.7500000000000085
 40
0.8750000000000068
 40
0.8750000000000068
 40
0.9375000000000059
 40
0.9375000000000059
 40
0.9687500000000041
 40
0.9687500000000041
 40
0.9843750000000018
 40
0.9921875000000009
 40
0.9921875000000009
 40
1.0
 40
1.0
 40
1.0
 40
1.0
 10
71.37069784032207
 20
-37.29215413742725
 30
0.0
 10
71.37419993964221
 20
-37.27730538181721
 30
0.0
 10
71.37770203896238
 20
-37.26245662620698
 30
0.0
 10
71.38470623760261
 20
-37.23275911498691
 30
0.0
 10
71.38691425701138
 20
-37.22330242182255
 30
0.0
 10
71.39331770994856
 20
-37.19341297240512
 30
0.0
 10
71.39677016358205
 20
-37.17451281336324
 30
0.0
 10
71.40497392799001
 20
-37.12080990934631
 30
0.0
 10
71.40757388366612
 20
-37.08903254853143
 30
0.0
 10
71.40924032331579
 20
-37.00428007030052
 30
0.0
 10
71.40267872730698
 20
-36.9621915662043
 30
0.0
 10
71.381445253973
 20
-36.88923484991881
 30
0.0
 10
71.36658925453467
 20
-36.85754265741387
 30
0.0
 10
71.32113851482542
 20
-36.78929715097377
 30
0.0
 10
71.28996786576519
 20
-36.75292819891566
 30
0.0
 10
71.16186746799103
 20
-36.63669981712555
 30
0.0
 10
71.02901459128404
 20
-36.55207511065232
 30
0.0
 10
70.69389567476317
 20
-36.38729733992843
 30
0.0
 10
70.49344832132303
 20
-36.30659886671651
 30
0.0
 10
70.06404462404227
 20
-36.13819504658815
 30
0.0
 10
69.83506376546572
 20
-36.0502846918134
 30
0.0
 10
69.37821991050794
 20
-35.84259113894809
 30
0.0
 10
69.14962374976453
 20
-35.7230586134113
 30
0.0
 10
68.723516736439
 20
-35.41170022322712
 30
0.0
 10
68.52430499804382
 20
-35.21688238714829
 30
0.0
 10
68.30385416638616
 20
-34.84340059014438
 30
0.0
 10
68.24419022601153
 20
-34.70603465630638
 30
0.0
 10
68.18236677442734
 20
-34.48526619990452
 30
0.0
 10
68.1663172497404
 20
-34.40927441713335
 30
0.0
 10
68.14938792785465
 20
-34.29235971149933
 30
0.0
 10
68.1427032870921
 20
-34.2331685876902
 30
0.0
 10
68.13869913639914
 20
-34.17297306740321
 30
0.0
 10
68.13662410924448
 20
-34.1326272907868
 30
0.0
 10
68.13587557505669
 20
-34.10947354445524
 30
0.0
 10
68.13547587405738
 20
-34.09401457774612
 30
0.0
  0
SPLINE
  5
91
330
1F
100
AcDbEntity
  8
0
  6
Continuous
 62
     7
370
    25
100
AcDbSpline
210
0.0
220
0.0
230
1.0
 70
     8
 71
     3
 72
    35
 73
    31
 74
     0
 42
0.000000001
 43
0.00000001
 40
0.0
 40
0.0
 40
0.0
 40
0.0
 40
0.0078125000000009
 40
0.0078125000000009
 40
0.0156250000000019
 40
0.0312500000000033
 40
0.0312500000000033
 40
0.0625000000000062
 40
0.0625000000000062
 40
0.1250000000000075
 40
0.1250000000000075
 40
0.2500000000000043
 40
0.2500000000000043
 40
0.3750000000000011
 40
0.3750000000000011
 40
0.4999999999999978
 40
0.4999999999999978
 40
0.6249999999999946
 40
0.6249999999999946
 40
0.7499999999999915
 40
0.7499999999999915
 40
0.8749999999999882
 40
0.8749999999999882
 40
0.9374999999999867
 40
0.9374999999999867
 40
0.9687499999999901
 40
0.9687499999999901
 40
0.984374999999995
 40
0.984374999999995
 40
1.0
 40
1.0
 40
1.0
 40
1.0
 10
115.8477730182762
 20
-34.27714023315511
 30
0.0
 10
115.8474556928855
 20
-34.29171197547639
 30
0.0
 10
115.8468581792629
 20
-34.31312377535045
 30
0.0
 10
115.8452072717684
 20
-34.35039736273968
 30
0.0
 10
115.8420178469709
 20
-34.40600869156911
 30
0.0
 10
115.8366842987808
 20
-34.46070826396985
 30
0.0
 10
115.823159626565
 20
-34.56882729871884
 30
0.0
 10
115.810323440857
 20
-34.63920622814636
 30
0.0
 10
115.7606407714574
 20
-34.84444282951198
 30
0.0
 10
115.7124357737782
 20
-34.9733340145562
 30
0.0
 10
115.5310136213115
 20
-35.32881308276584
 30
0.0
 10
115.3623567705215
 20
-35.5213131487379
 30
0.0
 10
114.9962750785297
 20
-35.83002399227397
 30
0.0
 10
114.7985962049538
 20
-35.94906603631235
 30
0.0
 10
114.4042337180725
 20
-36.15366612696772
 30
0.0
 10
114.2066930295043
 20
-36.23927162896553
 30
0.0
 10
113.8338125853778
 20
-36.4010359614369
 30
0.0
 10
113.6584369901009
 20
-36.47725952334888
 30
0.0
 10
113.357157216741
 20
-36.63192650302486
 30
0.0
 10
113.2323455353672
 20
-36.71051823025604
 30
0.0
 10
113.0534818546028
 20
-36.8635530049639
 30
0.0
 10
112.9999743281029
 20
-36.9335364595908
 30
0.0
 10
112.9484978122578
 20
-37.04953597383135
 30
0.0
 10
112.9356529453629
 20
-37.09123430924576
 30
0.0
 10
112.9236005204669
 20
-37.16775044207806
 30
0.0
 10
112.9208621446942
 20
-37.19559121189446
 30
0.0
 10
112.9193108312743
 20
-37.24178522723919
 30
0.0
 10
112.9192225643463
 20
-37.25791867976928
 30
0.0
 10
112.9200321794089
 20
-37.29176877715785
 30
0.0
 10
112.9208596594347
 20
-37.30633520305108
 30
0.0
 10
112.9226909694233
 20
-37.33345917773892
 30
0.0
  0
SPLINE
  5
93
330
1F
100
AcDbEntity
  8
0
  6
Continuous
 62
     7
370
    25
100
AcDbSpline
210
0.0
220
0.0
230
1.0
 70
     8
 71
     3
 72
    16
 73
    12
 74
     0
 42
0.000000001
 43
0.00000001
 40
0.1305704391006517
 40
0.1305704391006517
 40
0.1305704391006517
 40
0.1305704391006517
 40
0.2500000000000072
 40
0.2500000000000072
 40
0.3750000000000045
 40
0.3750000000000045
 40
0.5000000000000018
 40
0.5000000000000018
 40
0.7500000000000009
 40
0.7500000000000009
 40
0.9776938868652854
 40
0.9776938868652854
 40
0.9776938868652854
 40
0.9776938868652854
 10
115.1718642405506
 20
-30.32703870503328
 30
0.0
 10
115.2846096720216
 20
-30.37814998158943
 30
0.0
 10
115.3905403437493
 20
-30.44089124130375
 30
0.0
 10
115.5892204880776
 20
-30.596759888662
 30
0.0
 10
115.6800355178598
 20
-30.6909560483879
 30
0.0
 10
115.8303770064124
 20
-30.90191922826486
 30
0.0
 10
115.8896822175528
 20
-31.01828143144598
 30
0.0
 10
116.0179666532035
 20
-31.38355382408989
 30
0.0
 10
116.0385085993424
 20
-31.6450144207256
 30
0.0
 10
115.9937633007313
 20
-32.162415757777
 30
0.0
 10
115.9362343699515
 20
-32.41932726864946
 30
0.0
 10
115.8477730007286
 20
-32.69243377222672
 30
0.0
  0
SPLINE
  5
9B
330
1F
100
AcDbEntity
  8
0
  6
Continuous
 62
     7
370
    25
100
AcDbSpline
210
0.0
220
0.0
230
1.0
 70
     8
 71
     3
 72
    16
 73
    12
 74
     0
 42
0.000000001
 43
0.00000001
 40
0.0197830352978125
 40
0.0197830352978125
 40
0.0197830352978125
 40
0.0197830352978125
 40
0.2500000000000015
 40
0.2500000000000015
 40
0.500000000000003
 40
0.500000000000003
 40
0.6250000000000023
 40
0.6250000000000023
 40
0.7500000000000016
 40
0.7500000000000016
 40
0.8639748854872988
 40
0.8639748854872988
 40
0.8639748854872988
 40
0.8639748854872988
 10
105.5468308309573
 20
-32.68761219726373
 30
0.0
 10
105.4574534330767
 20
-32.39378431581129
 30
0.0
 10
105.4019313465485
 20
-32.12012490096733
 30
0.0
 10
105.3698370111872
 20
-31.57632399015706
 30
0.0
 10
105.4009440595041
 20
-31.3043483686079
 30
0.0
 10
105.5574414649663
 20
-30.93098251029178
 30
0.0
 10
105.6282502034079
 20
-30.81359235046639
 30
0.0
 10
105.8035150711821
 20
-30.60658955939952
 30
0.0
 10
105.9075266814165
 20
-30.51746006413323
 30
0.0
 10
106.1253949867605
 20
-30.37947229883629
 30
0.0
 10
106.236529061801
 20
-30.3275958916167
 30
0.0
 10
106.3535149586451
 20
-30.28746973368671
 30
0.0
  0
SPLINE
  5
9D
330
1F
100
AcDbEntity
  8
0
  6
Continuous
 62
     7
370
    25
100
AcDbSpline
210
0.0
220
0.0
230
1.0
 70
     8
 71
     3
 72
    41
 73
    37
 74
     0
 42
0.000000001
 43
0.00000001
 40
0.0
 40
0.0
 40
0.0
 40
0.0
 40
0.0078125000000012
 40
0.0078125000000012
 40
0.0156250000000025
 40
0.031250000000002
 40
0.031250000000002
 40
0.0625000000000041
 40
0.0625000000000041
 40
0.1250000000000082
 40
0.1250000000000082
 40
0.2500000000000135
 40
0.2500000000000135
 40
0.3750000000000189
 40
0.3750000000000189
 40
0.5000000000000242
 40
0.5000000000000242
 40
0.6250000000000296
 40
0.6250000000000296
 40
0.7500000000000349
 40
0.7500000000000349
 40
0.8125000000000282
 40
0.8125000000000282
 40
0.8750000000000215
 40
0.8750000000000215
 40
0.9375000000000149
 40
0.9375000000000149
 40
0.9687500000000078
 40
0.9687500000000078
 40
0.9843750000000031
 40
0.9843750000000031
 40
0.9882812500000032
 40
0.9882812500000032
 40
0.9921875000000034
 40
0.9921875000000034
 40
1.0
 40
1.0
 40
1.0
 40
1.0
 10
105.5468308378836
 20
-34.28251030680231
 30
0.0
 10
105.5474211588536
 20
-34.29615155026671
 30
0.0
 10
105.5483035574129
 20
-34.31559712975294
 30
0.0
 10
105.5506771385721
 20
-34.35224628064665
 30
0.0
 10
105.5550282959654
 20
-34.4069459322935
 30
0.0
 10
105.5617515260433
 20
-34.46078340326507
 30
0.0
 10
105.5783305471055
 20
-34.56717674934781
 30
0.0
 10
105.5935743237661
 20
-34.63639879754184
 30
0.0
 10
105.6511744630153
 20
-34.83769068464986
 30
0.0
 10
105.705551693561
 20
-34.96319381170417
 30
0.0
 10
105.9038201425892
 20
-35.30616678350962
 30
0.0
 10
106.0803723670961
 20
-35.48810170969068
 30
0.0
 10
106.4562552324328
 20
-35.78468486996658
 30
0.0
 10
106.6569552430356
 20
-35.90172075392298
 30
0.0
 10
107.055365615328
 20
-36.10803595949807
 30
0.0
 10
107.2537060583011
 20
-36.19716553493353
 30
0.0
 10
107.6221369762926
 20
-36.36757479182353
 30
0.0
 10
107.7921910946708
 20
-36.44906981570494
 30
0.0
 10
108.0717965061756
 20
-36.61083232988046
 30
0.0
 10
108.1795075122685
 20
-36.69120561774309
 30
0.0
 10
108.281015619613
 20
-36.7975744501081
 30
0.0
 10
108.3052733876675
 20
-36.8302354410436
 30
0.0
 10
108.340597697321
 20
-36.89166370601987
 30
0.0
 10
108.3521487249532
 20
-36.9203885808318
 30
0.0
 10
108.3680440011493
 20
-36.98721650290909
 30
0.0
 10
108.3724523928022
 20
-37.02595647537525
 30
0.0
 10
108.3685743524559
 20
-37.10290927993895
 30
0.0
 10
108.3654383361411
 20
-37.13163338718718
 30
0.0
 10
108.3569095899688
 20
-37.17994503563888
 30
0.0
 10
108.3534288674684
 20
-37.19691428841033
 30
0.0
 10
108.3481750622396
 20
-37.21923620327757
 30
0.0
 10
108.3470791846163
 20
-37.22375602768938
 30
0.0
 10
108.3447946790705
 20
-37.23290698872407
 30
0.0
 10
108.34263461183
 20
-37.24152752924713
 30
0.0
 10
108.337574745977
 20
-37.2617455434369
 30
0.0
 10
108.3342015020752
 20
-37.27522421956312
 30
0.0
 10
108.3308282581733
 20
-37.28870289568929
 30
0.0
  0
SPLINE
  5
A3
330
1F
100
AcDbEntity
  8
0
  6
Continuous
 62
     7
370
    25
100
AcDbSpline
210
0.0
220
0.0
230
1.0
 70
     8
 71
     3
 72
    22
 73
    18
 74
     0
 42
0.000000001
 43
0.00000001
 40
0.0
 40
0.0
 40
0.0
 40
0.0
 40
0.125
 40
0.125
 40
0.25
 40
0.25
 40
0.375
 40
0.375
 40
0.5
 40
0.5
 40
0.625
 40
0.625
 40
0.75
 40
0.75
 40
0.875
 40
0.875
 40
1.0
 40
1.0
 40
1.0
 40
1.0
 10
93.21513083590608
 20
-37.36127862903896
 30
0.0
 10
93.22180219113191
 20
-37.22506621709194
 30
0.0
 10
93.25185502643303
 20
-37.13541237782554
 30
0.0
 10
93.3451359954573
 20
-36.9718077912296
 30
0.0
 10
93.41346857082742
 20
-36.89524531681896
 30
0.0
 10
93.61356388739412
 20
-36.73780953440403
 30
0.0
 10
93.74435652705361
 20
-36.65967799505482
 30
0.0
 10
94.04831987316227
 20
-36.50563873195522
 30
0.0
 10
94.22077081174548
 20
-36.42962514326138
 30
0.0
 10
94.58284819802931
 20
-36.26614008032544
 30
0.0
 10
94.77257401221522
 20
-36.17868786588178
 30
0.0
 10
95.14867542898682
 20
-35.96715500464306
 30
0.0
 10
95.33605442922942
 20
-35.84278921598572
 30
0.0
 10
95.67666865342333
 20
-35.52045900577352
 30
0.0
 10
95.82912062787953
 20
-35.31969328259458
 30
0.0
 10
96.03405243160283
 20
-34.83840456299889
 30
0.0
 10
96.0841652633378
 20
-34.56232895196757
 30
0.0
 10
96.07589181438432
 20
-34.26435190572857
 30
0.0
  0
SPLINE
  5
A5
330
1F
100
AcDbEntity
  8
0
  6
Continuous
 62
     7
370
    25
100
AcDbSpline
210
0.0
220
0.0
230
1.0
 70
     8
 71
     3
 72
    16
 73
    12
 74
     0
 42
0.000000001
 43
0.00000001
 40
0.0260066028555867
 40
0.0260066028555867
 40
0.0260066028555867
 40
0.0260066028555867
 40
0.2499999999999973
 40
0.2499999999999973
 40
0.4999999999999947
 40
0.4999999999999947
 40
0.6249999999999966
 40
0.6249999999999966
 40
0.7499999999999984
 40
0.7499999999999984
 40
0.869261275950787
 40
0.869261275950787
 40
0.869261275950787
 40
0.869261275950787
 10
96.07589181447123
 20
-32.70835632894015
 30
0.0
 10
96.18123584288949
 20
-32.43981516398456
 30
0.0
 10
96.25482439778939
 20
-32.18722453832559
 30
0.0
 10
96.33347903955143
 20
-31.67181806982936
 30
0.0
 10
96.32988863840974
 20
-31.40742290612241
 30
0.0
 10
96.21791205735913
 20
-31.03169071141664
 30
0.0
 10
96.16224400754292
 20
-30.91100942085987
 30
0.0
 10
96.0151357102009
 20
-30.69251390557048
 30
0.0
 10
95.92400472717158
 20
-30.5952906686713
 30
0.0
 10
95.72348748710739
 20
-30.43646185250767
 30
0.0
 10
95.61642120993372
 20
-30.37351269788936
 30
0.0
 10
95.50233061829358
 20
-30.32284548372384
 30
0.0
  0
CIRCLE
  5
E0
330
1F
100
AcDbEntity
  8
0
  6
Continuous
 62
     7
370
    25
100
AcDbCircle
 10
-65.0
 20
-68.5
 30
0.0
 40
1.5
  0
CIRCLE
  5
ED
330
1F
100
AcDbEntity
  8
0
  6
Continuous
 62
     7
370
    25
100
AcDbCircle
 10
49.6238247399
 20
-70.0
 30
0.0
 40
1.499999999999986
  0
CIRCLE
  5
EE
330
1F
100
AcDbEntity
  8
0
  6
Continuous
 62
     7
370
    25
100
AcDbCircle
 10
49.6238247399
 20
70.0
 30
0.0
 40
1.500000000001762
  0
CIRCLE
  5
FB
330
1F
100
AcDbEntity
  8
0
  6
Continuous
 62
     7
370
    25
100
AcDbCircle
 10
-65.0
 20
68.5
 30
0.0
 40
1.499999999999616
  0
CIRCLE
  5
FC
330
1F
100
AcDbEntity
  8
0
  6
Continuous
 62
     7
370
    25
100
AcDbCircle
 10
-28.5
 20
-55.0
 30
0.0
 40
1.5
  0
CIRCLE
  5
FD
330
1F
100
AcDbEntity
  8
0
  6
Continuous
 62
     7
370
    25
100
AcDbCircle
 10
-28.5
 20
55.0
 30
0.0
 40
1.500000000000007
  0
CIRCLE
  5
142
330
1F
100
AcDbEntity
  8
0
  6
Continuous
 62
     7
370
    25
100
AcDbCircle
 10
-22.0
 20
0.0
 30
0.0
 40
9.999999999999872
  0
CIRCLE
  5
143
330
1F
100
AcDbEntity
  8
0
  6
Continuous
 62
     7
370
    25
100
AcDbCircle
 10
-20.6304914065
 20
70.0
 30
0.0
 40
1.500000000001762
  0
CIRCLE
  5
144
330
1F
100
AcDbEntity
  8
0
  6
Continuous
 62
     7
370
    25
100
AcDbCircle
 10
-20.6304914065
 20
-70.0
 30
0.0
 40
1.499999999999986
  0
SPLINE
  5
15E
330
1F
100
AcDbEntity
  8
0
  6
Continuous
 62
     7
370
    25
100
AcDbSpline
210
0.0
220
0.0
230
1.0
 70
     8
 71
     3
 72
    13
 73
     9
 74
     0
 42
0.000000001
 43
0.00000001
 40
0.0
 40
0.0
 40
0.0
 40
0.0
 40
0.1256021648662073
 40
0.2511853489310844
 40
0.5000183493980085
 40
0.7499953609292347
 40
0.8748283560832056
 40
0.9999999999999999
 40
0.9999999999999999
 40
0.9999999999999999
 40
0.9999999999999999
 10
94.54044648600838
 20
-99.9999999999982
 30
0.0
 10
94.98264198674643
 20
-99.99965923076304
 30
0.0
 10
95.86696616433495
 20
-99.99897774378924
 30
0.0
 10
97.62393644187152
 20
-99.89299525860854
 30
0.0
 10
99.80067828497513
 20
-99.44010759504056
 30
0.0
 10
101.7563666226681
 20
-98.38763915650074
 30
0.0
 10
103.1697827686654
 20
-97.33891802691006
 30
0.0
 10
103.8444633764083
 20
-96.7736723284311
 30
0.0
 10
104.1822606313067
 20
-96.4906666467826
 30
0.0
  0
SPLINE
  5
16C
330
1F
100
AcDbEntity
  8
0
  6
Continuous
 62
     7
370
    25
100
AcDbSpline
210
0.0
220
0.0
230
1.0
 70
     8
 71
     3
 72
    13
 73
     9
 74
     0
 42
0.000000001
 43
0.00000001
 40
0.0
 40
0.0
 40
0.0
 40
0.0
 40
0.1256021648662159
 40
0.2511853489310892
 40
0.500018349398015
 40
0.7499953609292391
 40
0.8748283560832094
 40
1.0
 40
1.0
 40
1.0
 40
1.0
 10
104.1822606312563
 20
96.49066664682526
 30
0.0
 10
103.8433001829015
 20
96.77464339137995
 30
0.0
 10
103.1654305093609
 20
97.34255396637091
 30
0.0
 10
101.7513889632104
 20
98.39072539751852
 30
0.0
 10
99.79279739147445
 20
99.44297600571858
 30
0.0
 10
97.61813953603192
 20
99.89383063869437
 30
0.0
 10
95.86129500345828
 20
99.99899003096752
 30
0.0
 10
94.98112674160548
 20
99.99966303980364
 30
0.0
 10
94.54044648595509
 20
100.0000000000405
 30
0.0
  0
SPLINE
  5
16E
330
1F
100
AcDbEntity
  8
0
  6
Continuous
 62
     7
370
    25
100
AcDbSpline
210
0.0
220
0.0
230
1.0
 70
     8
 71
     3
 72
    19
 73
    15
 74
     0
 42
0.000000001
 43
0.00000001
 40
0.0
 40
0.0
 40
0.0
 40
0.0
 40
0.0720024963549838
 40
0.1247430922291154
 40
0.1892462758718443
 40
0.248911271460822
 40
0.3783677331686803
 40
0.4989365994340645
 40
0.6193811871007217
 40
0.7486494851053042
 40
0.8089791640717007
 40
0.8742848059459861
 40
0.9274190980659289
 40
1.0
 40
1.0
 40
1.0
 40
1.0
 10
124.9999999999995
 20
72.02789434824345
 30
0.0
 10
124.999285288935
 20
72.34674701911736
 30
0.0
 10
124.9980470642517
 20
72.89915381254615
 30
0.0
 10
124.981066159794
 20
73.73710220095072
 30
0.0
 10
124.9356287447626
 20
74.51950083901123
 30
0.0
 10
124.8196339917813
 20
75.63688606068094
 30
0.0
 10
124.5545173678822
 20
76.98724571597916
 30
0.0
 10
123.9951690565824
 20
78.53765848198617
 30
0.0
 10
123.1717964819935
 20
79.96454555382323
 30
0.0
 10
122.309529212533
 20
81.03910422961702
 30
0.0
 10
121.5256036091669
 20
81.85166681478577
 30
0.0
 10
120.9499474309754
 20
82.39557717672467
 30
0.0
 10
120.3132183628051
 20
82.95258781144203
 30
0.0
 10
119.8875634295999
 20
83.3114018781
 30
0.0
 10
119.6418141452974
 20
83.5185609950281
 30
0.0
  0
CIRCLE
  5
16F
330
1F
100
AcDbEntity
  8
0
  6
Continuous
 62
     7
370
    25
100
AcDbCircle
 10
23.0
 20
-50.665
 30
0.0
 40
1.499999999999993
  0
CIRCLE
  5
170
330
1F
100
AcDbEntity
  8
0
  6
Continuous
 62
     7
370
    25
100
AcDbCircle
 10
23.0
 20
-31.365
 30
0.0
 40
1.499999999999986
  0
CIRCLE
  5
171
330
1F
100
AcDbEntity
  8
0
  6
Continuous
 62
     7
370
    25
100
AcDbCircle
 10
23.0
 20
-10.455
 30
0.0
 40
1.499999999999984
  0
CIRCLE
  5
172
330
1F
100
AcDbEntity
  8
0
  6
Continuous
 62
     7
370
    25
100
AcDbCircle
 10
23.0
 20
8.845
 30
0.0
 40
1.499999999999986
  0
CIRCLE
  5
173
330
1F
100
AcDbEntity
  8
0
  6
Continuous
 62
     7
370
    25
100
AcDbCircle
 10
23.0
 20
29.755
 30
0.0
 40
1.499999999999982
  0
CIRCLE
  5
174
330
1F
100
AcDbEntity
  8
0
  6
Continuous
 62
     7
370
    25
100
AcDbCircle
 10
23.0
 20
49.055
 30
0.0
 40
1.499999999999972
  0
SPLINE
  5
278
330
1F
100
AcDbEntity
  8
0
  6
Continuous
 62
     7
370
    25
100
AcDbSpline
210
0.0
220
0.0
230
1.0
 70
     8
 71
     3
 72
    19
 73
    15
 74
     0
 42
0.000000001
 43
0.00000001
 40
0.0
 40
0.0
 40
0.0
 40
0.0
 40
0.0720024963642576
 40
0.1247430922291275
 40
0.1892462758810171
 40
0.2489112714608366
 40
0.3783677331675236
 40
0.4989365994339628
 40
0.6193811870940377
 40
0.7486494851052197
 40
0.8089791640989824
 40
0.8742848059459979
 40
0.9274190981158413
 40
0.9999999999999999
 40
0.9999999999999999
 40
0.9999999999999999
 40
0.9999999999999999
 10
119.6418141452988
 20
-83.51856099502574
 30
0.0
 10
119.8856100546106
 20
-83.3130589484073
 30
0.0
 10
120.3079822935745
 20
-82.95703017094783
 30
0.0
 10
120.9389728851731
 20
-82.40539920179539
 30
0.0
 10
121.5091184067307
 20
-81.86767597214383
 30
0.0
 10
122.290525156608
 20
-81.0605774604614
 30
0.0
 10
123.1545469857516
 20
-79.98949188891578
 30
0.0
 10
123.9826899056959
 20
-78.56442010742794
 30
0.0
 10
124.5464951289456
 20
-77.01649479184503
 30
0.0
 10
124.8154001142935
 20
-75.66524673878891
 30
0.0
 10
124.9339615026406
 20
-74.54241972464517
 30
0.0
 10
124.9805963541396
 20
-73.7518226665356
 30
0.0
 10
124.9980096998539
 20
-72.90602036775233
 30
0.0
 10
124.9992715046715
 20
-72.34930853525546
 30
0.0
 10
125.0000000000005
 20
-72.0278943482412
 30
0.0
  0
CIRCLE
  5
27A
330
1F
100
AcDbEntity
  8
0
  6
Continuous
 62
     7
370
    25
100
AcDbCircle
 10
116.6477217957
 20
36.3437061794
 30
0.0
 40
0.2499999999999858
  0
CIRCLE
  5
27B
330
1F
100
AcDbEntity
  8
0
  6
Continuous
 62
     7
370
    25
100
AcDbCircle
 10
116.646701735
 20
44.2303913954
 30
0.0
 40
0.25
  0
SPLINE
  5
27C
330
1F
100
AcDbEntity
  8
0
  6
Continuous
 62
     7
370
    25
100
AcDbSpline
210
0.0
220
0.0
230
1.0
 70
     8
 71
     3
 72
    16
 73
    12
 74
     0
 42
0.000000001
 43
0.00000001
 40
0.031350938565714
 40
0.031350938565714
 40
0.031350938565714
 40
0.031350938565714
 40
0.2500000000000092
 40
0.2500000000000092
 40
0.5000000000000183
 40
0.5000000000000183
 40
0.6250000000000229
 40
0.6250000000000229
 40
0.7500000000000275
 40
0.7500000000000275
 40
1.0
 40
1.0
 40
1.0
 40
1.0
 10
106.493098804465
 20
-32.36142581676975
 30
0.0
 10
106.427944941534
 20
-32.13921238724437
 30
0.0
 10
106.393641637396
 20
-31.9501818739811
 30
0.0
 10
106.3747081849288
 20
-31.62937670445346
 30
0.0
 10
106.3974206814647
 20
-31.51385519705745
 30
0.0
 10
106.4425943059376
 20
-31.40608159515789
 30
0.0
 10
106.4591661962505
 20
-31.37977630711175
 30
0.0
 10
106.4989764902037
 20
-31.33275694683622
 30
0.0
 10
106.5226594129425
 20
-31.31155973863164
 30
0.0
 10
106.6243343675998
 20
-31.24716349817036
 30
0.0
 10
106.7379809943035
 20
-31.20392750305392
 30
0.0
 10
106.91198901392
 20
-31.18343698820671
 30
0.0
  0
SPLINE
  5
280
330
1F
100
AcDbEntity
  8
0
  6
Continuous
 62
     7
370
    25
100
AcDbSpline
210
0.0
220
0.0
230
1.0
 70
     8
 71
     3
 72
    16
 73
    12
 74
     0
 42
0.000000001
 43
0.00000001
 40
0.0
 40
0.0
 40
0.0
 40
0.0
 40
0.249999999999983
 40
0.249999999999983
 40
0.3749999999999745
 40
0.3749999999999745
 40
0.499999999999966
 40
0.499999999999966
 40
0.749999999999983
 40
0.749999999999983
 40
0.9695789947198258
 40
0.9695789947198258
 40
0.9695789947198258
 40
0.9695789947198258
 10
114.5634235459302
 20
-31.17496695667323
 30
0.0
 10
114.714560433772
 20
-31.20854495970615
 30
0.0
 10
114.8106413608641
 20
-31.25696095981257
 30
0.0
 10
114.9002430842567
 20
-31.32725534918594
 30
0.0
 10
114.9221129087912
 20
-31.35051055056213
 30
0.0
 10
114.9595683803188
 20
-31.40306906553588
 30
0.0
 10
114.9753752749421
 20
-31.43277719610341
 30
0.0
 10
115.0160680337524
 20
-31.54864426367516
 30
0.0
 10
115.0330320534815
 20
-31.66518125247632
 30
0.0
 10
115.0063183020716
 20
-31.97407919541583
 30
0.0
 10
114.9695231630734
 20
-32.15310747356652
 30
0.0
 10
114.9036993785829
 20
-32.36142581688334
 30
0.0
  0
SPLINE
  5
285
330
1F
100
AcDbEntity
  8
0
  6
Continuous
 62
     7
370
    25
100
AcDbSpline
210
0.0
220
0.0
230
1.0
 70
     8
 71
     3
 72
    22
 73
    18
 74
     0
 42
0.000000001
 43
0.00000001
 40
0.0
 40
0.0
 40
0.0
 40
0.0
 40
0.125
 40
0.125
 40
0.25
 40
0.25
 40
0.375
 40
0.375
 40
0.5
 40
0.5
 40
0.625
 40
0.625
 40
0.75
 40
0.75
 40
0.875
 40
0.875
 40
1.0
 40
1.0
 40
1.0
 40
1.0
 10
114.8477730182762
 20
-34.26578521446118
 30
0.0
 10
114.8435540586099
 20
-34.42880208454994
 30
0.0
 10
114.8104678570595
 20
-34.54190556977233
 30
0.0
 10
114.7090592313432
 20
-34.73840384992663
 30
0.0
 10
114.6368495437972
 20
-34.82511409175803
 30
0.0
 10
114.431398663396
 20
-34.99818069281808
 30
0.0
 10
114.2984204720339
 20
-35.08181479839016
 30
0.0
 10
113.9893193309013
 20
-35.24252848896562
 30
0.0
 10
113.8140267271607
 20
-35.3195592130552
 30
0.0
 10
113.446557955487
 20
-35.47900154920686
 30
0.0
 10
113.2544238477708
 20
-35.56135731041085
 30
0.0
 10
112.8736735044668
 20
-35.75534003630456
 30
0.0
 10
112.6840546859496
 20
-35.86679726987197
 30
0.0
 10
112.3338339842864
 20
-36.16026117380061
 30
0.0
 10
112.1724449231142
 20
-36.3464121572659
 30
0.0
 10
111.9556267663326
 20
-36.80959452982886
 30
0.0
 10
111.9060066981288
 20
-37.08071111395612
 30
0.0
 10
111.9226909694233
 20
-37.3659758837515
 30
0.0
  0
SPLINE
  5
28B
330
1F
100
AcDbEntity
  8
0
  6
Continuous
 62
     7
370
    25
100
AcDbSpline
210
0.0
220
0.0
230
1.0
 70
     8
 71
     3
 72
    26
 73
    22
 74
     0
 42
0.000000001
 43
0.00000001
 40
0.0
 40
0.0
 40
0.0
 40
0.0
 40
0.0625000000000012
 40
0.0625000000000012
 40
0.1250000000000024
 40
0.1250000000000024
 40
0.1875000000000036
 40
0.1875000000000036
 40
0.2500000000000047
 40
0.2500000000000047
 40
0.3750000000000039
 40
0.3750000000000039
 40
0.5000000000000031
 40
0.5000000000000031
 40
0.6250000000000023
 40
0.6250000000000023
 40
0.7500000000000016
 40
0.7500000000000016
 40
0.8750000000000009
 40
0.8750000000000009
 40
1.0
 40
1.0
 40
1.0
 40
1.0
 10
72.37069784032207
 20
-37.40450685228281
 30
0.0
 10
72.40159180369874
 20
-37.25359665230391
 30
0.0
 10
72.41406688378967
 20
-37.1049999478336
 30
0.0
 10
72.39732583970208
 20
-36.81567007656587
 30
0.0
 10
72.36761731054902
 20
-36.67525669073176
 30
0.0
 10
72.269701183797
 20
-36.41625002002235
 30
0.0
 10
72.20192332677121
 20
-36.2982771914924
 30
0.0
 10
72.04418333432481
 20
-36.09081681504247
 30
0.0
 10
71.95459094336222
 20
-36.00100674840647
 30
0.0
 10
71.67069664684222
 20
-35.7641297698958
 30
0.0
 10
71.46193935238415
 20
-35.64762229254387
 30
0.0
 10
71.03540743818486
 20
-35.44472902219741
 30
0.0
 10
70.8163100285839
 20
-35.35895703513184
 30
0.0
 10
70.38993798390099
 20
-35.19198638037604
 30
0.0
 10
70.18271104714249
 20
-35.11092813011968
 30
0.0
 10
69.81062984715278
 20
-34.93945085001381
 30
0.0
 10
69.64648873416832
 20
-34.84881236187264
 30
0.0
 10
69.39003090897178
 20
-34.65891460575364
 30
0.0
 10
69.29921697305181
 20
-34.56247128208908
 30
0.0
 10
69.17766956833937
 20
-34.35646503232104
 30
0.0
 10
69.14062022040187
 20
-34.24476249419742
 30
0.0
 10
69.13547587405739
 20
-34.08047331642685
 30
0.0
  0
SPLINE
  5
290
330
1F
100
AcDbEntity
  8
0
  6
Continuous
 62
     7
370
    25
100
AcDbSpline
210
0.0
220
0.0
230
1.0
 70
     8
 71
     3
 72
    18
 73
    14
 74
     0
 42
0.000000001
 43
0.00000001
 40
0.026124359135381
 40
0.026124359135381
 40
0.026124359135381
 40
0.026124359135381
 40
0.2499999999999978
 40
0.2499999999999978
 40
0.3749999999999971
 40
0.3749999999999971
 40
0.4999999999999964
 40
0.4999999999999964
 40
0.6249999999999958
 40
0.6249999999999958
 40
0.7499999999999951
 40
0.7499999999999951
 40
1.0
 40
1.0
 40
1.0
 40
1.0
 10
69.0790377931651
 20
-32.3418268664816
 30
0.0
 10
69.0015450030535
 20
-32.10092773230624
 30
0.0
 10
68.96384424649425
 20
-31.90053927908701
 30
0.0
 10
68.95357663351324
 20
-31.66562543426683
 30
0.0
 10
68.95918840454883
 20
-31.59722085890072
 30
0.0
 10
68.98014013460205
 20
-31.49055671961243
 30
0.0
 10
68.99492657335462
 20
-31.4524471016051
 30
0.0
 10
69.02807966410218
 20
-31.39240738890914
 30
0.0
 10
69.0463573422435
 20
-31.36954389824619
 30
0.0
 10
69.09921640240503
 20
-31.3229127259729
 30
0.0
 10
69.13470332359647
 20
-31.29913476587359
 30
0.0
 10
69.28975237810522
 20
-31.23037074350226
 30
0.0
 10
69.46028861473889
 20
-31.19168080829562
 30
0.0
 10
69.69772626703292
 20
-31.18676066093201
 30
0.0
  0
SPLINE
  5
294
330
1F
100
AcDbEntity
  8
0
  6
Continuous
 62
     7
370
    25
100
AcDbSpline
210
0.0
220
0.0
230
1.0
 70
     8
 71
     3
 72
    20
 73
    16
 74
     0
 42
0.000000001
 43
0.00000001
 40
0.0
 40
0.0
 40
0.0
 40
0.0
 40
0.1249999999999913
 40
0.1249999999999913
 40
0.2499999999999826
 40
0.2499999999999826
 40
0.3749999999999858
 40
0.3749999999999858
 40
0.4999999999999891
 40
0.4999999999999891
 40
0.6249999999999923
 40
0.6249999999999923
 40
0.7499999999999957
 40
0.7499999999999957
 40
0.9779099949556441
 40
0.9779099949556441
 40
0.9779099949556441
 40
0.9779099949556441
 10
77.30888051630146
 20
-31.18530775728254
 30
0.0
 10
77.40123910473443
 20
-31.19262113744595
 30
0.0
 10
77.47799825373549
 20
-31.20632880264363
 30
0.0
 10
77.59939192715163
 20
-31.24001355009866
 30
0.0
 10
77.6437446918068
 20
-31.25974818387576
 30
0.0
 10
77.7070959563262
 20
-31.29728129060269
 30
0.0
 10
77.72645359068567
 20
-31.31450842965203
 30
0.0
 10
77.75743090374795
 20
-31.3507524293833
 30
0.0
 10
77.76981001426624
 20
-31.37044859277771
 30
0.0
 10
77.79338298022864
 20
-31.43110644403914
 30
0.0
 10
77.80400909058191
 20
-31.47255828785163
 30
0.0
 10
77.81430825400831
 20
-31.58593485971673
 30
0.0
 10
77.81369075899818
 20
-31.65753411143042
 30
0.0
 10
77.78564312004305
 20
-31.89961021110135
 30
0.0
 10
77.73583909293531
 20
-32.10209435339699
 30
0.0
 10
77.6483880982093
 20
-32.34182686671323
 30
0.0
  0
SPLINE
  5
299
330
1F
100
AcDbEntity
  8
0
  6
Continuous
 62
     7
370
    25
100
AcDbSpline
210
0.0
220
0.0
230
1.0
 70
     8
 71
     3
 72
    30
 73
    26
 74
     0
 42
0.000000001
 43
0.00000001
 40
0.0
 40
0.0
 40
0.0
 40
0.0
 40
0.1249999999999979
 40
0.1249999999999979
 40
0.2499999999999958
 40
0.2499999999999958
 40
0.3749999999999938
 40
0.3749999999999938
 40
0.4999999999999917
 40
0.4999999999999917
 40
0.6249999999999896
 40
0.6249999999999896
 40
0.7499999999999876
 40
0.7499999999999876
 40
0.8749999999999855
 40
0.8749999999999855
 40
0.9374999999999877
 40
0.9374999999999877
 40
0.9687499999999877
 40
0.9687499999999877
 40
0.9843749999999909
 40
0.9921874999999953
 40
0.9960937499999977
 40
0.9960937499999977
 40
1.0
 40
1.0
 40
1.0
 40
1.0
 10
74.78190026748474
 20
-37.36245295987701
 30
0.0
 10
74.7685618582905
 20
-37.07017629859643
 30
0.0
 10
74.81744150251225
 20
-36.79682059563733
 30
0.0
 10
75.03051174327881
 20
-36.32621908271624
 30
0.0
 10
75.19067442834304
 20
-36.1354847798828
 30
0.0
 10
75.53997534744755
 20
-35.83860631655786
 30
0.0
 10
75.72894337242441
 20
-35.72827464910852
 30
0.0
 10
76.1047133065286
 20
-35.54010528626522
 30
0.0
 10
76.2927011034334
 20
-35.46224744577524
 30
0.0
 10
76.648342163847
 20
-35.31253682822813
 30
0.0
 10
76.81594653903105
 20
-35.24071612110132
 30
0.0
 10
77.10617652029566
 20
-35.09050659624715
 30
0.0
 10
77.22769114598331
 20
-35.01235449707043
 30
0.0
 10
77.41063113888598
 20
-34.85079301249451
 30
0.0
 10
77.47276705170788
 20
-34.77060577442097
 30
0.0
 10
77.5394797676538
 20
-34.62349653115847
 30
0.0
 10
77.55741566112152
 20
-34.56910749443069
 30
0.0
 10
77.5763926826601
 20
-34.47206538586785
 30
0.0
 10
77.58134696513486
 20
-34.43714575990817
 30
0.0
 10
77.58619268316268
 20
-34.38018088102539
 30
0.0
 10
77.58796654656477
 20
-34.35055544127627
 30
0.0
 10
77.58876629951418
 20
-34.31386979485231
 30
0.0
 10
77.58882206632646
 20
-34.29768173793983
 30
0.0
 10
77.58879382494979
 20
-34.28678508148043
 30
0.0
 10
77.58875398274493
 20
-34.28240362741358
 30
0.0
 10
77.58865791862776
 20
-34.27489502544597
 30
0.0
  0
SPLINE
  5
2A1
330
1F
100
AcDbEntity
  8
0
  6
Continuous
 62
     7
370
    25
100
AcDbSpline
210
0.0
220
0.0
230
1.0
 70
     8
 71
     3
 72
    13
 73
     9
 74
     0
 42
0.000000001
 43
0.00000001
 40
0.0
 40
0.0
 40
0.0
 40
0.0
 40
0.0078125000000016
 40
0.0078125000000016
 40
0.0156250000000033
 40
0.0312500000000029
 40
0.0312500000000029
 40
0.0436142945034536
 40
0.0436142945034536
 40
0.0436142945034536
 40
0.0436142945034536
 10
92.21513083590614
 20
-37.34038999695893
 30
0.0
 10
92.21565369310689
 20
-37.32723036717655
 30
0.0
 10
92.21644019588868
 20
-37.30852734200246
 30
0.0
 10
92.21853928226942
 20
-37.27354585593952
 30
0.0
 10
92.22238895818354
 20
-37.22133681205782
 30
0.0
 10
92.22835038639062
 20
-37.16994057408211
 30
0.0
 10
92.23715268746965
 20
-37.1092640167675
 30
0.0
 10
92.2416313719397
 20
-37.08270431933737
 30
0.0
 10
92.24669341416691
 20
-37.0564099911326
 30
0.0
  0
SPLINE
  5
2A7
330
1F
100
AcDbEntity
  8
0
  6
Continuous
 62
     7
370
    25
100
AcDbSpline
210
0.0
220
0.0
230
1.0
 70
     8
 71
     3
 72
    26
 73
    22
 74
     0
 42
0.000000001
 43
0.00000001
 40
0.0
 40
0.0
 40
0.0
 40
0.0
 40
0.1249999999999993
 40
0.1249999999999993
 40
0.2499999999999987
 40
0.2499999999999987
 40
0.374999999999998
 40
0.374999999999998
 40
0.4999999999999973
 40
0.4999999999999973
 40
0.6249999999999967
 40
0.6249999999999967
 40
0.749999999999996
 40
0.749999999999996
 40
0.812499999999997
 40
0.812499999999997
 40
0.874999999999998
 40
0.874999999999998
 40
0.937499999999999
 40
0.937499999999999
 40
1.0
 40
1.0
 40
1.0
 40
1.0
 10
106.5468308378836
 20
-34.25970346289696
 30
0.0
 10
106.5541437472669
 20
-34.39532399066847
 30
0.0
 10
106.5862982654985
 20
-34.48995913557306
 30
0.0
 10
106.6928824725863
 20
-34.67167704455732
 30
0.0
 10
106.7723182545401
 20
-34.75962664136727
 30
0.0
 10
106.9946542860577
 20
-34.9363135232771
 30
0.0
 10
107.1363483700608
 20
-35.02290436686548
 30
0.0
 10
107.4576205747518
 20
-35.19105000985074
 30
0.0
 10
107.6366090198366
 20
-35.27273169915289
 30
0.0
 10
108.0057406823931
 20
-35.44301608065032
 30
0.0
 10
108.1958833357137
 20
-35.5314660309155
 30
0.0
 10
108.5669751056812
 20
-35.7389014859661
 30
0.0
 10
108.7492595551424
 20
-35.85760284208428
 30
0.0
 10
108.9949586570394
 20
-36.09243357466365
 30
0.0
 10
109.0719929080388
 20
-36.18055884018585
 30
0.0
 10
109.2059142513817
 20
-36.38063481919203
 30
0.0
 10
109.2624740859708
 20
-36.49277756937892
 30
0.0
 10
109.3422831983108
 20
-36.7356460550095
 30
0.0
 10
109.3652526832169
 20
-36.86588179834563
 30
0.0
 10
109.3742232219012
 20
-37.13289796517707
 30
0.0
 10
109.3605927119921
 20
-37.26943907854609
 30
0.0
 10
109.3308282581733
 20
-37.40751000141464
 30
0.0
  0
LWPOLYLINE
  5
2B0
330
1F
100
AcDbEntity
  8
0
  6
Continuous
 62
     7
370
    25
100
AcDbPolyline
 90
       37
 70
   128
 43
0.0
 10
105.4120397194
 20
-3.21636827
 10
105.4748872573
 20
-3.7891816273
 10
105.6615202802
 20
-4.3445903406
 10
105.9662680383
 20
-4.8657185972
 10
106.3798709251
 20
-5.3367321788
 10
106.8897618262
 20
-5.7433195759
 10
107.4804479645
 20
-6.0731268363
 10
108.1339816407
 20
-6.3161329332
 10
108.8305055647
 20
-6.4649542494
 10
109.5488562096
 20
-6.5150689245
 10
110.2672068545
 20
-6.4649542494
 10
110.9637307785
 20
-6.3161329332
 10
111.6172644547
 20
-6.0731268363
 10
112.207950593
 20
-5.7433195759
 10
112.7178414941
 20
-5.3367321788
 10
113.1314443809
 20
-4.8657185972
 10
113.436192139
 20
-4.3445903406
 10
113.6228251619
 20
-3.7891816273
 10
113.6856726998
 20
-3.21636827
 10
113.6228251619
 20
-2.6435549127
 10
113.436192139
 20
-2.0881461993
 10
113.1314443809
 20
-1.5670179427
 10
112.7178414941
 20
-1.0960043612
 10
112.207950593
 20
-0.6894169641
 10
111.6172644547
 20
-0.3596097037
 10
110.9637307785
 20
-0.1166036068
 10
110.2672068545
 20
0.0322177095
 10
109.5488562096
 20
0.0823323845
 10
108.8305055647
 20
0.0322177095
 10
108.1339816407
 20
-0.1166036068
 10
107.4804479645
 20
-0.3596097037
 10
106.8897618262
 20
-0.6894169641
 10
106.3798709251
 20
-1.0960043612
 10
105.9662680383
 20
-1.5670179427
 10
105.6615202802
 20
-2.0881461993
 10
105.4748872573
 20
-2.6435549127
 10
105.4120397194
 20
-3.21636827
  0
CIRCLE
  5
2B1
330
1F
100
AcDbEntity
  8
0
  6
Continuous
 62
     7
370
    25
100
AcDbCircle
 10
112.5009437673
 20
36.3437061794
 30
0.0
 40
0.25
  0
CIRCLE
  5
2B6
330
1F
100
AcDbEntity
  8
0
  6
Continuous
 62
     7
370
    25
100
AcDbCircle
 10
105.3550794527
 20
44.2303913954
 30
0.0
 40
0.25
  0
CIRCLE
  5
2B7
330
1F
100
AcDbEntity
  8
0
  6
Continuous
 62
     7
370
    25
100
AcDbCircle
 10
102.2358045425
 20
36.3437061794
 30
0.0
 40
0.2500000000000142
  0
LWPOLYLINE
  5
2B8
330
1F
100
AcDbEntity
  8
0
  6
Continuous
 62
     7
370
    25
100
AcDbPolyline
 90
       37
 70
   128
 43
0.0
 10
93.765850906
 20
-9.7255467662
 10
93.7943129372
 20
-9.9429910597
 10
93.8788342266
 20
-10.1538284185
 10
94.0168466373
 20
-10.3516526559
 10
94.2041567323
 20
-10.5304529827
 10
94.4350731891
 20
-10.6847966415
 10
94.7025797279
 20
-10.8099939781
 10
94.9985482979
 20
-10.902240935
 10
95.313986044
 20
-10.958734635
 10
95.6393085498
 20
-10.9777585457
 10
95.9646310555
 20
-10.958734635
 10
96.2800688016
 20
-10.902240935
 10
96.5760373716
 20
-10.8099939781
 10
96.8435439104
 20
-10.6847966415
 10
97.0744603672
 20
-10.5304529827
 10
97.2617704622
 20
-10.3516526559
 10
97.399782873
 20
-10.1538284185
 10
97.4843041623
 20
-9.9429910597
 10
97.5127661935
 20
-9.7255467662
 10
97.4843041623
 20
-9.5081024726
 10
97.399782873
 20
-9.2972651138
 10
97.2617704622
 20
-9.0994408764
 10
97.0744603672
 20
-8.9206405496
 10
96.8435439104
 20
-8.7662968908
 10
96.5760373716
 20
-8.6410995542
 10
96.2800688016
 20
-8.5488525973
 10
95.9646310555
 20
-8.4923588973
 10
95.6393085498
 20
-8.4733349866
 10
95.313986044
 20
-8.4923588973
 10
94.9985482979
 20
-8.5488525973
 10
94.7025797279
 20
-8.6410995542
 10
94.4350731891
 20
-8.7662968908
 10
94.2041567323
 20
-8.9206405496
 10
94.0168466373
 20
-9.0994408764
 10
93.8788342266
 20
-9.2972651138
 10
93.7943129372
 20
-9.5081024726
 10
93.765850906
 20
-9.7255467662
  0
LWPOLYLINE
  5
2B9
330
1F
100
AcDbEntity
  8
0
  6
Continuous
 62
     7
370
    25
100
AcDbPolyline
 90
       37
 70
   128
 43
0.0
 10
91.1622776861
 20
-9.7255467662
 10
91.2302938447
 20
-10.2623653506
 10
91.4322756841
 20
-10.7828729739
 10
91.7620860883
 20
-11.2712542755
 10
92.2097039349
 20
-11.7126700366
 10
92.7615285824
 20
-12.0937080626
 10
93.4007931179
 20
-12.402790706
 10
94.1080738121
 20
-12.630526647
 10
94.8618802989
 20
-12.7699962443
 10
95.6393085498
 20
-12.8169617848
 10
96.4167368006
 20
-12.7699962443
 10
97.1705432874
 20
-12.630526647
 10
97.8778239816
 20
-12.402790706
 10
98.5170885171
 20
-12.0937080626
 10
99.0689131646
 20
-11.7126700366
 10
99.5165310113
 20
-11.2712542755
 10
99.8463414154
 20
-10.7828729739
 10
100.0483232548
 20
-10.2623653506
 10
100.1163394135
 20
-9.7255467662
 10
100.0483232548
 20
-9.1887281818
 10
99.8463414154
 20
-8.6682205584
 10
99.5165310113
 20
-8.1798392568
 10
99.0689131646
 20
-7.7384234958
 10
98.5170885171
 20
-7.3573854697
 10
97.8778239816
 20
-7.0483028263
 10
97.1705432874
 20
-6.8205668853
 10
96.4167368006
 20
-6.681097288
 10
95.6393085498
 20
-6.6341317475
 10
94.8618802989
 20
-6.681097288
 10
94.1080738121
 20
-6.8205668853
 10
93.4007931179
 20
-7.0483028263
 10
92.7615285824
 20
-7.3573854697
 10
92.2097039349
 20
-7.7384234958
 10
91.7620860883
 20
-8.1798392568
 10
91.4322756841
 20
-8.6682205584
 10
91.2302938447
 20
-9.1887281818
 10
91.1622776861
 20
-9.7255467662
  0
LWPOLYLINE
  5
2BA
330
1F
100
AcDbEntity
  8
0
  6
Continuous
 62
     7
370
    25
100
AcDbPolyline
 90
       37
 70
   128
 43
0.0
 10
93.7323115829
 20
3.3318093552
 10
93.7612831519
 20
3.1273729039
 10
93.8473175722
 20
2.9291481508
 10
93.9878007315
 20
2.7431580546
 10
94.1784641203
 20
2.5750538303
 10
94.4135145278
 20
2.4299432397
 10
94.6858100663
 20
2.3122353947
 10
94.9870771738
 20
2.2255067885
 10
95.3081620017
 20
2.1723926259
 10
95.6393085498
 20
2.154506754
 10
95.9704550979
 20
2.1723926259
 10
96.2915399257
 20
2.2255067885
 10
96.5928070332
 20
2.3122353947
 10
96.8651025718
 20
2.4299432397
 10
97.1001529792
 20
2.5750538303
 10
97.290816368
 20
2.7431580546
 10
97.4312995274
 20
2.9291481508
 10
97.5173339477
 20
3.1273729039
 10
97.5463055166
 20
3.3318093552
 10
97.5173339477
 20
3.5362458064
 10
97.4312995274
 20
3.7344705595
 10
97.290816368
 20
3.9204606557
 10
97.1001529792
 20
4.08856488
 10
96.8651025718
 20
4.2336754706
 10
96.5928070332
 20
4.3513833156
 10
96.2915399257
 20
4.4381119218
 10
95.9704550979
 20
4.4912260844
 10
95.6393085498
 20
4.5091119563
 10
95.3081620017
 20
4.4912260844
 10
94.9870771738
 20
4.4381119218
 10
94.6858100663
 20
4.3513833156
 10
94.4135145278
 20
4.2336754706
 10
94.1784641203
 20
4.08856488
 10
93.9878007315
 20
3.9204606557
 10
93.8473175722
 20
3.7344705595
 10
93.7612831519
 20
3.5362458064
 10
93.7323115829
 20
3.3318093552
  0
LWPOLYLINE
  5
2BB
330
1F
100
AcDbEntity
  8
0
  6
Continuous
 62
     7
370
    25
100
AcDbPolyline
 90
       37
 70
   128
 43
0.0
 10
91.2159269425
 20
3.3318093552
 10
91.2831280484
 20
2.7618653093
 10
91.4826894945
 20
2.2092387248
 10
91.8085477072
 20
1.6907208809
 10
92.2508016497
 20
1.2220666798
 10
92.7960136597
 20
0.8175159424
 10
93.4276177461
 20
0.489360738
 10
94.1264229385
 20
0.2475718965
 10
94.8711963945
 20
0.0994960495
 10
95.6393085498
 20
0.0496324066
 10
96.407420705
 20
0.0994960495
 10
97.1521941611
 20
0.2475718965
 10
97.8509993534
 20
0.489360738
 10
98.4826034398
 20
0.8175159424
 10
99.0278154498
 20
1.2220666798
 10
99.4700693923
 20
1.6907208809
 10
99.795927605
 20
2.2092387248
 10
99.9954890511
 20
2.7618653093
 10
100.062690157
 20
3.3318093552
 10
99.9954890511
 20
3.901753401
 10
99.795927605
 20
4.4543799855
 10
99.4700693923
 20
4.9728978294
 10
99.0278154498
 20
5.4415520305
 10
98.4826034398
 20
5.8461027679
 10
97.8509993534
 20
6.1742579723
 10
97.1521941611
 20
6.4160468138
 10
96.407420705
 20
6.5641226608
 10
95.6393085498
 20
6.6139863037
 10
94.8711963945
 20
6.5641226608
 10
94.1264229385
 20
6.4160468138
 10
93.4276177461
 20
6.1742579723
 10
92.7960136597
 20
5.8461027679
 10
92.2508016497
 20
5.4415520305
 10
91.8085477072
 20
4.9728978294
 10
91.4826894945
 20
4.4543799855
 10
91.2831280484
 20
3.901753401
 10
91.2159269425
 20
3.3318093552
  0
LWPOLYLINE
  5
2BC
330
1F
100
AcDbEntity
  8
0
  6
Continuous
 62
     7
370
    25
100
AcDbPolyline
 90
       37
 70
   128
 43
0.0
 10
93.9754229419
 20
-9.7255467662
 10
94.000701103
 20
-9.8913157288
 10
94.0757675222
 20
-10.0520478855
 10
94.1983413444
 20
-10.2028594708
 10
94.3646982259
 20
-10.3391681512
 10
94.5697834971
 20
-10.4568322562
 10
94.8073657458
 20
-10.5522766217
 10
95.0702261557
 20
-10.6226012189
 10
95.3503778461
 20
-10.6656692705
 10
95.6393085498
 20
-10.6801721755
 10
95.9282392534
 20
-10.6656692705
 10
96.2083909438
 20
-10.6226012189
 10
96.4712513537
 20
-10.5522766217
 10
96.7088336024
 20
-10.4568322562
 10
96.9139188736
 20
-10.3391681512
 10
97.0802757551
 20
-10.2028594708
 10
97.2028495773
 20
-10.0520478855
 10
97.2779159965
 20
-9.8913157288
 10
97.3031941576
 20
-9.7255467662
 10
97.2779159965
 20
-9.5597778035
 10
97.2028495773
 20
-9.3990456468
 10
97.0802757551
 20
-9.2482340615
 10
96.9139188736
 20
-9.1119253811
 10
96.7088336024
 20
-8.9942612761
 10
96.4712513537
 20
-8.8988169106
 10
96.2083909438
 20
-8.8284923134
 10
95.9282392534
 20
-8.7854242618
 10
95.6393085498
 20
-8.7709213568
 10
95.3503778461
 20
-8.7854242618
 10
95.0702261557
 20
-8.8284923134
 10
94.8073657458
 20
-8.8988169106
 10
94.5697834971
 20
-8.9942612761
 10
94.3646982259
 20
-9.1119253811
 10
94.1983413444
 20
-9.2482340615
 10
94.0757675222
 20
-9.3990456468
 10
94.000701103
 20
-9.5597778035
 10
93.9754229419
 20
-9.7255467662
  0
LWPOLYLINE
  5
2BD
330
1F
100
AcDbEntity
  8
0
  6
Continuous
 62
     7
370
    25
100
AcDbPolyline
 90
       37
 70
   128
 43
0.0
 10
94.020539265
 20
3.3318093552
 10
94.0451320078
 20
3.1720253625
 10
94.1181629981
 20
3.0170963257
 10
94.2374132263
 20
2.871729685
 10
94.3992593345
 20
2.7403423322
 10
94.5987837106
 20
2.6269264057
 10
94.8299239074
 20
2.5349279909
 10
95.085656847
 20
2.4671424131
 10
95.3582122134
 20
2.4256293027
 10
95.6393085498
 20
2.4116500148
 10
95.9204048861
 20
2.4256293027
 10
96.1929602525
 20
2.4671424131
 10
96.4486931921
 20
2.5349279909
 10
96.6798333889
 20
2.6269264057
 10
96.879357765
 20
2.7403423322
 10
97.0412038732
 20
2.871729685
 10
97.1604541014
 20
3.0170963257
 10
97.2334850917
 20
3.1720253625
 10
97.2580778345
 20
3.3318093552
 10
97.2334850917
 20
3.4915933478
 10
97.1604541014
 20
3.6465223846
 10
97.0412038732
 20
3.7918890253
 10
96.879357765
 20
3.9232763781
 10
96.6798333889
 20
4.0366923046
 10
96.4486931921
 20
4.1286907194
 10
96.1929602525
 20
4.1964762973
 10
95.9204048861
 20
4.2379894076
 10
95.6393085498
 20
4.2519686955
 10
95.3582122134
 20
4.2379894076
 10
95.085656847
 20
4.1964762973
 10
94.8299239074
 20
4.1286907194
 10
94.5987837106
 20
4.0366923046
 10
94.3992593345
 20
3.9232763781
 10
94.2374132263
 20
3.7918890253
 10
94.1181629981
 20
3.6465223846
 10
94.0451320078
 20
3.4915933478
 10
94.020539265
 20
3.3318093552
  0
CIRCLE
  5
2BE
330
1F
100
AcDbEntity
  8
0
  6
Continuous
 62
     7
370
    25
100
AcDbCircle
 10
96.565054045
 20
36.3437061794
 30
0.0
 40
0.2500000000000142
  0
SPLINE
  5
2C3
330
1F
100
AcDbEntity
  8
0
  6
Continuous
 62
     7
370
    25
100
AcDbSpline
210
0.0
220
0.0
230
1.0
 70
     8
 71
     3
 72
    18
 73
    14
 74
     0
 42
0.000000001
 43
0.00000001
 40
0.0279656915181012
 40
0.0279656915181012
 40
0.0279656915181012
 40
0.0279656915181012
 40
0.2499999999999916
 40
0.2499999999999916
 40
0.3749999999999922
 40
0.3749999999999922
 40
0.4999999999999929
 40
0.4999999999999929
 40
0.6249999999999936
 40
0.6249999999999936
 40
0.7499999999999942
 40
0.7499999999999942
 40
1.0
 40
1.0
 40
1.0
 40
1.0
 10
86.81260918766831
 20
-32.3483491041818
 30
0.0
 10
86.73860444526218
 20
-32.10597141707512
 30
0.0
 10
86.7003078437822
 20
-31.90232865877376
 30
0.0
 10
86.68610436971771
 20
-31.6574372224696
 30
0.0
 10
86.6899801120073
 20
-31.58437610106148
 30
0.0
 10
86.70807311189323
 20
-31.4692226636646
 30
0.0
 10
86.7219189719363
 20
-31.4274237197854
 30
0.0
 10
86.75150860735113
 20
-31.36526623894732
 30
0.0
 10
86.76678670073012
 20
-31.34425734914628
 30
0.0
 10
86.8062480416944
 20
-31.30470862921785
 30
0.0
 10
86.83131135340291
 20
-31.28567493397655
 30
0.0
 10
86.94767310868568
 20
-31.22766987550081
 30
0.0
 10
87.08492043516459
 20
-31.19118915324319
 30
0.0
 10
87.28829856987748
 20
-31.18674885054859
 30
0.0
  0
SPLINE
  5
2C7
330
1F
100
AcDbEntity
  8
0
  6
Continuous
 62
     7
370
    25
100
AcDbSpline
210
0.0
220
0.0
230
1.0
 70
     8
 71
     3
 72
    16
 73
    12
 74
     0
 42
0.000000001
 43
0.00000001
 40
0.0198843951498558
 40
0.0198843951498558
 40
0.0198843951498558
 40
0.0198843951498558
 40
0.250000000000004
 40
0.250000000000004
 40
0.500000000000008
 40
0.500000000000008
 40
0.62500000000001
 40
0.62500000000001
 40
0.750000000000012
 40
0.750000000000012
 40
1.0
 40
1.0
 40
1.0
 40
1.0
 10
95.13771273927523
 20
-32.36142581504343
 30
0.0
 10
95.22665067292569
 20
-32.1370763418421
 30
0.0
 10
95.28020722734162
 20
-31.94503212167855
 30
0.0
 10
95.328677979719
 20
-31.62741400342766
 30
0.0
 10
95.3178337137314
 20
-31.51281489079367
 30
0.0
 10
95.28641999572694
 20
-31.40740762528378
 30
0.0
 10
95.27400156279789
 20
-31.38226775481794
 30
0.0
 10
95.24435746186231
 20
-31.33823826616069
 30
0.0
 10
95.22682252935937
 20
-31.31875766013587
 30
0.0
 10
95.14779798285058
 20
-31.25616266747668
 30
0.0
 10
95.05422093555637
 20
-31.20851410329261
 30
0.0
 10
94.90004834990268
 20
-31.17629451467081
 30
0.0
  0
SPLINE
  5
2CC
330
1F
100
AcDbEntity
  8
0
  6
Continuous
 62
     7
370
    25
100
AcDbSpline
210
0.0
220
0.0
230
1.0
 70
     8
 71
     3
 72
    27
 73
    23
 74
     0
 42
0.000000001
 43
0.00000001
 40
0.2322484396635119
 40
0.2322484396635119
 40
0.2322484396635119
 40
0.2322484396635119
 40
0.2500000000000011
 40
0.2500000000000011
 40
0.3749999999999988
 40
0.3749999999999988
 40
0.4999999999999965
 40
0.4999999999999965
 40
0.6249999999999942
 40
0.6249999999999942
 40
0.7499999999999918
 40
0.7499999999999918
 40
0.8749999999999895
 40
0.8749999999999895
 40
0.9374999999999915
 40
0.9374999999999915
 40
0.9687499999999902
 40
0.9687499999999902
 40
0.9843749999999925
 40
0.9921874999999962
 40
0.9921874999999962
 40
1.0
 40
1.0
 40
1.0
 40
1.0
 10
92.80850000000024
 20
-36.10244794031581
 30
0.0
 10
92.83306181439185
 20
-36.08098467108512
 30
0.0
 10
92.85793771118033
 20
-36.06025699494791
 30
0.0
 10
93.0597411129804
 20
-35.89926766195731
 30
0.0
 10
93.2481994571442
 20
-35.79047720432425
 30
0.0
 10
93.62276377112484
 20
-35.59980029238264
 30
0.0
 10
93.80963921200303
 20
-35.51801147477922
 30
0.0
 10
94.16192131858855
 20
-35.35902335155671
 30
0.0
 10
94.32722996163527
 20
-35.2818070438364
 30
0.0
 10
94.61239056942296
 20
-35.12150686966633
 30
0.0
 10
94.73120466095659
 20
-35.03871924688655
 30
0.0
 10
94.90992484319662
 20
-34.868930872451
 30
0.0
 10
94.97068862356123
 20
-34.78482046512757
 30
0.0
 10
95.0344185168536
 20
-34.63264039800217
 30
0.0
 10
95.05115812500082
 20
-34.57677092963929
 30
0.0
 10
95.06794540735503
 20
-34.47832104763642
 30
0.0
 10
95.07210842461679
 20
-34.44306799237125
 30
0.0
 10
95.07569455504995
 20
-34.38585535347613
 30
0.0
 10
95.07682067450668
 20
-34.35616886136486
 30
0.0
 10
95.07683642278622
 20
-34.32476386414302
 30
0.0
 10
95.07658748257086
 20
-34.30343639271255
 30
0.0
 10
95.0763563434451
 20
-34.29438297432552
 30
0.0
 10
95.07589181438433
 20
-34.27949541417043
 30
0.0
  0
CIRCLE
  5
2DA
330
1F
100
AcDbEntity
  8
0
  6
Continuous
 62
     7
370
    25
100
AcDbCircle
 10
88.9461641784
 20
44.2303913954
 30
0.0
 40
0.25
  0
CIRCLE
  5
2FB
330
1F
100
AcDbEntity
  8
0
  6
Continuous
 62
     7
370
    25
100
AcDbCircle
 10
83.068453291
 20
36.3437061794
 30
0.0
 40
0.2500000000000142
  0
CIRCLE
  5
300
330
1F
100
AcDbEntity
  8
0
  6
Continuous
 62
     7
370
    25
100
AcDbCircle
 10
77.1345341869
 20
23.7787791394
 30
0.0
 40
0.25
  0
CIRCLE
  5
301
330
1F
100
AcDbEntity
  8
0
  6
Continuous
 62
     7
370
    25
100
AcDbCircle
 10
77.1345341869
 20
56.9064407045
 30
0.0
 40
0.25
  0
CIRCLE
  5
30A
330
1F
100
AcDbEntity
  8
0
  6
Continuous
 62
     7
370
    25
100
AcDbCircle
 10
71.0294364363
 20
35.6620639933
 30
0.0
 40
0.25
  0
CIRCLE
  5
30F
330
1F
100
AcDbEntity
  8
0
  6
Continuous
 62
     7
370
    25
100
AcDbCircle
 10
71.0294364363
 20
44.9964959122
 30
0.0
 40
0.2500000000000142
  0
CIRCLE
  5
310
330
1F
100
AcDbEntity
  8
0
  6
Continuous
 62
     7
370
    25
100
AcDbCircle
 10
71.0294364363
 20
56.9064407045
 30
0.0
 40
0.25
  0
CIRCLE
  5
311
330
1F
100
AcDbEntity
  8
0
  6
Continuous
 62
     7
370
    25
100
AcDbCircle
 10
71.0294364363
 20
23.7787791394
 30
0.0
 40
0.25
  0
LINE
  5
351
330
1F
100
AcDbEntity
  8
0
  6
Continuous
 62
     7
370
    25
100
AcDbLine
 10
86.7773847988
 20
-28.3606955205
 30
0.0
 11
86.7773848086
 21
-30.2450443408
 31
0.0
  0
LINE
  5
352
330
1F
100
AcDbEntity
  8
0
  6
Continuous
 62
     7
370
    25
100
AcDbLine
 10
85.8674375339
 20
-32.6768536607
 30
0.0
 11
85.8674375339
 21
-34.2836502808
 31
0.0
  0
LINE
  5
353
330
1F
100
AcDbEntity
  8
0
  6
Continuous
 62
     7
370
    25
100
AcDbLine
 10
86.8085
 20
-33.2679491924
 30
0.0
 11
86.8085
 21
-36.7320508076
 31
0.0
  0
LINE
  5
354
330
1F
100
AcDbEntity
  8
0
  6
Continuous
 62
     7
370
    25
100
AcDbLine
 10
88.7827830366
 20
-37.8719036502
 30
0.0
 11
88.7827830366
 21
-49.572153811
 31
0.0
  0
LINE
  5
355
330
1F
100
AcDbEntity
  8
0
  6
Continuous
 62
     7
370
    25
100
AcDbLine
 10
87.7425944407
 20
-50.6123424069
 30
0.0
 11
76.563806245
 21
-50.6123424069
 31
0.0
  0
LINE
  5
356
330
1F
100
AcDbEntity
  8
0
  6
Continuous
 62
     7
370
    25
100
AcDbLine
 10
75.7819002675
 20
-49.8304364293
 30
0.0
 11
75.7819002675
 21
-37.3373577018
 31
0.0
  0
LINE
  5
357
330
1F
100
AcDbEntity
  8
0
  6
Continuous
 62
     7
370
    25
100
AcDbLine
 10
78.5886579186
 20
-34.2686846058
 30
0.0
 11
78.5886579186
 21
-32.6824213594
 31
0.0
  0
LINE
  5
358
330
1F
100
AcDbEntity
  8
0
  6
Continuous
 62
     7
370
    25
100
AcDbLine
 10
77.8483492834
 20
-30.2718638133
 30
0.0
 11
77.8483492834
 21
-28.3606955205
 31
0.0
  0
LINE
  5
359
330
1F
100
AcDbEntity
  8
0
  6
Continuous
 62
     7
370
    25
100
AcDbLine
 10
74.7819002675
 20
-28.3606955205
 30
0.0
 11
74.7819002675
 21
-30.4368679751
 31
0.0
  0
LINE
  5
35A
330
1F
100
AcDbEntity
  8
0
  6
Continuous
 62
     7
370
    25
100
AcDbLine
 10
72.3042177773
 20
-30.4368679751
 30
0.0
 11
74.7819002675
 21
-30.4368679751
 31
0.0
  0
LINE
  5
35B
330
1F
100
AcDbEntity
  8
0
  6
Continuous
 62
     7
370
    25
100
AcDbLine
 10
72.3042177773
 20
-30.4368679751
 30
0.0
 11
72.3042177773
 21
-28.3606955205
 31
0.0
  0
LINE
  5
35C
330
1F
100
AcDbEntity
  8
0
  6
Continuous
 62
     7
370
    25
100
AcDbLine
 10
69.1873675659
 20
-28.3606955205
 30
0.0
 11
69.1873675659
 21
-30.2360946537
 31
0.0
  0
LINE
  5
35D
330
1F
100
AcDbEntity
  8
0
  6
Continuous
 62
     7
370
    25
100
AcDbLine
 10
68.1354758741
 20
-34.0940145777
 30
0.0
 11
68.1354758741
 21
-32.6740834772
 31
0.0
  0
LINE
  5
35E
330
1F
100
AcDbEntity
  8
0
  6
Continuous
 62
     7
370
    25
100
AcDbLine
 10
71.3706978403
 20
-54.746855717
 30
0.0
 11
71.3706978403
 21
-37.2921541374
 31
0.0
  0
LINE
  5
35F
330
1F
100
AcDbEntity
  8
0
  6
Continuous
 62
     7
370
    25
100
AcDbLine
 10
110.7957398755
 20
-56.645877896
 30
0.0
 11
73.2697200193
 21
-56.645877896
 31
0.0
  0
LINE
  5
360
330
1F
100
AcDbEntity
  8
0
  6
Continuous
 62
     7
370
    25
100
AcDbLine
 10
112.9226909694
 20
-37.3334591777
 30
0.0
 11
112.9226909694
 21
-54.5189268021
 31
0.0
  0
LINE
  5
361
330
1F
100
AcDbEntity
  8
0
  6
Continuous
 62
     7
370
    25
100
AcDbLine
 10
115.8477730007
 20
-32.6924337722
 30
0.0
 11
115.8477730183
 21
-34.2771402332
 31
0.0
  0
LINE
  5
362
330
1F
100
AcDbEntity
  8
0
  6
Continuous
 62
     7
370
    25
100
AcDbLine
 10
115.1718642404
 20
-28.3606955205
 30
0.0
 11
115.1718642406
 21
-30.327038705
 31
0.0
  0
LINE
  5
363
330
1F
100
AcDbEntity
  8
0
  6
Continuous
 62
     7
370
    25
100
AcDbLine
 10
111.9226909694
 20
-30.4368679751
 30
0.0
 11
111.9226909694
 21
-28.3606955205
 31
0.0
  0
LINE
  5
364
330
1F
100
AcDbEntity
  8
0
  6
Continuous
 62
     7
370
    25
100
AcDbLine
 10
109.3308282582
 20
-30.4368679751
 30
0.0
 11
111.9226909694
 21
-30.4368679751
 31
0.0
  0
LINE
  5
365
330
1F
100
AcDbEntity
  8
0
  6
Continuous
 62
     7
370
    25
100
AcDbLine
 10
109.3308282582
 20
-28.3606955205
 30
0.0
 11
109.3308282582
 21
-30.4368679751
 31
0.0
  0
LINE
  5
366
330
1F
100
AcDbEntity
  8
0
  6
Continuous
 62
     7
370
    25
100
AcDbLine
 10
106.3535149576
 20
-30.2874697307
 30
0.0
 11
106.3535149576
 21
-28.3606955205
 31
0.0
  0
LINE
  5
367
330
1F
100
AcDbEntity
  8
0
  6
Continuous
 62
     7
370
    25
100
AcDbLine
 10
105.5468308379
 20
-32.6876121952
 30
0.0
 11
105.5468308379
 21
-34.2825103068
 31
0.0
  0
LINE
  5
368
330
1F
100
AcDbEntity
  8
0
  6
Continuous
 62
     7
370
    25
100
AcDbLine
 10
108.3308282582
 20
-37.2887028957
 30
0.0
 11
108.3308282582
 21
-49.8975098263
 31
0.0
  0
LINE
  5
369
330
1F
100
AcDbEntity
  8
0
  6
Continuous
 62
     7
370
    25
100
AcDbLine
 10
107.6159956776
 20
-50.6123424069
 30
0.0
 11
94.0523993334
 21
-50.6123424069
 31
0.0
  0
LINE
  5
36A
330
1F
100
AcDbEntity
  8
0
  6
Continuous
 62
     7
370
    25
100
AcDbLine
 10
93.2151308359
 20
-49.7750739093
 30
0.0
 11
93.2151308359
 21
-37.361278629
 31
0.0
  0
LINE
  5
36B
330
1F
100
AcDbEntity
  8
0
  6
Continuous
 62
     7
370
    25
100
AcDbLine
 10
96.0758918144
 20
-34.2643519057
 30
0.0
 11
96.0758918144
 21
-32.7083563289
 31
0.0
  0
LINE
  5
36C
330
1F
100
AcDbEntity
  8
0
  6
Continuous
 62
     7
370
    25
100
AcDbLine
 10
95.5023306183
 20
-30.3228454837
 30
0.0
 11
95.5023306182
 21
-28.3606955205
 31
0.0
  0
LINE
  5
36D
330
1F
100
AcDbEntity
  8
0
  6
Continuous
 62
     7
370
    25
100
AcDbLine
 10
92.2151308359
 20
-28.3606955205
 30
0.0
 11
92.2151308359
 21
-30.4368679751
 31
0.0
  0
LINE
  5
36E
330
1F
100
AcDbEntity
  8
0
  6
Continuous
 62
     7
370
    25
100
AcDbLine
 10
89.7827830366
 20
-30.4368679751
 30
0.0
 11
92.2151308359
 21
-30.4368679751
 31
0.0
  0
LINE
  5
36F
330
1F
100
AcDbEntity
  8
0
  6
Continuous
 62
     7
370
    25
100
AcDbLine
 10
89.7827830366
 20
-30.4368679751
 30
0.0
 11
89.7827830366
 21
-28.3606955205
 31
0.0
  0
LINE
  5
370
330
1F
100
AcDbEntity
  8
0
  6
Continuous
 62
     7
370
    25
100
AcDbLine
 10
70.5294364363
 20
43.6508077553
 30
0.0
 11
70.5294364363
 21
41.8296703211
 31
0.0
  0
LINE
  5
371
330
1F
100
AcDbEntity
  8
0
  6
Continuous
 62
     7
370
    25
100
AcDbLine
 10
69.525163409
 20
41.8296703211
 30
0.0
 11
70.5294364363
 21
41.8296703211
 31
0.0
  0
LINE
  5
372
330
1F
100
AcDbEntity
  8
0
  6
Continuous
 62
     7
370
    25
100
AcDbLine
 10
69.525163409
 20
40.8296703211
 30
0.0
 11
69.525163409
 21
41.8296703211
 31
0.0
  0
LINE
  5
373
330
1F
100
AcDbEntity
  8
0
  6
Continuous
 62
     7
370
    25
100
AcDbLine
 10
69.525163409
 20
40.8296703211
 30
0.0
 11
72.5337094636
 21
40.8296703211
 31
0.0
  0
LINE
  5
374
330
1F
100
AcDbEntity
  8
0
  6
Continuous
 62
     7
370
    25
100
AcDbLine
 10
72.5337094636
 20
41.8296703211
 30
0.0
 11
72.5337094636
 21
40.8296703211
 31
0.0
  0
LINE
  5
375
330
1F
100
AcDbEntity
  8
0
  6
Continuous
 62
     7
370
    25
100
AcDbLine
 10
71.5294364363
 20
41.8296703211
 30
0.0
 11
72.5337094636
 21
41.8296703211
 31
0.0
  0
LINE
  5
376
330
1F
100
AcDbEntity
  8
0
  6
Continuous
 62
     7
370
    25
100
AcDbLine
 10
71.5294364363
 20
43.6508077553
 30
0.0
 11
71.5294364363
 21
41.8296703211
 31
0.0
  0
LINE
  5
377
330
1F
100
AcDbEntity
  8
0
  6
Continuous
 62
     7
370
    25
100
AcDbLine
 10
70.5294364363
 20
43.6508077553
 30
0.0
 11
71.5294364363
 21
43.6508077553
 31
0.0
  0
LINE
  5
378
330
1F
100
AcDbEntity
  8
0
  6
Continuous
 62
     7
370
    25
100
AcDbLine
 10
81.9228093672
 20
36.8437061794
 30
0.0
 11
76.6345341869
 21
36.8437061794
 31
0.0
  0
LINE
  5
379
330
1F
100
AcDbEntity
  8
0
  6
Continuous
 62
     7
370
    25
100
AcDbLine
 10
76.6345341869
 20
36.8437061794
 30
0.0
 11
76.6345341869
 21
24.9244230632
 31
0.0
  0
LINE
  5
37A
330
1F
100
AcDbEntity
  8
0
  6
Continuous
 62
     7
370
    25
100
AcDbLine
 10
77.6345341869
 20
35.8437061794
 30
0.0
 11
77.6345341869
 21
24.9244230632
 31
0.0
  0
LINE
  5
37B
330
1F
100
AcDbEntity
  8
0
  6
Continuous
 62
     7
370
    25
100
AcDbLine
 10
81.9228093672
 20
35.8437061794
 30
0.0
 11
77.6345341869
 21
35.8437061794
 31
0.0
  0
LINE
  5
37C
330
1F
100
AcDbEntity
  8
0
  6
Continuous
 62
     7
370
    25
100
AcDbLine
 10
98.9893919906
 20
44.1898091471
 30
0.0
 11
98.9908886179
 21
44.189829405
 31
0.0
  0
LINE
  5
37D
330
1F
100
AcDbEntity
  8
0
  6
Continuous
 62
     7
370
    25
100
AcDbLine
 10
91.349051764
 20
44.1562521283
 30
0.0
 11
92.5637074204
 21
44.1562521283
 31
0.0
  0
LINE
  5
37E
330
1F
100
AcDbEntity
  8
0
  6
Continuous
 62
     7
370
    25
100
AcDbLine
 10
91.349051764
 20
43.6508077553
 30
0.0
 11
91.349051764
 21
44.1562521283
 31
0.0
  0
LINE
  5
37F
330
1F
100
AcDbEntity
  8
0
  6
Continuous
 62
     7
370
    25
100
AcDbLine
 10
91.349051764
 20
43.6508077553
 30
0.0
 11
92.9985033615
 21
43.6508077553
 31
0.0
  0
LINE
  5
380
330
1F
100
AcDbEntity
  8
0
  6
Continuous
 62
     7
370
    25
100
AcDbLine
 10
103.7380738537
 20
43.6508077553
 30
0.0
 11
101.9817766069
 21
43.6508077553
 31
0.0
  0
LINE
  5
381
330
1F
100
AcDbEntity
  8
0
  6
Continuous
 62
     7
370
    25
100
AcDbLine
 10
103.7380738537
 20
44.1562521283
 30
0.0
 11
103.7380738537
 21
43.6508077553
 31
0.0
  0
LINE
  5
382
330
1F
100
AcDbEntity
  8
0
  6
Continuous
 62
     7
370
    25
100
AcDbLine
 10
103.7380738537
 20
44.1562521283
 30
0.0
 11
102.3876103922
 21
44.1562521283
 31
0.0
  0
LINE
  5
383
330
1F
100
AcDbEntity
  8
0
  6
Continuous
 62
     7
370
    25
100
AcDbLine
 10
93.4901399842
 20
32.8208026745
 30
0.0
 11
96.1940198578
 21
29.774946631
 31
0.0
  0
LINE
  5
384
330
1F
100
AcDbEntity
  8
0
  6
Continuous
 62
     7
370
    25
100
AcDbLine
 10
93.099329696
 20
32.4738709557
 30
0.0
 11
95.8032095697
 21
29.4280149122
 31
0.0
  0
LINE
  5
385
330
1F
100
AcDbEntity
  8
0
  6
Continuous
 62
     7
370
    25
100
AcDbLine
 10
94.6469965388
 20
29.9895356275
 30
0.0
 11
95.8032095697
 21
29.4280149122
 31
0.0
  0
LINE
  5
386
330
1F
100
AcDbEntity
  8
0
  6
Continuous
 62
     7
370
    25
100
AcDbLine
 10
94.4385219353
 20
29.5602708711
 30
0.0
 11
96.7270921391
 21
28.4488151587
 31
0.0
  0
LINE
  5
387
330
1F
100
AcDbEntity
  8
0
  6
Continuous
 62
     7
370
    25
100
AcDbLine
 10
97.0568043539
 20
28.7415086441
 30
0.0
 11
96.2244587148
 21
31.1456900257
 31
0.0
  0
LINE
  5
388
330
1F
100
AcDbEntity
  8
0
  6
Continuous
 62
     7
370
    25
100
AcDbLine
 10
96.1940198578
 20
29.774946631
 30
0.0
 11
95.7735088887
 21
30.9895678112
 31
0.0
  0
LINE
  5
389
330
1F
100
AcDbEntity
  8
0
  6
Continuous
 62
     7
370
    25
100
AcDbLine
 10
90.103020733
 20
29.9895356275
 30
0.0
 11
91.2592337639
 21
29.4280149122
 31
0.0
  0
LINE
  5
38A
330
1F
100
AcDbEntity
  8
0
  6
Continuous
 62
     7
370
    25
100
AcDbLine
 10
89.8945461295
 20
29.5602708711
 30
0.0
 11
92.1831163333
 21
28.4488151587
 31
0.0
  0
LINE
  5
38B
330
1F
100
AcDbEntity
  8
0
  6
Continuous
 62
     7
370
    25
100
AcDbLine
 10
92.5128285481
 20
28.7415086441
 30
0.0
 11
91.680482909
 21
31.1456900257
 31
0.0
  0
LINE
  5
38C
330
1F
100
AcDbEntity
  8
0
  6
Continuous
 62
     7
370
    25
100
AcDbLine
 10
91.650044052
 20
29.774946631
 30
0.0
 11
91.2295330829
 21
30.9895678112
 31
0.0
  0
LINE
  5
38D
330
1F
100
AcDbEntity
  8
0
  6
Continuous
 62
     7
370
    25
100
AcDbLine
 10
88.9461641784
 20
32.8208026745
 30
0.0
 11
91.650044052
 21
29.774946631
 31
0.0
  0
LINE
  5
38E
330
1F
100
AcDbEntity
  8
0
  6
Continuous
 62
     7
370
    25
100
AcDbLine
 10
88.5553538903
 20
32.4738709557
 30
0.0
 11
91.2592337639
 21
29.4280149122
 31
0.0
  0
LINE
  5
38F
330
1F
100
AcDbEntity
  8
0
  6
Continuous
 62
     7
370
    25
100
AcDbLine
 10
-65.0
 20
-95.5
 30
0.0
 11
-45.0
 21
-95.5
 31
0.0
  0
LINE
  5
390
330
1F
100
AcDbEntity
  8
0
  6
Continuous
 62
     7
370
    25
100
AcDbLine
 10
-65.0
 20
-98.0
 30
0.0
 11
-65.0
 21
-95.5
 31
0.0
  0
LINE
  5
391
330
1F
100
AcDbEntity
  8
0
  6
Continuous
 62
     7
370
    25
100
AcDbLine
 10
-65.0
 20
-98.0
 30
0.0
 11
-45.0
 21
-98.0
 31
0.0
  0
LINE
  5
392
330
1F
100
AcDbEntity
  8
0
  6
Continuous
 62
     7
370
    25
100
AcDbLine
 10
-45.0
 20
-98.0
 30
0.0
 11
-45.0
 21
-95.5
 31
0.0
  0
LINE
  5
393
330
1F
100
AcDbEntity
  8
0
  6
Continuous
 62
     7
370
    25
100
AcDbLine
 10
45.0
 20
-95.5
 30
0.0
 11
65.0
 21
-95.5
 31
0.0
  0
LINE
  5
394
330
1F
100
AcDbEntity
  8
0
  6
Continuous
 62
     7
370
    25
100
AcDbLine
 10
45.0
 20
-98.0
 30
0.0
 11
45.0
 21
-95.5
 31
0.0
  0
LINE
  5
395
330
1F
100
AcDbEntity
  8
0
  6
Continuous
 62
     7
370
    25
100
AcDbLine
 10
45.0
 20
-98.0
 30
0.0
 11
65.0
 21
-98.0
 31
0.0
  0
LINE
  5
396
330
1F
100
AcDbEntity
  8
0
  6
Continuous
 62
     7
370
    25
100
AcDbLine
 10
65.0
 20
-98.0
 30
0.0
 11
65.0
 21
-95.5
 31
0.0
  0
LINE
  5
397
330
1F
100
AcDbEntity
  8
0
  6
Continuous
 62
     7
370
    25
100
AcDbLine
 10
56.8527890798
 20
-81.2431475436
 30
0.0
 11
58.459758104
 21
-83.1582586514
 31
0.0
  0
LINE
  5
398
330
1F
100
AcDbEntity
  8
0
  6
Continuous
 62
     7
370
    25
100
AcDbLine
 10
45.362122433
 20
-90.8849616889
 30
0.0
 11
56.8527890798
 21
-81.2431475436
 31
0.0
  0
LINE
  5
399
330
1F
100
AcDbEntity
  8
0
  6
Continuous
 62
     7
370
    25
100
AcDbLine
 10
45.362122433
 20
-90.8849616889
 30
0.0
 11
46.9690914572
 21
-92.8000727967
 31
0.0
  0
LINE
  5
39A
330
1F
100
AcDbEntity
  8
0
  6
Continuous
 62
     7
370
    25
100
AcDbLine
 10
46.9690914572
 20
-92.8000727967
 30
0.0
 11
58.459758104
 21
-83.1582586514
 31
0.0
  0
LINE
  5
39B
330
1F
100
AcDbEntity
  8
0
  6
Continuous
 62
     7
370
    25
100
AcDbLine
 10
56.8527890798
 20
81.2431475436
 30
0.0
 11
58.459758104
 21
83.1582586514
 31
0.0
  0
LINE
  5
39C
330
1F
100
AcDbEntity
  8
0
  6
Continuous
 62
     7
370
    25
100
AcDbLine
 10
46.9690914572
 20
92.8000727967
 30
0.0
 11
58.459758104
 21
83.1582586514
 31
0.0
  0
LINE
  5
39D
330
1F
100
AcDbEntity
  8
0
  6
Continuous
 62
     7
370
    25
100
AcDbLine
 10
45.362122433
 20
90.8849616889
 30
0.0
 11
46.9690914572
 21
92.8000727967
 31
0.0
  0
LINE
  5
39E
330
1F
100
AcDbEntity
  8
0
  6
Continuous
 62
     7
370
    25
100
AcDbLine
 10
45.362122433
 20
90.8849616889
 30
0.0
 11
56.8527890798
 21
81.2431475436
 31
0.0
  0
LINE
  5
39F
330
1F
100
AcDbEntity
  8
0
  6
Continuous
 62
     7
370
    25
100
AcDbLine
 10
45.0
 20
95.5
 30
0.0
 11
65.0
 21
95.5
 31
0.0
  0
LINE
  5
3A0
330
1F
100
AcDbEntity
  8
0
  6
Continuous
 62
     7
370
    25
100
AcDbLine
 10
65.0
 20
98.0
 30
0.0
 11
65.0
 21
95.5
 31
0.0
  0
LINE
  5
3A1
330
1F
100
AcDbEntity
  8
0
  6
Continuous
 62
     7
370
    25
100
AcDbLine
 10
45.0
 20
98.0
 30
0.0
 11
65.0
 21
98.0
 31
0.0
  0
LINE
  5
3A2
330
1F
100
AcDbEntity
  8
0
  6
Continuous
 62
     7
370
    25
100
AcDbLine
 10
45.0
 20
98.0
 30
0.0
 11
45.0
 21
95.5
 31
0.0
  0
LINE
  5
3A3
330
1F
100
AcDbEntity
  8
0
  6
Continuous
 62
     7
370
    25
100
AcDbLine
 10
-65.0
 20
95.5
 30
0.0
 11
-45.0
 21
95.5
 31
0.0
  0
LINE
  5
3A4
330
1F
100
AcDbEntity
  8
0
  6
Continuous
 62
     7
370
    25
100
AcDbLine
 10
-45.0
 20
98.0
 30
0.0
 11
-45.0
 21
95.5
 31
0.0
  0
LINE
  5
3A5
330
1F
100
AcDbEntity
  8
0
  6
Continuous
 62
     7
370
    25
100
AcDbLine
 10
-65.0
 20
98.0
 30
0.0
 11
-45.0
 21
98.0
 31
0.0
  0
LINE
  5
3A6
330
1F
100
AcDbEntity
  8
0
  6
Continuous
 62
     7
370
    25
100
AcDbLine
 10
-65.0
 20
98.0
 30
0.0
 11
-65.0
 21
95.5
 31
0.0
  0
LINE
  5
3A7
330
1F
100
AcDbEntity
  8
0
  6
Continuous
 62
     7
370
    25
100
AcDbLine
 10
62.0
 20
7.5070093316
 30
0.0
 11
64.5
 21
7.5070093316
 31
0.0
  0
LINE
  5
3A8
330
1F
100
AcDbEntity
  8
0
  6
Continuous
 62
     7
370
    25
100
AcDbLine
 10
64.5
 20
22.5070093316
 30
0.0
 11
64.5
 21
7.5070093316
 31
0.0
  0
LINE
  5
3A9
330
1F
100
AcDbEntity
  8
0
  6
Continuous
 62
     7
370
    25
100
AcDbLine
 10
62.0
 20
22.5070093316
 30
0.0
 11
64.5
 21
22.5070093316
 31
0.0
  0
LINE
  5
3AA
330
1F
100
AcDbEntity
  8
0
  6
Continuous
 62
     7
370
    25
100
AcDbLine
 10
62.0
 20
22.5070093316
 30
0.0
 11
62.0
 21
7.5070093316
 31
0.0
  0
LINE
  5
3AB
330
1F
100
AcDbEntity
  8
0
  6
Continuous
 62
     7
370
    25
100
AcDbLine
 10
62.0
 20
42.5070093316
 30
0.0
 11
64.5
 21
42.5070093316
 31
0.0
  0
LINE
  5
3AC
330
1F
100
AcDbEntity
  8
0
  6
Continuous
 62
     7
370
    25
100
AcDbLine
 10
64.5
 20
57.5070093316
 30
0.0
 11
64.5
 21
42.5070093316
 31
0.0
  0
LINE
  5
3AD
330
1F
100
AcDbEntity
  8
0
  6
Continuous
 62
     7
370
    25
100
AcDbLine
 10
62.0
 20
57.5070093316
 30
0.0
 11
64.5
 21
57.5070093316
 31
0.0
  0
LINE
  5
3AE
330
1F
100
AcDbEntity
  8
0
  6
Continuous
 62
     7
370
    25
100
AcDbLine
 10
62.0
 20
57.5070093316
 30
0.0
 11
62.0
 21
42.5070093316
 31
0.0
  0
LINE
  5
3AF
330
1F
100
AcDbEntity
  8
0
  6
Continuous
 62
     7
370
    25
100
AcDbLine
 10
120.5
 20
-22.5070093316
 30
0.0
 11
123.0
 21
-22.5070093316
 31
0.0
  0
LINE
  5
3B0
330
1F
100
AcDbEntity
  8
0
  6
Continuous
 62
     7
370
    25
100
AcDbLine
 10
123.0
 20
-22.5070093316
 30
0.0
 11
123.0
 21
-7.5070093316
 31
0.0
  0
LINE
  5
3B1
330
1F
100
AcDbEntity
  8
0
  6
Continuous
 62
     7
370
    25
100
AcDbLine
 10
120.5
 20
-7.5070093316
 30
0.0
 11
123.0
 21
-7.5070093316
 31
0.0
  0
LINE
  5
3B2
330
1F
100
AcDbEntity
  8
0
  6
Continuous
 62
     7
370
    25
100
AcDbLine
 10
120.5
 20
-22.5070093316
 30
0.0
 11
120.5
 21
-7.5070093316
 31
0.0
  0
LINE
  5
3B3
330
1F
100
AcDbEntity
  8
0
  6
Continuous
 62
     7
370
    25
100
AcDbLine
 10
115.3527890798
 20
-81.2431475436
 30
0.0
 11
116.959758104
 21
-83.1582586514
 31
0.0
  0
LINE
  5
3B4
330
1F
100
AcDbEntity
  8
0
  6
Continuous
 62
     7
370
    25
100
AcDbLine
 10
103.862122433
 20
-90.8849616889
 30
0.0
 11
115.3527890798
 21
-81.2431475436
 31
0.0
  0
LINE
  5
3B5
330
1F
100
AcDbEntity
  8
0
  6
Continuous
 62
     7
370
    25
100
AcDbLine
 10
103.862122433
 20
-90.8849616889
 30
0.0
 11
105.4690914572
 21
-92.8000727967
 31
0.0
  0
LINE
  5
3B6
330
1F
100
AcDbEntity
  8
0
  6
Continuous
 62
     7
370
    25
100
AcDbLine
 10
105.4690914572
 20
-92.8000727967
 30
0.0
 11
116.959758104
 21
-83.1582586514
 31
0.0
  0
LINE
  5
3B7
330
1F
100
AcDbEntity
  8
0
  6
Continuous
 62
     7
370
    25
100
AcDbLine
 10
-75.5
 20
-60.5
 30
0.0
 11
-75.5
 21
-63.0
 31
0.0
  0
LINE
  5
3B8
330
1F
100
AcDbEntity
  8
0
  6
Continuous
 62
     7
370
    25
100
AcDbLine
 10
-55.5
 20
-63.0
 30
0.0
 11
-75.5
 21
-63.0
 31
0.0
  0
LINE
  5
3B9
330
1F
100
AcDbEntity
  8
0
  6
Continuous
 62
     7
370
    25
100
AcDbLine
 10
-55.5
 20
-60.5
 30
0.0
 11
-55.5
 21
-63.0
 31
0.0
  0
LINE
  5
3BA
330
1F
100
AcDbEntity
  8
0
  6
Continuous
 62
     7
370
    25
100
AcDbLine
 10
-55.5
 20
-60.5
 30
0.0
 11
-75.5
 21
-60.5
 31
0.0
  0
LINE
  5
3BB
330
1F
100
AcDbEntity
  8
0
  6
Continuous
 62
     7
370
    25
100
AcDbLine
 10
-98.0
 20
-63.3333333333
 30
0.0
 11
-95.5
 21
-63.3333333333
 31
0.0
  0
LINE
  5
3BC
330
1F
100
AcDbEntity
  8
0
  6
Continuous
 62
     7
370
    25
100
AcDbLine
 10
-98.0
 20
-83.3333333333
 30
0.0
 11
-98.0
 21
-63.3333333333
 31
0.0
  0
LINE
  5
3BD
330
1F
100
AcDbEntity
  8
0
  6
Continuous
 62
     7
370
    25
100
AcDbLine
 10
-98.0
 20
-83.3333333333
 30
0.0
 11
-95.5
 21
-83.3333333333
 31
0.0
  0
LINE
  5
3BE
330
1F
100
AcDbEntity
  8
0
  6
Continuous
 62
     7
370
    25
100
AcDbLine
 10
-95.5
 20
-83.3333333333
 30
0.0
 11
-95.5
 21
-63.3333333333
 31
0.0
  0
LINE
  5
3BF
330
1F
100
AcDbEntity
  8
0
  6
Continuous
 62
     7
370
    25
100
AcDbLine
 10
-10.0
 20
-95.5
 30
0.0
 11
10.0
 21
-95.5
 31
0.0
  0
LINE
  5
3C0
330
1F
100
AcDbEntity
  8
0
  6
Continuous
 62
     7
370
    25
100
AcDbLine
 10
-10.0
 20
-98.0
 30
0.0
 11
-10.0
 21
-95.5
 31
0.0
  0
LINE
  5
3C1
330
1F
100
AcDbEntity
  8
0
  6
Continuous
 62
     7
370
    25
100
AcDbLine
 10
-10.0
 20
-98.0
 30
0.0
 11
10.0
 21
-98.0
 31
0.0
  0
LINE
  5
3C2
330
1F
100
AcDbEntity
  8
0
  6
Continuous
 62
     7
370
    25
100
AcDbLine
 10
10.0
 20
-98.0
 30
0.0
 11
10.0
 21
-95.5
 31
0.0
  0
LINE
  5
3C3
330
1F
100
AcDbEntity
  8
0
  6
Continuous
 62
     7
370
    25
100
AcDbLine
 10
-55.5
 20
60.5
 30
0.0
 11
-55.5
 21
63.0
 31
0.0
  0
LINE
  5
3C4
330
1F
100
AcDbEntity
  8
0
  6
Continuous
 62
     7
370
    25
100
AcDbLine
 10
-55.5
 20
63.0
 30
0.0
 11
-75.5
 21
63.0
 31
0.0
  0
LINE
  5
3C5
330
1F
100
AcDbEntity
  8
0
  6
Continuous
 62
     7
370
    25
100
AcDbLine
 10
-75.5
 20
60.5
 30
0.0
 11
-75.5
 21
63.0
 31
0.0
  0
LINE
  5
3C6
330
1F
100
AcDbEntity
  8
0
  6
Continuous
 62
     7
370
    25
100
AcDbLine
 10
-55.5
 20
60.5
 30
0.0
 11
-75.5
 21
60.5
 31
0.0
  0
LINE
  5
3C7
330
1F
100
AcDbEntity
  8
0
  6
Continuous
 62
     7
370
    25
100
AcDbLine
 10
-98.0
 20
63.3333333333
 30
0.0
 11
-95.5
 21
63.3333333333
 31
0.0
  0
LINE
  5
3C8
330
1F
100
AcDbEntity
  8
0
  6
Continuous
 62
     7
370
    25
100
AcDbLine
 10
-95.5
 20
83.3333333333
 30
0.0
 11
-95.5
 21
63.3333333333
 31
0.0
  0
LINE
  5
3C9
330
1F
100
AcDbEntity
  8
0
  6
Continuous
 62
     7
370
    25
100
AcDbLine
 10
-98.0
 20
83.3333333333
 30
0.0
 11
-95.5
 21
83.3333333333
 31
0.0
  0
LINE
  5
3CA
330
1F
100
AcDbEntity
  8
0
  6
Continuous
 62
     7
370
    25
100
AcDbLine
 10
-98.0
 20
83.3333333333
 30
0.0
 11
-98.0
 21
63.3333333333
 31
0.0
  0
LINE
  5
3CB
330
1F
100
AcDbEntity
  8
0
  6
Continuous
 62
     7
370
    25
100
AcDbLine
 10
-10.0
 20
95.5
 30
0.0
 11
10.0
 21
95.5
 31
0.0
  0
LINE
  5
3CC
330
1F
100
AcDbEntity
  8
0
  6
Continuous
 62
     7
370
    25
100
AcDbLine
 10
10.0
 20
98.0
 30
0.0
 11
10.0
 21
95.5
 31
0.0
  0
LINE
  5
3CD
330
1F
100
AcDbEntity
  8
0
  6
Continuous
 62
     7
370
    25
100
AcDbLine
 10
-10.0
 20
98.0
 30
0.0
 11
10.0
 21
98.0
 31
0.0
  0
LINE
  5
3CE
330
1F
100
AcDbEntity
  8
0
  6
Continuous
 62
     7
370
    25
100
AcDbLine
 10
-10.0
 20
98.0
 30
0.0
 11
-10.0
 21
95.5
 31
0.0
  0
LINE
  5
3CF
330
1F
100
AcDbEntity
  8
0
  6
Continuous
 62
     7
370
    25
100
AcDbLine
 10
120.5
 20
-42.5070093316
 30
0.0
 11
123.0
 21
-42.5070093316
 31
0.0
  0
LINE
  5
3D0
330
1F
100
AcDbEntity
  8
0
  6
Continuous
 62
     7
370
    25
100
AcDbLine
 10
120.5
 20
-57.5070093316
 30
0.0
 11
120.5
 21
-42.5070093316
 31
0.0
  0
LINE
  5
3D1
330
1F
100
AcDbEntity
  8
0
  6
Continuous
 62
     7
370
    25
100
AcDbLine
 10
120.5
 20
-57.5070093316
 30
0.0
 11
123.0
 21
-57.5070093316
 31
0.0
  0
LINE
  5
3D2
330
1F
100
AcDbEntity
  8
0
  6
Continuous
 62
     7
370
    25
100
AcDbLine
 10
123.0
 20
-57.5070093316
 30
0.0
 11
123.0
 21
-42.5070093316
 31
0.0
  0
LINE
  5
3D3
330
1F
100
AcDbEntity
  8
0
  6
Continuous
 62
     7
370
    25
100
AcDbLine
 10
115.3527890798
 20
81.2431475436
 30
0.0
 11
116.959758104
 21
83.1582586514
 31
0.0
  0
LINE
  5
3D4
330
1F
100
AcDbEntity
  8
0
  6
Continuous
 62
     7
370
    25
100
AcDbLine
 10
105.4690914572
 20
92.8000727967
 30
0.0
 11
116.959758104
 21
83.1582586514
 31
0.0
  0
LINE
  5
3D5
330
1F
100
AcDbEntity
  8
0
  6
Continuous
 62
     7
370
    25
100
AcDbLine
 10
103.862122433
 20
90.8849616889
 30
0.0
 11
105.4690914572
 21
92.8000727967
 31
0.0
  0
LINE
  5
3D6
330
1F
100
AcDbEntity
  8
0
  6
Continuous
 62
     7
370
    25
100
AcDbLine
 10
103.862122433
 20
90.8849616889
 30
0.0
 11
115.3527890798
 21
81.2431475436
 31
0.0
  0
LINE
  5
3D7
330
1F
100
AcDbEntity
  8
0
  6
Continuous
 62
     7
370
    25
100
AcDbLine
 10
120.5
 20
42.5070093316
 30
0.0
 11
123.0
 21
42.5070093316
 31
0.0
  0
LINE
  5
3D8
330
1F
100
AcDbEntity
  8
0
  6
Continuous
 62
     7
370
    25
100
AcDbLine
 10
123.0
 20
57.5070093316
 30
0.0
 11
123.0
 21
42.5070093316
 31
0.0
  0
LINE
  5
3D9
330
1F
100
AcDbEntity
  8
0
  6
Continuous
 62
     7
370
    25
100
AcDbLine
 10
120.5
 20
57.5070093316
 30
0.0
 11
123.0
 21
57.5070093316
 31
0.0
  0
LINE
  5
3DA
330
1F
100
AcDbEntity
  8
0
  6
Continuous
 62
     7
370
    25
100
AcDbLine
 10
120.5
 20
57.5070093316
 30
0.0
 11
120.5
 21
42.5070093316
 31
0.0
  0
LINE
  5
3DB
330
1F
100
AcDbEntity
  8
0
  6
Continuous
 62
     7
370
    25
100
AcDbLine
 10
120.5
 20
7.5070093316
 30
0.0
 11
123.0
 21
7.5070093316
 31
0.0
  0
LINE
  5
3DC
330
1F
100
AcDbEntity
  8
0
  6
Continuous
 62
     7
370
    25
100
AcDbLine
 10
123.0
 20
22.5070093316
 30
0.0
 11
123.0
 21
7.5070093316
 31
0.0
  0
LINE
  5
3DD
330
1F
100
AcDbEntity
  8
0
  6
Continuous
 62
     7
370
    25
100
AcDbLine
 10
120.5
 20
22.5070093316
 30
0.0
 11
123.0
 21
22.5070093316
 31
0.0
  0
LINE
  5
3DE
330
1F
100
AcDbEntity
  8
0
  6
Continuous
 62
     7
370
    25
100
AcDbLine
 10
120.5
 20
22.5070093316
 30
0.0
 11
120.5
 21
7.5070093316
 31
0.0
  0
LINE
  5
3DF
330
1F
100
AcDbEntity
  8
0
  6
Continuous
 62
     7
370
    25
100
AcDbLine
 10
-33.0
 20
-10.0
 30
0.0
 11
-33.0
 21
10.0
 31
0.0
  0
LINE
  5
3E0
330
1F
100
AcDbEntity
  8
0
  6
Continuous
 62
     7
370
    25
100
AcDbLine
 10
-35.5
 20
10.0
 30
0.0
 11
-33.0
 21
10.0
 31
0.0
  0
LINE
  5
3E1
330
1F
100
AcDbEntity
  8
0
  6
Continuous
 62
     7
370
    25
100
AcDbLine
 10
-35.5
 20
-10.0
 30
0.0
 11
-35.5
 21
10.0
 31
0.0
  0
LINE
  5
3E2
330
1F
100
AcDbEntity
  8
0
  6
Continuous
 62
     7
370
    25
100
AcDbLine
 10
-35.5
 20
-10.0
 30
0.0
 11
-33.0
 21
-10.0
 31
0.0
  0
LINE
  5
3E3
330
1F
100
AcDbEntity
  8
0
  6
Continuous
 62
     7
370
    25
100
AcDbLine
 10
64.5
 20
-22.5070093316
 30
0.0
 11
64.5
 21
-7.5070093316
 31
0.0
  0
LINE
  5
3E4
330
1F
100
AcDbEntity
  8
0
  6
Continuous
 62
     7
370
    25
100
AcDbLine
 10
62.0
 20
-7.5070093316
 30
0.0
 11
64.5
 21
-7.5070093316
 31
0.0
  0
LINE
  5
3E5
330
1F
100
AcDbEntity
  8
0
  6
Continuous
 62
     7
370
    25
100
AcDbLine
 10
62.0
 20
-22.5070093316
 30
0.0
 11
62.0
 21
-7.5070093316
 31
0.0
  0
LINE
  5
3E6
330
1F
100
AcDbEntity
  8
0
  6
Continuous
 62
     7
370
    25
100
AcDbLine
 10
62.0
 20
-22.5070093316
 30
0.0
 11
64.5
 21
-22.5070093316
 31
0.0
  0
LINE
  5
3E7
330
1F
100
AcDbEntity
  8
0
  6
Continuous
 62
     7
370
    25
100
AcDbLine
 10
64.5
 20
-57.5070093316
 30
0.0
 11
64.5
 21
-42.5070093316
 31
0.0
  0
LINE
  5
3E8
330
1F
100
AcDbEntity
  8
0
  6
Continuous
 62
     7
370
    25
100
AcDbLine
 10
62.0
 20
-42.5070093316
 30
0.0
 11
64.5
 21
-42.5070093316
 31
0.0
  0
LINE
  5
3E9
330
1F
100
AcDbEntity
  8
0
  6
Continuous
 62
     7
370
    25
100
AcDbLine
 10
62.0
 20
-57.5070093316
 30
0.0
 11
62.0
 21
-42.5070093316
 31
0.0
  0
LINE
  5
3EA
330
1F
100
AcDbEntity
  8
0
  6
Continuous
 62
     7
370
    25
100
AcDbLine
 10
62.0
 20
-57.5070093316
 30
0.0
 11
64.5
 21
-57.5070093316
 31
0.0
  0
LINE
  5
3EB
330
1F
100
AcDbEntity
  8
0
  6
Continuous
 62
     7
370
    25
100
AcDbLine
 10
-33.0
 20
46.6666666667
 30
0.0
 11
-33.0
 21
26.6666666667
 31
0.0
  0
LINE
  5
3EC
330
1F
100
AcDbEntity
  8
0
  6
Continuous
 62
     7
370
    25
100
AcDbLine
 10
-35.5
 20
46.6666666667
 30
0.0
 11
-33.0
 21
46.6666666667
 31
0.0
  0
LINE
  5
3ED
330
1F
100
AcDbEntity
  8
0
  6
Continuous
 62
     7
370
    25
100
AcDbLine
 10
-35.5
 20
46.6666666667
 30
0.0
 11
-35.5
 21
26.6666666667
 31
0.0
  0
LINE
  5
3EE
330
1F
100
AcDbEntity
  8
0
  6
Continuous
 62
     7
370
    25
100
AcDbLine
 10
-35.5
 20
26.6666666667
 30
0.0
 11
-33.0
 21
26.6666666667
 31
0.0
  0
LINE
  5
3EF
330
1F
100
AcDbEntity
  8
0
  6
Continuous
 62
     7
370
    25
100
AcDbLine
 10
-35.5
 20
83.3333333333
 30
0.0
 11
-35.5
 21
63.3333333333
 31
0.0
  0
LINE
  5
3F0
330
1F
100
AcDbEntity
  8
0
  6
Continuous
 62
     7
370
    25
100
AcDbLine
 10
-35.5
 20
63.3333333333
 30
0.0
 11
-33.0
 21
63.3333333333
 31
0.0
  0
LINE
  5
3F1
330
1F
100
AcDbEntity
  8
0
  6
Continuous
 62
     7
370
    25
100
AcDbLine
 10
-33.0
 20
83.3333333333
 30
0.0
 11
-33.0
 21
63.3333333333
 31
0.0
  0
LINE
  5
3F2
330
1F
100
AcDbEntity
  8
0
  6
Continuous
 62
     7
370
    25
100
AcDbLine
 10
-35.5
 20
83.3333333333
 30
0.0
 11
-33.0
 21
83.3333333333
 31
0.0
  0
LINE
  5
3F3
330
1F
100
AcDbEntity
  8
0
  6
Continuous
 62
     7
370
    25
100
AcDbLine
 10
35.0
 20
98.0
 30
0.0
 11
25.0
 21
98.0
 31
0.0
  0
LINE
  5
3F4
330
1F
100
AcDbEntity
  8
0
  6
Continuous
 62
     7
370
    25
100
AcDbLine
 10
25.0
 20
98.0
 30
0.0
 11
25.0
 21
95.5
 31
0.0
  0
LINE
  5
3F5
330
1F
100
AcDbEntity
  8
0
  6
Continuous
 62
     7
370
    25
100
AcDbLine
 10
35.0
 20
95.5
 30
0.0
 11
25.0
 21
95.5
 31
0.0
  0
LINE
  5
3F6
330
1F
100
AcDbEntity
  8
0
  6
Continuous
 62
     7
370
    25
100
AcDbLine
 10
35.0
 20
98.0
 30
0.0
 11
35.0
 21
95.5
 31
0.0
  0
LINE
  5
3F7
330
1F
100
AcDbEntity
  8
0
  6
Continuous
 62
     7
370
    25
100
AcDbLine
 10
25.0
 20
-98.0
 30
0.0
 11
25.0
 21
-95.5
 31
0.0
  0
LINE
  5
3F8
330
1F
100
AcDbEntity
  8
0
  6
Continuous
 62
     7
370
    25
100
AcDbLine
 10
35.0
 20
-98.0
 30
0.0
 11
25.0
 21
-98.0
 31
0.0
  0
LINE
  5
3F9
330
1F
100
AcDbEntity
  8
0
  6
Continuous
 62
     7
370
    25
100
AcDbLine
 10
35.0
 20
-98.0
 30
0.0
 11
35.0
 21
-95.5
 31
0.0
  0
LINE
  5
3FA
330
1F
100
AcDbEntity
  8
0
  6
Continuous
 62
     7
370
    25
100
AcDbLine
 10
35.0
 20
-95.5
 30
0.0
 11
25.0
 21
-95.5
 31
0.0
  0
LINE
  5
3FB
330
1F
100
AcDbEntity
  8
0
  6
Continuous
 62
     7
370
    25
100
AcDbLine
 10
-35.5
 20
-63.3333333333
 30
0.0
 11
-33.0
 21
-63.3333333333
 31
0.0
  0
LINE
  5
3FC
330
1F
100
AcDbEntity
  8
0
  6
Continuous
 62
     7
370
    25
100
AcDbLine
 10
-35.5
 20
-83.3333333333
 30
0.0
 11
-35.5
 21
-63.3333333333
 31
0.0
  0
LINE
  5
3FD
330
1F
100
AcDbEntity
  8
0
  6
Continuous
 62
     7
370
    25
100
AcDbLine
 10
-35.5
 20
-83.3333333333
 30
0.0
 11
-33.0
 21
-83.3333333333
 31
0.0
  0
LINE
  5
3FE
330
1F
100
AcDbEntity
  8
0
  6
Continuous
 62
     7
370
    25
100
AcDbLine
 10
-33.0
 20
-83.3333333333
 30
0.0
 11
-33.0
 21
-63.3333333333
 31
0.0
  0
LINE
  5
3FF
330
1F
100
AcDbEntity
  8
0
  6
Continuous
 62
     7
370
    25
100
AcDbLine
 10
-35.5
 20
-46.6666666667
 30
0.0
 11
-33.0
 21
-46.6666666667
 31
0.0
  0
LINE
  5
400
330
1F
100
AcDbEntity
  8
0
  6
Continuous
 62
     7
370
    25
100
AcDbLine
 10
-33.0
 20
-46.6666666667
 30
0.0
 11
-33.0
 21
-26.6666666667
 31
0.0
  0
LINE
  5
401
330
1F
100
AcDbEntity
  8
0
  6
Continuous
 62
     7
370
    25
100
AcDbLine
 10
-35.5
 20
-26.6666666667
 30
0.0
 11
-33.0
 21
-26.6666666667
 31
0.0
  0
LINE
  5
402
330
1F
100
AcDbEntity
  8
0
  6
Continuous
 62
     7
370
    25
100
AcDbLine
 10
-35.5
 20
-46.6666666667
 30
0.0
 11
-35.5
 21
-26.6666666667
 31
0.0
  0
LINE
  5
403
330
1F
100
AcDbEntity
  8
0
  6
Continuous
 62
     7
370
    25
100
AcDbLine
 10
104.1822606313
 20
-96.4906666468
 30
0.0
 11
119.6418141453
 21
-83.518560995
 31
0.0
  0
LINE
  5
404
330
1F
100
AcDbEntity
  8
0
  6
Continuous
 62
     7
370
    25
100
AcDbLine
 10
94.540446486
 20
-100.0
 30
0.0
 11
-98.0
 21
-100.0
 31
0.0
  0
LINE
  5
405
330
1F
100
AcDbEntity
  8
0
  6
Continuous
 62
     7
370
    25
100
AcDbLine
 10
-100.0
 20
-98.0
 30
0.0
 11
-100.0
 21
-60.5
 31
0.0
  0
LINE
  5
406
330
1F
100
AcDbEntity
  8
0
  6
Continuous
 62
     7
370
    25
100
AcDbLine
 10
-39.5
 20
-58.5
 30
0.0
 11
-98.0
 21
-58.5
 31
0.0
  0
LINE
  5
407
330
1F
100
AcDbEntity
  8
0
  6
Continuous
 62
     7
370
    25
100
AcDbLine
 10
-37.5
 20
-56.5
 30
0.0
 11
-37.5
 21
56.5
 31
0.0
  0
LINE
  5
408
330
1F
100
AcDbEntity
  8
0
  6
Continuous
 62
     7
370
    25
100
AcDbLine
 10
-39.5
 20
58.5
 30
0.0
 11
-98.0
 21
58.5
 31
0.0
  0
LINE
  5
409
330
1F
100
AcDbEntity
  8
0
  6
Continuous
 62
     7
370
    25
100
AcDbLine
 10
-100.0
 20
60.5
 30
0.0
 11
-100.0
 21
98.0
 31
0.0
  0
LINE
  5
40A
330
1F
100
AcDbEntity
  8
0
  6
Continuous
 62
     7
370
    25
100
AcDbLine
 10
94.540446486
 20
100.0
 30
0.0
 11
-98.0
 21
100.0
 31
0.0
  0
LINE
  5
40B
330
1F
100
AcDbEntity
  8
0
  6
Continuous
 62
     7
370
    25
100
AcDbLine
 10
104.1822606313
 20
96.4906666468
 30
0.0
 11
119.6418141453
 21
83.518560995
 31
0.0
  0
LINE
  5
40C
330
1F
100
AcDbEntity
  8
0
  6
Continuous
 62
     7
370
    25
100
AcDbLine
 10
87.8005202546
 20
44.7303913954
 30
0.0
 11
77.6345341869
 21
44.7303913954
 31
0.0
  0
LINE
  5
40D
330
1F
100
AcDbEntity
  8
0
  6
Continuous
 62
     7
370
    25
100
AcDbLine
 10
77.6345341869
 20
44.7303913954
 30
0.0
 11
77.6345341869
 21
55.7607967807
 31
0.0
  0
LINE
  5
40E
330
1F
100
AcDbEntity
  8
0
  6
Continuous
 62
     7
370
    25
100
AcDbLine
 10
76.6345341869
 20
43.7303913954
 30
0.0
 11
76.6345341869
 21
55.7607967807
 31
0.0
  0
LINE
  5
40F
330
1F
100
AcDbEntity
  8
0
  6
Continuous
 62
     7
370
    25
100
AcDbLine
 10
87.8005202546
 20
43.7303913954
 30
0.0
 11
76.6345341869
 21
43.7303913954
 31
0.0
  0
LINE
  5
410
330
1F
100
AcDbEntity
  8
0
  6
Continuous
 62
     7
370
    25
100
AcDbLine
 10
70.5294364363
 20
55.7607967807
 30
0.0
 11
70.5294364363
 21
46.142139836
 31
0.0
  0
LINE
  5
411
330
1F
100
AcDbEntity
  8
0
  6
Continuous
 62
     7
370
    25
100
AcDbLine
 10
71.5294364363
 20
55.7607967807
 30
0.0
 11
71.5294364363
 21
46.142139836
 31
0.0
  0
LINE
  5
412
330
1F
100
AcDbEntity
  8
0
  6
Continuous
 62
     7
370
    25
100
AcDbLine
 10
90.4792471127
 20
35.4532772027
 30
0.0
 11
90.4792471127
 21
34.8339249826
 31
0.0
  0
LINE
  5
413
330
1F
100
AcDbEntity
  8
0
  6
Continuous
 62
     7
370
    25
100
AcDbLine
 10
91.4792471127
 20
34.8339249826
 30
0.0
 11
90.4792471127
 21
34.8339249826
 31
0.0
  0
LINE
  5
414
330
1F
100
AcDbEntity
  8
0
  6
Continuous
 62
     7
370
    25
100
AcDbLine
 10
91.4792471127
 20
35.8437061794
 30
0.0
 11
91.4792471127
 21
34.8339249826
 31
0.0
  0
LINE
  5
415
330
1F
100
AcDbEntity
  8
0
  6
Continuous
 62
     7
370
    25
100
AcDbLine
 10
91.4792471127
 20
35.8437061794
 30
0.0
 11
94.1550374179
 21
35.8437061794
 31
0.0
  0
LINE
  5
416
330
1F
100
AcDbEntity
  8
0
  6
Continuous
 62
     7
370
    25
100
AcDbLine
 10
94.1550374179
 20
36.8437061794
 30
0.0
 11
94.1550374179
 21
35.8437061794
 31
0.0
  0
LINE
  5
417
330
1F
100
AcDbEntity
  8
0
  6
Continuous
 62
     7
370
    25
100
AcDbLine
 10
91.4792471127
 20
36.8437061794
 30
0.0
 11
94.1550374179
 21
36.8437061794
 31
0.0
  0
LINE
  5
418
330
1F
100
AcDbEntity
  8
0
  6
Continuous
 62
     7
370
    25
100
AcDbLine
 10
91.4792471127
 20
37.8534873761
 30
0.0
 11
91.4792471127
 21
36.8437061794
 31
0.0
  0
LINE
  5
419
330
1F
100
AcDbEntity
  8
0
  6
Continuous
 62
     7
370
    25
100
AcDbLine
 10
90.4792471127
 20
37.8534873761
 30
0.0
 11
91.4792471127
 21
37.8534873761
 31
0.0
  0
LINE
  5
41A
330
1F
100
AcDbEntity
  8
0
  6
Continuous
 62
     7
370
    25
100
AcDbLine
 10
90.4792471127
 20
37.8534873761
 30
0.0
 11
90.4792471127
 21
37.2341351561
 31
0.0
  0
LINE
  5
41B
330
1F
100
AcDbEntity
  8
0
  6
Continuous
 62
     7
370
    25
100
AcDbLine
 10
87.5484953778
 20
39.0209131648
 30
0.0
 11
90.4792471127
 21
37.2341351561
 31
0.0
  0
LINE
  5
41C
330
1F
100
AcDbEntity
  8
0
  6
Continuous
 62
     7
370
    25
100
AcDbLine
 10
87.5484953778
 20
36.8437061794
 30
0.0
 11
87.5484953778
 21
39.0209131648
 31
0.0
  0
LINE
  5
41D
330
1F
100
AcDbEntity
  8
0
  6
Continuous
 62
     7
370
    25
100
AcDbLine
 10
85.4937804091
 20
36.8437061794
 30
0.0
 11
87.5484953778
 21
36.8437061794
 31
0.0
  0
LINE
  5
41E
330
1F
100
AcDbEntity
  8
0
  6
Continuous
 62
     7
370
    25
100
AcDbLine
 10
85.4937804091
 20
35.8437061794
 30
0.0
 11
85.4937804091
 21
36.8437061794
 31
0.0
  0
LINE
  5
41F
330
1F
100
AcDbEntity
  8
0
  6
Continuous
 62
     7
370
    25
100
AcDbLine
 10
85.4937804091
 20
35.8437061794
 30
0.0
 11
87.5484953778
 21
35.8437061794
 31
0.0
  0
LINE
  5
420
330
1F
100
AcDbEntity
  8
0
  6
Continuous
 62
     7
370
    25
100
AcDbLine
 10
87.5484953778
 20
33.666499194
 30
0.0
 11
87.5484953778
 21
35.8437061794
 31
0.0
  0
LINE
  5
421
330
1F
100
AcDbEntity
  8
0
  6
Continuous
 62
     7
370
    25
100
AcDbLine
 10
87.5484953778
 20
33.666499194
 30
0.0
 11
90.4792471127
 21
35.4532772027
 31
0.0
  0
LINE
  5
422
330
1F
100
AcDbEntity
  8
0
  6
Continuous
 62
     7
370
    25
100
AcDbLine
 10
101.0901606188
 20
36.8437061794
 30
0.0
 11
97.7106979687
 21
36.8437061794
 31
0.0
  0
LINE
  5
423
330
1F
100
AcDbEntity
  8
0
  6
Continuous
 62
     7
370
    25
100
AcDbLine
 10
101.0901606188
 20
35.8437061794
 30
0.0
 11
97.7106979687
 21
35.8437061794
 31
0.0
  0
LINE
  5
424
330
1F
100
AcDbEntity
  8
0
  6
Continuous
 62
     7
370
    25
100
AcDbLine
 10
70.5294364363
 20
37.3262002323
 30
0.0
 11
70.5294364363
 21
39.1473376665
 31
0.0
  0
LINE
  5
425
330
1F
100
AcDbEntity
  8
0
  6
Continuous
 62
     7
370
    25
100
AcDbLine
 10
71.5294364363
 20
37.3262002323
 30
0.0
 11
70.5294364363
 21
37.3262002323
 31
0.0
  0
LINE
  5
426
330
1F
100
AcDbEntity
  8
0
  6
Continuous
 62
     7
370
    25
100
AcDbLine
 10
71.5294364363
 20
37.3262002323
 30
0.0
 11
71.5294364363
 21
39.1473376665
 31
0.0
  0
LINE
  5
427
330
1F
100
AcDbEntity
  8
0
  6
Continuous
 62
     7
370
    25
100
AcDbLine
 10
71.5294364363
 20
39.1473376665
 30
0.0
 11
72.5337094636
 21
39.1473376665
 31
0.0
  0
LINE
  5
428
330
1F
100
AcDbEntity
  8
0
  6
Continuous
 62
     7
370
    25
100
AcDbLine
 10
72.5337094636
 20
40.1473376665
 30
0.0
 11
72.5337094636
 21
39.1473376665
 31
0.0
  0
LINE
  5
429
330
1F
100
AcDbEntity
  8
0
  6
Continuous
 62
     7
370
    25
100
AcDbLine
 10
69.525163409
 20
40.1473376665
 30
0.0
 11
72.5337094636
 21
40.1473376665
 31
0.0
  0
LINE
  5
42A
330
1F
100
AcDbEntity
  8
0
  6
Continuous
 62
     7
370
    25
100
AcDbLine
 10
69.525163409
 20
39.1473376665
 30
0.0
 11
69.525163409
 21
40.1473376665
 31
0.0
  0
LINE
  5
42B
330
1F
100
AcDbEntity
  8
0
  6
Continuous
 62
     7
370
    25
100
AcDbLine
 10
69.525163409
 20
39.1473376665
 30
0.0
 11
70.5294364363
 21
39.1473376665
 31
0.0
  0
LINE
  5
42C
330
1F
100
AcDbEntity
  8
0
  6
Continuous
 62
     7
370
    25
100
AcDbLine
 10
115.502077872
 20
35.8437061794
 30
0.0
 11
113.646587691
 21
35.8437061794
 31
0.0
  0
LINE
  5
42D
330
1F
100
AcDbEntity
  8
0
  6
Continuous
 62
     7
370
    25
100
AcDbLine
 10
115.502077872
 20
36.8437061794
 30
0.0
 11
113.646587691
 21
36.8437061794
 31
0.0
  0
LINE
  5
42E
330
1F
100
AcDbEntity
  8
0
  6
Continuous
 62
     7
370
    25
100
AcDbLine
 10
71.5294364363
 20
34.5164200696
 30
0.0
 11
71.5294364363
 21
24.9244230632
 31
0.0
  0
LINE
  5
42F
330
1F
100
AcDbEntity
  8
0
  6
Continuous
 62
     7
370
    25
100
AcDbLine
 10
70.5294364363
 20
34.5164200696
 30
0.0
 11
70.5294364363
 21
24.9244230632
 31
0.0
  0
LINE
  5
430
330
1F
100
AcDbEntity
  8
0
  6
Continuous
 62
     7
370
    25
100
AcDbLine
 10
106.5007233764
 20
43.7303913954
 30
0.0
 11
115.5010578112
 21
43.7303913954
 31
0.0
  0
LINE
  5
431
330
1F
100
AcDbEntity
  8
0
  6
Continuous
 62
     7
370
    25
100
AcDbLine
 10
106.5007233764
 20
44.7303913954
 30
0.0
 11
115.5010578112
 21
44.7303913954
 31
0.0
  0
LINE
  5
432
330
1F
100
AcDbEntity
  8
0
  6
Continuous
 62
     7
370
    25
100
AcDbLine
 10
110.7804523514
 20
36.6428441629
 30
0.0
 11
110.7804523514
 21
36.1428441629
 31
0.0
  0
LINE
  5
433
330
1F
100
AcDbEntity
  8
0
  6
Continuous
 62
     7
370
    25
100
AcDbLine
 10
109.5930029796
 20
36.6428441629
 30
0.0
 11
110.7804523514
 21
36.6428441629
 31
0.0
  0
LINE
  5
434
330
1F
100
AcDbEntity
  8
0
  6
Continuous
 62
     7
370
    25
100
AcDbLine
 10
109.2364510602
 20
35.6151356895
 30
0.0
 11
109.5930029796
 21
36.6428441629
 31
0.0
  0
LINE
  5
435
330
1F
100
AcDbEntity
  8
0
  6
Continuous
 62
     7
370
    25
100
AcDbLine
 10
109.3532279341
 20
39.0483757803
 30
0.0
 11
109.2364510602
 21
35.6151356895
 31
0.0
  0
LINE
  5
436
330
1F
100
AcDbEntity
  8
0
  6
Continuous
 62
     7
370
    25
100
AcDbLine
 10
107.9348191882
 20
35.4221829866
 30
0.0
 11
109.3532279341
 21
39.0483757803
 31
0.0
  0
LINE
  5
437
330
1F
100
AcDbEntity
  8
0
  6
Continuous
 62
     7
370
    25
100
AcDbLine
 10
108.0534253713
 20
38.9092047692
 30
0.0
 11
107.9348191882
 21
35.4221829866
 31
0.0
  0
LINE
  5
438
330
1F
100
AcDbEntity
  8
0
  6
Continuous
 62
     7
370
    25
100
AcDbLine
 10
106.4870087563
 20
35.2830119755
 30
0.0
 11
108.0534253713
 21
38.9092047692
 31
0.0
  0
LINE
  5
439
330
1F
100
AcDbEntity
  8
0
  6
Continuous
 62
     7
370
    25
100
AcDbLine
 10
106.6216453722
 20
39.2413284833
 30
0.0
 11
106.4870087563
 21
35.2830119755
 31
0.0
  0
LINE
  5
43A
330
1F
100
AcDbEntity
  8
0
  6
Continuous
 62
     7
370
    25
100
AcDbLine
 10
105.3074814116
 20
35.4534441263
 30
0.0
 11
106.6216453722
 21
39.2413284833
 31
0.0
  0
LINE
  5
43B
330
1F
100
AcDbEntity
  8
0
  6
Continuous
 62
     7
370
    25
100
AcDbLine
 10
105.3074814116
 20
36.6375940782
 30
0.0
 11
105.3074814116
 21
35.4534441263
 31
0.0
  0
LINE
  5
43C
330
1F
100
AcDbEntity
  8
0
  6
Continuous
 62
     7
370
    25
100
AcDbLine
 10
103.9666676482
 20
36.6375940782
 30
0.0
 11
105.3074814116
 21
36.6375940782
 31
0.0
  0
LINE
  5
43D
330
1F
100
AcDbEntity
  8
0
  6
Continuous
 62
     7
370
    25
100
AcDbLine
 10
103.9666676482
 20
36.1375940782
 30
0.0
 11
103.9666676482
 21
36.6375940782
 31
0.0
  0
LINE
  5
43E
330
1F
100
AcDbEntity
  8
0
  6
Continuous
 62
     7
370
    25
100
AcDbLine
 10
103.9666676482
 20
36.1375940782
 30
0.0
 11
104.8074814116
 21
36.1375940782
 31
0.0
  0
LINE
  5
43F
330
1F
100
AcDbEntity
  8
0
  6
Continuous
 62
     7
370
    25
100
AcDbLine
 10
104.8074814116
 20
36.1375940782
 30
0.0
 11
104.8074814116
 21
32.4868203051
 31
0.0
  0
LINE
  5
440
330
1F
100
AcDbEntity
  8
0
  6
Continuous
 62
     7
370
    25
100
AcDbLine
 10
104.8074814116
 20
32.4868203051
 30
0.0
 11
106.0094512263
 21
35.9513215355
 31
0.0
  0
LINE
  5
441
330
1F
100
AcDbEntity
  8
0
  6
Continuous
 62
     7
370
    25
100
AcDbLine
 10
106.0094512263
 20
35.9513215355
 30
0.0
 11
105.8974080603
 21
32.6572524559
 31
0.0
  0
LINE
  5
442
330
1F
100
AcDbEntity
  8
0
  6
Continuous
 62
     7
370
    25
100
AcDbLine
 10
105.8974080603
 20
32.6572524559
 30
0.0
 11
107.4638246753
 21
36.2834452496
 31
0.0
  0
LINE
  5
443
330
1F
100
AcDbEntity
  8
0
  6
Continuous
 62
     7
370
    25
100
AcDbLine
 10
107.4638246753
 20
36.2834452496
 30
0.0
 11
107.3357510765
 21
32.5180814448
 31
0.0
  0
LINE
  5
444
330
1F
100
AcDbEntity
  8
0
  6
Continuous
 62
     7
370
    25
100
AcDbLine
 10
107.3357510765
 20
32.5180814448
 30
0.0
 11
108.7541598223
 21
36.1442742385
 31
0.0
  0
LINE
  5
445
330
1F
100
AcDbEntity
  8
0
  6
Continuous
 62
     7
370
    25
100
AcDbLine
 10
108.7541598223
 20
36.1442742385
 30
0.0
 11
108.6242569143
 21
32.3251287418
 31
0.0
  0
LINE
  5
446
330
1F
100
AcDbEntity
  8
0
  6
Continuous
 62
     7
370
    25
100
AcDbLine
 10
108.6242569143
 20
32.3251287418
 30
0.0
 11
109.9487704277
 21
36.1428441629
 31
0.0
  0
LINE
  5
447
330
1F
100
AcDbEntity
  8
0
  6
Continuous
 62
     7
370
    25
100
AcDbLine
 10
109.9487704277
 20
36.1428441629
 30
0.0
 11
110.7804523514
 21
36.1428441629
 31
0.0
  0
LINE
  5
448
330
1F
100
AcDbEntity
  8
0
  6
Continuous
 62
     7
370
    25
100
AcDbLine
 10
69.4682565013
 20
-17.5052832543
 30
0.0
 11
69.3944913431
 21
-17.0107544873
 31
0.0
  0
LINE
  5
449
330
1F
100
AcDbEntity
  8
0
  6
Continuous
 62
     7
370
    25
100
AcDbLine
 10
73.7664571108
 20
-16.8641528104
 30
0.0
 11
69.4682565013
 21
-17.5052832543
 31
0.0
  0
LINE
  5
44A
330
1F
100
AcDbEntity
  8
0
  6
Continuous
 62
     7
370
    25
100
AcDbLine
 10
81.1893889064
 20
-13.7064993114
 30
0.0
 11
73.7664571108
 21
-16.8641528104
 31
0.0
  0
LINE
  5
44B
330
1F
100
AcDbEntity
  8
0
  6
Continuous
 62
     7
370
    25
100
AcDbLine
 10
85.468379538
 20
-13.7064993114
 30
0.0
 11
81.1893889064
 21
-13.7064993114
 31
0.0
  0
LINE
  5
44C
330
1F
100
AcDbEntity
  8
0
  6
Continuous
 62
     7
370
    25
100
AcDbLine
 10
85.468379538
 20
-13.2064993114
 30
0.0
 11
85.468379538
 21
-13.7064993114
 31
0.0
  0
LINE
  5
44D
330
1F
100
AcDbEntity
  8
0
  6
Continuous
 62
     7
370
    25
100
AcDbLine
 10
85.468379538
 20
-13.2064993114
 30
0.0
 11
81.0874605446
 21
-13.2064993114
 31
0.0
  0
LINE
  5
44E
330
1F
100
AcDbEntity
  8
0
  6
Continuous
 62
     7
370
    25
100
AcDbLine
 10
81.0874605446
 20
-13.2064993114
 30
0.0
 11
73.6295138823
 21
-16.3790478436
 31
0.0
  0
LINE
  5
44F
330
1F
100
AcDbEntity
  8
0
  6
Continuous
 62
     7
370
    25
100
AcDbLine
 10
73.6295138823
 20
-16.3790478436
 30
0.0
 11
69.3944913431
 21
-17.0107544873
 31
0.0
  0
LINE
  5
450
330
1F
100
AcDbEntity
  8
0
  6
Continuous
 62
     7
370
    25
100
AcDbLine
 10
84.6261773647
 20
9.2347916644
 30
0.0
 11
78.5612952374
 21
12.7401822517
 31
0.0
  0
LINE
  5
451
330
1F
100
AcDbEntity
  8
0
  6
Continuous
 62
     7
370
    25
100
AcDbLine
 10
78.5612952374
 20
12.7401822517
 30
0.0
 11
75.929524359
 21
13.2548106833
 31
0.0
  0
LINE
  5
452
330
1F
100
AcDbEntity
  8
0
  6
Continuous
 62
     7
370
    25
100
AcDbLine
 10
75.929524359
 20
13.2548106833
 30
0.0
 11
73.8162365271
 21
13.0041557594
 31
0.0
  0
LINE
  5
453
330
1F
100
AcDbEntity
  8
0
  6
Continuous
 62
     7
370
    25
100
AcDbLine
 10
73.8162365271
 20
13.0041557594
 30
0.0
 11
71.0854695602
 21
13.716664063
 31
0.0
  0
LINE
  5
454
330
1F
100
AcDbEntity
  8
0
  6
Continuous
 62
     7
370
    25
100
AcDbLine
 10
70.9592363322
 20
13.2328612394
 30
0.0
 11
71.0854695602
 21
13.716664063
 31
0.0
  0
LINE
  5
455
330
1F
100
AcDbEntity
  8
0
  6
Continuous
 62
     7
370
    25
100
AcDbLine
 10
72.4547037786
 20
12.8426657425
 30
0.0
 11
70.9592363322
 21
13.2328612394
 31
0.0
  0
LINE
  5
456
330
1F
100
AcDbEntity
  8
0
  6
Continuous
 62
     7
370
    25
100
AcDbLine
 10
72.4547037786
 20
12.8426657425
 30
0.0
 11
71.6827208528
 21
12.7511016315
 31
0.0
  0
LINE
  5
457
330
1F
100
AcDbEntity
  8
0
  6
Continuous
 62
     7
370
    25
100
AcDbLine
 10
71.7416125451
 20
12.2545819757
 30
0.0
 11
71.6827208528
 21
12.7511016315
 31
0.0
  0
LINE
  5
458
330
1F
100
AcDbEntity
  8
0
  6
Continuous
 62
     7
370
    25
100
AcDbLine
 10
73.7813650305
 20
12.4965149469
 30
0.0
 11
71.7416125451
 21
12.2545819757
 31
0.0
  0
LINE
  5
459
330
1F
100
AcDbEntity
  8
0
  6
Continuous
 62
     7
370
    25
100
AcDbLine
 10
74.6634488595
 20
12.2663627369
 30
0.0
 11
73.7813650305
 21
12.4965149469
 31
0.0
  0
LINE
  5
45A
330
1F
100
AcDbEntity
  8
0
  6
Continuous
 62
     7
370
    25
100
AcDbLine
 10
77.6630387257
 20
10.9029127977
 30
0.0
 11
74.6634488595
 21
12.2663627369
 31
0.0
  0
LINE
  5
45B
330
1F
100
AcDbEntity
  8
0
  6
Continuous
 62
     7
370
    25
100
AcDbLine
 10
81.0655425603
 20
8.7347916644
 30
0.0
 11
77.6630387257
 21
10.9029127977
 31
0.0
  0
LINE
  5
45C
330
1F
100
AcDbEntity
  8
0
  6
Continuous
 62
     7
370
    25
100
AcDbLine
 10
84.4920759113
 20
8.7347916644
 30
0.0
 11
81.0655425603
 21
8.7347916644
 31
0.0
  0
LINE
  5
45D
330
1F
100
AcDbEntity
  8
0
  6
Continuous
 62
     7
370
    25
100
AcDbLine
 10
85.9242606552
 20
7.907015161
 30
0.0
 11
84.4920759113
 21
8.7347916644
 31
0.0
  0
LINE
  5
45E
330
1F
100
AcDbEntity
  8
0
  6
Continuous
 62
     7
370
    25
100
AcDbLine
 10
91.2768463505
 20
7.907015161
 30
0.0
 11
85.9242606552
 21
7.907015161
 31
0.0
  0
LINE
  5
45F
330
1F
100
AcDbEntity
  8
0
  6
Continuous
 62
     7
370
    25
100
AcDbLine
 10
89.5905076836
 20
7.7106595675
 30
0.0
 11
85.9625264753
 21
6.8639863037
 31
0.0
  0
LINE
  5
460
330
1F
100
AcDbEntity
  8
0
  6
Continuous
 62
     7
370
    25
100
AcDbLine
 10
85.9625264753
 20
6.8639863037
 30
0.0
 11
82.8248505537
 21
6.8639863037
 31
0.0
  0
LINE
  5
461
330
1F
100
AcDbEntity
  8
0
  6
Continuous
 62
     7
370
    25
100
AcDbLine
 10
82.8248505537
 20
6.8639863037
 30
0.0
 11
73.8111134438
 21
11.3470569898
 31
0.0
  0
LINE
  5
462
330
1F
100
AcDbEntity
  8
0
  6
Continuous
 62
     7
370
    25
100
AcDbLine
 10
73.5884527211
 20
10.8993716063
 30
0.0
 11
73.8111134438
 21
11.3470569898
 31
0.0
  0
LINE
  5
463
330
1F
100
AcDbEntity
  8
0
  6
Continuous
 62
     7
370
    25
100
AcDbLine
 10
82.621784583
 20
6.4065552779
 30
0.0
 11
73.5884527211
 21
10.8993716063
 31
0.0
  0
LINE
  5
464
330
1F
100
AcDbEntity
  8
0
  6
Continuous
 62
     7
370
    25
100
AcDbLine
 10
82.621784583
 20
6.4065552779
 30
0.0
 11
81.1714088698
 21
6.4065552779
 31
0.0
  0
LINE
  5
465
330
1F
100
AcDbEntity
  8
0
  6
Continuous
 62
     7
370
    25
100
AcDbLine
 10
81.1714088698
 20
6.4065552779
 30
0.0
 11
77.8505199521
 21
7.2983728126
 31
0.0
  0
LINE
  5
466
330
1F
100
AcDbEntity
  8
0
  6
Continuous
 62
     7
370
    25
100
AcDbLine
 10
77.8505199521
 20
7.2983728126
 30
0.0
 11
73.8090476844
 21
9.0943652459
 31
0.0
  0
LINE
  5
467
330
1F
100
AcDbEntity
  8
0
  6
Continuous
 62
     7
370
    25
100
AcDbLine
 10
73.8090476844
 20
9.0943652459
 30
0.0
 11
71.7762190781
 21
10.2092072409
 31
0.0
  0
LINE
  5
468
330
1F
100
AcDbEntity
  8
0
  6
Continuous
 62
     7
370
    25
100
AcDbLine
 10
71.7762190781
 20
10.2092072409
 30
0.0
 11
69.4313739222
 21
10.2092072409
 31
0.0
  0
LINE
  5
469
330
1F
100
AcDbEntity
  8
0
  6
Continuous
 62
     7
370
    25
100
AcDbLine
 10
69.4313739222
 20
9.7092072409
 30
0.0
 11
69.4313739222
 21
10.2092072409
 31
0.0
  0
LINE
  5
46A
330
1F
100
AcDbEntity
  8
0
  6
Continuous
 62
     7
370
    25
100
AcDbLine
 10
71.6481143198
 20
9.7092072409
 30
0.0
 11
69.4313739222
 21
9.7092072409
 31
0.0
  0
LINE
  5
46B
330
1F
100
AcDbEntity
  8
0
  6
Continuous
 62
     7
370
    25
100
AcDbLine
 10
73.5869233087
 20
8.645927398
 30
0.0
 11
71.6481143198
 21
9.7092072409
 31
0.0
  0
LINE
  5
46C
330
1F
100
AcDbEntity
  8
0
  6
Continuous
 62
     7
370
    25
100
AcDbLine
 10
77.6831420475
 20
6.8256061456
 30
0.0
 11
73.5869233087
 21
8.645927398
 31
0.0
  0
LINE
  5
46D
330
1F
100
AcDbEntity
  8
0
  6
Continuous
 62
     7
370
    25
100
AcDbLine
 10
81.1054405812
 20
5.9065552779
 30
0.0
 11
77.6831420475
 21
6.8256061456
 31
0.0
  0
LINE
  5
46E
330
1F
100
AcDbEntity
  8
0
  6
Continuous
 62
     7
370
    25
100
AcDbLine
 10
85.433967738
 20
5.9065552779
 30
0.0
 11
81.1054405812
 21
5.9065552779
 31
0.0
  0
LINE
  5
46F
330
1F
100
AcDbEntity
  8
0
  6
Continuous
 62
     7
370
    25
100
AcDbLine
 10
85.433967738
 20
6.3639863037
 30
0.0
 11
85.433967738
 21
5.9065552779
 31
0.0
  0
LINE
  5
470
330
1F
100
AcDbEntity
  8
0
  6
Continuous
 62
     7
370
    25
100
AcDbLine
 10
86.0200962886
 20
6.3639863037
 30
0.0
 11
85.433967738
 21
6.3639863037
 31
0.0
  0
LINE
  5
471
330
1F
100
AcDbEntity
  8
0
  6
Continuous
 62
     7
370
    25
100
AcDbLine
 10
89.70414086
 20
7.2237432489
 30
0.0
 11
86.0200962886
 21
6.3639863037
 31
0.0
  0
LINE
  5
472
330
1F
100
AcDbEntity
  8
0
  6
Continuous
 62
     7
370
    25
100
AcDbLine
 10
86.7441178178
 20
4.7590163429
 30
0.0
 11
81.1822048324
 21
4.9128860164
 31
0.0
  0
LINE
  5
473
330
1F
100
AcDbEntity
  8
0
  6
Continuous
 62
     7
370
    25
100
AcDbLine
 10
81.1822048324
 20
4.9128860164
 30
0.0
 11
78.5422648685
 21
5.7894633815
 31
0.0
  0
LINE
  5
474
330
1F
100
AcDbEntity
  8
0
  6
Continuous
 62
     7
370
    25
100
AcDbLine
 10
78.5422648685
 20
5.7894633815
 30
0.0
 11
74.3209177742
 21
6.8491762834
 31
0.0
  0
LINE
  5
475
330
1F
100
AcDbEntity
  8
0
  6
Continuous
 62
     7
370
    25
100
AcDbLine
 10
74.3209177742
 20
6.8491762834
 30
0.0
 11
72.670664014
 21
7.7172014082
 31
0.0
  0
LINE
  5
476
330
1F
100
AcDbEntity
  8
0
  6
Continuous
 62
     7
370
    25
100
AcDbLine
 10
72.670664014
 20
7.7172014082
 30
0.0
 11
70.2392355025
 21
7.7172014082
 31
0.0
  0
LINE
  5
477
330
1F
100
AcDbEntity
  8
0
  6
Continuous
 62
     7
370
    25
100
AcDbLine
 10
70.2392355025
 20
7.2172014082
 30
0.0
 11
70.2392355025
 21
7.7172014082
 31
0.0
  0
LINE
  5
478
330
1F
100
AcDbEntity
  8
0
  6
Continuous
 62
     7
370
    25
100
AcDbLine
 10
72.5471851411
 20
7.2172014082
 30
0.0
 11
70.2392355025
 21
7.2172014082
 31
0.0
  0
LINE
  5
479
330
1F
100
AcDbEntity
  8
0
  6
Continuous
 62
     7
370
    25
100
AcDbLine
 10
74.1411264951
 20
6.378796324
 30
0.0
 11
72.5471851411
 21
7.2172014082
 31
0.0
  0
LINE
  5
47A
330
1F
100
AcDbEntity
  8
0
  6
Continuous
 62
     7
370
    25
100
AcDbLine
 10
78.4024180843
 20
5.3090558893
 30
0.0
 11
74.1411264951
 21
6.378796324
 31
0.0
  0
LINE
  5
47B
330
1F
100
AcDbEntity
  8
0
  6
Continuous
 62
     7
370
    25
100
AcDbLine
 10
81.0946446186
 20
4.4151170596
 30
0.0
 11
78.4024180843
 21
5.3090558893
 31
0.0
  0
LINE
  5
47C
330
1F
100
AcDbEntity
  8
0
  6
Continuous
 62
     7
370
    25
100
AcDbLine
 10
86.7302906665
 20
4.2592075696
 30
0.0
 11
81.0946446186
 21
4.4151170596
 31
0.0
  0
LINE
  5
47D
330
1F
100
AcDbEntity
  8
0
  6
Continuous
 62
     7
370
    25
100
AcDbLine
 10
80.0874442567
 20
3.5818093552
 30
0.0
 11
85.9913113819
 21
3.5818093552
 31
0.0
  0
LINE
  5
47E
330
1F
100
AcDbEntity
  8
0
  6
Continuous
 62
     7
370
    25
100
AcDbLine
 10
78.5368973014
 20
4.3542976096
 30
0.0
 11
80.0874442567
 21
3.5818093552
 31
0.0
  0
LINE
  5
47F
330
1F
100
AcDbEntity
  8
0
  6
Continuous
 62
     7
370
    25
100
AcDbLine
 10
70.2514265925
 20
4.758814534
 30
0.0
 11
78.5368973014
 21
4.3542976096
 31
0.0
  0
LINE
  5
480
330
1F
100
AcDbEntity
  8
0
  6
Continuous
 62
     7
370
    25
100
AcDbLine
 10
70.2270444126
 20
4.2594093785
 30
0.0
 11
70.2514265925
 21
4.758814534
 31
0.0
  0
LINE
  5
481
330
1F
100
AcDbEntity
  8
0
  6
Continuous
 62
     7
370
    25
100
AcDbLine
 10
70.2270444126
 20
4.2594093785
 30
0.0
 11
78.4077856514
 21
3.8600056027
 31
0.0
  0
LINE
  5
482
330
1F
100
AcDbEntity
  8
0
  6
Continuous
 62
     7
370
    25
100
AcDbLine
 10
78.4077856514
 20
3.8600056027
 30
0.0
 11
78.9661842319
 21
3.5818093552
 31
0.0
  0
LINE
  5
483
330
1F
100
AcDbEntity
  8
0
  6
Continuous
 62
     7
370
    25
100
AcDbLine
 10
78.4639673411
 20
3.5818093552
 30
0.0
 11
78.9661842319
 21
3.5818093552
 31
0.0
  0
LINE
  5
484
330
1F
100
AcDbEntity
  8
0
  6
Continuous
 62
     7
370
    25
100
AcDbLine
 10
71.0699105845
 20
3.0859022858
 30
0.0
 11
78.4639673411
 21
3.5818093552
 31
0.0
  0
LINE
  5
485
330
1F
100
AcDbEntity
  8
0
  6
Continuous
 62
     7
370
    25
100
AcDbLine
 10
70.0600283471
 20
3.5582621226
 30
0.0
 11
71.0699105845
 21
3.0859022858
 31
0.0
  0
LINE
  5
486
330
1F
100
AcDbEntity
  8
0
  6
Continuous
 62
     7
370
    25
100
AcDbLine
 10
69.8481874248
 20
3.1053565877
 30
0.0
 11
70.0600283471
 21
3.5582621226
 31
0.0
  0
LINE
  5
487
330
1F
100
AcDbEntity
  8
0
  6
Continuous
 62
     7
370
    25
100
AcDbLine
 10
69.8481874248
 20
3.1053565877
 30
0.0
 11
70.9747953078
 21
2.578399784
 31
0.0
  0
LINE
  5
488
330
1F
100
AcDbEntity
  8
0
  6
Continuous
 62
     7
370
    25
100
AcDbLine
 10
70.9747953078
 20
2.578399784
 30
0.0
 11
78.4807156117
 21
3.0818093552
 31
0.0
  0
LINE
  5
489
330
1F
100
AcDbEntity
  8
0
  6
Continuous
 62
     7
370
    25
100
AcDbLine
 10
78.4807156117
 20
3.0818093552
 30
0.0
 11
85.9913113819
 21
3.0818093552
 31
0.0
  0
LINE
  5
48A
330
1F
100
AcDbEntity
  8
0
  6
Continuous
 62
     7
370
    25
100
AcDbLine
 10
85.433967738
 20
1.3886204255
 30
0.0
 11
74.208348172
 21
1.3886204255
 31
0.0
  0
LINE
  5
48B
330
1F
100
AcDbEntity
  8
0
  6
Continuous
 62
     7
370
    25
100
AcDbLine
 10
74.208348172
 20
1.3886204255
 30
0.0
 11
68.2319113313
 21
0.2955530933
 31
0.0
  0
LINE
  5
48C
330
1F
100
AcDbEntity
  8
0
  6
Continuous
 62
     7
370
    25
100
AcDbLine
 10
68.3218672285
 20
-0.1962882801
 30
0.0
 11
68.2319113313
 21
0.2955530933
 31
0.0
  0
LINE
  5
48D
330
1F
100
AcDbEntity
  8
0
  6
Continuous
 62
     7
370
    25
100
AcDbLine
 10
74.2536960974
 20
0.8886204255
 30
0.0
 11
68.3218672285
 21
-0.1962882801
 31
0.0
  0
LINE
  5
48E
330
1F
100
AcDbEntity
  8
0
  6
Continuous
 62
     7
370
    25
100
AcDbLine
 10
85.433967738
 20
0.8886204255
 30
0.0
 11
74.2536960974
 21
0.8886204255
 31
0.0
  0
LINE
  5
48F
330
1F
100
AcDbEntity
  8
0
  6
Continuous
 62
     7
370
    25
100
AcDbLine
 10
80.8419880294
 20
-0.7590903776
 30
0.0
 11
84.97642163
 21
-0.7590903776
 31
0.0
  0
LINE
  5
490
330
1F
100
AcDbEntity
  8
0
  6
Continuous
 62
     7
370
    25
100
AcDbLine
 10
80.8419880294
 20
-1.0090903776
 30
0.0
 11
80.8419880294
 21
-0.7590903776
 31
0.0
  0
LINE
  5
491
330
1F
100
AcDbEntity
  8
0
  6
Continuous
 62
     7
370
    25
100
AcDbLine
 10
80.8031466196
 20
-0.7621261193
 30
0.0
 11
80.8419880294
 21
-1.0090903776
 31
0.0
  0
LINE
  5
492
330
1F
100
AcDbEntity
  8
0
  6
Continuous
 62
     7
370
    25
100
AcDbLine
 10
80.8031466196
 20
-0.7621261193
 30
0.0
 11
75.4545768105
 21
-1.6033247328
 31
0.0
  0
LINE
  5
493
330
1F
100
AcDbEntity
  8
0
  6
Continuous
 62
     7
370
    25
100
AcDbLine
 10
75.4545768105
 20
-1.6033247328
 30
0.0
 11
70.9583363376
 21
-2.7943714662
 31
0.0
  0
LINE
  5
494
330
1F
100
AcDbEntity
  8
0
  6
Continuous
 62
     7
370
    25
100
AcDbLine
 10
71.0863695547
 20
-3.2777010591
 30
0.0
 11
70.9583363376
 21
-2.7943714662
 31
0.0
  0
LINE
  5
495
330
1F
100
AcDbEntity
  8
0
  6
Continuous
 62
     7
370
    25
100
AcDbLine
 10
75.5577078683
 20
-2.0932508668
 30
0.0
 11
71.0863695547
 21
-3.2777010591
 31
0.0
  0
LINE
  5
496
330
1F
100
AcDbEntity
  8
0
  6
Continuous
 62
     7
370
    25
100
AcDbLine
 10
80.8615273671
 20
-1.2590903776
 30
0.0
 11
75.5577078683
 21
-2.0932508668
 31
0.0
  0
LINE
  5
497
330
1F
100
AcDbEntity
  8
0
  6
Continuous
 62
     7
370
    25
100
AcDbLine
 10
80.8615273671
 20
-1.2590903776
 30
0.0
 11
84.97642163
 21
-1.2590903776
 31
0.0
  0
LINE
  5
498
330
1F
100
AcDbEntity
  8
0
  6
Continuous
 62
     7
370
    25
100
AcDbLine
 10
85.9913113819
 20
-2.7860362626
 30
0.0
 11
79.1808656101
 21
-2.7860362626
 31
0.0
  0
LINE
  5
499
330
1F
100
AcDbEntity
  8
0
  6
Continuous
 62
     7
370
    25
100
AcDbLine
 10
79.1808656101
 20
-2.7860362626
 30
0.0
 11
69.3811029278
 21
-6.8932614718
 31
0.0
  0
LINE
  5
49A
330
1F
100
AcDbEntity
  8
0
  6
Continuous
 62
     7
370
    25
100
AcDbLine
 10
69.3811029278
 20
-6.8932614718
 30
0.0
 11
67.5980465014
 21
-6.8932614718
 31
0.0
  0
LINE
  5
49B
330
1F
100
AcDbEntity
  8
0
  6
Continuous
 62
     7
370
    25
100
AcDbLine
 10
67.5980465014
 20
-7.3932614718
 30
0.0
 11
67.5980465014
 21
-6.8932614718
 31
0.0
  0
LINE
  5
49C
330
1F
100
AcDbEntity
  8
0
  6
Continuous
 62
     7
370
    25
100
AcDbLine
 10
69.4816449166
 20
-7.3932614718
 30
0.0
 11
67.5980465014
 21
-7.3932614718
 31
0.0
  0
LINE
  5
49D
330
1F
100
AcDbEntity
  8
0
  6
Continuous
 62
     7
370
    25
100
AcDbLine
 10
79.2814075989
 20
-3.2860362626
 30
0.0
 11
69.4816449166
 21
-7.3932614718
 31
0.0
  0
LINE
  5
49E
330
1F
100
AcDbEntity
  8
0
  6
Continuous
 62
     7
370
    25
100
AcDbLine
 10
85.9913113819
 20
-3.2860362626
 30
0.0
 11
79.2814075989
 21
-3.2860362626
 31
0.0
  0
LINE
  5
49F
330
1F
100
AcDbEntity
  8
0
  6
Continuous
 62
     7
370
    25
100
AcDbLine
 10
85.468379538
 20
-4.585196025
 30
0.0
 11
83.3451388038
 21
-4.585196025
 31
0.0
  0
LINE
  5
4A0
330
1F
100
AcDbEntity
  8
0
  6
Continuous
 62
     7
370
    25
100
AcDbLine
 10
83.3451388038
 20
-4.585196025
 30
0.0
 11
82.0366398681
 21
-5.4750920607
 31
0.0
  0
LINE
  5
4A1
330
1F
100
AcDbEntity
  8
0
  6
Continuous
 62
     7
370
    25
100
AcDbLine
 10
81.7227451806
 20
-5.4750920607
 30
0.0
 11
82.0366398681
 21
-5.4750920607
 31
0.0
  0
LINE
  5
4A2
330
1F
100
AcDbEntity
  8
0
  6
Continuous
 62
     7
370
    25
100
AcDbLine
 10
77.7557064211
 20
-6.4003021394
 30
0.0
 11
81.7227451806
 21
-5.4750920607
 31
0.0
  0
LINE
  5
4A3
330
1F
100
AcDbEntity
  8
0
  6
Continuous
 62
     7
370
    25
100
AcDbLine
 10
74.743519151
 20
-8.3113035954
 30
0.0
 11
77.7557064211
 21
-6.4003021394
 31
0.0
  0
LINE
  5
4A4
330
1F
100
AcDbEntity
  8
0
  6
Continuous
 62
     7
370
    25
100
AcDbLine
 10
70.2441197162
 20
-8.2233827023
 30
0.0
 11
74.743519151
 21
-8.3113035954
 31
0.0
  0
LINE
  5
4A5
330
1F
100
AcDbEntity
  8
0
  6
Continuous
 62
     7
370
    25
100
AcDbLine
 10
70.2343512889
 20
-8.723287271
 30
0.0
 11
70.2441197162
 21
-8.2233827023
 31
0.0
  0
LINE
  5
4A6
330
1F
100
AcDbEntity
  8
0
  6
Continuous
 62
     7
370
    25
100
AcDbLine
 10
70.2343512889
 20
-8.723287271
 30
0.0
 11
73.9788048511
 21
-8.7964560808
 31
0.0
  0
LINE
  5
4A7
330
1F
100
AcDbEntity
  8
0
  6
Continuous
 62
     7
370
    25
100
AcDbLine
 10
72.8829100472
 20
-9.491717158
 30
0.0
 11
73.9788048511
 21
-8.7964560808
 31
0.0
  0
LINE
  5
4A8
330
1F
100
AcDbEntity
  8
0
  6
Continuous
 62
     7
370
    25
100
AcDbLine
 10
68.8310655382
 20
-10.4367060034
 30
0.0
 11
72.8829100472
 21
-9.491717158
 31
0.0
  0
LINE
  5
4A9
330
1F
100
AcDbEntity
  8
0
  6
Continuous
 62
     7
370
    25
100
AcDbLine
 10
68.9446300229
 20
-10.9236383476
 30
0.0
 11
68.8310655382
 21
-10.4367060034
 31
0.0
  0
LINE
  5
4AA
330
1F
100
AcDbEntity
  8
0
  6
Continuous
 62
     7
370
    25
100
AcDbLine
 10
68.9446300229
 20
-10.9236383476
 30
0.0
 11
73.0377933887
 21
-9.9690129382
 31
0.0
  0
LINE
  5
4AB
330
1F
100
AcDbEntity
  8
0
  6
Continuous
 62
     7
370
    25
100
AcDbLine
 10
72.9810111463
 20
-9.7255467662
 30
0.0
 11
73.0377933887
 21
-9.9690129382
 31
0.0
  0
LINE
  5
4AC
330
1F
100
AcDbEntity
  8
0
  6
Continuous
 62
     7
370
    25
100
AcDbLine
 10
73.1149383312
 20
-9.9366474747
 30
0.0
 11
72.9810111463
 21
-9.7255467662
 31
0.0
  0
LINE
  5
4AD
330
1F
100
AcDbEntity
  8
0
  6
Continuous
 62
     7
370
    25
100
AcDbLine
 10
73.1149383312
 20
-9.9366474747
 30
0.0
 11
74.8842593494
 21
-8.8141491906
 31
0.0
  0
LINE
  5
4AE
330
1F
100
AcDbEntity
  8
0
  6
Continuous
 62
     7
370
    25
100
AcDbLine
 10
74.8842593494
 20
-8.8141491906
 30
0.0
 11
77.0642691301
 21
-8.8567478551
 31
0.0
  0
LINE
  5
4AF
330
1F
100
AcDbEntity
  8
0
  6
Continuous
 62
     7
370
    25
100
AcDbLine
 10
77.0642691301
 20
-8.8567478551
 30
0.0
 11
75.5520745582
 21
-9.8851750996
 31
0.0
  0
LINE
  5
4B0
330
1F
100
AcDbEntity
  8
0
  6
Continuous
 62
     7
370
    25
100
AcDbLine
 10
75.8332547957
 20
-10.2986211952
 30
0.0
 11
75.5520745582
 21
-9.8851750996
 31
0.0
  0
LINE
  5
4B1
330
1F
100
AcDbEntity
  8
0
  6
Continuous
 62
     7
370
    25
100
AcDbLine
 10
77.9285458286
 20
-8.8736363267
 30
0.0
 11
75.8332547957
 21
-10.2986211952
 31
0.0
  0
LINE
  5
4B2
330
1F
100
AcDbEntity
  8
0
  6
Continuous
 62
     7
370
    25
100
AcDbLine
 10
77.9285458286
 20
-8.8736363267
 30
0.0
 11
81.0924066683
 21
-8.9354600156
 31
0.0
  0
LINE
  5
4B3
330
1F
100
AcDbEntity
  8
0
  6
Continuous
 62
     7
370
    25
100
AcDbLine
 10
81.0924066683
 20
-8.9354600156
 30
0.0
 11
79.1242880918
 21
-9.8658817866
 31
0.0
  0
LINE
  5
4B4
330
1F
100
AcDbEntity
  8
0
  6
Continuous
 62
     7
370
    25
100
AcDbLine
 10
79.3379851172
 20
-10.3179145082
 30
0.0
 11
79.1242880918
 21
-9.8658817866
 31
0.0
  0
LINE
  5
4B5
330
1F
100
AcDbEntity
  8
0
  6
Continuous
 62
     7
370
    25
100
AcDbLine
 10
82.2158506539
 20
-8.9574127673
 30
0.0
 11
79.3379851172
 21
-10.3179145082
 31
0.0
  0
LINE
  5
4B6
330
1F
100
AcDbEntity
  8
0
  6
Continuous
 62
     7
370
    25
100
AcDbLine
 10
82.2158506539
 20
-8.9574127673
 30
0.0
 11
85.4634953243
 21
-9.0208736412
 31
0.0
  0
LINE
  5
4B7
330
1F
100
AcDbEntity
  8
0
  6
Continuous
 62
     7
370
    25
100
AcDbLine
 10
85.9913113819
 20
-10.7277585457
 30
0.0
 11
71.0223529462
 21
-10.7277585457
 31
0.0
  0
LINE
  5
4B8
330
1F
100
AcDbEntity
  8
0
  6
Continuous
 62
     7
370
    25
100
AcDbLine
 10
71.0223529462
 20
-11.2277585457
 30
0.0
 11
71.0223529462
 21
-10.7277585457
 31
0.0
  0
LINE
  5
4B9
330
1F
100
AcDbEntity
  8
0
  6
Continuous
 62
     7
370
    25
100
AcDbLine
 10
85.9913113819
 20
-11.2277585457
 30
0.0
 11
71.0223529462
 21
-11.2277585457
 31
0.0
  0
LINE
  5
4BA
330
1F
100
AcDbEntity
  8
0
  6
Continuous
 62
     7
370
    25
100
AcDbLine
 10
77.7266638085
 20
-11.9700032248
 30
0.0
 11
87.0617648809
 21
-11.9700032248
 31
0.0
  0
LINE
  5
4BB
330
1F
100
AcDbEntity
  8
0
  6
Continuous
 62
     7
370
    25
100
AcDbLine
 10
77.7266638085
 20
-11.9700032248
 30
0.0
 11
73.1712876816
 21
-13.4726053902
 31
0.0
  0
LINE
  5
4BC
330
1F
100
AcDbEntity
  8
0
  6
Continuous
 62
     7
370
    25
100
AcDbLine
 10
73.3279132436
 20
-13.9474405545
 30
0.0
 11
73.1712876816
 21
-13.4726053902
 31
0.0
  0
LINE
  5
4BD
330
1F
100
AcDbEntity
  8
0
  6
Continuous
 62
     7
370
    25
100
AcDbLine
 10
77.8069981911
 20
-12.4700032248
 30
0.0
 11
73.3279132436
 21
-13.9474405545
 31
0.0
  0
LINE
  5
4BE
330
1F
100
AcDbEntity
  8
0
  6
Continuous
 62
     7
370
    25
100
AcDbLine
 10
81.2942175339
 20
-12.4700032248
 30
0.0
 11
77.8069981911
 21
-12.4700032248
 31
0.0
  0
LINE
  5
4BF
330
1F
100
AcDbEntity
  8
0
  6
Continuous
 62
     7
370
    25
100
AcDbLine
 10
79.1886743359
 20
-13.2064993114
 30
0.0
 11
81.2942175339
 21
-12.4700032248
 31
0.0
  0
LINE
  5
4C0
330
1F
100
AcDbEntity
  8
0
  6
Continuous
 62
     7
370
    25
100
AcDbLine
 10
77.7243687313
 20
-13.2064993114
 30
0.0
 11
79.1886743359
 21
-13.2064993114
 31
0.0
  0
LINE
  5
4C1
330
1F
100
AcDbEntity
  8
0
  6
Continuous
 62
     7
370
    25
100
AcDbLine
 10
73.655523228
 20
-14.6297371691
 30
0.0
 11
77.7243687313
 21
-13.2064993114
 31
0.0
  0
LINE
  5
4C2
330
1F
100
AcDbEntity
  8
0
  6
Continuous
 62
     7
370
    25
100
AcDbLine
 10
70.2392355025
 20
-14.6297371691
 30
0.0
 11
73.655523228
 21
-14.6297371691
 31
0.0
  0
LINE
  5
4C3
330
1F
100
AcDbEntity
  8
0
  6
Continuous
 62
     7
370
    25
100
AcDbLine
 10
70.2392355025
 20
-15.1297371691
 30
0.0
 11
70.2392355025
 21
-14.6297371691
 31
0.0
  0
LINE
  5
4C4
330
1F
100
AcDbEntity
  8
0
  6
Continuous
 62
     7
370
    25
100
AcDbLine
 10
70.2392355025
 20
-15.1297371691
 30
0.0
 11
73.7404477651
 21
-15.1297371691
 31
0.0
  0
LINE
  5
4C5
330
1F
100
AcDbEntity
  8
0
  6
Continuous
 62
     7
370
    25
100
AcDbLine
 10
73.7404477651
 20
-15.1297371691
 30
0.0
 11
77.8092932684
 21
-13.7064993114
 31
0.0
  0
LINE
  5
4C6
330
1F
100
AcDbEntity
  8
0
  6
Continuous
 62
     7
370
    25
100
AcDbLine
 10
77.8092932684
 20
-13.7064993114
 30
0.0
 11
79.273598873
 21
-13.7064993114
 31
0.0
  0
LINE
  5
4C7
330
1F
100
AcDbEntity
  8
0
  6
Continuous
 62
     7
370
    25
100
AcDbLine
 10
79.273598873
 20
-13.7064993114
 30
0.0
 11
82.8085747837
 21
-12.4700032248
 31
0.0
  0
LINE
  5
4C8
330
1F
100
AcDbEntity
  8
0
  6
Continuous
 62
     7
370
    25
100
AcDbLine
 10
82.8085747837
 20
-12.4700032248
 30
0.0
 11
87.0617648809
 21
-12.4700032248
 31
0.0
  0
LINE
  5
4C9
330
1F
100
AcDbEntity
  8
0
  6
Continuous
 62
     7
370
    25
100
AcDbLine
 10
89.2193717267
 20
-14.7022933885
 30
0.0
 11
83.2318488724
 21
-13.8772775958
 31
0.0
  0
LINE
  5
4CA
330
1F
100
AcDbEntity
  8
0
  6
Continuous
 62
     7
370
    25
100
AcDbLine
 10
83.2318488724
 20
-13.8772775958
 30
0.0
 11
73.5881302953
 21
-18.5947869276
 31
0.0
  0
LINE
  5
4CB
330
1F
100
AcDbEntity
  8
0
  6
Continuous
 62
     7
370
    25
100
AcDbLine
 10
73.8078406978
 20
-19.0439275949
 30
0.0
 11
73.5881302953
 21
-18.5947869276
 31
0.0
  0
LINE
  5
4CC
330
1F
100
AcDbEntity
  8
0
  6
Continuous
 62
     7
370
    25
100
AcDbLine
 10
83.3146191083
 20
-14.3934065839
 30
0.0
 11
73.8078406978
 21
-19.0439275949
 31
0.0
  0
LINE
  5
4CD
330
1F
100
AcDbEntity
  8
0
  6
Continuous
 62
     7
370
    25
100
AcDbLine
 10
89.1511219862
 20
-15.1976134596
 30
0.0
 11
83.3146191083
 21
-14.3934065839
 31
0.0
  0
LINE
  5
4CE
330
1F
100
AcDbEntity
  8
0
  6
Continuous
 62
     7
370
    25
100
AcDbLine
 10
85.9188717441
 20
-15.3109119247
 30
0.0
 11
91.1622776861
 21
-15.3109119247
 31
0.0
  0
LINE
  5
4CF
330
1F
100
AcDbEntity
  8
0
  6
Continuous
 62
     7
370
    25
100
AcDbLine
 10
84.4328445629
 20
-16.2510217264
 30
0.0
 11
85.9188717441
 21
-15.3109119247
 31
0.0
  0
LINE
  5
4D0
330
1F
100
AcDbEntity
  8
0
  6
Continuous
 62
     7
370
    25
100
AcDbLine
 10
84.4328445629
 20
-16.2510217264
 30
0.0
 11
82.7225054062
 21
-15.9797114554
 31
0.0
  0
LINE
  5
4D1
330
1F
100
AcDbEntity
  8
0
  6
Continuous
 62
     7
370
    25
100
AcDbLine
 10
82.7225054062
 20
-15.9797114554
 30
0.0
 11
75.9520199179
 21
-19.587621429
 31
0.0
  0
LINE
  5
4D2
330
1F
100
AcDbEntity
  8
0
  6
Continuous
 62
     7
370
    25
100
AcDbLine
 10
74.1756915836
 20
-19.587621429
 30
0.0
 11
75.9520199179
 21
-19.587621429
 31
0.0
  0
LINE
  5
4D3
330
1F
100
AcDbEntity
  8
0
  6
Continuous
 62
     7
370
    25
100
AcDbLine
 10
72.9783336496
 20
-20.1449238574
 30
0.0
 11
74.1756915836
 21
-19.587621429
 31
0.0
  0
LINE
  5
4D4
330
1F
100
AcDbEntity
  8
0
  6
Continuous
 62
     7
370
    25
100
AcDbLine
 10
72.9783336496
 20
-20.1449238574
 30
0.0
 11
71.7850400503
 21
-19.7812952856
 31
0.0
  0
LINE
  5
4D5
330
1F
100
AcDbEntity
  8
0
  6
Continuous
 62
     7
370
    25
100
AcDbLine
 10
71.6392933476
 20
-20.2595817046
 30
0.0
 11
71.7850400503
 21
-19.7812952856
 31
0.0
  0
LINE
  5
4D6
330
1F
100
AcDbEntity
  8
0
  6
Continuous
 62
     7
370
    25
100
AcDbLine
 10
72.2996534235
 20
-20.460811135
 30
0.0
 11
71.6392933476
 21
-20.2595817046
 31
0.0
  0
LINE
  5
4D7
330
1F
100
AcDbEntity
  8
0
  6
Continuous
 62
     7
370
    25
100
AcDbLine
 10
70.9168592942
 20
-21.1044236292
 30
0.0
 11
72.2996534235
 21
-20.460811135
 31
0.0
  0
LINE
  5
4D8
330
1F
100
AcDbEntity
  8
0
  6
Continuous
 62
     7
370
    25
100
AcDbLine
 10
71.1278465981
 20
-21.557727454
 30
0.0
 11
70.9168592942
 21
-21.1044236292
 31
0.0
  0
LINE
  5
4D9
330
1F
100
AcDbEntity
  8
0
  6
Continuous
 62
     7
370
    25
100
AcDbLine
 10
71.1278465981
 20
-21.557727454
 30
0.0
 11
73.0157372448
 21
-20.6790210855
 31
0.0
  0
LINE
  5
4DA
330
1F
100
AcDbEntity
  8
0
  6
Continuous
 62
     7
370
    25
100
AcDbLine
 10
74.2572051441
 20
-21.0573296588
 30
0.0
 11
73.0157372448
 21
-20.6790210855
 31
0.0
  0
LINE
  5
4DB
330
1F
100
AcDbEntity
  8
0
  6
Continuous
 62
     7
370
    25
100
AcDbLine
 10
76.076927794
 20
-20.087621429
 30
0.0
 11
74.2572051441
 21
-21.0573296588
 31
0.0
  0
LINE
  5
4DC
330
1F
100
AcDbEntity
  8
0
  6
Continuous
 62
     7
370
    25
100
AcDbLine
 10
76.076927794
 20
-20.087621429
 30
0.0
 11
79.3035762423
 21
-20.087621429
 31
0.0
  0
LINE
  5
4DD
330
1F
100
AcDbEntity
  8
0
  6
Continuous
 62
     7
370
    25
100
AcDbLine
 10
79.3035762423
 20
-20.087621429
 30
0.0
 11
84.5407779755
 21
-16.7743948977
 31
0.0
  0
LINE
  5
4DE
330
1F
100
AcDbEntity
  8
0
  6
Continuous
 62
     7
370
    25
100
AcDbLine
 10
88.2529262058
 20
-17.3632511713
 30
0.0
 11
84.5407779755
 21
-16.7743948977
 31
0.0
  0
LINE
  5
4DF
330
1F
100
AcDbEntity
  8
0
  6
Continuous
 62
     7
370
    25
100
AcDbLine
 10
82.695074345
 20
-19.5967375131
 30
0.0
 11
88.2529262058
 21
-17.3632511713
 31
0.0
  0
LINE
  5
4E0
330
1F
100
AcDbEntity
  8
0
  6
Continuous
 62
     7
370
    25
100
AcDbLine
 10
72.5613553619
 20
-21.560832869
 30
0.0
 11
82.695074345
 21
-19.5967375131
 31
0.0
  0
LINE
  5
4E1
330
1F
100
AcDbEntity
  8
0
  6
Continuous
 62
     7
370
    25
100
AcDbLine
 10
72.6564937933
 20
-22.051698104
 30
0.0
 11
72.5613553619
 21
-21.560832869
 31
0.0
  0
LINE
  5
4E2
330
1F
100
AcDbEntity
  8
0
  6
Continuous
 62
     7
370
    25
100
AcDbLine
 10
72.6564937933
 20
-22.051698104
 30
0.0
 11
82.8371506851
 21
-20.0785053448
 31
0.0
  0
LINE
  5
4E3
330
1F
100
AcDbEntity
  8
0
  6
Continuous
 62
     7
370
    25
100
AcDbLine
 10
82.8371506851
 20
-20.0785053448
 30
0.0
 11
89.2222953749
 21
-17.5125619169
 31
0.0
  0
LINE
  5
4E4
330
1F
100
AcDbEntity
  8
0
  6
Continuous
 62
     7
370
    25
100
AcDbLine
 10
89.2222953749
 20
-17.5125619169
 30
0.0
 11
91.1390508229
 21
-17.6914163735
 31
0.0
  0
LINE
  5
4E5
330
1F
100
AcDbEntity
  8
0
  6
Continuous
 62
     7
370
    25
100
AcDbLine
 10
91.1855045492
 20
-17.1935789991
 30
0.0
 11
91.1390508229
 21
-17.6914163735
 31
0.0
  0
LINE
  5
4E6
330
1F
100
AcDbEntity
  8
0
  6
Continuous
 62
     7
370
    25
100
AcDbLine
 10
89.6742795066
 20
10.0625681677
 30
0.0
 11
87.8351143403
 21
10.4638340574
 31
0.0
  0
LINE
  5
4E7
330
1F
100
AcDbEntity
  8
0
  6
Continuous
 62
     7
370
    25
100
AcDbLine
 10
87.8351143403
 20
10.4638340574
 30
0.0
 11
86.0761200481
 21
11.360591936
 31
0.0
  0
LINE
  5
4E8
330
1F
100
AcDbEntity
  8
0
  6
Continuous
 62
     7
370
    25
100
AcDbLine
 10
86.0761200481
 20
11.360591936
 30
0.0
 11
84.0347091788
 21
11.8059834449
 31
0.0
  0
LINE
  5
4E9
330
1F
100
AcDbEntity
  8
0
  6
Continuous
 62
     7
370
    25
100
AcDbLine
 10
84.0347091788
 20
11.8059834449
 30
0.0
 11
81.1984745762
 21
13.2519322673
 31
0.0
  0
LINE
  5
4EA
330
1F
100
AcDbEntity
  8
0
  6
Continuous
 62
     7
370
    25
100
AcDbLine
 10
81.1984745762
 20
13.2519322673
 30
0.0
 11
79.2580918393
 21
13.2519322673
 31
0.0
  0
LINE
  5
4EB
330
1F
100
AcDbEntity
  8
0
  6
Continuous
 62
     7
370
    25
100
AcDbLine
 10
79.2580918393
 20
13.2519322673
 30
0.0
 11
73.7267383173
 21
14.4587534559
 31
0.0
  0
LINE
  5
4EC
330
1F
100
AcDbEntity
  8
0
  6
Continuous
 62
     7
370
    25
100
AcDbLine
 10
73.7267383173
 20
14.4587534559
 30
0.0
 11
72.6089245776
 21
14.4587534559
 31
0.0
  0
LINE
  5
4ED
330
1F
100
AcDbEntity
  8
0
  6
Continuous
 62
     7
370
    25
100
AcDbLine
 10
72.6089245776
 20
13.9587534559
 30
0.0
 11
72.6089245776
 21
14.4587534559
 31
0.0
  0
LINE
  5
4EE
330
1F
100
AcDbEntity
  8
0
  6
Continuous
 62
     7
370
    25
100
AcDbLine
 10
73.6728278477
 20
13.9587534559
 30
0.0
 11
72.6089245776
 21
13.9587534559
 31
0.0
  0
LINE
  5
4EF
330
1F
100
AcDbEntity
  8
0
  6
Continuous
 62
     7
370
    25
100
AcDbLine
 10
79.2041813697
 20
12.7519322673
 30
0.0
 11
73.6728278477
 21
13.9587534559
 31
0.0
  0
LINE
  5
4F0
330
1F
100
AcDbEntity
  8
0
  6
Continuous
 62
     7
370
    25
100
AcDbLine
 10
81.0783748748
 20
12.7519322673
 30
0.0
 11
79.2041813697
 21
12.7519322673
 31
0.0
  0
LINE
  5
4F1
330
1F
100
AcDbEntity
  8
0
  6
Continuous
 62
     7
370
    25
100
AcDbLine
 10
83.8650918465
 20
11.331228169
 30
0.0
 11
81.0783748748
 21
12.7519322673
 31
0.0
  0
LINE
  5
4F2
330
1F
100
AcDbEntity
  8
0
  6
Continuous
 62
     7
370
    25
100
AcDbLine
 10
85.9065027158
 20
10.8858366601
 30
0.0
 11
83.8650918465
 21
11.331228169
 31
0.0
  0
LINE
  5
4F3
330
1F
100
AcDbEntity
  8
0
  6
Continuous
 62
     7
370
    25
100
AcDbLine
 10
87.665497008
 20
9.9890787815
 30
0.0
 11
85.9065027158
 21
10.8858366601
 31
0.0
  0
LINE
  5
4F4
330
1F
100
AcDbEntity
  8
0
  6
Continuous
 62
     7
370
    25
100
AcDbLine
 10
89.6203690369
 20
9.5625681677
 30
0.0
 11
87.665497008
 21
9.9890787815
 31
0.0
  0
LINE
  5
4F5
330
1F
100
AcDbEntity
  8
0
  6
Continuous
 62
     7
370
    25
100
AcDbLine
 10
89.6473242718
 20
9.2347916644
 30
0.0
 11
84.6261773647
 21
9.2347916644
 31
0.0
  0
LINE
  5
4F6
330
1F
100
AcDbEntity
  8
0
  6
Continuous
 62
     7
370
    25
100
AcDbLine
 10
125.0
 20
-72.0278943482
 30
0.0
 11
125.0
 21
72.0278943482
 31
0.0
  0
LINE
  5
4F7
330
1F
100
AcDbEntity
  8
0
  6
Continuous
 62
     7
370
    25
100
AcDbLine
 10
106.8829539957
 20
-30.9368679751
 30
0.0
 11
106.9119890139
 21
-31.1834369882
 31
0.0
  0
LINE
  5
4F8
330
1F
100
AcDbEntity
  8
0
  6
Continuous
 62
     7
370
    25
100
AcDbLine
 10
106.8829539957
 20
-30.9368679751
 30
0.0
 11
114.6163218717
 21
-30.9368679751
 31
0.0
  0
LINE
  5
4F9
330
1F
100
AcDbEntity
  8
0
  6
Continuous
 62
     7
370
    25
100
AcDbLine
 10
114.5634235459
 20
-31.1749669567
 30
0.0
 11
114.6163218717
 21
-30.9368679751
 31
0.0
  0
LINE
  5
4FA
330
1F
100
AcDbEntity
  8
0
  6
Continuous
 62
     7
370
    25
100
AcDbLine
 10
109.3869962404
 20
-32.361425816
 30
0.0
 11
114.9036993758
 21
-32.361425816
 31
0.0
  0
LINE
  5
4FB
330
1F
100
AcDbEntity
  8
0
  6
Continuous
 62
     7
370
    25
100
AcDbLine
 10
109.3869962404
 20
-32.861425816
 30
0.0
 11
109.3869962404
 21
-32.361425816
 31
0.0
  0
LINE
  5
4FC
330
1F
100
AcDbEntity
  8
0
  6
Continuous
 62
     7
370
    25
100
AcDbLine
 10
109.3869962404
 20
-32.861425816
 30
0.0
 11
114.8477730183
 21
-32.861425816
 31
0.0
  0
LINE
  5
4FD
330
1F
100
AcDbEntity
  8
0
  6
Continuous
 62
     7
370
    25
100
AcDbLine
 10
114.8477730183
 20
-32.861425816
 30
0.0
 11
114.8477730183
 21
-34.2657852145
 31
0.0
  0
LINE
  5
4FE
330
1F
100
AcDbEntity
  8
0
  6
Continuous
 62
     7
370
    25
100
AcDbLine
 10
111.9226909694
 20
-37.3659758838
 30
0.0
 11
111.9226909694
 21
-54.5189268021
 31
0.0
  0
LINE
  5
4FF
330
1F
100
AcDbEntity
  8
0
  6
Continuous
 62
     7
370
    25
100
AcDbLine
 10
110.7957398755
 20
-55.645877896
 30
0.0
 11
73.2697200193
 21
-55.645877896
 31
0.0
  0
LINE
  5
500
330
1F
100
AcDbEntity
  8
0
  6
Continuous
 62
     7
370
    25
100
AcDbLine
 10
72.3706978403
 20
-54.746855717
 30
0.0
 11
72.3706978403
 21
-37.4045068523
 31
0.0
  0
LINE
  5
501
330
1F
100
AcDbEntity
  8
0
  6
Continuous
 62
     7
370
    25
100
AcDbLine
 10
69.1354758741
 20
-34.0804733164
 30
0.0
 11
69.1354758741
 21
-32.8418268656
 31
0.0
  0
LINE
  5
502
330
1F
100
AcDbEntity
  8
0
  6
Continuous
 62
     7
370
    25
100
AcDbLine
 10
71.1663199299
 20
-32.8418268656
 30
0.0
 11
69.1354758741
 21
-32.8418268656
 31
0.0
  0
LINE
  5
503
330
1F
100
AcDbEntity
  8
0
  6
Continuous
 62
     7
370
    25
100
AcDbLine
 10
71.1663199299
 20
-32.3418268656
 30
0.0
 11
71.1663199299
 21
-32.8418268656
 31
0.0
  0
LINE
  5
504
330
1F
100
AcDbEntity
  8
0
  6
Continuous
 62
     7
370
    25
100
AcDbLine
 10
71.1663199299
 20
-32.3418268656
 30
0.0
 11
69.079037796
 21
-32.3418268656
 31
0.0
  0
LINE
  5
505
330
1F
100
AcDbEntity
  8
0
  6
Continuous
 62
     7
370
    25
100
AcDbLine
 10
69.6925480283
 20
-30.9368679751
 30
0.0
 11
69.697726267
 21
-31.1867606609
 31
0.0
  0
LINE
  5
506
330
1F
100
AcDbEntity
  8
0
  6
Continuous
 62
     7
370
    25
100
AcDbLine
 10
69.6925480283
 20
-30.9368679751
 30
0.0
 11
77.3285531272
 21
-30.9368679751
 31
0.0
  0
LINE
  5
507
330
1F
100
AcDbEntity
  8
0
  6
Continuous
 62
     7
370
    25
100
AcDbLine
 10
77.3088805163
 20
-31.1853077573
 30
0.0
 11
77.3285531272
 21
-30.9368679751
 31
0.0
  0
LINE
  5
508
330
1F
100
AcDbEntity
  8
0
  6
Continuous
 62
     7
370
    25
100
AcDbLine
 10
72.1391465417
 20
-32.3418268656
 30
0.0
 11
77.6483880951
 21
-32.3418268656
 31
0.0
  0
LINE
  5
509
330
1F
100
AcDbEntity
  8
0
  6
Continuous
 62
     7
370
    25
100
AcDbLine
 10
72.1391465417
 20
-32.8418268656
 30
0.0
 11
72.1391465417
 21
-32.3418268656
 31
0.0
  0
LINE
  5
50A
330
1F
100
AcDbEntity
  8
0
  6
Continuous
 62
     7
370
    25
100
AcDbLine
 10
72.1391465417
 20
-32.8418268656
 30
0.0
 11
77.5886579186
 21
-32.8418268656
 31
0.0
  0
LINE
  5
50B
330
1F
100
AcDbEntity
  8
0
  6
Continuous
 62
     7
370
    25
100
AcDbLine
 10
77.5886579186
 20
-34.2748950254
 30
0.0
 11
77.5886579186
 21
-32.8418268656
 31
0.0
  0
LINE
  5
50C
330
1F
100
AcDbEntity
  8
0
  6
Continuous
 62
     7
370
    25
100
AcDbLine
 10
74.7819002675
 20
-49.8304364293
 30
0.0
 11
74.7819002675
 21
-37.3624529599
 31
0.0
  0
LINE
  5
50D
330
1F
100
AcDbEntity
  8
0
  6
Continuous
 62
     7
370
    25
100
AcDbLine
 10
87.7425944407
 20
-51.6123424069
 30
0.0
 11
76.563806245
 21
-51.6123424069
 31
0.0
  0
LINE
  5
50E
330
1F
100
AcDbEntity
  8
0
  6
Continuous
 62
     7
370
    25
100
AcDbLine
 10
89.7827830366
 20
-38.4492539194
 30
0.0
 11
89.7827830366
 21
-49.572153811
 31
0.0
  0
LINE
  5
50F
330
1F
100
AcDbEntity
  8
0
  6
Continuous
 62
     7
370
    25
100
AcDbLine
 10
86.8085
 20
-36.7320508076
 30
0.0
 11
89.8085
 21
-38.4641016151
 31
0.0
  0
LINE
  5
510
330
1F
100
AcDbEntity
  8
0
  6
Continuous
 62
     7
370
    25
100
AcDbLine
 10
89.8085
 20
-38.4641016151
 30
0.0
 11
92.8085
 21
-36.7320508076
 31
0.0
  0
LINE
  5
511
330
1F
100
AcDbEntity
  8
0
  6
Continuous
 62
     7
370
    25
100
AcDbLine
 10
92.2151308359
 20
-49.7750739093
 30
0.0
 11
92.2151308359
 21
-37.340389997
 31
0.0
  0
LINE
  5
512
330
1F
100
AcDbEntity
  8
0
  6
Continuous
 62
     7
370
    25
100
AcDbLine
 10
107.6159956776
 20
-51.6123424069
 30
0.0
 11
94.0523993334
 21
-51.6123424069
 31
0.0
  0
LINE
  5
513
330
1F
100
AcDbEntity
  8
0
  6
Continuous
 62
     7
370
    25
100
AcDbLine
 10
109.3308282582
 20
-37.4075100014
 30
0.0
 11
109.3308282582
 21
-49.8975098263
 31
0.0
  0
LINE
  5
514
330
1F
100
AcDbEntity
  8
0
  6
Continuous
 62
     7
370
    25
100
AcDbLine
 10
106.5468308379
 20
-32.861425816
 30
0.0
 11
106.5468308379
 21
-34.2597034629
 31
0.0
  0
LINE
  5
515
330
1F
100
AcDbEntity
  8
0
  6
Continuous
 62
     7
370
    25
100
AcDbLine
 10
108.4119962404
 20
-32.861425816
 30
0.0
 11
106.5468308379
 21
-32.861425816
 31
0.0
  0
LINE
  5
516
330
1F
100
AcDbEntity
  8
0
  6
Continuous
 62
     7
370
    25
100
AcDbLine
 10
108.4119962404
 20
-32.361425816
 30
0.0
 11
108.4119962404
 21
-32.861425816
 31
0.0
  0
LINE
  5
517
330
1F
100
AcDbEntity
  8
0
  6
Continuous
 62
     7
370
    25
100
AcDbLine
 10
108.4119962404
 20
-32.361425816
 30
0.0
 11
106.4930988071
 21
-32.361425816
 31
0.0
  0
LINE
  5
518
330
1F
100
AcDbEntity
  8
0
  6
Continuous
 62
     7
370
    25
100
AcDbLine
 10
112.9226909694
 20
-30.4368679751
 30
0.0
 11
112.9226909694
 21
-28.3606955205
 31
0.0
  0
LINE
  5
519
330
1F
100
AcDbEntity
  8
0
  6
Continuous
 62
     7
370
    25
100
AcDbLine
 10
112.9226909694
 20
-30.4368679751
 30
0.0
 11
114.1718642404
 21
-30.4368679751
 31
0.0
  0
LINE
  5
51A
330
1F
100
AcDbEntity
  8
0
  6
Continuous
 62
     7
370
    25
100
AcDbLine
 10
114.1718642404
 20
-28.3606955205
 30
0.0
 11
114.1718642404
 21
-30.4368679751
 31
0.0
  0
LINE
  5
51B
330
1F
100
AcDbEntity
  8
0
  6
Continuous
 62
     7
370
    25
100
AcDbLine
 10
107.3535149576
 20
-30.4368679751
 30
0.0
 11
107.3535149576
 21
-28.3606955205
 31
0.0
  0
LINE
  5
51C
330
1F
100
AcDbEntity
  8
0
  6
Continuous
 62
     7
370
    25
100
AcDbLine
 10
107.3535149576
 20
-30.4368679751
 30
0.0
 11
108.3308282582
 21
-30.4368679751
 31
0.0
  0
LINE
  5
51D
330
1F
100
AcDbEntity
  8
0
  6
Continuous
 62
     7
370
    25
100
AcDbLine
 10
108.3308282582
 20
-28.3606955205
 30
0.0
 11
108.3308282582
 21
-30.4368679751
 31
0.0
  0
LINE
  5
51E
330
1F
100
AcDbEntity
  8
0
  6
Continuous
 62
     7
370
    25
100
AcDbLine
 10
87.9987379827
 20
-32.3483491034
 30
0.0
 11
87.9987379827
 21
-32.5807649727
 31
0.0
  0
LINE
  5
51F
330
1F
100
AcDbEntity
  8
0
  6
Continuous
 62
     7
370
    25
100
AcDbLine
 10
87.9987379827
 20
-32.3483491034
 30
0.0
 11
86.8126091904
 21
-32.3483491034
 31
0.0
  0
LINE
  5
520
330
1F
100
AcDbEntity
  8
0
  6
Continuous
 62
     7
370
    25
100
AcDbLine
 10
87.2828429848
 20
-30.9368679751
 30
0.0
 11
87.2882985699
 21
-31.1867488505
 31
0.0
  0
LINE
  5
521
330
1F
100
AcDbEntity
  8
0
  6
Continuous
 62
     7
370
    25
100
AcDbLine
 10
87.2828429848
 20
-30.9368679751
 30
0.0
 11
94.9500846425
 21
-30.9368679751
 31
0.0
  0
LINE
  5
522
330
1F
100
AcDbEntity
  8
0
  6
Continuous
 62
     7
370
    25
100
AcDbLine
 10
94.9000483499
 20
-31.1762945147
 30
0.0
 11
94.9500846425
 21
-30.9368679751
 31
0.0
  0
LINE
  5
523
330
1F
100
AcDbEntity
  8
0
  6
Continuous
 62
     7
370
    25
100
AcDbLine
 10
95.1377127417
 20
-32.361425816
 30
0.0
 11
91.2383554538
 21
-32.361425816
 31
0.0
  0
LINE
  5
524
330
1F
100
AcDbEntity
  8
0
  6
Continuous
 62
     7
370
    25
100
AcDbLine
 10
92.8085
 20
-36.7320508076
 30
0.0
 11
92.8085
 21
-33.2679491924
 31
0.0
  0
LINE
  5
525
330
1F
100
AcDbEntity
  8
0
  6
Continuous
 62
     7
370
    25
100
AcDbLine
 10
92.8085
 20
-33.2679491924
 30
0.0
 11
89.8085
 21
-31.5358983849
 31
0.0
  0
LINE
  5
526
330
1F
100
AcDbEntity
  8
0
  6
Continuous
 62
     7
370
    25
100
AcDbLine
 10
95.0758918144
 20
-32.861425816
 30
0.0
 11
92.1043808576
 21
-32.861425816
 31
0.0
  0
LINE
  5
527
330
1F
100
AcDbEntity
  8
0
  6
Continuous
 62
     7
370
    25
100
AcDbLine
 10
95.0758918144
 20
-34.2794954142
 30
0.0
 11
95.0758918144
 21
-32.861425816
 31
0.0
  0
LINE
  5
528
330
1F
100
AcDbEntity
  8
0
  6
Continuous
 62
     7
370
    25
100
AcDbLine
 10
94.5023306182
 20
-30.4368679751
 30
0.0
 11
94.5023306182
 21
-28.3606955205
 31
0.0
  0
LINE
  5
529
330
1F
100
AcDbEntity
  8
0
  6
Continuous
 62
     7
370
    25
100
AcDbLine
 10
93.2151308359
 20
-30.4368679751
 30
0.0
 11
94.5023306182
 21
-30.4368679751
 31
0.0
  0
LINE
  5
52A
330
1F
100
AcDbEntity
  8
0
  6
Continuous
 62
     7
370
    25
100
AcDbLine
 10
93.2151308359
 20
-28.3606955205
 30
0.0
 11
93.2151308359
 21
-30.4368679751
 31
0.0
  0
LINE
  5
52B
330
1F
100
AcDbEntity
  8
0
  6
Continuous
 62
     7
370
    25
100
AcDbLine
 10
89.2164763566
 20
-17.0098469181
 30
0.0
 11
85.180580507
 21
-16.3696347166
 31
0.0
  0
LINE
  5
52C
330
1F
100
AcDbEntity
  8
0
  6
Continuous
 62
     7
370
    25
100
AcDbLine
 10
85.180580507
 20
-16.3696347166
 30
0.0
 11
86.0637510197
 21
-15.8109119247
 31
0.0
  0
LINE
  5
52D
330
1F
100
AcDbEntity
  8
0
  6
Continuous
 62
     7
370
    25
100
AcDbLine
 10
86.0637510197
 20
-15.8109119247
 30
0.0
 11
91.1622776861
 21
-15.8109119247
 31
0.0
  0
LINE
  5
52E
330
1F
100
AcDbEntity
  8
0
  6
Continuous
 62
     7
370
    25
100
AcDbLine
 10
89.2164763566
 20
-17.0098469181
 30
0.0
 11
91.1855045492
 21
-17.1935789991
 31
0.0
  0
LINE
  5
52F
330
1F
100
AcDbEntity
  8
0
  6
Continuous
 62
     7
370
    25
100
AcDbLine
 10
88.5484953778
 20
37.2400552114
 30
0.0
 11
90.0187264126
 21
36.3437061794
 31
0.0
  0
LINE
  5
530
330
1F
100
AcDbEntity
  8
0
  6
Continuous
 62
     7
370
    25
100
AcDbLine
 10
88.5484953778
 20
35.4473571474
 30
0.0
 11
90.0187264126
 21
36.3437061794
 31
0.0
  0
LINE
  5
531
330
1F
100
AcDbEntity
  8
0
  6
Continuous
 62
     7
370
    25
100
AcDbLine
 10
88.5484953778
 20
35.4473571474
 30
0.0
 11
88.5484953778
 21
37.2400552114
 31
0.0
  0
LINE
  5
532
330
1F
100
AcDbEntity
  8
0
  6
Continuous
 62
     7
370
    25
100
AcDbLine
 10
88.7827830366
 20
-30.4368679751
 30
0.0
 11
88.7827830366
 21
-28.3606955205
 31
0.0
  0
LINE
  5
533
330
1F
100
AcDbEntity
  8
0
  6
Continuous
 62
     7
370
    25
100
AcDbLine
 10
87.7773847988
 20
-28.3606955205
 30
0.0
 11
87.7773847988
 21
-30.4368679751
 31
0.0
  0
LINE
  5
534
330
1F
100
AcDbEntity
  8
0
  6
Continuous
 62
     7
370
    25
100
AcDbLine
 10
87.7773847988
 20
-30.4368679751
 30
0.0
 11
88.7827830366
 21
-30.4368679751
 31
0.0
  0
LINE
  5
535
330
1F
100
AcDbEntity
  8
0
  6
Continuous
 62
     7
370
    25
100
AcDbLine
 10
86.0583621086
 20
8.407015161
 30
0.0
 11
85.4912567298
 21
8.7347916644
 31
0.0
  0
LINE
  5
536
330
1F
100
AcDbEntity
  8
0
  6
Continuous
 62
     7
370
    25
100
AcDbLine
 10
89.6473242718
 20
8.7347916644
 30
0.0
 11
85.4912567298
 21
8.7347916644
 31
0.0
  0
LINE
  5
537
330
1F
100
AcDbEntity
  8
0
  6
Continuous
 62
     7
370
    25
100
AcDbLine
 10
91.2768463505
 20
8.407015161
 30
0.0
 11
86.0583621086
 21
8.407015161
 31
0.0
  0
LINE
  5
538
330
1F
100
AcDbEntity
  8
0
  6
Continuous
 62
     7
370
    25
100
AcDbLine
 10
86.8674375339
 20
-32.8483491034
 30
0.0
 11
86.8674375339
 21
-33.2339215914
 31
0.0
  0
LINE
  5
539
330
1F
100
AcDbEntity
  8
0
  6
Continuous
 62
     7
370
    25
100
AcDbLine
 10
87.5352686731
 20
-32.8483491034
 30
0.0
 11
86.8674375339
 21
-32.8483491034
 31
0.0
  0
LINE
  5
53A
330
1F
100
AcDbEntity
  8
0
  6
Continuous
 62
     7
370
    25
100
AcDbLine
 10
89.8085
 20
-31.5358983849
 30
0.0
 11
86.8085
 21
-33.2679491924
 31
0.0
  0
LINE
  5
53B
330
1F
100
AcDbEntity
  8
0
  6
Continuous
 62
     7
370
    25
100
AcDbLine
 10
83.2317114284
 20
-8.4771678307
 30
0.0
 11
85.4732637516
 21
-8.5209690725
 31
0.0
  0
LINE
  5
53C
330
1F
100
AcDbEntity
  8
0
  6
Continuous
 62
     7
370
    25
100
AcDbLine
 10
85.5752280507
 20
-7.3692778325
 30
0.0
 11
83.2317114284
 21
-8.4771678307
 31
0.0
  0
LINE
  5
53D
330
1F
100
AcDbEntity
  8
0
  6
Continuous
 62
     7
370
    25
100
AcDbLine
 10
78.6433459104
 20
-8.3875084883
 30
0.0
 11
82.1082674428
 21
-8.455215079
 31
0.0
  0
LINE
  5
53E
330
1F
100
AcDbEntity
  8
0
  6
Continuous
 62
     7
370
    25
100
AcDbLine
 10
82.1905516528
 20
-5.9750920607
 30
0.0
 11
78.6433459104
 21
-8.3875084883
 31
0.0
  0
LINE
  5
53F
330
1F
100
AcDbEntity
  8
0
  6
Continuous
 62
     7
370
    25
100
AcDbLine
 10
82.1905516528
 20
-5.9750920607
 30
0.0
 11
84.97642163
 21
-5.9750920607
 31
0.0
  0
LINE
  5
540
330
1F
100
AcDbEntity
  8
0
  6
Continuous
 62
     7
370
    25
100
AcDbLine
 10
85.3615310253
 20
-6.917245111
 30
0.0
 11
82.1082674428
 21
-8.455215079
 31
0.0
  0
LINE
  5
541
330
1F
100
AcDbEntity
  8
0
  6
Continuous
 62
     7
370
    25
100
AcDbLine
 10
82.809719624
 20
-16.4997979509
 30
0.0
 11
77.0152113901
 21
-19.587621429
 31
0.0
  0
LINE
  5
542
330
1F
100
AcDbEntity
  8
0
  6
Continuous
 62
     7
370
    25
100
AcDbLine
 10
83.7930420314
 20
-16.6557819075
 30
0.0
 11
82.809719624
 21
-16.4997979509
 31
0.0
  0
LINE
  5
543
330
1F
100
AcDbEntity
  8
0
  6
Continuous
 62
     7
370
    25
100
AcDbLine
 10
79.1586969667
 20
-19.587621429
 30
0.0
 11
83.7930420314
 21
-16.6557819075
 31
0.0
  0
LINE
  5
544
330
1F
100
AcDbEntity
  8
0
  6
Continuous
 62
     7
370
    25
100
AcDbLine
 10
77.0152113901
 20
-19.587621429
 30
0.0
 11
79.1586969667
 21
-19.587621429
 31
0.0
  0
LINE
  5
545
330
1F
100
AcDbEntity
  8
0
  6
Continuous
 62
     7
370
    25
100
AcDbLine
 10
77.9020167215
 20
11.3435157984
 30
0.0
 11
75.0376134308
 21
12.6455172941
 31
0.0
  0
LINE
  5
546
330
1F
100
AcDbEntity
  8
0
  6
Continuous
 62
     7
370
    25
100
AcDbLine
 10
75.910536823
 20
12.7490538514
 30
0.0
 11
75.0376134308
 21
12.6455172941
 31
0.0
  0
LINE
  5
547
330
1F
100
AcDbEntity
  8
0
  6
Continuous
 62
     7
370
    25
100
AcDbLine
 10
78.3833877153
 20
12.2655013556
 30
0.0
 11
75.910536823
 21
12.7490538514
 31
0.0
  0
LINE
  5
548
330
1F
100
AcDbEntity
  8
0
  6
Continuous
 62
     7
370
    25
100
AcDbLine
 10
83.6269965463
 20
9.2347916644
 30
0.0
 11
81.2113068907
 21
9.2347916644
 31
0.0
  0
LINE
  5
549
330
1F
100
AcDbEntity
  8
0
  6
Continuous
 62
     7
370
    25
100
AcDbLine
 10
81.2113068907
 20
9.2347916644
 30
0.0
 11
77.9020167215
 21
11.3435157984
 31
0.0
  0
LINE
  5
54A
330
1F
100
AcDbEntity
  8
0
  6
Continuous
 62
     7
370
    25
100
AcDbLine
 10
83.6269965463
 20
9.2347916644
 30
0.0
 11
78.3833877153
 21
12.2655013556
 31
0.0
  0
LINE
  5
54B
330
1F
100
AcDbEntity
  8
0
  6
Continuous
 62
     7
370
    25
100
AcDbLine
 10
83.4990505885
 20
-5.085196025
 30
0.0
 11
82.9257492956
 21
-5.4750920607
 31
0.0
  0
LINE
  5
54C
330
1F
100
AcDbEntity
  8
0
  6
Continuous
 62
     7
370
    25
100
AcDbLine
 10
82.9257492956
 20
-5.4750920607
 30
0.0
 11
84.97642163
 21
-5.4750920607
 31
0.0
  0
LINE
  5
54D
330
1F
100
AcDbEntity
  8
0
  6
Continuous
 62
     7
370
    25
100
AcDbLine
 10
81.0515311935
 20
-6.1450538623
 30
0.0
 11
77.7790692119
 21
-8.3706200168
 31
0.0
  0
LINE
  5
54E
330
1F
100
AcDbEntity
  8
0
  6
Continuous
 62
     7
370
    25
100
AcDbLine
 10
75.6489736492
 20
-8.3289967052
 30
0.0
 11
77.7790692119
 21
-8.3706200168
 31
0.0
  0
LINE
  5
54F
330
1F
100
AcDbEntity
  8
0
  6
Continuous
 62
     7
370
    25
100
AcDbLine
 10
75.6489736492
 20
-8.3289967052
 30
0.0
 11
77.9519086194
 21
-6.8679613556
 31
0.0
  0
LINE
  5
550
330
1F
100
AcDbEntity
  8
0
  6
Continuous
 62
     7
370
    25
100
AcDbLine
 10
77.9519086194
 20
-6.8679613556
 30
0.0
 11
81.0515311935
 21
-6.1450538623
 31
0.0
  0
LINE
  5
551
330
1F
100
AcDbEntity
  8
0
  6
Continuous
 62
     7
370
    25
100
AcDbLine
 10
75.7819002675
 20
-30.4368679751
 30
0.0
 11
76.8483492834
 21
-30.4368679751
 31
0.0
  0
LINE
  5
552
330
1F
100
AcDbEntity
  8
0
  6
Continuous
 62
     7
370
    25
100
AcDbLine
 10
75.7819002675
 20
-28.3606955205
 30
0.0
 11
75.7819002675
 21
-30.4368679751
 31
0.0
  0
LINE
  5
553
330
1F
100
AcDbEntity
  8
0
  6
Continuous
 62
     7
370
    25
100
AcDbLine
 10
76.8483492834
 20
-30.4368679751
 30
0.0
 11
76.8483492834
 21
-28.3606955205
 31
0.0
  0
LINE
  5
554
330
1F
100
AcDbEntity
  8
0
  6
Continuous
 62
     7
370
    25
100
AcDbLine
 10
73.6944174709
 20
-20.3631338078
 30
0.0
 11
74.2863526858
 21
-20.087621429
 31
0.0
  0
LINE
  5
555
330
1F
100
AcDbEntity
  8
0
  6
Continuous
 62
     7
370
    25
100
AcDbLine
 10
74.2863526858
 20
-20.087621429
 30
0.0
 11
75.0137363218
 21
-20.087621429
 31
0.0
  0
LINE
  5
556
330
1F
100
AcDbEntity
  8
0
  6
Continuous
 62
     7
370
    25
100
AcDbLine
 10
75.0137363218
 20
-20.087621429
 30
0.0
 11
74.2048391253
 21
-20.5186729788
 31
0.0
  0
LINE
  5
557
330
1F
100
AcDbEntity
  8
0
  6
Continuous
 62
     7
370
    25
100
AcDbLine
 10
74.2048391253
 20
-20.5186729788
 30
0.0
 11
73.6944174709
 21
-20.3631338078
 31
0.0
  0
LINE
  5
558
330
1F
100
AcDbEntity
  8
0
  6
Continuous
 62
     7
370
    25
100
AcDbLine
 10
71.3042177773
 20
-30.4368679751
 30
0.0
 11
71.3042177773
 21
-28.3606955205
 31
0.0
  0
LINE
  5
559
330
1F
100
AcDbEntity
  8
0
  6
Continuous
 62
     7
370
    25
100
AcDbLine
 10
70.1873675659
 20
-30.4368679751
 30
0.0
 11
71.3042177773
 21
-30.4368679751
 31
0.0
  0
LINE
  5
55A
330
1F
100
AcDbEntity
  8
0
  6
Continuous
 62
     7
370
    25
100
AcDbLine
 10
70.1873675659
 20
-28.3606955205
 30
0.0
 11
70.1873675659
 21
-30.4368679751
 31
0.0
  0
LINE
  5
55B
330
1F
100
AcDbEntity
  8
0
  6
Continuous
 62
     7
370
    25
100
AcDbLine
 10
91.2768463505
 20
9.5625681677
 30
0.0
 11
89.6203690369
 21
9.5625681677
 31
0.0
  0
LINE
  5
55C
330
1F
100
AcDbEntity
  8
0
  6
Continuous
 62
     7
370
    25
100
AcDbLine
 10
91.2768463505
 20
10.0625681677
 30
0.0
 11
91.2768463505
 21
9.5625681677
 31
0.0
  0
LINE
  5
55D
330
1F
100
AcDbEntity
  8
0
  6
Continuous
 62
     7
370
    25
100
AcDbLine
 10
91.2768463505
 20
10.0625681677
 30
0.0
 11
89.6742795066
 21
10.0625681677
 31
0.0
  0
LINE
  5
55E
330
1F
100
AcDbEntity
  8
0
  6
Continuous
 62
     7
370
    25
100
AcDbLine
 10
91.1622776861
 20
-15.3109119247
 30
0.0
 11
91.1622776861
 21
-15.8109119247
 31
0.0
  0
LINE
  5
55F
330
1F
100
AcDbEntity
  8
0
  6
Continuous
 62
     7
370
    25
100
AcDbLine
 10
89.2193717267
 20
-14.7022933885
 30
0.0
 11
89.1511219862
 21
-15.1976134596
 31
0.0
  0
LINE
  5
560
330
1F
100
AcDbEntity
  8
0
  6
Continuous
 62
     7
370
    25
100
AcDbLine
 10
87.0617648809
 20
-11.9700032248
 30
0.0
 11
87.0617648809
 21
-12.4700032248
 31
0.0
  0
LINE
  5
561
330
1F
100
AcDbEntity
  8
0
  6
Continuous
 62
     7
370
    25
100
AcDbLine
 10
85.9913113819
 20
-10.7277585457
 30
0.0
 11
85.9913113819
 21
-11.2277585457
 31
0.0
  0
LINE
  5
562
330
1F
100
AcDbEntity
  8
0
  6
Continuous
 62
     7
370
    25
100
AcDbLine
 10
85.4732637516
 20
-8.5209690725
 30
0.0
 11
85.4634953243
 21
-9.0208736412
 31
0.0
  0
LINE
  5
563
330
1F
100
AcDbEntity
  8
0
  6
Continuous
 62
     7
370
    25
100
AcDbLine
 10
85.3615310253
 20
-6.917245111
 30
0.0
 11
85.5752280507
 21
-7.3692778325
 31
0.0
  0
LINE
  5
564
330
1F
100
AcDbEntity
  8
0
  6
Continuous
 62
     7
370
    25
100
AcDbLine
 10
84.97642163
 20
-5.4750920607
 30
0.0
 11
84.97642163
 21
-5.9750920607
 31
0.0
  0
LINE
  5
565
330
1F
100
AcDbEntity
  8
0
  6
Continuous
 62
     7
370
    25
100
AcDbLine
 10
85.468379538
 20
-5.085196025
 30
0.0
 11
83.4990505885
 21
-5.085196025
 31
0.0
  0
LINE
  5
566
330
1F
100
AcDbEntity
  8
0
  6
Continuous
 62
     7
370
    25
100
AcDbLine
 10
85.468379538
 20
-4.585196025
 30
0.0
 11
85.468379538
 21
-5.085196025
 31
0.0
  0
LINE
  5
567
330
1F
100
AcDbEntity
  8
0
  6
Continuous
 62
     7
370
    25
100
AcDbLine
 10
85.9913113819
 20
-2.7860362626
 30
0.0
 11
85.9913113819
 21
-3.2860362626
 31
0.0
  0
LINE
  5
568
330
1F
100
AcDbEntity
  8
0
  6
Continuous
 62
     7
370
    25
100
AcDbLine
 10
84.97642163
 20
-0.7590903776
 30
0.0
 11
84.97642163
 21
-1.2590903776
 31
0.0
  0
LINE
  5
569
330
1F
100
AcDbEntity
  8
0
  6
Continuous
 62
     7
370
    25
100
AcDbLine
 10
85.433967738
 20
1.3886204255
 30
0.0
 11
85.433967738
 21
0.8886204255
 31
0.0
  0
LINE
  5
56A
330
1F
100
AcDbEntity
  8
0
  6
Continuous
 62
     7
370
    25
100
AcDbLine
 10
85.9913113819
 20
3.5818093552
 30
0.0
 11
85.9913113819
 21
3.0818093552
 31
0.0
  0
LINE
  5
56B
330
1F
100
AcDbEntity
  8
0
  6
Continuous
 62
     7
370
    25
100
AcDbLine
 10
86.7441178178
 20
4.7590163429
 30
0.0
 11
86.7302906665
 21
4.2592075696
 31
0.0
  0
LINE
  5
56C
330
1F
100
AcDbEntity
  8
0
  6
Continuous
 62
     7
370
    25
100
AcDbLine
 10
89.5905076836
 20
7.7106595675
 30
0.0
 11
89.70414086
 21
7.2237432489
 31
0.0
  0
LINE
  5
56D
330
1F
100
AcDbEntity
  8
0
  6
Continuous
 62
     7
370
    25
100
AcDbLine
 10
91.2768463505
 20
8.407015161
 30
0.0
 11
91.2768463505
 21
7.907015161
 31
0.0
  0
LINE
  5
56E
330
1F
100
AcDbEntity
  8
0
  6
Continuous
 62
     7
370
    25
100
AcDbLine
 10
89.6473242718
 20
9.2347916644
 30
0.0
 11
89.6473242718
 21
8.7347916644
 31
0.0
  0
ARC
  5
56F
330
1F
100
AcDbEntity
  8
0
  6
Continuous
 62
     7
370
    25
100
AcDbCircle
 10
88.2800839177
 20
-28.3606955205
 30
0.0
 40
1.502699118882703
100
AcDbArc
 50
0.0
 51
180.0
  0
ARC
  5
570
330
1F
100
AcDbEntity
  8
0
  6
Continuous
 62
     7
370
    25
100
AcDbCircle
 10
87.7425944407
 20
-49.572153811
 30
0.0
 40
1.040188595855483
100
AcDbArc
 50
270.0
 51
0.0
  0
ARC
  5
571
330
1F
100
AcDbEntity
  8
0
  6
Continuous
 62
     7
370
    25
100
AcDbCircle
 10
76.563806245
 20
-49.8304364293
 30
0.0
 40
0.7819059775308261
100
AcDbArc
 50
180.0
 51
270.0
  0
ARC
  5
572
330
1F
100
AcDbEntity
  8
0
  6
Continuous
 62
     7
370
    25
100
AcDbCircle
 10
76.3151247754
 20
-28.3606955205
 30
0.0
 40
1.533224507952099
100
AcDbArc
 50
0.0
 51
180.0
  0
ARC
  5
573
330
1F
100
AcDbEntity
  8
0
  6
Continuous
 62
     7
370
    25
100
AcDbCircle
 10
70.7457926716
 20
-28.3606955205
 30
0.0
 40
1.558425105707059
100
AcDbArc
 50
0.0
 51
180.0
  0
ARC
  5
574
330
1F
100
AcDbEntity
  8
0
  6
Continuous
 62
     7
370
    25
100
AcDbCircle
 10
73.2697200193
 20
-54.746855717
 30
0.0
 40
1.899022178957765
100
AcDbArc
 50
180.0
 51
270.0
  0
ARC
  5
575
330
1F
100
AcDbEntity
  8
0
  6
Continuous
 62
     7
370
    25
100
AcDbCircle
 10
110.7957398755
 20
-54.5189268021
 30
0.0
 40
2.126951093941592
100
AcDbArc
 50
270.0
 51
0.0
  0
ARC
  5
576
330
1F
100
AcDbEntity
  8
0
  6
Continuous
 62
     7
370
    25
100
AcDbCircle
 10
113.5472776049
 20
-28.3606955205
 30
0.0
 40
1.624586635504215
100
AcDbArc
 50
0.0
 51
180.0
  0
ARC
  5
577
330
1F
100
AcDbEntity
  8
0
  6
Continuous
 62
     7
370
    25
100
AcDbCircle
 10
107.8421716079
 20
-28.3606955205
 30
0.0
 40
1.488656650274507
100
AcDbArc
 50
0.0
 51
180.0
  0
ARC
  5
578
330
1F
100
AcDbEntity
  8
0
  6
Continuous
 62
     7
370
    25
100
AcDbCircle
 10
107.6159956776
 20
-49.8975098263
 30
0.0
 40
0.7148325805869149
100
AcDbArc
 50
270.0
 51
360.0
  0
ARC
  5
579
330
1F
100
AcDbEntity
  8
0
  6
Continuous
 62
     7
370
    25
100
AcDbCircle
 10
94.0523993334
 20
-49.7750739093
 30
0.0
 40
0.8372684975333868
100
AcDbArc
 50
180.0
 51
270.0
  0
ARC
  5
57A
330
1F
100
AcDbEntity
  8
0
  6
Continuous
 62
     7
370
    25
100
AcDbCircle
 10
93.858730727
 20
-28.3606955205
 30
0.0
 40
1.643599891128844
100
AcDbArc
 50
0.0
 51
180.0
  0
ARC
  5
57B
330
1F
100
AcDbEntity
  8
0
  6
Continuous
 62
     7
370
    25
100
AcDbCircle
 10
83.068453291
 20
36.3437061794
 30
0.0
 40
1.250000000000005
100
AcDbArc
 50
203.5781784782
 51
156.4218215218
  0
ARC
  5
57C
330
1F
100
AcDbEntity
  8
0
  6
Continuous
 62
     7
370
    25
100
AcDbCircle
 10
77.1345341869
 20
23.7787791394
 30
0.0
 40
1.250000000000007
100
AcDbArc
 50
113.5781784782
 51
66.4218215218
  0
ARC
  5
57D
330
1F
100
AcDbEntity
  8
0
  6
Continuous
 62
     7
370
    25
100
AcDbCircle
 10
97.4901399842
 20
44.142444378
 30
0.0
 40
1.500000000000022
100
AcDbArc
 50
1.8095016989
 51
180.0
  0
ARC
  5
57E
330
1F
100
AcDbEntity
  8
0
  6
Continuous
 62
     7
370
    25
100
AcDbCircle
 10
94.4901399842
 20
44.142444378
 30
0.0
 40
1.500000000000028
100
AcDbArc
 50
0.0
 51
165.298490388
  0
ARC
  5
57F
330
1F
100
AcDbEntity
  8
0
  6
Continuous
 62
     7
370
    25
100
AcDbCircle
 10
92.5637074204
 20
44.647888751
 30
0.0
 40
0.4916366226836431
100
AcDbArc
 50
270.0
 51
345.298490388
  0
ARC
  5
580
330
1F
100
AcDbEntity
  8
0
  6
Continuous
 62
     7
370
    25
100
AcDbCircle
 10
92.9985033615
 20
44.142444378
 30
0.0
 40
0.491636622683572
100
AcDbArc
 50
270.0
 51
0.0
  0
ARC
  5
581
330
1F
100
AcDbEntity
  8
0
  6
Continuous
 62
     7
370
    25
100
AcDbCircle
 10
94.4901399842
 20
44.142444378
 30
0.0
 40
1.000000000000014
100
AcDbArc
 50
0.0
 51
180.0
  0
ARC
  5
582
330
1F
100
AcDbEntity
  8
0
  6
Continuous
 62
     7
370
    25
100
AcDbCircle
 10
95.9901399842
 20
44.142444378
 30
0.0
 40
0.5000000000000142
100
AcDbArc
 50
180.0
 51
0.0
  0
ARC
  5
583
330
1F
100
AcDbEntity
  8
0
  6
Continuous
 62
     7
370
    25
100
AcDbCircle
 10
97.4901399842
 20
44.142444378
 30
0.0
 40
1.000000000000014
100
AcDbArc
 50
0.0
 51
180.0
  0
ARC
  5
584
330
1F
100
AcDbEntity
  8
0
  6
Continuous
 62
     7
370
    25
100
AcDbCircle
 10
98.9901399842
 20
44.142444378
 30
0.0
 40
0.5
100
AcDbArc
 50
180.0
 51
0.0
  0
ARC
  5
585
330
1F
100
AcDbEntity
  8
0
  6
Continuous
 62
     7
370
    25
100
AcDbCircle
 10
100.4901399842
 20
44.142444378
 30
0.0
 40
1.000000000000014
100
AcDbArc
 50
0.0
 51
180.0
  0
ARC
  5
586
330
1F
100
AcDbEntity
  8
0
  6
Continuous
 62
     7
370
    25
100
AcDbCircle
 10
101.9817766069
 20
44.142444378
 30
0.0
 40
0.4916366226835578
100
AcDbArc
 50
180.0
 51
270.0
  0
ARC
  5
587
330
1F
100
AcDbEntity
  8
0
  6
Continuous
 62
     7
370
    25
100
AcDbCircle
 10
102.3876103922
 20
44.647888751
 30
0.0
 40
0.4916366226836502
100
AcDbArc
 50
178.0330644561
 51
270.0
  0
ARC
  5
588
330
1F
100
AcDbEntity
  8
0
  6
Continuous
 62
     7
370
    25
100
AcDbCircle
 10
100.4901399842
 20
44.142444378
 30
0.0
 40
1.500000000000075
100
AcDbArc
 50
20.378020432
 51
178.1897241211
  0
ARC
  5
589
330
1F
100
AcDbEntity
  8
0
  6
Continuous
 62
     7
370
    25
100
AcDbCircle
 10
93.2947348401
 20
32.6473368151
 30
0.0
 40
0.2612921252318475
100
AcDbArc
 50
41.5962374432
 51
221.5962374432
  0
ARC
  5
58A
330
1F
100
AcDbEntity
  8
0
  6
Continuous
 62
     7
370
    25
100
AcDbCircle
 10
94.542759237
 20
29.7749032493
 30
0.0
 40
0.2386052657765503
100
AcDbArc
 50
64.0962374432
 51
244.0962374432
  0
ARC
  5
58B
330
1F
100
AcDbEntity
  8
0
  6
Continuous
 62
     7
370
    25
100
AcDbCircle
 10
96.8313294409
 20
28.6634475369
 30
0.0
 40
0.2386052657765537
100
AcDbArc
 50
244.0962374432
 51
19.0962374432
  0
ARC
  5
58C
330
1F
100
AcDbEntity
  8
0
  6
Continuous
 62
     7
370
    25
100
AcDbCircle
 10
95.9989838017
 20
31.0676289184
 30
0.0
 40
0.2386052657765733
100
AcDbArc
 50
19.0962374432
 51
199.0962374432
  0
ARC
  5
58D
330
1F
100
AcDbEntity
  8
0
  6
Continuous
 62
     7
370
    25
100
AcDbCircle
 10
89.9987834313
 20
29.7749032493
 30
0.0
 40
0.2386052657765602
100
AcDbArc
 50
64.0962374432
 51
244.0962374432
  0
ARC
  5
58E
330
1F
100
AcDbEntity
  8
0
  6
Continuous
 62
     7
370
    25
100
AcDbCircle
 10
92.2873536351
 20
28.6634475369
 30
0.0
 40
0.2386052657765469
100
AcDbArc
 50
244.0962374432
 51
19.0962374432
  0
ARC
  5
58F
330
1F
100
AcDbEntity
  8
0
  6
Continuous
 62
     7
370
    25
100
AcDbCircle
 10
91.455007996
 20
31.0676289184
 30
0.0
 40
0.2386052657765464
100
AcDbArc
 50
19.0962374432
 51
199.0962374432
  0
ARC
  5
590
330
1F
100
AcDbEntity
  8
0
  6
Continuous
 62
     7
370
    25
100
AcDbCircle
 10
88.7507590343
 20
32.6473368151
 30
0.0
 40
0.2612921252318651
100
AcDbArc
 50
41.5962374432
 51
221.5962374432
  0
ARC
  5
591
330
1F
100
AcDbEntity
  8
0
  6
Continuous
 62
     7
370
    25
100
AcDbCircle
 10
-98.0
 20
-98.0
 30
0.0
 40
1.999999999999986
100
AcDbArc
 50
180.0
 51
270.0
  0
ARC
  5
592
330
1F
100
AcDbEntity
  8
0
  6
Continuous
 62
     7
370
    25
100
AcDbCircle
 10
-98.0
 20
-60.5
 30
0.0
 40
2.000000000000021
100
AcDbArc
 50
90.0
 51
180.0
  0
ARC
  5
593
330
1F
100
AcDbEntity
  8
0
  6
Continuous
 62
     7
370
    25
100
AcDbCircle
 10
-39.5
 20
-56.5
 30
0.0
 40
1.999999999999986
100
AcDbArc
 50
270.0
 51
0.0
  0
ARC
  5
594
330
1F
100
AcDbEntity
  8
0
  6
Continuous
 62
     7
370
    25
100
AcDbCircle
 10
-39.5
 20
56.5
 30
0.0
 40
1.999999999999986
100
AcDbArc
 50
0.0
 51
90.0
  0
ARC
  5
595
330
1F
100
AcDbEntity
  8
0
  6
Continuous
 62
     7
370
    25
100
AcDbCircle
 10
-98.0
 20
60.5
 30
0.0
 40
2.000000000000021
100
AcDbArc
 50
180.0
 51
270.0
  0
ARC
  5
596
330
1F
100
AcDbEntity
  8
0
  6
Continuous
 62
     7
370
    25
100
AcDbCircle
 10
-98.0
 20
98.0
 30
0.0
 40
2.0
100
AcDbArc
 50
90.0
 51
180.0
  0
ARC
  5
597
330
1F
100
AcDbEntity
  8
0
  6
Continuous
 62
     7
370
    25
100
AcDbCircle
 10
88.9461641784
 20
44.2303913954
 30
0.0
 40
1.250000000000012
100
AcDbArc
 50
203.5781784782
 51
156.4218215218
  0
ARC
  5
598
330
1F
100
AcDbEntity
  8
0
  6
Continuous
 62
     7
370
    25
100
AcDbCircle
 10
77.1345341869
 20
56.9064407045
 30
0.0
 40
1.249999999999992
100
AcDbArc
 50
293.5781784782
 51
246.4218215218
  0
ARC
  5
599
330
1F
100
AcDbEntity
  8
0
  6
Continuous
 62
     7
370
    25
100
AcDbCircle
 10
71.0294364363
 20
44.9964959122
 30
0.0
 40
1.249999999999999
100
AcDbArc
 50
113.5781784782
 51
66.4218215218
  0
ARC
  5
59A
330
1F
100
AcDbEntity
  8
0
  6
Continuous
 62
     7
370
    25
100
AcDbCircle
 10
71.0294364363
 20
56.9064407045
 30
0.0
 40
1.249999999999992
100
AcDbArc
 50
293.5781784782
 51
246.4218215218
  0
ARC
  5
59B
330
1F
100
AcDbEntity
  8
0
  6
Continuous
 62
     7
370
    25
100
AcDbCircle
 10
96.565054045
 20
36.3437061794
 30
0.0
 40
1.250000000000009
100
AcDbArc
 50
23.5781784782
 51
336.4218215218
  0
ARC
  5
59C
330
1F
100
AcDbEntity
  8
0
  6
Continuous
 62
     7
370
    25
100
AcDbCircle
 10
102.2358045425
 20
36.3437061794
 30
0.0
 40
1.24999999999999
100
AcDbArc
 50
203.5781784782
 51
156.4218215218
  0
ARC
  5
59D
330
1F
100
AcDbEntity
  8
0
  6
Continuous
 62
     7
370
    25
100
AcDbCircle
 10
116.6477217957
 20
36.3437061794
 30
0.0
 40
1.250000000000008
100
AcDbArc
 50
203.5781784782
 51
156.4218215218
  0
ARC
  5
59E
330
1F
100
AcDbEntity
  8
0
  6
Continuous
 62
     7
370
    25
100
AcDbCircle
 10
112.5009437673
 20
36.3437061794
 30
0.0
 40
1.249999999999992
100
AcDbArc
 50
23.5781784782
 51
336.4218215218
  0
ARC
  5
59F
330
1F
100
AcDbEntity
  8
0
  6
Continuous
 62
     7
370
    25
100
AcDbCircle
 10
71.0294364363
 20
35.6620639933
 30
0.0
 40
1.25
100
AcDbArc
 50
293.5781784782
 51
246.4218215218
  0
ARC
  5
5A0
330
1F
100
AcDbEntity
  8
0
  6
Continuous
 62
     7
370
    25
100
AcDbCircle
 10
71.0294364363
 20
23.7787791394
 30
0.0
 40
1.250000000000002
100
AcDbArc
 50
113.5781784782
 51
66.4218215218
  0
ARC
  5
5A1
330
1F
100
AcDbEntity
  8
0
  6
Continuous
 62
     7
370
    25
100
AcDbCircle
 10
116.646701735
 20
44.2303913954
 30
0.0
 40
1.249999999999999
100
AcDbArc
 50
203.5781784782
 51
156.4218215218
  0
ARC
  5
5A2
330
1F
100
AcDbEntity
  8
0
  6
Continuous
 62
     7
370
    25
100
AcDbCircle
 10
105.3550794527
 20
44.2303913954
 30
0.0
 40
1.249999999999999
100
AcDbArc
 50
23.5781784782
 51
336.4218215218
  0
ARC
  5
5A3
330
1F
100
AcDbEntity
  8
0
  6
Continuous
 62
     7
370
    25
100
AcDbCircle
 10
100.4901399842
 20
-3.0360362626
 30
0.0
 40
17.16260894515471
100
AcDbArc
 50
140.386165348
 51
144.1879716409
  0
ARC
  5
5A4
330
1F
100
AcDbEntity
  8
0
  6
Continuous
 62
     7
370
    25
100
AcDbCircle
 10
100.4901399842
 20
-3.0360362626
 30
0.0
 40
17.1626089451603
100
AcDbArc
 50
146.6687350736
 51
152.8293300749
  0
ARC
  5
5A5
330
1F
100
AcDbEntity
  8
0
  6
Continuous
 62
     7
370
    25
100
AcDbCircle
 10
100.4901399842
 20
-3.0360362626
 30
0.0
 40
17.16260894516105
100
AcDbArc
 50
154.6662321849
 51
157.3192099914
  0
ARC
  5
5A6
330
1F
100
AcDbEntity
  8
0
  6
Continuous
 62
     7
370
    25
100
AcDbCircle
 10
100.4901399842
 20
-3.0360362626
 30
0.0
 40
17.16260894515196
100
AcDbArc
 50
159.1168273807
 51
165.0599678631
  0
ARC
  5
5A7
330
1F
100
AcDbEntity
  8
0
  6
Continuous
 62
     7
370
    25
100
AcDbCircle
 10
100.4901399842
 20
-3.0360362626
 30
0.0
 40
17.16260894516372
100
AcDbArc
 50
166.7809339783
 51
172.3761499748
  0
ARC
  5
5A8
330
1F
100
AcDbEntity
  8
0
  6
Continuous
 62
     7
370
    25
100
AcDbCircle
 10
100.4901399842
 20
-3.0360362626
 30
0.0
 40
17.16260894515866
100
AcDbArc
 50
174.0571808855
 51
179.1653686496
  0
ARC
  5
5A9
330
1F
100
AcDbEntity
  8
0
  6
Continuous
 62
     7
370
    25
100
AcDbCircle
 10
100.4901399842
 20
-3.0360362626
 30
0.0
 40
17.16260894516676
100
AcDbArc
 50
180.8346313504
 51
185.1787749771
  0
ARC
  5
5AA
330
1F
100
AcDbEntity
  8
0
  6
Continuous
 62
     7
370
    25
100
AcDbCircle
 10
100.4901399842
 20
-3.0360362626
 30
0.0
 40
17.1626089451624
100
AcDbArc
 50
200.3344544477
 51
206.6261685934
  0
ARC
  5
5AB
330
1F
100
AcDbEntity
  8
0
  6
Continuous
 62
     7
370
    25
100
AcDbCircle
 10
100.4901399842
 20
-3.0360362626
 30
0.0
 40
17.16260894516988
100
AcDbArc
 50
208.5092430544
 51
211.3690377703
  0
ARC
  5
5AC
330
1F
100
AcDbEntity
  8
0
  6
Continuous
 62
     7
370
    25
100
AcDbCircle
 10
100.4901399842
 20
-3.0360362626
 30
0.0
 40
17.16260894515908
100
AcDbArc
 50
213.3451586222
 51
221.8863568465
  0
ARC
  5
5AD
330
1F
100
AcDbEntity
  8
0
  6
Continuous
 62
     7
370
    25
100
AcDbCircle
 10
100.490139984
 20
-3.0360362628
 30
0.0
 40
17.16260894492624
100
AcDbArc
 50
224.5424052631
 51
225.6604412913
  0
ARC
  5
5AE
330
1F
100
AcDbEntity
  8
0
  6
Continuous
 62
     7
370
    25
100
AcDbCircle
 10
100.4901399842
 20
-3.0360362626
 30
0.0
 40
17.16260894515883
100
AcDbArc
 50
237.077843926
 51
130.0065079673
  0
ARC
  5
5AF
330
1F
100
AcDbEntity
  8
0
  6
Continuous
 62
     7
370
    25
100
AcDbCircle
 10
100.4901399842
 20
-3.0360362627
 30
0.0
 40
17.16260894516879
100
AcDbArc
 50
132.0870294571
 51
134.3588897679
  0
ARC
  5
5B0
330
1F
100
AcDbEntity
  8
0
  6
Continuous
 62
     7
370
    25
100
AcDbCircle
 10
110.7957398755
 20
-54.5189268021
 30
0.0
 40
1.126951093941571
100
AcDbArc
 50
270.0
 51
0.0
  0
ARC
  5
5B1
330
1F
100
AcDbEntity
  8
0
  6
Continuous
 62
     7
370
    25
100
AcDbCircle
 10
73.2697200193
 20
-54.746855717
 30
0.0
 40
0.8990221789577362
100
AcDbArc
 50
180.0
 51
270.0
  0
ARC
  5
5B2
330
1F
100
AcDbEntity
  8
0
  6
Continuous
 62
     7
370
    25
100
AcDbCircle
 10
76.563806245
 20
-49.8304364293
 30
0.0
 40
1.781905977530833
100
AcDbArc
 50
180.0
 51
270.0
  0
ARC
  5
5B3
330
1F
100
AcDbEntity
  8
0
  6
Continuous
 62
     7
370
    25
100
AcDbCircle
 10
87.7425944407
 20
-49.572153811
 30
0.0
 40
2.040188595855497
100
AcDbArc
 50
270.0
 51
0.0
  0
ARC
  5
5B4
330
1F
100
AcDbEntity
  8
0
  6
Continuous
 62
     7
370
    25
100
AcDbCircle
 10
94.0523993334
 20
-49.7750739093
 30
0.0
 40
1.837268497533387
100
AcDbArc
 50
180.0
 51
270.0
  0
ARC
  5
5B5
330
1F
100
AcDbEntity
  8
0
  6
Continuous
 62
     7
370
    25
100
AcDbCircle
 10
107.6159956776
 20
-49.8975098263
 30
0.0
 40
1.714832580586943
100
AcDbArc
 50
270.0
 51
0.0
  0
ARC
  5
5B6
330
1F
100
AcDbEntity
  8
0
  6
Continuous
 62
     7
370
    25
100
AcDbCircle
 10
113.5472776049
 20
-28.3606955205
 30
0.0
 40
0.6245866355042153
100
AcDbArc
 50
0.0
 51
180.0
  0
ARC
  5
5B7
330
1F
100
AcDbEntity
  8
0
  6
Continuous
 62
     7
370
    25
100
AcDbCircle
 10
107.8421716079
 20
-28.3606955205
 30
0.0
 40
0.4886566502745069
100
AcDbArc
 50
360.0
 51
180.0
  0
ARC
  5
5B8
330
1F
100
AcDbEntity
  8
0
  6
Continuous
 62
     7
370
    25
100
AcDbCircle
 10
93.858730727
 20
-28.3606955205
 30
0.0
 40
0.6435998911288436
100
AcDbArc
 50
0.0
 51
180.0
  0
ARC
  5
5B9
330
1F
100
AcDbEntity
  8
0
  6
Continuous
 62
     7
370
    25
100
AcDbCircle
 10
100.4901399842
 20
-3.0360362626
 30
0.0
 40
17.16260894515339
100
AcDbArc
 50
228.1027377568
 51
235.3267987963
  0
ARC
  5
5BA
330
1F
100
AcDbEntity
  8
0
  6
Continuous
 62
     7
370
    25
100
AcDbCircle
 10
88.2800839177
 20
-28.3606955205
 30
0.0
 40
0.5026991188827026
100
AcDbArc
 50
0.0
 51
180.0
  0
ARC
  5
5BB
330
1F
100
AcDbEntity
  8
0
  6
Continuous
 62
     7
370
    25
100
AcDbCircle
 10
100.4901399842
 20
-3.0360362626
 30
0.0
 40
17.1626089451554
100
AcDbArc
 50
136.6981847054
 51
138.1838078926
  0
ARC
  5
5BC
330
1F
100
AcDbEntity
  8
0
  6
Continuous
 62
     7
370
    25
100
AcDbCircle
 10
100.4901399841
 20
-3.0360362627
 30
0.0
 40
17.16260894505515
100
AcDbArc
 50
197.0715109975
 51
198.5515971739
  0
ARC
  5
5BD
330
1F
100
AcDbEntity
  8
0
  6
Continuous
 62
     7
370
    25
100
AcDbCircle
 10
100.4901399842
 20
-3.0360362626
 30
0.0
 40
17.16260894517413
100
AcDbArc
 50
189.8603657729
 51
195.3810825904
  0
ARC
  5
5BE
330
1F
100
AcDbEntity
  8
0
  6
Continuous
 62
     7
370
    25
100
AcDbCircle
 10
100.4901399841
 20
-3.0360362626
 30
0.0
 40
17.1626089451222
100
AcDbArc
 50
186.9602906077
 51
188.1702224818
  0
ARC
  5
5BF
330
1F
100
AcDbEntity
  8
0
  6
Continuous
 62
     7
370
    25
100
AcDbCircle
 10
76.3151247754
 20
-28.3606955205
 30
0.0
 40
0.5332245079520987
100
AcDbArc
 50
360.0
 51
180.0
  0
ARC
  5
5C0
330
1F
100
AcDbEntity
  8
0
  6
Continuous
 62
     7
370
    25
100
AcDbCircle
 10
70.7457926716
 20
-28.3606955205
 30
0.0
 40
0.5584251057070446
100
AcDbArc
 50
0.0
 51
180.0
  0
ENDSEC
  0
SECTION
  2
OBJECTS
  0
DICTIONARY
  5
C
330
0
100
AcDbDictionary
281
     1
  3
ACAD_GROUP
350
D
  3
ACAD_LAYOUT
350
1A
  3
ACAD_MLINESTYLE
350
17
  3
ACAD_PLOTSETTINGS
350
19
  3
ACAD_PLOTSTYLENAME
350
E
  3
ACAD_SCALELIST
350
47
  0
DICTIONARY
  5
D
102
{ACAD_REACTORS
330
C
102
}
330
C
100
AcDbDictionary
281
     1
  0
DICTIONARY
  5
1A
102
{ACAD_REACTORS
330
C
102
}
330
C
100
AcDbDictionary
281
     1
  3
Layout1
350
1E
  3
Layout2
350
26
  3
Model
350
22
  0
DICTIONARY
  5
17
102
{ACAD_REACTORS
330
C
102
}
330
C
100
AcDbDictionary
281
     1
  3
Standard
350
18
  0
DICTIONARY
  5
19
102
{ACAD_REACTORS
330
C
102
}
330
C
100
AcDbDictionary
281
     1
  0
ACDBDICTIONARYWDFLT
  5
E
102
{ACAD_REACTORS
330
C
102
}
330
C
100
AcDbDictionary
281
     1
  3
Normal
350
F
100
AcDbDictionaryWithDefault
340
F
  0
DICTIONARY
  5
47
102
{ACAD_REACTORS
330
C
102
}
330
C
100
AcDbDictionary
281
     1
  3
A0
350
48
  3
A1
350
49
  3
A2
350
4A
  3
A3
350
4B
  3
A4
350
4C
  3
A5
350
4D
  3
A6
350
4E
  3
A7
350
4F
  3
A8
350
50
  3
A9
350
51
  3
B0
350
52
  3
B1
350
53
  3
B2
350
54
  3
B3
350
55
  3
B4
350
56
  3
B5
350
57
  3
B6
350
58
  3
B7
350
59
  3
B8
350
5A
  3
B9
350
5B
  3
C0
350
5C
  3
C1
350
5D
  3
C2
350
5E
  3
C3
350
5F
  3
C4
350
60
  3
C5
350
61
  3
C6
350
62
  3
C7
350
63
  3
C8
350
64
  3
C9
350
65
  3
D0
350
66
  3
D1
350
67
  3
D2
350
68
  0
LAYOUT
  5
1E
102
{ACAD_REACTORS
330
1A
102
}
330
1A
100
AcDbPlotSettings
  1

  2
none_device
  4

  6

 40
0.0
 41
0.0
 42
0.0
 43
0.0
 44
0.0
 45
0.0
 46
0.0
 47
0.0
 48
0.0
 49
0.0
140
0.0
141
0.0
142
1.0
143
1.0
 70
   688
 72
     1
 73
     0
 74
     5
  7

 75
    16
147
1.0
148
0.0
149
0.0
100
AcDbLayout
  1
Layout1
 70
     1
 71
     1
 10
0.0
 20
0.0
 11
420.0
 21
297.0
 12
0.0
 22
0.0
 32
0.0
 14
1.0000000000E+20
 24
1.0000000000E+20
 34
1.0000000000E+20
 15
-1.0000000000E+20
 25
-1.0000000000E+20
 35
-1.0000000000E+20
146
0.0
 13
0.0
 23
0.0
 33
0.0
 16
1.0
 26
0.0
 36
0.0
 17
0.0
 27
1.0
 37
0.0
 76
     0
330
1B
  0
LAYOUT
  5
26
102
{ACAD_REACTORS
330
1A
102
}
330
1A
100
AcDbPlotSettings
  1

  2
none_device
  4

  6

 40
0.0
 41
0.0
 42
0.0
 43
0.0
 44
0.0
 45
0.0
 46
0.0
 47
0.0
 48
0.0
 49
0.0
140
0.0
141
0.0
142
1.0
143
1.0
 70
   688
 72
     1
 73
     0
 74
     5
  7

 75
    16
147
1.0
148
0.0
149
0.0
100
AcDbLayout
  1
Layout2
 70
     1
 71
     2
 10
0.0
 20
0.0
 11
0.0
 21
0.0
 12
0.0
 22
0.0
 32
0.0
 14
0.0
 24
0.0
 34
0.0
 15
0.0
 25
0.0
 35
0.0
146
0.0
 13
0.0
 23
0.0
 33
0.0
 16
1.0
 26
0.0
 36
0.0
 17
0.0
 27
1.0
 37
0.0
 76
     0
330
23
  0
LAYOUT
  5
22
102
{ACAD_REACTORS
330
1A
102
}
330
1A
100
AcDbPlotSettings
  1

  2
none_device
  4
ANSI_A_(11.00_x_8.50_Inches)
  6

 40
6.35
 41
19.05
 42
6.35000508
 43
19.05000254
 44
279.4
 45
215.9
 46
119.99118496
 47
88.89999873
 48
0.0
 49
0.0
140
0.0
141
0.0
142
0.042075
143
1.0
 70
  1696
 72
     0
 73
     0
 74
     0
  7

 75
     0
147
0.0179189148
148
-1300.4909072572
149
0.0
100
AcDbLayout
  1
Model
 70
     1
 71
     0
 10
0.0
 20
0.0
 11
420.0
 21
297.0
 12
0.0
 22
0.0
 32
0.0
 14
-100.0
 24
-100.0
 34
0.0
 15
125.0
 25
100.0
 35
0.0
146
0.0
 13
0.0
 23
0.0
 33
0.0
 16
1.0
 26
0.0
 36
0.0
 17
0.0
 27
1.0
 37
0.0
 76
     0
330
1F
331
29
  0
MLINESTYLE
  5
18
102
{ACAD_REACTORS
330
17
102
}
330
17
100
AcDbMlineStyle
  2
Standard
 70
     0
  3

 62
   256
 51
90.0
 52
90.0
 71
     2
 49
0.5
 62
   256
  6
BYLAYER
 49
-0.5
 62
   256
  6
BYLAYER
  0
ACDBPLACEHOLDER
  5
F
102
{ACAD_REACTORS
330
E
102
}
330
E
  0
SCALE
  5
48
102
{ACAD_REACTORS
330
47
102
}
330
47
100
AcDbScale
 70
     0
300
1:1
140
1.0
141
1.0
290
     1
  0
SCALE
  5
49
102
{ACAD_REACTORS
330
47
102
}
330
47
100
AcDbScale
 70
     0
300
1:2
140
1.0
141
2.0
290
     0
  0
SCALE
  5
4A
102
{ACAD_REACTORS
330
47
102
}
330
47
100
AcDbScale
 70
     0
300
1:4
140
1.0
141
4.0
290
     0
  0
SCALE
  5
4B
102
{ACAD_REACTORS
330
47
102
}
330
47
100
AcDbScale
 70
     0
300
1:5
140
1.0
141
5.0
290
     0
  0
SCALE
  5
4C
102
{ACAD_REACTORS
330
47
102
}
330
47
100
AcDbScale
 70
     0
300
1:8
140
1.0
141
8.0
290
     0
  0
SCALE
  5
4D
102
{ACAD_REACTORS
330
47
102
}
330
47
100
AcDbScale
 70
     0
300
1:10
140
1.0
141
10.0
290
     0
  0
SCALE
  5
4E
102
{ACAD_REACTORS
330
47
102
}
330
47
100
AcDbScale
 70
     0
300
1:16
140
1.0
141
16.0
290
     0
  0
SCALE
  5
4F
102
{ACAD_REACTORS
330
47
102
}
330
47
100
AcDbScale
 70
     0
300
1:20
140
1.0
141
20.0
290
     0
  0
SCALE
  5
50
102
{ACAD_REACTORS
330
47
102
}
330
47
100
AcDbScale
 70
     0
300
1:30
140
1.0
141
30.0
290
     0
  0
SCALE
  5
51
102
{ACAD_REACTORS
330
47
102
}
330
47
100
AcDbScale
 70
     0
300
1:40
140
1.0
141
40.0
290
     0
  0
SCALE
  5
52
102
{ACAD_REACTORS
330
47
102
}
330
47
100
AcDbScale
 70
     0
300
1:50
140
1.0
141
50.0
290
     0
  0
SCALE
  5
53
102
{ACAD_REACTORS
330
47
102
}
330
47
100
AcDbScale
 70
     0
300
1:100
140
1.0
141
100.0
290
     0
  0
SCALE
  5
54
102
{ACAD_REACTORS
330
47
102
}
330
47
100
AcDbScale
 70
     0
300
2:1
140
2.0
141
1.0
290
     0
  0
SCALE
  5
55
102
{ACAD_REACTORS
330
47
102
}
330
47
100
AcDbScale
 70
     0
300
4:1
140
4.0
141
1.0
290
     0
  0
SCALE
  5
56
102
{ACAD_REACTORS
330
47
102
}
330
47
100
AcDbScale
 70
     0
300
8:1
140
8.0
141
1.0
290
     0
  0
SCALE
  5
57
102
{ACAD_REACTORS
330
47
102
}
330
47
100
AcDbScale
 70
     0
300
10:1
140
10.0
141
1.0
290
     0
  0
SCALE
  5
58
102
{ACAD_REACTORS
330
47
102
}
330
47
100
AcDbScale
 70
     0
300
100:1
140
100.0
141
1.0
290
     0
  0
SCALE
  5
59
102
{ACAD_REACTORS
330
47
102
}
330
47
100
AcDbScale
 70
     0
300
1/128" = 1'-0"
140
0.0078125
141
12.0
290
     0
  0
SCALE
  5
5A
102
{ACAD_REACTORS
330
47
102
}
330
47
100
AcDbScale
 70
     0
300
1/64" = 1'-0"
140
0.015625
141
12.0
290
     0
  0
SCALE
  5
5B
102
{ACAD_REACTORS
330
47
102
}
330
47
100
AcDbScale
 70
     0
300
1/32" = 1'-0"
140
0.03125
141
12.0
290
     0
  0
SCALE
  5
5C
102
{ACAD_REACTORS
330
47
102
}
330
47
100
AcDbScale
 70
     0
300
1/16" = 1'-0"
140
0.0625
141
12.0
290
     0
  0
SCALE
  5
5D
102
{ACAD_REACTORS
330
47
102
}
330
47
100
AcDbScale
 70
     0
300
3/32" = 1'-0"
140
0.09375
141
12.0
290
     0
  0
SCALE
  5
5E
102
{ACAD_REACTORS
330
47
102
}
330
47
100
AcDbScale
 70
     0
300
1/8" = 1'-0"
140
0.125
141
12.0
290
     0
  0
SCALE
  5
5F
102
{ACAD_REACTORS
330
47
102
}
330
47
100
AcDbScale
 70
     0
300
3/16" = 1'-0"
140
0.1875
141
12.0
290
     0
  0
SCALE
  5
60
102
{ACAD_REACTORS
330
47
102
}
330
47
100
AcDbScale
 70
     0
300
1/4" = 1'-0"
140
0.25
141
12.0
290
     0
  0
SCALE
  5
61
102
{ACAD_REACTORS
330
47
102
}
330
47
100
AcDbScale
 70
     0
300
3/8" = 1'-0"
140
0.375
141
12.0
290
     0
  0
SCALE
  5
62
102
{ACAD_REACTORS
330
47
102
}
330
47
100
AcDbScale
 70
     0
300
1/2" = 1'-0"
140
0.5
141
12.0
290
     0
  0
SCALE
  5
63
102
{ACAD_REACTORS
330
47
102
}
330
47
100
AcDbScale
 70
     0
300
3/4" = 1'-0"
140
0.75
141
12.0
290
     0
  0
SCALE
  5
64
102
{ACAD_REACTORS
330
47
102
}
330
47
100
AcDbScale
 70
     0
300
1" = 1'-0"
140
1.0
141
12.0
290
     0
  0
SCALE
  5
65
102
{ACAD_REACTORS
330
47
102
}
330
47
100
AcDbScale
 70
     0
300
1-1/2" = 1'-0"
140
1.5
141
12.0
290
     0
  0
SCALE
  5
66
102
{ACAD_REACTORS
330
47
102
}
330
47
100
AcDbScale
 70
     0
300
3" = 1'-0"
140
3.0
141
12.0
290
     0
  0
SCALE
  5
67
102
{ACAD_REACTORS
330
47
102
}
330
47
100
AcDbScale
 70
     0
300
6" = 1'-0"
140
6.0
141
12.0
290
     0
  0
SCALE
  5
68
102
{ACAD_REACTORS
330
47
102
}
330
47
100
AcDbScale
 70
     0
300
1'-0" = 1'-0"
140
12.0
141
12.0
290
     0
  0
ENDSEC
  0
EOF
