  0
SECTION
  2
HEADER
  9
$ACADVER
  1
AC1015
  9
$ACADMAINTVER
 70
     6
  9
$DWGCODEPAGE
  3
ANSI_1252
  9
$INSBASE
 10
0.0
 20
0.0
 30
0.0
  9
$EXTMIN
 10
-38.68
 20
-17.5
 30
0.0
  9
$EXTMAX
 10
38.68
 20
17.5
 30
0.0
  9
$LIMMIN
 10
0.0
 20
0.0
  9
$LIMMAX
 10
420.0
 20
297.0
  9
$ORTHOMODE
 70
     0
  9
$REGENMODE
 70
     1
  9
$FILLMODE
 70
     1
  9
$QTEXTMODE
 70
     0
  9
$MIRRTEXT
 70
     1
  9
$LTSCALE
 40
1.0
  9
$ATTMODE
 70
     1
  9
$TEXTSIZE
 40
3.5
  9
$TRACEWID
 40
1.0
  9
$TEXTSTYLE
  7
Standard
  9
$CLAYER
  8
0
  9
$CELTYPE
  6
ByLayer
  9
$CECOLOR
 62
   256
  9
$CELTSCALE
 40
1.0
  9
$DISPSILH
 70
     0
  9
$DIMSCALE
 40
1.0
  9
$DIMASZ
 40
3.302
  9
$DIMEXO
 40
1.0
  9
$DIMDLI
 40
3.75
  9
$DIMRND
 40
0.0
  9
$DIMDLE
 40
0.0
  9
$DIMEXE
 40
1.0
  9
$DIMTP
 40
0.0
  9
$DIMTM
 40
0.0
  9
$DIMTXT
 40
3.5
  9
$DIMCEN
 40
2.5
  9
$DIMTSZ
 40
0.0
  9
$DIMTOL
 70
     0
  9
$DIMLIM
 70
     0
  9
$DIMTIH
 70
     1
  9
$DIMTOH
 70
     1
  9
$DIMSE1
 70
     0
  9
$DIMSE2
 70
     0
  9
$DIMTAD
 70
     1
  9
$DIMZIN
 70
     1
  9
$DIMBLK
  1

  9
$DIMASO
 70
     1
  9
$DIMSHO
 70
     1
  9
$DIMPOST
  1

  9
$DIMAPOST
  1

  9
$DIMALT
 70
     0
  9
$DIMALTD
 70
     3
  9
$DIMALTF
 40
0.0393700787
  9
$DIMLFAC
 40
1.0
  9
$DIMTOFL
 70
     1
  9
$DIMTVP
 40
0.0
  9
$DIMTIX
 70
     0
  9
$DIMSOXD
 70
     0
  9
$DIMSAH
 70
     0
  9
$DIMBLK1
  1

  9
$DIMBLK2
  1

  9
$DIMSTYLE
  2
ISO-25
  9
$DIMCLRD
 70
     0
  9
$DIMCLRE
 70
     0
  9
$DIMCLRT
 70
     0
  9
$DIMTFAC
 40
1.0
  9
$DIMGAP
 40
1.524
  9
$DIMJUST
 70
     0
  9
$DIMSD1
 70
     0
  9
$DIMSD2
 70
     0
  9
$DIMTOLJ
 70
     0
  9
$DIMTZIN
 70
     1
  9
$DIMALTZ
 70
     0
  9
$DIMALTTZ
 70
     0
  9
$DIMUPT
 70
     0
  9
$DIMDEC
 70
     2
  9
$DIMTDEC
 70
     2
  9
$DIMALTU
 70
     2
  9
$DIMALTTD
 70
     3
  9
$DIMTXSTY
  7
Standard
  9
$DIMAUNIT
 70
     0
  9
$DIMADEC
 70
     2
  9
$DIMALTRND
 40
0.0
  9
$DIMAZIN
 70
     0
  9
$DIMDSEP
 70
    44
  9
$DIMATFIT
 70
     3
  9
$DIMFRAC
 70
     0
  9
$DIMLDRBLK
  1

  9
$DIMLUNIT
 70
     2
  9
$DIMLWD
 70
    -2
  9
$DIMLWE
 70
    -2
  9
$DIMTMOVE
 70
     0
  9
$LUNITS
 70
     2
  9
$LUPREC
 70
     2
  9
$SKETCHINC
 40
1.0
  9
$FILLETRAD
 40
10.0
  9
$AUNITS
 70
     0
  9
$AUPREC
 70
     2
  9
$MENU
  1
.
  9
$ELEVATION
 40
0.0
  9
$PELEVATION
 40
0.0
  9
$THICKNESS
 40
0.0
  9
$LIMCHECK
 70
     0
  9
$CHAMFERA
 40
0.0
  9
$CHAMFERB
 40
0.0
  9
$CHAMFERC
 40
0.0
  9
$CHAMFERD
 40
0.0
  9
$SKPOLY
 70
     0
  9
$TDCREATE
 40
2458883.942433368
  9
$TDUCREATE
 40
2458883.859100035
  9
$TDUPDATE
 40
2458883.942450474
  9
$TDUUPDATE
 40
2458883.859117141
  9
$TDINDWG
 40
0.0000000116
  9
$TDUSRTIMER
 40
0.0000000116
  9
$USRTIMER
 70
     1
  9
$ANGBASE
 50
0.0
  9
$ANGDIR
 70
     0
  9
$PDMODE
 70
     0
  9
$PDSIZE
 40
-1.0
  9
$PLINEWID
 40
0.0
  9
$SPLFRAME
 70
     0
  9
$SPLINETYPE
 70
     6
  9
$SPLINESEGS
 70
     8
  9
$HANDSEED
  5
AB
  9
$SURFTAB1
 70
     6
  9
$SURFTAB2
 70
     6
  9
$SURFTYPE
 70
     6
  9
$SURFU
 70
     6
  9
$SURFV
 70
     6
  9
$UCSBASE
  2

  9
$UCSNAME
  2

  9
$UCSORG
 10
0.0
 20
0.0
 30
0.0
  9
$UCSXDIR
 10
1.0
 20
0.0
 30
0.0
  9
$UCSYDIR
 10
0.0
 20
1.0
 30
0.0
  9
$UCSORTHOREF
  2

  9
$UCSORTHOVIEW
 70
     0
  9
$UCSORGTOP
 10
0.0
 20
0.0
 30
0.0
  9
$UCSORGBOTTOM
 10
0.0
 20
0.0
 30
0.0
  9
$UCSORGLEFT
 10
0.0
 20
0.0
 30
0.0
  9
$UCSORGRIGHT
 10
0.0
 20
0.0
 30
0.0
  9
$UCSORGFRONT
 10
0.0
 20
0.0
 30
0.0
  9
$UCSORGBACK
 10
0.0
 20
0.0
 30
0.0
  9
$PUCSBASE
  2

  9
$PUCSNAME
  2

  9
$PUCSORG
 10
0.0
 20
0.0
 30
0.0
  9
$PUCSXDIR
 10
1.0
 20
0.0
 30
0.0
  9
$PUCSYDIR
 10
0.0
 20
1.0
 30
0.0
  9
$PUCSORTHOREF
  2

  9
$PUCSORTHOVIEW
 70
     0
  9
$PUCSORGTOP
 10
0.0
 20
0.0
 30
0.0
  9
$PUCSORGBOTTOM
 10
0.0
 20
0.0
 30
0.0
  9
$PUCSORGLEFT
 10
0.0
 20
0.0
 30
0.0
  9
$PUCSORGRIGHT
 10
0.0
 20
0.0
 30
0.0
  9
$PUCSORGFRONT
 10
0.0
 20
0.0
 30
0.0
  9
$PUCSORGBACK
 10
0.0
 20
0.0
 30
0.0
  9
$USERI1
 70
     0
  9
$USERI2
 70
     0
  9
$USERI3
 70
     0
  9
$USERI4
 70
     0
  9
$USERI5
 70
     0
  9
$USERR1
 40
0.0
  9
$USERR2
 40
0.0
  9
$USERR3
 40
0.0
  9
$USERR4
 40
0.0
  9
$USERR5
 40
0.0
  9
$WORLDVIEW
 70
     1
  9
$SHADEDGE
 70
     3
  9
$SHADEDIF
 70
    70
  9
$TILEMODE
 70
     1
  9
$MAXACTVP
 70
    64
  9
$PINSBASE
 10
0.0
 20
0.0
 30
0.0
  9
$PLIMCHECK
 70
     0
  9
$PEXTMIN
 10
1.0000000000E+20
 20
1.0000000000E+20
 30
1.0000000000E+20
  9
$PEXTMAX
 10
-1.0000000000E+20
 20
-1.0000000000E+20
 30
-1.0000000000E+20
  9
$PLIMMIN
 10
0.0
 20
0.0
  9
$PLIMMAX
 10
420.0
 20
297.0
  9
$UNITMODE
 70
     0
  9
$VISRETAIN
 70
     1
  9
$PLINEGEN
 70
     0
  9
$PSLTSCALE
 70
     1
  9
$TREEDEPTH
 70
  3020
  9
$CMLSTYLE
  2
Standard
  9
$CMLJUST
 70
     0
  9
$CMLSCALE
 40
20.0
  9
$PROXYGRAPHICS
 70
     1
  9
$MEASUREMENT
 70
     1
  9
$CELWEIGHT
370
    -1
  9
$ENDCAPS
280
     0
  9
$JOINSTYLE
280
     0
  9
$LWDISPLAY
290
     1
  9
$INSUNITS
 70
     4
  9
$HYPERLINKBASE
  1

  9
$STYLESHEET
  1

  9
$XEDIT
290
     1
  9
$CEPSNTYPE
380
     0
  9
$PSTYLEMODE
290
     1
  9
$FINGERPRINTGUID
  2
{EA8D997D-2C9C-4EAC-BEB9-2886D9505183}
  9
$VERSIONGUID
  2
{FAEB1C32-E019-11D5-929B-00C0DF256EC4}
  9
$EXTNAMES
290
     1
  9
$PSVPSCALE
 40
0.0
  9
$OLESTARTUP
290
     0
  0
ENDSEC
  0
SECTION
  2
CLASSES
  0
CLASS
  1
ACDBDICTIONARYWDFLT
  2
AcDbDictionaryWithDefault
  3
ObjectDBX Classes
 90
        0
280
     0
281
     0
  0
CLASS
  1
VISUALSTYLE
  2
AcDbVisualStyle
  3
ObjectDBX Classes
 90
     4095
280
     0
281
     0
  0
CLASS
  1
MATERIAL
  2
AcDbMaterial
  3
ObjectDBX Classes
 90
     1153
280
     0
281
     0
  0
CLASS
  1
SCALE
  2
AcDbScale
  3
ObjectDBX Classes
 90
     1153
280
     0
281
     0
  0
CLASS
  1
TABLESTYLE
  2
AcDbTableStyle
  3
ObjectDBX Classes
 90
     4095
280
     0
281
     0
  0
CLASS
  1
MLEADERSTYLE
  2
AcDbMLeaderStyle
  3
ACDB_MLEADERSTYLE_CLASS
 90
     4095
280
     0
281
     0
  0
CLASS
  1
SUN
  2
AcDbSun
  3
SCENEOE
 90
     1153
280
     0
281
     0
  0
CLASS
  1
ACDBPLACEHOLDER
  2
AcDbPlaceHolder
  3
ObjectDBX Classes
 90
        0
280
     0
281
     0
  0
CLASS
  1
LAYOUT
  2
AcDbLayout
  3
ObjectDBX Classes
 90
        0
280
     0
281
     0
  0
ENDSEC
  0
SECTION
  2
TABLES
  0
TABLE
  2
VPORT
  5
8
330
0
100
AcDbSymbolTable
 70
     1
  0
VPORT
  5
29
330
8
100
AcDbSymbolTableRecord
100
AcDbViewportTableRecord
  2
*Active
 70
     0
 10
0.0
 20
0.0
 11
1.0
 21
1.0
 12
0.0
 22
0.0
 13
0.0
 23
0.0
 14
10.0
 24
10.0
 15
10.0
 25
10.0
 16
0.0
 26
0.0
 36
1.0
 17
0.0
 27
0.0
 37
0.0
 40
35.7
 41
2.2102857143
 42
50.0
 43
0.0
 44
0.0
 50
0.0
 51
0.0
 71
     0
 72
   100
 73
     1
 74
     3
 75
     0
 76
     0
 77
     0
 78
     0
281
     0
 65
     1
110
0.0
120
0.0
130
0.0
111
1.0
121
0.0
131
0.0
112
0.0
122
1.0
132
0.0
 79
     0
146
0.0
  0
ENDTAB
  0
TABLE
  2
LTYPE
  5
5
330
0
100
AcDbSymbolTable
 70
     6
  0
LTYPE
  5
14
330
5
100
AcDbSymbolTableRecord
100
AcDbLinetypeTableRecord
  2
ByBlock
 70
     0
  3

 72
    65
 73
     0
 40
0.0
  0
LTYPE
  5
15
330
5
100
AcDbSymbolTableRecord
100
AcDbLinetypeTableRecord
  2
ByLayer
 70
     0
  3

 72
    65
 73
     0
 40
0.0
  0
LTYPE
  5
16
330
5
100
AcDbSymbolTableRecord
100
AcDbLinetypeTableRecord
  2
Continuous
 70
     0
  3
Solid line
 72
    65
 73
     0
 40
0.0
  0
LTYPE
  5
6E
330
5
100
AcDbSymbolTableRecord
100
AcDbLinetypeTableRecord
  2
HIDDEN
 70
     0
  3
Hidden __ __ __ __ __ __ __ __ __ __ __ __ __ __
 72
    65
 73
     2
 40
1.905
 49
1.27
 74
     0
 49
-0.635
 74
     0
  0
LTYPE
  5
6F
330
5
100
AcDbSymbolTableRecord
100
AcDbLinetypeTableRecord
  2
PHANTOM
 70
     0
  3
Phantom ______  __  __  ______  __  __  ______
 72
    65
 73
     6
 40
12.7
 49
6.35
 74
     0
 49
-1.27
 74
     0
 49
1.27
 74
     0
 49
-1.27
 74
     0
 49
1.27
 74
     0
 49
-1.27
 74
     0
  0
LTYPE
  5
70
330
5
100
AcDbSymbolTableRecord
100
AcDbLinetypeTableRecord
  2
CENTER
 70
     0
  3
Center ____ _ ____ _ ____ _ ____ _ ____ _ ____
 72
    65
 73
     4
 40
10.16
 49
6.35
 74
     0
 49
-1.27
 74
     0
 49
1.27
 74
     0
 49
-1.27
 74
     0
  0
LTYPE
  5
71
330
5
100
AcDbSymbolTableRecord
100
AcDbLinetypeTableRecord
  2
CENTERX2
 70
     0
  3
Center (2x) ________  __  ________  __  _____
 72
    65
 73
     4
 40
20.32
 49
12.7
 74
     0
 49
-2.54
 74
     0
 49
2.54
 74
     0
 49
-2.54
 74
     0
  0
LTYPE
  5
72
330
5
100
AcDbSymbolTableRecord
100
AcDbLinetypeTableRecord
  2
DOT2
 70
     0
  3
Dot (.5x) ........................................
 72
    65
 73
     2
 40
0.635
 49
0.0
 74
     0
 49
-0.635
 74
     0
  0
ENDTAB
  0
TABLE
  2
LAYER
  5
2
330
0
100
AcDbSymbolTable
 70
     1
  0
LAYER
  5
10
330
2
100
AcDbSymbolTableRecord
100
AcDbLayerTableRecord
  2
0
 70
     0
 62
     7
  6
Continuous
370
    -3
390
F
  0
ENDTAB
  0
TABLE
  2
STYLE
  5
3
330
0
100
AcDbSymbolTable
 70
     1
  0
STYLE
  5
11
330
3
100
AcDbSymbolTableRecord
100
AcDbTextStyleTableRecord
  2
Standard
 70
     0
 40
0.0
 41
1.0
 50
0.0
 71
     0
 42
3.5
  3
txt
  4

  0
ENDTAB
  0
TABLE
  2
VIEW
  5
6
330
0
100
AcDbSymbolTable
 70
     0
  0
ENDTAB
  0
TABLE
  2
UCS
  5
7
330
0
100
AcDbSymbolTable
 70
     0
  0
ENDTAB
  0
TABLE
  2
APPID
  5
9
330
0
100
AcDbSymbolTable
 70
     1
  0
APPID
  5
12
330
9
100
AcDbSymbolTableRecord
100
AcDbRegAppTableRecord
  2
ACAD
 70
     0
  0
ENDTAB
  0
TABLE
  2
DIMSTYLE
  5
A
330
0
100
AcDbSymbolTable
 70
     1
100
AcDbDimStyleTable
  0
DIMSTYLE
105
27
330
A
100
AcDbSymbolTableRecord
100
AcDbDimStyleTableRecord
  2
ISO-25
 70
     0
 41
2.5
 42
0.625
 43
3.75
 44
1.25
 73
     0
 74
     0
 77
     1
 78
     8
140
2.5
141
2.5
143
0.0393700787
147
0.625
171
     3
172
     1
178
     0
271
     2
272
     2
274
     3
278
    44
283
     0
284
     8
340
11
  0
ENDTAB
  0
TABLE
  2
BLOCK_RECORD
  5
1
330
0
100
AcDbSymbolTable
 70
     1
  0
BLOCK_RECORD
  5
1F
330
1
100
AcDbSymbolTableRecord
100
AcDbBlockTableRecord
  2
*Model_Space
340
22
  0
BLOCK_RECORD
  5
1B
330
1
100
AcDbSymbolTableRecord
100
AcDbBlockTableRecord
  2
*Paper_Space
340
1E
  0
BLOCK_RECORD
  5
23
330
1
100
AcDbSymbolTableRecord
100
AcDbBlockTableRecord
  2
*Paper_Space0
340
26
  0
ENDTAB
  0
ENDSEC
  0
SECTION
  2
BLOCKS
  0
BLOCK
  5
20
330
1F
100
AcDbEntity
  8
0
100
AcDbBlockBegin
  2
*Model_Space
 70
     0
 10
0.0
 20
0.0
 30
0.0
  3
*Model_Space
  1

  0
ENDBLK
  5
21
330
1F
100
AcDbEntity
  8
0
100
AcDbBlockEnd
  0
BLOCK
  5
1C
330
1B
100
AcDbEntity
 67
     1
  8
0
100
AcDbBlockBegin
  2
*Paper_Space
 70
     0
 10
0.0
 20
0.0
 30
0.0
  3
*Paper_Space
  1

  0
ENDBLK
  5
1D
330
1B
100
AcDbEntity
 67
     1
  8
0
100
AcDbBlockEnd
  0
BLOCK
  5
24
330
23
100
AcDbEntity
  8
0
100
AcDbBlockBegin
  2
*Paper_Space0
 70
     0
 10
0.0
 20
0.0
 30
0.0
  3
*Paper_Space0
  1

  0
ENDBLK
  5
25
330
23
100
AcDbEntity
  8
0
100
AcDbBlockEnd
  0
ENDSEC
  0
SECTION
  2
ENTITIES
  0
SPLINE
  5
8B
330
1F
100
AcDbEntity
  8
0
  6
Continuous
 62
     7
370
    25
100
AcDbSpline
210
0.0
220
0.0
230
1.0
 70
     8
 71
     3
 72
     8
 73
     4
 74
     0
 42
0.000000001
 43
0.00000001
 40
0.0
 40
0.0
 40
0.0
 40
0.0
 40
1.0
 40
1.0
 40
1.0
 40
1.0
 10
3.499999999999992
 20
9.999999999999995
 30
0.0
 10
-16.49999999999998
 20
9.99999999999999
 30
0.0
 10
-26.49999999999998
 20
2.666666666666658
 30
0.0
 10
-26.5
 20
-12.0
 30
0.0
  0
SPLINE
  5
8C
330
1F
100
AcDbEntity
  8
0
  6
Continuous
 62
     7
370
    25
100
AcDbSpline
210
0.0
220
0.0
230
1.0
 70
     8
 71
     3
 72
     8
 73
     4
 74
     0
 42
0.000000001
 43
0.00000001
 40
0.0
 40
0.0
 40
0.0
 40
0.0
 40
1.0
 40
1.0
 40
1.0
 40
1.0
 10
36.5
 20
-12.0
 30
0.0
 10
36.49999999999946
 20
2.666666666666661
 30
0.0
 10
26.49999999999946
 20
9.999999999999993
 30
0.0
 10
6.500000000000003
 20
9.999999999999998
 30
0.0
  0
SPLINE
  5
8F
330
1F
100
AcDbEntity
  8
0
  6
Continuous
 62
     7
370
    25
100
AcDbSpline
210
0.0
220
0.0
230
1.0
 70
     8
 71
     3
 72
    82
 73
    78
 74
     0
 42
0.000000001
 43
0.00000001
 40
0.0
 40
0.0
 40
0.0
 40
0.0
 40
0.0137448912032632
 40
0.0273099691931323
 40
0.0407000885935445
 40
0.053920296770715
 40
0.0669758381590498
 40
0.079872158085358
 40
0.0926149059972188
 40
0.1052099379961116
 40
0.1176633185718993
 40
0.1299813214328363
 40
0.1421704293248464
 40
0.1542373327357651
 40
0.1661889273849402
 40
0.1780323104063706
 40
0.1897747751446951
 40
0.2014238044979782
 40
0.2129870627594229
 40
0.2244723859317357
 40
0.2358877705125733
 40
0.2472413607768357
 40
0.258541434610818
 40
0.2697963879835565
 40
0.2810147181710645
 40
0.2922050058784363
 40
0.3033758964318314
 40
0.3145360802359841
 40
0.3256942727120701
 40
0.3368591939446028
 40
0.3480395482738854
 40
0.3592440040720187
 40
0.370481173935499
 40
0.3817595955162639
 40
0.3930877131962044
 40
0.4044738607884358
 40
0.4159262454229971
 40
0.4274529327462553
 40
0.4390618335332704
 40
0.4507606917819084
 40
0.4625570743276323
 40
0.4744583619895939
 40
0.4864717422326744
 40
0.4986042033070513
 40
0.5108625298071117
 40
0.52325329957526
 40
0.5357828818634613
 40
0.5484574366560654
 40
0.5612829150513925
 40
0.5742650605963961
 40
0.5874094114681082
 40
0.6007213033971343
 40
0.6142058732317943
 40
0.6278680630462403
 40
0.6417126247016502
 40
0.6557441247761011
 40
0.6699669497856603
 40
0.6843853116263877
 40
0.6990032531740926
 40
0.7138246539857048
 40
0.7288532360528582
 40
0.7440925695646703
 40
0.7595460786426657
 40
0.7752170470163018
 40
0.7911086236125896
 40
0.8072238280378592
 40
0.8235655559338054
 40
0.840136584193586
 40
0.8569395760269501
 40
0.8739770858661877
 40
0.8912515641071221
 40
0.9087653616814713
 40
0.9265207344587016
 40
0.9445198474770121
 40
0.9627647790043646
 40
0.9812575244315318
 40
1.0
 40
1.0
 40
1.0
 40
1.0
 10
36.5
 20
-12.0
 30
0.0
 10
36.49898826752334
 20
-11.80573711015834
 30
0.0
 10
36.49697803824173
 20
-11.41975271359324
 30
0.0
 10
36.48046116413118
 20
-10.8447144060115
 30
0.0
 10
36.45401416898462
 20
-10.27749312016153
 30
0.0
 10
36.41670353734067
 20
-9.71808859064225
 30
0.0
 10
36.36877405283295
 20
-9.166500845319336
 30
0.0
 10
36.31016078609123
 20
-8.622729879172944
 30
0.0
 10
36.2408802077443
 20
-8.08677574584869
 30
0.0
 10
36.16092735642721
 20
-7.558638539410226
 30
0.0
 10
36.07030289204117
 20
-7.038318404807764
 30
0.0
 10
35.96900598295898
 20
-6.525815540454929
 30
0.0
 10
35.85703618588377
 20
-6.021130202338131
 30
0.0
 10
35.73439295908079
 20
-5.524262706950692
 30
0.0
 10
35.60107580011777
 20
-5.035213433523823
 30
0.0
 10
35.45708421993677
 20
-4.55398282518424
 30
0.0
 10
35.30241776086599
 20
-4.080571388897089
 30
0.0
 10
35.13707600357901
 20
-3.614979694013471
 30
0.0
 10
34.96105857722882
 20
-3.157208369287603
 30
0.0
 10
34.77436516865828
 20
-2.707258098269262
 30
0.0
 10
34.5769955313857
 20
-2.265129613032983
 30
0.0
 10
34.36894949376804
 20
-1.830823686272186
 30
0.0
 10
34.15022696607666
 20
-1.404341121859209
 30
0.0
 10
33.92082794614534
 20
-0.9856827440494016
 30
0.0
 10
33.68075252330613
 20
-0.5748493855823107
 30
0.0
 10
33.43000088037601
 20
-0.1718418750009294
 30
0.0
 10
33.16857329352714
 20
0.2233389764344346
 30
0.0
 10
32.89647012995903
 20
0.6106923878237135
 30
0.0
 10
32.61369184338297
 20
0.9902176212652569
 30
0.0
 10
32.32023896742528
 20
1.361913993631361
 30
0.0
 10
32.0161121071492
 20
1.725780887088984
 30
0.0
 10
31.70131192897665
 20
2.081817758026714
 30
0.0
 10
31.37583914935779
 20
2.430024144121274
 30
0.0
 10
31.03969452258275
 20
2.770399669362128
 30
0.0
 10
30.69287882815176
 20
3.102944046945348
 30
0.0
 10
30.33539285812192
 20
3.427657080041431
 30
0.0
 10
29.96723740482287
 20
3.744538660529355
 30
0.0
 10
29.58841324929567
 20
4.053588765866026
 30
0.0
 10
29.19892115074958
 20
4.354807454322235
 30
0.0
 10
28.79876183726678
 20
4.648194858860373
 30
0.0
 10
28.38793599791368
 20
4.933751179955267
 30
0.0
 10
27.96644427634628
 20
5.211476677667572
 30
0.0
 10
27.53428726593191
 20
5.481371663271553
 30
0.0
 10
27.09146550634999
 20
5.743436490717907
 30
0.0
 10
26.6379794815875
 20
5.99767154818151
 30
0.0
 10
26.17382961920629
 20
6.244077249906359
 30
0.0
 10
25.6990162907346
 20
6.4826540285187
 30
0.0
 10
25.21353981301839
 20
6.713402327937974
 30
0.0
 10
24.71740045036438
 20
6.936322596975121
 30
0.0
 10
24.21059841730658
 20
7.151415283671096
 30
0.0
 10
23.69313388183849
 20
7.358680830396837
 30
0.0
 10
23.16500696896537
 20
7.558119669708804
 30
0.0
 10
22.62621776444714
 20
7.749732220933079
 30
0.0
 10
22.07676631862042
 20
7.933518887434805
 30
0.0
 10
21.51665265020632
 20
8.10948005451838
 30
0.0
 10
20.94587675002818
 20
8.277616087896748
 30
0.0
 10
20.36443858458048
 20
8.437927332664625
 30
0.0
 10
19.77233809940474
 20
8.590414112709913
 30
0.0
 10
19.16957522224207
 20
8.735076730498974
 30
0.0
 10
18.55614986594295
 20
8.871915467175793
 30
0.0
 10
17.93206193112493
 20
9.000930582915325
 30
0.0
 10
17.29731130857585
 20
9.122122317492641
 30
0.0
 10
16.65189788140735
 20
9.235490890973487
 30
0.0
 10
15.99582152696694
 20
9.341036504671559
 30
0.0
 10
15.32908211852149
 20
9.438759341631279
 30
0.0
 10
14.65167952672553
 20
9.528659569299661
 30
0.0
 10
13.96361362089257
 20
9.610737334098188
 30
0.0
 10
13.26488427008021
 20
9.68499278699379
 30
0.0
 10
12.55549134402458
 20
9.751425990967993
 30
0.0
 10
11.83543471387213
 20
9.810037278502541
 30
0.0
 10
11.10471425298343
 20
9.860825894165814
 30
0.0
 10
10.36332983683851
 20
9.903795171243656
 30
0.0
 10
9.611281345812763
 20
9.938932813877889
 30
0.0
 10
8.848568656530787
 20
9.9662860169808
 30
0.0
 10
8.075191676304561
 20
9.985675327450942
 30
0.0
 10
7.291150213102157
 20
9.997784477251749
 30
0.0
 10
6.764893242312589
 20
9.999258197755013
 30
0.0
 10
6.500000000000003
 20
9.999999999999998
 30
0.0
  0
SPLINE
  5
92
330
1F
100
AcDbEntity
  8
0
  6
Continuous
 62
     7
370
    25
100
AcDbSpline
210
0.0
220
0.0
230
1.0
 70
     8
 71
     3
 72
    73
 73
    69
 74
     0
 42
0.000000001
 43
0.00000001
 40
0.0
 40
0.0
 40
0.0
 40
0.0
 40
0.0212789640066531
 40
0.0422357769781024
 40
0.0628732742962176
 40
0.0831944250043131
 40
0.1032023389774911
 40
0.1229002744511916
 40
0.1422916459139086
 40
0.1613800323673288
 40
0.1801691859538045
 40
0.1986630409469709
 40
0.2168657230963517
 40
0.2347815593108723
 40
0.2524150876591836
 40
0.2697710676564901
 40
0.2868544907980659
 40
0.3036705912887379
 40
0.3202248569052388
 40
0.3365230399144571
 40
0.3525711679552383
 40
0.3683755547745892
 40
0.3839428106910653
 40
0.3992798526390254
 40
0.4143939136276851
 40
0.4292925514290212
 40
0.4439836562892044
 40
0.4584754574402494
 40
0.4727765281729248
 40
0.4868957892198623
 40
0.5008425101905125
 40
0.5146263087985092
 40
0.5282571476285107
 40
0.5417453282050068
 40
0.5551014821510306
 40
0.5683365592609924
 40
0.5814618123592914
 40
0.5944887788746857
 40
0.6074292591286422
 40
0.6202952914122909
 40
0.6330991240086572
 40
0.6458531844012806
 40
0.6585700459933803
 40
0.6712623927392578
 40
0.6839429821574821
 40
0.6966246072497405
 40
0.7093200578868248
 40
0.7220420822417661
 40
0.7348033488484874
 40
0.7476164098426039
 40
0.7604936659005188
 40
0.7734473333362024
 40
0.7864894137453433
 40
0.7996316665078548
 40
0.8128855843761685
 40
0.8262623722924546
 40
0.8397729294965678
 40
0.8534278349112884
 40
0.86723733572469
 40
0.8812113390328598
 40
0.8953594063605612
 40
0.9096907508429408
 40
0.9242142368276179
 40
0.938938381642602
 40
0.9538713592702944
 40
0.9690210056700204
 40
0.9843948254996957
 40
1.0
 40
1.0
 40
1.0
 40
1.0
 10
3.499999999999993
 20
9.999999999999996
 30
0.0
 10
3.19925897190938
 20
9.999044027704723
 30
0.0
 10
2.602329958512445
 20
9.997146555974066
 30
0.0
 10
1.713838693018653
 20
9.98152171123275
 30
0.0
 10
0.8391178408152076
 20
9.95649252072621
 30
0.0
 10
-0.021832945112182
 20
9.921180963620285
 30
0.0
 10
-0.8690138488868572
 20
9.875816787043936
 30
0.0
 10
-1.702425106871864
 20
9.820339677378987
 30
0.0
 10
-2.522066950480732
 20
9.754765228661363
 30
0.0
 10
-3.327939619987824
 20
9.679089137035767
 30
0.0
 10
-4.120043359407682
 20
9.593312274738963
 30
0.0
 10
-4.898378415929673
 20
9.497434124815543
 30
0.0
 10
-5.662945037701668
 20
9.391454496131791
 30
0.0
 10
-6.413743471524205
 20
9.275373071467344
 30
0.0
 10
-7.150773959980881
 20
9.14918952260817
 30
0.0
 10
-7.874036738062627
 20
9.012903477139668
 30
0.0
 10
-8.583532029205541
 20
8.866514524184712
 30
0.0
 10
-9.279260040702464
 20
8.710022210203832
 30
0.0
 10
-9.961220958446814
 20
8.543426037776799
 30
0.0
 10
-10.62941494098095
 20
8.366725464139819
 30
0.0
 10
-11.28384211283805
 20
8.179919900501792
 30
0.0
 10
-11.92450255718942
 20
7.983008712075931
 30
0.0
 10
-12.55139630783886
 20
7.775991219070521
 30
0.0
 10
-13.16452334064323
 20
7.558866698821158
 30
0.0
 10
-13.76388356448312
 20
7.331634389274728
 30
0.0
 10
-14.34947681196044
 20
7.09429349403098
 30
0.0
 10
-14.92130283005803
 20
6.846843189136849
 30
0.0
 10
-15.47936127106093
 20
6.589282631803598
 30
0.0
 10
-16.02365168410312
 20
6.321610971173078
 30
0.0
 10
-16.55417350776638
 20
6.043827361197033
 30
0.0
 10
-17.07092606421132
 20
5.755930975608175
 30
0.0
 10
-17.57390855535938
 20
5.45792102485593
 30
0.0
 10
-18.06312006165955
 20
5.149796774753292
 30
0.0
 10
-18.53855954395879
 20
4.831557566440135
 30
0.0
 10
-19.00022584894103
 20
4.503202837119521
 30
0.0
 10
-19.44811771850324
 20
4.164732140877041
 30
0.0
 10
-19.88223380329326
 20
3.816145168763967
 30
0.0
 10
-20.30257268044814
 20
3.457441767225542
 30
0.0
 10
-20.70913287534636
 20
3.088621953904184
 30
0.0
 10
-21.10191288693965
 20
2.709685929854744
 30
0.0
 10
-21.48091121597479
 20
2.32063408728826
 30
0.0
 10
-21.84612639517589
 20
1.921467012112962
 30
0.0
 10
-22.19755702025879
 20
1.512185480765781
 30
0.0
 10
-22.53520178051094
 20
1.092790451110754
 30
0.0
 10
-22.8590594876147
 20
0.6632830475030524
 30
0.0
 10
-23.16912910142884
 20
0.2236645404529963
 30
0.0
 10
-23.46540975157508
 20
-0.2260636783570469
 30
0.0
 10
-23.74790075389515
 20
-0.6859001246776928
 30
0.0
 10
-24.01660162113189
 20
-1.15584325269311
 30
0.0
 10
-24.27151206751721
 20
-1.63589148707962
 30
0.0
 10
-24.51263200729664
 20
-2.126043254770217
 30
0.0
 10
-24.7399615475369
 20
-2.626297015153198
 30
0.0
 10
-24.95350097587663
 20
-3.136651287595687
 30
0.0
 10
-25.15325074398334
 20
-3.657104675407025
 30
0.0
 10
-25.33921144804762
 20
-4.187655885619948
 30
0.0
 10
-25.51138380609578
 20
-4.728303744241064
 30
0.0
 10
-25.6697686379831
 20
-5.279047206888169
 30
0.0
 10
-25.81436683077429
 20
-5.839885364958318
 30
0.0
 10
-25.9451793595816
 20
-6.410817447686727
 30
0.0
 10
-26.06220710182569
 20
-6.991842820501172
 30
0.0
 10
-26.16545144335262
 20
-7.582960980528001
 30
0.0
 10
-26.25491188322009
 20
-8.184171548771554
 30
0.0
 10
-26.33059506921091
 20
-8.79547426371994
 30
0.0
 10
-26.39248032306433
 20
-9.416868961187602
 30
0.0
 10
-26.44065094149022
 20
-10.04835560098149
 30
0.0
 10
-26.47479359989892
 20
-10.68993411191554
 30
0.0
 10
-26.49610761305765
 20
-11.34160492851339
 30
0.0
 10
-26.49869609399539
 20
-11.77944502953095
 30
0.0
 10
-26.5
 20
-12.0
 30
0.0
  0
LINE
  5
93
330
1F
100
AcDbEntity
  8
0
  6
Continuous
 62
     7
370
    25
100
AcDbLine
 10
-36.68
 20
7.5
 30
0.0
 11
-36.68
 21
-7.5
 31
0.0
  0
LINE
  5
94
330
1F
100
AcDbEntity
  8
0
  6
Continuous
 62
     7
370
    25
100
AcDbLine
 10
-36.68
 20
-7.5
 30
0.0
 11
-34.18
 21
-7.5
 31
0.0
  0
LINE
  5
95
330
1F
100
AcDbEntity
  8
0
  6
Continuous
 62
     7
370
    25
100
AcDbLine
 10
-34.18
 20
-7.5
 30
0.0
 11
-34.18
 21
7.5
 31
0.0
  0
LINE
  5
96
330
1F
100
AcDbEntity
  8
0
  6
Continuous
 62
     7
370
    25
100
AcDbLine
 10
-34.18
 20
7.5
 30
0.0
 11
-36.68
 21
7.5
 31
0.0
  0
LINE
  5
97
330
1F
100
AcDbEntity
  8
0
  6
Continuous
 62
     7
370
    25
100
AcDbLine
 10
-26.5
 20
-12.0
 30
0.0
 11
3.5
 21
-12.0
 31
0.0
  0
LINE
  5
98
330
1F
100
AcDbEntity
  8
0
  6
Continuous
 62
     7
370
    25
100
AcDbLine
 10
3.5
 20
-12.0
 30
0.0
 11
3.5
 21
10.0
 31
0.0
  0
LINE
  5
99
330
1F
100
AcDbEntity
  8
0
  6
Continuous
 62
     7
370
    25
100
AcDbLine
 10
6.5
 20
-12.0
 30
0.0
 11
36.5
 21
-12.0
 31
0.0
  0
LINE
  5
9A
330
1F
100
AcDbEntity
  8
0
  6
Continuous
 62
     7
370
    25
100
AcDbLine
 10
6.5
 20
10.0
 30
0.0
 11
6.5
 21
-12.0
 31
0.0
  0
LINE
  5
9B
330
1F
100
AcDbEntity
  8
0
  6
Continuous
 62
     7
370
    25
100
AcDbLine
 10
33.82
 20
-15.0
 30
0.0
 11
38.68
 21
-15.0
 31
0.0
  0
LINE
  5
9C
330
1F
100
AcDbEntity
  8
0
  6
Continuous
 62
     7
370
    25
100
AcDbLine
 10
33.82
 20
-17.5
 30
0.0
 11
33.82
 21
-15.0
 31
0.0
  0
LINE
  5
9D
330
1F
100
AcDbEntity
  8
0
  6
Continuous
 62
     7
370
    25
100
AcDbLine
 10
23.82
 20
-17.5
 30
0.0
 11
33.82
 21
-17.5
 31
0.0
  0
LINE
  5
9E
330
1F
100
AcDbEntity
  8
0
  6
Continuous
 62
     7
370
    25
100
AcDbLine
 10
23.82
 20
-15.0
 30
0.0
 11
23.82
 21
-17.5
 31
0.0
  0
LINE
  5
9F
330
1F
100
AcDbEntity
  8
0
  6
Continuous
 62
     7
370
    25
100
AcDbLine
 10
-38.68
 20
-15.0
 30
0.0
 11
23.82
 21
-15.0
 31
0.0
  0
LINE
  5
A0
330
1F
100
AcDbEntity
  8
0
  6
Continuous
 62
     7
370
    25
100
AcDbLine
 10
-38.68
 20
15.0
 30
0.0
 11
-38.68
 21
-15.0
 31
0.0
  0
LINE
  5
A1
330
1F
100
AcDbEntity
  8
0
  6
Continuous
 62
     7
370
    25
100
AcDbLine
 10
-22.8933333333
 20
15.0
 30
0.0
 11
-38.68
 21
15.0
 31
0.0
  0
LINE
  5
A2
330
1F
100
AcDbEntity
  8
0
  6
Continuous
 62
     7
370
    25
100
AcDbLine
 10
-22.8933333333
 20
17.5
 30
0.0
 11
-22.8933333333
 21
15.0
 31
0.0
  0
LINE
  5
A3
330
1F
100
AcDbEntity
  8
0
  6
Continuous
 62
     7
370
    25
100
AcDbLine
 10
-7.8933333333
 20
17.5
 30
0.0
 11
-22.8933333333
 21
17.5
 31
0.0
  0
LINE
  5
A4
330
1F
100
AcDbEntity
  8
0
  6
Continuous
 62
     7
370
    25
100
AcDbLine
 10
-7.8933333333
 20
15.0
 30
0.0
 11
-7.8933333333
 21
17.5
 31
0.0
  0
LINE
  5
A5
330
1F
100
AcDbEntity
  8
0
  6
Continuous
 62
     7
370
    25
100
AcDbLine
 10
7.8933333333
 20
15.0
 30
0.0
 11
-7.8933333333
 21
15.0
 31
0.0
  0
LINE
  5
A6
330
1F
100
AcDbEntity
  8
0
  6
Continuous
 62
     7
370
    25
100
AcDbLine
 10
7.8933333333
 20
17.5
 30
0.0
 11
7.8933333333
 21
15.0
 31
0.0
  0
LINE
  5
A7
330
1F
100
AcDbEntity
  8
0
  6
Continuous
 62
     7
370
    25
100
AcDbLine
 10
22.8933333333
 20
17.5
 30
0.0
 11
7.8933333333
 21
17.5
 31
0.0
  0
LINE
  5
A8
330
1F
100
AcDbEntity
  8
0
  6
Continuous
 62
     7
370
    25
100
AcDbLine
 10
22.8933333333
 20
15.0
 30
0.0
 11
22.8933333333
 21
17.5
 31
0.0
  0
LINE
  5
A9
330
1F
100
AcDbEntity
  8
0
  6
Continuous
 62
     7
370
    25
100
AcDbLine
 10
38.68
 20
15.0
 30
0.0
 11
22.8933333333
 21
15.0
 31
0.0
  0
LINE
  5
AA
330
1F
100
AcDbEntity
  8
0
  6
Continuous
 62
     7
370
    25
100
AcDbLine
 10
38.68
 20
-15.0
 30
0.0
 11
38.68
 21
15.0
 31
0.0
  0
ENDSEC
  0
SECTION
  2
OBJECTS
  0
DICTIONARY
  5
C
330
0
100
AcDbDictionary
281
     1
  3
ACAD_GROUP
350
D
  3
ACAD_LAYOUT
350
1A
  3
ACAD_MLINESTYLE
350
17
  3
ACAD_PLOTSETTINGS
350
19
  3
ACAD_PLOTSTYLENAME
350
E
  3
ACAD_SCALELIST
350
47
  0
DICTIONARY
  5
D
102
{ACAD_REACTORS
330
C
102
}
330
C
100
AcDbDictionary
281
     1
  0
DICTIONARY
  5
1A
102
{ACAD_REACTORS
330
C
102
}
330
C
100
AcDbDictionary
281
     1
  3
Layout1
350
1E
  3
Layout2
350
26
  3
Model
350
22
  0
DICTIONARY
  5
17
102
{ACAD_REACTORS
330
C
102
}
330
C
100
AcDbDictionary
281
     1
  3
Standard
350
18
  0
DICTIONARY
  5
19
102
{ACAD_REACTORS
330
C
102
}
330
C
100
AcDbDictionary
281
     1
  0
ACDBDICTIONARYWDFLT
  5
E
102
{ACAD_REACTORS
330
C
102
}
330
C
100
AcDbDictionary
281
     1
  3
Normal
350
F
100
AcDbDictionaryWithDefault
340
F
  0
DICTIONARY
  5
47
102
{ACAD_REACTORS
330
C
102
}
330
C
100
AcDbDictionary
281
     1
  3
A0
350
48
  3
A1
350
49
  3
A2
350
4A
  3
A3
350
4B
  3
A4
350
4C
  3
A5
350
4D
  3
A6
350
4E
  3
A7
350
4F
  3
A8
350
50
  3
A9
350
51
  3
B0
350
52
  3
B1
350
53
  3
B2
350
54
  3
B3
350
55
  3
B4
350
56
  3
B5
350
57
  3
B6
350
58
  3
B7
350
59
  3
B8
350
5A
  3
B9
350
5B
  3
C0
350
5C
  3
C1
350
5D
  3
C2
350
5E
  3
C3
350
5F
  3
C4
350
60
  3
C5
350
61
  3
C6
350
62
  3
C7
350
63
  3
C8
350
64
  3
C9
350
65
  3
D0
350
66
  3
D1
350
67
  3
D2
350
68
  0
LAYOUT
  5
1E
102
{ACAD_REACTORS
330
1A
102
}
330
1A
100
AcDbPlotSettings
  1

  2
none_device
  4

  6

 40
0.0
 41
0.0
 42
0.0
 43
0.0
 44
0.0
 45
0.0
 46
0.0
 47
0.0
 48
0.0
 49
0.0
140
0.0
141
0.0
142
1.0
143
1.0
 70
   688
 72
     1
 73
     0
 74
     5
  7

 75
    16
147
1.0
148
0.0
149
0.0
100
AcDbLayout
  1
Layout1
 70
     1
 71
     1
 10
0.0
 20
0.0
 11
420.0
 21
297.0
 12
0.0
 22
0.0
 32
0.0
 14
1.0000000000E+20
 24
1.0000000000E+20
 34
1.0000000000E+20
 15
-1.0000000000E+20
 25
-1.0000000000E+20
 35
-1.0000000000E+20
146
0.0
 13
0.0
 23
0.0
 33
0.0
 16
1.0
 26
0.0
 36
0.0
 17
0.0
 27
1.0
 37
0.0
 76
     0
330
1B
  0
LAYOUT
  5
26
102
{ACAD_REACTORS
330
1A
102
}
330
1A
100
AcDbPlotSettings
  1

  2
none_device
  4

  6

 40
0.0
 41
0.0
 42
0.0
 43
0.0
 44
0.0
 45
0.0
 46
0.0
 47
0.0
 48
0.0
 49
0.0
140
0.0
141
0.0
142
1.0
143
1.0
 70
   688
 72
     1
 73
     0
 74
     5
  7

 75
    16
147
1.0
148
0.0
149
0.0
100
AcDbLayout
  1
Layout2
 70
     1
 71
     2
 10
0.0
 20
0.0
 11
0.0
 21
0.0
 12
0.0
 22
0.0
 32
0.0
 14
0.0
 24
0.0
 34
0.0
 15
0.0
 25
0.0
 35
0.0
146
0.0
 13
0.0
 23
0.0
 33
0.0
 16
1.0
 26
0.0
 36
0.0
 17
0.0
 27
1.0
 37
0.0
 76
     0
330
23
  0
LAYOUT
  5
22
102
{ACAD_REACTORS
330
1A
102
}
330
1A
100
AcDbPlotSettings
  1

  2
none_device
  4
ANSI_A_(11.00_x_8.50_Inches)
  6

 40
6.35
 41
19.05
 42
6.35000508
 43
19.05000254
 44
279.4
 45
215.9
 46
133.34999746
 47
88.89999873
 48
0.0
 49
0.0
140
0.0
141
0.0
142
0.140770424
143
1.0
 70
  1696
 72
     0
 73
     0
 74
     0
  7

 75
     0
147
0.0179189148
148
-1300.4909072572
149
0.0
100
AcDbLayout
  1
Model
 70
     1
 71
     0
 10
0.0
 20
0.0
 11
420.0
 21
297.0
 12
0.0
 22
0.0
 32
0.0
 14
-38.68
 24
-17.5
 34
0.0
 15
38.68
 25
17.5
 35
0.0
146
0.0
 13
0.0
 23
0.0
 33
0.0
 16
1.0
 26
0.0
 36
0.0
 17
0.0
 27
1.0
 37
0.0
 76
     0
330
1F
331
29
  0
MLINESTYLE
  5
18
102
{ACAD_REACTORS
330
17
102
}
330
17
100
AcDbMlineStyle
  2
Standard
 70
     0
  3

 62
   256
 51
90.0
 52
90.0
 71
     2
 49
0.5
 62
   256
  6
BYLAYER
 49
-0.5
 62
   256
  6
BYLAYER
  0
ACDBPLACEHOLDER
  5
F
102
{ACAD_REACTORS
330
E
102
}
330
E
  0
SCALE
  5
48
102
{ACAD_REACTORS
330
47
102
}
330
47
100
AcDbScale
 70
     0
300
1:1
140
1.0
141
1.0
290
     1
  0
SCALE
  5
49
102
{ACAD_REACTORS
330
47
102
}
330
47
100
AcDbScale
 70
     0
300
1:2
140
1.0
141
2.0
290
     0
  0
SCALE
  5
4A
102
{ACAD_REACTORS
330
47
102
}
330
47
100
AcDbScale
 70
     0
300
1:4
140
1.0
141
4.0
290
     0
  0
SCALE
  5
4B
102
{ACAD_REACTORS
330
47
102
}
330
47
100
AcDbScale
 70
     0
300
1:5
140
1.0
141
5.0
290
     0
  0
SCALE
  5
4C
102
{ACAD_REACTORS
330
47
102
}
330
47
100
AcDbScale
 70
     0
300
1:8
140
1.0
141
8.0
290
     0
  0
SCALE
  5
4D
102
{ACAD_REACTORS
330
47
102
}
330
47
100
AcDbScale
 70
     0
300
1:10
140
1.0
141
10.0
290
     0
  0
SCALE
  5
4E
102
{ACAD_REACTORS
330
47
102
}
330
47
100
AcDbScale
 70
     0
300
1:16
140
1.0
141
16.0
290
     0
  0
SCALE
  5
4F
102
{ACAD_REACTORS
330
47
102
}
330
47
100
AcDbScale
 70
     0
300
1:20
140
1.0
141
20.0
290
     0
  0
SCALE
  5
50
102
{ACAD_REACTORS
330
47
102
}
330
47
100
AcDbScale
 70
     0
300
1:30
140
1.0
141
30.0
290
     0
  0
SCALE
  5
51
102
{ACAD_REACTORS
330
47
102
}
330
47
100
AcDbScale
 70
     0
300
1:40
140
1.0
141
40.0
290
     0
  0
SCALE
  5
52
102
{ACAD_REACTORS
330
47
102
}
330
47
100
AcDbScale
 70
     0
300
1:50
140
1.0
141
50.0
290
     0
  0
SCALE
  5
53
102
{ACAD_REACTORS
330
47
102
}
330
47
100
AcDbScale
 70
     0
300
1:100
140
1.0
141
100.0
290
     0
  0
SCALE
  5
54
102
{ACAD_REACTORS
330
47
102
}
330
47
100
AcDbScale
 70
     0
300
2:1
140
2.0
141
1.0
290
     0
  0
SCALE
  5
55
102
{ACAD_REACTORS
330
47
102
}
330
47
100
AcDbScale
 70
     0
300
4:1
140
4.0
141
1.0
290
     0
  0
SCALE
  5
56
102
{ACAD_REACTORS
330
47
102
}
330
47
100
AcDbScale
 70
     0
300
8:1
140
8.0
141
1.0
290
     0
  0
SCALE
  5
57
102
{ACAD_REACTORS
330
47
102
}
330
47
100
AcDbScale
 70
     0
300
10:1
140
10.0
141
1.0
290
     0
  0
SCALE
  5
58
102
{ACAD_REACTORS
330
47
102
}
330
47
100
AcDbScale
 70
     0
300
100:1
140
100.0
141
1.0
290
     0
  0
SCALE
  5
59
102
{ACAD_REACTORS
330
47
102
}
330
47
100
AcDbScale
 70
     0
300
1/128" = 1'-0"
140
0.0078125
141
12.0
290
     0
  0
SCALE
  5
5A
102
{ACAD_REACTORS
330
47
102
}
330
47
100
AcDbScale
 70
     0
300
1/64" = 1'-0"
140
0.015625
141
12.0
290
     0
  0
SCALE
  5
5B
102
{ACAD_REACTORS
330
47
102
}
330
47
100
AcDbScale
 70
     0
300
1/32" = 1'-0"
140
0.03125
141
12.0
290
     0
  0
SCALE
  5
5C
102
{ACAD_REACTORS
330
47
102
}
330
47
100
AcDbScale
 70
     0
300
1/16" = 1'-0"
140
0.0625
141
12.0
290
     0
  0
SCALE
  5
5D
102
{ACAD_REACTORS
330
47
102
}
330
47
100
AcDbScale
 70
     0
300
3/32" = 1'-0"
140
0.09375
141
12.0
290
     0
  0
SCALE
  5
5E
102
{ACAD_REACTORS
330
47
102
}
330
47
100
AcDbScale
 70
     0
300
1/8" = 1'-0"
140
0.125
141
12.0
290
     0
  0
SCALE
  5
5F
102
{ACAD_REACTORS
330
47
102
}
330
47
100
AcDbScale
 70
     0
300
3/16" = 1'-0"
140
0.1875
141
12.0
290
     0
  0
SCALE
  5
60
102
{ACAD_REACTORS
330
47
102
}
330
47
100
AcDbScale
 70
     0
300
1/4" = 1'-0"
140
0.25
141
12.0
290
     0
  0
SCALE
  5
61
102
{ACAD_REACTORS
330
47
102
}
330
47
100
AcDbScale
 70
     0
300
3/8" = 1'-0"
140
0.375
141
12.0
290
     0
  0
SCALE
  5
62
102
{ACAD_REACTORS
330
47
102
}
330
47
100
AcDbScale
 70
     0
300
1/2" = 1'-0"
140
0.5
141
12.0
290
     0
  0
SCALE
  5
63
102
{ACAD_REACTORS
330
47
102
}
330
47
100
AcDbScale
 70
     0
300
3/4" = 1'-0"
140
0.75
141
12.0
290
     0
  0
SCALE
  5
64
102
{ACAD_REACTORS
330
47
102
}
330
47
100
AcDbScale
 70
     0
300
1" = 1'-0"
140
1.0
141
12.0
290
     0
  0
SCALE
  5
65
102
{ACAD_REACTORS
330
47
102
}
330
47
100
AcDbScale
 70
     0
300
1-1/2" = 1'-0"
140
1.5
141
12.0
290
     0
  0
SCALE
  5
66
102
{ACAD_REACTORS
330
47
102
}
330
47
100
AcDbScale
 70
     0
300
3" = 1'-0"
140
3.0
141
12.0
290
     0
  0
SCALE
  5
67
102
{ACAD_REACTORS
330
47
102
}
330
47
100
AcDbScale
 70
     0
300
6" = 1'-0"
140
6.0
141
12.0
290
     0
  0
SCALE
  5
68
102
{ACAD_REACTORS
330
47
102
}
330
47
100
AcDbScale
 70
     0
300
1'-0" = 1'-0"
140
12.0
141
12.0
290
     0
  0
ENDSEC
  0
EOF
