  0
SECTION
  2
HEADER
  9
$ACADVER
  1
AC1015
  9
$ACADMAINTVER
 70
     6
  9
$DWGCODEPAGE
  3
ANSI_1256
  9
$INSBASE
 10
0.0
 20
0.0
 30
0.0
  9
$EXTMIN
 10
-58.0
 20
-30.0
 30
0.0
  9
$EXTMAX
 10
58.0
 20
30.0
 30
0.0
  9
$LIMMIN
 10
0.0
 20
0.0
  9
$LIMMAX
 10
420.0
 20
297.0
  9
$ORTHOMODE
 70
     0
  9
$REGENMODE
 70
     1
  9
$FILLMODE
 70
     1
  9
$QTEXTMODE
 70
     0
  9
$MIRRTEXT
 70
     1
  9
$LTSCALE
 40
1.0
  9
$ATTMODE
 70
     1
  9
$TEXTSIZE
 40
6.35
  9
$TRACEWID
 40
1.0
  9
$TEXTSTYLE
  7
Standard
  9
$CLAYER
  8
0
  9
$CELTYPE
  6
ByLayer
  9
$CECOLOR
 62
   256
  9
$CELTSCALE
 40
1.0
  9
$DISPSILH
 70
     0
  9
$DIMSCALE
 40
1.0
  9
$DIMASZ
 40
5.9944
  9
$DIMEXO
 40
0.9906
  9
$DIMDLI
 40
3.75
  9
$DIMRND
 40
0.0
  9
$DIMDLE
 40
0.0
  9
$DIMEXE
 40
0.9906
  9
$DIMTP
 40
0.0
  9
$DIMTM
 40
0.0
  9
$DIMTXT
 40
6.35
  9
$DIMCEN
 40
2.5
  9
$DIMTSZ
 40
0.0
  9
$DIMTOL
 70
     0
  9
$DIMLIM
 70
     0
  9
$DIMTIH
 70
     1
  9
$DIMTOH
 70
     1
  9
$DIMSE1
 70
     0
  9
$DIMSE2
 70
     0
  9
$DIMTAD
 70
     1
  9
$DIMZIN
 70
     1
  9
$DIMBLK
  1

  9
$DIMASO
 70
     1
  9
$DIMSHO
 70
     1
  9
$DIMPOST
  1

  9
$DIMAPOST
  1

  9
$DIMALT
 70
     0
  9
$DIMALTD
 70
     3
  9
$DIMALTF
 40
0.0393700787
  9
$DIMLFAC
 40
1.0
  9
$DIMTOFL
 70
     1
  9
$DIMTVP
 40
0.0
  9
$DIMTIX
 70
     0
  9
$DIMSOXD
 70
     0
  9
$DIMSAH
 70
     0
  9
$DIMBLK1
  1

  9
$DIMBLK2
  1

  9
$DIMSTYLE
  2
ISO-25
  9
$DIMCLRD
 70
     0
  9
$DIMCLRE
 70
     0
  9
$DIMCLRT
 70
     0
  9
$DIMTFAC
 40
1.0
  9
$DIMGAP
 40
1.524
  9
$DIMJUST
 70
     0
  9
$DIMSD1
 70
     0
  9
$DIMSD2
 70
     0
  9
$DIMTOLJ
 70
     0
  9
$DIMTZIN
 70
     1
  9
$DIMALTZ
 70
     0
  9
$DIMALTTZ
 70
     0
  9
$DIMUPT
 70
     0
  9
$DIMDEC
 70
     2
  9
$DIMTDEC
 70
     2
  9
$DIMALTU
 70
     2
  9
$DIMALTTD
 70
     3
  9
$DIMTXSTY
  7
Standard
  9
$DIMAUNIT
 70
     0
  9
$DIMADEC
 70
     2
  9
$DIMALTRND
 40
0.0
  9
$DIMAZIN
 70
     0
  9
$DIMDSEP
 70
    44
  9
$DIMATFIT
 70
     3
  9
$DIMFRAC
 70
     0
  9
$DIMLDRBLK
  1

  9
$DIMLUNIT
 70
     2
  9
$DIMLWD
 70
    -2
  9
$DIMLWE
 70
    -2
  9
$DIMTMOVE
 70
     0
  9
$LUNITS
 70
     2
  9
$LUPREC
 70
     2
  9
$SKETCHINC
 40
1.0
  9
$FILLETRAD
 40
10.0
  9
$AUNITS
 70
     0
  9
$AUPREC
 70
     2
  9
$MENU
  1
.
  9
$ELEVATION
 40
0.0
  9
$PELEVATION
 40
0.0
  9
$THICKNESS
 40
0.0
  9
$LIMCHECK
 70
     0
  9
$CHAMFERA
 40
0.0
  9
$CHAMFERB
 40
0.0
  9
$CHAMFERC
 40
0.0
  9
$CHAMFERD
 40
0.0
  9
$SKPOLY
 70
     0
  9
$TDCREATE
 40
2458830.670652187
  9
$TDUCREATE
 40
2458830.587318854
  9
$TDUPDATE
 40
2458830.670682674
  9
$TDUUPDATE
 40
2458830.58734934
  9
$TDINDWG
 40
0.0000000116
  9
$TDUSRTIMER
 40
0.0000000116
  9
$USRTIMER
 70
     1
  9
$ANGBASE
 50
0.0
  9
$ANGDIR
 70
     0
  9
$PDMODE
 70
     0
  9
$PDSIZE
 40
-1.0
  9
$PLINEWID
 40
0.0
  9
$SPLFRAME
 70
     0
  9
$SPLINETYPE
 70
     6
  9
$SPLINESEGS
 70
     8
  9
$HANDSEED
  5
151
  9
$SURFTAB1
 70
     6
  9
$SURFTAB2
 70
     6
  9
$SURFTYPE
 70
     6
  9
$SURFU
 70
     6
  9
$SURFV
 70
     6
  9
$UCSBASE
  2

  9
$UCSNAME
  2

  9
$UCSORG
 10
0.0
 20
0.0
 30
0.0
  9
$UCSXDIR
 10
1.0
 20
0.0
 30
0.0
  9
$UCSYDIR
 10
0.0
 20
1.0
 30
0.0
  9
$UCSORTHOREF
  2

  9
$UCSORTHOVIEW
 70
     0
  9
$UCSORGTOP
 10
0.0
 20
0.0
 30
0.0
  9
$UCSORGBOTTOM
 10
0.0
 20
0.0
 30
0.0
  9
$UCSORGLEFT
 10
0.0
 20
0.0
 30
0.0
  9
$UCSORGRIGHT
 10
0.0
 20
0.0
 30
0.0
  9
$UCSORGFRONT
 10
0.0
 20
0.0
 30
0.0
  9
$UCSORGBACK
 10
0.0
 20
0.0
 30
0.0
  9
$PUCSBASE
  2

  9
$PUCSNAME
  2

  9
$PUCSORG
 10
0.0
 20
0.0
 30
0.0
  9
$PUCSXDIR
 10
1.0
 20
0.0
 30
0.0
  9
$PUCSYDIR
 10
0.0
 20
1.0
 30
0.0
  9
$PUCSORTHOREF
  2

  9
$PUCSORTHOVIEW
 70
     0
  9
$PUCSORGTOP
 10
0.0
 20
0.0
 30
0.0
  9
$PUCSORGBOTTOM
 10
0.0
 20
0.0
 30
0.0
  9
$PUCSORGLEFT
 10
0.0
 20
0.0
 30
0.0
  9
$PUCSORGRIGHT
 10
0.0
 20
0.0
 30
0.0
  9
$PUCSORGFRONT
 10
0.0
 20
0.0
 30
0.0
  9
$PUCSORGBACK
 10
0.0
 20
0.0
 30
0.0
  9
$USERI1
 70
     0
  9
$USERI2
 70
     0
  9
$USERI3
 70
     0
  9
$USERI4
 70
     0
  9
$USERI5
 70
     0
  9
$USERR1
 40
0.0
  9
$USERR2
 40
0.0
  9
$USERR3
 40
0.0
  9
$USERR4
 40
0.0
  9
$USERR5
 40
0.0
  9
$WORLDVIEW
 70
     1
  9
$SHADEDGE
 70
     3
  9
$SHADEDIF
 70
    70
  9
$TILEMODE
 70
     1
  9
$MAXACTVP
 70
    64
  9
$PINSBASE
 10
0.0
 20
0.0
 30
0.0
  9
$PLIMCHECK
 70
     0
  9
$PEXTMIN
 10
1.0000000000E+20
 20
1.0000000000E+20
 30
1.0000000000E+20
  9
$PEXTMAX
 10
-1.0000000000E+20
 20
-1.0000000000E+20
 30
-1.0000000000E+20
  9
$PLIMMIN
 10
0.0
 20
0.0
  9
$PLIMMAX
 10
420.0
 20
297.0
  9
$UNITMODE
 70
     0
  9
$VISRETAIN
 70
     1
  9
$PLINEGEN
 70
     0
  9
$PSLTSCALE
 70
     1
  9
$TREEDEPTH
 70
  3020
  9
$CMLSTYLE
  2
Standard
  9
$CMLJUST
 70
     0
  9
$CMLSCALE
 40
20.0
  9
$PROXYGRAPHICS
 70
     1
  9
$MEASUREMENT
 70
     1
  9
$CELWEIGHT
370
    -1
  9
$ENDCAPS
280
     0
  9
$JOINSTYLE
280
     0
  9
$LWDISPLAY
290
     1
  9
$INSUNITS
 70
     4
  9
$HYPERLINKBASE
  1

  9
$STYLESHEET
  1

  9
$XEDIT
290
     1
  9
$CEPSNTYPE
380
     0
  9
$PSTYLEMODE
290
     1
  9
$FINGERPRINTGUID
  2
{321EA7ED-1BD8-4603-AE0C-8F10F95951EB}
  9
$VERSIONGUID
  2
{FAEB1C32-E019-11D5-929B-00C0DF256EC4}
  9
$EXTNAMES
290
     1
  9
$PSVPSCALE
 40
0.0
  9
$OLESTARTUP
290
     0
  0
ENDSEC
  0
SECTION
  2
CLASSES
  0
CLASS
  1
ACDBDICTIONARYWDFLT
  2
AcDbDictionaryWithDefault
  3
ObjectDBX Classes
 90
        0
280
     0
281
     0
  0
CLASS
  1
VISUALSTYLE
  2
AcDbVisualStyle
  3
ObjectDBX Classes
 90
     4095
280
     0
281
     0
  0
CLASS
  1
MATERIAL
  2
AcDbMaterial
  3
ObjectDBX Classes
 90
     1153
280
     0
281
     0
  0
CLASS
  1
SCALE
  2
AcDbScale
  3
ObjectDBX Classes
 90
     1153
280
     0
281
     0
  0
CLASS
  1
TABLESTYLE
  2
AcDbTableStyle
  3
ObjectDBX Classes
 90
     4095
280
     0
281
     0
  0
CLASS
  1
MLEADERSTYLE
  2
AcDbMLeaderStyle
  3
ACDB_MLEADERSTYLE_CLASS
 90
     4095
280
     0
281
     0
  0
CLASS
  1
SUN
  2
AcDbSun
  3
SCENEOE
 90
     1153
280
     0
281
     0
  0
CLASS
  1
ACDBPLACEHOLDER
  2
AcDbPlaceHolder
  3
ObjectDBX Classes
 90
        0
280
     0
281
     0
  0
CLASS
  1
LAYOUT
  2
AcDbLayout
  3
ObjectDBX Classes
 90
        0
280
     0
281
     0
  0
ENDSEC
  0
SECTION
  2
TABLES
  0
TABLE
  2
VPORT
  5
8
330
0
100
AcDbSymbolTable
 70
     1
  0
VPORT
  5
29
330
8
100
AcDbSymbolTableRecord
100
AcDbViewportTableRecord
  2
*Active
 70
     0
 10
0.0
 20
0.0
 11
1.0
 21
1.0
 12
0.0
 22
0.0
 13
0.0
 23
0.0
 14
10.0
 24
10.0
 15
10.0
 25
10.0
 16
0.0
 26
0.0
 36
1.0
 17
0.0
 27
0.0
 37
0.0
 40
61.2
 41
1.9333333333
 42
50.0
 43
0.0
 44
0.0
 50
0.0
 51
0.0
 71
     0
 72
   100
 73
     1
 74
     3
 75
     0
 76
     0
 77
     0
 78
     0
281
     0
 65
     1
110
0.0
120
0.0
130
0.0
111
1.0
121
0.0
131
0.0
112
0.0
122
1.0
132
0.0
 79
     0
146
0.0
  0
ENDTAB
  0
TABLE
  2
LTYPE
  5
5
330
0
100
AcDbSymbolTable
 70
     6
  0
LTYPE
  5
14
330
5
100
AcDbSymbolTableRecord
100
AcDbLinetypeTableRecord
  2
ByBlock
 70
     0
  3

 72
    65
 73
     0
 40
0.0
  0
LTYPE
  5
15
330
5
100
AcDbSymbolTableRecord
100
AcDbLinetypeTableRecord
  2
ByLayer
 70
     0
  3

 72
    65
 73
     0
 40
0.0
  0
LTYPE
  5
16
330
5
100
AcDbSymbolTableRecord
100
AcDbLinetypeTableRecord
  2
Continuous
 70
     0
  3
Solid line
 72
    65
 73
     0
 40
0.0
  0
LTYPE
  5
6E
330
5
100
AcDbSymbolTableRecord
100
AcDbLinetypeTableRecord
  2
HIDDEN
 70
     0
  3
Hidden __ __ __ __ __ __ __ __ __ __ __ __ __ __
 72
    65
 73
     2
 40
1.905
 49
1.27
 74
     0
 49
-0.635
 74
     0
  0
LTYPE
  5
6F
330
5
100
AcDbSymbolTableRecord
100
AcDbLinetypeTableRecord
  2
PHANTOM
 70
     0
  3
Phantom ______  __  __  ______  __  __  ______
 72
    65
 73
     6
 40
12.7
 49
6.35
 74
     0
 49
-1.27
 74
     0
 49
1.27
 74
     0
 49
-1.27
 74
     0
 49
1.27
 74
     0
 49
-1.27
 74
     0
  0
LTYPE
  5
70
330
5
100
AcDbSymbolTableRecord
100
AcDbLinetypeTableRecord
  2
CENTER
 70
     0
  3
Center ____ _ ____ _ ____ _ ____ _ ____ _ ____
 72
    65
 73
     4
 40
10.16
 49
6.35
 74
     0
 49
-1.27
 74
     0
 49
1.27
 74
     0
 49
-1.27
 74
     0
  0
LTYPE
  5
71
330
5
100
AcDbSymbolTableRecord
100
AcDbLinetypeTableRecord
  2
CENTERX2
 70
     0
  3
Center (2x) ________  __  ________  __  _____
 72
    65
 73
     4
 40
20.32
 49
12.7
 74
     0
 49
-2.54
 74
     0
 49
2.54
 74
     0
 49
-2.54
 74
     0
  0
LTYPE
  5
72
330
5
100
AcDbSymbolTableRecord
100
AcDbLinetypeTableRecord
  2
DOT2
 70
     0
  3
Dot (.5x) ........................................
 72
    65
 73
     2
 40
0.635
 49
0.0
 74
     0
 49
-0.635
 74
     0
  0
ENDTAB
  0
TABLE
  2
LAYER
  5
2
330
0
100
AcDbSymbolTable
 70
     1
  0
LAYER
  5
10
330
2
100
AcDbSymbolTableRecord
100
AcDbLayerTableRecord
  2
0
 70
     0
 62
     7
  6
Continuous
370
    -3
390
F
  0
ENDTAB
  0
TABLE
  2
STYLE
  5
3
330
0
100
AcDbSymbolTable
 70
     1
  0
STYLE
  5
11
330
3
100
AcDbSymbolTableRecord
100
AcDbTextStyleTableRecord
  2
Standard
 70
     0
 40
0.0
 41
1.0
 50
0.0
 71
     0
 42
6.35
  3
txt
  4

  0
ENDTAB
  0
TABLE
  2
VIEW
  5
6
330
0
100
AcDbSymbolTable
 70
     0
  0
ENDTAB
  0
TABLE
  2
UCS
  5
7
330
0
100
AcDbSymbolTable
 70
     0
  0
ENDTAB
  0
TABLE
  2
APPID
  5
9
330
0
100
AcDbSymbolTable
 70
     1
  0
APPID
  5
12
330
9
100
AcDbSymbolTableRecord
100
AcDbRegAppTableRecord
  2
ACAD
 70
     0
  0
ENDTAB
  0
TABLE
  2
DIMSTYLE
  5
A
330
0
100
AcDbSymbolTable
 70
     1
100
AcDbDimStyleTable
  0
DIMSTYLE
105
27
330
A
100
AcDbSymbolTableRecord
100
AcDbDimStyleTableRecord
  2
ISO-25
 70
     0
 41
2.5
 42
0.625
 43
3.75
 44
1.25
 73
     0
 74
     0
 77
     1
 78
     8
140
2.5
141
2.5
143
0.0393700787
147
0.625
171
     3
172
     1
178
     0
271
     2
272
     2
274
     3
278
    44
283
     0
284
     8
340
11
  0
ENDTAB
  0
TABLE
  2
BLOCK_RECORD
  5
1
330
0
100
AcDbSymbolTable
 70
     1
  0
BLOCK_RECORD
  5
1F
330
1
100
AcDbSymbolTableRecord
100
AcDbBlockTableRecord
  2
*Model_Space
340
22
  0
BLOCK_RECORD
  5
1B
330
1
100
AcDbSymbolTableRecord
100
AcDbBlockTableRecord
  2
*Paper_Space
340
1E
  0
BLOCK_RECORD
  5
23
330
1
100
AcDbSymbolTableRecord
100
AcDbBlockTableRecord
  2
*Paper_Space0
340
26
  0
ENDTAB
  0
ENDSEC
  0
SECTION
  2
BLOCKS
  0
BLOCK
  5
20
330
1F
100
AcDbEntity
  8
0
100
AcDbBlockBegin
  2
*Model_Space
 70
     0
 10
0.0
 20
0.0
 30
0.0
  3
*Model_Space
  1

  0
ENDBLK
  5
21
330
1F
100
AcDbEntity
  8
0
100
AcDbBlockEnd
  0
BLOCK
  5
1C
330
1B
100
AcDbEntity
 67
     1
  8
0
100
AcDbBlockBegin
  2
*Paper_Space
 70
     0
 10
0.0
 20
0.0
 30
0.0
  3
*Paper_Space
  1

  0
ENDBLK
  5
1D
330
1B
100
AcDbEntity
 67
     1
  8
0
100
AcDbBlockEnd
  0
BLOCK
  5
24
330
23
100
AcDbEntity
  8
0
100
AcDbBlockBegin
  2
*Paper_Space0
 70
     0
 10
0.0
 20
0.0
 30
0.0
  3
*Paper_Space0
  1

  0
ENDBLK
  5
25
330
23
100
AcDbEntity
  8
0
100
AcDbBlockEnd
  0
ENDSEC
  0
SECTION
  2
ENTITIES
  0
SPLINE
  5
73
330
1F
100
AcDbEntity
  8
0
  6
Continuous
 62
     7
370
    25
100
AcDbSpline
210
0.0
220
0.0
230
1.0
 70
     8
 71
     3
 72
    23
 73
    19
 74
     0
 42
0.000000001
 43
0.00000001
 40
0.0
 40
0.0
 40
0.0
 40
0.0
 40
0.0719186150438968
 40
0.1389333130549058
 40
0.2015581427900237
 40
0.2601932573814958
 40
0.3154346828687253
 40
0.3687725654205005
 40
0.4198289546271913
 40
0.470683095018277
 40
0.5227554380168634
 40
0.5775911682304593
 40
0.6363238454760766
 40
0.6987976449638298
 40
0.7667624721781602
 40
0.8385655616351773
 40
0.9167363563308701
 40
1.0
 40
1.0
 40
1.0
 40
1.0
 10
48.10416666666669
 20
6.95052083333335
 30
0.0
 10
48.10266205397248
 20
7.053690503910317
 30
0.0
 10
48.09975542366067
 20
7.252995011252293
 30
0.0
 10
48.06710505848839
 20
7.54070643504485
 30
0.0
 10
48.01190507677513
 20
7.805387233479391
 30
0.0
 10
47.93710051488454
 20
8.047512670892495
 30
0.0
 10
47.84395839117148
 20
8.269216877783721
 30
0.0
 10
47.72289762232482
 20
8.464625006295218
 30
0.0
 10
47.58026568619403
 20
8.636290211849971
 30
0.0
 10
47.41918979946207
 20
8.7881934319665
 30
0.0
 10
47.23440477285541
 20
8.920037311990528
 30
0.0
 10
47.02331081589374
 20
9.030275664678006
 30
0.0
 10
46.78842664201551
 20
9.123543124745249
 30
0.0
 10
46.52870987487226
 20
9.203350415623165
 30
0.0
 10
46.24366527312999
 20
9.258801967187534
 30
0.0
 10
45.93401018700094
 20
9.301799499323023
 30
0.0
 10
45.6002480076065
 20
9.32734496304601
 30
0.0
 10
45.36874970377304
 20
9.33129566501319
 30
0.0
 10
45.24934895833336
 20
9.33333333333335
 30
0.0
  0
SPLINE
  5
74
330
1F
100
AcDbEntity
  8
0
  6
Continuous
 62
     7
370
    25
100
AcDbSpline
210
0.0
220
0.0
230
1.0
 70
     8
 71
     3
 72
    23
 73
    19
 74
     0
 42
0.000000001
 43
0.00000001
 40
0.0
 40
0.0
 40
0.0
 40
0.0
 40
0.0737398049527446
 40
0.1433022122146289
 40
0.2098927426503103
 40
0.2721913780721889
 40
0.3324916680369833
 40
0.3910998471960621
 40
0.4472889983332546
 40
0.5029877080002193
 40
0.55879081089573
 40
0.6140348703985866
 40
0.671109792339791
 40
0.7304510721527928
 40
0.7919212016221527
 40
0.8573360186567944
 40
0.926233890939881
 40
1.0
 40
1.0
 40
1.0
 40
1.0
 10
45.31770833333336
 20
4.333333333333351
 30
0.0
 10
45.42518281990144
 20
4.335188042058279
 30
0.0
 10
45.63404330836772
 20
4.338792389309623
 30
0.0
 10
45.93908527024561
 20
4.367312400618381
 30
0.0
 10
46.22361297952298
 20
4.420407994200643
 30
0.0
 10
46.49156306702354
 20
4.487098596778931
 30
0.0
 10
46.7393079627663
 20
4.579798992552197
 30
0.0
 10
46.97075784533877
 20
4.688382946250131
 30
0.0
 10
47.18130314772041
 20
4.821341026782889
 30
0.0
 10
47.37518386884683
 20
4.970809326933406
 30
0.0
 10
47.54808473088161
 20
5.142766700403822
 30
0.0
 10
47.69607151495767
 20
5.338878919393506
 30
0.0
 10
47.82376780895271
 20
5.554593109526349
 30
0.0
 10
47.92829207899177
 20
5.792697632138435
 30
0.0
 10
48.00470985775348
 20
6.053584007833538
 30
0.0
 10
48.06472665025944
 20
6.332922409041098
 30
0.0
 10
48.09543109016252
 20
6.635180748100669
 30
0.0
 10
48.10118931038547
 20
6.843043120437917
 30
0.0
 10
48.1041666666667
 20
6.950520833333351
 30
0.0
  0
SPLINE
  5
7C
330
1F
100
AcDbEntity
  8
0
  6
Continuous
 62
     7
370
    25
100
AcDbSpline
210
0.0
220
0.0
230
1.0
 70
     8
 71
     3
 72
    23
 73
    19
 74
     0
 42
0.000000001
 43
0.00000001
 40
0.0
 40
0.0
 40
0.0
 40
0.0
 40
0.0773814514239529
 40
0.1503845304466173
 40
0.2198679373192121
 40
0.2854898157167944
 40
0.3478640103658843
 40
0.4071315348753647
 40
0.4646576629042732
 40
0.5203550355170271
 40
0.5748111714841622
 40
0.6292673074512974
 40
0.6836872879628809
 40
0.740511151857922
 40
0.7996456899817793
 40
0.8621564744567736
 40
0.928746993839205
 40
0.9999999999999999
 40
0.9999999999999999
 40
0.9999999999999999
 40
0.9999999999999999
 10
-32.85286458333331
 20
-3.999999999999983
 30
0.0
 10
-33.01677377429562
 20
-3.997544016380176
 30
0.0
 10
-33.33531789908471
 20
-3.992771012815981
 30
0.0
 10
-33.79998627500051
 20
-3.954577847011539
 30
0.0
 10
-34.23543923456673
 20
-3.88476694355346
 30
0.0
 10
-34.64489030720227
 20
-3.796890154847781
 30
0.0
 10
-35.02267098534302
 20
-3.674410017580215
 30
0.0
 10
-35.37518705125302
 20
-3.532524369691395
 30
0.0
 10
-35.69757716904559
 20
-3.359187639351117
 30
0.0
 10
-35.99331329408139
 20
-3.161218377949231
 30
0.0
 10
-36.25664828508727
 20
-2.931177750073654
 30
0.0
 10
-36.48586965111388
 20
-2.67055043261284
 30
0.0
 10
-36.67732686251806
 20
-2.374947251208131
 30
0.0
 10
-36.8320747489734
 20
-2.048056487013475
 30
0.0
 10
-36.95727145557075
 20
-1.690519573329206
 30
0.0
 10
-37.04357223959733
 20
-1.300511014357548
 30
0.0
 10
-37.09641083631303
 20
-0.8786344967334107
 30
0.0
 10
-37.10152374273355
 20
-0.5865361084600265
 30
0.0
 10
-37.10416666666664
 20
-0.4355468749999828
 30
0.0
  0
SPLINE
  5
80
330
1F
100
AcDbEntity
  8
0
  6
Continuous
 62
     7
370
    25
100
AcDbSpline
210
0.0
220
0.0
230
1.0
 70
     8
 71
     3
 72
    19
 73
    15
 74
     0
 42
0.000000001
 43
0.00000001
 40
0.0
 40
0.0
 40
0.0
 40
0.0
 40
0.0747623165892831
 40
0.1446441446101494
 40
0.2091104329250576
 40
0.2688368456982994
 40
0.3261009507569416
 40
0.3805625133425163
 40
0.4341812929727488
 40
0.4881809526998027
 40
0.6003485385929039
 40
0.7204762173796503
 40
0.853622958206844
 40
1.0
 40
1.0
 40
1.0
 40
1.0
 10
-34.81249999999998
 20
-0.4420572916666496
 30
0.0
 10
-34.81049958438501
 20
-0.5180888560936213
 30
0.0
 10
-34.80662934040795
 20
-0.6651886398032028
 30
0.0
 10
-34.78066354906868
 20
-0.8766039418473955
 30
0.0
 10
-34.73895428620182
 20
-1.069780938527424
 30
0.0
 10
-34.68064907209401
 20
-1.245349161053814
 30
0.0
 10
-34.60263600009101
 20
-1.402028067189994
 30
0.0
 10
-34.50653241109036
 20
-1.540476284674245
 30
0.0
 10
-34.39586404135005
 20
-1.663673392016384
 30
0.0
 10
-34.21662038976112
 20
-1.798822172132413
 30
0.0
 10
-33.95558579022114
 20
-1.931839395749665
 30
0.0
 10
-33.60074146250956
 20
-2.046173423942979
 30
0.0
 10
-33.19826631943162
 20
-2.113369844657868
 30
0.0
 10
-32.91389138326782
 20
-2.121002854098897
 30
0.0
 10
-32.76497395833331
 20
-2.124999999999983
 30
0.0
  0
SPLINE
  5
8A
330
1F
100
AcDbEntity
  8
0
  6
Continuous
 62
     7
370
    25
100
AcDbSpline
210
0.0
220
0.0
230
1.0
 70
     8
 71
     3
 72
    23
 73
    19
 74
     0
 42
0.000000001
 43
0.00000001
 40
0.0
 40
0.0
 40
0.0
 40
0.0
 40
0.0773814514239539
 40
0.1503845304466172
 40
0.2198679373192125
 40
0.2854898157167953
 40
0.3478640103658842
 40
0.4071315348753656
 40
0.4646576629042731
 40
0.5203550355170274
 40
0.5748111714841625
 40
0.6292673074512977
 40
0.683687287962881
 40
0.7405111518579223
 40
0.7996456899817793
 40
0.8621564744567737
 40
0.9287469938392051
 40
0.9999999999999999
 40
0.9999999999999999
 40
0.9999999999999999
 40
0.9999999999999999
 10
-20.14453124999997
 20
-3.999999999999983
 30
0.0
 10
-20.30844044096229
 20
-3.997544016380177
 30
0.0
 10
-20.62698456575137
 20
-3.992771012815982
 30
0.0
 10
-21.09165294166717
 20
-3.954577847011539
 30
0.0
 10
-21.5271059012334
 20
-3.88476694355346
 30
0.0
 10
-21.93655697386895
 20
-3.796890154847784
 30
0.0
 10
-22.31433765200968
 20
-3.67441001758021
 30
0.0
 10
-22.66685371791971
 20
-3.532524369691401
 30
0.0
 10
-22.98924383571224
 20
-3.359187639351112
 30
0.0
 10
-23.28497996074807
 20
-3.161218377949233
 30
0.0
 10
-23.54831495175392
 20
-2.931177750073654
 30
0.0
 10
-23.77753631778057
 20
-2.670550432612841
 30
0.0
 10
-23.96899352918471
 20
-2.374947251208129
 30
0.0
 10
-24.12374141564008
 20
-2.048056487013477
 30
0.0
 10
-24.2489381222374
 20
-1.690519573329204
 30
0.0
 10
-24.33523890626401
 20
-1.300511014357549
 30
0.0
 10
-24.38807750297971
 20
-0.8786344967334109
 30
0.0
 10
-24.39319040940021
 20
-0.5865361084600266
 30
0.0
 10
-24.39583333333331
 20
-0.4355468749999828
 30
0.0
  0
SPLINE
  5
8E
330
1F
100
AcDbEntity
  8
0
  6
Continuous
 62
     7
370
    25
100
AcDbSpline
210
0.0
220
0.0
230
1.0
 70
     8
 71
     3
 72
    19
 73
    15
 74
     0
 42
0.000000001
 43
0.00000001
 40
0.0
 40
0.0
 40
0.0
 40
0.0
 40
0.0747623165892831
 40
0.1446441446101497
 40
0.2091104329250577
 40
0.2688368456983002
 40
0.3261009507569426
 40
0.3805625133425167
 40
0.43418129297275
 40
0.4881809526998039
 40
0.6003485385929045
 40
0.7204762173796511
 40
0.853622958206846
 40
1.0
 40
1.0
 40
1.0
 40
1.0
 10
-22.10416666666664
 20
-0.4420572916666496
 30
0.0
 10
-22.10216625105168
 20
-0.5180888560936214
 30
0.0
 10
-22.09829600707462
 20
-0.6651886398032031
 30
0.0
 10
-22.07233021573535
 20
-0.8766039418473948
 30
0.0
 10
-22.0306209528685
 20
-1.069780938527426
 30
0.0
 10
-21.97231573876066
 20
-1.245349161053812
 30
0.0
 10
-21.89430266675767
 20
-1.402028067189992
 30
0.0
 10
-21.79819907775702
 20
-1.540476284674247
 30
0.0
 10
-21.68753070801672
 20
-1.663673392016382
 30
0.0
 10
-21.50828705642777
 20
-1.798822172132412
 30
0.0
 10
-21.24725245688781
 20
-1.931839395749665
 30
0.0
 10
-20.89240812917623
 20
-2.04617342394298
 30
0.0
 10
-20.48993298609828
 20
-2.113369844657868
 30
0.0
 10
-20.20555804993448
 20
-2.121002854098896
 30
0.0
 10
-20.05664062499998
 20
-2.124999999999983
 30
0.0
  0
SPLINE
  5
98
330
1F
100
AcDbEntity
  8
0
  6
Continuous
 62
     7
370
    25
100
AcDbSpline
210
0.0
220
0.0
230
1.0
 70
     8
 71
     3
 72
    23
 73
    19
 74
     0
 42
0.000000001
 43
0.00000001
 40
0.0
 40
0.0
 40
0.0
 40
0.0
 40
0.0773814514239534
 40
0.1503845304466173
 40
0.2198679373192123
 40
0.2854898157167949
 40
0.3478640103658844
 40
0.4071315348753655
 40
0.4646576629042731
 40
0.5203550355170274
 40
0.5748111714841627
 40
0.6292673074512978
 40
0.683687287962881
 40
0.7405111518579223
 40
0.7996456899817793
 40
0.8621564744567737
 40
0.9287469938392051
 40
1.0
 40
1.0
 40
1.0
 40
1.0
 10
-7.436197916666642
 20
-3.999999999999983
 30
0.0
 10
-7.600107107628955
 20
-3.997544016380176
 30
0.0
 10
-7.918651232418042
 20
-3.992771012815982
 30
0.0
 10
-8.383319608333837
 20
-3.954577847011538
 30
0.0
 10
-8.818772567900073
 20
-3.88476694355346
 30
0.0
 10
-9.228223640535623
 20
-3.796890154847784
 30
0.0
 10
-9.60600431867634
 20
-3.674410017580211
 30
0.0
 10
-9.958520384586375
 20
-3.532524369691399
 30
0.0
 10
-10.28091050237892
 20
-3.359187639351113
 30
0.0
 10
-10.57664662741473
 20
-3.161218377949231
 30
0.0
 10
-10.8399816184206
 20
-2.931177750073655
 30
0.0
 10
-11.06920298444723
 20
-2.670550432612841
 30
0.0
 10
-11.26066019585138
 20
-2.374947251208128
 30
0.0
 10
-11.41540808230674
 20
-2.048056487013477
 30
0.0
 10
-11.54060478890407
 20
-1.690519573329204
 30
0.0
 10
-11.62690557293068
 20
-1.300511014357549
 30
0.0
 10
-11.67974416964637
 20
-0.8786344967334103
 30
0.0
 10
-11.68485707606688
 20
-0.5865361084600262
 30
0.0
 10
-11.68749999999998
 20
-0.4355468749999828
 30
0.0
  0
SPLINE
  5
9C
330
1F
100
AcDbEntity
  8
0
  6
Continuous
 62
     7
370
    25
100
AcDbSpline
210
0.0
220
0.0
230
1.0
 70
     8
 71
     3
 72
    19
 73
    15
 74
     0
 42
0.000000001
 43
0.00000001
 40
0.0
 40
0.0
 40
0.0
 40
0.0
 40
0.074762316589283
 40
0.1446441446101496
 40
0.2091104329250575
 40
0.2688368456983001
 40
0.3261009507569424
 40
0.3805625133425165
 40
0.4341812929727498
 40
0.4881809526998037
 40
0.6003485385929042
 40
0.7204762173796506
 40
0.853622958206845
 40
1.0
 40
1.0
 40
1.0
 40
1.0
 10
-9.395833333333309
 20
-0.4420572916666497
 30
0.0
 10
-9.39383291771835
 20
-0.5180888560936215
 30
0.0
 10
-9.389962673741296
 20
-0.6651886398032035
 30
0.0
 10
-9.363996882402006
 20
-0.8766039418473943
 30
0.0
 10
-9.322287619535166
 20
-1.069780938527426
 30
0.0
 10
-9.263982405427335
 20
-1.245349161053812
 30
0.0
 10
-9.185969333424337
 20
-1.402028067189993
 30
0.0
 10
-9.089865744423687
 20
-1.540476284674247
 30
0.0
 10
-8.979197374683391
 20
-1.663673392016383
 30
0.0
 10
-8.79995372309444
 20
-1.798822172132412
 30
0.0
 10
-8.538919123554484
 20
-1.931839395749666
 30
0.0
 10
-8.184074795842896
 20
-2.046173423942979
 30
0.0
 10
-7.781599652764949
 20
-2.113369844657868
 30
0.0
 10
-7.497224716601145
 20
-2.121002854098896
 30
0.0
 10
-7.348307291666642
 20
-2.124999999999983
 30
0.0
  0
SPLINE
  5
B3
330
1F
100
AcDbEntity
  8
0
  6
Continuous
 62
     7
370
    25
100
AcDbSpline
210
0.0
220
0.0
230
1.0
 70
     8
 71
     3
 72
    23
 73
    19
 74
     0
 42
0.000000001
 43
0.00000001
 40
0.0
 40
0.0
 40
0.0
 40
0.0
 40
0.0648990443948746
 40
0.1254234269792613
 40
0.1824553915257733
 40
0.237476723007676
 40
0.2915763295319395
 40
0.3457467146650328
 40
0.4005027806337344
 40
0.4567346901449465
 40
0.5156567783845682
 40
0.5766211261867813
 40
0.6408927966944384
 40
0.708024961561981
 40
0.7784073717514615
 40
0.8501392003127989
 40
0.9242667735957828
 40
1.0
 40
1.0
 40
1.0
 40
1.0
 10
26.85416666666671
 20
7.660156250000017
 30
0.0
 10
26.86004230790172
 20
7.821058674239101
 30
0.0
 10
26.87139752994339
 20
8.132017543441355
 30
0.0
 10
26.95132177367798
 20
8.579286302763014
 30
0.0
 10
27.09333411727313
 20
8.984551360090537
 30
0.0
 10
27.28632065198537
 20
9.350420043875223
 30
0.0
 10
27.53180345690322
 20
9.674110255000528
 30
0.0
 10
27.81345458167668
 20
9.965008741966843
 30
0.0
 10
28.13107138379351
 20
10.22519412569501
 30
0.0
 10
28.49072364664933
 20
10.4464827700857
 30
0.0
 10
28.88437466921648
 20
10.6365391610638
 30
0.0
 10
29.31094979836604
 20
10.80074714480164
 30
0.0
 10
29.76982836565849
 20
10.93253163733349
 30
0.0
 10
30.25963322619597
 20
11.03583769982185
 30
0.0
 10
30.77303997201785
 20
11.11182556034743
 30
0.0
 10
31.30642246636794
 20
11.16607483209476
 30
0.0
 10
31.854687578823
 20
11.20462223684577
 30
0.0
 10
32.22627708615591
 20
11.20708749666218
 30
0.0
 10
32.41406250000004
 20
11.20833333333335
 30
0.0
  0
SPLINE
  5
B4
330
1F
100
AcDbEntity
  8
0
  6
Continuous
 62
     7
370
    25
100
AcDbSpline
210
0.0
220
0.0
230
1.0
 70
     8
 71
     3
 72
    27
 73
    23
 74
     0
 42
0.000000001
 43
0.00000001
 40
0.0
 40
0.0
 40
0.0
 40
0.0
 40
0.0295690332875716
 40
0.0594271441935083
 40
0.0911253893288087
 40
0.1252959438278431
 40
0.1621513664305979
 40
0.2007949026947564
 40
0.2419624262014239
 40
0.2853743772875417
 40
0.3769013293595683
 40
0.4733019806681036
 40
0.5707985865492072
 40
0.6658640336677573
 40
0.7117086432809792
 40
0.7562690777287723
 40
0.7991364316224988
 40
0.8407012326661013
 40
0.880904737583079
 40
0.9204839036396006
 40
0.9595513969339703
 40
1.0
 40
1.0
 40
1.0
 40
1.0
 10
34.35416666666671
 20
-0.6373697916666499
 30
0.0
 10
34.34676133975967
 20
-0.5227140633841181
 30
0.0
 10
34.33187828877779
 20
-0.2922816907396723
 30
0.0
 10
34.22487619548093
 20
0.0476203157441793
 30
0.0
 10
34.04909024887419
 20
0.3762763998418602
 30
0.0
 10
33.80181174051868
 20
0.6898366021579149
 30
0.0
 10
33.50954013618821
 20
0.998534112324622
 30
0.0
 10
33.17762563987513
 20
1.305744295494509
 30
0.0
 10
32.81049700535547
 20
1.611291510802887
 30
0.0
 10
32.261807061644
 20
2.017098090591562
 30
0.0
 10
31.52594957497052
 20
2.529018518054734
 30
0.0
 10
30.5985874187673
 20
3.131410735070546
 30
0.0
 10
29.6718977363711
 20
3.759742714185933
 30
0.0
 10
28.93545070373682
 20
4.318752630147944
 30
0.0
 10
28.39394546543133
 20
4.791525531803506
 30
0.0
 10
28.02595882052918
 20
5.154340942481245
 30
0.0
 10
27.69681119448181
 20
5.530843673921238
 30
0.0
 10
27.40041687206044
 20
5.912466984345095
 30
0.0
 10
27.1527190957414
 20
6.314116369936472
 30
0.0
 10
26.98032224237681
 20
6.743184452630336
 30
0.0
 10
26.87516671958917
 20
7.19505850217408
 30
0.0
 10
26.86124727295412
 20
7.50333883388793
 30
0.0
 10
26.85416666666671
 20
7.660156250000017
 30
0.0
  0
SPLINE
  5
B5
330
1F
100
AcDbEntity
  8
0
  6
Continuous
 62
     7
370
    25
100
AcDbSpline
210
0.0
220
0.0
230
1.0
 70
     8
 71
     3
 72
    19
 73
    15
 74
     0
 42
0.000000001
 43
0.00000001
 40
0.0
 40
0.0
 40
0.0
 40
0.0
 40
0.1554304160515134
 40
0.2975094116429174
 40
0.4277140888905783
 40
0.5479163716689164
 40
0.6045929116128439
 40
0.6584553403206758
 40
0.7111760538062204
 40
0.7634670134053106
 40
0.8180797858698765
 40
0.8743138123722868
 40
0.9352654171576305
 40
1.0
 40
1.0
 40
1.0
 40
1.0
 10
31.64908854166671
 20
-2.333333333333317
 30
0.0
 10
31.83697915945915
 20
-2.329020843450181
 30
0.0
 10
32.1966206541723
 20
-2.320766305114373
 30
0.0
 10
32.71091563130113
 20
-2.257022292566845
 30
0.0
 10
33.17286501405069
 20
-2.146594595406826
 30
0.0
 10
33.52365626560066
 20
-2.019306549553245
 30
0.0
 10
33.76737862337134
 20
-1.882819903802831
 30
0.0
 10
33.92790210111436
 20
-1.766298898584163
 30
0.0
 10
34.05758254822963
 20
-1.623331059287264
 30
0.0
 10
34.16830051167413
 20
-1.46460122646566
 30
0.0
 10
34.25223906434695
 20
-1.285046330078814
 30
0.0
 10
34.31087951222396
 20
-1.085267813021394
 30
0.0
 10
34.34647598772156
 20
-0.8675843897374027
 30
0.0
 10
34.35155217827838
 20
-0.7156325039408623
 30
0.0
 10
34.35416666666671
 20
-0.6373697916666499
 30
0.0
  0
SPLINE
  5
B6
330
1F
100
AcDbEntity
  8
0
  6
Continuous
 62
     7
370
    25
100
AcDbSpline
210
0.0
220
0.0
230
1.0
 70
     8
 71
     3
 72
    15
 73
    11
 74
     0
 42
0.000000001
 43
0.00000001
 40
0.0
 40
0.0
 40
0.0
 40
0.0
 40
0.1034811537850735
 40
0.2143204374285162
 40
0.3316267914091475
 40
0.4570426190331112
 40
0.5874491068694612
 40
0.7208911180650152
 40
0.8580476710840731
 40
1.0
 40
1.0
 40
1.0
 40
1.0
 10
27.35221354166671
 20
-1.568359374999983
 30
0.0
 10
27.49752511335675
 20
-1.609902247938065
 30
0.0
 10
27.7984807798612
 20
-1.695941940910752
 30
0.0
 10
28.26590875463622
 20
-1.82289734371777
 30
0.0
 10
28.76667013851565
 20
-1.948984452382449
 30
0.0
 10
29.29530268928929
 20
-2.081201198415523
 30
0.0
 10
29.85205263632891
 20
-2.198490499473051
 30
0.0
 10
30.43335510979727
 20
-2.272831052626989
 30
0.0
 10
31.0339960840211
 20
-2.324778682718619
 30
0.0
 10
31.4417224756143
 20
-2.330449304725304
 30
0.0
 10
31.6490885416667
 20
-2.333333333333316
 30
0.0
  0
SPLINE
  5
B8
330
1F
100
AcDbEntity
  8
0
  6
Continuous
 62
     7
370
    25
100
AcDbSpline
210
0.0
220
0.0
230
1.0
 70
     8
 71
     3
 72
    15
 73
    11
 74
     0
 42
0.000000001
 43
0.00000001
 40
0.0
 40
0.0
 40
0.0
 40
0.0
 40
0.1458301700711832
 40
0.2858888433953545
 40
0.4218967721314725
 40
0.5530436912790812
 40
0.6775571294156468
 40
0.7936028987634486
 40
0.901065319008679
 40
1.0
 40
1.0
 40
1.0
 40
1.0
 10
31.72395833333337
 20
-4.208333333333315
 30
0.0
 10
31.49271858982999
 20
-4.205710332927457
 30
0.0
 10
31.03939084026385
 20
-4.200568142173033
 30
0.0
 10
30.37243923348458
 20
-4.145297914825915
 30
0.0
 10
29.73156953760936
 20
-4.064481805589953
 30
0.0
 10
29.12275084842015
 20
-3.940488345252628
 30
0.0
 10
28.54961207215377
 20
-3.803517749842506
 30
0.0
 10
28.01598283813544
 20
-3.663284470655432
 30
0.0
 10
27.5238935268934
 20
-3.524673692593098
 30
0.0
 10
27.21200235793206
 20
-3.425698242025312
 30
0.0
 10
27.06250000000004
 20
-3.378255208333316
 30
0.0
  0
SPLINE
  5
B9
330
1F
100
AcDbEntity
  8
0
  6
Continuous
 62
     7
370
    25
100
AcDbSpline
210
0.0
220
0.0
230
1.0
 70
     8
 71
     3
 72
    23
 73
    19
 74
     0
 42
0.000000001
 43
0.00000001
 40
0.0
 40
0.0
 40
0.0
 40
0.0
 40
0.0671996315078412
 40
0.1300609716218761
 40
0.1890583842286814
 40
0.2455169389844328
 40
0.3000423507819377
 40
0.3535913476687069
 40
0.4077989346373407
 40
0.4629526373460379
 40
0.5194330484371158
 40
0.578748630545945
 40
0.6409950383654837
 40
0.7067777628383426
 40
0.7757478577435394
 40
0.8474208129303609
 40
0.9219692451095304
 40
1.0
 40
1.0
 40
1.0
 40
1.0
 10
36.85416666666671
 20
-0.5494791666666495
 30
0.0
 10
36.85001048143265
 20
-0.7103082162152075
 30
0.0
 10
36.84196642705837
 20
-1.021583471450313
 30
0.0
 10
36.77409104343604
 20
-1.470156946730163
 30
0.0
 10
36.65682523167001
 20
-1.881635704464519
 30
0.0
 10
36.49247906047074
 20
-2.254822843214174
 30
0.0
 10
36.29022320390149
 20
-2.593943308068369
 30
0.0
 10
36.04488013781922
 20
-2.896208503216815
 30
0.0
 10
35.76484772630328
 20
-3.168986088783095
 30
0.0
 10
35.44238932554884
 20
-3.401950673780921
 30
0.0
 10
35.08764820009325
 20
-3.607236234138081
 30
0.0
 10
34.69435550969936
 20
-3.772713819912793
 30
0.0
 10
34.2700868729375
 20
-3.918583957964115
 30
0.0
 10
33.81058577884232
 20
-4.026559045892349
 30
0.0
 10
33.32290682284245
 20
-4.10575565309065
 30
0.0
 10
32.81123428582703
 20
-4.164092154745734
 30
0.0
 10
32.27569979254486
 20
-4.200581421148907
 30
0.0
 10
31.91064934153842
 20
-4.205710343385645
 30
0.0
 10
31.72395833333337
 20
-4.208333333333315
 30
0.0
  0
SPLINE
  5
BA
330
1F
100
AcDbEntity
  8
0
  6
Continuous
 62
     7
370
    25
100
AcDbSpline
210
0.0
220
0.0
230
1.0
 70
     8
 71
     3
 72
    27
 73
    23
 74
     0
 42
0.000000001
 43
0.00000001
 40
0.0
 40
0.0
 40
0.0
 40
0.0
 40
0.0259606733975115
 40
0.0527238982009046
 40
0.0815067467710414
 40
0.1135080632983162
 40
0.1483863872899863
 40
0.1855878180112382
 40
0.2251525638995953
 40
0.2672037454986856
 40
0.3566501169772446
 40
0.4525575275299085
 40
0.5501651170289598
 40
0.6455147080439516
 40
0.6921241523651162
 40
0.7377075157641939
 40
0.7826945393260041
 40
0.8267656939108831
 40
0.8701465320221264
 40
0.9127126168313807
 40
0.9559030241228559
 40
1.0
 40
1.0
 40
1.0
 40
1.0
 10
29.35416666666671
 20
7.705729166666684
 30
0.0
 10
29.36140946789475
 20
7.605005926312054
 30
0.0
 10
29.3761189751864
 20
7.400445675134912
 30
0.0
 10
29.48862994681119
 20
7.101368396227389
 30
0.0
 10
29.66581996404227
 20
6.810691817313066
 30
0.0
 10
29.91109763431198
 20
6.531289391869914
 30
0.0
 10
30.2040009943553
 20
6.253994686328872
 30
0.0
 10
30.53841498669709
 20
5.979622485260825
 30
0.0
 10
30.9023287439443
 20
5.69782967514121
 30
0.0
 10
31.4478610517113
 20
5.321604038816391
 30
0.0
 10
32.18681158363721
 20
4.842443131583905
 30
0.0
 10
33.11186549128304
 20
4.255167235973134
 30
0.0
 10
34.04320912430411
 20
3.634444764991144
 30
0.0
 10
34.77280143469537
 20
3.059465589392062
 30
0.0
 10
35.31341090409428
 20
2.573778585108408
 30
0.0
 10
35.67874336817163
 20
2.187278778835584
 30
0.0
 10
36.01061112842189
 20
1.78470172461429
 30
0.0
 10
36.30758348171495
 20
1.365582057024248
 30
0.0
 10
36.5502441640002
 20
0.9229529913315979
 30
0.0
 10
36.73170487312956
 20
0.4549264804657012
 30
0.0
 10
36.83194029748553
 20
-0.0406740036760926
 30
0.0
 10
36.84670675535963
 20
-0.37870717248471
 30
0.0
 10
36.85416666666671
 20
-0.5494791666666495
 30
0.0
  0
SPLINE
  5
BB
330
1F
100
AcDbEntity
  8
0
  6
Continuous
 62
     7
370
    25
100
AcDbSpline
210
0.0
220
0.0
230
1.0
 70
     8
 71
     3
 72
    21
 73
    17
 74
     0
 42
0.000000001
 43
0.00000001
 40
0.0
 40
0.0
 40
0.0
 40
0.0
 40
0.1639635138880447
 40
0.3150306123416103
 40
0.3843496350801306
 40
0.4501114341893478
 40
0.5114117819081045
 40
0.5690704082707169
 40
0.6238703439825775
 40
0.6755546423920975
 40
0.7271260856065231
 40
0.7771661959300338
 40
0.8275884015452145
 40
0.8804982221611118
 40
0.9378170283999923
 40
1.0
 40
1.0
 40
1.0
 40
1.0
 10
32.41406250000004
 20
9.33333333333335
 30
0.0
 10
32.19918381537671
 20
9.331012656949477
 30
0.0
 10
31.78632755247502
 20
9.326553835075496
 30
0.0
 10
31.28309882980759
 20
9.29382589806897
 30
0.0
 10
30.91125643507223
 20
9.24494873438969
 30
0.0
 10
30.65753853812407
 20
9.199515352381066
 30
0.0
 10
30.42550842487442
 20
9.1289711543509
 30
0.0
 10
30.21242374392227
 20
9.04841926381051
 30
0.0
 10
30.01872941841
 20
8.953034686487264
 30
0.0
 10
29.85001974446116
 20
8.8317043421199
 30
0.0
 10
29.70010395928741
 20
8.697189449758751
 30
0.0
 10
29.5738872312437
 20
8.54177686875347
 30
0.0
 10
29.47469014537876
 20
8.365890219550872
 30
0.0
 10
29.40226188199676
 20
8.167248908426346
 30
0.0
 10
29.36020996909924
 20
7.944041657684044
 30
0.0
 10
29.3562350323644
 20
7.78729340861118
 30
0.0
 10
29.35416666666671
 20
7.705729166666684
 30
0.0
  0
SPLINE
  5
BC
330
1F
100
AcDbEntity
  8
0
  6
Continuous
 62
     7
370
    25
100
AcDbSpline
210
0.0
220
0.0
230
1.0
 70
     8
 71
     3
 72
    15
 73
    11
 74
     0
 42
0.000000001
 43
0.00000001
 40
0.0
 40
0.0
 40
0.0
 40
0.0
 40
0.1036295303678869
 40
0.2232445193455596
 40
0.3527556919554916
 40
0.4865356887596438
 40
0.6219134821745191
 40
0.7578551934097688
 40
0.8853811194250977
 40
0.9999999999999999
 40
0.9999999999999999
 40
0.9999999999999999
 40
0.9999999999999999
 10
35.96875000000004
 20
8.949218750000018
 30
0.0
 10
35.84738249870588
 20
8.972939526926337
 30
0.0
 10
35.58592585218437
 20
9.02404014877245
 30
0.0
 10
35.16926400348375
 20
9.084231486821055
 30
0.0
 10
34.71723341665914
 20
9.150496910791148
 30
0.0
 10
34.24491938870025
 20
9.207151413477774
 30
0.0
 10
33.76457538366619
 20
9.261404629821314
 30
0.0
 10
33.29005234363893
 20
9.297900238616046
 30
0.0
 10
32.83973212996072
 20
9.326328394539773
 30
0.0
 10
32.55081906530104
 20
9.33108282894655
 30
0.0
 10
32.41406250000004
 20
9.33333333333335
 30
0.0
  0
SPLINE
  5
BE
330
1F
100
AcDbEntity
  8
0
  6
Continuous
 62
     7
370
    25
100
AcDbSpline
210
0.0
220
0.0
230
1.0
 70
     8
 71
     3
 72
    15
 73
    11
 74
     0
 42
0.000000001
 43
0.00000001
 40
0.0
 40
0.0
 40
0.0
 40
0.0
 40
0.1341836820052654
 40
0.2736722873001037
 40
0.4142304745097507
 40
0.5506417072719271
 40
0.6803724121738202
 40
0.799440271040172
 40
0.9068980834681005
 40
1.0
 40
1.0
 40
1.0
 40
1.0
 10
32.41406250000004
 20
11.20833333333335
 30
0.0
 10
32.58336496465072
 20
11.20617173159771
 30
0.0
 10
32.92866323083391
 20
11.20176306966219
 30
0.0
 10
33.45070934892689
 20
11.17443366025035
 30
0.0
 10
33.97470788251391
 20
11.13509983174926
 30
0.0
 10
34.48581309947829
 20
11.08959136413852
 30
0.0
 10
34.96953662019083
 20
11.04123591360884
 30
0.0
 10
35.41424512895036
 20
10.974974267847
 30
0.0
 10
35.81143120911869
 20
10.9047405399018
 30
0.0
 10
36.05893451212354
 20
10.85197040496956
 30
0.0
 10
36.17382812500004
 20
10.82747395833335
 30
0.0
  0
SPLINE
  5
BF
330
1F
100
AcDbEntity
  8
0
  6
Continuous
 62
     7
370
    25
100
AcDbSpline
210
0.0
220
0.0
230
1.0
 70
     8
 71
     3
 72
    13
 73
     9
 74
     0
 42
0.000000001
 43
0.00000001
 40
0.0
 40
0.0
 40
0.0
 40
0.0
 40
0.099252625189107
 40
0.2090888057752347
 40
0.3289611460258863
 40
0.459599807959183
 40
0.7299335887373813
 40
0.9999999999999999
 40
0.9999999999999999
 40
0.9999999999999999
 40
0.9999999999999999
 10
45.34049479166669
 20
-4.208333333333315
 30
0.0
 10
45.17552827906414
 20
-4.206242892079476
 30
0.0
 10
44.82800446246731
 20
-4.201839100598135
 30
0.0
 10
44.28199554621273
 20
-4.170512719610334
 30
0.0
 10
43.6850900460442
 20
-4.121118994611043
 30
0.0
 10
42.82414812677863
 20
-4.030184287554124
 30
0.0
 10
41.71932683655488
 20
-3.873763103483683
 30
0.0
 10
40.8368522960982
 20
-3.706157281715877
 30
0.0
 10
40.39583333333336
 20
-3.622395833333316
 30
0.0
  0
SPLINE
  5
C0
330
1F
100
AcDbEntity
  8
0
  6
Continuous
 62
     7
370
    25
100
AcDbSpline
210
0.0
220
0.0
230
1.0
 70
     8
 71
     3
 72
    23
 73
    19
 74
     0
 42
0.000000001
 43
0.00000001
 40
0.0
 40
0.0
 40
0.0
 40
0.0
 40
0.0625615489396168
 40
0.1215808116630698
 40
0.1777142255161316
 40
0.2320805914616204
 40
0.2854707832627983
 40
0.3384881681114047
 40
0.391866178019366
 40
0.446184675704686
 40
0.502773856514007
 40
0.5615723309480979
 40
0.623643398126066
 40
0.6897234232419899
 40
0.7598741866119625
 40
0.8348022021941567
 40
0.9148984008536788
 40
1.0
 40
1.0
 40
1.0
 40
1.0
 10
51.02083333333336
 20
0.0462239583333499
 30
0.0
 10
51.01641709554207
 20
-0.122169436478319
 30
0.0
 10
51.0078346709656
 20
-0.4494216539651816
 30
0.0
 10
50.94263739926149
 20
-0.924326386702276
 30
0.0
 10
50.83204991231924
 20
-1.367806004874019
 30
0.0
 10
50.67552578242012
 20
-1.781402811394987
 30
0.0
 10
50.47169968913477
 20
-2.164168803726327
 30
0.0
 10
50.22716900322745
 20
-2.519237340393824
 30
0.0
 10
49.93456595921077
 20
-2.839466268641095
 30
0.0
 10
49.59857560024359
 20
-3.128236334078819
 30
0.0
 10
49.22016369818448
 20
-3.385665742292433
 30
0.0
 10
48.79641429970669
 20
-3.608084753840353
 30
0.0
 10
48.32746860939697
 20
-3.792537254616048
 30
0.0
 10
47.81528358761378
 20
-3.944124854085615
 30
0.0
 10
47.25948892743791
 20
-4.065241229964124
 30
0.0
 10
46.65863770026036
 20
-4.146849557789803
 30
0.0
 10
46.01422302525618
 20
-4.200706794269366
 30
0.0
 10
45.56956186400745
 20
-4.205740316018065
 30
0.0
 10
45.3404947916667
 20
-4.208333333333316
 30
0.0
  0
SPLINE
  5
C1
330
1F
100
AcDbEntity
  8
0
  6
Continuous
 62
     7
370
    25
100
AcDbSpline
210
0.0
220
0.0
230
1.0
 70
     8
 71
     3
 72
    21
 73
    17
 74
     0
 42
0.000000001
 43
0.00000001
 40
0.0
 40
0.0
 40
0.0
 40
0.0
 40
0.1129558701170698
 40
0.2279753068469516
 40
0.2854392918302129
 40
0.3430412995021211
 40
0.3993279591909588
 40
0.4567732670245144
 40
0.5149941707893247
 40
0.5749583828611148
 40
0.6368147184584165
 40
0.7016789418623453
 40
0.7692208998889134
 40
0.8415650069625027
 40
0.9180394159237332
 40
1.0
 40
1.0
 40
1.0
 40
1.0
 10
48.19531250000002
 20
3.607421875000016
 30
0.0
 10
48.37584616379041
 20
3.557556176616263
 30
0.0
 10
48.74021162223151
 20
3.456913794078805
 30
0.0
 10
49.17351191363164
 20
3.263768189551824
 30
0.0
 10
49.50967109343981
 20
3.084002515011869
 30
0.0
 10
49.74623963776511
 20
2.926048353499949
 30
0.0
 10
49.96358731105412
 20
2.743041202969771
 30
0.0
 10
50.16639876218826
 20
2.54244516428033
 30
0.0
 10
50.34876595184328
 20
2.315173293925583
 30
0.0
 10
50.51558954889623
 20
2.067598345321507
 30
0.0
 10
50.6628224003347
 20
1.795127645990596
 30
0.0
 10
50.78900855754392
 20
1.498782942218942
 30
0.0
 10
50.89580745610124
 20
1.176350660971468
 30
0.0
 10
50.96930117052273
 20
0.8248792336542042
 30
0.0
 10
51.01055997247334
 20
0.4443441598149471
 30
0.0
 10
51.01733072872383
 20
0.1819592519596171
 30
0.0
 10
51.02083333333336
 20
0.0462239583333499
 30
0.0
  0
SPLINE
  5
C2
330
1F
100
AcDbEntity
  8
0
  6
Continuous
 62
     7
370
    25
100
AcDbSpline
210
0.0
220
0.0
230
1.0
 70
     8
 71
     3
 72
    19
 73
    15
 74
     0
 42
0.000000001
 43
0.00000001
 40
0.0
 40
0.0
 40
0.0
 40
0.0
 40
0.0805520656875015
 40
0.1556948289724221
 40
0.2272284994567695
 40
0.294732301204732
 40
0.3586171918269189
 40
0.4193676157851484
 40
0.4781648346725286
 40
0.5348229379901371
 40
0.6462588643258562
 40
0.7600013623710352
 40
0.8767035409888122
 40
1.0
 40
1.0
 40
1.0
 40
1.0
 10
50.60416666666669
 20
7.110026041666682
 30
0.0
 10
50.60236327359282
 20
6.98627545356476
 30
0.0
 10
50.59887759046588
 20
6.747084484527263
 30
0.0
 10
50.57004300810497
 20
6.398859263457555
 30
0.0
 10
50.51793395678695
 20
6.073700653602063
 30
0.0
 10
50.4468804207761
 20
5.7699156048018
 30
0.0
 10
50.35629544439207
 20
5.488517799813543
 30
0.0
 10
50.24428670966224
 20
5.229673541885964
 30
0.0
 10
50.11665277032919
 20
4.990149628727659
 30
0.0
 10
49.90889949547525
 20
4.70933548772996
 30
0.0
 10
49.61133332997204
 20
4.392469992338442
 30
0.0
 10
49.19488144306436
 20
4.069376848283407
 30
0.0
 10
48.71936841463609
 20
3.801287998415398
 30
0.0
 10
48.37316857126568
 20
3.673216890568362
 30
0.0
 10
48.19531250000002
 20
3.607421875000016
 30
0.0
  0
SPLINE
  5
C3
330
1F
100
AcDbEntity
  8
0
  6
Continuous
 62
     7
370
    25
100
AcDbSpline
210
0.0
220
0.0
230
1.0
 70
     8
 71
     3
 72
    23
 73
    19
 74
     0
 42
0.000000001
 43
0.00000001
 40
0.0
 40
0.0
 40
0.0
 40
0.0
 40
0.0796885922311091
 40
0.1560883542452806
 40
0.2284706179016111
 40
0.2975732651583042
 40
0.3631676898444177
 40
0.4251347014123527
 40
0.4833360131880533
 40
0.5391710480443832
 40
0.5931826795702367
 40
0.6464735821809324
 40
0.6996181192320907
 40
0.7534629602268504
 40
0.8094472647134758
 40
0.8683690445598614
 40
0.9318907925870009
 40
1.0
 40
1.0
 40
1.0
 40
1.0
 10
45.25260416666669
 20
11.00000000000002
 30
0.0
 10
45.45342121229213
 20
10.99770949196707
 30
0.0
 10
45.84676737738899
 20
10.99322300752509
 30
0.0
 10
46.4211841979882
 20
10.95212297701469
 30
0.0
 10
46.96734575910077
 20
10.89357995593174
 30
0.0
 10
47.48106894943393
 20
10.80085803318593
 30
0.0
 10
47.96429480495762
 20
10.68858325586431
 30
0.0
 10
48.40694085259609
 20
10.53418829989564
 30
0.0
 10
48.81254793092855
 20
10.35310064575715
 30
0.0
 10
49.17606622353379
 20
10.13370575006029
 30
0.0
 10
49.50090937593727
 20
9.880621183513844
 30
0.0
 10
49.79119022882895
 20
9.597451015719509
 30
0.0
 10
50.03551064772105
 20
9.27434065369706
 30
0.0
 10
50.24412689058461
 20
8.919451401467
 30
0.0
 10
50.40698201569225
 20
8.525207105901648
 30
0.0
 10
50.52479153573101
 20
8.090216349086369
 30
0.0
 10
50.59191346432379
 20
7.613426363136326
 30
0.0
 10
50.59998845889954
 20
7.281680036621898
 30
0.0
 10
50.60416666666669
 20
7.110026041666682
 30
0.0
  0
SPLINE
  5
EA
330
1F
100
AcDbEntity
  8
0
  6
Continuous
 62
     7
370
    25
100
AcDbSpline
210
0.0
220
0.0
230
1.0
 70
     8
 71
     3
 72
    23
 73
    19
 74
     0
 42
0.000000001
 43
0.00000001
 40
0.0
 40
0.0
 40
0.0
 40
0.0
 40
0.0942469437621012
 40
0.1804927398962627
 40
0.2595742149037293
 40
0.3320123256439015
 40
0.3983561950030793
 40
0.4603088767077367
 40
0.5172941819919661
 40
0.5708033188338508
 40
0.6223538893323489
 40
0.6728428813379219
 40
0.7230923985135618
 40
0.7736703167385028
 40
0.8265749116172671
 40
0.8813379123701252
 40
0.9394411665895882
 40
1.0
 40
1.0
 40
1.0
 40
1.0
 10
45.26562500000003
 20
-2.333333333333316
 30
0.0
 10
45.41436711492914
 20
-2.332083044431436
 30
0.0
 10
45.69922379876271
 20
-2.329688610611579
 30
0.0
 10
46.10750202674451
 20
-2.294519834536376
 30
0.0
 10
46.47999246428645
 20
-2.248916947474583
 30
0.0
 10
46.81699239214447
 20
-2.178336049727792
 30
0.0
 10
47.11927079783243
 20
-2.082571050052659
 30
0.0
 10
47.38999291075604
 20
-1.970932345394098
 30
0.0
 10
47.62742811298807
 20
-1.836568274374574
 30
0.0
 10
47.8323011687022
 20
-1.682278451591856
 30
0.0
 10
48.00585574343951
 20
-1.507734748787742
 30
0.0
 10
48.15364058453279
 20
-1.317620223360091
 30
0.0
 10
48.27576458969244
 20
-1.111568954817122
 30
0.0
 10
48.36719693370762
 20
-0.8860149869286819
 30
0.0
 10
48.43260320725047
 20
-0.644826781146929
 30
0.0
 10
48.48742501049932
 20
-0.3888285034161241
 30
0.0
 10
48.5150841922522
 20
-0.1160647709424371
 30
0.0
 10
48.51889069586133
 20
0.071131581082517
 30
0.0
 10
48.52083333333336
 20
0.1666666666666839
 30
0.0
  0
SPLINE
  5
EB
330
1F
100
AcDbEntity
  8
0
  6
Continuous
 62
     7
370
    25
100
AcDbSpline
210
0.0
220
0.0
230
1.0
 70
     8
 71
     3
 72
    13
 73
     9
 74
     0
 42
0.000000001
 43
0.00000001
 40
0.0
 40
0.0
 40
0.0
 40
0.0
 40
0.2664884684887063
 40
0.5355410732475131
 40
0.6665714290593968
 40
0.7874849497990365
 40
0.8994271010398821
 40
0.9999999999999999
 40
0.9999999999999999
 40
0.9999999999999999
 40
0.9999999999999999
 10
42.68750000000003
 20
-2.115234374999983
 30
0.0
 10
42.91513429311718
 20
-2.148435200440139
 30
0.0
 10
43.37259316304598
 20
-2.215156307697649
 30
0.0
 10
43.94545088273397
 20
-2.272055976891975
 30
0.0
 10
44.394307658366
 20
-2.299704463505307
 30
0.0
 10
44.70765406760863
 20
-2.321898307122187
 30
0.0
 10
44.99538592099197
 20
-2.330907197936922
 30
0.0
 10
45.17881639666357
 20
-2.332553988517462
 30
0.0
 10
45.26562500000004
 20
-2.333333333333317
 30
0.0
  0
SPLINE
  5
EE
330
1F
100
AcDbEntity
  8
0
  6
Continuous
 62
     7
370
    25
100
AcDbSpline
210
0.0
220
0.0
230
1.0
 70
     8
 71
     3
 72
    23
 73
    19
 74
     0
 42
0.000000001
 43
0.00000001
 40
0.0
 40
0.0
 40
0.0
 40
0.0
 40
0.0649661016865283
 40
0.1261091920715315
 40
0.1838952811294265
 40
0.2386670494890384
 40
0.2911991291612409
 40
0.3418605311989427
 40
0.3917119969802291
 40
0.441578128552207
 40
0.4928326412258876
 40
0.5481710902353963
 40
0.6079475243409684
 40
0.6735520462946827
 40
0.7448946679850582
 40
0.8230989725538578
 40
0.9078141887505429
 40
1.0
 40
1.0
 40
1.0
 40
1.0
 10
48.52083333333336
 20
0.1666666666666839
 30
0.0
 10
48.51929776492774
 20
0.2676631530449405
 30
0.0
 10
48.516316990555
 20
0.4637128615634142
 30
0.0
 10
48.48362365907784
 20
0.7481953784989962
 30
0.0
 10
48.42781456953195
 20
1.012572848652402
 30
0.0
 10
48.35435486849172
 20
1.258921042064224
 30
0.0
 10
48.25552636594232
 20
1.484204921932058
 30
0.0
 10
48.13857274743162
 20
1.691902646920634
 30
0.0
 10
47.99721240285705
 20
1.878917656545781
 30
0.0
 10
47.83265902581388
 20
2.046992362723504
 30
0.0
 10
47.64021802714105
 20
2.197125081441706
 30
0.0
 10
47.41321573687051
 20
2.322641869015777
 30
0.0
 10
47.1533633603152
 20
2.430524471990256
 30
0.0
 10
46.85954284050444
 20
2.516765050891378
 30
0.0
 10
46.53186246858806
 20
2.584844593996824
 30
0.0
 10
46.17062760153502
 20
2.632145664694833
 30
0.0
 10
45.77501680855684
 20
2.661726754336621
 30
0.0
 10
45.50005671351501
 20
2.66497431401259
 30
0.0
 10
45.35677083333336
 20
2.666666666666683
 30
0.0
  0
LINE
  5
EF
330
1F
100
AcDbEntity
  8
0
  6
Continuous
 62
     7
370
    25
100
AcDbLine
 10
42.6875
 20
4.3333333333
 30
0.0
 11
45.3177083333
 21
4.3333333333
 31
0.0
  0
LINE
  5
F0
330
1F
100
AcDbEntity
  8
0
  6
Continuous
 62
     7
370
    25
100
AcDbLine
 10
42.6875
 20
9.3333333333
 30
0.0
 11
42.6875
 21
4.3333333333
 31
0.0
  0
LINE
  5
F1
330
1F
100
AcDbEntity
  8
0
  6
Continuous
 62
     7
370
    25
100
AcDbLine
 10
45.2493489583
 20
9.3333333333
 30
0.0
 11
42.6875
 21
9.3333333333
 31
0.0
  0
LINE
  5
F2
330
1F
100
AcDbEntity
  8
0
  6
Continuous
 62
     7
370
    25
100
AcDbLine
 10
-41.6875
 20
-4.0
 30
0.0
 11
-43.9791666667
 21
-4.0
 31
0.0
  0
LINE
  5
F3
330
1F
100
AcDbEntity
  8
0
  6
Continuous
 62
     7
370
    25
100
AcDbLine
 10
-41.6875
 20
11.0
 30
0.0
 11
-41.6875
 21
-4.0
 31
0.0
  0
LINE
  5
F4
330
1F
100
AcDbEntity
  8
0
  6
Continuous
 62
     7
370
    25
100
AcDbLine
 10
-43.9791666667
 20
11.0
 30
0.0
 11
-41.6875
 21
11.0
 31
0.0
  0
LINE
  5
F5
330
1F
100
AcDbEntity
  8
0
  6
Continuous
 62
     7
370
    25
100
AcDbLine
 10
-43.9791666667
 20
-4.0
 30
0.0
 11
-43.9791666667
 21
11.0
 31
0.0
  0
LINE
  5
F6
330
1F
100
AcDbEntity
  8
0
  6
Continuous
 62
     7
370
    25
100
AcDbLine
 10
-27.9049479167
 20
-4.0
 30
0.0
 11
-32.8528645833
 21
-4.0
 31
0.0
  0
LINE
  5
F7
330
1F
100
AcDbEntity
  8
0
  6
Continuous
 62
     7
370
    25
100
AcDbLine
 10
-27.9049479167
 20
-2.125
 30
0.0
 11
-27.9049479167
 21
-4.0
 31
0.0
  0
LINE
  5
F8
330
1F
100
AcDbEntity
  8
0
  6
Continuous
 62
     7
370
    25
100
AcDbLine
 10
-32.7649739583
 20
-2.125
 30
0.0
 11
-27.9049479167
 21
-2.125
 31
0.0
  0
LINE
  5
F9
330
1F
100
AcDbEntity
  8
0
  6
Continuous
 62
     7
370
    25
100
AcDbLine
 10
-34.8125
 20
2.6666666667
 30
0.0
 11
-34.8125
 21
-0.4420572917
 31
0.0
  0
LINE
  5
FA
330
1F
100
AcDbEntity
  8
0
  6
Continuous
 62
     7
370
    25
100
AcDbLine
 10
-28.8489583333
 20
2.6666666667
 30
0.0
 11
-34.8125
 21
2.6666666667
 31
0.0
  0
LINE
  5
FB
330
1F
100
AcDbEntity
  8
0
  6
Continuous
 62
     7
370
    25
100
AcDbLine
 10
-28.8489583333
 20
4.5416666667
 30
0.0
 11
-28.8489583333
 21
2.6666666667
 31
0.0
  0
LINE
  5
FC
330
1F
100
AcDbEntity
  8
0
  6
Continuous
 62
     7
370
    25
100
AcDbLine
 10
-34.8125
 20
4.5416666667
 30
0.0
 11
-28.8489583333
 21
4.5416666667
 31
0.0
  0
LINE
  5
FD
330
1F
100
AcDbEntity
  8
0
  6
Continuous
 62
     7
370
    25
100
AcDbLine
 10
-34.8125
 20
9.125
 30
0.0
 11
-34.8125
 21
4.5416666667
 31
0.0
  0
LINE
  5
FE
330
1F
100
AcDbEntity
  8
0
  6
Continuous
 62
     7
370
    25
100
AcDbLine
 10
-28.1946614583
 20
9.125
 30
0.0
 11
-34.8125
 21
9.125
 31
0.0
  0
LINE
  5
FF
330
1F
100
AcDbEntity
  8
0
  6
Continuous
 62
     7
370
    25
100
AcDbLine
 10
-28.1946614583
 20
11.0
 30
0.0
 11
-28.1946614583
 21
9.125
 31
0.0
  0
LINE
  5
100
330
1F
100
AcDbEntity
  8
0
  6
Continuous
 62
     7
370
    25
100
AcDbLine
 10
-37.1041666667
 20
11.0
 30
0.0
 11
-28.1946614583
 21
11.0
 31
0.0
  0
LINE
  5
101
330
1F
100
AcDbEntity
  8
0
  6
Continuous
 62
     7
370
    25
100
AcDbLine
 10
-37.1041666667
 20
-0.435546875
 30
0.0
 11
-37.1041666667
 21
11.0
 31
0.0
  0
LINE
  5
102
330
1F
100
AcDbEntity
  8
0
  6
Continuous
 62
     7
370
    25
100
AcDbLine
 10
-15.1966145833
 20
-4.0
 30
0.0
 11
-20.14453125
 21
-4.0
 31
0.0
  0
LINE
  5
103
330
1F
100
AcDbEntity
  8
0
  6
Continuous
 62
     7
370
    25
100
AcDbLine
 10
-15.1966145833
 20
-2.125
 30
0.0
 11
-15.1966145833
 21
-4.0
 31
0.0
  0
LINE
  5
104
330
1F
100
AcDbEntity
  8
0
  6
Continuous
 62
     7
370
    25
100
AcDbLine
 10
-20.056640625
 20
-2.125
 30
0.0
 11
-15.1966145833
 21
-2.125
 31
0.0
  0
LINE
  5
105
330
1F
100
AcDbEntity
  8
0
  6
Continuous
 62
     7
370
    25
100
AcDbLine
 10
-22.1041666667
 20
2.6666666667
 30
0.0
 11
-22.1041666667
 21
-0.4420572917
 31
0.0
  0
LINE
  5
106
330
1F
100
AcDbEntity
  8
0
  6
Continuous
 62
     7
370
    25
100
AcDbLine
 10
-16.140625
 20
2.6666666667
 30
0.0
 11
-22.1041666667
 21
2.6666666667
 31
0.0
  0
LINE
  5
107
330
1F
100
AcDbEntity
  8
0
  6
Continuous
 62
     7
370
    25
100
AcDbLine
 10
-16.140625
 20
4.5416666667
 30
0.0
 11
-16.140625
 21
2.6666666667
 31
0.0
  0
LINE
  5
108
330
1F
100
AcDbEntity
  8
0
  6
Continuous
 62
     7
370
    25
100
AcDbLine
 10
-22.1041666667
 20
4.5416666667
 30
0.0
 11
-16.140625
 21
4.5416666667
 31
0.0
  0
LINE
  5
109
330
1F
100
AcDbEntity
  8
0
  6
Continuous
 62
     7
370
    25
100
AcDbLine
 10
-22.1041666667
 20
9.125
 30
0.0
 11
-22.1041666667
 21
4.5416666667
 31
0.0
  0
LINE
  5
10A
330
1F
100
AcDbEntity
  8
0
  6
Continuous
 62
     7
370
    25
100
AcDbLine
 10
-15.486328125
 20
9.125
 30
0.0
 11
-22.1041666667
 21
9.125
 31
0.0
  0
LINE
  5
10B
330
1F
100
AcDbEntity
  8
0
  6
Continuous
 62
     7
370
    25
100
AcDbLine
 10
-15.486328125
 20
11.0
 30
0.0
 11
-15.486328125
 21
9.125
 31
0.0
  0
LINE
  5
10C
330
1F
100
AcDbEntity
  8
0
  6
Continuous
 62
     7
370
    25
100
AcDbLine
 10
-24.3958333333
 20
11.0
 30
0.0
 11
-15.486328125
 21
11.0
 31
0.0
  0
LINE
  5
10D
330
1F
100
AcDbEntity
  8
0
  6
Continuous
 62
     7
370
    25
100
AcDbLine
 10
-24.3958333333
 20
-0.435546875
 30
0.0
 11
-24.3958333333
 21
11.0
 31
0.0
  0
LINE
  5
10E
330
1F
100
AcDbEntity
  8
0
  6
Continuous
 62
     7
370
    25
100
AcDbLine
 10
-2.48828125
 20
-4.0
 30
0.0
 11
-7.4361979167
 21
-4.0
 31
0.0
  0
LINE
  5
10F
330
1F
100
AcDbEntity
  8
0
  6
Continuous
 62
     7
370
    25
100
AcDbLine
 10
-2.48828125
 20
-2.125
 30
0.0
 11
-2.48828125
 21
-4.0
 31
0.0
  0
LINE
  5
110
330
1F
100
AcDbEntity
  8
0
  6
Continuous
 62
     7
370
    25
100
AcDbLine
 10
-7.3483072917
 20
-2.125
 30
0.0
 11
-2.48828125
 21
-2.125
 31
0.0
  0
LINE
  5
111
330
1F
100
AcDbEntity
  8
0
  6
Continuous
 62
     7
370
    25
100
AcDbLine
 10
-9.3958333333
 20
2.6666666667
 30
0.0
 11
-9.3958333333
 21
-0.4420572917
 31
0.0
  0
LINE
  5
112
330
1F
100
AcDbEntity
  8
0
  6
Continuous
 62
     7
370
    25
100
AcDbLine
 10
-3.4322916667
 20
2.6666666667
 30
0.0
 11
-9.3958333333
 21
2.6666666667
 31
0.0
  0
LINE
  5
113
330
1F
100
AcDbEntity
  8
0
  6
Continuous
 62
     7
370
    25
100
AcDbLine
 10
-3.4322916667
 20
4.5416666667
 30
0.0
 11
-3.4322916667
 21
2.6666666667
 31
0.0
  0
LINE
  5
114
330
1F
100
AcDbEntity
  8
0
  6
Continuous
 62
     7
370
    25
100
AcDbLine
 10
-9.3958333333
 20
4.5416666667
 30
0.0
 11
-3.4322916667
 21
4.5416666667
 31
0.0
  0
LINE
  5
115
330
1F
100
AcDbEntity
  8
0
  6
Continuous
 62
     7
370
    25
100
AcDbLine
 10
-9.3958333333
 20
9.125
 30
0.0
 11
-9.3958333333
 21
4.5416666667
 31
0.0
  0
LINE
  5
116
330
1F
100
AcDbEntity
  8
0
  6
Continuous
 62
     7
370
    25
100
AcDbLine
 10
-2.7779947917
 20
9.125
 30
0.0
 11
-9.3958333333
 21
9.125
 31
0.0
  0
LINE
  5
117
330
1F
100
AcDbEntity
  8
0
  6
Continuous
 62
     7
370
    25
100
AcDbLine
 10
-2.7779947917
 20
11.0
 30
0.0
 11
-2.7779947917
 21
9.125
 31
0.0
  0
LINE
  5
118
330
1F
100
AcDbEntity
  8
0
  6
Continuous
 62
     7
370
    25
100
AcDbLine
 10
-11.6875
 20
11.0
 30
0.0
 11
-2.7779947917
 21
11.0
 31
0.0
  0
LINE
  5
119
330
1F
100
AcDbEntity
  8
0
  6
Continuous
 62
     7
370
    25
100
AcDbLine
 10
-11.6875
 20
-0.435546875
 30
0.0
 11
-11.6875
 21
11.0
 31
0.0
  0
LINE
  5
11A
330
1F
100
AcDbEntity
  8
0
  6
Continuous
 62
     7
370
    25
100
AcDbLine
 10
9.5625
 20
-4.0
 30
0.0
 11
7.2708333333
 21
-4.0
 31
0.0
  0
LINE
  5
11B
330
1F
100
AcDbEntity
  8
0
  6
Continuous
 62
     7
370
    25
100
AcDbLine
 10
9.5625
 20
7.796875
 30
0.0
 11
9.5625
 21
-4.0
 31
0.0
  0
LINE
  5
11C
330
1F
100
AcDbEntity
  8
0
  6
Continuous
 62
     7
370
    25
100
AcDbLine
 10
14.2337239583
 20
0.7330729167
 30
0.0
 11
9.5625
 21
7.796875
 31
0.0
  0
LINE
  5
11D
330
1F
100
AcDbEntity
  8
0
  6
Continuous
 62
     7
370
    25
100
AcDbLine
 10
16.1184895833
 20
0.7330729167
 30
0.0
 11
14.2337239583
 21
0.7330729167
 31
0.0
  0
LINE
  5
11E
330
1F
100
AcDbEntity
  8
0
  6
Continuous
 62
     7
370
    25
100
AcDbLine
 10
20.8125
 20
7.796875
 30
0.0
 11
16.1184895833
 21
0.7330729167
 31
0.0
  0
LINE
  5
11F
330
1F
100
AcDbEntity
  8
0
  6
Continuous
 62
     7
370
    25
100
AcDbLine
 10
20.8125
 20
-4.0
 30
0.0
 11
20.8125
 21
7.796875
 31
0.0
  0
LINE
  5
120
330
1F
100
AcDbEntity
  8
0
  6
Continuous
 62
     7
370
    25
100
AcDbLine
 10
23.1041666667
 20
-4.0
 30
0.0
 11
20.8125
 21
-4.0
 31
0.0
  0
LINE
  5
121
330
1F
100
AcDbEntity
  8
0
  6
Continuous
 62
     7
370
    25
100
AcDbLine
 10
23.1041666667
 20
11.0
 30
0.0
 11
23.1041666667
 21
-4.0
 31
0.0
  0
LINE
  5
122
330
1F
100
AcDbEntity
  8
0
  6
Continuous
 62
     7
370
    25
100
AcDbLine
 10
20.5553385417
 20
11.0
 30
0.0
 11
23.1041666667
 21
11.0
 31
0.0
  0
LINE
  5
123
330
1F
100
AcDbEntity
  8
0
  6
Continuous
 62
     7
370
    25
100
AcDbLine
 10
15.1875
 20
2.9010416667
 30
0.0
 11
20.5553385417
 21
11.0
 31
0.0
  0
LINE
  5
124
330
1F
100
AcDbEntity
  8
0
  6
Continuous
 62
     7
370
    25
100
AcDbLine
 10
9.8424479167
 20
11.0
 30
0.0
 11
15.1875
 21
2.9010416667
 31
0.0
  0
LINE
  5
125
330
1F
100
AcDbEntity
  8
0
  6
Continuous
 62
     7
370
    25
100
AcDbLine
 10
7.2708333333
 20
11.0
 30
0.0
 11
9.8424479167
 21
11.0
 31
0.0
  0
LINE
  5
126
330
1F
100
AcDbEntity
  8
0
  6
Continuous
 62
     7
370
    25
100
AcDbLine
 10
7.2708333333
 20
-4.0
 30
0.0
 11
7.2708333333
 21
11.0
 31
0.0
  0
LINE
  5
127
330
1F
100
AcDbEntity
  8
0
  6
Continuous
 62
     7
370
    25
100
AcDbLine
 10
27.0625
 20
-3.3782552083
 30
0.0
 11
27.3522135417
 21
-1.568359375
 31
0.0
  0
LINE
  5
128
330
1F
100
AcDbEntity
  8
0
  6
Continuous
 62
     7
370
    25
100
AcDbLine
 10
36.173828125
 20
10.8274739583
 30
0.0
 11
35.96875
 21
8.94921875
 31
0.0
  0
LINE
  5
129
330
1F
100
AcDbEntity
  8
0
  6
Continuous
 62
     7
370
    25
100
AcDbLine
 10
40.3958333333
 20
11.0
 30
0.0
 11
45.2526041667
 21
11.0
 31
0.0
  0
LINE
  5
12A
330
1F
100
AcDbEntity
  8
0
  6
Continuous
 62
     7
370
    25
100
AcDbLine
 10
40.3958333333
 20
-3.6223958333
 30
0.0
 11
40.3958333333
 21
11.0
 31
0.0
  0
LINE
  5
12B
330
1F
100
AcDbEntity
  8
0
  6
Continuous
 62
     7
370
    25
100
AcDbLine
 10
-46.5
 20
-14.0
 30
0.0
 11
-34.5
 21
-14.0
 31
0.0
  0
LINE
  5
12C
330
1F
100
AcDbEntity
  8
0
  6
Continuous
 62
     7
370
    25
100
AcDbLine
 10
-46.5
 20
-24.5
 30
0.0
 11
-46.5
 21
-14.0
 31
0.0
  0
LINE
  5
12D
330
1F
100
AcDbEntity
  8
0
  6
Continuous
 62
     7
370
    25
100
AcDbLine
 10
-46.5
 20
-24.5
 30
0.0
 11
-34.5
 21
-24.5
 31
0.0
  0
LINE
  5
12E
330
1F
100
AcDbEntity
  8
0
  6
Continuous
 62
     7
370
    25
100
AcDbLine
 10
-34.5
 20
-24.5
 30
0.0
 11
-34.5
 21
-14.0
 31
0.0
  0
LINE
  5
12F
330
1F
100
AcDbEntity
  8
0
  6
Continuous
 62
     7
370
    25
100
AcDbLine
 10
34.0
 20
-13.0
 30
0.0
 11
52.5
 21
-13.0
 31
0.0
  0
LINE
  5
130
330
1F
100
AcDbEntity
  8
0
  6
Continuous
 62
     7
370
    25
100
AcDbLine
 10
34.0
 20
-24.5
 30
0.0
 11
34.0
 21
-13.0
 31
0.0
  0
LINE
  5
131
330
1F
100
AcDbEntity
  8
0
  6
Continuous
 62
     7
370
    25
100
AcDbLine
 10
34.0
 20
-24.5
 30
0.0
 11
52.5
 21
-24.5
 31
0.0
  0
LINE
  5
132
330
1F
100
AcDbEntity
  8
0
  6
Continuous
 62
     7
370
    25
100
AcDbLine
 10
52.5
 20
-24.5
 30
0.0
 11
52.5
 21
-13.0
 31
0.0
  0
LINE
  5
133
330
1F
100
AcDbEntity
  8
0
  6
Continuous
 62
     7
370
    25
100
AcDbLine
 10
45.0
 20
-30.0
 30
0.0
 11
45.0
 21
-27.5
 31
0.0
  0
LINE
  5
134
330
1F
100
AcDbEntity
  8
0
  6
Continuous
 62
     7
370
    25
100
AcDbLine
 10
35.0
 20
-30.0
 30
0.0
 11
45.0
 21
-30.0
 31
0.0
  0
LINE
  5
135
330
1F
100
AcDbEntity
  8
0
  6
Continuous
 62
     7
370
    25
100
AcDbLine
 10
35.0
 20
-30.0
 30
0.0
 11
35.0
 21
-27.5
 31
0.0
  0
LINE
  5
136
330
1F
100
AcDbEntity
  8
0
  6
Continuous
 62
     7
370
    25
100
AcDbLine
 10
35.0
 20
-27.5
 30
0.0
 11
5.0
 21
-27.5
 31
0.0
  0
LINE
  5
137
330
1F
100
AcDbEntity
  8
0
  6
Continuous
 62
     7
370
    25
100
AcDbLine
 10
5.0
 20
-30.0
 30
0.0
 11
5.0
 21
-27.5
 31
0.0
  0
LINE
  5
138
330
1F
100
AcDbEntity
  8
0
  6
Continuous
 62
     7
370
    25
100
AcDbLine
 10
-5.0
 20
-30.0
 30
0.0
 11
5.0
 21
-30.0
 31
0.0
  0
LINE
  5
139
330
1F
100
AcDbEntity
  8
0
  6
Continuous
 62
     7
370
    25
100
AcDbLine
 10
-5.0
 20
-30.0
 30
0.0
 11
-5.0
 21
-27.5
 31
0.0
  0
LINE
  5
13A
330
1F
100
AcDbEntity
  8
0
  6
Continuous
 62
     7
370
    25
100
AcDbLine
 10
-35.0
 20
-27.5
 30
0.0
 11
-5.0
 21
-27.5
 31
0.0
  0
LINE
  5
13B
330
1F
100
AcDbEntity
  8
0
  6
Continuous
 62
     7
370
    25
100
AcDbLine
 10
-35.0
 20
-30.0
 30
0.0
 11
-35.0
 21
-27.5
 31
0.0
  0
LINE
  5
13C
330
1F
100
AcDbEntity
  8
0
  6
Continuous
 62
     7
370
    25
100
AcDbLine
 10
-45.0
 20
-30.0
 30
0.0
 11
-35.0
 21
-30.0
 31
0.0
  0
LINE
  5
13D
330
1F
100
AcDbEntity
  8
0
  6
Continuous
 62
     7
370
    25
100
AcDbLine
 10
-45.0
 20
-30.0
 30
0.0
 11
-45.0
 21
-27.5
 31
0.0
  0
LINE
  5
13E
330
1F
100
AcDbEntity
  8
0
  6
Continuous
 62
     7
370
    25
100
AcDbLine
 10
-58.0
 20
-27.5
 30
0.0
 11
-45.0
 21
-27.5
 31
0.0
  0
LINE
  5
13F
330
1F
100
AcDbEntity
  8
0
  6
Continuous
 62
     7
370
    25
100
AcDbLine
 10
-58.0
 20
27.5
 30
0.0
 11
-58.0
 21
-27.5
 31
0.0
  0
LINE
  5
140
330
1F
100
AcDbEntity
  8
0
  6
Continuous
 62
     7
370
    25
100
AcDbLine
 10
-45.0
 20
27.5
 30
0.0
 11
-58.0
 21
27.5
 31
0.0
  0
LINE
  5
141
330
1F
100
AcDbEntity
  8
0
  6
Continuous
 62
     7
370
    25
100
AcDbLine
 10
-45.0
 20
30.0
 30
0.0
 11
-45.0
 21
27.5
 31
0.0
  0
LINE
  5
142
330
1F
100
AcDbEntity
  8
0
  6
Continuous
 62
     7
370
    25
100
AcDbLine
 10
-45.0
 20
30.0
 30
0.0
 11
-35.0
 21
30.0
 31
0.0
  0
LINE
  5
143
330
1F
100
AcDbEntity
  8
0
  6
Continuous
 62
     7
370
    25
100
AcDbLine
 10
-35.0
 20
30.0
 30
0.0
 11
-35.0
 21
27.5
 31
0.0
  0
LINE
  5
144
330
1F
100
AcDbEntity
  8
0
  6
Continuous
 62
     7
370
    25
100
AcDbLine
 10
-35.0
 20
27.5
 30
0.0
 11
-5.0
 21
27.5
 31
0.0
  0
LINE
  5
145
330
1F
100
AcDbEntity
  8
0
  6
Continuous
 62
     7
370
    25
100
AcDbLine
 10
-5.0
 20
30.0
 30
0.0
 11
-5.0
 21
27.5
 31
0.0
  0
LINE
  5
146
330
1F
100
AcDbEntity
  8
0
  6
Continuous
 62
     7
370
    25
100
AcDbLine
 10
-5.0
 20
30.0
 30
0.0
 11
5.0
 21
30.0
 31
0.0
  0
LINE
  5
147
330
1F
100
AcDbEntity
  8
0
  6
Continuous
 62
     7
370
    25
100
AcDbLine
 10
5.0
 20
30.0
 30
0.0
 11
5.0
 21
27.5
 31
0.0
  0
LINE
  5
148
330
1F
100
AcDbEntity
  8
0
  6
Continuous
 62
     7
370
    25
100
AcDbLine
 10
5.0
 20
27.5
 30
0.0
 11
35.0
 21
27.5
 31
0.0
  0
LINE
  5
149
330
1F
100
AcDbEntity
  8
0
  6
Continuous
 62
     7
370
    25
100
AcDbLine
 10
35.0
 20
30.0
 30
0.0
 11
35.0
 21
27.5
 31
0.0
  0
LINE
  5
14A
330
1F
100
AcDbEntity
  8
0
  6
Continuous
 62
     7
370
    25
100
AcDbLine
 10
35.0
 20
30.0
 30
0.0
 11
45.0
 21
30.0
 31
0.0
  0
LINE
  5
14B
330
1F
100
AcDbEntity
  8
0
  6
Continuous
 62
     7
370
    25
100
AcDbLine
 10
45.0
 20
30.0
 30
0.0
 11
45.0
 21
27.5
 31
0.0
  0
LINE
  5
14C
330
1F
100
AcDbEntity
  8
0
  6
Continuous
 62
     7
370
    25
100
AcDbLine
 10
45.0
 20
27.5
 30
0.0
 11
58.0
 21
27.5
 31
0.0
  0
LINE
  5
14D
330
1F
100
AcDbEntity
  8
0
  6
Continuous
 62
     7
370
    25
100
AcDbLine
 10
58.0
 20
27.5
 30
0.0
 11
58.0
 21
-27.5
 31
0.0
  0
LINE
  5
14E
330
1F
100
AcDbEntity
  8
0
  6
Continuous
 62
     7
370
    25
100
AcDbLine
 10
58.0
 20
-27.5
 30
0.0
 11
45.0
 21
-27.5
 31
0.0
  0
LINE
  5
14F
330
1F
100
AcDbEntity
  8
0
  6
Continuous
 62
     7
370
    25
100
AcDbLine
 10
42.6875
 20
2.6666666667
 30
0.0
 11
42.6875
 21
-2.115234375
 31
0.0
  0
LINE
  5
150
330
1F
100
AcDbEntity
  8
0
  6
Continuous
 62
     7
370
    25
100
AcDbLine
 10
45.3567708333
 20
2.6666666667
 30
0.0
 11
42.6875
 21
2.6666666667
 31
0.0
  0
ENDSEC
  0
SECTION
  2
OBJECTS
  0
DICTIONARY
  5
C
330
0
100
AcDbDictionary
281
     1
  3
ACAD_GROUP
350
D
  3
ACAD_LAYOUT
350
1A
  3
ACAD_MLINESTYLE
350
17
  3
ACAD_PLOTSETTINGS
350
19
  3
ACAD_PLOTSTYLENAME
350
E
  3
ACAD_SCALELIST
350
47
  0
DICTIONARY
  5
D
102
{ACAD_REACTORS
330
C
102
}
330
C
100
AcDbDictionary
281
     1
  0
DICTIONARY
  5
1A
102
{ACAD_REACTORS
330
C
102
}
330
C
100
AcDbDictionary
281
     1
  3
Layout1
350
1E
  3
Layout2
350
26
  3
Model
350
22
  0
DICTIONARY
  5
17
102
{ACAD_REACTORS
330
C
102
}
330
C
100
AcDbDictionary
281
     1
  3
Standard
350
18
  0
DICTIONARY
  5
19
102
{ACAD_REACTORS
330
C
102
}
330
C
100
AcDbDictionary
281
     1
  0
ACDBDICTIONARYWDFLT
  5
E
102
{ACAD_REACTORS
330
C
102
}
330
C
100
AcDbDictionary
281
     1
  3
Normal
350
F
100
AcDbDictionaryWithDefault
340
F
  0
DICTIONARY
  5
47
102
{ACAD_REACTORS
330
C
102
}
330
C
100
AcDbDictionary
281
     1
  3
A0
350
48
  3
A1
350
49
  3
A2
350
4A
  3
A3
350
4B
  3
A4
350
4C
  3
A5
350
4D
  3
A6
350
4E
  3
A7
350
4F
  3
A8
350
50
  3
A9
350
51
  3
B0
350
52
  3
B1
350
53
  3
B2
350
54
  3
B3
350
55
  3
B4
350
56
  3
B5
350
57
  3
B6
350
58
  3
B7
350
59
  3
B8
350
5A
  3
B9
350
5B
  3
C0
350
5C
  3
C1
350
5D
  3
C2
350
5E
  3
C3
350
5F
  3
C4
350
60
  3
C5
350
61
  3
C6
350
62
  3
C7
350
63
  3
C8
350
64
  3
C9
350
65
  3
D0
350
66
  3
D1
350
67
  3
D2
350
68
  0
LAYOUT
  5
1E
102
{ACAD_REACTORS
330
1A
102
}
330
1A
100
AcDbPlotSettings
  1

  2
none_device
  4

  6

 40
0.0
 41
0.0
 42
0.0
 43
0.0
 44
0.0
 45
0.0
 46
0.0
 47
0.0
 48
0.0
 49
0.0
140
0.0
141
0.0
142
1.0
143
1.0
 70
   688
 72
     1
 73
     0
 74
     5
  7

 75
    16
147
1.0
148
0.0
149
0.0
100
AcDbLayout
  1
Layout1
 70
     1
 71
     1
 10
0.0
 20
0.0
 11
420.0
 21
297.0
 12
0.0
 22
0.0
 32
0.0
 14
1.0000000000E+20
 24
1.0000000000E+20
 34
1.0000000000E+20
 15
-1.0000000000E+20
 25
-1.0000000000E+20
 35
-1.0000000000E+20
146
0.0
 13
0.0
 23
0.0
 33
0.0
 16
1.0
 26
0.0
 36
0.0
 17
0.0
 27
1.0
 37
0.0
 76
     0
330
1B
  0
LAYOUT
  5
26
102
{ACAD_REACTORS
330
1A
102
}
330
1A
100
AcDbPlotSettings
  1

  2
none_device
  4

  6

 40
0.0
 41
0.0
 42
0.0
 43
0.0
 44
0.0
 45
0.0
 46
0.0
 47
0.0
 48
0.0
 49
0.0
140
0.0
141
0.0
142
1.0
143
1.0
 70
   688
 72
     1
 73
     0
 74
     5
  7

 75
    16
147
1.0
148
0.0
149
0.0
100
AcDbLayout
  1
Layout2
 70
     1
 71
     2
 10
0.0
 20
0.0
 11
0.0
 21
0.0
 12
0.0
 22
0.0
 32
0.0
 14
0.0
 24
0.0
 34
0.0
 15
0.0
 25
0.0
 35
0.0
146
0.0
 13
0.0
 23
0.0
 33
0.0
 16
1.0
 26
0.0
 36
0.0
 17
0.0
 27
1.0
 37
0.0
 76
     0
330
23
  0
LAYOUT
  5
22
102
{ACAD_REACTORS
330
1A
102
}
330
1A
100
AcDbPlotSettings
  1

  2
none_device
  4
ANSI_A_(11.00_x_8.50_Inches)
  6

 40
6.35
 41
19.05
 42
6.35000508
 43
19.05000254
 44
279.4
 45
215.9
 46
133.34999746
 47
88.89999873
 48
0.0
 49
0.0
140
0.0
141
0.0
142
0.0938793103
143
1.0
 70
  1696
 72
     0
 73
     0
 74
     0
  7

 75
     0
147
0.0179189148
148
-1300.4909072572
149
0.0
100
AcDbLayout
  1
Model
 70
     1
 71
     0
 10
0.0
 20
0.0
 11
420.0
 21
297.0
 12
0.0
 22
0.0
 32
0.0
 14
-58.0
 24
-30.0
 34
0.0
 15
58.0
 25
30.0
 35
0.0
146
0.0
 13
0.0
 23
0.0
 33
0.0
 16
1.0
 26
0.0
 36
0.0
 17
0.0
 27
1.0
 37
0.0
 76
     0
330
1F
331
29
  0
MLINESTYLE
  5
18
102
{ACAD_REACTORS
330
17
102
}
330
17
100
AcDbMlineStyle
  2
Standard
 70
     0
  3

 62
   256
 51
90.0
 52
90.0
 71
     2
 49
0.5
 62
   256
  6
BYLAYER
 49
-0.5
 62
   256
  6
BYLAYER
  0
ACDBPLACEHOLDER
  5
F
102
{ACAD_REACTORS
330
E
102
}
330
E
  0
SCALE
  5
48
102
{ACAD_REACTORS
330
47
102
}
330
47
100
AcDbScale
 70
     0
300
1:1
140
1.0
141
1.0
290
     1
  0
SCALE
  5
49
102
{ACAD_REACTORS
330
47
102
}
330
47
100
AcDbScale
 70
     0
300
1:2
140
1.0
141
2.0
290
     0
  0
SCALE
  5
4A
102
{ACAD_REACTORS
330
47
102
}
330
47
100
AcDbScale
 70
     0
300
1:4
140
1.0
141
4.0
290
     0
  0
SCALE
  5
4B
102
{ACAD_REACTORS
330
47
102
}
330
47
100
AcDbScale
 70
     0
300
1:5
140
1.0
141
5.0
290
     0
  0
SCALE
  5
4C
102
{ACAD_REACTORS
330
47
102
}
330
47
100
AcDbScale
 70
     0
300
1:8
140
1.0
141
8.0
290
     0
  0
SCALE
  5
4D
102
{ACAD_REACTORS
330
47
102
}
330
47
100
AcDbScale
 70
     0
300
1:10
140
1.0
141
10.0
290
     0
  0
SCALE
  5
4E
102
{ACAD_REACTORS
330
47
102
}
330
47
100
AcDbScale
 70
     0
300
1:16
140
1.0
141
16.0
290
     0
  0
SCALE
  5
4F
102
{ACAD_REACTORS
330
47
102
}
330
47
100
AcDbScale
 70
     0
300
1:20
140
1.0
141
20.0
290
     0
  0
SCALE
  5
50
102
{ACAD_REACTORS
330
47
102
}
330
47
100
AcDbScale
 70
     0
300
1:30
140
1.0
141
30.0
290
     0
  0
SCALE
  5
51
102
{ACAD_REACTORS
330
47
102
}
330
47
100
AcDbScale
 70
     0
300
1:40
140
1.0
141
40.0
290
     0
  0
SCALE
  5
52
102
{ACAD_REACTORS
330
47
102
}
330
47
100
AcDbScale
 70
     0
300
1:50
140
1.0
141
50.0
290
     0
  0
SCALE
  5
53
102
{ACAD_REACTORS
330
47
102
}
330
47
100
AcDbScale
 70
     0
300
1:100
140
1.0
141
100.0
290
     0
  0
SCALE
  5
54
102
{ACAD_REACTORS
330
47
102
}
330
47
100
AcDbScale
 70
     0
300
2:1
140
2.0
141
1.0
290
     0
  0
SCALE
  5
55
102
{ACAD_REACTORS
330
47
102
}
330
47
100
AcDbScale
 70
     0
300
4:1
140
4.0
141
1.0
290
     0
  0
SCALE
  5
56
102
{ACAD_REACTORS
330
47
102
}
330
47
100
AcDbScale
 70
     0
300
8:1
140
8.0
141
1.0
290
     0
  0
SCALE
  5
57
102
{ACAD_REACTORS
330
47
102
}
330
47
100
AcDbScale
 70
     0
300
10:1
140
10.0
141
1.0
290
     0
  0
SCALE
  5
58
102
{ACAD_REACTORS
330
47
102
}
330
47
100
AcDbScale
 70
     0
300
100:1
140
100.0
141
1.0
290
     0
  0
SCALE
  5
59
102
{ACAD_REACTORS
330
47
102
}
330
47
100
AcDbScale
 70
     0
300
1/128" = 1'-0"
140
0.0078125
141
12.0
290
     0
  0
SCALE
  5
5A
102
{ACAD_REACTORS
330
47
102
}
330
47
100
AcDbScale
 70
     0
300
1/64" = 1'-0"
140
0.015625
141
12.0
290
     0
  0
SCALE
  5
5B
102
{ACAD_REACTORS
330
47
102
}
330
47
100
AcDbScale
 70
     0
300
1/32" = 1'-0"
140
0.03125
141
12.0
290
     0
  0
SCALE
  5
5C
102
{ACAD_REACTORS
330
47
102
}
330
47
100
AcDbScale
 70
     0
300
1/16" = 1'-0"
140
0.0625
141
12.0
290
     0
  0
SCALE
  5
5D
102
{ACAD_REACTORS
330
47
102
}
330
47
100
AcDbScale
 70
     0
300
3/32" = 1'-0"
140
0.09375
141
12.0
290
     0
  0
SCALE
  5
5E
102
{ACAD_REACTORS
330
47
102
}
330
47
100
AcDbScale
 70
     0
300
1/8" = 1'-0"
140
0.125
141
12.0
290
     0
  0
SCALE
  5
5F
102
{ACAD_REACTORS
330
47
102
}
330
47
100
AcDbScale
 70
     0
300
3/16" = 1'-0"
140
0.1875
141
12.0
290
     0
  0
SCALE
  5
60
102
{ACAD_REACTORS
330
47
102
}
330
47
100
AcDbScale
 70
     0
300
1/4" = 1'-0"
140
0.25
141
12.0
290
     0
  0
SCALE
  5
61
102
{ACAD_REACTORS
330
47
102
}
330
47
100
AcDbScale
 70
     0
300
3/8" = 1'-0"
140
0.375
141
12.0
290
     0
  0
SCALE
  5
62
102
{ACAD_REACTORS
330
47
102
}
330
47
100
AcDbScale
 70
     0
300
1/2" = 1'-0"
140
0.5
141
12.0
290
     0
  0
SCALE
  5
63
102
{ACAD_REACTORS
330
47
102
}
330
47
100
AcDbScale
 70
     0
300
3/4" = 1'-0"
140
0.75
141
12.0
290
     0
  0
SCALE
  5
64
102
{ACAD_REACTORS
330
47
102
}
330
47
100
AcDbScale
 70
     0
300
1" = 1'-0"
140
1.0
141
12.0
290
     0
  0
SCALE
  5
65
102
{ACAD_REACTORS
330
47
102
}
330
47
100
AcDbScale
 70
     0
300
1-1/2" = 1'-0"
140
1.5
141
12.0
290
     0
  0
SCALE
  5
66
102
{ACAD_REACTORS
330
47
102
}
330
47
100
AcDbScale
 70
     0
300
3" = 1'-0"
140
3.0
141
12.0
290
     0
  0
SCALE
  5
67
102
{ACAD_REACTORS
330
47
102
}
330
47
100
AcDbScale
 70
     0
300
6" = 1'-0"
140
6.0
141
12.0
290
     0
  0
SCALE
  5
68
102
{ACAD_REACTORS
330
47
102
}
330
47
100
AcDbScale
 70
     0
300
1'-0" = 1'-0"
140
12.0
141
12.0
290
     0
  0
ENDSEC
  0
EOF
