  0
SECTION
  2
HEADER
  9
$ACADVER
  1
AC1015
  9
$ACADMAINTVER
 70
     6
  9
$DWGCODEPAGE
  3
ANSI_1256
  9
$INSBASE
 10
0.0
 20
0.0
 30
0.0
  9
$EXTMIN
 10
-37.5
 20
-31.25
 30
0.0
  9
$EXTMAX
 10
40.0
 20
28.75
 30
0.0
  9
$LIMMIN
 10
0.0
 20
0.0
  9
$LIMMAX
 10
420.0
 20
297.0
  9
$ORTHOMODE
 70
     0
  9
$REGENMODE
 70
     1
  9
$FILLMODE
 70
     1
  9
$QTEXTMODE
 70
     0
  9
$MIRRTEXT
 70
     1
  9
$LTSCALE
 40
1.0
  9
$ATTMODE
 70
     1
  9
$TEXTSIZE
 40
6.35
  9
$TRACEWID
 40
1.0
  9
$TEXTSTYLE
  7
Standard
  9
$CLAYER
  8
0
  9
$CELTYPE
  6
ByLayer
  9
$CECOLOR
 62
   256
  9
$CELTSCALE
 40
1.0
  9
$DISPSILH
 70
     0
  9
$DIMSCALE
 40
1.0
  9
$DIMASZ
 40
5.9944
  9
$DIMEXO
 40
0.9906
  9
$DIMDLI
 40
3.75
  9
$DIMRND
 40
0.0
  9
$DIMDLE
 40
0.0
  9
$DIMEXE
 40
0.9906
  9
$DIMTP
 40
0.0
  9
$DIMTM
 40
0.0
  9
$DIMTXT
 40
6.35
  9
$DIMCEN
 40
2.5
  9
$DIMTSZ
 40
0.0
  9
$DIMTOL
 70
     0
  9
$DIMLIM
 70
     0
  9
$DIMTIH
 70
     1
  9
$DIMTOH
 70
     1
  9
$DIMSE1
 70
     0
  9
$DIMSE2
 70
     0
  9
$DIMTAD
 70
     1
  9
$DIMZIN
 70
     1
  9
$DIMBLK
  1

  9
$DIMASO
 70
     1
  9
$DIMSHO
 70
     1
  9
$DIMPOST
  1

  9
$DIMAPOST
  1

  9
$DIMALT
 70
     0
  9
$DIMALTD
 70
     3
  9
$DIMALTF
 40
0.0393700787
  9
$DIMLFAC
 40
1.0
  9
$DIMTOFL
 70
     1
  9
$DIMTVP
 40
0.0
  9
$DIMTIX
 70
     0
  9
$DIMSOXD
 70
     0
  9
$DIMSAH
 70
     0
  9
$DIMBLK1
  1

  9
$DIMBLK2
  1

  9
$DIMSTYLE
  2
ISO-25
  9
$DIMCLRD
 70
     0
  9
$DIMCLRE
 70
     0
  9
$DIMCLRT
 70
     0
  9
$DIMTFAC
 40
1.0
  9
$DIMGAP
 40
1.524
  9
$DIMJUST
 70
     0
  9
$DIMSD1
 70
     0
  9
$DIMSD2
 70
     0
  9
$DIMTOLJ
 70
     0
  9
$DIMTZIN
 70
     1
  9
$DIMALTZ
 70
     0
  9
$DIMALTTZ
 70
     0
  9
$DIMUPT
 70
     0
  9
$DIMDEC
 70
     2
  9
$DIMTDEC
 70
     2
  9
$DIMALTU
 70
     2
  9
$DIMALTTD
 70
     3
  9
$DIMTXSTY
  7
Standard
  9
$DIMAUNIT
 70
     0
  9
$DIMADEC
 70
     2
  9
$DIMALTRND
 40
0.0
  9
$DIMAZIN
 70
     0
  9
$DIMDSEP
 70
    44
  9
$DIMATFIT
 70
     3
  9
$DIMFRAC
 70
     0
  9
$DIMLDRBLK
  1

  9
$DIMLUNIT
 70
     2
  9
$DIMLWD
 70
    -2
  9
$DIMLWE
 70
    -2
  9
$DIMTMOVE
 70
     0
  9
$LUNITS
 70
     2
  9
$LUPREC
 70
     2
  9
$SKETCHINC
 40
1.0
  9
$FILLETRAD
 40
10.0
  9
$AUNITS
 70
     0
  9
$AUPREC
 70
     2
  9
$MENU
  1
.
  9
$ELEVATION
 40
0.0
  9
$PELEVATION
 40
0.0
  9
$THICKNESS
 40
0.0
  9
$LIMCHECK
 70
     0
  9
$CHAMFERA
 40
0.0
  9
$CHAMFERB
 40
0.0
  9
$CHAMFERC
 40
0.0
  9
$CHAMFERD
 40
0.0
  9
$SKPOLY
 70
     0
  9
$TDCREATE
 40
2458821.966599028
  9
$TDUCREATE
 40
2458821.883265695
  9
$TDUPDATE
 40
2458821.966646018
  9
$TDUUPDATE
 40
2458821.883312685
  9
$TDINDWG
 40
0.0000000116
  9
$TDUSRTIMER
 40
0.0000000116
  9
$USRTIMER
 70
     1
  9
$ANGBASE
 50
0.0
  9
$ANGDIR
 70
     0
  9
$PDMODE
 70
     0
  9
$PDSIZE
 40
-1.0
  9
$PLINEWID
 40
0.0
  9
$SPLFRAME
 70
     0
  9
$SPLINETYPE
 70
     6
  9
$SPLINESEGS
 70
     8
  9
$HANDSEED
  5
1F8
  9
$SURFTAB1
 70
     6
  9
$SURFTAB2
 70
     6
  9
$SURFTYPE
 70
     6
  9
$SURFU
 70
     6
  9
$SURFV
 70
     6
  9
$UCSBASE
  2

  9
$UCSNAME
  2

  9
$UCSORG
 10
0.0
 20
0.0
 30
0.0
  9
$UCSXDIR
 10
1.0
 20
0.0
 30
0.0
  9
$UCSYDIR
 10
0.0
 20
1.0
 30
0.0
  9
$UCSORTHOREF
  2

  9
$UCSORTHOVIEW
 70
     0
  9
$UCSORGTOP
 10
0.0
 20
0.0
 30
0.0
  9
$UCSORGBOTTOM
 10
0.0
 20
0.0
 30
0.0
  9
$UCSORGLEFT
 10
0.0
 20
0.0
 30
0.0
  9
$UCSORGRIGHT
 10
0.0
 20
0.0
 30
0.0
  9
$UCSORGFRONT
 10
0.0
 20
0.0
 30
0.0
  9
$UCSORGBACK
 10
0.0
 20
0.0
 30
0.0
  9
$PUCSBASE
  2

  9
$PUCSNAME
  2

  9
$PUCSORG
 10
0.0
 20
0.0
 30
0.0
  9
$PUCSXDIR
 10
1.0
 20
0.0
 30
0.0
  9
$PUCSYDIR
 10
0.0
 20
1.0
 30
0.0
  9
$PUCSORTHOREF
  2

  9
$PUCSORTHOVIEW
 70
     0
  9
$PUCSORGTOP
 10
0.0
 20
0.0
 30
0.0
  9
$PUCSORGBOTTOM
 10
0.0
 20
0.0
 30
0.0
  9
$PUCSORGLEFT
 10
0.0
 20
0.0
 30
0.0
  9
$PUCSORGRIGHT
 10
0.0
 20
0.0
 30
0.0
  9
$PUCSORGFRONT
 10
0.0
 20
0.0
 30
0.0
  9
$PUCSORGBACK
 10
0.0
 20
0.0
 30
0.0
  9
$USERI1
 70
     0
  9
$USERI2
 70
     0
  9
$USERI3
 70
     0
  9
$USERI4
 70
     0
  9
$USERI5
 70
     0
  9
$USERR1
 40
0.0
  9
$USERR2
 40
0.0
  9
$USERR3
 40
0.0
  9
$USERR4
 40
0.0
  9
$USERR5
 40
0.0
  9
$WORLDVIEW
 70
     1
  9
$SHADEDGE
 70
     3
  9
$SHADEDIF
 70
    70
  9
$TILEMODE
 70
     1
  9
$MAXACTVP
 70
    64
  9
$PINSBASE
 10
0.0
 20
0.0
 30
0.0
  9
$PLIMCHECK
 70
     0
  9
$PEXTMIN
 10
1.0000000000E+20
 20
1.0000000000E+20
 30
1.0000000000E+20
  9
$PEXTMAX
 10
-1.0000000000E+20
 20
-1.0000000000E+20
 30
-1.0000000000E+20
  9
$PLIMMIN
 10
0.0
 20
0.0
  9
$PLIMMAX
 10
420.0
 20
297.0
  9
$UNITMODE
 70
     0
  9
$VISRETAIN
 70
     1
  9
$PLINEGEN
 70
     0
  9
$PSLTSCALE
 70
     1
  9
$TREEDEPTH
 70
  3020
  9
$CMLSTYLE
  2
Standard
  9
$CMLJUST
 70
     0
  9
$CMLSCALE
 40
20.0
  9
$PROXYGRAPHICS
 70
     1
  9
$MEASUREMENT
 70
     1
  9
$CELWEIGHT
370
    -1
  9
$ENDCAPS
280
     0
  9
$JOINSTYLE
280
     0
  9
$LWDISPLAY
290
     1
  9
$INSUNITS
 70
     4
  9
$HYPERLINKBASE
  1

  9
$STYLESHEET
  1

  9
$XEDIT
290
     1
  9
$CEPSNTYPE
380
     0
  9
$PSTYLEMODE
290
     1
  9
$FINGERPRINTGUID
  2
{19D09191-9B62-4C9D-8E5F-8F91C6C3D42B}
  9
$VERSIONGUID
  2
{FAEB1C32-E019-11D5-929B-00C0DF256EC4}
  9
$EXTNAMES
290
     1
  9
$PSVPSCALE
 40
0.0
  9
$OLESTARTUP
290
     0
  0
ENDSEC
  0
SECTION
  2
CLASSES
  0
CLASS
  1
ACDBDICTIONARYWDFLT
  2
AcDbDictionaryWithDefault
  3
ObjectDBX Classes
 90
        0
280
     0
281
     0
  0
CLASS
  1
VISUALSTYLE
  2
AcDbVisualStyle
  3
ObjectDBX Classes
 90
     4095
280
     0
281
     0
  0
CLASS
  1
MATERIAL
  2
AcDbMaterial
  3
ObjectDBX Classes
 90
     1153
280
     0
281
     0
  0
CLASS
  1
SCALE
  2
AcDbScale
  3
ObjectDBX Classes
 90
     1153
280
     0
281
     0
  0
CLASS
  1
TABLESTYLE
  2
AcDbTableStyle
  3
ObjectDBX Classes
 90
     4095
280
     0
281
     0
  0
CLASS
  1
MLEADERSTYLE
  2
AcDbMLeaderStyle
  3
ACDB_MLEADERSTYLE_CLASS
 90
     4095
280
     0
281
     0
  0
CLASS
  1
SUN
  2
AcDbSun
  3
SCENEOE
 90
     1153
280
     0
281
     0
  0
CLASS
  1
ACDBPLACEHOLDER
  2
AcDbPlaceHolder
  3
ObjectDBX Classes
 90
        0
280
     0
281
     0
  0
CLASS
  1
LAYOUT
  2
AcDbLayout
  3
ObjectDBX Classes
 90
        0
280
     0
281
     0
  0
ENDSEC
  0
SECTION
  2
TABLES
  0
TABLE
  2
VPORT
  5
8
330
0
100
AcDbSymbolTable
 70
     1
  0
VPORT
  5
29
330
8
100
AcDbSymbolTableRecord
100
AcDbViewportTableRecord
  2
*Active
 70
     0
 10
0.0
 20
0.0
 11
1.0
 21
1.0
 12
1.25
 22
-1.25
 13
0.0
 23
0.0
 14
10.0
 24
10.0
 15
10.0
 25
10.0
 16
0.0
 26
0.0
 36
1.0
 17
0.0
 27
0.0
 37
0.0
 40
61.2
 41
1.2916666667
 42
50.0
 43
0.0
 44
0.0
 50
0.0
 51
0.0
 71
     0
 72
   100
 73
     1
 74
     3
 75
     0
 76
     0
 77
     0
 78
     0
281
     0
 65
     1
110
0.0
120
0.0
130
0.0
111
1.0
121
0.0
131
0.0
112
0.0
122
1.0
132
0.0
 79
     0
146
0.0
  0
ENDTAB
  0
TABLE
  2
LTYPE
  5
5
330
0
100
AcDbSymbolTable
 70
     6
  0
LTYPE
  5
14
330
5
100
AcDbSymbolTableRecord
100
AcDbLinetypeTableRecord
  2
ByBlock
 70
     0
  3

 72
    65
 73
     0
 40
0.0
  0
LTYPE
  5
15
330
5
100
AcDbSymbolTableRecord
100
AcDbLinetypeTableRecord
  2
ByLayer
 70
     0
  3

 72
    65
 73
     0
 40
0.0
  0
LTYPE
  5
16
330
5
100
AcDbSymbolTableRecord
100
AcDbLinetypeTableRecord
  2
Continuous
 70
     0
  3
Solid line
 72
    65
 73
     0
 40
0.0
  0
LTYPE
  5
6E
330
5
100
AcDbSymbolTableRecord
100
AcDbLinetypeTableRecord
  2
HIDDEN
 70
     0
  3
Hidden __ __ __ __ __ __ __ __ __ __ __ __ __ __
 72
    65
 73
     2
 40
1.905
 49
1.27
 74
     0
 49
-0.635
 74
     0
  0
LTYPE
  5
6F
330
5
100
AcDbSymbolTableRecord
100
AcDbLinetypeTableRecord
  2
PHANTOM
 70
     0
  3
Phantom ______  __  __  ______  __  __  ______
 72
    65
 73
     6
 40
12.7
 49
6.35
 74
     0
 49
-1.27
 74
     0
 49
1.27
 74
     0
 49
-1.27
 74
     0
 49
1.27
 74
     0
 49
-1.27
 74
     0
  0
LTYPE
  5
70
330
5
100
AcDbSymbolTableRecord
100
AcDbLinetypeTableRecord
  2
CENTER
 70
     0
  3
Center ____ _ ____ _ ____ _ ____ _ ____ _ ____
 72
    65
 73
     4
 40
10.16
 49
6.35
 74
     0
 49
-1.27
 74
     0
 49
1.27
 74
     0
 49
-1.27
 74
     0
  0
LTYPE
  5
71
330
5
100
AcDbSymbolTableRecord
100
AcDbLinetypeTableRecord
  2
CENTERX2
 70
     0
  3
Center (2x) ________  __  ________  __  _____
 72
    65
 73
     4
 40
20.32
 49
12.7
 74
     0
 49
-2.54
 74
     0
 49
2.54
 74
     0
 49
-2.54
 74
     0
  0
LTYPE
  5
72
330
5
100
AcDbSymbolTableRecord
100
AcDbLinetypeTableRecord
  2
DOT2
 70
     0
  3
Dot (.5x) ........................................
 72
    65
 73
     2
 40
0.635
 49
0.0
 74
     0
 49
-0.635
 74
     0
  0
ENDTAB
  0
TABLE
  2
LAYER
  5
2
330
0
100
AcDbSymbolTable
 70
     1
  0
LAYER
  5
10
330
2
100
AcDbSymbolTableRecord
100
AcDbLayerTableRecord
  2
0
 70
     0
 62
     7
  6
Continuous
370
    -3
390
F
  0
ENDTAB
  0
TABLE
  2
STYLE
  5
3
330
0
100
AcDbSymbolTable
 70
     1
  0
STYLE
  5
11
330
3
100
AcDbSymbolTableRecord
100
AcDbTextStyleTableRecord
  2
Standard
 70
     0
 40
0.0
 41
1.0
 50
0.0
 71
     0
 42
6.35
  3
txt
  4

  0
ENDTAB
  0
TABLE
  2
VIEW
  5
6
330
0
100
AcDbSymbolTable
 70
     0
  0
ENDTAB
  0
TABLE
  2
UCS
  5
7
330
0
100
AcDbSymbolTable
 70
     0
  0
ENDTAB
  0
TABLE
  2
APPID
  5
9
330
0
100
AcDbSymbolTable
 70
     1
  0
APPID
  5
12
330
9
100
AcDbSymbolTableRecord
100
AcDbRegAppTableRecord
  2
ACAD
 70
     0
  0
ENDTAB
  0
TABLE
  2
DIMSTYLE
  5
A
330
0
100
AcDbSymbolTable
 70
     1
100
AcDbDimStyleTable
  0
DIMSTYLE
105
27
330
A
100
AcDbSymbolTableRecord
100
AcDbDimStyleTableRecord
  2
ISO-25
 70
     0
 41
2.5
 42
0.625
 43
3.75
 44
1.25
 73
     0
 74
     0
 77
     1
 78
     8
140
2.5
141
2.5
143
0.0393700787
147
0.625
171
     3
172
     1
178
     0
271
     2
272
     2
274
     3
278
    44
283
     0
284
     8
340
11
  0
ENDTAB
  0
TABLE
  2
BLOCK_RECORD
  5
1
330
0
100
AcDbSymbolTable
 70
     1
  0
BLOCK_RECORD
  5
1F
330
1
100
AcDbSymbolTableRecord
100
AcDbBlockTableRecord
  2
*Model_Space
340
22
  0
BLOCK_RECORD
  5
1B
330
1
100
AcDbSymbolTableRecord
100
AcDbBlockTableRecord
  2
*Paper_Space
340
1E
  0
BLOCK_RECORD
  5
23
330
1
100
AcDbSymbolTableRecord
100
AcDbBlockTableRecord
  2
*Paper_Space0
340
26
  0
ENDTAB
  0
ENDSEC
  0
SECTION
  2
BLOCKS
  0
BLOCK
  5
20
330
1F
100
AcDbEntity
  8
0
100
AcDbBlockBegin
  2
*Model_Space
 70
     0
 10
0.0
 20
0.0
 30
0.0
  3
*Model_Space
  1

  0
ENDBLK
  5
21
330
1F
100
AcDbEntity
  8
0
100
AcDbBlockEnd
  0
BLOCK
  5
1C
330
1B
100
AcDbEntity
 67
     1
  8
0
100
AcDbBlockBegin
  2
*Paper_Space
 70
     0
 10
0.0
 20
0.0
 30
0.0
  3
*Paper_Space
  1

  0
ENDBLK
  5
1D
330
1B
100
AcDbEntity
 67
     1
  8
0
100
AcDbBlockEnd
  0
BLOCK
  5
24
330
23
100
AcDbEntity
  8
0
100
AcDbBlockBegin
  2
*Paper_Space0
 70
     0
 10
0.0
 20
0.0
 30
0.0
  3
*Paper_Space0
  1

  0
ENDBLK
  5
25
330
23
100
AcDbEntity
  8
0
100
AcDbBlockEnd
  0
ENDSEC
  0
SECTION
  2
ENTITIES
  0
SPLINE
  5
74
330
1F
100
AcDbEntity
  8
0
  6
Continuous
 62
     7
370
    25
100
AcDbSpline
210
0.0
220
0.0
230
1.0
 70
     8
 71
     3
 72
    15
 73
    11
 74
     0
 42
0.000000001
 43
0.00000001
 40
0.0
 40
0.0
 40
0.0
 40
0.0
 40
0.1288840014739233
 40
0.2529849718578356
 40
0.3742104371825978
 40
0.4941015128996913
 40
0.6147527632399888
 40
0.7385110703733282
 40
0.8662425140769328
 40
1.0
 40
1.0
 40
1.0
 40
1.0
 10
16.78800596276977
 20
-22.26282051282051
 30
0.0
 10
16.81784413861395
 20
-22.26371599626927
 30
0.0
 10
16.8764131618434
 20
-22.26547373076302
 30
0.0
 10
16.96206945986034
 20
-22.28016308333688
 30
0.0
 10
17.04309095159597
 20
-22.3048275849427
 30
0.0
 10
17.11994408729273
 20
-22.33859403140393
 30
0.0
 10
17.19217069313074
 20
-22.38248017499621
 30
0.0
 10
17.26030020203864
 20
-22.43548100233593
 30
0.0
 10
17.32314781513136
 20
-22.49909651438458
 30
0.0
 10
17.36033171372579
 20
-22.5468745563613
 30
0.0
 10
17.37935211661592
 20
-22.5713141025641
 30
0.0
  0
SPLINE
  5
75
330
1F
100
AcDbEntity
  8
0
  6
Continuous
 62
     7
370
    25
100
AcDbSpline
210
0.0
220
0.0
230
1.0
 70
     8
 71
     3
 72
    23
 73
    19
 74
     0
 42
0.000000001
 43
0.00000001
 40
0.0
 40
0.0
 40
0.0
 40
0.0
 40
0.0637745323056325
 40
0.1260788099895034
 40
0.1869040927472066
 40
0.2475739349176177
 40
0.308003356164446
 40
0.3691318984609767
 40
0.4320332277442048
 40
0.4967907944370904
 40
0.5616108232295638
 40
0.6249138657484619
 40
0.6867263492419234
 40
0.7480788332577712
 40
0.8095822911398949
 40
0.8716307425688277
 40
0.9348858208285544
 40
1.0
 40
1.0
 40
1.0
 40
1.0
 10
16.02037775764156
 20
-23.01522435897435
 30
0.0
 10
16.02109374129006
 20
-22.98981652836325
 30
0.0
 10
16.02250920233872
 20
-22.93958661789506
 30
0.0
 10
16.03305389939032
 20
-22.86571307618886
 30
0.0
 10
16.05078590433841
 20
-22.79455978434128
 30
0.0
 10
16.07567038871892
 20
-22.72635581678486
 30
0.0
 10
16.10758007726928
 20
-22.66101864527138
 30
0.0
 10
16.14639612699547
 20
-22.59850205954855
 30
0.0
 10
16.1921213411091
 20
-22.53863383242739
 30
0.0
 10
16.24483700226131
 20
-22.48282170281666
 30
0.0
 10
16.3019425852114
 20
-22.43126706609131
 30
0.0
 10
16.36303328859161
 20
-22.38646189726704
 30
0.0
 10
16.42658944934636
 20
-22.34776655508645
 30
0.0
 10
16.49359688393059
 20
-22.31710742576854
 30
0.0
 10
16.56306380096715
 20
-22.2923022231717
 30
0.0
 10
16.63560862710844
 20
-22.27514052711427
 30
0.0
 10
16.71092952920876
 20
-22.26502777211997
 30
0.0
 10
16.76206695324568
 20
-22.26356333546221
 30
0.0
 10
16.78800596276977
 20
-22.26282051282051
 30
0.0
  0
SPLINE
  5
76
330
1F
100
AcDbEntity
  8
0
  6
Continuous
 62
     7
370
    25
100
AcDbSpline
210
0.0
220
0.0
230
1.0
 70
     8
 71
     3
 72
    23
 73
    19
 74
     0
 42
0.000000001
 43
0.00000001
 40
0.0
 40
0.0
 40
0.0
 40
0.0
 40
0.0646199913407684
 40
0.1274334841444686
 40
0.1890041265579377
 40
0.2499300706860478
 40
0.3106684537406713
 40
0.3723289611368215
 40
0.4349391099970057
 40
0.4995755441940326
 40
0.5641912077719213
 40
0.6267352169294763
 40
0.6881093335613995
 40
0.7492936065367491
 40
0.8103305278109435
 40
0.8719011702244159
 40
0.9350459146845289
 40
0.9999999999999999
 40
0.9999999999999999
 40
0.9999999999999999
 40
0.9999999999999999
 10
16.78239698841079
 20
-23.77564102564103
 30
0.0
 10
16.75658672907791
 20
-23.77494024148722
 30
0.0
 10
16.7056877548562
 20
-23.77355826410686
 30
0.0
 10
16.63081399649112
 20
-23.76283694775357
 30
0.0
 10
16.55876128251815
 20
-23.74561944967236
 30
0.0
 10
16.48946152671143
 20
-23.72167608424851
 30
0.0
 10
16.42336315789193
 20
-23.68991561474096
 30
0.0
 10
16.35990024550776
 20
-23.65189204443159
 30
0.0
 10
16.29940156435398
 20
-23.60661157009978
 30
0.0
 10
16.24278925637464
 20
-23.55484698246957
 30
0.0
 10
16.19065668473126
 20
-23.4986212755075
 30
0.0
 10
16.14490738609001
 20
-23.43865239157886
 30
0.0
 10
16.10676276903016
 20
-23.37519964649733
 30
0.0
 10
16.07486558005458
 20
-23.30906641570379
 30
0.0
 10
16.05029624037415
 20
-23.23974360454147
 30
0.0
 10
16.03316844936963
 20
-23.16747093714732
 30
0.0
 10
16.02245962268353
 20
-23.09233386655312
 30
0.0
 10
16.02107821657784
 20
-23.0411684247842
 30
0.0
 10
16.02037775764156
 20
-23.01522435897435
 30
0.0
  0
SPLINE
  5
77
330
1F
100
AcDbEntity
  8
0
  6
Continuous
 62
     7
370
    25
100
AcDbSpline
210
0.0
220
0.0
230
1.0
 70
     8
 71
     3
 72
    15
 73
    11
 74
     0
 42
0.000000001
 43
0.00000001
 40
0.0
 40
0.0
 40
0.0
 40
0.0
 40
0.1342983790141697
 40
0.2620849753823011
 40
0.3862699121344997
 40
0.5071645966227987
 40
0.6273002357255028
 40
0.7481449416029917
 40
0.8723701771613497
 40
1.0
 40
1.0
 40
1.0
 40
1.0
 10
17.37935211661592
 20
-23.49719551282051
 30
0.0
 10
17.35911280768669
 20
-23.52007528079642
 30
0.0
 10
17.31961554181192
 20
-23.56472543570324
 30
0.0
 10
17.25364918868535
 20
-23.62305810569795
 30
0.0
 10
17.18372451559823
 20
-23.67127428943513
 30
0.0
 10
17.11018090352354
 20
-23.71021709840678
 30
0.0
 10
17.03308476446947
 20
-23.73946970202812
 30
0.0
 10
16.95260700031162
 20
-23.76026179295716
 30
0.0
 10
16.86871478267416
 20
-23.77362969876986
 30
0.0
 10
16.81142772279416
 20
-23.77496456840931
 30
0.0
 10
16.78239698841079
 20
-23.77564102564103
 30
0.0
  0
SPLINE
  5
9C
330
1F
100
AcDbEntity
  8
0
  6
Continuous
 62
     7
370
    25
100
AcDbSpline
210
0.0
220
0.0
230
1.0
 70
     8
 71
     3
 72
    23
 73
    19
 74
     0
 42
0.000000001
 43
0.00000001
 40
0.0
 40
0.0
 40
0.0
 40
0.0
 40
0.0614842551968903
 40
0.1217745277022104
 40
0.1809195598139307
 40
0.2402561150782717
 40
0.3001144444023514
 40
0.3611459476126126
 40
0.4235005824125858
 40
0.488669361280719
 40
0.5539541046535615
 40
0.6175812610152618
 40
0.680238426816739
 40
0.7421873887724547
 40
0.8046632117692942
 40
0.8682589893126635
 40
0.9330202571803754
 40
1.0
 40
1.0
 40
1.0
 40
1.0
 10
26.41460852687234
 20
-19.39252804487179
 30
0.0
 10
26.41395138874838
 20
-19.42390640996738
 30
0.0
 10
26.4126498736788
 20
-19.48605379351048
 30
0.0
 10
26.39768895990021
 20
-19.57730887039261
 30
0.0
 10
26.37576929473762
 20
-19.66593974007655
 30
0.0
 10
26.34273206078709
 20
-19.75085085252157
 30
0.0
 10
26.30240890252718
 20
-19.833595615205
 30
0.0
 10
26.25124265466117
 20
-19.91200351561594
 30
0.0
 10
26.19193496992346
 20
-19.98780991420288
 30
0.0
 10
26.12390120501909
 20
-20.05899340555803
 30
0.0
 10
26.04945530270257
 20
-20.12433960154344
 30
0.0
 10
25.9707716080398
 20
-20.18246866301591
 30
0.0
 10
25.88772133510565
 20
-20.23093698641123
 30
0.0
 10
25.8007550184224
 20
-20.27048782846115
 30
0.0
 10
25.70985268171536
 20
-20.30142134598741
 30
0.0
 10
25.61504489788085
 20
-20.32383421511828
 30
0.0
 10
25.51617538666129
 20
-20.33758992603178
 30
0.0
 10
25.4489749050888
 20
-20.33901768749638
 30
0.0
 10
25.41480884738517
 20
-20.33974358974359
 30
0.0
  0
SPLINE
  5
9D
330
1F
100
AcDbEntity
  8
0
  6
Continuous
 62
     7
370
    25
100
AcDbSpline
210
0.0
220
0.0
230
1.0
 70
     8
 71
     3
 72
    19
 73
    15
 74
     0
 42
0.000000001
 43
0.00000001
 40
0.0
 40
0.0
 40
0.0
 40
0.0
 40
0.0969723103815159
 40
0.187773438962868
 40
0.272396139013693
 40
0.3513209973752903
 40
0.4243347744514667
 40
0.4919087840005264
 40
0.5542332197967996
 40
0.6112676582441542
 40
0.7163478449915525
 40
0.8145400858216159
 40
0.9084954561491845
 40
1.0
 40
1.0
 40
1.0
 40
1.0
 10
25.59008929610311
 20
-18.26302083333333
 30
0.0
 10
25.62807520941053
 20
-18.29066219288304
 30
0.0
 10
25.70162966578901
 20
-18.34418585463597
 30
0.0
 10
25.80628724570055
 20
-18.42460153466342
 30
0.0
 10
25.90118105379537
 20
-18.5032493032377
 30
0.0
 10
25.98664425736555
 20
-18.5796269103338
 30
0.0
 10
26.06352116580533
 20
-18.65315500333744
 30
0.0
 10
26.13095888648011
 20
-18.72471818366762
 30
0.0
 10
26.1896445668273
 20
-18.79380375634985
 30
0.0
 10
26.25282378528745
 20
-18.88237633204103
 30
0.0
 10
26.31738160480793
 20
-18.99115741631537
 30
0.0
 10
26.37282311223407
 20
-19.12443565486064
 30
0.0
 10
26.40778145968861
 20
-19.25823197535761
 30
0.0
 10
26.41235297512057
 20
-19.34815881183266
 30
0.0
 10
26.41460852687234
 20
-19.39252804487179
 30
0.0
  0
SPLINE
  5
9E
330
1F
100
AcDbEntity
  8
0
  6
Continuous
 62
     7
370
    25
100
AcDbSpline
210
0.0
220
0.0
230
1.0
 70
     8
 71
     3
 72
    15
 73
    11
 74
     0
 42
0.000000001
 43
0.00000001
 40
0.0
 40
0.0
 40
0.0
 40
0.0
 40
0.0525942815291375
 40
0.1249519739750395
 40
0.2180938989285959
 40
0.3335024107325206
 40
0.4687891785044459
 40
0.6249375859645999
 40
0.8016830479282278
 40
1.0
 40
1.0
 40
1.0
 40
1.0
 10
25.11963657174414
 20
-17.91456330128205
 30
0.0
 10
25.12729794415183
 20
-17.92140032709787
 30
0.0
 10
25.14549961128875
 20
-17.93764353542712
 30
0.0
 10
25.17877553702841
 20
-17.96423581607087
 30
0.0
 10
25.22271833525835
 20
-17.99703858836615
 30
0.0
 10
25.27618053643521
 20
-18.03762590484093
 30
0.0
 10
25.34014789816224
 20
-18.0847073669582
 30
0.0
 10
25.41462745430686
 20
-18.137680979122
 30
0.0
 10
25.49878898714179
 20
-18.19826643812888
 30
0.0
 10
25.55851090304138
 20
-18.24062397873882
 30
0.0
 10
25.59008929610312
 20
-18.26302083333334
 30
0.0
  0
SPLINE
  5
9F
330
1F
100
AcDbEntity
  8
0
  6
Continuous
 62
     7
370
    25
100
AcDbSpline
210
0.0
220
0.0
230
1.0
 70
     8
 71
     3
 72
    15
 73
    11
 74
     0
 42
0.000000001
 43
0.00000001
 40
0.0
 40
0.0
 40
0.0
 40
0.0
 40
0.1072852142689569
 40
0.2147458609696409
 40
0.3229385595552901
 40
0.4341161625174718
 40
0.5534123109627935
 40
0.6860729848107314
 40
0.8342559920595829
 40
1.0
 40
1.0
 40
1.0
 40
1.0
 10
24.88896750123132
 20
-17.46233974358974
 30
0.0
 10
24.88936062786624
 20
-17.4810912221302
 30
0.0
 10
24.89014752397544
 20
-17.51862484156754
 30
0.0
 10
24.90112232166181
 20
-17.5740762635215
 30
0.0
 10
24.91522165061966
 20
-17.62938760294012
 30
0.0
 10
24.93756428237308
 20
-17.6843101857743
 30
0.0
 10
24.96840958598885
 20
-17.73980454482656
 30
0.0
 10
25.00891476189522
 20
-17.7968262823851
 30
0.0
 10
25.0599280739452
 20
-17.85587799105723
 30
0.0
 10
25.09900508629662
 20
-17.89428536483214
 30
0.0
 10
25.11963657174414
 20
-17.91456330128205
 30
0.0
  0
SPLINE
  5
A0
330
1F
100
AcDbEntity
  8
0
  6
Continuous
 62
     7
370
    25
100
AcDbSpline
210
0.0
220
0.0
230
1.0
 70
     8
 71
     3
 72
    15
 73
    11
 74
     0
 42
0.000000001
 43
0.00000001
 40
0.0
 40
0.0
 40
0.0
 40
0.0
 40
0.1430730837303665
 40
0.2759029640930108
 40
0.4023708562739949
 40
0.528413645093595
 40
0.6503563791869532
 40
0.7658950861246981
 40
0.8807741308440247
 40
1.0
 40
1.0
 40
1.0
 40
1.0
 10
25.40218865507748
 20
-17.01923076923077
 30
0.0
 10
25.366032132672
 20
-17.02044246918265
 30
0.0
 10
25.29630768525766
 20
-17.02277911839438
 30
0.0
 10
25.19731744915009
 20
-17.04829910368602
 30
0.0
 10
25.10822352408685
 20
-17.08848096399188
 30
0.0
 10
25.03167095903065
 20
-17.14479594208754
 30
0.0
 10
24.9679339819876
 20
-17.21151693477266
 30
0.0
 10
24.9218285232227
 20
-17.28829578984758
 30
0.0
 10
24.89407835867065
 20
-17.37307819245212
 30
0.0
 10
24.89069207901961
 20
-17.43221984878382
 30
0.0
 10
24.88896750123132
 20
-17.46233974358974
 30
0.0
  0
SPLINE
  5
A1
330
1F
100
AcDbEntity
  8
0
  6
Continuous
 62
     7
370
    25
100
AcDbSpline
210
0.0
220
0.0
230
1.0
 70
     8
 71
     3
 72
    19
 73
    15
 74
     0
 42
0.000000001
 43
0.00000001
 40
0.0
 40
0.0
 40
0.0
 40
0.0
 40
0.0984694310255576
 40
0.1896291011376333
 40
0.2741840894379693
 40
0.3521831609671558
 40
0.4231988731834704
 40
0.4885509460005337
 40
0.5484733460279385
 40
0.6014401636178719
 40
0.7011980824257685
 40
0.7995918021381871
 40
0.8985450984822294
 40
1.0
 40
1.0
 40
1.0
 40
1.0
 10
26.08578240507747
 20
-17.46794871794872
 30
0.0
 10
26.06863647260516
 20
-17.44586002752609
 30
0.0
 10
26.03561741553304
 20
-17.4033223743019
 30
0.0
 10
25.98548792867252
 20
-17.34375105869564
 30
0.0
 10
25.93823928075224
 20
-17.2893345791637
 30
0.0
 10
25.89168888096803
 20
-17.24206945113365
 30
0.0
 10
25.8482952495021
 20
-17.19936731779577
 30
0.0
 10
25.80617820725517
 20
-17.16280756097131
 30
0.0
 10
25.76594385601775
 20
-17.13203196554123
 30
0.0
 10
25.7152269453717
 20
-17.09918840558206
 30
0.0
 10
25.65150922704852
 20
-17.06663190202731
 30
0.0
 10
25.5715246908092
 20
-17.03908282394958
 30
0.0
 10
25.48793841577422
 20
-17.0225277620308
 30
0.0
 10
25.43100878428354
 20
-17.02033887446297
 30
0.0
 10
25.40218865507747
 20
-17.01923076923077
 30
0.0
  0
SPLINE
  5
A3
330
1F
100
AcDbEntity
  8
0
  6
Continuous
 62
     7
370
    25
100
AcDbSpline
210
0.0
220
0.0
230
1.0
 70
     8
 71
     3
 72
    19
 73
    15
 74
     0
 42
0.000000001
 43
0.00000001
 40
0.0
 40
0.0
 40
0.0
 40
0.0
 40
0.1072327993600899
 40
0.2132518127818491
 40
0.3188304473075871
 40
0.4267935306342764
 40
0.4836459507827176
 40
0.5436038220211427
 40
0.6083076495640837
 40
0.6771267602600416
 40
0.7506856360204961
 40
0.8287134184432878
 40
0.9121903482234516
 40
1.0
 40
1.0
 40
1.0
 40
1.0
 10
25.43724474482107
 20
-16.66025641025641
 30
0.0
 10
25.47848884511907
 20
-16.66167896185559
 30
0.0
 10
25.56051019686588
 20
-16.66450796295518
 30
0.0
 10
25.68115941243541
 20
-16.68910549427491
 30
0.0
 10
25.79732012883602
 20
-16.72980616606289
 30
0.0
 10
25.89076339365552
 20
-16.77599482404046
 30
0.0
 10
25.96389615511733
 20
-16.82212623975373
 30
0.0
 10
26.01966888780628
 20
-16.86414606403258
 30
0.0
 10
26.07618633859284
 20
-16.91252117263678
 30
0.0
 10
26.13390439342158
 20
-16.96738041871759
 30
0.0
 10
26.19184505286076
 20
-17.0292271698072
 30
0.0
 10
26.2508685051049
 20
-17.09763785871642
 30
0.0
 10
26.3111127739156
 20
-17.17219441458081
 30
0.0
 10
26.34986863403951
 20
-17.22541891533532
 30
0.0
 10
26.36973673200055
 20
-17.25270432692307
 30
0.0
  0
SPLINE
  5
A4
330
1F
100
AcDbEntity
  8
0
  6
Continuous
 62
     7
370
    25
100
AcDbSpline
210
0.0
220
0.0
230
1.0
 70
     8
 71
     3
 72
    19
 73
    15
 74
     0
 42
0.000000001
 43
0.00000001
 40
0.0
 40
0.0
 40
0.0
 40
0.0
 40
0.0837853706537111
 40
0.1657798879221422
 40
0.2462800078932637
 40
0.3274609277363899
 40
0.4087969540320682
 40
0.4897152412309883
 40
0.5713760321300524
 40
0.6555233211112775
 40
0.7410194827999736
 40
0.8265467605037604
 40
0.9119888516548333
 40
1.0
 40
1.0
 40
1.0
 40
1.0
 10
24.57486493712875
 20
-17.47706330128205
 30
0.0
 10
24.57617014612212
 20
-17.44003352671734
 30
0.0
 10
24.57875266618436
 20
-17.36676546298232
 30
0.0
 10
24.60059318345478
 20
-17.25973463254022
 30
0.0
 10
24.63506607710928
 20
-17.15754821532266
 30
0.0
 10
24.68336096497083
 20
-17.06121788159793
 30
0.0
 10
24.74561831788909
 20
-16.97325190070973
 30
0.0
 10
24.8176642922543
 20
-16.89263841372769
 30
0.0
 10
24.90347577849176
 20
-16.82486983150681
 30
0.0
 10
24.99762840175517
 20
-16.76565777311759
 30
0.0
 10
25.10068477383785
 20
-16.71931184791053
 30
0.0
 10
25.20867567723549
 20
-16.68435086775004
 30
0.0
 10
25.32177274926067
 20
-16.66454161005908
 30
0.0
 10
25.39837588388409
 20
-16.66169884514643
 30
0.0
 10
25.43724474482107
 20
-16.66025641025641
 30
0.0
  0
SPLINE
  5
A5
330
1F
100
AcDbEntity
  8
0
  6
Continuous
 62
     7
370
    25
100
AcDbSpline
210
0.0
220
0.0
230
1.0
 70
     8
 71
     3
 72
    15
 73
    11
 74
     0
 42
0.000000001
 43
0.00000001
 40
0.0
 40
0.0
 40
0.0
 40
0.0
 40
0.1335067689985165
 40
0.2625589787303695
 40
0.3882644471488754
 40
0.5126673546814273
 40
0.6337222699657594
 40
0.7553938601370952
 40
0.8775529450912787
 40
1.0
 40
1.0
 40
1.0
 40
1.0
 10
24.77047791789798
 20
-18.00991586538461
 30
0.0
 10
24.75500537266684
 20
-17.98931482853041
 30
0.0
 10
24.72457653595149
 20
-17.94880012476071
 30
0.0
 10
24.6844105304864
 20
-17.885475266993
 30
0.0
 10
24.650271367688
 20
-17.82065200158377
 30
0.0
 10
24.62350903555177
 20
-17.75415613701919
 30
0.0
 10
24.6009728167122
 20
-17.6869212081386
 30
0.0
 10
24.58581488599442
 20
-17.61806996243899
 30
0.0
 10
24.57632348907864
 20
-17.5479113439745
 30
0.0
 10
24.57535150254554
 20
-17.500697843352
 30
0.0
 10
24.57486493712876
 20
-17.47706330128205
 30
0.0
  0
SPLINE
  5
A6
330
1F
100
AcDbEntity
  8
0
  6
Continuous
 62
     7
370
    25
100
AcDbSpline
210
0.0
220
0.0
230
1.0
 70
     8
 71
     3
 72
    15
 73
    11
 74
     0
 42
0.000000001
 43
0.00000001
 40
0.0
 40
0.0
 40
0.0
 40
0.0
 40
0.1815353013762871
 40
0.3470816724816275
 40
0.4955678164315545
 40
0.6283573018772144
 40
0.7455196699921538
 40
0.845830750757652
 40
0.9307818073847592
 40
1.0
 40
1.0
 40
1.0
 40
1.0
 10
25.34399554610312
 20
-18.48597756410256
 30
0.0
 10
25.30717154992407
 20
-18.45974897648324
 30
0.0
 10
25.23676687334388
 20
-18.40960191423842
 30
0.0
 10
25.13830829099751
 20
-18.33517763022481
 30
0.0
 10
25.0502638279876
 20
-18.26713376068291
 30
0.0
 10
24.97302481146427
 20
-18.20482974858036
 30
0.0
 10
24.90662521461822
 20
-18.14825714385049
 30
0.0
 10
24.85054180360408
 20
-18.09795920470832
 30
0.0
 10
24.80620324650851
 20
-18.05257564383996
 30
0.0
 10
24.78154766584998
 20
-18.0231343020948
 30
0.0
 10
24.77047791789798
 20
-18.00991586538461
 30
0.0
  0
SPLINE
  5
A7
330
1F
100
AcDbEntity
  8
0
  6
Continuous
 62
     7
370
    25
100
AcDbSpline
210
0.0
220
0.0
230
1.0
 70
     8
 71
     3
 72
    15
 73
    11
 74
     0
 42
0.000000001
 43
0.00000001
 40
0.0
 40
0.0
 40
0.0
 40
0.0
 40
0.0902792146500199
 40
0.1895299184469622
 40
0.2991978724002904
 40
0.4189258867738233
 40
0.5483762854012503
 40
0.688136369538682
 40
0.8390835016589218
 40
0.9999999999999999
 40
0.9999999999999999
 40
0.9999999999999999
 40
0.9999999999999999
 10
25.97500516148773
 20
-19.04407051282051
 30
0.0
 10
25.95933454730713
 20
-19.02402368921717
 30
0.0
 10
25.92643605301721
 20
-18.9819378906489
 30
0.0
 10
25.86987854042419
 20
-18.91929265517346
 30
0.0
 10
25.80351242611881
 20
-18.85467423622141
 30
0.0
 10
25.72960887120713
 20
-18.78561517927206
 30
0.0
 10
25.64547578236653
 20
-18.71532738258404
 30
0.0
 10
25.55374826796337
 20
-18.64045910464508
 30
0.0
 10
25.45208440899725
 20
-18.56385752759841
 30
0.0
 10
25.38078491237926
 20
-18.51248496205185
 30
0.0
 10
25.34399554610312
 20
-18.48597756410256
 30
0.0
  0
SPLINE
  5
A8
330
1F
100
AcDbEntity
  8
0
  6
Continuous
 62
     7
370
    25
100
AcDbSpline
210
0.0
220
0.0
230
1.0
 70
     8
 71
     3
 72
    11
 73
     7
 74
     0
 42
0.000000001
 43
0.00000001
 40
0.0
 40
0.0
 40
0.0
 40
0.0
 40
0.2347233736738983
 40
0.4771583189289903
 40
0.7285562842030585
 40
1.0
 40
1.0
 40
1.0
 40
1.0
 10
26.10050596276978
 20
-19.38762019230769
 30
0.0
 10
26.09903165207048
 20
-19.35847934260022
 30
0.0
 10
26.09603459385747
 20
-19.29924025345057
 30
0.0
 10
26.07070311378502
 20
-19.21184060049663
 30
0.0
 10
26.03085386694155
 20
-19.12534803047235
 30
0.0
 10
25.99409122323659
 20
-19.07184676489459
 30
0.0
 10
25.97500516148773
 20
-19.04407051282051
 30
0.0
  0
SPLINE
  5
A9
330
1F
100
AcDbEntity
  8
0
  6
Continuous
 62
     7
370
    25
100
AcDbSpline
210
0.0
220
0.0
230
1.0
 70
     8
 71
     3
 72
    19
 73
    15
 74
     0
 42
0.000000001
 43
0.00000001
 40
0.0
 40
0.0
 40
0.0
 40
0.0
 40
0.0912636048966265
 40
0.1809303110850827
 40
0.2700882198317218
 40
0.3601561333877248
 40
0.4483425324981528
 40
0.532665842138331
 40
0.6138337041070484
 40
0.6939815272835568
 40
0.7727159770890017
 40
0.8493351720622473
 40
0.9239673265752312
 40
1.0
 40
1.0
 40
1.0
 40
1.0
 10
25.41480884738517
 20
-19.98076923076923
 30
0.0
 10
25.44549570789666
 20
-19.97991455825701
 30
0.0
 10
25.5063324809439
 20
-19.97822016799392
 30
0.0
 10
25.595894723905
 20
-19.96193936594453
 30
0.0
 10
25.68287652617106
 20
-19.93692723703106
 30
0.0
 10
25.76548516390161
 20
-19.90110630552258
 30
0.0
 10
25.84258077843313
 20
-19.8577678197976
 30
0.0
 10
25.91018747376977
 20
-19.80542164229029
 30
0.0
 10
25.96863358694925
 20
-19.74681543657659
 30
0.0
 10
26.01644270151639
 20
-19.68143278193467
 30
0.0
 10
26.05312273680475
 20
-19.61111563332738
 30
0.0
 10
26.08131480521796
 20
-19.53893968198908
 30
0.0
 10
26.09695987887435
 20
-19.4637711137101
 30
0.0
 10
26.09931663233104
 20
-19.41316065086231
 30
0.0
 10
26.10050596276978
 20
-19.38762019230769
 30
0.0
  0
SPLINE
  5
AA
330
1F
100
AcDbEntity
  8
0
  6
Continuous
 62
     7
370
    25
100
AcDbSpline
210
0.0
220
0.0
230
1.0
 70
     8
 71
     3
 72
    15
 73
    11
 74
     0
 42
0.000000001
 43
0.00000001
 40
0.0
 40
0.0
 40
0.0
 40
0.0
 40
0.1590042985173788
 40
0.3046460998968134
 40
0.4385469045795918
 40
0.5623222987759264
 40
0.6774325425257322
 40
0.786897392938756
 40
0.893610889104268
 40
1.0
 40
1.0
 40
1.0
 40
1.0
 10
24.64637936020568
 20
-19.3974358974359
 30
0.0
 10
24.67389759745621
 20
-19.44350028238301
 30
0.0
 10
24.72662147808447
 20
-19.53175786629196
 30
0.0
 10
24.81457283723696
 20
-19.65101590672073
 30
0.0
 10
24.90570574840287
 20
-19.75237806347973
 30
0.0
 10
25.00069508195232
 20
-19.83525467101956
 30
0.0
 10
25.0989610300747
 20
-19.90050355776718
 30
0.0
 10
25.2011450838114
 20
-19.94670578948574
 30
0.0
 10
25.30690289452284
 20
-19.97552176485707
 30
0.0
 10
25.37887671600226
 20
-19.97902185141173
 30
0.0
 10
25.41480884738517
 20
-19.98076923076923
 30
0.0
  0
SPLINE
  5
AC
330
1F
100
AcDbEntity
  8
0
  6
Continuous
 62
     7
370
    25
100
AcDbSpline
210
0.0
220
0.0
230
1.0
 70
     8
 71
     3
 72
    23
 73
    19
 74
     0
 42
0.000000001
 43
0.00000001
 40
0.0
 40
0.0
 40
0.0
 40
0.0
 40
0.0572082694335097
 40
0.1136960596574917
 40
0.1691779164171948
 40
0.2241592165805443
 40
0.2787198783810446
 40
0.3337942174469902
 40
0.3892414593400043
 40
0.4458220733936227
 40
0.5037042811090217
 40
0.5642938918193646
 40
0.6279754158952254
 40
0.6950382596840523
 40
0.7653727258510141
 40
0.8396114430907361
 40
0.9175377500777901
 40
1.0
 40
1.0
 40
1.0
 40
1.0
 10
25.41480884738517
 20
-20.33974358974359
 30
0.0
 10
25.38837350440419
 20
-20.33923240814618
 30
0.0
 10
25.33583574434969
 20
-20.33821648275688
 30
0.0
 10
25.25812626247651
 20
-20.3292352023347
 30
0.0
 10
25.18198667327844
 20
-20.31652809874353
 30
0.0
 10
25.10837239124431
 20
-20.29635402876659
 30
0.0
 10
25.03633497960258
 20
-20.2718770517245
 30
0.0
 10
24.96618774507661
 20
-20.2417387191263
 30
0.0
 10
24.89789669122074
 20
-20.20562151767893
 30
0.0
 10
24.83107910835239
 20
-20.16432649305029
 30
0.0
 10
24.76590493376626
 20
-20.11626874848668
 30
0.0
 10
24.70298546583739
 20
-20.06029525204849
 30
0.0
 10
24.64025628032411
 20
-19.99794974705719
 30
0.0
 10
24.57956888400252
 20
-19.9275391836955
 30
0.0
 10
24.51969573969673
 20
-19.85020110083773
 30
0.0
 10
24.46181733016023
 20
-19.7652119174403
 30
0.0
 10
24.40473561248119
 20
-19.67303456368132
 30
0.0
 10
24.36892014465389
 20
-19.60816947796151
 30
0.0
 10
24.35050596276978
 20
-19.57481971153846
 30
0.0
  0
SPLINE
  5
BC
330
1F
100
AcDbEntity
  8
0
  6
Continuous
 62
     7
370
    25
100
AcDbSpline
210
0.0
220
0.0
230
1.0
 70
     8
 71
     3
 72
    15
 73
    11
 74
     0
 42
0.000000001
 43
0.00000001
 40
0.0
 40
0.0
 40
0.0
 40
0.0
 40
0.0751731173762229
 40
0.1647462575118028
 40
0.2680168809877816
 40
0.3859118756529535
 40
0.517789479273398
 40
0.6636909770022813
 40
0.8244132205366415
 40
1.0
 40
1.0
 40
1.0
 40
1.0
 10
16.20347070635951
 20
-18.57712339743589
 30
0.0
 10
16.18154337236809
 20
-18.58178637851379
 30
0.0
 10
16.13348834500749
 20
-18.59200557266516
 30
0.0
 10
16.05434562282973
 20
-18.60341402951002
 30
0.0
 10
15.96220023689992
 20
-18.61315163019549
 30
0.0
 10
15.85717795698435
 20
-18.62045276777654
 30
0.0
 10
15.73937305206278
 20
-18.62670313623855
 30
0.0
 10
15.60872179473303
 20
-18.63167123012924
 30
0.0
 10
15.46496771755372
 20
-18.63440108396438
 30
0.0
 10
15.36469647347576
 20
-18.63454187676287
 30
0.0
 10
15.31234490507746
 20
-18.63461538461538
 30
0.0
  0
SPLINE
  5
BD
330
1F
100
AcDbEntity
  8
0
  6
Continuous
 62
     7
370
    25
100
AcDbSpline
210
0.0
220
0.0
230
1.0
 70
     8
 71
     3
 72
    23
 73
    19
 74
     0
 42
0.000000001
 43
0.00000001
 40
0.0
 40
0.0
 40
0.0
 40
0.0
 40
0.0701188944197163
 40
0.1371923527859724
 40
0.2020161807247527
 40
0.2646314069747432
 40
0.3261165471458179
 40
0.386010304667642
 40
0.4458118469576794
 40
0.505297696730958
 40
0.5646332777264883
 40
0.6242826253338425
 40
0.6839020319037507
 40
0.7439527709382711
 40
0.8053877310076358
 40
0.8683880308962808
 40
0.9330840282524765
 40
1.0
 40
1.0
 40
1.0
 40
1.0
 10
16.90178801405182
 20
-17.68880208333333
 30
0.0
 10
16.90136658932286
 20
-17.71757986012081
 30
0.0
 10
16.90054204337748
 20
-17.77388552406629
 30
0.0
 10
16.89064575804863
 20
-17.85625831225498
 30
0.0
 10
16.87731556642993
 20
-17.93497670238658
 30
0.0
 10
16.85681851410272
 20
-18.00986615285599
 30
0.0
 10
16.82997284100432
 20
-18.08048192332677
 30
0.0
 10
16.79848078815863
 20
-18.1479031553475
 30
0.0
 10
16.76049725778886
 20
-18.2109828272461
 30
0.0
 10
16.71685242807836
 20
-18.26994994478775
 30
0.0
 10
16.66830083368546
 20
-18.32485985710192
 30
0.0
 10
16.6150478955382
 20
-18.37531465159462
 30
0.0
 10
16.55730860303794
 20
-18.42101899001716
 30
0.0
 10
16.49526645496157
 20
-18.46207533369754
 30
0.0
 10
16.42831660612502
 20
-18.49753161319522
 30
0.0
 10
16.35747445255408
 20
-18.52928891812076
 30
0.0
 10
16.28212423613216
 20
-18.55595997875925
 30
0.0
 10
16.22998172215679
 20
-18.56999004018565
 30
0.0
 10
16.20347070635951
 20
-18.57712339743589
 30
0.0
  0
SPLINE
  5
BE
330
1F
100
AcDbEntity
  8
0
  6
Continuous
 62
     7
370
    25
100
AcDbSpline
210
0.0
220
0.0
230
1.0
 70
     8
 71
     3
 72
    23
 73
    19
 74
     0
 42
0.000000001
 43
0.00000001
 40
0.0
 40
0.0
 40
0.0
 40
0.0
 40
0.0624813386352047
 40
0.1234903826872914
 40
0.1834110942063092
 40
0.243153220999777
 40
0.3021267353720885
 40
0.3617096708329051
 40
0.4218422916948791
 40
0.4829319014466684
 40
0.5445522544313235
 40
0.6056807199653562
 40
0.6676797383436865
 40
0.7299843875380627
 40
0.7945509212861298
 40
0.8603456197120838
 40
0.9289073562657097
 40
1.0
 40
1.0
 40
1.0
 40
1.0
 10
16.23151557815438
 20
-16.80258413461538
 30
0.0
 10
16.25570911193968
 20
-16.80920608444708
 30
0.0
 10
16.30352608915182
 20
-16.82229394614651
 30
0.0
 10
16.37242713225343
 20
-16.84850766962215
 30
0.0
 10
16.43798097773382
 20
-16.87958983479764
 30
0.0
 10
16.500412536179
 20
-16.91501377464855
 30
0.0
 10
16.55895461924987
 20
-16.95629933883568
 30
0.0
 10
16.61448066021588
 20
-17.00177295657498
 30
0.0
 10
16.66650064051157
 20
-17.05248452514741
 30
0.0
 10
16.71472203239574
 20
-17.10786526499484
 30
0.0
 10
16.7590068299797
 20
-17.16698547487633
 30
0.0
 10
16.79713651270688
 20
-17.23072770478382
 30
0.0
 10
16.82906373974014
 20
-17.29801900820366
 30
0.0
 10
16.8564470112243
 20
-17.368812579361
 30
0.0
 10
16.87615546569349
 20
-17.44370290285234
 30
0.0
 10
16.89100236539894
 20
-17.52216961522653
 30
0.0
 10
16.90042599301459
 20
-17.60420430542802
 30
0.0
 10
16.90132855476974
 20
-17.66026417294888
 30
0.0
 10
16.90178801405182
 20
-17.68880208333333
 30
0.0
  0
SPLINE
  5
BF
330
1F
100
AcDbEntity
  8
0
  6
Continuous
 62
     7
370
    25
100
AcDbSpline
210
0.0
220
0.0
230
1.0
 70
     8
 71
     3
 72
    15
 73
    11
 74
     0
 42
0.000000001
 43
0.00000001
 40
0.0
 40
0.0
 40
0.0
 40
0.0
 40
0.1769557521312494
 40
0.3390550796425806
 40
0.4863182249420754
 40
0.6187809228353751
 40
0.735618827767378
 40
0.8387424767201069
 40
0.9264570678763133
 40
1.0
 40
1.0
 40
1.0
 40
1.0
 10
15.43434009738515
 20
-16.75
 30
0.0
 10
15.48155100353681
 20
-16.75005189624084
 30
0.0
 10
15.5720091963475
 20
-16.750151331743
 30
0.0
 10
15.7017242520564
 20
-16.75316607756865
 30
0.0
 10
15.81953398368273
 20
-16.75719276966141
 30
0.0
 10
15.92518436460944
 20
-16.76277466285452
 30
0.0
 10
16.01900046269603
 20
-16.76937125310204
 30
0.0
 10
16.10055776224259
 20
-16.77862329247947
 30
0.0
 10
16.17049731857643
 20
-16.78828358803279
 30
0.0
 10
16.21240376802295
 20
-16.79810499455218
 30
0.0
 10
16.23151557815438
 20
-16.80258413461538
 30
0.0
  0
SPLINE
  5
C3
330
1F
100
AcDbEntity
  8
0
  6
Continuous
 62
     7
370
    25
100
AcDbSpline
210
0.0
220
0.0
230
1.0
 70
     8
 71
     3
 72
    15
 73
    11
 74
     0
 42
0.000000001
 43
0.00000001
 40
0.0
 40
0.0
 40
0.0
 40
0.0
 40
0.1298621417207371
 40
0.2546535308972886
 40
0.3760145541937148
 40
0.4952552518176065
 40
0.6147977192994595
 40
0.7381055541683338
 40
0.865196300072359
 40
1.0
 40
1.0
 40
1.0
 40
1.0
 10
14.89057006533386
 20
-22.26282051282051
 30
0.0
 10
14.92039855622698
 20
-22.26364208513015
 30
0.0
 10
14.97889081907293
 20
-22.26525314965414
 30
0.0
 10
15.06444968151112
 20
-22.27866042240785
 30
0.0
 10
15.14538938317029
 20
-22.30131097506775
 30
0.0
 10
15.22233472718748
 20
-22.33212097393833
 30
0.0
 10
15.29500940495595
 20
-22.37306310484229
 30
0.0
 10
15.36272539599363
 20
-22.4247087968558
 30
0.0
 10
15.42619138645524
 20
-22.48673233226728
 30
0.0
 10
15.46298012454622
 20
-22.5343725862497
 30
0.0
 10
15.48191621918002
 20
-22.55889423076923
 30
0.0
  0
SPLINE
  5
C4
330
1F
100
AcDbEntity
  8
0
  6
Continuous
 62
     7
370
    25
100
AcDbSpline
210
0.0
220
0.0
230
1.0
 70
     8
 71
     3
 72
    23
 73
    19
 74
     0
 42
0.000000001
 43
0.00000001
 40
0.0
 40
0.0
 40
0.0
 40
0.0
 40
0.0637745323056325
 40
0.1260788099895066
 40
0.1869040927472071
 40
0.2475739349176178
 40
0.3080033561644455
 40
0.3691318984609777
 40
0.432033227744205
 40
0.4967907944370907
 40
0.5616108232295641
 40
0.6249138657484622
 40
0.6867263492419237
 40
0.7480788332577715
 40
0.8095822911398952
 40
0.8716307425688273
 40
0.9348858208285542
 40
1.0
 40
1.0
 40
1.0
 40
1.0
 10
14.12294186020566
 20
-23.01522435897436
 30
0.0
 10
14.12365784385416
 20
-22.98981652836326
 30
0.0
 10
14.12507330490283
 20
-22.93958661789506
 30
0.0
 10
14.13561800195442
 20
-22.86571307618887
 30
0.0
 10
14.15335000690252
 20
-22.79455978434129
 30
0.0
 10
14.17823449128302
 20
-22.72635581678487
 30
0.0
 10
14.21014417983338
 20
-22.66101864527139
 30
0.0
 10
14.24896022955958
 20
-22.59850205954856
 30
0.0
 10
14.2946854436732
 20
-22.53863383242739
 30
0.0
 10
14.34740110482542
 20
-22.48282170281667
 30
0.0
 10
14.4045066877755
 20
-22.43126706609131
 30
0.0
 10
14.46559739115571
 20
-22.38646189726704
 30
0.0
 10
14.52915355191047
 20
-22.34776655508646
 30
0.0
 10
14.59616098649469
 20
-22.31710742576854
 30
0.0
 10
14.66562790353126
 20
-22.29230222317171
 30
0.0
 10
14.73817272967253
 20
-22.27514052711427
 30
0.0
 10
14.81349363177286
 20
-22.26502777211998
 30
0.0
 10
14.86463105580978
 20
-22.26356333546222
 30
0.0
 10
14.89057006533386
 20
-22.26282051282051
 30
0.0
  0
SPLINE
  5
C5
330
1F
100
AcDbEntity
  8
0
  6
Continuous
 62
     7
370
    25
100
AcDbSpline
210
0.0
220
0.0
230
1.0
 70
     8
 71
     3
 72
    23
 73
    19
 74
     0
 42
0.000000001
 43
0.00000001
 40
0.0
 40
0.0
 40
0.0
 40
0.0
 40
0.0646199913407682
 40
0.1274334841444699
 40
0.1890041265579401
 40
0.2499300706860475
 40
0.3106684537406722
 40
0.3723289611368235
 40
0.4349391099970076
 40
0.4995755441940343
 40
0.564191207771923
 40
0.6267352169294779
 40
0.6881093335614001
 40
0.7492936065367504
 40
0.8103305278109441
 40
0.871901170224416
 40
0.9350459146845319
 40
1.0
 40
1.0
 40
1.0
 40
1.0
 10
14.88496109097489
 20
-23.77564102564103
 30
0.0
 10
14.85915083164201
 20
-23.77494024148723
 30
0.0
 10
14.8082518574203
 20
-23.77355826410686
 30
0.0
 10
14.73337809905521
 20
-23.76283694775357
 30
0.0
 10
14.66132538508226
 20
-23.74561944967238
 30
0.0
 10
14.59202562927552
 20
-23.7216760842485
 30
0.0
 10
14.52592726045603
 20
-23.68991561474098
 30
0.0
 10
14.46246434807185
 20
-23.65189204443158
 30
0.0
 10
14.40196566691808
 20
-23.6066115700998
 30
0.0
 10
14.34535335893873
 20
-23.55484698246956
 30
0.0
 10
14.29322078729537
 20
-23.49862127550752
 30
0.0
 10
14.24747148865411
 20
-23.43865239157886
 30
0.0
 10
14.20932687159426
 20
-23.37519964649733
 30
0.0
 10
14.17742968261868
 20
-23.30906641570379
 30
0.0
 10
14.15286034293825
 20
-23.23974360454148
 30
0.0
 10
14.13573255193373
 20
-23.16747093714732
 30
0.0
 10
14.12502372524763
 20
-23.09233386655313
 30
0.0
 10
14.12364231914195
 20
-23.0411684247842
 30
0.0
 10
14.12294186020566
 20
-23.01522435897436
 30
0.0
  0
SPLINE
  5
C6
330
1F
100
AcDbEntity
  8
0
  6
Continuous
 62
     7
370
    25
100
AcDbSpline
210
0.0
220
0.0
230
1.0
 70
     8
 71
     3
 72
    15
 73
    11
 74
     0
 42
0.000000001
 43
0.00000001
 40
0.0
 40
0.0
 40
0.0
 40
0.0
 40
0.13429837901417
 40
0.2620849753823017
 40
0.3862699121345007
 40
0.5071645966228
 40
0.6273002357255044
 40
0.7481449416029936
 40
0.872370177161352
 40
1.0
 40
1.0
 40
1.0
 40
1.0
 10
15.48191621918002
 20
-23.49719551282052
 30
0.0
 10
15.46167691025079
 20
-23.52007528079642
 30
0.0
 10
15.42217964437602
 20
-23.56472543570324
 30
0.0
 10
15.35621329124946
 20
-23.62305810569796
 30
0.0
 10
15.28628861816232
 20
-23.67127428943513
 30
0.0
 10
15.21274500608764
 20
-23.71021709840678
 30
0.0
 10
15.13564886703358
 20
-23.73946970202813
 30
0.0
 10
15.05517110287572
 20
-23.76026179295715
 30
0.0
 10
14.97127888523827
 20
-23.77362969876988
 30
0.0
 10
14.91399182535826
 20
-23.77496456840932
 30
0.0
 10
14.88496109097489
 20
-23.77564102564103
 30
0.0
  0
SPLINE
  5
FF
330
1F
100
AcDbEntity
  8
0
  6
Continuous
 62
     7
370
    25
100
AcDbSpline
210
0.0
220
0.0
230
1.0
 70
     8
 71
     3
 72
    15
 73
    11
 74
     0
 42
0.000000001
 43
0.00000001
 40
0.0
 40
0.0
 40
0.0
 40
0.0
 40
0.0751731173762229
 40
0.1647462575118028
 40
0.2680168809877816
 40
0.3859118756529535
 40
0.517789479273398
 40
0.6636909770022813
 40
0.8244132205366433
 40
1.0
 40
1.0
 40
1.0
 40
1.0
 10
19.07526557815439
 20
-18.57712339743589
 30
0.0
 10
19.05333824416297
 20
-18.58178637851379
 30
0.0
 10
19.00528321680236
 20
-18.59200557266516
 30
0.0
 10
18.9261404946246
 20
-18.60341402951002
 30
0.0
 10
18.8339951086948
 20
-18.61315163019549
 30
0.0
 10
18.72897282877923
 20
-18.62045276777654
 30
0.0
 10
18.61116792385765
 20
-18.62670313623855
 30
0.0
 10
18.4805166665279
 20
-18.63167123012923
 30
0.0
 10
18.33676258934861
 20
-18.63440108396438
 30
0.0
 10
18.23649134527064
 20
-18.63454187676287
 30
0.0
 10
18.18413977687233
 20
-18.63461538461538
 30
0.0
  0
SPLINE
  5
100
330
1F
100
AcDbEntity
  8
0
  6
Continuous
 62
     7
370
    25
100
AcDbSpline
210
0.0
220
0.0
230
1.0
 70
     8
 71
     3
 72
    23
 73
    19
 74
     0
 42
0.000000001
 43
0.00000001
 40
0.0
 40
0.0
 40
0.0
 40
0.0
 40
0.0701188944197163
 40
0.1371923527859724
 40
0.2020161807247527
 40
0.2646314069747432
 40
0.3261165471458179
 40
0.386010304667642
 40
0.4458118469576794
 40
0.505297696730958
 40
0.5646332777264883
 40
0.6242826253338425
 40
0.6839020319037507
 40
0.7439527709382711
 40
0.8053877310076358
 40
0.8683880308962808
 40
0.9330840282524765
 40
1.0
 40
1.0
 40
1.0
 40
1.0
 10
19.77358288584669
 20
-17.68880208333333
 30
0.0
 10
19.77316146111774
 20
-17.71757986012081
 30
0.0
 10
19.77233691517236
 20
-17.77388552406629
 30
0.0
 10
19.76244062984351
 20
-17.85625831225498
 30
0.0
 10
19.7491104382248
 20
-17.93497670238658
 30
0.0
 10
19.7286133858976
 20
-18.00986615285599
 30
0.0
 10
19.7017677127992
 20
-18.08048192332677
 30
0.0
 10
19.6702756599535
 20
-18.1479031553475
 30
0.0
 10
19.63229212958374
 20
-18.2109828272461
 30
0.0
 10
19.58864729987324
 20
-18.26994994478775
 30
0.0
 10
19.54009570548033
 20
-18.32485985710192
 30
0.0
 10
19.48684276733308
 20
-18.37531465159462
 30
0.0
 10
19.42910347483281
 20
-18.42101899001716
 30
0.0
 10
19.36706132675645
 20
-18.46207533369754
 30
0.0
 10
19.30011147791991
 20
-18.49753161319522
 30
0.0
 10
19.22926932434896
 20
-18.52928891812076
 30
0.0
 10
19.15391910792704
 20
-18.55595997875925
 30
0.0
 10
19.10177659395167
 20
-18.56999004018565
 30
0.0
 10
19.07526557815439
 20
-18.57712339743589
 30
0.0
  0
SPLINE
  5
101
330
1F
100
AcDbEntity
  8
0
  6
Continuous
 62
     7
370
    25
100
AcDbSpline
210
0.0
220
0.0
230
1.0
 70
     8
 71
     3
 72
    23
 73
    19
 74
     0
 42
0.000000001
 43
0.00000001
 40
0.0
 40
0.0
 40
0.0
 40
0.0
 40
0.0624813386352047
 40
0.1234903826872914
 40
0.1834110942063092
 40
0.243153220999777
 40
0.3021267353720885
 40
0.3617096708329051
 40
0.4218422916948791
 40
0.4829319014466684
 40
0.5445522544313235
 40
0.6056807199653562
 40
0.6676797383436865
 40
0.7299843875380627
 40
0.7945509212861298
 40
0.8603456197120838
 40
0.9289073562657097
 40
1.0
 40
1.0
 40
1.0
 40
1.0
 10
19.10331044994926
 20
-16.80258413461538
 30
0.0
 10
19.12750398373455
 20
-16.80920608444708
 30
0.0
 10
19.17532096094669
 20
-16.82229394614651
 30
0.0
 10
19.24422200404831
 20
-16.84850766962215
 30
0.0
 10
19.30977584952869
 20
-16.87958983479764
 30
0.0
 10
19.37220740797387
 20
-16.91501377464855
 30
0.0
 10
19.43074949104474
 20
-16.95629933883568
 30
0.0
 10
19.48627553201075
 20
-17.00177295657498
 30
0.0
 10
19.53829551230645
 20
-17.05248452514741
 30
0.0
 10
19.58651690419062
 20
-17.10786526499484
 30
0.0
 10
19.63080170177457
 20
-17.16698547487633
 30
0.0
 10
19.66893138450176
 20
-17.23072770478382
 30
0.0
 10
19.70085861153501
 20
-17.29801900820366
 30
0.0
 10
19.72824188301918
 20
-17.368812579361
 30
0.0
 10
19.74795033748837
 20
-17.44370290285234
 30
0.0
 10
19.76279723719382
 20
-17.52216961522653
 30
0.0
 10
19.77222086480947
 20
-17.60420430542802
 30
0.0
 10
19.77312342656461
 20
-17.66026417294888
 30
0.0
 10
19.77358288584669
 20
-17.68880208333333
 30
0.0
  0
SPLINE
  5
102
330
1F
100
AcDbEntity
  8
0
  6
Continuous
 62
     7
370
    25
100
AcDbSpline
210
0.0
220
0.0
230
1.0
 70
     8
 71
     3
 72
    15
 73
    11
 74
     0
 42
0.000000001
 43
0.00000001
 40
0.0
 40
0.0
 40
0.0
 40
0.0
 40
0.1769557521312533
 40
0.339055079642582
 40
0.4863182249420765
 40
0.618780922835376
 40
0.7356188277673785
 40
0.8387424767201073
 40
0.9264570678763135
 40
1.0
 40
1.0
 40
1.0
 40
1.0
 10
18.30613496918002
 20
-16.75
 30
0.0
 10
18.35334587533169
 20
-16.75005189624085
 30
0.0
 10
18.44380406814239
 20
-16.75015133174301
 30
0.0
 10
18.57351912385126
 20
-16.75316607756863
 30
0.0
 10
18.69132885547761
 20
-16.75719276966142
 30
0.0
 10
18.79697923640433
 20
-16.76277466285452
 30
0.0
 10
18.89079533449091
 20
-16.76937125310204
 30
0.0
 10
18.97235263403747
 20
-16.77862329247946
 30
0.0
 10
19.04229219037131
 20
-16.78828358803279
 30
0.0
 10
19.08419863981783
 20
-16.79810499455219
 30
0.0
 10
19.10331044994926
 20
-16.80258413461538
 30
0.0
  0
SPLINE
  5
105
330
1F
100
AcDbEntity
  8
0
  6
Continuous
 62
     7
370
    25
100
AcDbSpline
210
0.0
220
0.0
230
1.0
 70
     8
 71
     3
 72
    23
 73
    19
 74
     0
 42
0.000000001
 43
0.00000001
 40
0.0
 40
0.0
 40
0.0
 40
0.0
 40
0.0658188768433071
 40
0.1297465269068312
 40
0.1920719544880061
 40
0.2534594242982026
 40
0.31456958779642
 40
0.3762798811880262
 40
0.4390256536685601
 40
0.5032670288290856
 40
0.5674928228792949
 40
0.6297047956052452
 40
0.6909996492157559
 40
0.7514516509174476
 40
0.8120043642646947
 40
0.8731496810680434
 40
0.9356354837317856
 40
1.0
 40
1.0
 40
1.0
 40
1.0
 10
12.19585852687233
 20
-20.33974358974359
 30
0.0
 10
12.13243420789275
 20
-20.33819420288929
 30
0.0
 10
12.00740799195439
 20
-20.33513994896062
 30
0.0
 10
11.82387095657463
 20
-20.30895854415859
 30
0.0
 10
11.64759321272685
 20
-20.26801724035737
 30
0.0
 10
11.4790788615145
 20
-20.20950780413882
 30
0.0
 10
11.31823393191602
 20
-20.13389057341399
 30
0.0
 10
11.16474384922146
 20
-20.04168619434896
 30
0.0
 10
11.01922470197981
 20
-19.93227905316834
 30
0.0
 10
10.88288295549529
 20
-19.80811247858736
 30
0.0
 10
10.75813375731284
 20
-19.67294092657157
 30
0.0
 10
10.64937438161995
 20
-19.52810667149338
 30
0.0
 10
10.55714926830075
 20
-19.3764512148499
 30
0.0
 10
10.48178593580549
 20
-19.21755369073722
 30
0.0
 10
10.42212147646078
 20
-19.05218224803545
 30
0.0
 10
10.38141665832169
 20
-18.87923377054599
 30
0.0
 10
10.35508070625284
 20
-18.6996942647312
 30
0.0
 10
10.35204585977112
 20
-18.5774513664059
 30
0.0
 10
10.35050596276976
 20
-18.51542467948718
 30
0.0
  0
SPLINE
  5
106
330
1F
100
AcDbEntity
  8
0
  6
Continuous
 62
     7
370
    25
100
AcDbSpline
210
0.0
220
0.0
230
1.0
 70
     8
 71
     3
 72
    23
 73
    19
 74
     0
 42
0.000000001
 43
0.00000001
 40
0.0
 40
0.0
 40
0.0
 40
0.0
 40
0.0652265038922765
 40
0.1285689957067287
 40
0.1903203781044669
 40
0.2513779886240634
 40
0.3123875283336947
 40
0.3737887042767239
 40
0.4364311597804502
 40
0.5005667553098535
 40
0.5646867953847438
 40
0.6271355178835137
 40
0.6884554088949798
 40
0.7492457464637473
 40
0.8101551773646785
 40
0.8716709256529235
 40
0.9347734961077241
 40
1.0
 40
1.0
 40
1.0
 40
1.0
 10
14.02999314225694
 20
-18.49859775641025
 30
0.0
 10
14.02844320973285
 20
-18.56155520276682
 30
0.0
 10
14.02538811316714
 20
-18.68565162319879
 30
0.0
 10
13.9992193356316
 20
-18.86779506736951
 30
0.0
 10
13.95817833565758
 20
-19.04288576385173
 30
0.0
 10
13.89958206947497
 20
-19.21063141662665
 30
0.0
 10
13.82435659101168
 20
-19.37120898039167
 30
0.0
 10
13.73170141988074
 20
-19.52419593427352
 30
0.0
 10
13.6225602091386
 20
-19.66964243265943
 30
0.0
 10
13.49835335810528
 20
-19.80595509788311
 30
0.0
 10
13.36295231609123
 20
-19.93095256857672
 30
0.0
 10
13.21772204928227
 20
-20.03987144426039
 30
0.0
 10
13.06592872936025
 20
-20.13359556885928
 30
0.0
 10
12.90561902120089
 20
-20.20837924282453
 30
0.0
 10
12.73891898437444
 20
-20.2681511632696
 30
0.0
 10
12.56433666128594
 20
-20.30890379330098
 30
0.0
 10
12.38269010724555
 20
-20.33519083655304
 30
0.0
 10
12.25881910344297
 20
-20.3382093525162
 30
0.0
 10
12.19585852687233
 20
-20.33974358974359
 30
0.0
  0
SPLINE
  5
107
330
1F
100
AcDbEntity
  8
0
  6
Continuous
 62
     7
370
    25
100
AcDbSpline
210
0.0
220
0.0
230
1.0
 70
     8
 71
     3
 72
    23
 73
    19
 74
     0
 42
0.000000001
 43
0.00000001
 40
0.0
 40
0.0
 40
0.0
 40
0.0
 40
0.0665700352151804
 40
0.130749041482178
 40
0.1934128000295043
 40
0.254989398889709
 40
0.3161135558759008
 40
0.3772617579089845
 40
0.4394007841555529
 40
0.5029705893719761
 40
0.5665249763607316
 40
0.6282311025133089
 40
0.6890906105998638
 40
0.7493446689958043
 40
0.8101695933722071
 40
0.8716098243170439
 40
0.9348691840727643
 40
1.0
 40
1.0
 40
1.0
 40
1.0
 10
12.16781365507745
 20
-16.66025641025641
 30
0.0
 10
12.23262176098549
 20
-16.66189788962748
 30
0.0
 10
12.35991022794154
 20
-16.66512189054148
 30
0.0
 10
12.54698512566553
 20
-16.68980099409686
 30
0.0
 10
12.72558022095009
 20
-16.73249638406392
 30
0.0
 10
12.89715035975187
 20
-16.78935936654466
 30
0.0
 10
13.05964333632107
 20
-16.86521375192544
 30
0.0
 10
13.21428222881166
 20
-16.95689890026495
 30
0.0
 10
13.36069910263722
 20
-17.06537535902321
 30
0.0
 10
13.49692048416564
 20
-17.18980458587482
 30
0.0
 10
13.62157743444884
 20
-17.32518803977639
 30
0.0
 10
13.73140332071813
 20
-17.46966594984931
 30
0.0
 10
13.82344561444983
 20
-17.62236475215598
 30
0.0
 10
13.89903140161508
 20
-17.78282558279771
 30
0.0
 10
13.95833001130891
 20
-17.95068555077235
 30
0.0
 10
13.99924905499951
 20
-18.12683955351373
 30
0.0
 10
14.02538720515245
 20
-18.31014624358578
 30
0.0
 10
14.0284429825599
 20
-18.43517310830953
 30
0.0
 10
14.02999314225694
 20
-18.49859775641025
 30
0.0
  0
SPLINE
  5
108
330
1F
100
AcDbEntity
  8
0
  6
Continuous
 62
     7
370
    25
100
AcDbSpline
210
0.0
220
0.0
230
1.0
 70
     8
 71
     3
 72
    31
 73
    27
 74
     0
 42
0.000000001
 43
0.00000001
 40
0.0
 40
0.0
 40
0.0
 40
0.0
 40
0.0432089861713368
 40
0.0858728716306193
 40
0.128120006696703
 40
0.1701519644541988
 40
0.2119176209878609
 40
0.2537530026191239
 40
0.2960064088559508
 40
0.3384433571447839
 40
0.3810153681620335
 40
0.4228204794407609
 40
0.4640890557943134
 40
0.5051258486836869
 40
0.5459749706852411
 40
0.5869852111338595
 40
0.6283385916346623
 40
0.6700838015912063
 40
0.7119916023637223
 40
0.753039154863019
 40
0.7940493953116377
 40
0.834885542701582
 40
0.8754983129295131
 40
0.9165472998303796
 40
0.9580037786449614
 40
1.0
 40
1.0
 40
1.0
 40
1.0
 10
10.35050596276976
 20
-18.51542467948718
 30
0.0
 10
10.35104059827488
 20
-18.47379201035053
 30
0.0
 10
10.35210312461876
 20
-18.39105188684391
 30
0.0
 10
10.36489481708758
 20
-18.26818528669158
 30
0.0
 10
10.38345651829431
 20
-18.14729462892458
 30
0.0
 10
10.41005843084371
 20
-18.02872368096027
 30
0.0
 10
10.4448500978302
 20
-17.91276269625796
 30
0.0
 10
10.48590212522047
 20
-17.79861193342162
 30
0.0
 10
10.53604197057798
 20
-17.6874282096762
 30
0.0
 10
10.59272261861683
 20
-17.57868481796507
 30
0.0
 10
10.65598442663966
 20
-17.47407691212878
 30
0.0
 10
10.72586017609164
 20
-17.37519732897766
 30
0.0
 10
10.79989554455951
 20
-17.2812163321954
 30
0.0
 10
10.88105893818755
 20
-17.19456932835637
 30
0.0
 10
10.96667538338304
 20
-17.11273567196643
 30
0.0
 10
11.05813376151725
 20
-17.03697295494621
 30
0.0
 10
11.15487600588281
 20
-16.96659800398967
 30
0.0
 10
11.25731838564839
 20
-16.90317766290923
 30
0.0
 10
11.36293666052796
 20
-16.8458185282934
 30
0.0
 10
11.47181343830733
 20
-16.79659667731065
 30
0.0
 10
11.58247000981297
 20
-16.75435061580011
 30
0.0
 10
11.69542465773847
 20
-16.72010979060308
 30
0.0
 10
11.8103774298188
 20
-16.69307775461107
 30
0.0
 10
11.92757921439168
 20
-16.67467040090222
 30
0.0
 10
12.04693664067111
 20
-16.66184608301474
 30
0.0
 10
12.1273479596211
 20
-16.66078858102543
 30
0.0
 10
12.16781365507746
 20
-16.66025641025641
 30
0.0
  0
SPLINE
  5
109
330
1F
100
AcDbEntity
  8
0
  6
Continuous
 62
     7
370
    25
100
AcDbSpline
210
0.0
220
0.0
230
1.0
 70
     8
 71
     3
 72
    23
 73
    19
 74
     0
 42
0.000000001
 43
0.00000001
 40
0.0
 40
0.0
 40
0.0
 40
0.0
 40
0.0658188768433065
 40
0.1297465269068312
 40
0.1920719544880055
 40
0.2534594242982026
 40
0.3145695877964205
 40
0.3762798811880261
 40
0.4390256536685595
 40
0.5032670288290851
 40
0.5674928228792944
 40
0.6297047956052453
 40
0.690999649215756
 40
0.7514516509174476
 40
0.8120043642646947
 40
0.8731496810680434
 40
0.9356354837317856
 40
1.0
 40
1.0
 40
1.0
 40
1.0
 10
22.1573969884108
 20
-20.33974358974359
 30
0.0
 10
22.09397266943121
 20
-20.33819420288929
 30
0.0
 10
21.96894645349285
 20
-20.33513994896062
 30
0.0
 10
21.7854094181131
 20
-20.30895854415859
 30
0.0
 10
21.60913167426531
 20
-20.26801724035737
 30
0.0
 10
21.44061732305297
 20
-20.20950780413883
 30
0.0
 10
21.27977239345448
 20
-20.133890573414
 30
0.0
 10
21.12628231075993
 20
-20.04168619434896
 30
0.0
 10
20.98076316351828
 20
-19.93227905316834
 30
0.0
 10
20.84442141703375
 20
-19.80811247858735
 30
0.0
 10
20.71967221885131
 20
-19.67294092657156
 30
0.0
 10
20.61091284315841
 20
-19.52810667149337
 30
0.0
 10
20.51868772983923
 20
-19.37645121484991
 30
0.0
 10
20.44332439734395
 20
-19.21755369073721
 30
0.0
 10
20.38365993799925
 20
-19.05218224803545
 30
0.0
 10
20.34295511986015
 20
-18.87923377054599
 30
0.0
 10
20.31661916779131
 20
-18.6996942647312
 30
0.0
 10
20.31358432130958
 20
-18.5774513664059
 30
0.0
 10
20.31204442430823
 20
-18.51542467948718
 30
0.0
  0
SPLINE
  5
10A
330
1F
100
AcDbEntity
  8
0
  6
Continuous
 62
     7
370
    25
100
AcDbSpline
210
0.0
220
0.0
230
1.0
 70
     8
 71
     3
 72
    23
 73
    19
 74
     0
 42
0.000000001
 43
0.00000001
 40
0.0
 40
0.0
 40
0.0
 40
0.0
 40
0.0652265038922765
 40
0.1285689957067286
 40
0.1903203781044666
 40
0.2513779886240636
 40
0.3123875283336946
 40
0.3737887042767238
 40
0.4364311597804497
 40
0.5005667553098535
 40
0.5646867953847438
 40
0.6271355178835132
 40
0.6884554088949804
 40
0.7492457464637479
 40
0.8101551773646785
 40
0.8716709256529235
 40
0.9347734961077234
 40
1.0
 40
1.0
 40
1.0
 40
1.0
 10
23.9915316037954
 20
-18.49859775641025
 30
0.0
 10
23.98998167127132
 20
-18.56155520276682
 30
0.0
 10
23.98692657470561
 20
-18.68565162319879
 30
0.0
 10
23.96075779717006
 20
-18.8677950673695
 30
0.0
 10
23.91971679719605
 20
-19.04288576385173
 30
0.0
 10
23.86112053101343
 20
-19.21063141662665
 30
0.0
 10
23.78589505255015
 20
-19.37120898039167
 30
0.0
 10
23.69323988141919
 20
-19.52419593427351
 30
0.0
 10
23.58409867067708
 20
-19.66964243265944
 30
0.0
 10
23.45989181964374
 20
-19.80595509788311
 30
0.0
 10
23.3244907776297
 20
-19.93095256857672
 30
0.0
 10
23.17926051082075
 20
-20.0398714442604
 30
0.0
 10
23.02746719089871
 20
-20.13359556885928
 30
0.0
 10
22.86715748273937
 20
-20.20837924282453
 30
0.0
 10
22.7004574459129
 20
-20.2681511632696
 30
0.0
 10
22.52587512282441
 20
-20.30890379330098
 30
0.0
 10
22.34422856878402
 20
-20.33519083655305
 30
0.0
 10
22.22035756498144
 20
-20.33820935251619
 30
0.0
 10
22.1573969884108
 20
-20.33974358974359
 30
0.0
  0
SPLINE
  5
10B
330
1F
100
AcDbEntity
  8
0
  6
Continuous
 62
     7
370
    25
100
AcDbSpline
210
0.0
220
0.0
230
1.0
 70
     8
 71
     3
 72
    23
 73
    19
 74
     0
 42
0.000000001
 43
0.00000001
 40
0.0
 40
0.0
 40
0.0
 40
0.0
 40
0.0665700352151804
 40
0.130749041482178
 40
0.1934128000295038
 40
0.2549893988897084
 40
0.3161135558759003
 40
0.377261757908984
 40
0.4394007841555528
 40
0.502970589371976
 40
0.5665249763607315
 40
0.6282311025133086
 40
0.6890906105998634
 40
0.7493446689958037
 40
0.810169593372207
 40
0.8716098243170438
 40
0.9348691840727642
 40
1.0
 40
1.0
 40
1.0
 40
1.0
 10
22.12935211661592
 20
-16.66025641025641
 30
0.0
 10
22.19416022252395
 20
-16.66189788962747
 30
0.0
 10
22.32144868948
 20
-16.66512189054148
 30
0.0
 10
22.508523587204
 20
-16.68980099409686
 30
0.0
 10
22.68711868248856
 20
-16.73249638406394
 30
0.0
 10
22.85868882129034
 20
-16.78935936654466
 30
0.0
 10
23.02118179785954
 20
-16.86521375192544
 30
0.0
 10
23.17582069035012
 20
-16.95689890026495
 30
0.0
 10
23.32223756417569
 20
-17.06537535902322
 30
0.0
 10
23.45845894570411
 20
-17.18980458587482
 30
0.0
 10
23.5831158959873
 20
-17.32518803977639
 30
0.0
 10
23.69294178225659
 20
-17.46966594984931
 30
0.0
 10
23.7849840759883
 20
-17.62236475215598
 30
0.0
 10
23.86056986315355
 20
-17.78282558279771
 30
0.0
 10
23.91986847284738
 20
-17.95068555077235
 30
0.0
 10
23.96078751653797
 20
-18.12683955351372
 30
0.0
 10
23.98692566669091
 20
-18.31014624358578
 30
0.0
 10
23.98998144409837
 20
-18.43517310830953
 30
0.0
 10
23.9915316037954
 20
-18.49859775641025
 30
0.0
  0
SPLINE
  5
10C
330
1F
100
AcDbEntity
  8
0
  6
Continuous
 62
     7
370
    25
100
AcDbSpline
210
0.0
220
0.0
230
1.0
 70
     8
 71
     3
 72
    31
 73
    27
 74
     0
 42
0.000000001
 43
0.00000001
 40
0.0
 40
0.0
 40
0.0
 40
0.0
 40
0.0432089861713368
 40
0.0858728716306193
 40
0.1281200066967027
 40
0.1701519644541988
 40
0.2119176209878609
 40
0.2537530026191236
 40
0.2960064088559503
 40
0.3384433571447834
 40
0.3810153681620332
 40
0.4228204794407606
 40
0.4640890557943127
 40
0.5051258486836863
 40
0.5459749706852413
 40
0.5869852111338596
 40
0.6283385916346619
 40
0.6700838015912058
 40
0.7119916023637217
 40
0.7530391548630179
 40
0.7940493953116372
 40
0.8348855427015816
 40
0.8754983129295131
 40
0.9165472998303791
 40
0.9580037786449602
 40
1.0
 40
1.0
 40
1.0
 40
1.0
 10
20.31204442430823
 20
-18.51542467948718
 30
0.0
 10
20.31257905981334
 20
-18.47379201035052
 30
0.0
 10
20.31364158615724
 20
-18.3910518868439
 30
0.0
 10
20.32643327862606
 20
-18.26818528669158
 30
0.0
 10
20.34499497983277
 20
-18.14729462892457
 30
0.0
 10
20.37159689238219
 20
-18.02872368096027
 30
0.0
 10
20.40638855936867
 20
-17.91276269625796
 30
0.0
 10
20.44744058675894
 20
-17.79861193342162
 30
0.0
 10
20.49758043211644
 20
-17.6874282096762
 30
0.0
 10
20.5542610801553
 20
-17.57868481796507
 30
0.0
 10
20.61752288817812
 20
-17.47407691212878
 30
0.0
 10
20.6873986376301
 20
-17.37519732897766
 30
0.0
 10
20.76143400609797
 20
-17.28121633219541
 30
0.0
 10
20.84259739972602
 20
-17.19456932835636
 30
0.0
 10
20.92821384492151
 20
-17.11273567196644
 30
0.0
 10
21.01967222305572
 20
-17.03697295494621
 30
0.0
 10
21.11641446742128
 20
-16.96659800398967
 30
0.0
 10
21.21885684718686
 20
-16.90317766290923
 30
0.0
 10
21.32447512206642
 20
-16.8458185282934
 30
0.0
 10
21.43335189984579
 20
-16.79659667731065
 30
0.0
 10
21.54400847135144
 20
-16.75435061580011
 30
0.0
 10
21.65696311927693
 20
-16.72010979060307
 30
0.0
 10
21.77191589135727
 20
-16.69307775461107
 30
0.0
 10
21.88911767593014
 20
-16.67467040090222
 30
0.0
 10
22.00847510220958
 20
-16.66184608301474
 30
0.0
 10
22.08888642115956
 20
-16.66078858102543
 30
0.0
 10
22.12935211661592
 20
-16.66025641025641
 30
0.0
  0
SPLINE
  5
113
330
1F
100
AcDbEntity
  8
0
  6
Continuous
 62
     7
370
    25
100
AcDbSpline
210
0.0
220
0.0
230
1.0
 70
     8
 71
     3
 72
    15
 73
    11
 74
     0
 42
0.000000001
 43
0.00000001
 40
0.0
 40
0.0
 40
0.0
 40
0.0
 40
0.1268408077971974
 40
0.25054778215758
 40
0.3712302035652629
 40
0.4921157704266507
 40
0.613400987998632
 40
0.7379973201236227
 40
0.8661319098407474
 40
1.0
 40
1.0
 40
1.0
 40
1.0
 10
29.28319827046207
 20
-23.77564102564103
 30
0.0
 10
29.25415394363356
 20
-23.77490113551893
 30
0.0
 10
29.19678288302993
 20
-23.7734396356093
 30
0.0
 10
29.11289849993704
 20
-23.75862854414923
 30
0.0
 10
29.03216887027396
 20
-23.73649315234354
 30
0.0
 10
28.95548839899875
 20
-23.70409372740892
 30
0.0
 10
28.88224964898553
 20
-23.66280486120347
 30
0.0
 10
28.81286690283574
 20
-23.6124561720746
 30
0.0
 10
28.74697161546228
 20
-23.55315295793894
 30
0.0
 10
28.70730946844796
 20
-23.50816334870345
 30
0.0
 10
28.68704442430823
 20
-23.48517628205128
 30
0.0
  0
SPLINE
  5
114
330
1F
100
AcDbEntity
  8
0
  6
Continuous
 62
     7
370
    25
100
AcDbSpline
210
0.0
220
0.0
230
1.0
 70
     8
 71
     3
 72
    23
 73
    19
 74
     0
 42
0.000000001
 43
0.00000001
 40
0.0
 40
0.0
 40
0.0
 40
0.0
 40
0.0649212959378702
 40
0.1280341643911157
 40
0.1895737254178909
 40
0.2505798347323828
 40
0.3117332213636316
 40
0.3732500799286347
 40
0.4357625163356387
 40
0.5003455613741132
 40
0.5649493665465397
 40
0.6275279092682856
 40
0.6891572899131301
 40
0.7498650117126967
 40
0.8107601999033139
 40
0.8722997609300891
 40
0.9354126293833375
 40
1.0
 40
1.0
 40
1.0
 40
1.0
 10
30.04601878328258
 20
-23.01522435897435
 30
0.0
 10
30.04531850581987
 20
-23.04116853529046
 30
0.0
 10
30.04393745760626
 20
-23.09233419499367
 30
0.0
 10
30.03322602563974
 20
-23.16746967913212
 30
0.0
 10
30.01610781185097
 20
-23.23974817846241
 30
0.0
 10
29.99150313577924
 20
-23.30904947193283
 30
0.0
 10
29.95970799957811
 20
-23.37532584410006
 30
0.0
 10
29.9210196793706
 20
-23.43852949898573
 30
0.0
 10
29.87537026959407
 20
-23.49864018650004
 30
0.0
 10
29.8231981966159
 20
-23.55484184370029
 30
0.0
 10
29.76659651886913
 20
-23.60661287964007
 30
0.0
 10
29.70609509629923
 20
-23.65189177656246
 30
0.0
 10
29.64263285313205
 20
-23.689915419587
 30
0.0
 10
29.57653447191137
 20
-23.72167711076872
 30
0.0
 10
29.50723410705215
 20
-23.74561550166536
 30
0.0
 10
29.43505509122268
 20
-23.7628828163078
 30
0.0
 10
29.36003672179567
 20
-23.77353109958479
 30
0.0
 10
29.30900749208577
 20
-23.77493232383548
 30
0.0
 10
29.28319827046207
 20
-23.77564102564103
 30
0.0
  0
SPLINE
  5
115
330
1F
100
AcDbEntity
  8
0
  6
Continuous
 62
     7
370
    25
100
AcDbSpline
210
0.0
220
0.0
230
1.0
 70
     8
 71
     3
 72
    23
 73
    19
 74
     0
 42
0.000000001
 43
0.00000001
 40
0.0
 40
0.0
 40
0.0
 40
0.0
 40
0.0650810177750287
 40
0.1286360505630792
 40
0.1906529019116442
 40
0.2521250372681091
 40
0.3134462756463784
 40
0.3752272792333938
 40
0.4384980827328634
 40
0.5032850999340384
 40
0.5680096868463689
 40
0.6308789816949768
 40
0.6921535040082777
 40
0.752552149715603
 40
0.8131910939047698
 40
0.873985399518334
 40
0.9362579468344568
 40
1.0
 40
1.0
 40
1.0
 40
1.0
 10
29.2775892961031
 20
-22.26282051282051
 30
0.0
 10
29.3035273550729
 20
-22.26357090075863
 30
0.0
 10
29.35479529124255
 20
-22.26505408193879
 30
0.0
 10
29.430259993488
 20
-22.2750958274058
 30
0.0
 10
29.50293164121658
 20
-22.29230593736746
 30
0.0
 10
29.57239910063169
 20
-22.31710646043305
 30
0.0
 10
29.63940656645238
 20
-22.34776672896734
 30
0.0
 10
29.70296205207271
 20
-22.38646217786861
 30
0.0
 10
29.76405551243175
 20
-22.43126571546393
 30
0.0
 10
29.82115047763367
 20
-22.48282694450437
 30
0.0
 10
29.87390554479132
 20
-22.53861452531454
 30
0.0
 10
29.91953193400162
 20
-22.5986272705338
 30
0.0
 10
29.9588873078957
 20
-22.66089160561896
 30
0.0
 10
29.99069890587421
 20
-22.72637280117626
 30
0.0
 10
30.01561796154007
 20
-22.7945552182259
 30
0.0
 10
30.03334063447627
 20
-22.86571432731698
 30
0.0
 10
30.04388785932548
 20
-22.93958629328428
 30
0.0
 10
30.04530297455834
 20
-22.98981641932172
 30
0.0
 10
30.04601878328258
 20
-23.01522435897435
 30
0.0
  0
SPLINE
  5
116
330
1F
100
AcDbEntity
  8
0
  6
Continuous
 62
     7
370
    25
100
AcDbSpline
210
0.0
220
0.0
230
1.0
 70
     8
 71
     3
 72
    15
 73
    11
 74
     0
 42
0.000000001
 43
0.00000001
 40
0.0
 40
0.0
 40
0.0
 40
0.0
 40
0.1353597999413024
 40
0.2630446827611669
 40
0.3860610822643548
 40
0.5057706525454587
 40
0.6251780311386984
 40
0.7461477220466134
 40
0.8705380668997058
 40
0.9999999999999999
 40
0.9999999999999999
 40
0.9999999999999999
 40
0.9999999999999999
 10
28.68704442430823
 20
-22.55889423076923
 30
0.0
 10
28.7061058437663
 20
-22.53435838287288
 30
0.0
 10
28.7431478978806
 20
-22.48667787264038
 30
0.0
 10
28.80699070066074
 20
-22.42496922773351
 30
0.0
 10
28.87437744861266
 20
-22.37292619707855
 30
0.0
 10
28.94704225575674
 20
-22.33213617823009
 30
0.0
 10
29.023855792908
 20
-22.30138142856569
 30
0.0
 10
29.10450283144988
 20
-22.27865031434535
 30
0.0
 10
29.18966783995312
 20
-22.26525518600077
 30
0.0
 10
29.2478943843416
 20
-22.26364280817846
 30
0.0
 10
29.2775892961031
 20
-22.26282051282051
 30
0.0
  0
SPLINE
  5
11A
330
1F
100
AcDbEntity
  8
0
  6
Continuous
 62
     7
370
    25
100
AcDbSpline
210
0.0
220
0.0
230
1.0
 70
     8
 71
     3
 72
    15
 73
    11
 74
     0
 42
0.000000001
 43
0.00000001
 40
0.0
 40
0.0
 40
0.0
 40
0.0
 40
0.120911078748711
 40
0.2387622286387225
 40
0.3547548590848594
 40
0.4703593994502178
 40
0.5891440987928712
 40
0.7163289048363428
 40
0.8524452858576014
 40
1.0
 40
1.0
 40
1.0
 40
1.0
 10
25.87774955251335
 20
-22.26282051282051
 30
0.0
 10
25.90463580335877
 20
-22.26359575469602
 30
0.0
 10
25.9577278875418
 20
-22.2651266191945
 30
0.0
 10
26.0358598889295
 20
-22.27713870227061
 30
0.0
 10
26.11125545463063
 20
-22.29628956704299
 30
0.0
 10
26.18434003501746
 20
-22.32372707019165
 30
0.0
 10
26.25570897844677
 20
-22.36118423495455
 30
0.0
 10
26.32512706719534
 20
-22.41052306238899
 30
0.0
 10
26.39279514386672
 20
-22.47218611366439
 30
0.0
 10
26.4345539041797
 20
-22.51947346473137
 30
0.0
 10
26.45627519353899
 20
-22.54407051282051
 30
0.0
  0
SPLINE
  5
11B
330
1F
100
AcDbEntity
  8
0
  6
Continuous
 62
     7
370
    25
100
AcDbSpline
210
0.0
220
0.0
230
1.0
 70
     8
 71
     3
 72
    31
 73
    27
 74
     0
 42
0.000000001
 43
0.00000001
 40
0.0
 40
0.0
 40
0.0
 40
0.0
 40
0.0420341186638465
 40
0.0839054330862328
 40
0.1250689344486253
 40
0.1661584697031417
 40
0.2072102728707303
 40
0.2484907320562528
 40
0.2898781122327949
 40
0.3321695142040868
 40
0.3744758421539228
 40
0.4162249804562095
 40
0.457609586958506
 40
0.4990731704672255
 40
0.540553361553446
 40
0.5822488491953576
 40
0.6245497501259991
 40
0.667432800921034
 40
0.7103225433055312
 40
0.7524671185698677
 40
0.794064756843805
 40
0.8352157072950138
 40
0.876228344224684
 40
0.9174461887061516
 40
0.9586431404713239
 40
1.0
 40
1.0
 40
1.0
 40
1.0
 10
25.12294186020566
 20
-23.01442307692307
 30
0.0
 10
25.12323852664883
 20
-22.99784987920929
 30
0.0
 10
25.12383071050298
 20
-22.96476767418153
 30
0.0
 10
25.12894555584664
 20
-22.9156937396744
 30
0.0
 10
25.13624166408896
 20
-22.86727691953618
 30
0.0
 10
25.14778896065804
 20
-22.82001626714073
 30
0.0
 10
25.16168754494998
 20
-22.77337355184737
 30
0.0
 10
25.17890101498271
 20
-22.72769329104081
 30
0.0
 10
25.19959744888953
 20
-22.68296157155097
 30
0.0
 10
25.22303159156176
 20
-22.63914526786788
 30
0.0
 10
25.2493653587912
 20
-22.59683234504819
 30
0.0
 10
25.27824106210952
 20
-22.55664569024551
 30
0.0
 10
25.30969356168654
 20
-22.51888102057358
 30
0.0
 10
25.34328894204097
 20
-22.48315735093451
 30
0.0
 10
25.37943740892
 20
-22.4498193548108
 30
0.0
 10
25.41812026168873
 20
-22.41894794630596
 30
0.0
 10
25.45895619325805
 20
-22.39002564558051
 30
0.0
 10
25.50207176468427
 20
-22.36367631005992
 30
0.0
 10
25.54680170097954
 20
-22.34037216919137
 30
0.0
 10
25.59200959686119
 20
-22.31910782809156
 30
0.0
 10
25.63829430258734
 20
-22.30223118836005
 30
0.0
 10
25.68479289654389
 20
-22.28736084605407
 30
0.0
 10
25.73232427640845
 20
-22.27682644878556
 30
0.0
 10
25.78030564419272
 20
-22.26869945340401
 30
0.0
 10
25.82890126576716
 20
-22.26374818424668
 30
0.0
 10
25.86144577722292
 20
-22.26313013568516
 30
0.0
 10
25.87774955251335
 20
-22.26282051282051
 30
0.0
  0
SPLINE
  5
11C
330
1F
100
AcDbEntity
  8
0
  6
Continuous
 62
     7
370
    25
100
AcDbSpline
210
0.0
220
0.0
230
1.0
 70
     8
 71
     3
 72
    31
 73
    27
 74
     0
 42
0.000000001
 43
0.00000001
 40
0.0
 40
0.0
 40
0.0
 40
0.0
 40
0.0428647590311916
 40
0.0852222575672303
 40
0.1272022841437362
 40
0.1690253126085993
 40
0.2108820330997104
 40
0.2529626777271201
 40
0.2956282851000495
 40
0.3385532936306108
 40
0.3814632477171866
 40
0.4235815621432642
 40
0.465066165395452
 40
0.5063122188418636
 40
0.5470395054616128
 40
0.5876758328931707
 40
0.6286747862975582
 40
0.6699464646027601
 40
0.7110355744560759
 40
0.7519958286352159
 40
0.7926726074835058
 40
0.8334460178854425
 40
0.8741906070422416
 40
0.9154935830294656
 40
0.9574778068391491
 40
1.0
 40
1.0
 40
1.0
 40
1.0
 10
25.87214057815438
 20
-23.75
 30
0.0
 10
25.85543413848493
 20
-23.74970569915973
 30
0.0
 10
25.82221896273871
 20
-23.74912058022805
 30
0.0
 10
25.77287339289169
 20
-23.74400127884227
 30
0.0
 10
25.72425599956118
 20
-23.73657342610273
 30
0.0
 10
25.6764801689172
 20
-23.72566974668345
 30
0.0
 10
25.6294769614504
 20
-23.71167447437558
 30
0.0
 10
25.58332405166676
 20
-23.69417919509013
 30
0.0
 10
25.53764775077146
 20
-23.67439912750917
 30
0.0
 10
25.49327832342191
 20
-23.65110038268691
 30
0.0
 10
25.45065767728793
 20
-23.62517906448121
 30
0.0
 10
25.41010728578205
 20
-23.59709969836114
 30
0.0
 10
25.37183954916062
 20
-23.56700924793748
 30
0.0
 10
25.33621869804661
 20
-23.53461099662539
 30
0.0
 10
25.30329145721866
 20
-23.49995183504693
 30
0.0
 10
25.27261496118739
 20
-23.46340123331401
 30
0.0
 10
25.24469647714912
 20
-23.42444880968801
 30
0.0
 10
25.21896311186882
 20
-23.38380483395477
 30
0.0
 10
25.19664451165559
 20
-23.34119859177674
 30
0.0
 10
25.17705344204116
 20
-23.29755396581803
 30
0.0
 10
25.16001949630361
 20
-23.25296427754068
 30
0.0
 10
25.14643926673985
 20
-23.20728024173809
 30
0.0
 10
25.1360672020143
 20
-23.16053065952884
 30
0.0
 10
25.12834707230626
 20
-23.11279211731634
 30
0.0
 10
25.12396825421725
 20
-23.06391761009916
 30
0.0
 10
25.12328544047766
 20
-23.03099112484506
 30
0.0
 10
25.12294186020566
 20
-23.01442307692307
 30
0.0
  0
SPLINE
  5
11D
330
1F
100
AcDbEntity
  8
0
  6
Continuous
 62
     7
370
    25
100
AcDbSpline
210
0.0
220
0.0
230
1.0
 70
     8
 71
     3
 72
    15
 73
    11
 74
     0
 42
0.000000001
 43
0.00000001
 40
0.0
 40
0.0
 40
0.0
 40
0.0
 40
0.1265607130145222
 40
0.2508952618879489
 40
0.3747192653150425
 40
0.4998264235934726
 40
0.6249635314328651
 40
0.7490394747387381
 40
0.8731801199413524
 40
1.0
 40
1.0
 40
1.0
 40
1.0
 10
26.45627519353899
 20
-23.46995192307692
 30
0.0
 10
26.43805741216613
 20
-23.49163295288101
 30
0.0
 10
26.40194229460958
 20
-23.53461364982187
 30
0.0
 10
26.33957239339079
 20
-23.59093458507508
 30
0.0
 10
26.27144844160227
 20
-23.6394409452473
 30
0.0
 10
26.19768641737238
 20
-23.67922302211196
 30
0.0
 10
26.12009313613881
 20
-23.71104097903155
 30
0.0
 10
26.03950900447171
 20
-23.73329409954744
 30
0.0
 10
25.95665640149964
 20
-23.74767118519906
 30
0.0
 10
25.90051231588553
 20
-23.74921822304816
 30
0.0
 10
25.87214057815438
 20
-23.74999999999999
 30
0.0
  0
SPLINE
  5
11F
330
1F
100
AcDbEntity
  8
0
  6
Continuous
 62
     7
370
    25
100
AcDbSpline
210
0.0
220
0.0
230
1.0
 70
     8
 71
     3
 72
    23
 73
    19
 74
     0
 42
0.000000001
 43
0.00000001
 40
0.0
 40
0.0
 40
0.0
 40
0.0
 40
0.0981712978276953
 40
0.1892644356875874
 40
0.2744630560180376
 40
0.3550231712817381
 40
0.4309204620429338
 40
0.5010860453857524
 40
0.5666076270376
 40
0.6297208634283017
 40
0.6627106951128601
 40
0.6987655616316136
 40
0.7386105373889638
 40
0.7825812280784457
 40
0.8304087872491283
 40
0.8825778660702798
 40
0.9392286810451802
 40
1.0
 40
1.0
 40
1.0
 40
1.0
 10
25.87774955251335
 20
-24.13461538461538
 30
0.0
 10
25.90904491842415
 20
-24.13379815673249
 30
0.0
 10
25.9693792513688
 20
-24.13222262317526
 30
0.0
 10
26.05613991939471
 20
-24.11939854079088
 30
0.0
 10
26.1353370268621
 20
-24.09792800721276
 30
0.0
 10
26.20651428436324
 20
-24.06786607221495
 30
0.0
 10
26.26883186638459
 20
-24.03103726848088
 30
0.0
 10
26.32255300426147
 20
-23.98989436881815
 30
0.0
 10
26.36606424777153
 20
-23.94350522423838
 30
0.0
 10
26.39532880015431
 20
-23.90077276361511
 30
0.0
 10
26.41352001021077
 20
-23.86270183235973
 30
0.0
 10
26.4251041455054
 20
-23.82992892038396
 30
0.0
 10
26.43451784233646
 20
-23.79287013314829
 30
0.0
 10
26.44239203521397
 20
-23.75164971244968
 30
0.0
 10
26.44888969999773
 20
-23.70620876555414
 30
0.0
 10
26.45300563276772
 20
-23.6564433921971
 30
0.0
 10
26.45598038223758
 20
-23.60246669372744
 30
0.0
 10
26.45617465072252
 20
-23.56504204332192
 30
0.0
 10
26.45627519353899
 20
-23.54567307692307
 30
0.0
  0
SPLINE
  5
120
330
1F
100
AcDbEntity
  8
0
  6
Continuous
 62
     7
370
    25
100
AcDbSpline
210
0.0
220
0.0
230
1.0
 70
     8
 71
     3
 72
    15
 73
    11
 74
     0
 42
0.000000001
 43
0.00000001
 40
0.0
 40
0.0
 40
0.0
 40
0.0
 40
0.1247164867023061
 40
0.2438053739155108
 40
0.3600615340644442
 40
0.4751119996584062
 40
0.5935250978119032
 40
0.7193501703843598
 40
0.8538547713042648
 40
1.0
 40
1.0
 40
1.0
 40
1.0
 10
25.32807006533386
 20
-23.8525641025641
 30
0.0
 10
25.34250561350839
 20
-23.87548174586262
 30
0.0
 10
25.37072533259627
 20
-23.92028291643275
 30
0.0
 10
25.42349589314875
 20
-23.97829043410978
 30
0.0
 10
25.48132807963298
 20
-24.02786378535975
 30
0.0
 10
25.54617361288124
 20
-24.06781279911101
 30
0.0
 10
25.61830230740011
 20
-24.09793267991201
 30
0.0
 10
25.69775755663986
 20
-24.11940427787542
 30
0.0
 10
25.78518591191695
 20
-24.13225928750762
 30
0.0
 10
25.84605346287868
 20
-24.13380859844497
 30
0.0
 10
25.87774955251335
 20
-24.13461538461538
 30
0.0
  0
SPLINE
  5
122
330
1F
100
AcDbEntity
  8
0
  6
Continuous
 62
     7
370
    25
100
AcDbSpline
210
0.0
220
0.0
230
1.0
 70
     8
 71
     3
 72
    19
 73
    15
 74
     0
 42
0.000000001
 43
0.00000001
 40
0.0
 40
0.0
 40
0.0
 40
0.0
 40
0.0964914237691206
 40
0.1884736749923126
 40
0.2768399149588173
 40
0.362136562171428
 40
0.4434367545654581
 40
0.5201655209986237
 40
0.5927096635690032
 40
0.6629173343528182
 40
0.735418800202705
 40
0.8148809699994193
 40
0.9030605557399871
 40
1.0
 40
1.0
 40
1.0
 40
1.0
 10
25.89497711661592
 20
-24.31410256410256
 30
0.0
 10
25.86475726827207
 20
-24.31361314363932
 30
0.0
 10
25.80572978528346
 20
-24.31265717398193
 30
0.0
 10
25.71966978946366
 20
-24.30151950821542
 30
0.0
 10
25.63793566379163
 20
-24.28577415217349
 30
0.0
 10
25.56160740282017
 20
-24.26194247924074
 30
0.0
 10
25.49116734746552
 20
-24.23277848510872
 30
0.0
 10
25.42709656144829
 20
-24.19929565484903
 30
0.0
 10
25.36997021429526
 20
-24.16090176410538
 30
0.0
 10
25.31847097257922
 20
-24.11718713501025
 30
0.0
 10
25.27199006393004
 20
-24.06520788836032
 30
0.0
 10
25.22826018394117
 20
-24.00395140600332
 30
0.0
 10
25.18616821716519
 20
-23.93248461220264
 30
0.0
 10
25.16150042409792
 20
-23.88003163322293
 30
0.0
 10
25.14858288584669
 20
-23.8525641025641
 30
0.0
  0
SPLINE
  5
123
330
1F
100
AcDbEntity
  8
0
  6
Continuous
 62
     7
370
    25
100
AcDbSpline
210
0.0
220
0.0
230
1.0
 70
     8
 71
     3
 72
    23
 73
    19
 74
     0
 42
0.000000001
 43
0.00000001
 40
0.0
 40
0.0
 40
0.0
 40
0.0
 40
0.0613707062984594
 40
0.1209064680177786
 40
0.1794236650000277
 40
0.2376066874397813
 40
0.2959384682493721
 40
0.3542182268208567
 40
0.4135370665946793
 40
0.4740867825531911
 40
0.5351211890802695
 40
0.5969876649622256
 40
0.6600198335468099
 40
0.7242774964844945
 40
0.7900118502255417
 40
0.85774768433445
 40
0.9278290322155507
 40
1.0
 40
1.0
 40
1.0
 40
1.0
 10
26.58247711661592
 20
-23.89663461538461
 30
0.0
 10
26.57608326590933
 20
-23.91305171343683
 30
0.0
 10
26.56348673651292
 20
-23.94539504888652
 30
0.0
 10
26.53989494596497
 20
-23.9912432321972
 30
0.0
 10
26.51347557246849
 20
-24.03441259782361
 30
0.0
 10
26.4833002863912
 20
-24.0746625699977
 30
0.0
 10
26.4495055412302
 20
-24.11179109134767
 30
0.0
 10
26.41288754571332
 20
-24.1466048052218
 30
0.0
 10
26.37273315061531
 20
-24.1783671865848
 30
0.0
 10
26.32906531506903
 20
-24.20653021370297
 30
0.0
 10
26.28289066752566
 20
-24.2318942446478
 30
0.0
 10
26.23423575205898
 20
-24.25386371160986
 30
0.0
 10
26.18337493013688
 20
-24.27299905082281
 30
0.0
 10
26.12983042065178
 20
-24.2873320769541
 30
0.0
 10
26.07444171524147
 20
-24.29975191727805
 30
0.0
 10
26.01655746890979
 20
-24.30783459487482
 30
0.0
 10
25.95651587073539
 20
-24.31333577094738
 30
0.0
 10
25.91568993926089
 20
-24.31384447550691
 30
0.0
 10
25.89497711661593
 20
-24.31410256410256
 30
0.0
  0
SPLINE
  5
124
330
1F
100
AcDbEntity
  8
0
  6
Continuous
 62
     7
370
    25
100
AcDbSpline
210
0.0
220
0.0
230
1.0
 70
     8
 71
     3
 72
    15
 73
    11
 74
     0
 42
0.000000001
 43
0.00000001
 40
0.0
 40
0.0
 40
0.0
 40
0.0
 40
0.1634452548497609
 40
0.3154887127129187
 40
0.4562908239366655
 40
0.585864149574776
 40
0.7054286858067557
 40
0.8133707129824361
 40
0.9117182381601028
 40
1.0
 40
1.0
 40
1.0
 40
1.0
 10
26.63576237302617
 20
-23.4483173076923
 30
0.0
 10
26.63560406298567
 20
-23.47302450461049
 30
0.0
 10
26.63529848647361
 20
-23.52071534615634
 30
0.0
 10
26.63309793147094
 20
-23.58967436307801
 30
0.0
 10
26.62845754448788
 20
-23.65336926909623
 30
0.0
 10
26.62319544085727
 20
-23.71209055971864
 30
0.0
 10
26.61562588867468
 20
-23.76556605118149
 30
0.0
 10
26.60638225025275
 20
-23.81395531099519
 30
0.0
 10
26.59596186216583
 20
-23.85730477520526
 30
0.0
 10
26.58680745219194
 20
-23.88400468436385
 30
0.0
 10
26.58247711661592
 20
-23.89663461538461
 30
0.0
  0
SPLINE
  5
12A
330
1F
100
AcDbEntity
  8
0
  6
Continuous
 62
     7
370
    25
100
AcDbSpline
210
0.0
220
0.0
230
1.0
 70
     8
 71
     3
 72
    15
 73
    11
 74
     0
 42
0.000000001
 43
0.00000001
 40
0.0
 40
0.0
 40
0.0
 40
0.0
 40
0.0769954547170517
 40
0.1676150771831756
 40
0.271052393634234
 40
0.3894595025720729
 40
0.520842802465573
 40
0.6663987586080725
 40
0.8260936125153215
 40
1.0
 40
1.0
 40
1.0
 40
1.0
 10
21.43263737302618
 20
-22.82932692307692
 30
0.0
 10
21.43038614526864
 20
-22.83918703910772
 30
0.0
 10
21.42548534020523
 20
-22.86065199591081
 30
0.0
 10
21.4201920945716
 20
-22.89587737841629
 30
0.0
 10
21.41538776577064
 20
-22.93662593555467
 30
0.0
 10
21.41136664656003
 20
-22.98285011672943
 30
0.0
 10
21.40890640857684
 20
-23.03471175965375
 30
0.0
 10
21.40622389613477
 20
-23.09198938125603
 30
0.0
 10
21.40524728981111
 20
-23.15491137460236
 30
0.0
 10
21.40508023037251
 20
-23.19871805615937
 30
0.0
 10
21.40499314225695
 20
-23.22155448717948
 30
0.0
  0
SPLINE
  5
12B
330
1F
100
AcDbEntity
  8
0
  6
Continuous
 62
     7
370
    25
100
AcDbSpline
210
0.0
220
0.0
230
1.0
 70
     8
 71
     3
 72
    23
 73
    19
 74
     0
 42
0.000000001
 43
0.00000001
 40
0.0
 40
0.0
 40
0.0
 40
0.0
 40
0.0639861098164636
 40
0.1266268580894762
 40
0.1889843719814859
 40
0.2502301939603974
 40
0.3123511629623211
 40
0.3745736184579376
 40
0.4381475308782013
 40
0.5029204126073673
 40
0.56797409514027
 40
0.6307713337491883
 40
0.6929346089254591
 40
0.7543975343123284
 40
0.8152183520172936
 40
0.8761169254810922
 40
0.938014604793953
 40
1.0
 40
1.0
 40
1.0
 40
1.0
 10
21.92983288584669
 20
-22.44230769230769
 30
0.0
 10
21.91539420950105
 20
-22.44257969497257
 30
0.0
 10
21.88682044207147
 20
-22.44311798121851
 30
0.0
 10
21.84444902955367
 20
-22.44851872294594
 30
0.0
 10
21.80334950202341
 20
-22.457352126145
 30
0.0
 10
21.76310938259783
 20
-22.4692770618588
 30
0.0
 10
21.72453350046352
 20
-22.48565550141463
 30
0.0
 10
21.68638247693198
 20
-22.50424371297171
 30
0.0
 10
21.65009289742923
 20
-22.52741411982047
 30
0.0
 10
21.61489095621295
 20
-22.55323733207176
 30
0.0
 10
21.58214078041113
 20
-22.58185402189894
 30
0.0
 10
21.55166744417647
 20
-22.61205088484346
 30
0.0
 10
21.52450286117585
 20
-22.64420837272694
 30
0.0
 10
21.49989218958518
 20
-22.67780834274355
 30
0.0
 10
21.47864746765513
 20
-22.71331225017047
 30
0.0
 10
21.46010284590522
 20
-22.75037756815835
 30
0.0
 10
21.44436816316709
 20
-22.789053081772
 30
0.0
 10
21.43654948175576
 20
-22.81589597390386
 30
0.0
 10
21.43263737302618
 20
-22.82932692307692
 30
0.0
  0
SPLINE
  5
12C
330
1F
100
AcDbEntity
  8
0
  6
Continuous
 62
     7
370
    25
100
AcDbSpline
210
0.0
220
0.0
230
1.0
 70
     8
 71
     3
 72
    15
 73
    11
 74
     0
 42
0.000000001
 43
0.00000001
 40
0.0
 40
0.0
 40
0.0
 40
0.0
 40
0.1355195283706078
 40
0.2608331631936746
 40
0.3784760291245028
 40
0.4931776464746748
 40
0.6092809649289356
 40
0.7299810378566444
 40
0.8592613089300615
 40
1.0
 40
1.0
 40
1.0
 40
1.0
 10
22.3068360909749
 20
-22.72996794871795
 30
0.0
 10
22.30076435868557
 20
-22.70727584303357
 30
0.0
 10
22.28907815258574
 20
-22.66360056039096
 30
0.0
 10
22.26020159079994
 20
-22.6043580731787
 30
0.0
 10
22.22373634463574
 20
-22.55395910870483
 30
0.0
 10
22.17922328785563
 20
-22.51271526777658
 30
0.0
 10
22.12709238748971
 20
-22.48061764680232
 30
0.0
 10
22.06748830590809
 20
-22.4583468155297
 30
0.0
 10
22.00098622552391
 20
-22.44441751884462
 30
0.0
 10
21.95421229256763
 20
-22.44303058626442
 30
0.0
 10
21.92983288584669
 20
-22.44230769230769
 30
0.0
  0
SPLINE
  5
12D
330
1F
100
AcDbEntity
  8
0
  6
Continuous
 62
     7
370
    25
100
AcDbSpline
210
0.0
220
0.0
230
1.0
 70
     8
 71
     3
 72
    15
 73
    11
 74
     0
 42
0.000000001
 43
0.00000001
 40
0.0
 40
0.0
 40
0.0
 40
0.0
 40
0.1788500194111625
 40
0.3421096489422961
 40
0.4898256633683947
 40
0.6232544282245609
 40
0.7400796760857885
 40
0.8414826730699826
 40
0.9289076721840607
 40
1.0
 40
1.0
 40
1.0
 40
1.0
 10
22.32807006533387
 20
-23.0625
 30
0.0
 10
22.32795966075161
 20
-23.04260146004071
 30
0.0
 10
22.32774847557534
 20
-23.00453893959844
 30
0.0
 10
22.32708239175559
 20
-22.95004235491824
 30
0.0
 10
22.32547678798248
 20
-22.9006214529738
 30
0.0
 10
22.32322060917332
 20
-22.85639438588499
 30
0.0
 10
22.31991830601374
 20
-22.8174036221345
 30
0.0
 10
22.31647680238516
 20
-22.7835697497125
 30
0.0
 10
22.31226824421549
 20
-22.75493572546518
 30
0.0
 10
22.3085180081371
 20
-22.73769853553196
 30
0.0
 10
22.3068360909749
 20
-22.72996794871795
 30
0.0
  0
SPLINE
  5
131
330
1F
100
AcDbEntity
  8
0
  6
Continuous
 62
     7
370
    25
100
AcDbSpline
210
0.0
220
0.0
230
1.0
 70
     8
 71
     3
 72
    23
 73
    19
 74
     0
 42
0.000000001
 43
0.00000001
 40
0.0
 40
0.0
 40
0.0
 40
0.0
 40
0.0772404236164796
 40
0.1511781404663842
 40
0.2234879838004008
 40
0.2955426441988708
 40
0.3669762546197908
 40
0.4371305254863868
 40
0.50704361564327
 40
0.5785597335236784
 40
0.616613544696555
 40
0.6587562369775308
 40
0.7044912261144045
 40
0.7548031149051512
 40
0.8093316253185652
 40
0.8682744554728227
 40
0.9320728834092942
 40
1.0
 40
1.0
 40
1.0
 40
1.0
 10
21.96108288584669
 20
-22.26282051282051
 30
0.0
 10
21.98812896248472
 20
-22.26381776735834
 30
0.0
 10
22.04106465834975
 20
-22.26576963504032
 30
0.0
 10
22.11813783628236
 20
-22.28120774424664
 30
0.0
 10
22.1901226326748
 20
-22.30757646146072
 30
0.0
 10
22.25676237883943
 20
-22.34369764454818
 30
0.0
 10
22.3168350721895
 20
-22.38861562935035
 30
0.0
 10
22.36959213017589
 20
-22.44094579035558
 30
0.0
 10
22.4132282715345
 20
-22.50113783791879
 30
0.0
 10
22.44248390753434
 20
-22.55697964148256
 30
0.0
 10
22.46175570621491
 20
-22.60651609535273
 30
0.0
 10
22.47388847050853
 20
-22.64894280969494
 30
0.0
 10
22.4841918884853
 20
-22.69621032464869
 30
0.0
 10
22.49312431592399
 20
-22.74817580410835
 30
0.0
 10
22.49916837984823
 20
-22.80520334139539
 30
0.0
 10
22.5039354035804
 20
-22.86705916542565
 30
0.0
 10
22.50735180031656
 20
-22.93372323999455
 30
0.0
 10
22.50748734716614
 20
-22.97982988422877
 30
0.0
 10
22.50755724482105
 20
-23.00360576923077
 30
0.0
  0
SPLINE
  5
132
330
1F
100
AcDbEntity
  8
0
  6
Continuous
 62
     7
370
    25
100
AcDbSpline
210
0.0
220
0.0
230
1.0
 70
     8
 71
     3
 72
    15
 73
    11
 74
     0
 42
0.000000001
 43
0.00000001
 40
0.0
 40
0.0
 40
0.0
 40
0.0
 40
0.1409759662687693
 40
0.2735687809631695
 40
0.3989883138042553
 40
0.5199297813924295
 40
0.6381100215247443
 40
0.7565889007405942
 40
0.8768597544106076
 40
1.0
 40
1.0
 40
1.0
 40
1.0
 10
21.40499314225695
 20
-22.55208333333333
 30
0.0
 10
21.42415750518958
 20
-22.52817320599755
 30
0.0
 10
21.46134662007334
 20
-22.48177476971761
 30
0.0
 10
21.52328052480214
 20
-22.42079158425469
 30
0.0
 10
21.58873418212934
 20
-22.37053716994339
 30
0.0
 10
21.65730675555059
 20
-22.33047785911807
 30
0.0
 10
21.72909133275054
 20
-22.30027978703312
 30
0.0
 10
21.80365034415802
 20
-22.27847068355559
 30
0.0
 10
21.8814301762082
 20
-22.26539363867581
 30
0.0
 10
21.93432414013594
 20
-22.26368493564751
 30
0.0
 10
21.96108288584669
 20
-22.26282051282051
 30
0.0
  0
SPLINE
  5
136
330
1F
100
AcDbEntity
  8
0
  6
Continuous
 62
     7
370
    25
100
AcDbSpline
210
0.0
220
0.0
230
1.0
 70
     8
 71
     3
 72
    23
 73
    19
 74
     0
 42
0.000000001
 43
0.00000001
 40
0.0
 40
0.0
 40
0.0
 40
0.0
 40
0.0683846151037672
 40
0.1344755875434535
 40
0.1983910577839588
 40
0.2607534774484859
 40
0.3218292228076514
 40
0.3830372384795248
 40
0.4446531231064286
 40
0.5073980112040047
 40
0.5698252379730259
 40
0.6307776406313148
 40
0.6909286865237193
 40
0.750945132691735
 40
0.8110494767293286
 40
0.8723308525469927
 40
0.9350040935894048
 40
1.0
 40
1.0
 40
1.0
 40
1.0
 10
18.09730083456464
 20
-23.0576923076923
 30
0.0
 10
18.09818060966701
 20
-23.07694971583351
 30
0.0
 10
18.09991065192312
 20
-23.11481863226192
 30
0.0
 10
18.10797644801824
 20
-23.17023050830904
 30
0.0
 10
18.12069003303208
 20
-23.22301527525968
 30
0.0
 10
18.13855806882551
 20
-23.27277701353024
 30
0.0
 10
18.16019626611402
 20
-23.32016565782469
 30
0.0
 10
18.1867023899917
 20
-23.36482967894962
 30
0.0
 10
18.21832499225027
 20
-23.40656563897814
 30
0.0
 10
18.2535968204699
 20
-23.44574686045991
 30
0.0
 10
18.29285801780454
 20
-23.48063872398432
 30
0.0
 10
18.33416244478807
 20
-23.51186831040391
 30
0.0
 10
18.3781016247819
 20
-23.5380429371064
 30
0.0
 10
18.42432910106416
 20
-23.55928858839409
 30
0.0
 10
18.47277012114654
 20
-23.57592076899929
 30
0.0
 10
18.52343994692698
 20
-23.58727380938953
 30
0.0
 10
18.57623887055825
 20
-23.59487787046088
 30
0.0
 10
18.61223071857698
 20
-23.5957233934326
 30
0.0
 10
18.63055403969285
 20
-23.59615384615384
 30
0.0
  0
SPLINE
  5
138
330
1F
100
AcDbEntity
  8
0
  6
Continuous
 62
     7
370
    25
100
AcDbSpline
210
0.0
220
0.0
230
1.0
 70
     8
 71
     3
 72
    15
 73
    11
 74
     0
 42
0.000000001
 43
0.00000001
 40
0.0
 40
0.0
 40
0.0
 40
0.0
 40
0.1185218400132632
 40
0.2362547631617471
 40
0.3561744339909322
 40
0.4772496548985557
 40
0.6015398708217025
 40
0.7296183821680461
 40
0.8621582661414423
 40
1.0
 40
1.0
 40
1.0
 40
1.0
 10
19.24593865507746
 20
-22.55048076923077
 30
0.0
 10
19.25858261982745
 20
-22.56773995859436
 30
0.0
 10
19.28378638731116
 20
-22.60214345498796
 30
0.0
 10
19.31535615875981
 20
-22.6582412590455
 30
0.0
 10
19.34276038446477
 20
-22.71693302724558
 30
0.0
 10
19.36466493361606
 20
-22.77916748272387
 30
0.0
 10
19.38240179144267
 20
-22.84420724282269
 30
0.0
 10
19.3952342592942
 20
-22.91251726837373
 30
0.0
 10
19.40275975562668
 20
-22.98407721772278
 30
0.0
 10
19.40423901125435
 20
-23.03283524942376
 30
0.0
 10
19.40499314225695
 20
-23.0576923076923
 30
0.0
  0
SPLINE
  5
139
330
1F
100
AcDbEntity
  8
0
  6
Continuous
 62
     7
370
    25
100
AcDbSpline
210
0.0
220
0.0
230
1.0
 70
     8
 71
     3
 72
    15
 73
    11
 74
     0
 42
0.000000001
 43
0.00000001
 40
0.0
 40
0.0
 40
0.0
 40
0.0
 40
0.1320402344259778
 40
0.25903284077937
 40
0.3818798239250152
 40
0.5022584437149862
 40
0.6227521895274789
 40
0.7447426318590017
 40
0.8701089273418173
 40
1.0
 40
1.0
 40
1.0
 40
1.0
 10
18.6573969884108
 20
-22.26282051282051
 30
0.0
 10
18.68736704858433
 20
-22.2635942550448
 30
0.0
 10
18.746161474835
 20
-22.26511216091083
 30
0.0
 10
18.83189411542745
 20
-22.2791843514303
 30
0.0
 10
18.91301452487922
 20
-22.3015000968951
 30
0.0
 10
18.98949024162711
 20
-22.33301654860969
 30
0.0
 10
19.06132901920016
 20
-22.37367914963275
 30
0.0
 10
19.12806390467141
 20
-22.42404591619329
 30
0.0
 10
19.19083619755641
 20
-22.48257053746477
 30
0.0
 10
19.22735538547196
 20
-22.52757808570893
 30
0.0
 10
19.24593865507746
 20
-22.55048076923077
 30
0.0
  0
SPLINE
  5
13A
330
1F
100
AcDbEntity
  8
0
  6
Continuous
 62
     7
370
    25
100
AcDbSpline
210
0.0
220
0.0
230
1.0
 70
     8
 71
     3
 72
    15
 73
    11
 74
     0
 42
0.000000001
 43
0.00000001
 40
0.0
 40
0.0
 40
0.0
 40
0.0
 40
0.1288352544875525
 40
0.2535893349864753
 40
0.3746432573141695
 40
0.4953400422377899
 40
0.6163247746357889
 40
0.7397593354405144
 40
0.8668423203805458
 40
1.0
 40
1.0
 40
1.0
 40
1.0
 10
18.08608288584669
 20
-22.53525641025641
 30
0.0
 10
18.1042015617186
 20
-22.51361705592038
 30
0.0
 10
18.13986495978046
 20
-22.47102382709154
 30
0.0
 10
18.20018287712553
 20
-22.41505906950204
 30
0.0
 10
18.26549727503546
 20
-22.368176912258
 30
0.0
 10
18.33498963280698
 20
-22.32931569160759
 30
0.0
 10
18.40946761798446
 20
-22.299787893326
 30
0.0
 10
18.48793007000594
 20
-22.27778356062185
 30
0.0
 10
18.57127040499257
 20
-22.26545326860283
 30
0.0
 10
18.62824481690012
 20
-22.26371164939027
 30
0.0
 10
18.6573969884108
 20
-22.26282051282051
 30
0.0
  0
SPLINE
  5
13B
330
1F
100
AcDbEntity
  8
0
  6
Continuous
 62
     7
370
    25
100
AcDbSpline
210
0.0
220
0.0
230
1.0
 70
     8
 71
     3
 72
    15
 73
    11
 74
     0
 42
0.000000001
 43
0.00000001
 40
0.0
 40
0.0
 40
0.0
 40
0.0
 40
0.1280448079611211
 40
0.2537679000244936
 40
0.377428426581306
 40
0.5005508414825337
 40
0.623295883242477
 40
0.7465783319335113
 40
0.8723475406047174
 40
1.0
 40
1.0
 40
1.0
 40
1.0
 10
17.91781365507746
 20
-23.02323717948718
 30
0.0
 10
17.91841887869495
 20
-23.00078299067713
 30
0.0
 10
17.91961835198011
 20
-22.95628175371321
 30
0.0
 10
17.92717880191935
 20
-22.89041572826732
 30
0.0
 10
17.94057782652966
 20
-22.82639946967959
 30
0.0
 10
17.95896429735773
 20
-22.76417978512594
 30
0.0
 10
17.9827078666053
 20
-22.70386085142076
 30
0.0
 10
18.01175484901457
 20
-22.6454059579218
 30
0.0
 10
18.04615049346531
 20
-22.58887730657298
 30
0.0
 10
18.07270630704043
 20
-22.55321837302565
 30
0.0
 10
18.08608288584669
 20
-22.53525641025641
 30
0.0
  0
SPLINE
  5
13C
330
1F
100
AcDbEntity
  8
0
  6
Continuous
 62
     7
370
    25
100
AcDbSpline
210
0.0
220
0.0
230
1.0
 70
     8
 71
     3
 72
    23
 73
    19
 74
     0
 42
0.000000001
 43
0.00000001
 40
0.0
 40
0.0
 40
0.0
 40
0.0
 40
0.0715786576891411
 40
0.139629224692849
 40
0.2047966973966649
 40
0.2681349633966815
 40
0.3298137469867304
 40
0.3913013977745604
 40
0.4534335150970558
 40
0.5165516903197668
 40
0.5796312707049247
 40
0.6411189214927523
 40
0.7012940466987744
 40
0.7608103356761351
 40
0.8199317217781457
 40
0.8789195754993836
 40
0.9389828222504477
 40
1.0
 40
1.0
 40
1.0
 40
1.0
 10
18.65298993712874
 20
-23.77564102564103
 30
0.0
 10
18.62490880710849
 20
-23.77498549688126
 30
0.0
 10
18.57013065759002
 20
-23.77370675017878
 30
0.0
 10
18.49039365923982
 20
-23.76268248478765
 30
0.0
 10
18.41531970586981
 20
-23.74469827981984
 30
0.0
 10
18.34491301823918
 20
-23.71957511325339
 30
0.0
 10
18.2793460167663
 20
-23.68675949948752
 30
0.0
 10
18.21848838544519
 20
-23.64678265274254
 30
0.0
 10
18.16202008494863
 20
-23.59984993577764
 30
0.0
 10
18.11172053684284
 20
-23.54555482521367
 30
0.0
 10
18.06643831815116
 20
-23.4874508496163
 30
0.0
 10
18.02648070673649
 20
-23.42690462991003
 30
0.0
 10
17.99307646042251
 20
-23.36406850163921
 30
0.0
 10
17.96590354031066
 20
-23.29934248790005
 30
0.0
 10
17.94395790318507
 20
-23.23313454873253
 30
0.0
 10
17.92866264388842
 20
-23.16484228155013
 30
0.0
 10
17.91984564504154
 20
-23.09465051912718
 30
0.0
 10
17.9184945333059
 20
-23.04716632728845
 30
0.0
 10
17.91781365507746
 20
-23.02323717948718
 30
0.0
  0
SPLINE
  5
13D
330
1F
100
AcDbEntity
  8
0
  6
Continuous
 62
     7
370
    25
100
AcDbSpline
210
0.0
220
0.0
230
1.0
 70
     8
 71
     3
 72
    19
 73
    15
 74
     0
 42
0.000000001
 43
0.00000001
 40
0.0
 40
0.0
 40
0.0
 40
0.0
 40
0.0933698567361925
 40
0.1816607660710025
 40
0.2658742270426171
 40
0.3463547840343073
 40
0.4245998617178932
 40
0.5019031838373761
 40
0.5799920909873468
 40
0.6584434305294316
 40
0.7386722364878339
 40
0.8218941484362436
 40
0.9088007920466131
 40
1.0
 40
1.0
 40
1.0
 40
1.0
 10
19.32807006533387
 20
-23.37219551282051
 30
0.0
 10
19.31536343948246
 20
-23.39473455926355
 30
0.0
 10
19.29064137749122
 20
-23.43858661801653
 30
0.0
 10
19.24812666441077
 20
-23.49883339542913
 30
0.0
 10
19.20355976579467
 20
-23.55303209019415
 30
0.0
 10
19.15492892693549
 20
-23.59973474978495
 30
0.0
 10
19.10368911039033
 20
-23.64044982691305
 30
0.0
 10
19.04955616479851
 20
-23.67607144103817
 30
0.0
 10
18.99224826894974
 20
-23.70642488123577
 30
0.0
 10
18.9317627119336
 20
-23.73199775430594
 30
0.0
 10
18.86759153985274
 20
-23.7516603223676
 30
0.0
 10
18.7995792447613
 20
-23.76554844860819
 30
0.0
 10
18.72759553311626
 20
-23.77413317355127
 30
0.0
 10
18.67825485890612
 20
-23.77513039685246
 30
0.0
 10
18.65298993712874
 20
-23.77564102564103
 30
0.0
  0
SPLINE
  5
13F
330
1F
100
AcDbEntity
  8
0
  6
Continuous
 62
     7
370
    25
100
AcDbSpline
210
0.0
220
0.0
230
1.0
 70
     8
 71
     3
 72
    19
 73
    15
 74
     0
 42
0.000000001
 43
0.00000001
 40
0.0
 40
0.0
 40
0.0
 40
0.0
 40
0.0825922633314369
 40
0.1638788940984975
 40
0.2456587396295051
 40
0.3277256953541244
 40
0.4086099609103197
 40
0.4857490859539296
 40
0.5591690561972792
 40
0.6302684758575452
 40
0.7053060284320735
 40
0.7920649660966083
 40
0.8897964374100918
 40
1.0
 40
1.0
 40
1.0
 40
1.0
 10
18.63055403969285
 20
-23.59615384615384
 30
0.0
 10
18.64846898118085
 20
-23.59580638520533
 30
0.0
 10
18.68401566171088
 20
-23.59511695603015
 30
0.0
 10
18.73695329447836
 20
-23.58841300693814
 30
0.0
 10
18.78903302442095
 20
-23.57757284944039
 30
0.0
 10
18.84003930057365
 20
-23.56277856939257
 30
0.0
 10
18.88893692681176
 20
-23.54473465390302
 30
0.0
 10
18.93422009827532
 20
-23.52296159238926
 30
0.0
 10
18.97586593577596
 20
-23.49887602282187
 30
0.0
 10
19.01478991668242
 20
-23.47132763707991
 30
0.0
 10
19.05254477002643
 20
-23.43760867307819
 30
0.0
 10
19.08999761940629
 20
-23.39553111822758
 30
0.0
 10
19.13015570704245
 20
-23.34576681663695
 30
0.0
 10
19.15529261718174
 20
-23.30831215036385
 30
0.0
 10
19.16861493712874
 20
-23.28846153846154
 30
0.0
  0
SPLINE
  5
140
330
1F
100
AcDbEntity
  8
0
  6
Continuous
 62
     7
370
    25
100
AcDbSpline
210
0.0
220
0.0
230
1.0
 70
     8
 71
     3
 72
    31
 73
    27
 74
     0
 42
0.000000001
 43
0.00000001
 40
0.0
 40
0.0
 40
0.0
 40
0.0
 40
0.043633218265758
 40
0.0865377766972014
 40
0.1291773360898921
 40
0.1714363236638288
 40
0.2134158945709081
 40
0.2552659545538503
 40
0.2973694811566235
 40
0.3399407478985554
 40
0.3823474587518121
 40
0.4239529468152702
 40
0.4648711632610174
 40
0.5055722941182721
 40
0.5460025771083156
 40
0.5865679748069135
 40
0.6270647991481674
 40
0.6682706840331728
 40
0.7095492248503331
 40
0.7504281535131893
 40
0.7910961944485924
 40
0.8320271447794346
 40
0.8731359553359671
 40
0.9146107643654483
 40
0.9569559864804373
 40
1.0
 40
1.0
 40
1.0
 40
1.0
 10
12.18323833456463
 20
-19.98076923076923
 30
0.0
 10
12.21784783617684
 20
-19.98029372640305
 30
0.0
 10
12.28648887255138
 20
-19.97935065843111
 30
0.0
 10
12.38858439490417
 20
-19.96985198159428
 30
0.0
 10
12.48884060663512
 20
-19.95462011217611
 30
0.0
 10
12.5871168865154
 20
-19.93268945656726
 30
0.0
 10
12.68330169790188
 20
-19.90524225013918
 30
0.0
 10
12.77779650101681
 20
-19.8726345221801
 30
0.0
 10
12.86959479133635
 20
-19.83195331849695
 30
0.0
 10
12.95985462913753
 20
-19.78700536691793
 30
0.0
 10
13.04625087082869
 20
-19.73576520938455
 30
0.0
 10
13.12872640311953
 20
-19.68072705972525
 30
0.0
 10
13.20520238297441
 20
-19.61975843901542
 30
0.0
 10
13.27759145439534
 20
-19.55544062647142
 30
0.0
 10
13.34521914338792
 20
-19.48647677861421
 30
0.0
 10
13.40762812761309
 20
-19.41295655676733
 30
0.0
 10
13.46460825976323
 20
-19.33441589953416
 30
0.0
 10
13.51707390637224
 20
-19.25213049379389
 30
0.0
 10
13.56387716912804
 20
-19.16613424110868
 30
0.0
 10
13.60465626817715
 20
-19.0776045631603
 30
0.0
 10
13.63925238400988
 20
-18.98675945379361
 30
0.0
 10
13.66718088883914
 20
-18.89346788231224
 30
0.0
 10
13.68906635052229
 20
-18.79790703354141
 30
0.0
 10
13.70414627043027
 20
-18.69994895538006
 30
0.0
 10
13.71469470907726
 20
-18.59978961288994
 30
0.0
 10
13.71548978626395
 20
-18.53204575692822
 30
0.0
 10
13.71589057815438
 20
-18.49789663461538
 30
0.0
  0
SPLINE
  5
141
330
1F
100
AcDbEntity
  8
0
  6
Continuous
 62
     7
370
    25
100
AcDbSpline
210
0.0
220
0.0
230
1.0
 70
     8
 71
     3
 72
    31
 73
    27
 74
     0
 42
0.000000001
 43
0.00000001
 40
0.0
 40
0.0
 40
0.0
 40
0.0
 40
0.0429150821010501
 40
0.0851299705846986
 40
0.1264733185549989
 40
0.1674530378853887
 40
0.2079763328949881
 40
0.2482493780637609
 40
0.2887499869834431
 40
0.3296698569108724
 40
0.370537286711974
 40
0.4111285639171174
 40
0.4518189126736371
 40
0.4924058769342635
 40
0.5334858617420226
 40
0.5752630624415513
 40
0.6174406128021904
 40
0.6606716882923644
 40
0.703940204243488
 40
0.7468675221598703
 40
0.789079300394723
 40
0.8311040424574038
 40
0.8732379898547744
 40
0.9151657696593329
 40
0.9573806581429821
 40
1.0
 40
1.0
 40
1.0
 40
1.0
 10
13.71589057815438
 20
-18.49789663461538
 30
0.0
 10
13.71548946517621
 20
-18.46398113034693
 30
0.0
 10
13.7146937836964
 20
-18.39670348017396
 30
0.0
 10
13.70415130907204
 20
-18.29724266181263
 30
0.0
 10
13.6890504187022
 20
-18.1999894503388
 30
0.0
 10
13.66728771066267
 20
-18.10532564734276
 30
0.0
 10
13.63923755692706
 20
-18.013227122276
 30
0.0
 10
13.60465022653822
 20
-17.92378037457482
 30
0.0
 10
13.56386492706438
 20
-17.83665217949159
 30
0.0
 10
13.51705670268272
 20
-17.75205788249179
 30
0.0
 10
13.46444087920632
 20
-17.6708831445043
 30
0.0
 10
13.40694663589541
 20
-17.59328073197887
 30
0.0
 10
13.34358128775428
 20
-17.52070799066829
 30
0.0
 10
13.27615526288048
 20
-17.45137329662489
 30
0.0
 10
13.20298437755139
 20
-17.38675540701709
 30
0.0
 10
13.12440008347225
 20
-17.32683288635955
 30
0.0
 10
13.04135640571079
 20
-17.27015961207062
 30
0.0
 10
12.95342917027779
 20
-17.21903405022998
 30
0.0
 10
12.86268521654593
 20
-17.17181981751677
 30
0.0
 10
12.76957125857335
 20
-17.13136881437218
 30
0.0
 10
12.67514215895708
 20
-17.09699669498481
 30
0.0
 10
12.57963804662496
 20
-17.06767972993423
 30
0.0
 10
12.48225506828956
 20
-17.04627169979012
 30
0.0
 10
12.38365123944266
 20
-17.03104364993011
 30
0.0
 10
12.28396298086706
 20
-17.02044526403668
 30
0.0
 10
12.2169197611435
 20
-17.01963688550059
 30
0.0
 10
12.18323833456463
 20
-17.01923076923077
 30
0.0
  0
SPLINE
  5
142
330
1F
100
AcDbEntity
  8
0
  6
Continuous
 62
     7
370
    25
100
AcDbSpline
210
0.0
220
0.0
230
1.0
 70
     8
 71
     3
 72
    23
 73
    19
 74
     0
 42
0.000000001
 43
0.00000001
 40
0.0
 40
0.0
 40
0.0
 40
0.0
 40
0.0645039992970556
 40
0.1268993215900392
 40
0.1877465401000107
 40
0.248149732929826
 40
0.3085860647627414
 40
0.3695830050869929
 40
0.4318269653810486
 40
0.4961797225241571
 40
0.560667854611879
 40
0.6235044551176644
 40
0.6852604113304276
 40
0.7465368217511662
 40
0.8083273517367078
 40
0.8704861878877674
 40
0.9343168833592457
 40
1.0
 40
1.0
 40
1.0
 40
1.0
 10
10.66460852687233
 20
-18.51402243589744
 30
0.0
 10
10.66588338882987
 20
-18.56458465670045
 30
0.0
 10
10.66839143669196
 20
-18.66405618696075
 30
0.0
 10
10.69034900680727
 20
-18.80982433084568
 30
0.0
 10
10.7241709812601
 20
-18.94991261718968
 30
0.0
 10
10.77402834769681
 20
-19.0835545264832
 30
0.0
 10
10.83637896235445
 20
-19.21189880931477
 30
0.0
 10
10.91340585262913
 20
-19.33380691400221
 30
0.0
 10
11.00466493819816
 20
-19.44931178836589
 30
0.0
 10
11.10832846479996
 20
-19.55760705733562
 30
0.0
 10
11.22165117139955
 20
-19.65645286157514
 30
0.0
 10
11.34198390132853
 20
-19.74321627022022
 30
0.0
 10
11.46803750881583
 20
-19.81662652004372
 30
0.0
 10
11.60014071152831
 20
-19.87643159242709
 30
0.0
 10
11.73758825055764
 20
-19.92382133022609
 30
0.0
 10
11.88126580159508
 20
-19.95629996135364
 30
0.0
 10
12.0302162611787
 20
-19.97767541672152
 30
0.0
 10
12.1317469163388
 20
-19.97972817264266
 30
0.0
 10
12.18323833456463
 20
-19.98076923076923
 30
0.0
  0
SPLINE
  5
143
330
1F
100
AcDbEntity
  8
0
  6
Continuous
 62
     7
370
    25
100
AcDbSpline
210
0.0
220
0.0
230
1.0
 70
     8
 71
     3
 72
    31
 73
    27
 74
     0
 42
0.000000001
 43
0.00000001
 40
0.0
 40
0.0
 40
0.0
 40
0.0
 40
0.0420233285259235
 40
0.0836449111687116
 40
0.1249837954173947
 40
0.1662474611728947
 40
0.2077015560969884
 40
0.2496310707996496
 40
0.2917417703321314
 40
0.3347428753531986
 40
0.377460168550865
 40
0.4195563188419399
 40
0.4610441763330334
 40
0.5020962839443965
 40
0.5428907140755996
 40
0.5838008186265047
 40
0.6248635833101931
 40
0.66622468906917
 40
0.7073991864779364
 40
0.7485566775366925
 40
0.7896545909521794
 40
0.8307397264898314
 40
0.8720701422586049
 40
0.9139933952421322
 40
0.9564981300675881
 40
1.0
 40
1.0
 40
1.0
 40
1.0
 10
12.18323833456463
 20
-17.01923076923077
 30
0.0
 10
12.15002370101828
 20
-17.01963565948401
 30
0.0
 10
12.08391196808471
 20
-17.0204415692121
 30
0.0
 10
11.98562743183797
 20
-17.03105728478424
 30
0.0
 10
11.88863549800716
 20
-17.04618717375561
 30
0.0
 10
11.79291613583553
 20
-17.06776869452013
 30
0.0
 10
11.69886984645773
 20
-17.09717274729376
 30
0.0
 10
11.60562000528464
 20
-17.13101365548317
 30
0.0
 10
11.51401695141589
 20
-17.17223474607858
 30
0.0
 10
11.42436309355954
 20
-17.21880745044824
 30
0.0
 10
11.33744801841354
 20
-17.27035637125199
 30
0.0
 10
11.25543531695878
 20
-17.32732813828709
 30
0.0
 10
11.17811267299503
 20
-17.38838669253438
 30
0.0
 10
11.10566940634232
 20
-17.45367452991171
 30
0.0
 10
11.03831823416781
 20
-17.52352413170287
 30
0.0
 10
10.97473353271505
 20
-17.5968765678206
 30
0.0
 10
10.91746395106897
 20
-17.67582845886425
 30
0.0
 10
10.86497837424207
 20
-17.75823886573114
 30
0.0
 10
10.81801053396471
 20
-17.84400044693692
 30
0.0
 10
10.77624517924221
 20
-17.93221030920485
 30
0.0
 10
10.74208117043671
 20
-18.02358799598323
 30
0.0
 10
10.71421879415254
 20
-18.11714215355948
 30
0.0
 10
10.69111898330578
 20
-18.21272461322295
 30
0.0
 10
10.67648505921145
 20
-18.31106046206217
 30
0.0
 10
10.66575269976279
 20
-18.41165557409179
 30
0.0
 10
10.66499285431021
 20
-18.47963742813398
 30
0.0
 10
10.66460852687233
 20
-18.51402243589743
 30
0.0
  0
SPLINE
  5
144
330
1F
100
AcDbEntity
  8
0
  6
Continuous
 62
     7
370
    25
100
AcDbSpline
210
0.0
220
0.0
230
1.0
 70
     8
 71
     3
 72
    19
 73
    15
 74
     0
 42
0.000000001
 43
0.00000001
 40
0.0
 40
0.0
 40
0.0
 40
0.0
 40
0.0848023883688289
 40
0.1686635395998421
 40
0.2525519243727827
 40
0.3382396894642457
 40
0.4231026613931569
 40
0.5055560510576219
 40
0.5861756559890526
 40
0.6671357203303606
 40
0.7484991803055353
 40
0.8304523987582807
 40
0.9134557062010115
 40
1.0
 40
1.0
 40
1.0
 40
1.0
 10
14.89137134738515
 20
-23.59615384615385
 30
0.0
 10
14.91734077753496
 20
-23.5952052953391
 30
0.0
 10
14.96899139840435
 20
-23.59331872184768
 30
0.0
 10
15.04524208862152
 20
-23.57887228453728
 30
0.0
 10
15.11923921022029
 20
-23.5550043997658
 30
0.0
 10
15.18997476929364
 20
-23.52191918448924
 30
0.0
 10
15.25586970137812
 20
-23.48091498111948
 30
0.0
 10
15.31501134573037
 20
-23.43291092910183
 30
0.0
 10
15.36502047051521
 20
-23.37708053817498
 30
0.0
 10
15.40741624741705
 20
-23.3157225650064
 30
0.0
 10
15.44065934267341
 20
-23.24845856702876
 30
0.0
 10
15.46487423364316
 20
-23.17683902945968
 30
0.0
 10
15.47919075122962
 20
-23.10086145909108
 30
0.0
 10
15.48099516816823
 20
-23.04893921511472
 30
0.0
 10
15.48191621918002
 20
-23.0224358974359
 30
0.0
  0
SPLINE
  5
145
330
1F
100
AcDbEntity
  8
0
  6
Continuous
 62
     7
370
    25
100
AcDbSpline
210
0.0
220
0.0
230
1.0
 70
     8
 71
     3
 72
    23
 73
    19
 74
     0
 42
0.000000001
 43
0.00000001
 40
0.0
 40
0.0
 40
0.0
 40
0.0
 40
0.0656337996756886
 40
0.1291880880571296
 40
0.1912186831121875
 40
0.2519128178811583
 40
0.3125074743865508
 40
0.3734944337751961
 40
0.4351515996540503
 40
0.4987414744066488
 40
0.5620952169966306
 40
0.6241865668116552
 40
0.6854757184651951
 40
0.7460968148060529
 40
0.8076116364477857
 40
0.8699665806571897
 40
0.9339510189149077
 40
1.0
 40
1.0
 40
1.0
 40
1.0
 10
15.48191621918002
 20
-23.0224358974359
 30
0.0
 10
15.48136784411054
 20
-23.00224285143146
 30
0.0
 10
15.48028846843651
 20
-22.96249654665782
 30
0.0
 10
15.47204242870471
 20
-22.90413796518809
 30
0.0
 10
15.4589253278979
 20
-22.84829012174792
 30
0.0
 10
15.4404418021742
 20
-22.7948942994287
 30
0.0
 10
15.41616106822246
 20
-22.74424571920058
 30
0.0
 10
15.38687663057308
 20
-22.6959807133661
 30
0.0
 10
15.3520735164396
 20
-22.65035030685771
 30
0.0
 10
15.31231197581105
 20
-22.60798283772716
 30
0.0
 10
15.26878900292792
 20
-22.5693391450076
 30
0.0
 10
15.22273497970959
 20
-22.53484529317231
 30
0.0
 10
15.17360426716249
 20
-22.50650885160668
 30
0.0
 10
15.12222310320949
 20
-22.48305669646517
 30
0.0
 10
15.06850234065974
 20
-22.4643943250951
 30
0.0
 10
15.01200484362057
 20
-22.4519442143705
 30
0.0
 10
14.95333113680511
 20
-22.44339545949313
 30
0.0
 10
14.91330481943579
 20
-22.44267409905353
 30
0.0
 10
14.89297391148771
 20
-22.44230769230769
 30
0.0
  0
SPLINE
  5
146
330
1F
100
AcDbEntity
  8
0
  6
Continuous
 62
     7
370
    25
100
AcDbSpline
210
0.0
220
0.0
230
1.0
 70
     8
 71
     3
 72
    19
 73
    15
 74
     0
 42
0.000000001
 43
0.00000001
 40
0.0
 40
0.0
 40
0.0
 40
0.0
 40
0.0815893489321851
 40
0.1628588951679352
 40
0.2454836892755798
 40
0.330807139158012
 40
0.4164933737762854
 40
0.499893203160631
 40
0.5830481559950216
 40
0.6671578520621587
 40
0.7513119292929157
 40
0.8337847893576152
 40
0.9162564885439806
 40
1.0
 40
1.0
 40
1.0
 40
1.0
 10
14.30242903969284
 20
-23.01722756410257
 30
0.0
 10
14.30349469301271
 20
-23.04213619677914
 30
0.0
 10
14.30562182265129
 20
-23.09185582870343
 30
0.0
 10
14.32090793373584
 20
-23.1655590154282
 30
0.0
 10
14.34655357569788
 20
-23.23736132517752
 30
0.0
 10
14.3815490401139
 20
-23.30665332147449
 30
0.0
 10
14.42536996853031
 20
-23.3709870931109
 30
0.0
 10
14.47616348427444
 20
-23.42912430600321
 30
0.0
 10
14.53442078788179
 20
-23.47911835644481
 30
0.0
 10
14.59895079192412
 20
-23.5209683985051
 30
0.0
 10
14.66786963215289
 20
-23.55477555330249
 30
0.0
 10
14.74034616442309
 20
-23.5782987758779
 30
0.0
 10
14.81501795765538
 20
-23.59348607908943
 30
0.0
 10
14.86579071985648
 20
-23.59526006585346
 30
0.0
 10
14.89137134738515
 20
-23.59615384615385
 30
0.0
  0
SPLINE
  5
147
330
1F
100
AcDbEntity
  8
0
  6
Continuous
 62
     7
370
    25
100
AcDbSpline
210
0.0
220
0.0
230
1.0
 70
     8
 71
     3
 72
    19
 73
    15
 74
     0
 42
0.000000001
 43
0.00000001
 40
0.0
 40
0.0
 40
0.0
 40
0.0
 40
0.0859205174117681
 40
0.1695934351247433
 40
0.2524755148685394
 40
0.3362444769570494
 40
0.4195045210415717
 40
0.5020359066440908
 40
0.5847746476768717
 40
0.6698464747058024
 40
0.7541848663887877
 40
0.8366582383293284
 40
0.9180097257088053
 40
1.0
 40
1.0
 40
1.0
 40
1.0
 10
14.89297391148771
 20
-22.44230769230769
 30
0.0
 10
14.8667371469894
 20
-22.4432411995823
 30
0.0
 10
14.8149499470066
 20
-22.44508379446164
 30
0.0
 10
14.73892480297092
 20
-22.45946864885282
 30
0.0
 10
14.66617428063491
 20
-22.48340270277497
 30
0.0
 10
14.59706223819572
 20
-22.51613521772832
 30
0.0
 10
14.53268040012566
 20
-22.5572944957952
 30
0.0
 10
14.47514115965176
 20
-22.60707814339053
 30
0.0
 10
14.42397390173408
 20
-22.66412786576462
 30
0.0
 10
14.38094060788679
 20
-22.728186214559
 30
0.0
 10
14.34586032393269
 20
-22.79685940945537
 30
0.0
 10
14.32119344854027
 20
-22.86864480265598
 30
0.0
 10
14.30492530716361
 20
-22.94224764697409
 30
0.0
 10
14.3032632954142
 20
-22.99216918170423
 30
0.0
 10
14.30242903969284
 20
-23.01722756410257
 30
0.0
  0
SPLINE
  5
148
330
1F
100
AcDbEntity
  8
0
  6
Continuous
 62
     7
370
    25
100
AcDbSpline
210
0.0
220
0.0
230
1.0
 70
     8
 71
     3
 72
    23
 73
    19
 74
     0
 42
0.000000001
 43
0.00000001
 40
0.0
 40
0.0
 40
0.0
 40
0.0
 40
0.0725383714064941
 40
0.1400338305012513
 40
0.202495680633624
 40
0.2605750556694158
 40
0.3132283378464639
 40
0.3615831937532658
 40
0.4048783612951263
 40
0.4441274373055386
 40
0.5163996933371969
 40
0.5865066709977663
 40
0.6550853737960475
 40
0.7243837831470366
 40
0.793973528725662
 40
0.8616376821817762
 40
0.9301109423064029
 40
1.0
 40
1.0
 40
1.0
 40
1.0
 10
15.67482487302617
 20
-18.28335336538461
 30
0.0
 10
15.70474479883903
 20
-18.28336882897576
 30
0.0
 10
15.7625045987718
 20
-18.28339868111965
 30
0.0
 10
15.84594082200503
 20
-18.27941345764041
 30
0.0
 10
15.92335010930809
 20
-18.27481292497603
 30
0.0
 10
15.9944946846814
 20
-18.26807700151402
 30
0.0
 10
16.05940661916473
 20
-18.25855574402985
 30
0.0
 10
16.11819414803917
 20
-18.24894400611169
 30
0.0
 10
16.17040143093408
 20
-18.23503864351316
 30
0.0
 10
16.23150063269993
 20
-18.21631557437404
 30
0.0
 10
16.29958398017672
 20
-18.18438295871305
 30
0.0
 10
16.37365152869991
 20
-18.13803306865948
 30
0.0
 10
16.43642211505118
 20
-18.07895236045938
 30
0.0
 10
16.49074041181274
 20
-18.01252452913288
 30
0.0
 10
16.53384628975115
 20
-17.93862539970682
 30
0.0
 10
16.56540228206761
 20
-17.85955646298079
 30
0.0
 10
16.58394343943117
 20
-17.77612861345909
 30
0.0
 10
16.58642963308683
 20
-17.71904047460391
 30
0.0
 10
16.58768544994925
 20
-17.69020432692307
 30
0.0
  0
SPLINE
  5
14A
330
1F
100
AcDbEntity
  8
0
  6
Continuous
 62
     7
370
    25
100
AcDbSpline
210
0.0
220
0.0
230
1.0
 70
     8
 71
     3
 72
    23
 73
    19
 74
     0
 42
0.000000001
 43
0.00000001
 40
0.0
 40
0.0
 40
0.0
 40
0.0
 40
0.0700437554181549
 40
0.1392383167626452
 40
0.2081974550441377
 40
0.2791733744245664
 40
0.3499868116864777
 40
0.4183538456626561
 40
0.4876095837571511
 40
0.5574110731083896
 40
0.5953301567632402
 40
0.6379640515652206
 40
0.6859127777112946
 40
0.7381851646524796
 40
0.7961026471849432
 40
0.8585165439469293
 40
0.9266577264685211
 40
1.0
 40
1.0
 40
1.0
 40
1.0
 10
16.58768544994925
 20
-17.69020432692307
 30
0.0
 10
16.58642280345371
 20
-17.66206581347421
 30
0.0
 10
16.58391281849282
 20
-17.60612993131837
 30
0.0
 10
16.56525695533214
 20
-17.52415117070866
 30
0.0
 10
16.53390764146861
 20
-17.44591546632186
 30
0.0
 10
16.49045104695375
 20
-17.37294238096845
 30
0.0
 10
16.43770991699312
 20
-17.3067535770032
 30
0.0
 10
16.37641057388513
 20
-17.24925644994033
 30
0.0
 10
16.30669731255147
 20
-17.20303474720922
 30
0.0
 10
16.24184908151873
 20
-17.17320146556054
 30
0.0
 10
16.18424789549128
 20
-17.1549861901274
 30
0.0
 10
16.13421593560749
 20
-17.14224134967016
 30
0.0
 10
16.07772526112115
 20
-17.13206574342524
 30
0.0
 10
16.01475748161079
 20
-17.12382624062904
 30
0.0
 10
15.94580064773038
 20
-17.11677277940568
 30
0.0
 10
15.87026233283576
 20
-17.11198680217169
 30
0.0
 10
15.78842868957133
 20
-17.10918534593516
 30
0.0
 10
15.73161811870639
 20
-17.10904639067847
 30
0.0
 10
15.70216862302617
 20
-17.10897435897436
 30
0.0
  0
SPLINE
  5
14D
330
1F
100
AcDbEntity
  8
0
  6
Continuous
 62
     7
370
    25
100
AcDbSpline
210
0.0
220
0.0
230
1.0
 70
     8
 71
     3
 72
    19
 73
    15
 74
     0
 42
0.000000001
 43
0.00000001
 40
0.0
 40
0.0
 40
0.0
 40
0.0
 40
0.0848023883688271
 40
0.1686635395998385
 40
0.2525519243727809
 40
0.338239689464244
 40
0.4231026613931553
 40
0.5055560510576218
 40
0.5861756559890527
 40
0.6671357203303596
 40
0.7484991803055319
 40
0.8304523987582803
 40
0.9134557062010111
 40
1.0
 40
1.0
 40
1.0
 40
1.0
 10
16.78880724482105
 20
-23.59615384615384
 30
0.0
 10
16.81477667497086
 20
-23.5952052953391
 30
0.0
 10
16.86642729584026
 20
-23.59331872184768
 30
0.0
 10
16.9426779860574
 20
-23.57887228453726
 30
0.0
 10
17.01667510765619
 20
-23.5550043997658
 30
0.0
 10
17.08741066672954
 20
-23.52191918448924
 30
0.0
 10
17.15330559881402
 20
-23.48091498111948
 30
0.0
 10
17.21244724316627
 20
-23.43291092910182
 30
0.0
 10
17.26245636795111
 20
-23.37708053817498
 30
0.0
 10
17.30485214485296
 20
-23.3157225650064
 30
0.0
 10
17.3380952401093
 20
-23.24845856702876
 30
0.0
 10
17.36231013107906
 20
-23.17683902945967
 30
0.0
 10
17.37662664866553
 20
-23.10086145909107
 30
0.0
 10
17.37843106560413
 20
-23.04893921511472
 30
0.0
 10
17.37935211661593
 20
-23.0224358974359
 30
0.0
  0
SPLINE
  5
14E
330
1F
100
AcDbEntity
  8
0
  6
Continuous
 62
     7
370
    25
100
AcDbSpline
210
0.0
220
0.0
230
1.0
 70
     8
 71
     3
 72
    23
 73
    19
 74
     0
 42
0.000000001
 43
0.00000001
 40
0.0
 40
0.0
 40
0.0
 40
0.0
 40
0.0656337996756885
 40
0.1291880880571298
 40
0.1912186831121881
 40
0.2519128178811582
 40
0.3125074743865515
 40
0.3734944337751949
 40
0.4351515996540503
 40
0.4987414744066488
 40
0.5620952169966306
 40
0.6241865668116551
 40
0.6854757184651951
 40
0.7460968148060544
 40
0.8076116364477859
 40
0.8699665806571911
 40
0.9339510189149058
 40
1.0
 40
1.0
 40
1.0
 40
1.0
 10
17.37935211661592
 20
-23.02243589743589
 30
0.0
 10
17.37880374154644
 20
-23.00224285143146
 30
0.0
 10
17.37772436587241
 20
-22.96249654665781
 30
0.0
 10
17.36947832614061
 20
-22.90413796518808
 30
0.0
 10
17.35636122533379
 20
-22.8482901217479
 30
0.0
 10
17.3378776996101
 20
-22.79489429942871
 30
0.0
 10
17.31359696565834
 20
-22.74424571920056
 30
0.0
 10
17.28431252800899
 20
-22.6959807133661
 30
0.0
 10
17.24950941387551
 20
-22.65035030685771
 30
0.0
 10
17.20974787324695
 20
-22.60798283772715
 30
0.0
 10
17.16622490036382
 20
-22.5693391450076
 30
0.0
 10
17.12017087714549
 20
-22.53484529317231
 30
0.0
 10
17.07104016459839
 20
-22.50650885160668
 30
0.0
 10
17.01965900064539
 20
-22.48305669646516
 30
0.0
 10
16.96593823809564
 20
-22.4643943250951
 30
0.0
 10
16.90944074105648
 20
-22.45194421437051
 30
0.0
 10
16.85076703424101
 20
-22.44339545949312
 30
0.0
 10
16.81074071687169
 20
-22.44267409905352
 30
0.0
 10
16.79040980892361
 20
-22.44230769230769
 30
0.0
  0
SPLINE
  5
14F
330
1F
100
AcDbEntity
  8
0
  6
Continuous
 62
     7
370
    25
100
AcDbSpline
210
0.0
220
0.0
230
1.0
 70
     8
 71
     3
 72
    19
 73
    15
 74
     0
 42
0.000000001
 43
0.00000001
 40
0.0
 40
0.0
 40
0.0
 40
0.0
 40
0.081589348932185
 40
0.1628588951679345
 40
0.2454836892755795
 40
0.3308071391580115
 40
0.4164933737762847
 40
0.4998932031606289
 40
0.5830481559950207
 40
0.667157852062156
 40
0.7513119292929145
 40
0.8337847893576139
 40
0.916256488543977
 40
1.0
 40
1.0
 40
1.0
 40
1.0
 10
16.19986493712874
 20
-23.01722756410256
 30
0.0
 10
16.20093059044861
 20
-23.04213619677913
 30
0.0
 10
16.20305772008719
 20
-23.09185582870342
 30
0.0
 10
16.21834383117174
 20
-23.1655590154282
 30
0.0
 10
16.24398947313378
 20
-23.23736132517752
 30
0.0
 10
16.2789849375498
 20
-23.3066533214745
 30
0.0
 10
16.3228058659662
 20
-23.37098709311088
 30
0.0
 10
16.37359938171033
 20
-23.42912430600321
 30
0.0
 10
16.43185668531769
 20
-23.47911835644482
 30
0.0
 10
16.49638668936001
 20
-23.52096839850509
 30
0.0
 10
16.5653055295888
 20
-23.5547755533025
 30
0.0
 10
16.63778206185899
 20
-23.5782987758779
 30
0.0
 10
16.71245385509127
 20
-23.59348607908942
 30
0.0
 10
16.76322661729238
 20
-23.59526006585346
 30
0.0
 10
16.78880724482105
 20
-23.59615384615384
 30
0.0
  0
SPLINE
  5
150
330
1F
100
AcDbEntity
  8
0
  6
Continuous
 62
     7
370
    25
100
AcDbSpline
210
0.0
220
0.0
230
1.0
 70
     8
 71
     3
 72
    19
 73
    15
 74
     0
 42
0.000000001
 43
0.00000001
 40
0.0
 40
0.0
 40
0.0
 40
0.0
 40
0.0859205174117681
 40
0.1695934351247432
 40
0.2524755148685393
 40
0.3362444769570493
 40
0.4195045210415699
 40
0.502035906644089
 40
0.5847746476768698
 40
0.6698464747058026
 40
0.7541848663887879
 40
0.8366582383293285
 40
0.9180097257088055
 40
1.0
 40
1.0
 40
1.0
 40
1.0
 10
16.79040980892362
 20
-22.44230769230769
 30
0.0
 10
16.7641730444253
 20
-22.4432411995823
 30
0.0
 10
16.7123858444425
 20
-22.44508379446164
 30
0.0
 10
16.63636070040682
 20
-22.45946864885282
 30
0.0
 10
16.5636101780708
 20
-22.48340270277496
 30
0.0
 10
16.49449813563162
 20
-22.5161352177283
 30
0.0
 10
16.43011629756156
 20
-22.55729449579519
 30
0.0
 10
16.37257705708767
 20
-22.60707814339053
 30
0.0
 10
16.32140979916998
 20
-22.66412786576462
 30
0.0
 10
16.27837650532269
 20
-22.72818621455901
 30
0.0
 10
16.24329622136858
 20
-22.79685940945536
 30
0.0
 10
16.21862934597616
 20
-22.86864480265598
 30
0.0
 10
16.2023612045995
 20
-22.94224764697408
 30
0.0
 10
16.20069919285009
 20
-22.99216918170423
 30
0.0
 10
16.19986493712874
 20
-23.01722756410256
 30
0.0
  0
SPLINE
  5
151
330
1F
100
AcDbEntity
  8
0
  6
Continuous
 62
     7
370
    25
100
AcDbSpline
210
0.0
220
0.0
230
1.0
 70
     8
 71
     3
 72
    23
 73
    19
 74
     0
 42
0.000000001
 43
0.00000001
 40
0.0
 40
0.0
 40
0.0
 40
0.0
 40
0.0725383714064941
 40
0.1400338305012513
 40
0.202495680633624
 40
0.2605750556694158
 40
0.3132283378464639
 40
0.3615831937532658
 40
0.4048783612951263
 40
0.4441274373055386
 40
0.5163996933371969
 40
0.5865066709977663
 40
0.6550853737960475
 40
0.7243837831470366
 40
0.793973528725662
 40
0.8616376821817762
 40
0.9301109423064029
 40
1.0
 40
1.0
 40
1.0
 40
1.0
 10
18.54661974482105
 20
-18.28335336538461
 30
0.0
 10
18.57653967063391
 20
-18.28336882897576
 30
0.0
 10
18.63429947056668
 20
-18.28339868111965
 30
0.0
 10
18.71773569379991
 20
-18.27941345764041
 30
0.0
 10
18.79514498110297
 20
-18.27481292497603
 30
0.0
 10
18.86628955647628
 20
-18.26807700151402
 30
0.0
 10
18.9312014909596
 20
-18.25855574402985
 30
0.0
 10
18.98998901983406
 20
-18.24894400611169
 30
0.0
 10
19.04219630272896
 20
-18.23503864351316
 30
0.0
 10
19.10329550449481
 20
-18.21631557437404
 30
0.0
 10
19.17137885197159
 20
-18.18438295871305
 30
0.0
 10
19.24544640049478
 20
-18.13803306865948
 30
0.0
 10
19.30821698684605
 20
-18.07895236045938
 30
0.0
 10
19.36253528360762
 20
-18.01252452913288
 30
0.0
 10
19.40564116154603
 20
-17.93862539970682
 30
0.0
 10
19.43719715386249
 20
-17.85955646298079
 30
0.0
 10
19.45573831122605
 20
-17.77612861345909
 30
0.0
 10
19.45822450488171
 20
-17.71904047460391
 30
0.0
 10
19.45948032174412
 20
-17.69020432692307
 30
0.0
  0
SPLINE
  5
153
330
1F
100
AcDbEntity
  8
0
  6
Continuous
 62
     7
370
    25
100
AcDbSpline
210
0.0
220
0.0
230
1.0
 70
     8
 71
     3
 72
    23
 73
    19
 74
     0
 42
0.000000001
 43
0.00000001
 40
0.0
 40
0.0
 40
0.0
 40
0.0
 40
0.0700437554181549
 40
0.1392383167626452
 40
0.2081974550441377
 40
0.2791733744245664
 40
0.3499868116864777
 40
0.4183538456626561
 40
0.4876095837571511
 40
0.5574110731083896
 40
0.5953301567632402
 40
0.6379640515652206
 40
0.6859127777112946
 40
0.7381851646524796
 40
0.7961026471849432
 40
0.8585165439469293
 40
0.9266577264685211
 40
1.0
 40
1.0
 40
1.0
 40
1.0
 10
19.45948032174412
 20
-17.69020432692307
 30
0.0
 10
19.45821767524859
 20
-17.66206581347421
 30
0.0
 10
19.45570769028769
 20
-17.60612993131837
 30
0.0
 10
19.43705182712702
 20
-17.52415117070866
 30
0.0
 10
19.40570251326348
 20
-17.44591546632186
 30
0.0
 10
19.36224591874863
 20
-17.37294238096845
 30
0.0
 10
19.309504788788
 20
-17.3067535770032
 30
0.0
 10
19.24820544568002
 20
-17.24925644994033
 30
0.0
 10
19.17849218434635
 20
-17.20303474720922
 30
0.0
 10
19.11364395331361
 20
-17.17320146556054
 30
0.0
 10
19.05604276728615
 20
-17.1549861901274
 30
0.0
 10
19.00601080740237
 20
-17.14224134967016
 30
0.0
 10
18.94952013291603
 20
-17.13206574342524
 30
0.0
 10
18.88655235340566
 20
-17.12382624062904
 30
0.0
 10
18.81759551952526
 20
-17.11677277940568
 30
0.0
 10
18.74205720463064
 20
-17.11198680217169
 30
0.0
 10
18.66022356136621
 20
-17.10918534593516
 30
0.0
 10
18.60341299050127
 20
-17.10904639067847
 30
0.0
 10
18.57396349482105
 20
-17.10897435897436
 30
0.0
  0
SPLINE
  5
156
330
1F
100
AcDbEntity
  8
0
  6
Continuous
 62
     7
370
    25
100
AcDbSpline
210
0.0
220
0.0
230
1.0
 70
     8
 71
     3
 72
    19
 73
    15
 74
     0
 42
0.000000001
 43
0.00000001
 40
0.0
 40
0.0
 40
0.0
 40
0.0
 40
0.0962401251801519
 40
0.1852312611287041
 40
0.2675005230774401
 40
0.3444003817777783
 40
0.4195948685557303
 40
0.4968906265927774
 40
0.576637918838516
 40
0.660267852419638
 40
0.745386615087629
 40
0.8300403273864525
 40
0.9144742116388049
 40
1.0
 40
1.0
 40
1.0
 40
1.0
 10
19.22550596276977
 20
-22.87820512820512
 30
0.0
 10
19.21893646302489
 20
-22.85439777179112
 30
0.0
 10
19.20629229074798
 20
-22.8085762743185
 30
0.0
 10
19.17987151106431
 20
-22.74512433692193
 30
0.0
 10
19.15011634495221
 20
-22.68873125063073
 30
0.0
 10
19.11490392702375
 20
-22.63982860317009
 30
0.0
 10
19.07500751237995
 20
-22.59639802432318
 30
0.0
 10
19.02892455086686
 20
-22.55844454708445
 30
0.0
 10
18.97724689744222
 20
-22.52449171790305
 30
0.0
 10
18.92024167419776
 20
-22.49583314677914
 30
0.0
 10
18.85987493986865
 20
-22.47143894179493
 30
0.0
 10
18.79667140159922
 20
-22.45508173279514
 30
0.0
 10
18.73218123710162
 20
-22.44387628005248
 30
0.0
 10
18.68856164490294
 20
-22.44283278952056
 30
0.0
 10
18.66661173200054
 20
-22.44230769230769
 30
0.0
  0
SPLINE
  5
158
330
1F
100
AcDbEntity
  8
0
  6
Continuous
 62
     7
370
    25
100
AcDbSpline
210
0.0
220
0.0
230
1.0
 70
     8
 71
     3
 72
    15
 73
    11
 74
     0
 42
0.000000001
 43
0.00000001
 40
0.0
 40
0.0
 40
0.0
 40
0.0
 40
0.1310919762569288
 40
0.2591412763281455
 40
0.3841617634834075
 40
0.5059919524977764
 40
0.6290980893898571
 40
0.7506691234237093
 40
0.8740389376151277
 40
1.0
 40
1.0
 40
1.0
 40
1.0
 10
18.66661173200054
 20
-22.44230769230769
 30
0.0
 10
18.64869776713392
 20
-22.44265721890488
 30
0.0
 10
18.61328562481843
 20
-22.44334815950318
 30
0.0
 10
18.5611135858509
 20
-22.44990251912187
 30
0.0
 10
18.51101090075479
 20
-22.46073671619152
 30
0.0
 10
18.4626078792626
 20
-22.47557383424987
 30
0.0
 10
18.41653881162138
 20
-22.49535017853717
 30
0.0
 10
18.37185608692497
 20
-22.51854059374259
 30
0.0
 10
18.32969586049937
 20
-22.54685007020115
 30
0.0
 10
18.30332940594106
 20
-22.56842655867668
 30
0.0
 10
18.29000916789798
 20
-22.57932692307692
 30
0.0
  0
SPLINE
  5
159
330
1F
100
AcDbEntity
  8
0
  6
Continuous
 62
     7
370
    25
100
AcDbSpline
210
0.0
220
0.0
230
1.0
 70
     8
 71
     3
 72
    15
 73
    11
 74
     0
 42
0.000000001
 43
0.00000001
 40
0.0
 40
0.0
 40
0.0
 40
0.0
 40
0.1099838451118757
 40
0.2225804973638941
 40
0.3384998709624487
 40
0.4587085654776323
 40
0.5855353464579929
 40
0.7175177429458901
 40
0.854666819751022
 40
1.0
 40
1.0
 40
1.0
 40
1.0
 10
18.29000916789798
 20
-22.57932692307692
 30
0.0
 10
18.28047014963263
 20
-22.5879522462909
 30
0.0
 10
18.26116550150265
 20
-22.60540779832163
 30
0.0
 10
18.23537091779449
 20
-22.63548163063652
 30
0.0
 10
18.21067350483094
 20
-22.6679110947291
 30
0.0
 10
18.18819713182943
 20
-22.70393688021375
 30
0.0
 10
18.16758136813815
 20
-22.74314875393179
 30
0.0
 10
18.14828995260618
 20
-22.78521597406598
 30
0.0
 10
18.13092628855954
 20
-22.8304577627869
 30
0.0
 10
18.12115708282612
 20
-22.86198487091734
 30
0.0
 10
18.11613096276977
 20
-22.87820512820512
 30
0.0
  0
SPLINE
  5
15A
330
1F
100
AcDbEntity
  8
0
  6
Continuous
 62
     7
370
    25
100
AcDbSpline
210
0.0
220
0.0
230
1.0
 70
     8
 71
     3
 72
    31
 73
    27
 74
     0
 42
0.000000001
 43
0.00000001
 40
0.0
 40
0.0
 40
0.0
 40
0.0
 40
0.043633218265758
 40
0.0865377766972014
 40
0.1291773360898914
 40
0.1714363236638288
 40
0.2134158945709075
 40
0.255265954553851
 40
0.2973694811566243
 40
0.3399407478985549
 40
0.3823474587518121
 40
0.4239529468152702
 40
0.4648711632610167
 40
0.5055722941182725
 40
0.5460025771083161
 40
0.5865679748069135
 40
0.6270647991481674
 40
0.6682706840331731
 40
0.7095492248503334
 40
0.7504281535131894
 40
0.7910961944485925
 40
0.8320271447794344
 40
0.873135955335967
 40
0.9146107643654483
 40
0.9569559864804373
 40
1.0
 40
1.0
 40
1.0
 40
1.0
 10
22.1447767961031
 20
-19.98076923076923
 30
0.0
 10
22.1793862977153
 20
-19.98029372640305
 30
0.0
 10
22.24802733408984
 20
-19.97935065843111
 30
0.0
 10
22.35012285644263
 20
-19.96985198159427
 30
0.0
 10
22.45037906817359
 20
-19.95462011217611
 30
0.0
 10
22.54865534805386
 20
-19.93268945656725
 30
0.0
 10
22.64484015944034
 20
-19.90524225013918
 30
0.0
 10
22.73933496255529
 20
-19.8726345221801
 30
0.0
 10
22.83113325287482
 20
-19.83195331849695
 30
0.0
 10
22.921393090676
 20
-19.78700536691793
 30
0.0
 10
23.00778933236716
 20
-19.73576520938455
 30
0.0
 10
23.090264864658
 20
-19.68072705972525
 30
0.0
 10
23.16674084451286
 20
-19.61975843901542
 30
0.0
 10
23.23912991593382
 20
-19.55544062647142
 30
0.0
 10
23.30675760492639
 20
-19.48647677861421
 30
0.0
 10
23.36916658915155
 20
-19.41295655676732
 30
0.0
 10
23.42614672130171
 20
-19.33441589953417
 30
0.0
 10
23.47861236791071
 20
-19.25213049379389
 30
0.0
 10
23.52541563066651
 20
-19.16613424110868
 30
0.0
 10
23.56619472971562
 20
-19.0776045631603
 30
0.0
 10
23.60079084554835
 20
-18.98675945379361
 30
0.0
 10
23.6287193503776
 20
-18.89346788231223
 30
0.0
 10
23.65060481206076
 20
-18.7979070335414
 30
0.0
 10
23.66568473196874
 20
-18.69994895538005
 30
0.0
 10
23.67623317061573
 20
-18.59978961288995
 30
0.0
 10
23.67702824780241
 20
-18.53204575692822
 30
0.0
 10
23.67742903969285
 20
-18.49789663461538
 30
0.0
  0
SPLINE
  5
15B
330
1F
100
AcDbEntity
  8
0
  6
Continuous
 62
     7
370
    25
100
AcDbSpline
210
0.0
220
0.0
230
1.0
 70
     8
 71
     3
 72
    31
 73
    27
 74
     0
 42
0.000000001
 43
0.00000001
 40
0.0
 40
0.0
 40
0.0
 40
0.0
 40
0.0429150821010501
 40
0.0851299705846986
 40
0.1264733185549991
 40
0.1674530378853888
 40
0.207976332894988
 40
0.2482493780637608
 40
0.2887499869834427
 40
0.329669856910872
 40
0.370537286711974
 40
0.4111285639171174
 40
0.4518189126736376
 40
0.4924058769342629
 40
0.5334858617420232
 40
0.5752630624415507
 40
0.617440612802191
 40
0.6606716882923638
 40
0.703940204243488
 40
0.7468675221598696
 40
0.7890793003947223
 40
0.8311040424574044
 40
0.8732379898547744
 40
0.9151657696593336
 40
0.9573806581429821
 40
1.0
 40
1.0
 40
1.0
 40
1.0
 10
23.67742903969285
 20
-18.49789663461538
 30
0.0
 10
23.67702792671467
 20
-18.46398113034693
 30
0.0
 10
23.67623224523485
 20
-18.39670348017395
 30
0.0
 10
23.66568977061052
 20
-18.29724266181264
 30
0.0
 10
23.65058888024065
 20
-18.19998945033879
 30
0.0
 10
23.62882617220115
 20
-18.10532564734276
 30
0.0
 10
23.60077601846553
 20
-18.01322712227601
 30
0.0
 10
23.56618868807668
 20
-17.92378037457482
 30
0.0
 10
23.52540338860285
 20
-17.83665217949159
 30
0.0
 10
23.47859516422119
 20
-17.75205788249178
 30
0.0
 10
23.42597934074479
 20
-17.67088314450431
 30
0.0
 10
23.36848509743388
 20
-17.59328073197887
 30
0.0
 10
23.30511974929275
 20
-17.52070799066829
 30
0.0
 10
23.23769372441895
 20
-17.45137329662489
 30
0.0
 10
23.16452283908985
 20
-17.38675540701709
 30
0.0
 10
23.08593854501072
 20
-17.32683288635955
 30
0.0
 10
23.00289486724925
 20
-17.27015961207062
 30
0.0
 10
22.91496763181625
 20
-17.21903405022998
 30
0.0
 10
22.8242236780844
 20
-17.17181981751677
 30
0.0
 10
22.73110972011182
 20
-17.13136881437218
 30
0.0
 10
22.63668062049555
 20
-17.09699669498482
 30
0.0
 10
22.54117650816343
 20
-17.06767972993423
 30
0.0
 10
22.44379352982802
 20
-17.04627169979012
 30
0.0
 10
22.34518970098113
 20
-17.03104364993012
 30
0.0
 10
22.24550144240554
 20
-17.02044526403668
 30
0.0
 10
22.17845822268196
 20
-17.01963688550059
 30
0.0
 10
22.1447767961031
 20
-17.01923076923077
 30
0.0
  0
SPLINE
  5
15C
330
1F
100
AcDbEntity
  8
0
  6
Continuous
 62
     7
370
    25
100
AcDbSpline
210
0.0
220
0.0
230
1.0
 70
     8
 71
     3
 72
    23
 73
    19
 74
     0
 42
0.000000001
 43
0.00000001
 40
0.0
 40
0.0
 40
0.0
 40
0.0
 40
0.0645039992970555
 40
0.1268993215900392
 40
0.1877465401000107
 40
0.248149732929826
 40
0.3085860647627417
 40
0.3695830050869929
 40
0.4318269653810485
 40
0.496179722524157
 40
0.5606678546118788
 40
0.6235044551176637
 40
0.6852604113304269
 40
0.746536821751167
 40
0.8083273517367084
 40
0.8704861878877674
 40
0.9343168833592463
 40
0.9999999999999999
 40
0.9999999999999999
 40
0.9999999999999999
 40
0.9999999999999999
 10
20.6261469884108
 20
-18.51402243589743
 30
0.0
 10
20.62742185036834
 20
-18.56458465670045
 30
0.0
 10
20.62992989823042
 20
-18.66405618696075
 30
0.0
 10
20.65188746834574
 20
-18.80982433084569
 30
0.0
 10
20.68570944279857
 20
-18.94991261718968
 30
0.0
 10
20.73556680923528
 20
-19.0835545264832
 30
0.0
 10
20.79791742389293
 20
-19.21189880931477
 30
0.0
 10
20.87494431416759
 20
-19.33380691400221
 30
0.0
 10
20.96620339973662
 20
-19.44931178836589
 30
0.0
 10
21.06986692633842
 20
-19.55760705733562
 30
0.0
 10
21.18318963293801
 20
-19.65645286157514
 30
0.0
 10
21.303522362867
 20
-19.74321627022022
 30
0.0
 10
21.42957597035429
 20
-19.81662652004371
 30
0.0
 10
21.56167917306677
 20
-19.87643159242709
 30
0.0
 10
21.69912671209612
 20
-19.9238213302261
 30
0.0
 10
21.84280426313355
 20
-19.95629996135364
 30
0.0
 10
21.99175472271716
 20
-19.97767541672152
 30
0.0
 10
22.09328537787727
 20
-19.97972817264266
 30
0.0
 10
22.1447767961031
 20
-19.98076923076923
 30
0.0
  0
SPLINE
  5
15D
330
1F
100
AcDbEntity
  8
0
  6
Continuous
 62
     7
370
    25
100
AcDbSpline
210
0.0
220
0.0
230
1.0
 70
     8
 71
     3
 72
    31
 73
    27
 74
     0
 42
0.000000001
 43
0.00000001
 40
0.0
 40
0.0
 40
0.0
 40
0.0
 40
0.0420233285259227
 40
0.0836449111687116
 40
0.1249837954173939
 40
0.1662474611728953
 40
0.2077015560969883
 40
0.2496310707996495
 40
0.2917417703321313
 40
0.3347428753531991
 40
0.3774601685508648
 40
0.4195563188419392
 40
0.4610441763330332
 40
0.5020962839443964
 40
0.5428907140755994
 40
0.583800818626504
 40
0.6248635833101932
 40
0.6662246890691697
 40
0.7073991864779362
 40
0.7485566775366925
 40
0.7896545909521795
 40
0.8307397264898313
 40
0.8720701422586048
 40
0.9139933952421321
 40
0.9564981300675882
 40
1.0
 40
1.0
 40
1.0
 40
1.0
 10
22.14477679610311
 20
-17.01923076923077
 30
0.0
 10
22.11156216255675
 20
-17.01963565948401
 30
0.0
 10
22.04545042962318
 20
-17.0204415692121
 30
0.0
 10
21.94716589337643
 20
-17.03105728478424
 30
0.0
 10
21.85017395954563
 20
-17.04618717375561
 30
0.0
 10
21.754454597374
 20
-17.06776869452013
 30
0.0
 10
21.6604083079962
 20
-17.09717274729376
 30
0.0
 10
21.56715846682311
 20
-17.13101365548316
 30
0.0
 10
21.47555541295436
 20
-17.17223474607859
 30
0.0
 10
21.385901555098
 20
-17.21880745044824
 30
0.0
 10
21.29898647995201
 20
-17.27035637125199
 30
0.0
 10
21.21697377849724
 20
-17.32732813828709
 30
0.0
 10
21.1396511345335
 20
-17.38838669253438
 30
0.0
 10
21.06720786788078
 20
-17.4536745299117
 30
0.0
 10
20.99985669570629
 20
-17.52352413170288
 30
0.0
 10
20.93627199425352
 20
-17.5968765678206
 30
0.0
 10
20.87900241260744
 20
-17.67582845886425
 30
0.0
 10
20.82651683578053
 20
-17.75823886573113
 30
0.0
 10
20.77954899550318
 20
-17.84400044693693
 30
0.0
 10
20.73778364078067
 20
-17.93221030920484
 30
0.0
 10
20.70361963197517
 20
-18.02358799598322
 30
0.0
 10
20.67575725569101
 20
-18.11714215355947
 30
0.0
 10
20.65265744484426
 20
-18.21272461322296
 30
0.0
 10
20.63802352074991
 20
-18.31106046206217
 30
0.0
 10
20.62729116130126
 20
-18.41165557409179
 30
0.0
 10
20.62653131584868
 20
-18.47963742813399
 30
0.0
 10
20.6261469884108
 20
-18.51402243589743
 30
0.0
  0
SPLINE
  5
15E
330
1F
100
AcDbEntity
  8
0
  6
Continuous
 62
     7
370
    25
100
AcDbSpline
210
0.0
220
0.0
230
1.0
 70
     8
 71
     3
 72
    23
 73
    19
 74
     0
 42
0.000000001
 43
0.00000001
 40
0.0
 40
0.0
 40
0.0
 40
0.0
 40
0.070121499219561
 40
0.1371218486740198
 40
0.2014871210766347
 40
0.2637651191668753
 40
0.3245600950367292
 40
0.3847388869594628
 40
0.4449046043522655
 40
0.5052319196167131
 40
0.5654939949839917
 40
0.6250997441456841
 40
0.6843497139440923
 40
0.7438828254849659
 40
0.8046082057523061
 40
0.867238913771751
 40
0.9320942880208511
 40
1.0
 40
1.0
 40
1.0
 40
1.0
 10
25.88135532174413
 20
-23.57051282051281
 30
0.0
 10
25.9024774692845
 20
-23.57007418677569
 30
0.0
 10
25.94378160497665
 20
-23.56921644315077
 30
0.0
 10
26.00410785434403
 20
-23.56184301540459
 30
0.0
 10
26.0612694202705
 20
-23.54994474324081
 30
0.0
 10
26.11521389019171
 20
-23.53305158591083
 30
0.0
 10
26.16614494222819
 20
-23.5114962998388
 30
0.0
 10
26.21349043628831
 20
-23.48421823268998
 30
0.0
 10
26.25826554946995
 20
-23.45315284295078
 30
0.0
 10
26.29904064066081
 20
-23.41691740625306
 30
0.0
 10
26.33591159238784
 20
-23.37698312340147
 30
0.0
 10
26.36804345918341
 20
-23.33352889767874
 30
0.0
 10
26.39542314434035
 20
-23.28720860108012
 30
0.0
 10
26.41809609853755
 20
-23.23802745498024
 30
0.0
 10
26.43540535806173
 20
-23.18560325322897
 30
0.0
 10
26.44701616092253
 20
-23.13006704993025
 30
0.0
 10
26.45513430101482
 20
-23.07168491343828
 30
0.0
 10
26.45588911512523
 20
-23.03167998990877
 30
0.0
 10
26.45627519353899
 20
-23.01121794871794
 30
0.0
  0
SPLINE
  5
15F
330
1F
100
AcDbEntity
  8
0
  6
Continuous
 62
     7
370
    25
100
AcDbSpline
210
0.0
220
0.0
230
1.0
 70
     8
 71
     3
 72
    19
 73
    15
 74
     0
 42
0.000000001
 43
0.00000001
 40
0.0
 40
0.0
 40
0.0
 40
0.0
 40
0.0892427932208492
 40
0.1743490578004788
 40
0.2576131087527804
 40
0.3395273673229372
 40
0.4209973901479341
 40
0.5015790589405734
 40
0.5825417599975048
 40
0.6661326583338245
 40
0.7500491310216012
 40
0.8327429397442833
 40
0.9156474213323822
 40
0.9999999999999999
 40
0.9999999999999999
 40
0.9999999999999999
 40
0.9999999999999999
 10
26.45627519353899
 20
-23.01121794871794
 30
0.0
 10
26.45550972601361
 20
-22.98457917502695
 30
0.0
 10
26.45401427145631
 20
-22.93253637217014
 30
0.0
 10
26.43990160993408
 20
-22.85670393331896
 30
0.0
 10
26.41714720411346
 20
-22.7854075483083
 30
0.0
 10
26.38523477423871
 20
-22.71887270495244
 30
0.0
 10
26.34524505499227
 20
-22.65780439083665
 30
0.0
 10
26.29707885566456
 20
-22.60333362256834
 30
0.0
 10
26.24156683816956
 20
-22.55539027595525
 30
0.0
 10
26.17886849521104
 20
-22.51544845108815
 30
0.0
 10
26.111412812279
 20
-22.48318248855295
 30
0.0
 10
26.04082927165596
 20
-22.45897576162185
 30
0.0
 10
25.96722266371398
 20
-22.44526472446107
 30
0.0
 10
25.91733328682418
 20
-22.44329904259302
 30
0.0
 10
25.89217262943643
 20
-22.44230769230769
 30
0.0
  0
SPLINE
  5
160
330
1F
100
AcDbEntity
  8
0
  6
Continuous
 62
     7
370
    25
100
AcDbSpline
210
0.0
220
0.0
230
1.0
 70
     8
 71
     3
 72
    23
 73
    19
 74
     0
 42
0.000000001
 43
0.00000001
 40
0.0
 40
0.0
 40
0.0
 40
0.0
 40
0.0649830441815945
 40
0.1278026449472853
 40
0.1890563364713612
 40
0.2483946473749344
 40
0.3076907059547601
 40
0.3669766194961135
 40
0.4273400442260052
 40
0.4887947153913432
 40
0.5506736934060061
 40
0.6120451114224904
 40
0.6733691390064676
 40
0.7349297539342481
 40
0.7978099682993232
 40
0.8628916725659022
 40
0.930095337542817
 40
0.9999999999999999
 40
0.9999999999999999
 40
0.9999999999999999
 40
0.9999999999999999
 10
25.30242903969284
 20
-23.02163461538461
 30
0.0
 10
25.30284375788276
 20
-23.04102505683751
 30
0.0
 10
25.30365938728652
 20
-23.07916038483863
 30
0.0
 10
25.31150143171554
 20
-23.13512489610549
 30
0.0
 10
25.32417626893144
 20
-23.18842793246795
 30
0.0
 10
25.34214038682189
 20
-23.23907271787221
 30
0.0
 10
25.36439906961396
 20
-23.28734974351807
 30
0.0
 10
25.39239471016795
 20
-23.33292644908915
 30
0.0
 10
25.42533812256498
 20
-23.37584342398843
 30
0.0
 10
25.46297145852307
 20
-23.41578324214679
 30
0.0
 10
25.50444367673404
 20
-23.45216093838617
 30
0.0
 10
25.54942607633971
 20
-23.48412553303735
 30
0.0
 10
25.59785764760975
 20
-23.51026880213604
 30
0.0
 10
25.64854725344049
 20
-23.53286356648789
 30
0.0
 10
25.70272482828711
 20
-23.54936589102187
 30
0.0
 10
25.75961002032444
 20
-23.56195947903358
 30
0.0
 10
25.81960527545951
 20
-23.56916448334428
 30
0.0
 10
25.86050341218759
 20
-23.57005751065669
 30
0.0
 10
25.88135532174413
 20
-23.57051282051281
 30
0.0
  0
SPLINE
  5
161
330
1F
100
AcDbEntity
  8
0
  6
Continuous
 62
     7
370
    25
100
AcDbSpline
210
0.0
220
0.0
230
1.0
 70
     8
 71
     3
 72
    19
 73
    15
 74
     0
 42
0.000000001
 43
0.00000001
 40
0.0
 40
0.0
 40
0.0
 40
0.0
 40
0.0855188992526829
 40
0.1693092867993383
 40
0.2522179032131809
 40
0.3367564541858531
 40
0.4205954942562017
 40
0.5027411035138951
 40
0.5848035507161503
 40
0.6682684846239482
 40
0.7518231297771566
 40
0.8336286284455293
 40
0.9162197991152933
 40
0.9999999999999999
 40
0.9999999999999999
 40
0.9999999999999999
 40
0.9999999999999999
 10
25.89217262943643
 20
-22.44230769230769
 30
0.0
 10
25.86592651293103
 20
-22.4431997297375
 30
0.0
 10
25.81396476756696
 20
-22.44496577469784
 30
0.0
 10
25.73780000043233
 20
-22.46004275364249
 30
0.0
 10
25.66427032416756
 20
-22.48366898221654
 30
0.0
 10
25.59478150806191
 20
-22.51746476246513
 30
0.0
 10
25.52969173097266
 20
-22.55866146986277
 30
0.0
 10
25.47193469071091
 20
-22.60857020562903
 30
0.0
 10
25.4214175958007
 20
-22.66556803241658
 30
0.0
 10
25.37868448820397
 20
-22.72913960213363
 30
0.0
 10
25.34466656450409
 20
-22.7977237595448
 30
0.0
 10
25.32058461052392
 20
-22.87001560762145
 30
0.0
 10
25.30501316864992
 20
-22.94484703207762
 30
0.0
 10
25.3032945103394
 20
-22.99591709103655
 30
0.0
 10
25.30242903969284
 20
-23.02163461538461
 30
0.0
  0
SPLINE
  5
162
330
1F
100
AcDbEntity
  8
0
  6
Continuous
 62
     7
370
    25
100
AcDbSpline
210
0.0
220
0.0
230
1.0
 70
     8
 71
     3
 72
    19
 73
    15
 74
     0
 42
0.000000001
 43
0.00000001
 40
0.0
 40
0.0
 40
0.0
 40
0.0
 40
0.0834200466710281
 40
0.1655737957865945
 40
0.2481587766688891
 40
0.3320333067748046
 40
0.4162573489175289
 40
0.4995253498660679
 40
0.5830385602711569
 40
0.6685959042141655
 40
0.7540353502552533
 40
0.8369197002092043
 40
0.9182997313725101
 40
1.0
 40
1.0
 40
1.0
 40
1.0
 10
29.27879121918003
 20
-23.59615384615384
 30
0.0
 10
29.30424022943907
 20
-23.59526448793622
 30
0.0
 10
29.35475193970241
 20
-23.59349927175878
 30
0.0
 10
29.42912800912286
 20
-23.57822030741064
 30
0.0
 10
29.50140837393531
 20
-23.55488029338723
 30
0.0
 10
29.57008275819821
 20
-23.52084626113138
 30
0.0
 10
29.63455332264991
 20
-23.47913765654681
 30
0.0
 10
29.69277135325517
 20
-23.42910335189778
 30
0.0
 10
29.7436324467026
 20
-23.37110909862457
 30
0.0
 10
29.7869835067409
 20
-23.30653281126375
 30
0.0
 10
29.82191578405597
 20
-23.23728973489222
 30
0.0
 10
29.84816163544416
 20
-23.16564322712647
 30
0.0
 10
29.86330939158535
 20
-23.09184584250394
 30
0.0
 10
29.86545612789126
 20
-23.04213286369112
 30
0.0
 10
29.86653160379541
 20
-23.01722756410256
 30
0.0
  0
SPLINE
  5
163
330
1F
100
AcDbEntity
  8
0
  6
Continuous
 62
     7
370
    25
100
AcDbSpline
210
0.0
220
0.0
230
1.0
 70
     8
 71
     3
 72
    19
 73
    15
 74
     0
 42
0.000000001
 43
0.00000001
 40
0.0
 40
0.0
 40
0.0
 40
0.0
 40
0.0819940568376546
 40
0.1633492972937404
 40
0.2458264740680101
 40
0.3303671599787209
 40
0.415198374278569
 40
0.4979409323876397
 40
0.5804761255002951
 40
0.663740010710946
 40
0.7475128374040572
 40
0.8303987408369401
 40
0.914075518723597
 40
1.0
 40
1.0
 40
1.0
 40
1.0
 10
29.86653160379541
 20
-23.01722756410256
 30
0.0
 10
29.86570032731825
 20
-22.99216757031575
 30
0.0
 10
29.86404425084592
 20
-22.942242825363
 30
0.0
 10
29.847731657862
 20
-22.86866402365537
 30
0.0
 10
29.82321738489748
 20
-22.79672803732587
 30
0.0
 10
29.78746935519949
 20
-22.72843058032569
 30
0.0
 10
29.74506862980843
 20
-22.66398824738834
 30
0.0
 10
29.69378463154704
 20
-22.60710031653655
 30
0.0
 10
29.63628966214441
 20
-22.55728850353392
 30
0.0
 10
29.57189585416151
 20
-22.51613684076662
 30
0.0
 10
29.50278703962195
 20
-22.48340227221244
 30
0.0
 10
29.4300356591004
 20
-22.45946876427088
 30
0.0
 10
29.35401074344437
 20
-22.44508376458379
 30
0.0
 10
29.3022235122908
 20
-22.44324118953541
 30
0.0
 10
29.27598673200054
 20
-22.44230769230769
 30
0.0
  0
SPLINE
  5
164
330
1F
100
AcDbEntity
  8
0
  6
Continuous
 62
     7
370
    25
100
AcDbSpline
210
0.0
220
0.0
230
1.0
 70
     8
 71
     3
 72
    19
 73
    15
 74
     0
 42
0.000000001
 43
0.00000001
 40
0.0
 40
0.0
 40
0.0
 40
0.0
 40
0.086440372462671
 40
0.1693440105424721
 40
0.2510606708491882
 40
0.3323264305703399
 40
0.4131892790502053
 40
0.4942994993596381
 40
0.5766538799957596
 40
0.6617849185411915
 40
0.7477649302742706
 40
0.8319674345471981
 40
0.9152994413086173
 40
1.0
 40
1.0
 40
1.0
 40
1.0
 10
28.68704442430823
 20
-23.02243589743589
 30
0.0
 10
28.68795348493682
 20
-23.0489433903131
 30
0.0
 10
28.68973441169923
 20
-23.10087381385668
 30
0.0
 10
28.70421290768515
 20
-23.17675045495014
 30
0.0
 10
28.72777591570199
 20
-23.248551400965
 30
0.0
 10
28.76122089495207
 20
-23.31567199352144
 30
0.0
 10
28.80347665166927
 20
-23.37737647074493
 30
0.0
 10
28.85438988390231
 20
-23.43262824587518
 30
0.0
 10
28.91349991306595
 20
-23.48108001217852
 30
0.0
 10
28.979824022606
 20
-23.52189215716442
 30
0.0
 10
29.05092238297081
 20
-23.55502819506829
 30
0.0
 10
29.12508576129108
 20
-23.57875060104465
 30
0.0
 10
29.20129426465214
 20
-23.59336330295114
 30
0.0
 10
29.25281901879031
 20
-23.5952186281482
 30
0.0
 10
29.27879121918003
 20
-23.59615384615384
 30
0.0
  0
SPLINE
  5
165
330
1F
100
AcDbEntity
  8
0
  6
Continuous
 62
     7
370
    25
100
AcDbSpline
210
0.0
220
0.0
230
1.0
 70
     8
 71
     3
 72
    23
 73
    19
 74
     0
 42
0.000000001
 43
0.00000001
 40
0.0
 40
0.0
 40
0.0
 40
0.0
 40
0.0660440693699998
 40
0.130023749441808
 40
0.1923740566421988
 40
0.2538843037504096
 40
0.3148960853343839
 40
0.3758058275294919
 40
0.4382422362453613
 40
0.50159126755095
 40
0.5648807602801249
 40
0.6265333410400679
 40
0.6875157651495301
 40
0.7481059155492393
 40
0.8087955368148533
 40
0.8708215189810368
 40
0.9343710811645495
 40
0.9999999999999999
 40
0.9999999999999999
 40
0.9999999999999999
 40
0.9999999999999999
 10
29.27598673200054
 20
-22.44230769230769
 30
0.0
 10
29.25565555343308
 20
-22.4426735541419
 30
0.0
 10
29.21562870328393
 20
-22.443393841791
 30
0.0
 10
29.15695886386941
 20
-22.4519503839585
 30
0.0
 10
29.10044719086368
 20
-22.46437195035417
 30
0.0
 10
29.04666321862814
 20
-22.48317875049707
 30
0.0
 10
28.99509143778609
 20
-22.50626378659553
 30
0.0
 10
28.94612905792032
 20
-22.53511065013871
 30
0.0
 10
28.89981044788058
 20
-22.56919751062028
 30
0.0
 10
28.85625214480786
 20
-22.6078714214235
 30
0.0
 10
28.81690169139541
 20
-22.65048552892088
 30
0.0
 10
28.78206573255562
 20
-22.69596427699386
 30
0.0
 10
28.75280441536269
 20
-22.74425007106432
 30
0.0
 10
28.72851754664135
 20
-22.794893135353
 30
0.0
 10
28.71003567082631
 20
-22.84829044115028
 30
0.0
 10
28.69691811666435
 20
-22.90413787696644
 30
0.0
 10
28.68867220077623
 20
-22.9624965697874
 30
0.0
 10
28.68759280804405
 20
-23.00224285922361
 30
0.0
 10
28.68704442430823
 20
-23.02243589743589
 30
0.0
  0
LINE
  5
166
330
1F
100
AcDbEntity
  8
0
  6
Continuous
 62
     7
370
    25
100
AcDbLine
 10
17.3793521166
 20
-22.5713141026
 30
0.0
 11
17.3793521166
 21
-21.6987179487
 31
0.0
  0
LINE
  5
167
330
1F
100
AcDbEntity
  8
0
  6
Continuous
 62
     7
370
    25
100
AcDbLine
 10
17.3793521166
 20
-23.75
 30
0.0
 11
17.3793521166
 21
-23.4971955128
 31
0.0
  0
LINE
  5
168
330
1F
100
AcDbEntity
  8
0
  6
Continuous
 62
     7
370
    25
100
AcDbLine
 10
17.5588392961
 20
-23.75
 30
0.0
 11
17.3793521166
 21
-23.75
 31
0.0
  0
LINE
  5
169
330
1F
100
AcDbEntity
  8
0
  6
Continuous
 62
     7
370
    25
100
AcDbLine
 10
17.5588392961
 20
-21.6987179487
 30
0.0
 11
17.5588392961
 21
-23.75
 31
0.0
  0
LINE
  5
16A
330
1F
100
AcDbEntity
  8
0
  6
Continuous
 62
     7
370
    25
100
AcDbLine
 10
17.3793521166
 20
-21.6987179487
 30
0.0
 11
17.5588392961
 21
-21.6987179487
 31
0.0
  0
LINE
  5
16B
330
1F
100
AcDbEntity
  8
0
  6
Continuous
 62
     7
370
    25
100
AcDbLine
 10
20.7639675012
 20
-23.75
 30
0.0
 11
20.5844803217
 21
-23.75
 31
0.0
  0
LINE
  5
16C
330
1F
100
AcDbEntity
  8
0
  6
Continuous
 62
     7
370
    25
100
AcDbLine
 10
20.7639675012
 20
-21.75
 30
0.0
 11
20.7639675012
 21
-23.75
 31
0.0
  0
LINE
  5
16D
330
1F
100
AcDbEntity
  8
0
  6
Continuous
 62
     7
370
    25
100
AcDbLine
 10
20.5844803217
 20
-21.75
 30
0.0
 11
20.7639675012
 21
-21.75
 31
0.0
  0
LINE
  5
16E
330
1F
100
AcDbEntity
  8
0
  6
Continuous
 62
     7
370
    25
100
AcDbLine
 10
20.5844803217
 20
-23.75
 30
0.0
 11
20.5844803217
 21
-21.75
 31
0.0
  0
LINE
  5
16F
330
1F
100
AcDbEntity
  8
0
  6
Continuous
 62
     7
370
    25
100
AcDbLine
 10
24.8665316038
 20
-23.75
 30
0.0
 11
23.7383264756
 21
-23.75
 31
0.0
  0
LINE
  5
170
330
1F
100
AcDbEntity
  8
0
  6
Continuous
 62
     7
370
    25
100
AcDbLine
 10
24.8665316038
 20
-23.5448717949
 30
0.0
 11
24.8665316038
 21
-23.75
 31
0.0
  0
LINE
  5
171
330
1F
100
AcDbEntity
  8
0
  6
Continuous
 62
     7
370
    25
100
AcDbLine
 10
23.9178136551
 20
-23.5448717949
 30
0.0
 11
24.8665316038
 21
-23.5448717949
 31
0.0
  0
LINE
  5
172
330
1F
100
AcDbEntity
  8
0
  6
Continuous
 62
     7
370
    25
100
AcDbLine
 10
23.9178136551
 20
-22.7756410256
 30
0.0
 11
23.9178136551
 21
-23.5448717949
 31
0.0
  0
LINE
  5
173
330
1F
100
AcDbEntity
  8
0
  6
Continuous
 62
     7
370
    25
100
AcDbLine
 10
24.8665316038
 20
-22.7756410256
 30
0.0
 11
23.9178136551
 21
-22.7756410256
 31
0.0
  0
LINE
  5
174
330
1F
100
AcDbEntity
  8
0
  6
Continuous
 62
     7
370
    25
100
AcDbLine
 10
24.8665316038
 20
-22.5705128205
 30
0.0
 11
24.8665316038
 21
-22.7756410256
 31
0.0
  0
LINE
  5
175
330
1F
100
AcDbEntity
  8
0
  6
Continuous
 62
     7
370
    25
100
AcDbLine
 10
23.9178136551
 20
-22.5705128205
 30
0.0
 11
24.8665316038
 21
-22.5705128205
 31
0.0
  0
LINE
  5
176
330
1F
100
AcDbEntity
  8
0
  6
Continuous
 62
     7
370
    25
100
AcDbLine
 10
23.9178136551
 20
-21.9551282051
 30
0.0
 11
23.9178136551
 21
-22.5705128205
 31
0.0
  0
LINE
  5
177
330
1F
100
AcDbEntity
  8
0
  6
Continuous
 62
     7
370
    25
100
AcDbLine
 10
24.8665316038
 20
-21.9551282051
 30
0.0
 11
23.9178136551
 21
-21.9551282051
 31
0.0
  0
LINE
  5
178
330
1F
100
AcDbEntity
  8
0
  6
Continuous
 62
     7
370
    25
100
AcDbLine
 10
24.8665316038
 20
-21.75
 30
0.0
 11
24.8665316038
 21
-21.9551282051
 31
0.0
  0
LINE
  5
179
330
1F
100
AcDbEntity
  8
0
  6
Continuous
 62
     7
370
    25
100
AcDbLine
 10
23.7383264756
 20
-21.75
 30
0.0
 11
24.8665316038
 21
-21.75
 31
0.0
  0
LINE
  5
17A
330
1F
100
AcDbEntity
  8
0
  6
Continuous
 62
     7
370
    25
100
AcDbLine
 10
23.7383264756
 20
-23.75
 30
0.0
 11
23.7383264756
 21
-21.75
 31
0.0
  0
LINE
  5
17B
330
1F
100
AcDbEntity
  8
0
  6
Continuous
 62
     7
370
    25
100
AcDbLine
 10
27.1854418602
 20
-24.2884615385
 30
0.0
 11
27.4831181423
 21
-23.625400641
 31
0.0
  0
LINE
  5
17C
330
1F
100
AcDbEntity
  8
0
  6
Continuous
 62
     7
370
    25
100
AcDbLine
 10
27.3793521166
 20
-24.2884615385
 30
0.0
 11
27.1854418602
 21
-24.2884615385
 31
0.0
  0
LINE
  5
17D
330
1F
100
AcDbEntity
  8
0
  6
Continuous
 62
     7
370
    25
100
AcDbLine
 10
28.2767880141
 20
-22.2884615385
 30
0.0
 11
27.3793521166
 21
-24.2884615385
 31
0.0
  0
LINE
  5
17E
330
1F
100
AcDbEntity
  8
0
  6
Continuous
 62
     7
370
    25
100
AcDbLine
 10
28.0828777576
 20
-22.2884615385
 30
0.0
 11
28.2767880141
 21
-22.2884615385
 31
0.0
  0
LINE
  5
17F
330
1F
100
AcDbEntity
  8
0
  6
Continuous
 62
     7
370
    25
100
AcDbLine
 10
27.5804739115
 20
-23.4078525641
 30
0.0
 11
28.0828777576
 21
-22.2884615385
 31
0.0
  0
LINE
  5
180
330
1F
100
AcDbEntity
  8
0
  6
Continuous
 62
     7
370
    25
100
AcDbLine
 10
27.0856822448
 20
-22.2884615385
 30
0.0
 11
27.5804739115
 21
-23.4078525641
 31
0.0
  0
LINE
  5
181
330
1F
100
AcDbEntity
  8
0
  6
Continuous
 62
     7
370
    25
100
AcDbLine
 10
26.8921726294
 20
-22.2884615385
 30
0.0
 11
27.0856822448
 21
-22.2884615385
 31
0.0
  0
LINE
  5
182
330
1F
100
AcDbEntity
  8
0
  6
Continuous
 62
     7
370
    25
100
AcDbLine
 10
27.4831181423
 20
-23.625400641
 30
0.0
 11
26.8921726294
 21
-22.2884615385
 31
0.0
  0
LINE
  5
183
330
1F
100
AcDbEntity
  8
0
  6
Continuous
 62
     7
370
    25
100
AcDbLine
 10
28.7030700653
 20
-20.25
 30
0.0
 11
28.7030700653
 21
-17.108974359
 31
0.0
  0
LINE
  5
184
330
1F
100
AcDbEntity
  8
0
  6
Continuous
 62
     7
370
    25
100
AcDbLine
 10
29.0171726294
 20
-20.25
 30
0.0
 11
28.7030700653
 21
-20.25
 31
0.0
  0
LINE
  5
185
330
1F
100
AcDbEntity
  8
0
  6
Continuous
 62
     7
370
    25
100
AcDbLine
 10
29.0171726294
 20
-17.108974359
 30
0.0
 11
29.0171726294
 21
-20.25
 31
0.0
  0
LINE
  5
186
330
1F
100
AcDbEntity
  8
0
  6
Continuous
 62
     7
370
    25
100
AcDbLine
 10
29.7799931423
 20
-17.108974359
 30
0.0
 11
29.0171726294
 21
-17.108974359
 31
0.0
  0
LINE
  5
187
330
1F
100
AcDbEntity
  8
0
  6
Continuous
 62
     7
370
    25
100
AcDbLine
 10
29.7799931423
 20
-16.75
 30
0.0
 11
29.7799931423
 21
-17.108974359
 31
0.0
  0
LINE
  5
188
330
1F
100
AcDbEntity
  8
0
  6
Continuous
 62
     7
370
    25
100
AcDbLine
 10
27.9402495525
 20
-16.75
 30
0.0
 11
29.7799931423
 21
-16.75
 31
0.0
  0
LINE
  5
189
330
1F
100
AcDbEntity
  8
0
  6
Continuous
 62
     7
370
    25
100
AcDbLine
 10
27.9402495525
 20
-17.108974359
 30
0.0
 11
27.9402495525
 21
-16.75
 31
0.0
  0
LINE
  5
18A
330
1F
100
AcDbEntity
  8
0
  6
Continuous
 62
     7
370
    25
100
AcDbLine
 10
28.7030700653
 20
-17.108974359
 30
0.0
 11
27.9402495525
 21
-17.108974359
 31
0.0
  0
LINE
  5
18B
330
1F
100
AcDbEntity
  8
0
  6
Continuous
 62
     7
370
    25
100
AcDbLine
 10
26.369736732
 20
-17.2527043269
 30
0.0
 11
26.0857824051
 21
-17.4679487179
 31
0.0
  0
LINE
  5
18C
330
1F
100
AcDbEntity
  8
0
  6
Continuous
 62
     7
370
    25
100
AcDbLine
 10
24.3505059628
 20
-19.5748197115
 30
0.0
 11
24.6463793602
 21
-19.3974358974
 31
0.0
  0
LINE
  5
18D
330
1F
100
AcDbEntity
  8
0
  6
Continuous
 62
     7
370
    25
100
AcDbLine
 10
30.3280700653
 20
-22.2884615385
 30
0.0
 11
30.5844803217
 21
-22.2884615385
 31
0.0
  0
LINE
  5
18E
330
1F
100
AcDbEntity
  8
0
  6
Continuous
 62
     7
370
    25
100
AcDbLine
 10
30.3280700653
 20
-22.4679487179
 30
0.0
 11
30.3280700653
 21
-22.2884615385
 31
0.0
  0
LINE
  5
18F
330
1F
100
AcDbEntity
  8
0
  6
Continuous
 62
     7
370
    25
100
AcDbLine
 10
30.5844803217
 20
-22.4679487179
 30
0.0
 11
30.3280700653
 21
-22.4679487179
 31
0.0
  0
LINE
  5
190
330
1F
100
AcDbEntity
  8
0
  6
Continuous
 62
     7
370
    25
100
AcDbLine
 10
30.5844803217
 20
-23.75
 30
0.0
 11
30.5844803217
 21
-22.4679487179
 31
0.0
  0
LINE
  5
191
330
1F
100
AcDbEntity
  8
0
  6
Continuous
 62
     7
370
    25
100
AcDbLine
 10
30.7639675012
 20
-23.75
 30
0.0
 11
30.5844803217
 21
-23.75
 31
0.0
  0
LINE
  5
192
330
1F
100
AcDbEntity
  8
0
  6
Continuous
 62
     7
370
    25
100
AcDbLine
 10
30.7639675012
 20
-22.4679487179
 30
0.0
 11
30.7639675012
 21
-23.75
 31
0.0
  0
LINE
  5
193
330
1F
100
AcDbEntity
  8
0
  6
Continuous
 62
     7
370
    25
100
AcDbLine
 10
31.0203777576
 20
-22.4679487179
 30
0.0
 11
30.7639675012
 21
-22.4679487179
 31
0.0
  0
LINE
  5
194
330
1F
100
AcDbEntity
  8
0
  6
Continuous
 62
     7
370
    25
100
AcDbLine
 10
31.0203777576
 20
-22.2884615385
 30
0.0
 11
31.0203777576
 21
-22.4679487179
 31
0.0
  0
LINE
  5
195
330
1F
100
AcDbEntity
  8
0
  6
Continuous
 62
     7
370
    25
100
AcDbLine
 10
30.7639675012
 20
-22.2884615385
 30
0.0
 11
31.0203777576
 21
-22.2884615385
 31
0.0
  0
LINE
  5
196
330
1F
100
AcDbEntity
  8
0
  6
Continuous
 62
     7
370
    25
100
AcDbLine
 10
30.7639675012
 20
-21.6987179487
 30
0.0
 11
30.7639675012
 21
-22.2884615385
 31
0.0
  0
LINE
  5
197
330
1F
100
AcDbEntity
  8
0
  6
Continuous
 62
     7
370
    25
100
AcDbLine
 10
30.5844803217
 20
-21.6987179487
 30
0.0
 11
30.7639675012
 21
-21.6987179487
 31
0.0
  0
LINE
  5
198
330
1F
100
AcDbEntity
  8
0
  6
Continuous
 62
     7
370
    25
100
AcDbLine
 10
30.5844803217
 20
-22.2884615385
 30
0.0
 11
30.5844803217
 21
-21.6987179487
 31
0.0
  0
LINE
  5
199
330
1F
100
AcDbEntity
  8
0
  6
Continuous
 62
     7
370
    25
100
AcDbLine
 10
15.0620444243
 20
-20.25
 30
0.0
 11
14.7479418602
 21
-20.25
 31
0.0
  0
LINE
  5
19A
330
1F
100
AcDbEntity
  8
0
  6
Continuous
 62
     7
370
    25
100
AcDbLine
 10
15.0620444243
 20
-18.6346153846
 30
0.0
 11
15.0620444243
 21
-20.25
 31
0.0
  0
LINE
  5
19B
330
1F
100
AcDbEntity
  8
0
  6
Continuous
 62
     7
370
    25
100
AcDbLine
 10
15.3123449051
 20
-18.6346153846
 30
0.0
 11
15.0620444243
 21
-18.6346153846
 31
0.0
  0
LINE
  5
19C
330
1F
100
AcDbEntity
  8
0
  6
Continuous
 62
     7
370
    25
100
AcDbLine
 10
14.7479418602
 20
-16.75
 30
0.0
 11
15.4343400974
 21
-16.75
 31
0.0
  0
LINE
  5
19D
330
1F
100
AcDbEntity
  8
0
  6
Continuous
 62
     7
370
    25
100
AcDbLine
 10
14.7479418602
 20
-20.25
 30
0.0
 11
14.7479418602
 21
-16.75
 31
0.0
  0
LINE
  5
19E
330
1F
100
AcDbEntity
  8
0
  6
Continuous
 62
     7
370
    25
100
AcDbLine
 10
15.4819162192
 20
-22.5588942308
 30
0.0
 11
15.4819162192
 21
-22.2884615385
 31
0.0
  0
LINE
  5
19F
330
1F
100
AcDbEntity
  8
0
  6
Continuous
 62
     7
370
    25
100
AcDbLine
 10
15.4819162192
 20
-23.75
 30
0.0
 11
15.4819162192
 21
-23.4971955128
 31
0.0
  0
LINE
  5
1A0
330
1F
100
AcDbEntity
  8
0
  6
Continuous
 62
     7
370
    25
100
AcDbLine
 10
15.6614033987
 20
-23.75
 30
0.0
 11
15.4819162192
 21
-23.75
 31
0.0
  0
LINE
  5
1A1
330
1F
100
AcDbEntity
  8
0
  6
Continuous
 62
     7
370
    25
100
AcDbLine
 10
15.6614033987
 20
-22.2884615385
 30
0.0
 11
15.6614033987
 21
-23.75
 31
0.0
  0
LINE
  5
1A2
330
1F
100
AcDbEntity
  8
0
  6
Continuous
 62
     7
370
    25
100
AcDbLine
 10
15.4819162192
 20
-22.2884615385
 30
0.0
 11
15.6614033987
 21
-22.2884615385
 31
0.0
  0
LINE
  5
1A3
330
1F
100
AcDbEntity
  8
0
  6
Continuous
 62
     7
370
    25
100
AcDbLine
 10
32.2928136551
 20
-20.25
 30
0.0
 11
30.3184546807
 21
-20.25
 31
0.0
  0
LINE
  5
1A4
330
1F
100
AcDbEntity
  8
0
  6
Continuous
 62
     7
370
    25
100
AcDbLine
 10
32.2928136551
 20
-19.891025641
 30
0.0
 11
32.2928136551
 21
-20.25
 31
0.0
  0
LINE
  5
1A5
330
1F
100
AcDbEntity
  8
0
  6
Continuous
 62
     7
370
    25
100
AcDbLine
 10
30.6325572448
 20
-19.891025641
 30
0.0
 11
32.2928136551
 21
-19.891025641
 31
0.0
  0
LINE
  5
1A6
330
1F
100
AcDbEntity
  8
0
  6
Continuous
 62
     7
370
    25
100
AcDbLine
 10
30.6325572448
 20
-18.5448717949
 30
0.0
 11
30.6325572448
 21
-19.891025641
 31
0.0
  0
LINE
  5
1A7
330
1F
100
AcDbEntity
  8
0
  6
Continuous
 62
     7
370
    25
100
AcDbLine
 10
32.2928136551
 20
-18.5448717949
 30
0.0
 11
30.6325572448
 21
-18.5448717949
 31
0.0
  0
LINE
  5
1A8
330
1F
100
AcDbEntity
  8
0
  6
Continuous
 62
     7
370
    25
100
AcDbLine
 10
32.2928136551
 20
-18.1858974359
 30
0.0
 11
32.2928136551
 21
-18.5448717949
 31
0.0
  0
LINE
  5
1A9
330
1F
100
AcDbEntity
  8
0
  6
Continuous
 62
     7
370
    25
100
AcDbLine
 10
30.6325572448
 20
-18.1858974359
 30
0.0
 11
32.2928136551
 21
-18.1858974359
 31
0.0
  0
LINE
  5
1AA
330
1F
100
AcDbEntity
  8
0
  6
Continuous
 62
     7
370
    25
100
AcDbLine
 10
30.6325572448
 20
-17.108974359
 30
0.0
 11
30.6325572448
 21
-18.1858974359
 31
0.0
  0
LINE
  5
1AB
330
1F
100
AcDbEntity
  8
0
  6
Continuous
 62
     7
370
    25
100
AcDbLine
 10
32.2928136551
 20
-17.108974359
 30
0.0
 11
30.6325572448
 21
-17.108974359
 31
0.0
  0
LINE
  5
1AC
330
1F
100
AcDbEntity
  8
0
  6
Continuous
 62
     7
370
    25
100
AcDbLine
 10
32.2928136551
 20
-16.75
 30
0.0
 11
32.2928136551
 21
-17.108974359
 31
0.0
  0
LINE
  5
1AD
330
1F
100
AcDbEntity
  8
0
  6
Continuous
 62
     7
370
    25
100
AcDbLine
 10
30.3184546807
 20
-16.75
 30
0.0
 11
32.2928136551
 21
-16.75
 31
0.0
  0
LINE
  5
1AE
330
1F
100
AcDbEntity
  8
0
  6
Continuous
 62
     7
370
    25
100
AcDbLine
 10
30.3184546807
 20
-20.25
 30
0.0
 11
30.3184546807
 21
-16.75
 31
0.0
  0
LINE
  5
1AF
330
1F
100
AcDbEntity
  8
0
  6
Continuous
 62
     7
370
    25
100
AcDbLine
 10
-37.5
 20
-28.75
 30
0.0
 11
-37.5
 21
28.75
 31
0.0
  0
LINE
  5
1B0
330
1F
100
AcDbEntity
  8
0
  6
Continuous
 62
     7
370
    25
100
AcDbLine
 10
-37.5
 20
28.75
 30
0.0
 11
37.5
 21
28.75
 31
0.0
  0
LINE
  5
1B1
330
1F
100
AcDbEntity
  8
0
  6
Continuous
 62
     7
370
    25
100
AcDbLine
 10
37.5
 20
28.75
 30
0.0
 11
37.5
 21
3.75
 31
0.0
  0
LINE
  5
1B2
330
1F
100
AcDbEntity
  8
0
  6
Continuous
 62
     7
370
    25
100
AcDbLine
 10
40.0
 20
3.75
 30
0.0
 11
37.5
 21
3.75
 31
0.0
  0
LINE
  5
1B3
330
1F
100
AcDbEntity
  8
0
  6
Continuous
 62
     7
370
    25
100
AcDbLine
 10
40.0
 20
3.75
 30
0.0
 11
40.0
 21
-6.25
 31
0.0
  0
LINE
  5
1B4
330
1F
100
AcDbEntity
  8
0
  6
Continuous
 62
     7
370
    25
100
AcDbLine
 10
37.5
 20
-6.25
 30
0.0
 11
40.0
 21
-6.25
 31
0.0
  0
LINE
  5
1B5
330
1F
100
AcDbEntity
  8
0
  6
Continuous
 62
     7
370
    25
100
AcDbLine
 10
37.5
 20
-6.25
 30
0.0
 11
37.5
 21
-28.75
 31
0.0
  0
LINE
  5
1B6
330
1F
100
AcDbEntity
  8
0
  6
Continuous
 62
     7
370
    25
100
AcDbLine
 10
37.5
 20
-28.75
 30
0.0
 11
32.0
 21
-28.75
 31
0.0
  0
LINE
  5
1B7
330
1F
100
AcDbEntity
  8
0
  6
Continuous
 62
     7
370
    25
100
AcDbLine
 10
32.0
 20
-28.75
 30
0.0
 11
32.0
 21
-31.25
 31
0.0
  0
LINE
  5
1B8
330
1F
100
AcDbEntity
  8
0
  6
Continuous
 62
     7
370
    25
100
AcDbLine
 10
32.0
 20
-31.25
 30
0.0
 11
24.0
 21
-31.25
 31
0.0
  0
LINE
  5
1B9
330
1F
100
AcDbEntity
  8
0
  6
Continuous
 62
     7
370
    25
100
AcDbLine
 10
24.0
 20
-31.25
 30
0.0
 11
24.0
 21
-28.75
 31
0.0
  0
LINE
  5
1BA
330
1F
100
AcDbEntity
  8
0
  6
Continuous
 62
     7
370
    25
100
AcDbLine
 10
24.0
 20
-28.75
 30
0.0
 11
16.0
 21
-28.75
 31
0.0
  0
LINE
  5
1BB
330
1F
100
AcDbEntity
  8
0
  6
Continuous
 62
     7
370
    25
100
AcDbLine
 10
16.0
 20
-28.75
 30
0.0
 11
16.0
 21
-31.25
 31
0.0
  0
LINE
  5
1BC
330
1F
100
AcDbEntity
  8
0
  6
Continuous
 62
     7
370
    25
100
AcDbLine
 10
16.0
 20
-31.25
 30
0.0
 11
8.0
 21
-31.25
 31
0.0
  0
LINE
  5
1BD
330
1F
100
AcDbEntity
  8
0
  6
Continuous
 62
     7
370
    25
100
AcDbLine
 10
8.0
 20
-31.25
 30
0.0
 11
8.0
 21
-28.75
 31
0.0
  0
LINE
  5
1BE
330
1F
100
AcDbEntity
  8
0
  6
Continuous
 62
     7
370
    25
100
AcDbLine
 10
8.0
 20
-28.75
 30
0.0
 11
-8.0
 21
-28.75
 31
0.0
  0
LINE
  5
1BF
330
1F
100
AcDbEntity
  8
0
  6
Continuous
 62
     7
370
    25
100
AcDbLine
 10
-8.0
 20
-31.25
 30
0.0
 11
-8.0
 21
-28.75
 31
0.0
  0
LINE
  5
1C0
330
1F
100
AcDbEntity
  8
0
  6
Continuous
 62
     7
370
    25
100
AcDbLine
 10
-16.0
 20
-31.25
 30
0.0
 11
-8.0
 21
-31.25
 31
0.0
  0
LINE
  5
1C1
330
1F
100
AcDbEntity
  8
0
  6
Continuous
 62
     7
370
    25
100
AcDbLine
 10
-16.0
 20
-28.75
 30
0.0
 11
-16.0
 21
-31.25
 31
0.0
  0
LINE
  5
1C2
330
1F
100
AcDbEntity
  8
0
  6
Continuous
 62
     7
370
    25
100
AcDbLine
 10
-24.0
 20
-28.75
 30
0.0
 11
-16.0
 21
-28.75
 31
0.0
  0
LINE
  5
1C3
330
1F
100
AcDbEntity
  8
0
  6
Continuous
 62
     7
370
    25
100
AcDbLine
 10
-24.0
 20
-31.25
 30
0.0
 11
-24.0
 21
-28.75
 31
0.0
  0
LINE
  5
1C4
330
1F
100
AcDbEntity
  8
0
  6
Continuous
 62
     7
370
    25
100
AcDbLine
 10
-32.0
 20
-31.25
 30
0.0
 11
-24.0
 21
-31.25
 31
0.0
  0
LINE
  5
1C5
330
1F
100
AcDbEntity
  8
0
  6
Continuous
 62
     7
370
    25
100
AcDbLine
 10
-32.0
 20
-28.75
 30
0.0
 11
-32.0
 21
-31.25
 31
0.0
  0
LINE
  5
1C6
330
1F
100
AcDbEntity
  8
0
  6
Continuous
 62
     7
370
    25
100
AcDbLine
 10
-37.5
 20
-28.75
 30
0.0
 11
-32.0
 21
-28.75
 31
0.0
  0
LINE
  5
1C7
330
1F
100
AcDbEntity
  8
0
  6
Continuous
 62
     7
370
    25
100
AcDbLine
 10
11.9562751935
 20
-22.3076923077
 30
0.0
 11
11.7651694243
 21
-23.75
 31
0.0
  0
LINE
  5
1C8
330
1F
100
AcDbEntity
  8
0
  6
Continuous
 62
     7
370
    25
100
AcDbLine
 10
12.6810348089
 20
-23.75
 30
0.0
 11
11.9562751935
 21
-22.3076923077
 31
0.0
  0
LINE
  5
1C9
330
1F
100
AcDbEntity
  8
0
  6
Continuous
 62
     7
370
    25
100
AcDbLine
 10
12.7214995525
 20
-23.75
 30
0.0
 11
12.6810348089
 21
-23.75
 31
0.0
  0
LINE
  5
1CA
330
1F
100
AcDbEntity
  8
0
  6
Continuous
 62
     7
370
    25
100
AcDbLine
 10
13.4434546807
 20
-22.3108974359
 30
0.0
 11
12.7214995525
 21
-23.75
 31
0.0
  0
LINE
  5
1CB
330
1F
100
AcDbEntity
  8
0
  6
Continuous
 62
     7
370
    25
100
AcDbLine
 10
13.634961091
 20
-23.75
 30
0.0
 11
13.4434546807
 21
-22.3108974359
 31
0.0
  0
LINE
  5
1CC
330
1F
100
AcDbEntity
  8
0
  6
Continuous
 62
     7
370
    25
100
AcDbLine
 10
13.8152495525
 20
-23.75
 30
0.0
 11
13.634961091
 21
-23.75
 31
0.0
  0
LINE
  5
1CD
330
1F
100
AcDbEntity
  8
0
  6
Continuous
 62
     7
370
    25
100
AcDbLine
 10
13.5496245525
 20
-21.75
 30
0.0
 11
13.8152495525
 21
-23.75
 31
0.0
  0
LINE
  5
1CE
330
1F
100
AcDbEntity
  8
0
  6
Continuous
 62
     7
370
    25
100
AcDbLine
 10
13.5235828858
 20
-21.75
 30
0.0
 11
13.5496245525
 21
-21.75
 31
0.0
  0
LINE
  5
1CF
330
1F
100
AcDbEntity
  8
0
  6
Continuous
 62
     7
370
    25
100
AcDbLine
 10
12.6998649371
 20
-23.391025641
 30
0.0
 11
13.5235828858
 21
-21.75
 31
0.0
  0
LINE
  5
1D0
330
1F
100
AcDbEntity
  8
0
  6
Continuous
 62
     7
370
    25
100
AcDbLine
 10
11.8741437833
 20
-21.75
 30
0.0
 11
12.6998649371
 21
-23.391025641
 31
0.0
  0
LINE
  5
1D1
330
1F
100
AcDbEntity
  8
0
  6
Continuous
 62
     7
370
    25
100
AcDbLine
 10
11.8485027576
 20
-21.75
 30
0.0
 11
11.8741437833
 21
-21.75
 31
0.0
  0
LINE
  5
1D2
330
1F
100
AcDbEntity
  8
0
  6
Continuous
 62
     7
370
    25
100
AcDbLine
 10
11.5844803217
 20
-23.75
 30
0.0
 11
11.8485027576
 21
-21.75
 31
0.0
  0
LINE
  5
1D3
330
1F
100
AcDbEntity
  8
0
  6
Continuous
 62
     7
370
    25
100
AcDbLine
 10
11.7651694243
 20
-23.75
 30
0.0
 11
11.5844803217
 21
-23.75
 31
0.0
  0
LINE
  5
1D4
330
1F
100
AcDbEntity
  8
0
  6
Continuous
 62
     7
370
    25
100
AcDbLine
 10
17.9338392961
 20
-20.25
 30
0.0
 11
17.619736732
 21
-20.25
 31
0.0
  0
LINE
  5
1D5
330
1F
100
AcDbEntity
  8
0
  6
Continuous
 62
     7
370
    25
100
AcDbLine
 10
17.9338392961
 20
-18.6346153846
 30
0.0
 11
17.9338392961
 21
-20.25
 31
0.0
  0
LINE
  5
1D6
330
1F
100
AcDbEntity
  8
0
  6
Continuous
 62
     7
370
    25
100
AcDbLine
 10
18.1841397769
 20
-18.6346153846
 30
0.0
 11
17.9338392961
 21
-18.6346153846
 31
0.0
  0
LINE
  5
1D7
330
1F
100
AcDbEntity
  8
0
  6
Continuous
 62
     7
370
    25
100
AcDbLine
 10
17.619736732
 20
-16.75
 30
0.0
 11
18.3061349692
 21
-16.75
 31
0.0
  0
LINE
  5
1D8
330
1F
100
AcDbEntity
  8
0
  6
Continuous
 62
     7
370
    25
100
AcDbLine
 10
17.619736732
 20
-20.25
 30
0.0
 11
17.619736732
 21
-16.75
 31
0.0
  0
LINE
  5
1D9
330
1F
100
AcDbEntity
  8
0
  6
Continuous
 62
     7
370
    25
100
AcDbLine
 10
27.4466598089
 20
-20.25
 30
0.0
 11
27.1325572448
 21
-20.25
 31
0.0
  0
LINE
  5
1DA
330
1F
100
AcDbEntity
  8
0
  6
Continuous
 62
     7
370
    25
100
AcDbLine
 10
27.4466598089
 20
-16.75
 30
0.0
 11
27.4466598089
 21
-20.25
 31
0.0
  0
LINE
  5
1DB
330
1F
100
AcDbEntity
  8
0
  6
Continuous
 62
     7
370
    25
100
AcDbLine
 10
27.1325572448
 20
-16.75
 30
0.0
 11
27.4466598089
 21
-16.75
 31
0.0
  0
LINE
  5
1DC
330
1F
100
AcDbEntity
  8
0
  6
Continuous
 62
     7
370
    25
100
AcDbLine
 10
27.1325572448
 20
-20.25
 30
0.0
 11
27.1325572448
 21
-16.75
 31
0.0
  0
LINE
  5
1DD
330
1F
100
AcDbEntity
  8
0
  6
Continuous
 62
     7
370
    25
100
AcDbLine
 10
28.6870444243
 20
-24.2884615385
 30
0.0
 11
28.5075572448
 21
-24.2884615385
 31
0.0
  0
LINE
  5
1DE
330
1F
100
AcDbEntity
  8
0
  6
Continuous
 62
     7
370
    25
100
AcDbLine
 10
28.6870444243
 20
-23.4851762821
 30
0.0
 11
28.6870444243
 21
-24.2884615385
 31
0.0
  0
LINE
  5
1DF
330
1F
100
AcDbEntity
  8
0
  6
Continuous
 62
     7
370
    25
100
AcDbLine
 10
28.6870444243
 20
-22.2884615385
 30
0.0
 11
28.6870444243
 21
-22.5588942308
 31
0.0
  0
LINE
  5
1E0
330
1F
100
AcDbEntity
  8
0
  6
Continuous
 62
     7
370
    25
100
AcDbLine
 10
28.5075572448
 20
-22.2884615385
 30
0.0
 11
28.6870444243
 21
-22.2884615385
 31
0.0
  0
LINE
  5
1E1
330
1F
100
AcDbEntity
  8
0
  6
Continuous
 62
     7
370
    25
100
AcDbLine
 10
28.5075572448
 20
-24.2884615385
 30
0.0
 11
28.5075572448
 21
-22.2884615385
 31
0.0
  0
LINE
  5
1E2
330
1F
100
AcDbEntity
  8
0
  6
Continuous
 62
     7
370
    25
100
AcDbLine
 10
26.4562751935
 20
-23.5456730769
 30
0.0
 11
26.4562751935
 21
-23.4699519231
 31
0.0
  0
LINE
  5
1E3
330
1F
100
AcDbEntity
  8
0
  6
Continuous
 62
     7
370
    25
100
AcDbLine
 10
25.1485828858
 20
-23.8525641026
 30
0.0
 11
25.3280700653
 21
-23.8525641026
 31
0.0
  0
LINE
  5
1E4
330
1F
100
AcDbEntity
  8
0
  6
Continuous
 62
     7
370
    25
100
AcDbLine
 10
26.635762373
 20
-22.2884615385
 30
0.0
 11
26.635762373
 21
-23.4483173077
 31
0.0
  0
LINE
  5
1E5
330
1F
100
AcDbEntity
  8
0
  6
Continuous
 62
     7
370
    25
100
AcDbLine
 10
26.4562751935
 20
-22.2884615385
 30
0.0
 11
26.635762373
 21
-22.2884615385
 31
0.0
  0
LINE
  5
1E6
330
1F
100
AcDbEntity
  8
0
  6
Continuous
 62
     7
370
    25
100
AcDbLine
 10
26.4562751935
 20
-22.5440705128
 30
0.0
 11
26.4562751935
 21
-22.2884615385
 31
0.0
  0
LINE
  5
1E7
330
1F
100
AcDbEntity
  8
0
  6
Continuous
 62
     7
370
    25
100
AcDbLine
 10
21.4049931423
 20
-23.75
 30
0.0
 11
21.2255059628
 21
-23.75
 31
0.0
  0
LINE
  5
1E8
330
1F
100
AcDbEntity
  8
0
  6
Continuous
 62
     7
370
    25
100
AcDbLine
 10
21.4049931423
 20
-23.2215544872
 30
0.0
 11
21.4049931423
 21
-23.75
 31
0.0
  0
LINE
  5
1E9
330
1F
100
AcDbEntity
  8
0
  6
Continuous
 62
     7
370
    25
100
AcDbLine
 10
22.3280700653
 20
-23.75
 30
0.0
 11
22.3280700653
 21
-23.0625
 31
0.0
  0
LINE
  5
1EA
330
1F
100
AcDbEntity
  8
0
  6
Continuous
 62
     7
370
    25
100
AcDbLine
 10
22.5075572448
 20
-23.75
 30
0.0
 11
22.3280700653
 21
-23.75
 31
0.0
  0
LINE
  5
1EB
330
1F
100
AcDbEntity
  8
0
  6
Continuous
 62
     7
370
    25
100
AcDbLine
 10
22.5075572448
 20
-23.0036057692
 30
0.0
 11
22.5075572448
 21
-23.75
 31
0.0
  0
LINE
  5
1EC
330
1F
100
AcDbEntity
  8
0
  6
Continuous
 62
     7
370
    25
100
AcDbLine
 10
21.4049931423
 20
-22.2884615385
 30
0.0
 11
21.4049931423
 21
-22.5520833333
 31
0.0
  0
LINE
  5
1ED
330
1F
100
AcDbEntity
  8
0
  6
Continuous
 62
     7
370
    25
100
AcDbLine
 10
21.2255059628
 20
-22.2884615385
 30
0.0
 11
21.4049931423
 21
-22.2884615385
 31
0.0
  0
LINE
  5
1EE
330
1F
100
AcDbEntity
  8
0
  6
Continuous
 62
     7
370
    25
100
AcDbLine
 10
21.2255059628
 20
-23.75
 30
0.0
 11
21.2255059628
 21
-22.2884615385
 31
0.0
  0
LINE
  5
1EF
330
1F
100
AcDbEntity
  8
0
  6
Continuous
 62
     7
370
    25
100
AcDbLine
 10
19.4049931423
 20
-23.0576923077
 30
0.0
 11
18.0973008346
 21
-23.0576923077
 31
0.0
  0
LINE
  5
1F0
330
1F
100
AcDbEntity
  8
0
  6
Continuous
 62
     7
370
    25
100
AcDbLine
 10
19.1686149371
 20
-23.2884615385
 30
0.0
 11
19.3280700653
 21
-23.3721955128
 31
0.0
  0
LINE
  5
1F1
330
1F
100
AcDbEntity
  8
0
  6
Continuous
 62
     7
370
    25
100
AcDbLine
 10
15.0620444243
 20
-18.2756410256
 30
0.0
 11
15.674824873
 21
-18.2833533654
 31
0.0
  0
LINE
  5
1F2
330
1F
100
AcDbEntity
  8
0
  6
Continuous
 62
     7
370
    25
100
AcDbLine
 10
15.702168623
 20
-17.108974359
 30
0.0
 11
15.0620444243
 21
-17.108974359
 31
0.0
  0
LINE
  5
1F3
330
1F
100
AcDbEntity
  8
0
  6
Continuous
 62
     7
370
    25
100
AcDbLine
 10
15.0620444243
 20
-17.108974359
 30
0.0
 11
15.0620444243
 21
-18.2756410256
 31
0.0
  0
LINE
  5
1F4
330
1F
100
AcDbEntity
  8
0
  6
Continuous
 62
     7
370
    25
100
AcDbLine
 10
17.9338392961
 20
-18.2756410256
 30
0.0
 11
18.5466197448
 21
-18.2833533654
 31
0.0
  0
LINE
  5
1F5
330
1F
100
AcDbEntity
  8
0
  6
Continuous
 62
     7
370
    25
100
AcDbLine
 10
18.5739634948
 20
-17.108974359
 30
0.0
 11
17.9338392961
 21
-17.108974359
 31
0.0
  0
LINE
  5
1F6
330
1F
100
AcDbEntity
  8
0
  6
Continuous
 62
     7
370
    25
100
AcDbLine
 10
17.9338392961
 20
-17.108974359
 30
0.0
 11
17.9338392961
 21
-18.2756410256
 31
0.0
  0
LINE
  5
1F7
330
1F
100
AcDbEntity
  8
0
  6
Continuous
 62
     7
370
    25
100
AcDbLine
 10
18.1161309628
 20
-22.8782051282
 30
0.0
 11
19.2255059628
 21
-22.8782051282
 31
0.0
  0
ENDSEC
  0
SECTION
  2
OBJECTS
  0
DICTIONARY
  5
C
330
0
100
AcDbDictionary
281
     1
  3
ACAD_GROUP
350
D
  3
ACAD_LAYOUT
350
1A
  3
ACAD_MLINESTYLE
350
17
  3
ACAD_PLOTSETTINGS
350
19
  3
ACAD_PLOTSTYLENAME
350
E
  3
ACAD_SCALELIST
350
47
  0
DICTIONARY
  5
D
102
{ACAD_REACTORS
330
C
102
}
330
C
100
AcDbDictionary
281
     1
  0
DICTIONARY
  5
1A
102
{ACAD_REACTORS
330
C
102
}
330
C
100
AcDbDictionary
281
     1
  3
Layout1
350
1E
  3
Layout2
350
26
  3
Model
350
22
  0
DICTIONARY
  5
17
102
{ACAD_REACTORS
330
C
102
}
330
C
100
AcDbDictionary
281
     1
  3
Standard
350
18
  0
DICTIONARY
  5
19
102
{ACAD_REACTORS
330
C
102
}
330
C
100
AcDbDictionary
281
     1
  0
ACDBDICTIONARYWDFLT
  5
E
102
{ACAD_REACTORS
330
C
102
}
330
C
100
AcDbDictionary
281
     1
  3
Normal
350
F
100
AcDbDictionaryWithDefault
340
F
  0
DICTIONARY
  5
47
102
{ACAD_REACTORS
330
C
102
}
330
C
100
AcDbDictionary
281
     1
  3
A0
350
48
  3
A1
350
49
  3
A2
350
4A
  3
A3
350
4B
  3
A4
350
4C
  3
A5
350
4D
  3
A6
350
4E
  3
A7
350
4F
  3
A8
350
50
  3
A9
350
51
  3
B0
350
52
  3
B1
350
53
  3
B2
350
54
  3
B3
350
55
  3
B4
350
56
  3
B5
350
57
  3
B6
350
58
  3
B7
350
59
  3
B8
350
5A
  3
B9
350
5B
  3
C0
350
5C
  3
C1
350
5D
  3
C2
350
5E
  3
C3
350
5F
  3
C4
350
60
  3
C5
350
61
  3
C6
350
62
  3
C7
350
63
  3
C8
350
64
  3
C9
350
65
  3
D0
350
66
  3
D1
350
67
  3
D2
350
68
  0
LAYOUT
  5
1E
102
{ACAD_REACTORS
330
1A
102
}
330
1A
100
AcDbPlotSettings
  1

  2
none_device
  4

  6

 40
0.0
 41
0.0
 42
0.0
 43
0.0
 44
0.0
 45
0.0
 46
0.0
 47
0.0
 48
0.0
 49
0.0
140
0.0
141
0.0
142
1.0
143
1.0
 70
   688
 72
     1
 73
     0
 74
     5
  7

 75
    16
147
1.0
148
0.0
149
0.0
100
AcDbLayout
  1
Layout1
 70
     1
 71
     1
 10
0.0
 20
0.0
 11
420.0
 21
297.0
 12
0.0
 22
0.0
 32
0.0
 14
1.0000000000E+20
 24
1.0000000000E+20
 34
1.0000000000E+20
 15
-1.0000000000E+20
 25
-1.0000000000E+20
 35
-1.0000000000E+20
146
0.0
 13
0.0
 23
0.0
 33
0.0
 16
1.0
 26
0.0
 36
0.0
 17
0.0
 27
1.0
 37
0.0
 76
     0
330
1B
  0
LAYOUT
  5
26
102
{ACAD_REACTORS
330
1A
102
}
330
1A
100
AcDbPlotSettings
  1

  2
none_device
  4

  6

 40
0.0
 41
0.0
 42
0.0
 43
0.0
 44
0.0
 45
0.0
 46
0.0
 47
0.0
 48
0.0
 49
0.0
140
0.0
141
0.0
142
1.0
143
1.0
 70
   688
 72
     1
 73
     0
 74
     5
  7

 75
    16
147
1.0
148
0.0
149
0.0
100
AcDbLayout
  1
Layout2
 70
     1
 71
     2
 10
0.0
 20
0.0
 11
0.0
 21
0.0
 12
0.0
 22
0.0
 32
0.0
 14
0.0
 24
0.0
 34
0.0
 15
0.0
 25
0.0
 35
0.0
146
0.0
 13
0.0
 23
0.0
 33
0.0
 16
1.0
 26
0.0
 36
0.0
 17
0.0
 27
1.0
 37
0.0
 76
     0
330
23
  0
LAYOUT
  5
22
102
{ACAD_REACTORS
330
1A
102
}
330
1A
100
AcDbPlotSettings
  1

  2
none_device
  4
ANSI_A_(11.00_x_8.50_Inches)
  6

 40
6.35
 41
19.05
 42
6.35000508
 43
19.05000254
 44
279.4
 45
215.9
 46
128.89705996
 47
93.35293623
 48
0.0
 49
0.0
140
0.0
141
0.0
142
0.14025
143
1.0
 70
  1696
 72
     0
 73
     0
 74
     0
  7

 75
     0
147
0.0179189148
148
-1300.4909072572
149
0.0
100
AcDbLayout
  1
Model
 70
     1
 71
     0
 10
0.0
 20
0.0
 11
420.0
 21
297.0
 12
0.0
 22
0.0
 32
0.0
 14
-37.5
 24
-31.25
 34
0.0
 15
40.0
 25
28.75
 35
0.0
146
0.0
 13
0.0
 23
0.0
 33
0.0
 16
1.0
 26
0.0
 36
0.0
 17
0.0
 27
1.0
 37
0.0
 76
     0
330
1F
331
29
  0
MLINESTYLE
  5
18
102
{ACAD_REACTORS
330
17
102
}
330
17
100
AcDbMlineStyle
  2
Standard
 70
     0
  3

 62
   256
 51
90.0
 52
90.0
 71
     2
 49
0.5
 62
   256
  6
BYLAYER
 49
-0.5
 62
   256
  6
BYLAYER
  0
ACDBPLACEHOLDER
  5
F
102
{ACAD_REACTORS
330
E
102
}
330
E
  0
SCALE
  5
48
102
{ACAD_REACTORS
330
47
102
}
330
47
100
AcDbScale
 70
     0
300
1:1
140
1.0
141
1.0
290
     1
  0
SCALE
  5
49
102
{ACAD_REACTORS
330
47
102
}
330
47
100
AcDbScale
 70
     0
300
1:2
140
1.0
141
2.0
290
     0
  0
SCALE
  5
4A
102
{ACAD_REACTORS
330
47
102
}
330
47
100
AcDbScale
 70
     0
300
1:4
140
1.0
141
4.0
290
     0
  0
SCALE
  5
4B
102
{ACAD_REACTORS
330
47
102
}
330
47
100
AcDbScale
 70
     0
300
1:5
140
1.0
141
5.0
290
     0
  0
SCALE
  5
4C
102
{ACAD_REACTORS
330
47
102
}
330
47
100
AcDbScale
 70
     0
300
1:8
140
1.0
141
8.0
290
     0
  0
SCALE
  5
4D
102
{ACAD_REACTORS
330
47
102
}
330
47
100
AcDbScale
 70
     0
300
1:10
140
1.0
141
10.0
290
     0
  0
SCALE
  5
4E
102
{ACAD_REACTORS
330
47
102
}
330
47
100
AcDbScale
 70
     0
300
1:16
140
1.0
141
16.0
290
     0
  0
SCALE
  5
4F
102
{ACAD_REACTORS
330
47
102
}
330
47
100
AcDbScale
 70
     0
300
1:20
140
1.0
141
20.0
290
     0
  0
SCALE
  5
50
102
{ACAD_REACTORS
330
47
102
}
330
47
100
AcDbScale
 70
     0
300
1:30
140
1.0
141
30.0
290
     0
  0
SCALE
  5
51
102
{ACAD_REACTORS
330
47
102
}
330
47
100
AcDbScale
 70
     0
300
1:40
140
1.0
141
40.0
290
     0
  0
SCALE
  5
52
102
{ACAD_REACTORS
330
47
102
}
330
47
100
AcDbScale
 70
     0
300
1:50
140
1.0
141
50.0
290
     0
  0
SCALE
  5
53
102
{ACAD_REACTORS
330
47
102
}
330
47
100
AcDbScale
 70
     0
300
1:100
140
1.0
141
100.0
290
     0
  0
SCALE
  5
54
102
{ACAD_REACTORS
330
47
102
}
330
47
100
AcDbScale
 70
     0
300
2:1
140
2.0
141
1.0
290
     0
  0
SCALE
  5
55
102
{ACAD_REACTORS
330
47
102
}
330
47
100
AcDbScale
 70
     0
300
4:1
140
4.0
141
1.0
290
     0
  0
SCALE
  5
56
102
{ACAD_REACTORS
330
47
102
}
330
47
100
AcDbScale
 70
     0
300
8:1
140
8.0
141
1.0
290
     0
  0
SCALE
  5
57
102
{ACAD_REACTORS
330
47
102
}
330
47
100
AcDbScale
 70
     0
300
10:1
140
10.0
141
1.0
290
     0
  0
SCALE
  5
58
102
{ACAD_REACTORS
330
47
102
}
330
47
100
AcDbScale
 70
     0
300
100:1
140
100.0
141
1.0
290
     0
  0
SCALE
  5
59
102
{ACAD_REACTORS
330
47
102
}
330
47
100
AcDbScale
 70
     0
300
1/128" = 1'-0"
140
0.0078125
141
12.0
290
     0
  0
SCALE
  5
5A
102
{ACAD_REACTORS
330
47
102
}
330
47
100
AcDbScale
 70
     0
300
1/64" = 1'-0"
140
0.015625
141
12.0
290
     0
  0
SCALE
  5
5B
102
{ACAD_REACTORS
330
47
102
}
330
47
100
AcDbScale
 70
     0
300
1/32" = 1'-0"
140
0.03125
141
12.0
290
     0
  0
SCALE
  5
5C
102
{ACAD_REACTORS
330
47
102
}
330
47
100
AcDbScale
 70
     0
300
1/16" = 1'-0"
140
0.0625
141
12.0
290
     0
  0
SCALE
  5
5D
102
{ACAD_REACTORS
330
47
102
}
330
47
100
AcDbScale
 70
     0
300
3/32" = 1'-0"
140
0.09375
141
12.0
290
     0
  0
SCALE
  5
5E
102
{ACAD_REACTORS
330
47
102
}
330
47
100
AcDbScale
 70
     0
300
1/8" = 1'-0"
140
0.125
141
12.0
290
     0
  0
SCALE
  5
5F
102
{ACAD_REACTORS
330
47
102
}
330
47
100
AcDbScale
 70
     0
300
3/16" = 1'-0"
140
0.1875
141
12.0
290
     0
  0
SCALE
  5
60
102
{ACAD_REACTORS
330
47
102
}
330
47
100
AcDbScale
 70
     0
300
1/4" = 1'-0"
140
0.25
141
12.0
290
     0
  0
SCALE
  5
61
102
{ACAD_REACTORS
330
47
102
}
330
47
100
AcDbScale
 70
     0
300
3/8" = 1'-0"
140
0.375
141
12.0
290
     0
  0
SCALE
  5
62
102
{ACAD_REACTORS
330
47
102
}
330
47
100
AcDbScale
 70
     0
300
1/2" = 1'-0"
140
0.5
141
12.0
290
     0
  0
SCALE
  5
63
102
{ACAD_REACTORS
330
47
102
}
330
47
100
AcDbScale
 70
     0
300
3/4" = 1'-0"
140
0.75
141
12.0
290
     0
  0
SCALE
  5
64
102
{ACAD_REACTORS
330
47
102
}
330
47
100
AcDbScale
 70
     0
300
1" = 1'-0"
140
1.0
141
12.0
290
     0
  0
SCALE
  5
65
102
{ACAD_REACTORS
330
47
102
}
330
47
100
AcDbScale
 70
     0
300
1-1/2" = 1'-0"
140
1.5
141
12.0
290
     0
  0
SCALE
  5
66
102
{ACAD_REACTORS
330
47
102
}
330
47
100
AcDbScale
 70
     0
300
3" = 1'-0"
140
3.0
141
12.0
290
     0
  0
SCALE
  5
67
102
{ACAD_REACTORS
330
47
102
}
330
47
100
AcDbScale
 70
     0
300
6" = 1'-0"
140
6.0
141
12.0
290
     0
  0
SCALE
  5
68
102
{ACAD_REACTORS
330
47
102
}
330
47
100
AcDbScale
 70
     0
300
1'-0" = 1'-0"
140
12.0
141
12.0
290
     0
  0
ENDSEC
  0
EOF
