  0
SECTION
  2
HEADER
  9
$ACADVER
  1
AC1015
  9
$ACADMAINTVER
 70
     6
  9
$DWGCODEPAGE
  3
ANSI_1252
  9
$INSBASE
 10
0.0
 20
0.0
 30
0.0
  9
$EXTMIN
 10
-41.057764064
 20
-25.0
 30
0.0
  9
$EXTMAX
 10
41.057764064
 20
25.0
 30
0.0
  9
$LIMMIN
 10
0.0
 20
0.0
  9
$LIMMAX
 10
420.0
 20
297.0
  9
$ORTHOMODE
 70
     0
  9
$REGENMODE
 70
     1
  9
$FILLMODE
 70
     1
  9
$QTEXTMODE
 70
     0
  9
$MIRRTEXT
 70
     1
  9
$LTSCALE
 40
1.0
  9
$ATTMODE
 70
     1
  9
$TEXTSIZE
 40
3.5
  9
$TRACEWID
 40
1.0
  9
$TEXTSTYLE
  7
Standard
  9
$CLAYER
  8
0
  9
$CELTYPE
  6
ByLayer
  9
$CECOLOR
 62
   256
  9
$CELTSCALE
 40
1.0
  9
$DISPSILH
 70
     0
  9
$DIMSCALE
 40
1.0
  9
$DIMASZ
 40
3.302
  9
$DIMEXO
 40
1.0
  9
$DIMDLI
 40
3.75
  9
$DIMRND
 40
0.0
  9
$DIMDLE
 40
0.0
  9
$DIMEXE
 40
1.0
  9
$DIMTP
 40
0.0
  9
$DIMTM
 40
0.0
  9
$DIMTXT
 40
3.5
  9
$DIMCEN
 40
2.5
  9
$DIMTSZ
 40
0.0
  9
$DIMTOL
 70
     0
  9
$DIMLIM
 70
     0
  9
$DIMTIH
 70
     1
  9
$DIMTOH
 70
     1
  9
$DIMSE1
 70
     0
  9
$DIMSE2
 70
     0
  9
$DIMTAD
 70
     1
  9
$DIMZIN
 70
     1
  9
$DIMBLK
  1

  9
$DIMASO
 70
     1
  9
$DIMSHO
 70
     1
  9
$DIMPOST
  1

  9
$DIMAPOST
  1

  9
$DIMALT
 70
     0
  9
$DIMALTD
 70
     3
  9
$DIMALTF
 40
0.0393700787
  9
$DIMLFAC
 40
1.0
  9
$DIMTOFL
 70
     1
  9
$DIMTVP
 40
0.0
  9
$DIMTIX
 70
     0
  9
$DIMSOXD
 70
     0
  9
$DIMSAH
 70
     0
  9
$DIMBLK1
  1

  9
$DIMBLK2
  1

  9
$DIMSTYLE
  2
ISO-25
  9
$DIMCLRD
 70
     0
  9
$DIMCLRE
 70
     0
  9
$DIMCLRT
 70
     0
  9
$DIMTFAC
 40
1.0
  9
$DIMGAP
 40
1.524
  9
$DIMJUST
 70
     0
  9
$DIMSD1
 70
     0
  9
$DIMSD2
 70
     0
  9
$DIMTOLJ
 70
     0
  9
$DIMTZIN
 70
     1
  9
$DIMALTZ
 70
     0
  9
$DIMALTTZ
 70
     0
  9
$DIMUPT
 70
     0
  9
$DIMDEC
 70
     2
  9
$DIMTDEC
 70
     2
  9
$DIMALTU
 70
     2
  9
$DIMALTTD
 70
     3
  9
$DIMTXSTY
  7
Standard
  9
$DIMAUNIT
 70
     0
  9
$DIMADEC
 70
     2
  9
$DIMALTRND
 40
0.0
  9
$DIMAZIN
 70
     0
  9
$DIMDSEP
 70
    44
  9
$DIMATFIT
 70
     3
  9
$DIMFRAC
 70
     0
  9
$DIMLDRBLK
  1

  9
$DIMLUNIT
 70
     2
  9
$DIMLWD
 70
    -2
  9
$DIMLWE
 70
    -2
  9
$DIMTMOVE
 70
     0
  9
$LUNITS
 70
     2
  9
$LUPREC
 70
     2
  9
$SKETCHINC
 40
1.0
  9
$FILLETRAD
 40
10.0
  9
$AUNITS
 70
     0
  9
$AUPREC
 70
     2
  9
$MENU
  1
.
  9
$ELEVATION
 40
0.0
  9
$PELEVATION
 40
0.0
  9
$THICKNESS
 40
0.0
  9
$LIMCHECK
 70
     0
  9
$CHAMFERA
 40
0.0
  9
$CHAMFERB
 40
0.0
  9
$CHAMFERC
 40
0.0
  9
$CHAMFERD
 40
0.0
  9
$SKPOLY
 70
     0
  9
$TDCREATE
 40
2459207.606264421
  9
$TDUCREATE
 40
2459207.522931088
  9
$TDUPDATE
 40
2459207.606295347
  9
$TDUUPDATE
 40
2459207.522962014
  9
$TDINDWG
 40
0.0000000116
  9
$TDUSRTIMER
 40
0.0000000116
  9
$USRTIMER
 70
     1
  9
$ANGBASE
 50
0.0
  9
$ANGDIR
 70
     0
  9
$PDMODE
 70
     0
  9
$PDSIZE
 40
-1.0
  9
$PLINEWID
 40
0.0
  9
$SPLFRAME
 70
     0
  9
$SPLINETYPE
 70
     6
  9
$SPLINESEGS
 70
     8
  9
$HANDSEED
  5
193
  9
$SURFTAB1
 70
     6
  9
$SURFTAB2
 70
     6
  9
$SURFTYPE
 70
     6
  9
$SURFU
 70
     6
  9
$SURFV
 70
     6
  9
$UCSBASE
  2

  9
$UCSNAME
  2

  9
$UCSORG
 10
0.0
 20
0.0
 30
0.0
  9
$UCSXDIR
 10
1.0
 20
0.0
 30
0.0
  9
$UCSYDIR
 10
0.0
 20
1.0
 30
0.0
  9
$UCSORTHOREF
  2

  9
$UCSORTHOVIEW
 70
     0
  9
$UCSORGTOP
 10
0.0
 20
0.0
 30
0.0
  9
$UCSORGBOTTOM
 10
0.0
 20
0.0
 30
0.0
  9
$UCSORGLEFT
 10
0.0
 20
0.0
 30
0.0
  9
$UCSORGRIGHT
 10
0.0
 20
0.0
 30
0.0
  9
$UCSORGFRONT
 10
0.0
 20
0.0
 30
0.0
  9
$UCSORGBACK
 10
0.0
 20
0.0
 30
0.0
  9
$PUCSBASE
  2

  9
$PUCSNAME
  2

  9
$PUCSORG
 10
0.0
 20
0.0
 30
0.0
  9
$PUCSXDIR
 10
1.0
 20
0.0
 30
0.0
  9
$PUCSYDIR
 10
0.0
 20
1.0
 30
0.0
  9
$PUCSORTHOREF
  2

  9
$PUCSORTHOVIEW
 70
     0
  9
$PUCSORGTOP
 10
0.0
 20
0.0
 30
0.0
  9
$PUCSORGBOTTOM
 10
0.0
 20
0.0
 30
0.0
  9
$PUCSORGLEFT
 10
0.0
 20
0.0
 30
0.0
  9
$PUCSORGRIGHT
 10
0.0
 20
0.0
 30
0.0
  9
$PUCSORGFRONT
 10
0.0
 20
0.0
 30
0.0
  9
$PUCSORGBACK
 10
0.0
 20
0.0
 30
0.0
  9
$USERI1
 70
     0
  9
$USERI2
 70
     0
  9
$USERI3
 70
     0
  9
$USERI4
 70
     0
  9
$USERI5
 70
     0
  9
$USERR1
 40
0.0
  9
$USERR2
 40
0.0
  9
$USERR3
 40
0.0
  9
$USERR4
 40
0.0
  9
$USERR5
 40
0.0
  9
$WORLDVIEW
 70
     1
  9
$SHADEDGE
 70
     3
  9
$SHADEDIF
 70
    70
  9
$TILEMODE
 70
     1
  9
$MAXACTVP
 70
    64
  9
$PINSBASE
 10
0.0
 20
0.0
 30
0.0
  9
$PLIMCHECK
 70
     0
  9
$PEXTMIN
 10
1.0000000000E+20
 20
1.0000000000E+20
 30
1.0000000000E+20
  9
$PEXTMAX
 10
-1.0000000000E+20
 20
-1.0000000000E+20
 30
-1.0000000000E+20
  9
$PLIMMIN
 10
0.0
 20
0.0
  9
$PLIMMAX
 10
420.0
 20
297.0
  9
$UNITMODE
 70
     0
  9
$VISRETAIN
 70
     1
  9
$PLINEGEN
 70
     0
  9
$PSLTSCALE
 70
     1
  9
$TREEDEPTH
 70
  3020
  9
$CMLSTYLE
  2
Standard
  9
$CMLJUST
 70
     0
  9
$CMLSCALE
 40
20.0
  9
$PROXYGRAPHICS
 70
     1
  9
$MEASUREMENT
 70
     1
  9
$CELWEIGHT
370
    -1
  9
$ENDCAPS
280
     0
  9
$JOINSTYLE
280
     0
  9
$LWDISPLAY
290
     1
  9
$INSUNITS
 70
     4
  9
$HYPERLINKBASE
  1

  9
$STYLESHEET
  1

  9
$XEDIT
290
     1
  9
$CEPSNTYPE
380
     0
  9
$PSTYLEMODE
290
     1
  9
$FINGERPRINTGUID
  2
{C2E17F68-E183-4FD9-8219-D57B3DE05FF5}
  9
$VERSIONGUID
  2
{FAEB1C32-E019-11D5-929B-00C0DF256EC4}
  9
$EXTNAMES
290
     1
  9
$PSVPSCALE
 40
0.0
  9
$OLESTARTUP
290
     0
  0
ENDSEC
  0
SECTION
  2
CLASSES
  0
CLASS
  1
ACDBDICTIONARYWDFLT
  2
AcDbDictionaryWithDefault
  3
ObjectDBX Classes
 90
        0
280
     0
281
     0
  0
CLASS
  1
VISUALSTYLE
  2
AcDbVisualStyle
  3
ObjectDBX Classes
 90
     4095
280
     0
281
     0
  0
CLASS
  1
MATERIAL
  2
AcDbMaterial
  3
ObjectDBX Classes
 90
     1153
280
     0
281
     0
  0
CLASS
  1
SCALE
  2
AcDbScale
  3
ObjectDBX Classes
 90
     1153
280
     0
281
     0
  0
CLASS
  1
TABLESTYLE
  2
AcDbTableStyle
  3
ObjectDBX Classes
 90
     4095
280
     0
281
     0
  0
CLASS
  1
MLEADERSTYLE
  2
AcDbMLeaderStyle
  3
ACDB_MLEADERSTYLE_CLASS
 90
     4095
280
     0
281
     0
  0
CLASS
  1
SUN
  2
AcDbSun
  3
SCENEOE
 90
     1153
280
     0
281
     0
  0
CLASS
  1
ACDBPLACEHOLDER
  2
AcDbPlaceHolder
  3
ObjectDBX Classes
 90
        0
280
     0
281
     0
  0
CLASS
  1
LAYOUT
  2
AcDbLayout
  3
ObjectDBX Classes
 90
        0
280
     0
281
     0
  0
ENDSEC
  0
SECTION
  2
TABLES
  0
TABLE
  2
VPORT
  5
8
330
0
100
AcDbSymbolTable
 70
     1
  0
VPORT
  5
29
330
8
100
AcDbSymbolTableRecord
100
AcDbViewportTableRecord
  2
*Active
 70
     0
 10
0.0
 20
0.0
 11
1.0
 21
1.0
 12
0.0
 22
0.0
 13
0.0
 23
0.0
 14
10.0
 24
10.0
 15
10.0
 25
10.0
 16
0.0
 26
0.0
 36
1.0
 17
0.0
 27
0.0
 37
0.0
 40
51.0
 41
1.6423105626
 42
50.0
 43
0.0
 44
0.0
 50
0.0
 51
0.0
 71
     0
 72
   100
 73
     1
 74
     3
 75
     0
 76
     0
 77
     0
 78
     0
281
     0
 65
     1
110
0.0
120
0.0
130
0.0
111
1.0
121
0.0
131
0.0
112
0.0
122
1.0
132
0.0
 79
     0
146
0.0
  0
ENDTAB
  0
TABLE
  2
LTYPE
  5
5
330
0
100
AcDbSymbolTable
 70
     6
  0
LTYPE
  5
14
330
5
100
AcDbSymbolTableRecord
100
AcDbLinetypeTableRecord
  2
ByBlock
 70
     0
  3

 72
    65
 73
     0
 40
0.0
  0
LTYPE
  5
15
330
5
100
AcDbSymbolTableRecord
100
AcDbLinetypeTableRecord
  2
ByLayer
 70
     0
  3

 72
    65
 73
     0
 40
0.0
  0
LTYPE
  5
16
330
5
100
AcDbSymbolTableRecord
100
AcDbLinetypeTableRecord
  2
Continuous
 70
     0
  3
Solid line
 72
    65
 73
     0
 40
0.0
  0
LTYPE
  5
6E
330
5
100
AcDbSymbolTableRecord
100
AcDbLinetypeTableRecord
  2
HIDDEN
 70
     0
  3
Hidden __ __ __ __ __ __ __ __ __ __ __ __ __ __
 72
    65
 73
     2
 40
1.905
 49
1.27
 74
     0
 49
-0.635
 74
     0
  0
LTYPE
  5
6F
330
5
100
AcDbSymbolTableRecord
100
AcDbLinetypeTableRecord
  2
PHANTOM
 70
     0
  3
Phantom ______  __  __  ______  __  __  ______
 72
    65
 73
     6
 40
12.7
 49
6.35
 74
     0
 49
-1.27
 74
     0
 49
1.27
 74
     0
 49
-1.27
 74
     0
 49
1.27
 74
     0
 49
-1.27
 74
     0
  0
LTYPE
  5
70
330
5
100
AcDbSymbolTableRecord
100
AcDbLinetypeTableRecord
  2
CENTER
 70
     0
  3
Center ____ _ ____ _ ____ _ ____ _ ____ _ ____
 72
    65
 73
     4
 40
10.16
 49
6.35
 74
     0
 49
-1.27
 74
     0
 49
1.27
 74
     0
 49
-1.27
 74
     0
  0
LTYPE
  5
71
330
5
100
AcDbSymbolTableRecord
100
AcDbLinetypeTableRecord
  2
CENTERX2
 70
     0
  3
Center (2x) ________  __  ________  __  _____
 72
    65
 73
     4
 40
20.32
 49
12.7
 74
     0
 49
-2.54
 74
     0
 49
2.54
 74
     0
 49
-2.54
 74
     0
  0
LTYPE
  5
72
330
5
100
AcDbSymbolTableRecord
100
AcDbLinetypeTableRecord
  2
DOT2
 70
     0
  3
Dot (.5x) ........................................
 72
    65
 73
     2
 40
0.635
 49
0.0
 74
     0
 49
-0.635
 74
     0
  0
ENDTAB
  0
TABLE
  2
LAYER
  5
2
330
0
100
AcDbSymbolTable
 70
     1
  0
LAYER
  5
10
330
2
100
AcDbSymbolTableRecord
100
AcDbLayerTableRecord
  2
0
 70
     0
 62
     7
  6
Continuous
370
    -3
390
F
  0
ENDTAB
  0
TABLE
  2
STYLE
  5
3
330
0
100
AcDbSymbolTable
 70
     1
  0
STYLE
  5
11
330
3
100
AcDbSymbolTableRecord
100
AcDbTextStyleTableRecord
  2
Standard
 70
     0
 40
0.0
 41
1.0
 50
0.0
 71
     0
 42
3.5
  3
txt
  4

  0
ENDTAB
  0
TABLE
  2
VIEW
  5
6
330
0
100
AcDbSymbolTable
 70
     0
  0
ENDTAB
  0
TABLE
  2
UCS
  5
7
330
0
100
AcDbSymbolTable
 70
     0
  0
ENDTAB
  0
TABLE
  2
APPID
  5
9
330
0
100
AcDbSymbolTable
 70
     1
  0
APPID
  5
12
330
9
100
AcDbSymbolTableRecord
100
AcDbRegAppTableRecord
  2
ACAD
 70
     0
  0
ENDTAB
  0
TABLE
  2
DIMSTYLE
  5
A
330
0
100
AcDbSymbolTable
 70
     1
100
AcDbDimStyleTable
  0
DIMSTYLE
105
27
330
A
100
AcDbSymbolTableRecord
100
AcDbDimStyleTableRecord
  2
ISO-25
 70
     0
 41
2.5
 42
0.625
 43
3.75
 44
1.25
 73
     0
 74
     0
 77
     1
 78
     8
140
2.5
141
2.5
143
0.0393700787
147
0.625
171
     3
172
     1
178
     0
271
     2
272
     2
274
     3
278
    44
283
     0
284
     8
340
11
  0
ENDTAB
  0
TABLE
  2
BLOCK_RECORD
  5
1
330
0
100
AcDbSymbolTable
 70
     1
  0
BLOCK_RECORD
  5
1F
330
1
100
AcDbSymbolTableRecord
100
AcDbBlockTableRecord
  2
*Model_Space
340
22
  0
BLOCK_RECORD
  5
1B
330
1
100
AcDbSymbolTableRecord
100
AcDbBlockTableRecord
  2
*Paper_Space
340
1E
  0
BLOCK_RECORD
  5
23
330
1
100
AcDbSymbolTableRecord
100
AcDbBlockTableRecord
  2
*Paper_Space0
340
26
  0
ENDTAB
  0
ENDSEC
  0
SECTION
  2
BLOCKS
  0
BLOCK
  5
20
330
1F
100
AcDbEntity
  8
0
100
AcDbBlockBegin
  2
*Model_Space
 70
     0
 10
0.0
 20
0.0
 30
0.0
  3
*Model_Space
  1

  0
ENDBLK
  5
21
330
1F
100
AcDbEntity
  8
0
100
AcDbBlockEnd
  0
BLOCK
  5
1C
330
1B
100
AcDbEntity
 67
     1
  8
0
100
AcDbBlockBegin
  2
*Paper_Space
 70
     0
 10
0.0
 20
0.0
 30
0.0
  3
*Paper_Space
  1

  0
ENDBLK
  5
1D
330
1B
100
AcDbEntity
 67
     1
  8
0
100
AcDbBlockEnd
  0
BLOCK
  5
24
330
23
100
AcDbEntity
  8
0
100
AcDbBlockBegin
  2
*Paper_Space0
 70
     0
 10
0.0
 20
0.0
 30
0.0
  3
*Paper_Space0
  1

  0
ENDBLK
  5
25
330
23
100
AcDbEntity
  8
0
100
AcDbBlockEnd
  0
ENDSEC
  0
SECTION
  2
ENTITIES
  0
SPLINE
  5
E7
330
1F
100
AcDbEntity
  8
0
  6
Continuous
 62
     7
370
    25
100
AcDbSpline
210
0.0
220
0.0
230
1.0
 70
     8
 71
     3
 72
    23
 73
    19
 74
     0
 42
0.000000001
 43
0.00000001
 40
0.0
 40
0.0
 40
0.0
 40
0.0
 40
0.0760784703613052
 40
0.1489453607203449
 40
0.2207628653587942
 40
0.2924641603666824
 40
0.3636543029425937
 40
0.4332006712072102
 40
0.5034065052956336
 40
0.5751669304428689
 40
0.6135541988131138
 40
0.655670599101699
 40
0.7019865808287773
 40
0.752645206917058
 40
0.8078573846612837
 40
0.8671031123257693
 40
0.9313012508300499
 40
1.0
 40
1.0
 40
1.0
 40
1.0
 10
-13.42272172795768
 20
0.1428507834757817
 30
0.0
 10
-13.41132810616041
 20
0.1185579772760929
 30
0.0
 10
-13.38902183343377
 20
0.0709978625006729
 30
0.0
 10
-13.36805836033682
 20
-0.0042639007626152
 30
0.0
 10
-13.35858641663753
 20
-0.0801803107975343
 30
0.0
 10
-13.36138196728817
 20
-0.1560173944909588
 30
0.0
 10
-13.37381713226017
 20
-0.2300454769376729
 30
0.0
 10
-13.39748999529444
 20
-0.3007859936217029
 30
0.0
 10
-13.43142031110093
 20
-0.3673951795439064
 30
0.0
 10
-13.4684914091855
 20
-0.419296842685599
 30
0.0
 10
-13.50453445858668
 20
-0.4590802230367764
 30
0.0
 10
-13.53732671664473
 20
-0.4894735173382261
 30
0.0
 10
-13.57511552816654
 20
-0.5206703938521755
 30
0.0
 10
-13.61803314216799
 20
-0.5528262936016426
 30
0.0
 10
-13.66652893039121
 20
-0.5849618598618146
 30
0.0
 10
-13.72011447903936
 20
-0.6179562595919562
 30
0.0
 10
-13.77886942926349
 20
-0.6515692955393374
 30
0.0
 10
-13.82034972092516
 20
-0.6732601975642251
 30
0.0
 10
-13.84179224077819
 20
-0.6844729344729363
 30
0.0
  0
SPLINE
  5
E8
330
1F
100
AcDbEntity
  8
0
  6
Continuous
 62
     7
370
    25
100
AcDbSpline
210
0.0
220
0.0
230
1.0
 70
     8
 71
     3
 72
    19
 73
    15
 74
     0
 42
0.000000001
 43
0.00000001
 40
0.0
 40
0.0
 40
0.0
 40
0.0
 40
0.0973693174127607
 40
0.1898887169064878
 40
0.2789431561083107
 40
0.3643224625128198
 40
0.4460856053543597
 40
0.5228555148144701
 40
0.5958486132533658
 40
0.6658491884099432
 40
0.7376367017237081
 40
0.8172431611294785
 40
0.9039859434426141
 40
1.0
 40
1.0
 40
1.0
 40
1.0
 10
-13.48431676686047
 20
-4.290598290598288
 30
0.0
 10
-13.49784680214852
 20
-4.262883993100929
 30
0.0
 10
-13.52423294830643
 20
-4.208835833664532
 30
0.0
 10
-13.55557832309374
 20
-4.126137733217272
 30
0.0
 10
-13.57913165161732
 20
-4.044856227218184
 30
0.0
 10
-13.59390814859696
 20
-3.964965146023489
 30
0.0
 10
-13.60111827564529
 20
-3.887997197716989
 30
0.0
 10
-13.60157222794957
 20
-3.814553138960654
 30
0.0
 10
-13.59375152054695
 20
-3.745285777156049
 30
0.0
 10
-13.57944926078579
 20
-3.678637985608447
 30
0.0
 10
-13.55508773292009
 20
-3.612681467471325
 30
0.0
 10
-13.52105903219756
 20
-3.545286334605898
 30
0.0
 10
-13.47734926579547
 20
-3.474504781689139
 30
0.0
 10
-13.44251914258326
 20
-3.428269894741541
 30
0.0
 10
-13.42422061301431
 20
-3.403979700854698
 30
0.0
  0
SPLINE
  5
E9
330
1F
100
AcDbEntity
  8
0
  6
Continuous
 62
     7
370
    25
100
AcDbSpline
210
0.0
220
0.0
230
1.0
 70
     8
 71
     3
 72
    15
 73
    11
 74
     0
 42
0.000000001
 43
0.00000001
 40
0.0
 40
0.0
 40
0.0
 40
0.0
 40
0.1409981486032024
 40
0.2733846138982894
 40
0.400141548380714
 40
0.5218570883466226
 40
0.6411334416325855
 40
0.7590081067481278
 40
0.8782844600340898
 40
1.0
 40
1.0
 40
1.0
 40
1.0
 10
-13.94395570231666
 20
0.4946136039886024
 30
0.0
 10
-13.91376907516576
 20
0.4887928231572358
 30
0.0
 10
-13.85523951651341
 20
0.4775067748230266
 30
0.0
 10
-13.77185938826684
 20
0.451257074013867
 30
0.0
 10
-13.69583726166023
 20
0.4175627778319237
 30
0.0
 10
-13.62656820328307
 20
0.3768990002808741
 30
0.0
 10
-13.56445903538903
 20
0.3290054021611116
 30
0.0
 10
-13.50950650377053
 20
0.2738796632062553
 30
0.0
 10
-13.46116146140179
 20
0.2120228430291373
 30
0.0
 10
-13.43562114077309
 20
0.1660631960376039
 30
0.0
 10
-13.42272172795768
 20
0.1428507834757817
 30
0.0
  0
SPLINE
  5
EA
330
1F
100
AcDbEntity
  8
0
  6
Continuous
 62
     7
370
    25
100
AcDbSpline
210
0.0
220
0.0
230
1.0
 70
     8
 71
     3
 72
    15
 73
    11
 74
     0
 42
0.000000001
 43
0.00000001
 40
0.0
 40
0.0
 40
0.0
 40
0.0
 40
0.1384450600930154
 40
0.2653455463260714
 40
0.3847352416342207
 40
0.4993093951730507
 40
0.6151023325790019
 40
0.7339769544580144
 40
0.8614187973514216
 40
1.0
 40
1.0
 40
1.0
 40
1.0
 10
-13.68594288180384
 20
-0.3675658831908851
 30
0.0
 10
-13.66817982301418
 20
-0.3515266346113152
 30
0.0
 10
-13.63413492075623
 20
-0.3207856087188332
 30
0.0
 10
-13.59332832222207
 20
-0.2678947781432386
 30
0.0
 10
-13.56423942510095
 20
-0.2124398791453784
 30
0.0
 10
-13.54694976071127
 20
-0.15418746075193
 30
0.0
 10
-13.54141382555599
 20
-0.0937762639763099
 30
0.0
 10
-13.54741127644367
 20
-0.0312620332539476
 30
0.0
 10
-13.56488472033509
 20
0.0332436963952734
 30
0.0
 10
-13.58468347069069
 20
0.0747528023408486
 30
0.0
 10
-13.59499736898332
 20
0.0963764245014227
 30
0.0
  0
SPLINE
  5
EB
330
1F
100
AcDbEntity
  8
0
  6
Continuous
 62
     7
370
    25
100
AcDbSpline
210
0.0
220
0.0
230
1.0
 70
     8
 71
     3
 72
    15
 73
    11
 74
     0
 42
0.000000001
 43
0.00000001
 40
0.0
 40
0.0
 40
0.0
 40
0.0
 40
0.1349478387139512
 40
0.2639341609154259
 40
0.3878122636858447
 40
0.5086215125126234
 40
0.6284602315800067
 40
0.7487724976061296
 40
0.8722938394815476
 40
1.0
 40
1.0
 40
1.0
 40
1.0
 10
-10.60134322852452
 20
-6.005519943019941
 30
0.0
 10
-10.57086562403542
 20
-6.010971755788706
 30
0.0
 10
-10.51125680744225
 20
-6.021634539589503
 30
0.0
 10
-10.42640939468591
 20
-6.048959394191559
 30
0.0
 10
-10.34789625445616
 20
-6.083653998782216
 30
0.0
 10
-10.27645862725827
 20
-6.127433808656413
 30
0.0
 10
-10.21141088907578
 20
-6.178921389891027
 30
0.0
 10
-10.15332533463021
 20
-6.238978819053035
 30
0.0
 10
-10.10143871946397
 20
-6.306878476698006
 30
0.0
 10
-10.07348539773271
 20
-6.357295411881916
 30
0.0
 10
-10.05927592083221
 20
-6.382923789173787
 30
0.0
  0
SPLINE
  5
EC
330
1F
100
AcDbEntity
  8
0
  6
Continuous
 62
     7
370
    25
100
AcDbSpline
210
0.0
220
0.0
230
1.0
 70
     8
 71
     3
 72
    15
 73
    11
 74
     0
 42
0.000000001
 43
0.00000001
 40
0.0
 40
0.0
 40
0.0
 40
0.0
 40
0.1262327066044794
 40
0.250152516108323
 40
0.3742616173108975
 40
0.4991730678057479
 40
0.6243230917724172
 40
0.7483454108446101
 40
0.8732370774163246
 40
1.0
 40
1.0
 40
1.0
 40
1.0
 10
-12.46468535660406
 20
-4.398771367521365
 30
0.0
 10
-12.49238475893859
 20
-4.392488532932115
 30
0.0
 10
-12.54727604167397
 20
-4.380037980907448
 30
0.0
 10
-12.62607435813324
 20
-4.349748650932485
 30
0.0
 10
-12.7004255432918
 20
-4.310691163016944
 30
0.0
 10
-12.77015489592041
 20
-4.263357944143945
 30
0.0
 10
-12.83424508108559
 20
-4.208629427163361
 30
0.0
 10
-12.89140985485789
 20
-4.146765760090434
 30
0.0
 10
-12.94206760937803
 20
-4.078904528220851
 30
0.0
 10
-12.96963120709595
 20
-4.02945115026121
 30
0.0
 10
-12.98351548480919
 20
-4.004540598290595
 30
0.0
  0
SPLINE
  5
ED
330
1F
100
AcDbEntity
  8
0
  6
Continuous
 62
     7
370
    25
100
AcDbSpline
210
0.0
220
0.0
230
1.0
 70
     8
 71
     3
 72
    15
 73
    11
 74
     0
 42
0.000000001
 43
0.00000001
 40
0.0
 40
0.0
 40
0.0
 40
0.0
 40
0.1286958294354557
 40
0.2523370099260079
 40
0.3734469809608041
 40
0.4933121229318699
 40
0.6144499519904569
 40
0.7375989174894837
 40
0.8658206211016776
 40
0.9999999999999999
 40
0.9999999999999999
 40
0.9999999999999999
 40
0.9999999999999999
 10
-15.76900887574202
 20
4.695334757834747
 30
0.0
 10
-15.75616898058392
 20
4.668641412216838
 30
0.0
 10
-15.73099348914671
 20
4.61630312707044
 30
0.0
 10
-15.70546318665726
 20
4.534011887303226
 30
0.0
 10
-15.68998984385454
 20
4.451454218771241
 30
0.0
 10
-15.68502272700507
 20
4.368103219880715
 30
0.0
 10
-15.6912502749982
 20
4.284377652939104
 30
0.0
 10
-15.70798419481154
 20
4.200208472051187
 30
0.0
 10
-15.73525425552444
 20
4.115587015591118
 30
0.0
 10
-15.76103444941812
 20
4.06099228151055
 30
0.0
 10
-15.77421720907535
 20
4.033075142450131
 30
0.0
  0
SPLINE
  5
EE
330
1F
100
AcDbEntity
  8
0
  6
Continuous
 62
     7
370
    25
100
AcDbSpline
210
0.0
220
0.0
230
1.0
 70
     8
 71
     3
 72
    23
 73
    19
 74
     0
 42
0.000000001
 43
0.00000001
 40
0.0
 40
0.0
 40
0.0
 40
0.0
 40
0.06614535477075
 40
0.1300299925871702
 40
0.1927106076451859
 40
0.2544395193654498
 40
0.3159661023076016
 40
0.377860144840899
 40
0.4411007205949639
 40
0.5055545476205366
 40
0.5700648463024389
 40
0.6323356989391402
 40
0.693406849838553
 40
0.7536649314118744
 40
0.8138625524372199
 40
0.874360960022186
 40
0.9363004476939367
 40
1.0
 40
1.0
 40
1.0
 40
1.0
 10
-10.39421181826811
 20
-7.41176994301994
 30
0.0
 10
-10.41819739531266
 20
-7.423286243141069
 30
0.0
 10
-10.46534876998004
 20
-7.445925239100379
 30
0.0
 10
-10.53843259178649
 20
-7.47205645905879
 30
0.0
 10
-10.61191248631242
 20
-7.490845000924676
 30
0.0
 10
-10.68610484266133
 20
-7.500886519041788
 30
0.0
 10
-10.76054360741718
 20
-7.504977582099452
 30
0.0
 10
-10.83560135520838
 20
-7.500261084042539
 30
0.0
 10
-10.91095084513825
 20
-7.488129467218383
 30
0.0
 10
-10.98592132923118
 20
-7.468977766908558
 30
0.0
 10
-11.05848722278131
 20
-7.443251675411489
 30
0.0
 10
-11.12712716019086
 20
-7.41150012381419
 30
0.0
 10
-11.19081874611302
 20
-7.373868273432783
 30
0.0
 10
-11.24897681171633
 20
-7.329607618208973
 30
0.0
 10
-11.30324337010411
 20
-7.280950623027443
 30
0.0
 10
-11.35139106499268
 20
-7.225317734136063
 30
0.0
 10
-11.39504561223153
 20
-7.164349809047196
 30
0.0
 10
-11.41948247600974
 20
-7.120101479090581
 30
0.0
 10
-11.43187207467837
 20
-7.097667378917377
 30
0.0
  0
SPLINE
  5
EF
330
1F
100
AcDbEntity
  8
0
  6
Continuous
 62
     7
370
    25
100
AcDbSpline
210
0.0
220
0.0
230
1.0
 70
     8
 71
     3
 72
    15
 73
    11
 74
     0
 42
0.000000001
 43
0.00000001
 40
0.0
 40
0.0
 40
0.0
 40
0.0
 40
0.076400735554665
 40
0.1668575270477433
 40
0.2712620554129458
 40
0.3891784325743951
 40
0.5203320986781264
 40
0.6665864905729827
 40
0.8266059621810475
 40
1.0
 40
1.0
 40
1.0
 40
1.0
 10
-14.16951659975255
 20
0.3475783475783458
 30
0.0
 10
-14.17943815607667
 20
0.3450384929484255
 30
0.0
 10
-14.20110661699772
 20
0.3394915062665235
 30
0.0
 10
-14.23542420973865
 20
0.327424301076584
 30
0.0
 10
-14.27469226650673
 20
0.3127815169701266
 30
0.0
 10
-14.31824836124768
 20
0.2941365742986046
 30
0.0
 10
-14.36649838690707
 20
0.2722851060774825
 30
0.0
 10
-14.41969995477879
 20
0.2476783446505483
 30
0.0
 10
-14.47727139050571
 20
0.219093085545609
 30
0.0
 10
-14.51702931459384
 20
0.1987189379561875
 30
0.0
 10
-14.53770570231666
 20
0.1881232193732176
 30
0.0
  0
SPLINE
  5
F0
330
1F
100
AcDbEntity
  8
0
  6
Continuous
 62
     7
370
    25
100
AcDbSpline
210
0.0
220
0.0
230
1.0
 70
     8
 71
     3
 72
    15
 73
    11
 74
     0
 42
0.000000001
 43
0.00000001
 40
0.0
 40
0.0
 40
0.0
 40
0.0
 40
0.1190862397168933
 40
0.2377466257046119
 40
0.3576546624741809
 40
0.4782367523215874
 40
0.6029774385655504
 40
0.7306464822924594
 40
0.863088485874785
 40
1.0
 40
1.0
 40
1.0
 40
1.0
 10
-14.88332385780552
 20
2.354878917378909
 30
0.0
 10
-14.89255636974359
 20
2.335575402530385
 30
0.0
 10
-14.91098837805346
 20
2.297037402418989
 30
0.0
 10
-14.9456036206181
 20
2.242773412591804
 30
0.0
 10
-14.98487664141338
 20
2.191556354345366
 30
0.0
 10
-15.0289954326654
 20
2.142931000903207
 30
0.0
 10
-15.07823107308995
 20
2.097407503715137
 30
0.0
 10
-15.13272497548335
 20
2.054829933714101
 30
0.0
 10
-15.19194184791499
 20
2.014978070591177
 30
0.0
 10
-15.23435933922898
 20
1.991707349151946
 30
0.0
 10
-15.25592001165167
 20
1.979878917378909
 30
0.0
  0
SPLINE
  5
F1
330
1F
100
AcDbEntity
  8
0
  6
Continuous
 62
     7
370
    25
100
AcDbSpline
210
0.0
220
0.0
230
1.0
 70
     8
 71
     3
 72
    19
 73
    15
 74
     0
 42
0.000000001
 43
0.00000001
 40
0.0
 40
0.0
 40
0.0
 40
0.0
 40
0.0799735627818001
 40
0.1594654710340245
 40
0.2393730558214819
 40
0.3197577541668656
 40
0.3992247771294548
 40
0.4750469863451576
 40
0.5486117921755606
 40
0.6200302481381761
 40
0.6961063670325252
 40
0.7849731401035932
 40
0.8859006273543582
 40
0.9999999999999999
 40
0.9999999999999999
 40
0.9999999999999999
 40
0.9999999999999999
 10
-16.12891680652347
 20
2.393741096866088
 30
0.0
 10
-16.12005132850891
 20
2.377365494547396
 30
0.0
 10
-16.10237376634515
 20
2.344712914789996
 30
0.0
 10
-16.06958449813773
 20
2.299573104311571
 30
0.0
 10
-16.0341975917685
 20
2.256409938512853
 30
0.0
 10
-15.99457854079319
 20
2.217023157760634
 30
0.0
 10
-15.9525672113903
 20
2.181727726351941
 30
0.0
 10
-15.90904414637448
 20
2.150943530068753
 30
0.0
 10
-15.86446273547892
 20
2.12533518187664
 30
0.0
 10
-15.81783466280176
 20
2.103404689769395
 30
0.0
 10
-15.76526486196932
 20
2.086874134498409
 30
0.0
 10
-15.70484053178226
 20
2.073462210585874
 30
0.0
 10
-15.63475860052017
 20
2.063684412432163
 30
0.0
 10
-15.58487411434666
 20
2.059973194992811
 30
0.0
 10
-15.55840398601065
 20
2.058003917378909
 30
0.0
  0
SPLINE
  5
F2
330
1F
100
AcDbEntity
  8
0
  6
Continuous
 62
     7
370
    25
100
AcDbSpline
210
0.0
220
0.0
230
1.0
 70
     8
 71
     3
 72
    23
 73
    19
 74
     0
 42
0.000000001
 43
0.00000001
 40
0.0
 40
0.0
 40
0.0
 40
0.0
 40
0.0720617817518739
 40
0.1407552910079608
 40
0.2067175561562115
 40
0.2703402204513087
 40
0.3324053489424784
 40
0.3940521995361358
 40
0.4562015222262999
 40
0.5193498328033666
 40
0.582422192073245
 40
0.6435891621874849
 40
0.7035491672217103
 40
0.7624191411392722
 40
0.8212344999568059
 40
0.8800192892182235
 40
0.9395334141998642
 40
1.0
 40
1.0
 40
1.0
 40
1.0
 10
-16.27515078088245
 20
2.299991096866089
 30
0.0
 10
-16.28795518806507
 20
2.326207467218674
 30
0.0
 10
-16.3129655058141
 20
2.377414816640821
 30
0.0
 10
-16.34098775173963
 20
2.456417388481678
 30
0.0
 10
-16.36049145189551
 20
2.534358692169658
 30
0.0
 10
-16.37114559162667
 20
2.611347743577158
 30
0.0
 10
-16.37265939060309
 20
2.687283930485825
 30
0.0
 10
-16.36605445350196
 20
2.762369147455087
 30
0.0
 10
-16.3497978951132
 20
2.836455041029689
 30
0.0
 10
-16.32476066529926
 20
2.908594447549573
 30
0.0
 10
-16.29319778027156
 20
2.977633052716265
 30
0.0
 10
-16.25699947395082
 20
3.042854591659361
 30
0.0
 10
-16.21671877671686
 20
3.103660494736946
 30
0.0
 10
-16.17097779531514
 20
3.159254358774834
 30
0.0
 10
-16.12085989111942
 20
3.210245947828253
 30
0.0
 10
-16.0660521786859
 20
3.256555224426475
 30
0.0
 10
-16.00668009743736
 20
3.298127579150532
 30
0.0
 10
-15.96408523127796
 20
3.321476941800632
 30
0.0
 10
-15.9426187296004
 20
3.333244301994294
 30
0.0
  0
SPLINE
  5
F3
330
1F
100
AcDbEntity
  8
0
  6
Continuous
 62
     7
370
    25
100
AcDbSpline
210
0.0
220
0.0
230
1.0
 70
     8
 71
     3
 72
    15
 73
    11
 74
     0
 42
0.000000001
 43
0.00000001
 40
0.0
 40
0.0
 40
0.0
 40
0.0
 40
0.1286958294354557
 40
0.2523370099260079
 40
0.3734469809608041
 40
0.4933121229318699
 40
0.6144499519904582
 40
0.7375989174894837
 40
0.8658206211016776
 40
0.9999999999999999
 40
0.9999999999999999
 40
0.9999999999999999
 40
0.9999999999999999
 10
-16.63946953470415
 20
6.38434829059828
 30
0.0
 10
-16.62662963954606
 20
6.35765494498037
 30
0.0
 10
-16.60145414810885
 20
6.305316659833971
 30
0.0
 10
-16.5759238456194
 20
6.223025420066759
 30
0.0
 10
-16.56045050281667
 20
6.140467751534773
 30
0.0
 10
-16.55548338596721
 20
6.057116752644251
 30
0.0
 10
-16.56171093396032
 20
5.973391185702633
 30
0.0
 10
-16.57844485377368
 20
5.88922200481472
 30
0.0
 10
-16.60571491448657
 20
5.80460054835465
 30
0.0
 10
-16.63149510838026
 20
5.750005814274082
 30
0.0
 10
-16.64467786803748
 20
5.722088675213664
 30
0.0
  0
SPLINE
  5
F4
330
1F
100
AcDbEntity
  8
0
  6
Continuous
 62
     7
370
    25
100
AcDbSpline
210
0.0
220
0.0
230
1.0
 70
     8
 71
     3
 72
    23
 73
    19
 74
     0
 42
0.000000001
 43
0.00000001
 40
0.0
 40
0.0
 40
0.0
 40
0.0
 40
0.0649973185087953
 40
0.1282257706371351
 40
0.1899670805929779
 40
0.2511783581619993
 40
0.3121979881253032
 40
0.3739689604459664
 40
0.4371271391965192
 40
0.5019457182687774
 40
0.5667651537271339
 40
0.6298107321474496
 40
0.6912392706943591
 40
0.7519478973874734
 40
0.812535707130493
 40
0.8736889180786054
 40
0.9358174145882007
 40
1.0
 40
1.0
 40
1.0
 40
1.0
 10
-17.67192145778107
 20
6.706463675213664
 30
0.0
 10
-17.64849269015635
 20
6.717900257558803
 30
0.0
 10
-17.60227275597012
 20
6.740462181932068
 30
0.0
 10
-17.53018160852066
 20
6.76548589120457
 30
0.0
 10
-17.45764161285014
 20
6.783462543379805
 30
0.0
 10
-17.38443583102632
 20
6.79334045062133
 30
0.0
 10
-17.3106277706887
 20
6.796317629212301
 30
0.0
 10
-17.23612914278445
 20
6.791353593373006
 30
0.0
 10
-17.16098068456056
 20
6.778876689737189
 30
0.0
 10
-17.08627737670161
 20
6.758726757556149
 30
0.0
 10
-17.01344417691131
 20
6.732755479584246
 30
0.0
 10
-16.94473785280686
 20
6.700253564163271
 30
0.0
 10
-16.88104411663948
 20
6.661936704431355
 30
0.0
 10
-16.82210044033608
 20
6.618230939971716
 30
0.0
 10
-16.76865974861447
 20
6.568098071975045
 30
0.0
 10
-16.72000163736599
 20
6.512622441117135
 30
0.0
 10
-16.67620483596846
 20
6.451341312829251
 30
0.0
 10
-16.65184667376621
 20
6.406920092755951
 30
0.0
 10
-16.63946953470415
 20
6.38434829059828
 30
0.0
  0
SPLINE
  5
F5
330
1F
100
AcDbEntity
  8
0
  6
Continuous
 62
     7
370
    25
100
AcDbSpline
210
0.0
220
0.0
230
1.0
 70
     8
 71
     3
 72
    23
 73
    19
 74
     0
 42
0.000000001
 43
0.00000001
 40
0.0
 40
0.0
 40
0.0
 40
0.0
 40
0.0606576878285117
 40
0.1201917293879622
 40
0.1790241787605264
 40
0.237068942355138
 40
0.2949454625261239
 40
0.3533198699255191
 40
0.4123302762966946
 40
0.4728235212074363
 40
0.534170474236694
 40
0.5963914441318272
 40
0.6592645395912856
 40
0.72374316396855
 40
0.7894731979553155
 40
0.8574538618020663
 40
0.9274528976383438
 40
1.0
 40
1.0
 40
1.0
 40
1.0
 10
-12.78800266429637
 20
-4.719684829059827
 30
0.0
 10
-12.80561179936429
 20
-4.721414345844308
 30
0.0
 10
-12.84050387112977
 20
-4.724841341181157
 30
0.0
 10
-12.89280977566129
 20
-4.725375528345305
 30
0.0
 10
-12.94409215650526
 20
-4.720687368220172
 30
0.0
 10
-12.99448865606858
 20
-4.712615006082926
 30
0.0
 10
-13.04352740954832
 20
-4.698955385575667
 30
0.0
 10
-13.09176533721458
 20
-4.681913974922256
 30
0.0
 10
-13.13887069300051
 20
-4.660006966783603
 30
0.0
 10
-13.18480764231805
 20
-4.634004317940679
 30
0.0
 10
-13.22938971187516
 20
-4.603985310518136
 30
0.0
 10
-13.27166973384437
 20
-4.569728175745563
 30
0.0
 10
-13.3125398705065
 20
-4.532423661926893
 30
0.0
 10
-13.35072511861818
 20
-4.4909777373499
 30
0.0
 10
-13.38758904396744
 20
-4.446402282755255
 30
0.0
 10
-13.42163365273779
 20
-4.397679911770934
 30
0.0
 10
-13.45505221201332
 20
-4.346116624615545
 30
0.0
 10
-13.47444635600729
 20
-4.309323631526809
 30
0.0
 10
-13.48431676686047
 20
-4.290598290598288
 30
0.0
  0
SPLINE
  5
F6
330
1F
100
AcDbEntity
  8
0
  6
Continuous
 62
     7
370
    25
100
AcDbSpline
210
0.0
220
0.0
230
1.0
 70
     8
 71
     3
 72
    31
 73
    27
 74
     0
 42
0.000000001
 43
0.00000001
 40
0.0
 40
0.0
 40
0.0
 40
0.0
 40
0.0422805736310082
 40
0.0842317057448357
 40
0.1254643324144884
 40
0.167006411709741
 40
0.2078984083530476
 40
0.2493917801388909
 40
0.2910203098454844
 40
0.3332583476773638
 40
0.3756238647865267
 40
0.4172901601447381
 40
0.4587035818575986
 40
0.5001861219858043
 40
0.5418524173440155
 40
0.5835766433970984
 40
0.6258519023937286
 40
0.6685620803673052
 40
0.7112354165292423
 40
0.7534801034029313
 40
0.7947875908953326
 40
0.8357907054356902
 40
0.8769087361770117
 40
0.9178679883104399
 40
0.9585892911640037
 40
0.9999999999999999
 40
0.9999999999999999
 40
0.9999999999999999
 40
0.9999999999999999
 10
-12.66620779250149
 20
-2.991319444444442
 30
0.0
 10
-12.65106276365795
 20
-2.983936788923184
 30
0.0
 10
-12.62089071291476
 20
-2.96922900201118
 30
0.0
 10
-12.57454207762375
 20
-2.950356333075064
 30
0.0
 10
-12.52719113736159
 20
-2.935169952601199
 30
0.0
 10
-12.47950013088528
 20
-2.922657671685391
 30
0.0
 10
-12.43087390482809
 20
-2.913780754668966
 30
0.0
 10
-12.3817349758591
 20
-2.908395863472417
 30
0.0
 10
-12.33184562421358
 20
-2.905286640752948
 30
0.0
 10
-12.28151747411538
 20
-2.906316980705823
 30
0.0
 10
-12.23131862762262
 20
-2.910151490675627
 30
0.0
 10
-12.1818645346085
 20
-2.917589840270347
 30
0.0
 10
-12.13316356686705
 20
-2.927344111108445
 30
0.0
 10
-12.08545381269649
 20
-2.941189141584332
 30
0.0
 10
-12.03855876329605
 20
-2.957912107431746
 30
0.0
 10
-11.99271466988435
 20
-2.978136785967601
 30
0.0
 10
-11.94780530511337
 20
-3.001285736481925
 30
0.0
 10
-11.90437839913209
 20
-3.027824409435797
 30
0.0
 10
-11.86229608270787
 20
-3.056425789374628
 30
0.0
 10
-11.82283737669981
 20
-3.087671949233428
 30
0.0
 10
-11.7857320362383
 20
-3.120665946533475
 30
0.0
 10
-11.75109446163105
 20
-3.155627401893031
 30
0.0
 10
-11.71906529596824
 20
-3.192823154528257
 30
0.0
 10
-11.68990581319998
 20
-3.232147721000124
 30
0.0
 10
-11.6630557024846
 20
-3.273252559624919
 30
0.0
 10
-11.64757221286876
 20
-3.302096786423485
 30
0.0
 10
-11.63976548480919
 20
-3.316639957264954
 30
0.0
  0
SPLINE
  5
F7
330
1F
100
AcDbEntity
  8
0
  6
Continuous
 62
     7
370
    25
100
AcDbSpline
210
0.0
220
0.0
230
1.0
 70
     8
 71
     3
 72
    31
 73
    27
 74
     0
 42
0.000000001
 43
0.00000001
 40
0.0
 40
0.0
 40
0.0
 40
0.0
 40
0.0424403566645981
 40
0.0847275597071294
 40
0.1265203502664305
 40
0.168107932033027
 40
0.2098457320546173
 40
0.2518358922622473
 40
0.2942613644575361
 40
0.3372995493731956
 40
0.3801063121571233
 40
0.4224749046437437
 40
0.463944966121866
 40
0.5050492778908111
 40
0.545878885098707
 40
0.5864149330791912
 40
0.6274857062730799
 40
0.6686904699753878
 40
0.7100551717635758
 40
0.7508059518275597
 40
0.7915863099264184
 40
0.8328119703067844
 40
0.8736851485979555
 40
0.9151676691604751
 40
0.9573760465591359
 40
1.0
 40
1.0
 40
1.0
 40
1.0
 10
-12.98351548480919
 20
-4.004540598290595
 30
0.0
 10
-12.99096402040856
 20
-3.989555220605966
 30
0.0
 10
-13.00583421223362
 20
-3.959638542653837
 30
0.0
 10
-13.02380781674359
 20
-3.913082658888474
 30
0.0
 10
-13.03989670408874
 20
-3.866208770933256
 30
0.0
 10
-13.05162442401135
 20
-3.818265055686681
 30
0.0
 10
-13.06103700865694
 20
-3.769762133316973
 30
0.0
 10
-13.06699888355832
 20
-3.720359795729034
 30
0.0
 10
-13.06978727215674
 20
-3.670178781335203
 30
0.0
 10
-13.06941912606584
 20
-3.619590773187753
 30
0.0
 10
-13.0656853023876
 20
-3.569174160477094
 30
0.0
 10
-13.05948767692023
 20
-3.519621074539823
 30
0.0
 10
-13.04982716578066
 20
-3.471287386423602
 30
0.0
 10
-13.03685924704351
 20
-3.424387442110076
 30
0.0
 10
-13.02143401843645
 20
-3.378610708956077
 30
0.0
 10
-13.00229635477935
 20
-3.334270763397008
 30
0.0
 10
-12.98044705703404
 20
-3.291041607158876
 30
0.0
 10
-12.95506605129126
 20
-3.249395105693648
 30
0.0
 10
-12.9271745591816
 20
-3.209559199684161
 30
0.0
 10
-12.89695352433432
 20
-3.171676477499497
 30
0.0
 10
-12.86444982954848
 20
-3.13578302912445
 30
0.0
 10
-12.82922777394292
 20
-3.102509353663733
 30
0.0
 10
-12.79226014302776
 20
-3.070739409154498
 30
0.0
 10
-12.7523375569036
 20
-3.042103930041041
 30
0.0
 10
-12.71047418679214
 20
-3.015097575815399
 30
0.0
 10
-12.68101136801675
 20
-2.999271331400732
 30
0.0
 10
-12.66620779250149
 20
-2.991319444444442
 30
0.0
  0
SPLINE
  5
F8
330
1F
100
AcDbEntity
  8
0
  6
Continuous
 62
     7
370
    25
100
AcDbSpline
210
0.0
220
0.0
230
1.0
 70
     8
 71
     3
 72
    23
 73
    19
 74
     0
 42
0.000000001
 43
0.00000001
 40
0.0
 40
0.0
 40
0.0
 40
0.0
 40
0.0630932863740183
 40
0.1245793960412309
 40
0.1853724220276405
 40
0.2467205413739073
 40
0.307513567360315
 40
0.36899967702753
 40
0.4320929634015483
 40
0.4969634066647377
 40
0.5618556203600429
 40
0.6250355983458817
 40
0.687623141279005
 40
0.7499817614980646
 40
0.811854319011955
 40
0.8736812014748587
 40
0.9364827773069178
 40
1.0
 40
1.0
 40
1.0
 40
1.0
 10
-13.59499736898332
 20
0.0963764245014227
 30
0.0
 10
-13.60185384388018
 20
0.1087984656598552
 30
0.0
 10
-13.6153921385342
 20
0.1333261210421258
 30
0.0
 10
-13.63939218366749
 20
0.1674609410943405
 30
0.0
 10
-13.66546626099144
 20
0.1995004473573942
 30
0.0
 10
-13.69460620155947
 20
0.2286194423331721
 30
0.0
 10
-13.72661572091378
 20
0.2547470618268586
 30
0.0
 10
-13.76085138098357
 20
0.2785503640032483
 30
0.0
 10
-13.79776411545019
 20
0.2998982484355344
 30
0.0
 10
-13.83722437231595
 20
0.3179275762403375
 30
0.0
 10
-13.87768565916341
 20
0.3336133272967921
 30
0.0
 10
-13.91886185462691
 20
0.3456501854599583
 30
0.0
 10
-13.96023865550465
 20
0.3544858636100282
 30
0.0
 10
-14.00188195548681
 20
0.3602329375358062
 30
0.0
 10
-14.04370252788916
 20
0.3620910927744496
 30
0.0
 10
-14.0856378707205
 20
0.3609961579727263
 30
0.0
 10
-14.12771775321541
 20
0.3561925323993282
 30
0.0
 10
-14.15553112625402
 20
0.3504605671491233
 30
0.0
 10
-14.16951659975255
 20
0.3475783475783458
 30
0.0
  0
SPLINE
  5
F9
330
1F
100
AcDbEntity
  8
0
  6
Continuous
 62
     7
370
    25
100
AcDbSpline
210
0.0
220
0.0
230
1.0
 70
     8
 71
     3
 72
    27
 73
    23
 74
     0
 42
0.000000001
 43
0.00000001
 40
0.0
 40
0.0
 40
0.0
 40
0.0
 40
0.0492106285284598
 40
0.096537849160062
 40
0.1418864551113966
 40
0.1862136169348517
 40
0.228839855654058
 40
0.2702116236528418
 40
0.3105380766961777
 40
0.350290450759663
 40
0.4256515609915124
 40
0.4959376624045002
 40
0.5623610438649426
 40
0.6265258659993275
 40
0.6601772526524308
 40
0.6970885769135927
 40
0.7375514267629595
 40
0.7817872143261496
 40
0.830214880517223
 40
0.8826900696241224
 40
0.9393188468939825
 40
1.0
 40
1.0
 40
1.0
 40
1.0
 10
-13.33487766429636
 20
-4.202857905982904
 30
0.0
 10
-13.32742651326303
 20
-4.216839031938783
 30
0.0
 10
-13.31280938448345
 20
-4.244266192878944
 30
0.0
 10
-13.28859346472997
 20
-4.28301212944525
 30
0.0
 10
-13.26377624767555
 20
-4.319485266703619
 30
0.0
 10
-13.23733965262812
 20
-4.352902577300426
 30
0.0
 10
-13.21011240252118
 20
-4.383987059062606
 30
0.0
 10
-13.18161198118197
 20
-4.41212945741647
 30
0.0
 10
-13.15179451596551
 20
-4.437455811428016
 30
0.0
 10
-13.11156949215915
 20
-4.467247556169581
 30
0.0
 10
-13.0602195703588
 20
-4.498009751087454
 30
0.0
 10
-12.99724465150369
 20
-4.524915622367252
 30
0.0
 10
-12.9344654785833
 20
-4.541316035578945
 30
0.0
 10
-12.88155948321385
 20
-4.546444769996197
 30
0.0
 10
-12.8381804574491
 20
-4.544276887366794
 30
0.0
 10
-12.8028108830974
 20
-4.538851950866228
 30
0.0
 10
-12.76466341538346
 20
-4.529937362499225
 30
0.0
 10
-12.72373309829867
 20
-4.517196836923135
 30
0.0
 10
-12.67966013628498
 20
-4.501678500145572
 30
0.0
 10
-12.63278836811452
 20
-4.482292407890221
 30
0.0
 10
-12.5831606413829
 20
-4.459392252791331
 30
0.0
 10
-12.54943722899127
 20
-4.442411042780369
 30
0.0
 10
-12.53199304891175
 20
-4.433627136752134
 30
0.0
  0
SPLINE
  5
FA
330
1F
100
AcDbEntity
  8
0
  6
Continuous
 62
     7
370
    25
100
AcDbSpline
210
0.0
220
0.0
230
1.0
 70
     8
 71
     3
 72
    15
 73
    11
 74
     0
 42
0.000000001
 43
0.00000001
 40
0.0
 40
0.0
 40
0.0
 40
0.0
 40
0.1264475345013415
 40
0.2494753397726285
 40
0.3700919949962927
 40
0.4905232794653064
 40
0.6124665700179119
 40
0.7369052843198745
 40
0.865539080455781
 40
1.0
 40
1.0
 40
1.0
 40
1.0
 10
-11.43187207467837
 20
-7.097667378917377
 30
0.0
 10
-11.44424733228147
 20
-7.071749442908811
 30
0.0
 10
-11.46866316298536
 20
-7.020614512382553
 30
0.0
 10
-11.49408890196574
 20
-6.940299828270258
 30
0.0
 10
-11.51039809850864
 20
-6.85916684301958
 30
0.0
 10
-11.51696816930559
 20
-6.776830866354651
 30
0.0
 10
-11.51296962290988
 20
-6.69350981802327
 30
0.0
 10
-11.5002001181022
 20
-6.609227898975611
 30
0.0
 10
-11.47709983355244
 20
-6.524141597786122
 30
0.0
 10
-11.45512306480416
 20
-6.468600882231014
 30
0.0
 10
-11.4438913054476
 20
-6.440215455840453
 30
0.0
  0
SPLINE
  5
FB
330
1F
100
AcDbEntity
  8
0
  6
Continuous
 62
     7
370
    25
100
AcDbSpline
210
0.0
220
0.0
230
1.0
 70
     8
 71
     3
 72
    15
 73
    11
 74
     0
 42
0.000000001
 43
0.00000001
 40
0.0
 40
0.0
 40
0.0
 40
0.0
 40
0.1282224620661069
 40
0.2537806110158703
 40
0.3775157580559325
 40
0.5010379646009088
 40
0.6230432851068957
 40
0.7466327756549797
 40
0.8719700269161603
 40
1.0
 40
1.0
 40
1.0
 40
1.0
 10
-15.94261872960039
 20
3.333244301994293
 30
0.0
 10
-15.92194308142273
 20
3.343351446071573
 30
0.0
 10
-15.88102140090647
 20
3.363355719568015
 30
0.0
 10
-15.81739102098987
 20
3.386851219902383
 30
0.0
 10
-15.75298288469354
 20
3.405127027958171
 30
0.0
 10
-15.68780970805575
 20
3.417386250880799
 30
0.0
 10
-15.62188062654957
 20
3.424538471090312
 30
0.0
 10
-15.55527440578105
 20
3.424876023689707
 30
0.0
 10
-15.48765552823011
 20
3.421013259763657
 30
0.0
 10
-15.44283251999495
 20
3.413275894741719
 30
0.0
 10
-15.4201828321645
 20
3.409366096866088
 30
0.0
  0
SPLINE
  5
FC
330
1F
100
AcDbEntity
  8
0
  6
Continuous
 62
     7
370
    25
100
AcDbSpline
210
0.0
220
0.0
230
1.0
 70
     8
 71
     3
 72
    15
 73
    11
 74
     0
 42
0.000000001
 43
0.00000001
 40
0.0
 40
0.0
 40
0.0
 40
0.0
 40
0.1291868411934209
 40
0.2532441789874019
 40
0.3748856276537691
 40
0.4955877460568062
 40
0.6159963976719479
 40
0.7395312406042502
 40
0.8671217724946082
 40
0.9999999999999999
 40
0.9999999999999999
 40
0.9999999999999999
 40
0.9999999999999999
 10
-15.4201828321645
 20
3.409366096866088
 30
0.0
 10
-15.39195411795706
 20
3.403217556271563
 30
0.0
 10
-15.33661754120285
 20
3.391164609543808
 30
0.0
 10
-15.25783839082418
 20
3.362018685661124
 30
0.0
 10
-15.18430806258458
 20
3.325676800839131
 30
0.0
 10
-15.11677982792134
 20
3.280463661135362
 30
0.0
 10
-15.05477490445066
 20
3.227354526431864
 30
0.0
 10
-14.99843945652642
 20
3.166140272693145
 30
0.0
 10
-14.9481538082392
 20
3.096349461668708
 30
0.0
 10
-14.919815772784
 20
3.045488907950839
 30
0.0
 10
-14.90535911421578
 20
3.01954237891737
 30
0.0
  0
SPLINE
  5
FD
330
1F
100
AcDbEntity
  8
0
  6
Continuous
 62
     7
370
    25
100
AcDbSpline
210
0.0
220
0.0
230
1.0
 70
     8
 71
     3
 72
    19
 73
    15
 74
     0
 42
0.000000001
 43
0.00000001
 40
0.0
 40
0.0
 40
0.0
 40
0.0
 40
0.0952074100440814
 40
0.1854062273222774
 40
0.2704088342453355
 40
0.3517822335458
 40
0.4303366179729735
 40
0.5077346527822618
 40
0.5852664785899545
 40
0.6629825577350628
 40
0.7425007552443884
 40
0.8243465803965984
 40
0.9100969682875085
 40
1.0
 40
1.0
 40
1.0
 40
1.0
 10
-15.55960590908757
 20
1.877715455840447
 30
0.0
 10
-15.58753539729002
 20
1.878247041456419
 30
0.0
 10
-15.6419250822553
 20
1.879282247471482
 30
0.0
 10
-15.72094924856061
 20
1.887483080075185
 30
0.0
 10
-15.79481656542391
 20
1.902407020181751
 30
0.0
 10
-15.86376397106641
 20
1.923077490767244
 30
0.0
 10
-15.92790860910115
 20
1.95041478960335
 30
0.0
 10
-15.9885004077764
 20
1.982534221702186
 30
0.0
 10
-16.04541783166653
 20
2.020367897842593
 30
0.0
 10
-16.09927326678654
 20
2.063439410773762
 30
0.0
 10
-16.14918636692625
 20
2.112933541868491
 30
0.0
 10
-16.19476384753695
 20
2.169392600517841
 30
0.0
 10
-16.23823868378544
 20
2.231322910896485
 30
0.0
 10
-16.2626543439876
 20
2.276743768208571
 30
0.0
 10
-16.27515078088244
 20
2.299991096866088
 30
0.0
  0
SPLINE
  5
FE
330
1F
100
AcDbEntity
  8
0
  6
Continuous
 62
     7
370
    25
100
AcDbSpline
210
0.0
220
0.0
230
1.0
 70
     8
 71
     3
 72
    23
 73
    19
 74
     0
 42
0.000000001
 43
0.00000001
 40
0.0
 40
0.0
 40
0.0
 40
0.0
 40
0.0699026323600512
 40
0.1372726988403769
 40
0.2023551143839912
 40
0.2659852821592998
 40
0.3281101122202689
 40
0.3902588932543277
 40
0.4522158072567008
 40
0.514999910513492
 40
0.5771678456822882
 40
0.6378088739263003
 40
0.6972568906751416
 40
0.7560723476936896
 40
0.8154167993005652
 40
0.8753832678709893
 40
0.9368110726352524
 40
1.0
 40
1.0
 40
1.0
 40
1.0
 10
-15.86289116549783
 20
3.155359686609678
 30
0.0
 10
-15.8811236512696
 20
3.145002087413417
 30
0.0
 10
-15.91692806154659
 20
3.12466214387804
 30
0.0
 10
-15.96623479509986
 20
3.089116382768867
 30
0.0
 10
-16.01094795960319
 20
3.05088124407151
 30
0.0
 10
-16.05126735573027
 20
3.010149070532732
 30
0.0
 10
-16.08633534035165
 20
2.965945643009047
 30
0.0
 10
-16.11699365909571
 20
2.919164942323567
 30
0.0
 10
-16.14218216861384
 20
2.869000529322859
 30
0.0
 10
-16.16291507336505
 20
2.816880026249807
 30
0.0
 10
-16.17871664523476
 20
2.76341550962245
 30
0.0
 10
-16.18814376634123
 20
2.709497975924949
 30
0.0
 10
-16.19275231742723
 20
2.655991126731043
 30
0.0
 10
-16.19167427514688
 20
2.602624734892664
 30
0.0
 10
-16.18413172170046
 20
2.549662498989599
 30
0.0
 10
-16.17186128123005
 20
2.496803141425771
 30
0.0
 10
-16.15324580751684
 20
2.444542940621182
 30
0.0
 10
-16.13710252084524
 20
2.410833840629449
 30
0.0
 10
-16.12891680652347
 20
2.393741096866088
 30
0.0
  0
SPLINE
  5
FF
330
1F
100
AcDbEntity
  8
0
  6
Continuous
 62
     7
370
    25
100
AcDbSpline
210
0.0
220
0.0
230
1.0
 70
     8
 71
     3
 72
    15
 73
    11
 74
     0
 42
0.000000001
 43
0.00000001
 40
0.0
 40
0.0
 40
0.0
 40
0.0
 40
0.1787736683052522
 40
0.3418403429104279
 40
0.4902838901450545
 40
0.622548978568008
 40
0.7396917342688795
 40
0.8414209271453165
 40
0.928201214703388
 40
1.0
 40
1.0
 40
1.0
 40
1.0
 10
-13.9776095484705
 20
-0.5426460113960133
 30
0.0
 10
-13.95954378410232
 20
-0.5333678633354959
 30
0.0
 10
-13.92499950727954
 20
-0.5156267421477522
 30
0.0
 10
-13.87603523995833
 20
-0.4890780860158143
 30
0.0
 10
-13.83207948455756
 20
-0.4643854242191478
 30
0.0
 10
-13.79316549311743
 20
-0.441406093222227
 30
0.0
 10
-13.7589495079843
 20
-0.4208741186272786
 30
0.0
 10
-13.73018982314567
 20
-0.4014240403154931
 30
0.0
 10
-13.70583055330143
 20
-0.3846018228647137
 30
0.0
 10
-13.69214100634308
 20
-0.3728752466200909
 30
0.0
 10
-13.68594288180384
 20
-0.3675658831908851
 30
0.0
  0
SPLINE
  5
100
330
1F
100
AcDbEntity
  8
0
  6
Continuous
 62
     7
370
    25
100
AcDbSpline
210
0.0
220
0.0
230
1.0
 70
     8
 71
     3
 72
    15
 73
    11
 74
     0
 42
0.000000001
 43
0.00000001
 40
0.0
 40
0.0
 40
0.0
 40
0.0
 40
0.134206430750388
 40
0.2628327066597936
 40
0.387082131050705
 40
0.5089470299097755
 40
0.629878334815728
 40
0.7503723460723406
 40
0.8733700836397549
 40
0.9999999999999999
 40
0.9999999999999999
 40
0.9999999999999999
 40
0.9999999999999999
 10
-16.61676528599843
 20
3.598379629629619
 30
0.0
 10
-16.64646645885382
 20
3.605485037565305
 30
0.0
 10
-16.70463386267276
 20
3.619400418439504
 30
0.0
 10
-16.78712521763859
 20
3.650744631532018
 30
0.0
 10
-16.86343754159427
 20
3.688919892499037
 30
0.0
 10
-16.93371458155167
 20
3.734294234959639
 30
0.0
 10
-16.99720092291407
 20
3.787459156659595
 30
0.0
 10
-17.05423747471318
 20
3.847774282579829
 30
0.0
 10
-17.10482345814897
 20
3.915362307704562
 30
0.0
 10
-17.13241580753285
 20
3.965017636301765
 30
0.0
 10
-17.14641272189586
 20
3.990206552706542
 30
0.0
  0
SPLINE
  5
101
330
1F
100
AcDbEntity
  8
0
  6
Continuous
 62
     7
370
    25
100
AcDbSpline
210
0.0
220
0.0
230
1.0
 70
     8
 71
     3
 72
    19
 73
    15
 74
     0
 42
0.000000001
 43
0.00000001
 40
0.0
 40
0.0
 40
0.0
 40
0.0
 40
0.1259189166601803
 40
0.2454849398515788
 40
0.3621657049882994
 40
0.4773040910944698
 40
0.53592416047145
 40
0.5953913892451898
 40
0.6573428952232064
 40
0.7207688489038206
 40
0.7865181294557273
 40
0.8548072500535333
 40
0.9260727681549747
 40
1.0
 40
1.0
 40
1.0
 40
1.0
 10
-13.33006997198867
 20
-3.586672008547006
 30
0.0
 10
-13.34409085986923
 20
-3.610096348158054
 30
0.0
 10
-13.37142525020005
 20
-3.655763216592121
 30
0.0
 10
-13.40054543436105
 20
-3.728973498242227
 30
0.0
 10
-13.41836291245367
 20
-3.803167799506231
 30
0.0
 10
-13.42402657185345
 20
-3.866105572100329
 30
0.0
 10
-13.42212445460863
 20
-3.916601424537661
 30
0.0
 10
-13.41870971765532
 20
-3.955467706181749
 30
0.0
 10
-13.41173964117642
 20
-3.994925331356209
 30
0.0
 10
-13.40206558032862
 20
-4.03518688367296
 30
0.0
 10
-13.3895442251397
 20
-4.076093671366158
 30
0.0
 10
-13.37435866268368
 20
-4.117902273467071
 30
0.0
 10
-13.35576790958321
 20
-4.160255536599245
 30
0.0
 10
-13.34192566600754
 20
-4.188484615090747
 30
0.0
 10
-13.33487766429636
 20
-4.202857905982904
 30
0.0
  0
SPLINE
  5
102
330
1F
100
AcDbEntity
  8
0
  6
Continuous
 62
     7
370
    25
100
AcDbSpline
210
0.0
220
0.0
230
1.0
 70
     8
 71
     3
 72
    15
 73
    11
 74
     0
 42
0.000000001
 43
0.00000001
 40
0.0
 40
0.0
 40
0.0
 40
0.0
 40
0.1327739259635065
 40
0.2602031101552705
 40
0.3837705345828611
 40
0.5050466698807943
 40
0.6252743952698062
 40
0.746807405630481
 40
0.8714735909586131
 40
1.0
 40
1.0
 40
1.0
 40
1.0
 10
-14.90535911421578
 20
3.01954237891737
 30
0.0
 10
-14.8920514560475
 20
2.992026240421455
 30
0.0
 10
-14.86597183221216
 20
2.938101610535404
 30
0.0
 10
-14.83805496009062
 20
2.854122666630526
 30
0.0
 10
-14.8194868112404
 20
2.77034708377188
 30
0.0
 10
-14.8121194409929
 20
2.686499823562149
 30
0.0
 10
-14.8138183984575
 20
2.602821845721035
 30
0.0
 10
-14.82658459036663
 20
2.519304124635829
 30
0.0
 10
-14.84938365831764
 20
2.43592747563511
 30
0.0
 10
-14.8718960485444
 20
2.382168311036467
 30
0.0
 10
-14.88332385780552
 20
2.354878917378909
 30
0.0
  0
SPLINE
  5
103
330
1F
100
AcDbEntity
  8
0
  6
Continuous
 62
     7
370
    25
100
AcDbSpline
210
0.0
220
0.0
230
1.0
 70
     8
 71
     3
 72
    23
 73
    19
 74
     0
 42
0.000000001
 43
0.00000001
 40
0.0
 40
0.0
 40
0.0
 40
0.0
 40
0.0636262173518121
 40
0.1255120282223322
 40
0.1862737679351053
 40
0.2462327156004298
 40
0.3067140514340748
 40
0.3676906786303055
 40
0.4298567728903255
 40
0.4944318009899857
 40
0.5592167353887111
 40
0.6219176377215362
 40
0.6840411037976234
 40
0.7455826125638686
 40
0.8071492264077268
 40
0.8698157911355098
 40
0.9337776779140116
 40
1.0
 40
1.0
 40
1.0
 40
1.0
 10
-17.14641272189586
 20
3.990206552706542
 30
0.0
 10
-17.15757984314236
 20
4.013236718570683
 30
0.0
 10
-17.17960862460051
 20
4.058667092215592
 30
0.0
 10
-17.20392730954472
 20
4.129677421620021
 30
0.0
 10
-17.22091970582477
 20
4.201190138153509
 30
0.0
 10
-17.23029002782942
 20
4.27357769239186
 30
0.0
 10
-17.23165954740942
 20
4.346602656528125
 30
0.0
 10
-17.22628743255817
 20
4.420352262020359
 30
0.0
 10
-17.21219191322011
 20
4.494621983247267
 30
0.0
 10
-17.1911761111851
 20
4.568782823355969
 30
0.0
 10
-17.16344908129237
 20
4.640946283581558
 30
0.0
 10
-17.12968023524672
 20
4.709417776214898
 30
0.0
 10
-17.08942670628653
 20
4.772754964261924
 30
0.0
 10
-17.04359414662236
 20
4.83158208694491
 30
0.0
 10
-16.99186841198188
 20
4.885613790345494
 30
0.0
 10
-16.93447237914958
 20
4.93506609875235
 30
0.0
 10
-16.8707162059802
 20
4.979463933765431
 30
0.0
 10
-16.82481162048986
 20
5.004642345610738
 30
0.0
 10
-16.80146079881894
 20
5.017450142450131
 30
0.0
  0
SPLINE
  5
104
330
1F
100
AcDbEntity
  8
0
  6
Continuous
 62
     7
370
    25
100
AcDbSpline
210
0.0
220
0.0
230
1.0
 70
     8
 71
     3
 72
    23
 73
    19
 74
     0
 42
0.000000001
 43
0.00000001
 40
0.0
 40
0.0
 40
0.0
 40
0.0
 40
0.0649973185087955
 40
0.1282257706371351
 40
0.189967080592978
 40
0.2511783581619994
 40
0.3121979881253033
 40
0.3739689604459666
 40
0.437127139196519
 40
0.5019457182687774
 40
0.5667651537271338
 40
0.6298107321474495
 40
0.691239270694359
 40
0.7519478973874728
 40
0.8125357071304925
 40
0.8736889180786054
 40
0.9358174145882008
 40
1.0
 40
1.0
 40
1.0
 40
1.0
 10
-16.80146079881894
 20
5.017450142450131
 30
0.0
 10
-16.77803203119421
 20
5.028886724795271
 30
0.0
 10
-16.73181209700798
 20
5.051448649168535
 30
0.0
 10
-16.65972094955853
 20
5.076472358441039
 30
0.0
 10
-16.587180953888
 20
5.094449010616271
 30
0.0
 10
-16.51397517206419
 20
5.104326917857801
 30
0.0
 10
-16.44016711172657
 20
5.107304096448768
 30
0.0
 10
-16.36566848382232
 20
5.102340060609476
 30
0.0
 10
-16.29052002559843
 20
5.089863156973657
 30
0.0
 10
-16.21581671773948
 20
5.069713224792615
 30
0.0
 10
-16.14298351794918
 20
5.043741946820713
 30
0.0
 10
-16.07427719384473
 20
5.011240031399736
 30
0.0
 10
-16.01058345767735
 20
4.97292317166782
 30
0.0
 10
-15.95163978137394
 20
4.929217407208187
 30
0.0
 10
-15.89819908965232
 20
4.879084539211509
 30
0.0
 10
-15.84954097840386
 20
4.823608908353603
 30
0.0
 10
-15.80574417700632
 20
4.762327780065718
 30
0.0
 10
-15.78138601480408
 20
4.717906559992418
 30
0.0
 10
-15.76900887574202
 20
4.695334757834747
 30
0.0
  0
SPLINE
  5
105
330
1F
100
AcDbEntity
  8
0
  6
Continuous
 62
     7
370
    25
100
AcDbSpline
210
0.0
220
0.0
230
1.0
 70
     8
 71
     3
 72
    15
 73
    11
 74
     0
 42
0.000000001
 43
0.00000001
 40
0.0
 40
0.0
 40
0.0
 40
0.0
 40
0.1342064307503882
 40
0.2628327066597939
 40
0.3870821310507048
 40
0.5089470299097753
 40
0.6298783348157277
 40
0.7503723460723403
 40
0.873370083639755
 40
0.9999999999999999
 40
0.9999999999999999
 40
0.9999999999999999
 40
0.9999999999999999
 10
-17.48722594496056
 20
5.28739316239315
 30
0.0
 10
-17.51692711781596
 20
5.294498570328837
 30
0.0
 10
-17.5750945216349
 20
5.308413951203036
 30
0.0
 10
-17.65758587660072
 20
5.33975816429555
 30
0.0
 10
-17.73389820055641
 20
5.377933425262571
 30
0.0
 10
-17.80417524051381
 20
5.423307767723172
 30
0.0
 10
-17.86766158187621
 20
5.476472689423129
 30
0.0
 10
-17.9246981336753
 20
5.53678781534336
 30
0.0
 10
-17.97528411711111
 20
5.604375840468096
 30
0.0
 10
-18.00287646649499
 20
5.654031169065298
 30
0.0
 10
-18.016873380858
 20
5.679220085470075
 30
0.0
  0
SPLINE
  5
106
330
1F
100
AcDbEntity
  8
0
  6
Continuous
 62
     7
370
    25
100
AcDbSpline
210
0.0
220
0.0
230
1.0
 70
     8
 71
     3
 72
    15
 73
    11
 74
     0
 42
0.000000001
 43
0.00000001
 40
0.0
 40
0.0
 40
0.0
 40
0.0
 40
0.1201339234014628
 40
0.2374202392616009
 40
0.3534986804735792
 40
0.4700599666294203
 40
0.5898119656926232
 40
0.717514950977692
 40
0.8536104512027207
 40
0.9999999999999999
 40
0.9999999999999999
 40
0.9999999999999999
 40
0.9999999999999999
 10
-11.63976548480919
 20
-3.316639957264954
 30
0.0
 10
-11.62815487410323
 20
-3.341124334650432
 30
0.0
 10
-11.6052088660671
 20
-3.389512721314584
 30
0.0
 10
-11.58022443214521
 20
-3.465428795635269
 30
0.0
 10
-11.56459568408131
 20
-3.542897923687714
 30
0.0
 10
-11.55755902101811
 20
-3.622197358808643
 30
0.0
 10
-11.5605085229721
 20
-3.704419329565191
 30
0.0
 10
-11.57418607243369
 20
-3.789953998124173
 30
0.0
 10
-11.59794014292623
 20
-3.879514126105472
 30
0.0
 10
-11.62100296153662
 20
-3.93890648828765
 30
0.0
 10
-11.63295458737329
 20
-3.969684829059826
 30
0.0
  0
SPLINE
  5
107
330
1F
100
AcDbEntity
  8
0
  6
Continuous
 62
     7
370
    25
100
AcDbSpline
210
0.0
220
0.0
230
1.0
 70
     8
 71
     3
 72
    23
 73
    19
 74
     0
 42
0.000000001
 43
0.00000001
 40
0.0
 40
0.0
 40
0.0
 40
0.0
 40
0.0640970822530925
 40
0.1265705240729274
 40
0.1874927558047763
 40
0.2479836095724937
 40
0.3089659179269032
 40
0.3704357517880503
 40
0.433034288779009
 40
0.4980108380527914
 40
0.5627307175747135
 40
0.6260483558909177
 40
0.687807240803348
 40
0.7488395678366633
 40
0.81011051063535
 40
0.8719690335016407
 40
0.9350900872248519
 40
1.0
 40
1.0
 40
1.0
 40
1.0
 10
-10.05927592083221
 20
-6.382923789173787
 30
0.0
 10
-10.04815079937208
 20
-6.406103123596769
 30
0.0
 10
-10.02618236642494
 20
-6.451874637719583
 30
0.0
 10
-10.00128799536061
 20
-6.522993913598514
 30
0.0
 10
-9.984447000951551
 20
-6.594879614868388
 30
0.0
 10
-9.974607027015443
 20
-6.667466898712725
 30
0.0
 10
-9.972687599937775
 20
-6.740925592223882
 30
0.0
 10
-9.978342321163653
 20
-6.815025827369344
 30
0.0
 10
-9.991819402171009
 20
-6.889734276311176
 30
0.0
 10
-10.01253761421391
 20
-6.964088442458926
 30
0.0
 10
-10.03948540451405
 20
-7.036737831874297
 30
0.0
 10
-10.07274432940011
 20
-7.105300334650137
 30
0.0
 10
-10.11164033429473
 20
-7.169140694844367
 30
0.0
 10
-10.15703939378537
 20
-7.22748467265462
 30
0.0
 10
-10.20762130415687
 20
-7.281414421904618
 30
0.0
 10
-10.26399658185028
 20
-7.330563852462679
 30
0.0
 10
-10.32637110408988
 20
-7.374516135355549
 30
0.0
 10
-10.37138858424693
 20
-7.399236873744302
 30
0.0
 10
-10.39421181826811
 20
-7.41176994301994
 30
0.0
  0
SPLINE
  5
108
330
1F
100
AcDbEntity
  8
0
  6
Continuous
 62
     7
370
    25
100
AcDbSpline
210
0.0
220
0.0
230
1.0
 70
     8
 71
     3
 72
    23
 73
    19
 74
     0
 42
0.000000001
 43
0.00000001
 40
0.0
 40
0.0
 40
0.0
 40
0.0
 40
0.0636262173518121
 40
0.1255120282223315
 40
0.1862737679351054
 40
0.24623271560043
 40
0.3067140514340743
 40
0.3676906786303056
 40
0.4298567728903258
 40
0.4944318009899854
 40
0.5592167353887114
 40
0.6219176377215371
 40
0.6840411037976234
 40
0.7455826125638687
 40
0.8071492264077269
 40
0.8698157911355094
 40
0.9337776779140112
 40
1.0
 40
1.0
 40
1.0
 40
1.0
 10
-18.016873380858
 20
5.679220085470075
 30
0.0
 10
-18.02804050210448
 20
5.702250251334214
 30
0.0
 10
-18.05006928356264
 20
5.747680624979123
 30
0.0
 10
-18.07438796850686
 20
5.818690954383555
 30
0.0
 10
-18.09138036478689
 20
5.890203670917038
 30
0.0
 10
-18.10075068679156
 20
5.962591225155393
 30
0.0
 10
-18.10212020637156
 20
6.035616189291658
 30
0.0
 10
-18.09674809152031
 20
6.109365794783892
 30
0.0
 10
-18.08265257218224
 20
6.183635516010799
 30
0.0
 10
-18.06163677014723
 20
6.257796356119501
 30
0.0
 10
-18.03390974025451
 20
6.329959816345091
 30
0.0
 10
-18.00014089420885
 20
6.398431308978426
 30
0.0
 10
-17.95988736524866
 20
6.461768497025457
 30
0.0
 10
-17.9140548055845
 20
6.520595619708443
 30
0.0
 10
-17.86232907094402
 20
6.574627323109029
 30
0.0
 10
-17.8049330381117
 20
6.624079631515881
 30
0.0
 10
-17.74117686494234
 20
6.668477466528964
 30
0.0
 10
-17.695272279452
 20
6.693655878374271
 30
0.0
 10
-17.67192145778107
 20
6.706463675213664
 30
0.0
  0
SPLINE
  5
109
330
1F
100
AcDbEntity
  8
0
  6
Continuous
 62
     7
370
    25
100
AcDbSpline
210
0.0
220
0.0
230
1.0
 70
     8
 71
     3
 72
    15
 73
    11
 74
     0
 42
0.000000001
 43
0.00000001
 40
0.0
 40
0.0
 40
0.0
 40
0.0
 40
0.1633630625619528
 40
0.3150418583023526
 40
0.4559538709903826
 40
0.5857771790956778
 40
0.7051724086484977
 40
0.8135711421761376
 40
0.91149855733471
 40
1.0
 40
1.0
 40
1.0
 40
1.0
 10
-12.36051868993739
 20
-4.559829059829057
 30
0.0
 10
-12.38276477107345
 20
-4.571159645106192
 30
0.0
 10
-12.42566582000788
 20
-4.593010414707236
 30
0.0
 10
-12.48866426534077
 20
-4.622815814864213
 30
0.0
 10
-12.54796594758957
 20
-4.648337411304878
 30
0.0
 10
-12.60325985629621
 20
-4.670653086831129
 30
0.0
 10
-12.65485444583441
 20
-4.688766630773806
 30
0.0
 10
-12.70263566289244
 20
-4.702723893582043
 30
0.0
 10
-12.74638687942844
 20
-4.713728229784779
 30
0.0
 10
-12.77460633441964
 20
-4.717767369877325
 30
0.0
 10
-12.78800266429636
 20
-4.719684829059826
 30
0.0
  0
SPLINE
  5
10A
330
1F
100
AcDbEntity
  8
0
  6
Continuous
 62
     7
370
    25
100
AcDbSpline
210
0.0
220
0.0
230
1.0
 70
     8
 71
     3
 72
    19
 73
    15
 74
     0
 42
0.000000001
 43
0.00000001
 40
0.0
 40
0.0
 40
0.0
 40
0.0
 40
0.0894678611312761
 40
0.175043447469647
 40
0.2582680429162863
 40
0.340659230675474
 40
0.4221039936963528
 40
0.5029552476625867
 40
0.5840857020780422
 40
0.6672538198195181
 40
0.7508996122775164
 40
0.833756414511123
 40
0.9158082901216358
 40
1.0
 40
1.0
 40
1.0
 40
1.0
 10
-12.04441292070662
 20
-4.192441239316237
 30
0.0
 10
-12.02083781121255
 20
-4.179225788127773
 30
0.0
 10
-11.97471322090562
 20
-4.15336982033503
 30
0.0
 10
-11.91238436879706
 20
-4.10607295536434
 30
0.0
 10
-11.85862837339294
 20
-4.052300707954593
 30
0.0
 10
-11.81324344677685
 20
-3.992871136135852
 30
0.0
 10
-11.77641686913403
 20
-3.928559347040057
 30
0.0
 10
-11.74966148842742
 20
-3.859898561479444
 30
0.0
 10
-11.73153418812612
 20
-3.787904081563912
 30
0.0
 10
-11.72452997525399
 20
-3.713182401721514
 30
0.0
 10
-11.72566489789833
 20
-3.637628661346942
 30
0.0
 10
-11.73766286979236
 20
-3.563379910773122
 30
0.0
 10
-11.75820025026564
 20
-3.490735441184466
 30
0.0
 10
-11.77984531495557
 20
-3.445379209387878
 30
0.0
 10
-11.79080715147585
 20
-3.422409188034185
 30
0.0
  0
SPLINE
  5
10B
330
1F
100
AcDbEntity
  8
0
  6
Continuous
 62
     7
370
    25
100
AcDbSpline
210
0.0
220
0.0
230
1.0
 70
     8
 71
     3
 72
    23
 73
    19
 74
     0
 42
0.000000001
 43
0.00000001
 40
0.0
 40
0.0
 40
0.0
 40
0.0
 40
0.0651826259228445
 40
0.1283838302313837
 40
0.189558644297471
 40
0.2496279198752122
 40
0.3092607264275009
 40
0.3688147274083724
 40
0.4291602597349421
 40
0.4907256655453639
 40
0.552737604931112
 40
0.6135450668163905
 40
0.6746302520972874
 40
0.7362464911547312
 40
0.7990797334728981
 40
0.8632503309152082
 40
0.9301441556382917
 40
1.0
 40
1.0
 40
1.0
 40
1.0
 10
-12.58728151045021
 20
-3.165197649572647
 30
0.0
 10
-12.60457453070068
 20
-3.174616428731103
 30
0.0
 10
-12.63863489793185
 20
-3.193167674977267
 30
0.0
 10
-12.68550543912842
 20
-3.226231751218783
 30
0.0
 10
-12.72784993918935
 20
-3.262491933947751
 30
0.0
 10
-12.76587165240376
 20
-3.301832821834857
 30
0.0
 10
-12.79881155567519
 20
-3.34492297036509
 30
0.0
 10
-12.8269441890726
 20
-3.391354114566543
 30
0.0
 10
-12.85073823146028
 20
-3.440802862760709
 30
0.0
 10
-12.86945527230577
 20
-3.493188653562397
 30
0.0
 10
-12.8829392077355
 20
-3.547276123559504
 30
0.0
 10
-12.89125453279024
 20
-3.602282239364493
 30
0.0
 10
-12.89304359349588
 20
-3.657761865243515
 30
0.0
 10
-12.8895500924528
 20
-3.713757277213122
 30
0.0
 10
-12.87975721331876
 20
-3.769970342282331
 30
0.0
 10
-12.86421087560843
 20
-3.826462192070457
 30
0.0
 10
-12.84359048602741
 20
-3.88362692627418
 30
0.0
 10
-12.82536014344574
 20
-3.920699146779982
 30
0.0
 10
-12.81604753609124
 20
-3.939636752136749
 30
0.0
  0
SPLINE
  5
10C
330
1F
100
AcDbEntity
  8
0
  6
Continuous
 62
     7
370
    25
100
AcDbSpline
210
0.0
220
0.0
230
1.0
 70
     8
 71
     3
 72
    23
 73
    19
 74
     0
 42
0.000000001
 43
0.00000001
 40
0.0
 40
0.0
 40
0.0
 40
0.0
 40
0.0694249631695299
 40
0.1362368213302082
 40
0.2003321167314436
 40
0.2622693346844442
 40
0.3229441031834541
 40
0.3827079021752404
 40
0.4426431625935313
 40
0.5032356816292357
 40
0.5635807796500674
 40
0.6229840288666869
 40
0.6826257427744306
 40
0.7422915722086988
 40
0.8035640431299519
 40
0.8665606186094583
 40
0.9318169965748293
 40
1.0
 40
1.0
 40
1.0
 40
1.0
 10
-12.81604753609124
 20
-3.939636752136749
 30
0.0
 10
-12.80595677684981
 20
-3.958260744568102
 30
0.0
 10
-12.78615506718949
 20
-3.994807735930987
 30
0.0
 10
-12.75150083013038
 20
-4.045244778873887
 30
0.0
 10
-12.7142481074488
 20
-4.090840366312956
 30
0.0
 10
-12.67389403377723
 20
-4.131134672549902
 30
0.0
 10
-12.63096425139548
 20
-4.166620155993381
 30
0.0
 10
-12.58496680990849
 20
-4.19700434168372
 30
0.0
 10
-12.53576680036559
 20
-4.221764858817293
 30
0.0
 10
-12.48430024182052
 20
-4.241824034334575
 30
0.0
 10
-12.43112147328905
 20
-4.256283749723391
 30
0.0
 10
-12.37696732803956
 20
-4.264665589043622
 30
0.0
 10
-12.32244944740555
 20
-4.267595033830039
 30
0.0
 10
-12.26736732440953
 20
-4.26428756992549
 30
0.0
 10
-12.21196930642046
 20
-4.254905741630338
 30
0.0
 10
-12.15610187208372
 20
-4.239883046306718
 30
0.0
 10
-12.099626011072
 20
-4.219577235228899
 30
0.0
 10
-12.06308443048436
 20
-4.201617867714663
 30
0.0
 10
-12.04441292070662
 20
-4.192441239316237
 30
0.0
  0
SPLINE
  5
10D
330
1F
100
AcDbEntity
  8
0
  6
Continuous
 62
     7
370
    25
100
AcDbSpline
210
0.0
220
0.0
230
1.0
 70
     8
 71
     3
 72
    19
 73
    15
 74
     0
 42
0.000000001
 43
0.00000001
 40
0.0
 40
0.0
 40
0.0
 40
0.0
 40
0.085055153414419
 40
0.1683552480863298
 40
0.2513939535231364
 40
0.3352706488631407
 40
0.4188733738106877
 40
0.5009044389112981
 40
0.583320285159073
 40
0.6668266865557801
 40
0.7502909807159205
 40
0.8329634717752396
 40
0.9154466384085539
 40
1.0
 40
1.0
 40
1.0
 40
1.0
 10
-11.79080715147585
 20
-3.422409188034185
 30
0.0
 10
-11.80366416067297
 20
-3.399295885552088
 30
0.0
 10
-11.82911288289774
 20
-3.353546208815764
 30
0.0
 10
-11.8781926662365
 20
-3.292432551432612
 30
0.0
 10
-11.93367105015487
 20
-3.237806075015022
 30
0.0
 10
-11.99620269298132
 20
-3.191162050683467
 30
0.0
 10
-12.06362783137405
 20
-3.15260668025566
 30
0.0
 10
-12.13532006857122
 20
-3.123775561544036
 30
0.0
 10
-12.21031852158618
 20
-3.105341084541844
 30
0.0
 10
-12.28751497977165
 20
-3.097049981593356
 30
0.0
 10
-12.36523327322022
 20
-3.098569351411367
 30
0.0
 10
-12.44172350831677
 20
-3.110278640737835
 30
0.0
 10
-12.51653599020795
 20
-3.131843488633947
 30
0.0
 10
-12.56350562836533
 20
-3.153988111572176
 30
0.0
 10
-12.58728151045021
 20
-3.165197649572647
 30
0.0
  0
SPLINE
  5
10E
330
1F
100
AcDbEntity
  8
0
  6
Continuous
 62
     7
370
    25
100
AcDbSpline
210
0.0
220
0.0
230
1.0
 70
     8
 71
     3
 72
    19
 73
    15
 74
     0
 42
0.000000001
 43
0.00000001
 40
0.0
 40
0.0
 40
0.0
 40
0.0
 40
0.0881363422000603
 40
0.1729890744358972
 40
0.2559096582608598
 40
0.3383446385687656
 40
0.4200025648811935
 40
0.5007022614131458
 40
0.5831056686691355
 40
0.6675741866553367
 40
0.7525341875161826
 40
0.8350379101385305
 40
0.9171769823707087
 40
1.0
 40
1.0
 40
1.0
 40
1.0
 10
-11.02802592083221
 20
-6.210648148148145
 30
0.0
 10
-11.0519077144601
 20
-6.223942872288984
 30
0.0
 10
-11.09878156096236
 20
-6.250037011966165
 30
0.0
 10
-11.16166950552587
 20
-6.298797473020621
 30
0.0
 10
-11.21671051383347
 20
-6.353620275919591
 30
0.0
 10
-11.2633772122069
 20
-6.414587830480478
 30
0.0
 10
-11.30061744284129
 20
-6.480898962413847
 30
0.0
 10
-11.32889364349555
 20
-6.551513848749551
 30
0.0
 10
-11.3463791241023
 20
-6.626482151619605
 30
0.0
 10
-11.35363879954765
 20
-6.704325390775407
 30
0.0
 10
-11.35204658901774
 20
-6.782585042096724
 30
0.0
 10
-11.33952581323885
 20
-6.859056255712875
 30
0.0
 10
-11.31881944458961
 20
-6.933180936456805
 30
0.0
 10
-11.29699580325332
 20
-6.979473305482525
 30
0.0
 10
-11.28603874134503
 20
-7.002715455840454
 30
0.0
  0
SPLINE
  5
10F
330
1F
100
AcDbEntity
  8
0
  6
Continuous
 62
     7
370
    25
100
AcDbSpline
210
0.0
220
0.0
230
1.0
 70
     8
 71
     3
 72
    23
 73
    19
 74
     0
 42
0.000000001
 43
0.00000001
 40
0.0
 40
0.0
 40
0.0
 40
0.0
 40
0.0648203699665598
 40
0.1273692369342757
 40
0.1888521433814315
 40
0.2490009424268499
 40
0.3091190767753754
 40
0.3694347244049587
 40
0.431282446785869
 40
0.494715378457977
 40
0.5581439495293768
 40
0.6202727824679647
 40
0.6817751804055902
 40
0.7428261895389136
 40
0.8049550224775015
 40
0.8679679604670364
 40
0.9327584537209836
 40
1.0
 40
1.0
 40
1.0
 40
1.0
 10
-10.22834643365272
 20
-6.453837250712248
 30
0.0
 10
-10.23802007312373
 20
-6.436135872362574
 30
0.0
 10
-10.25702835830374
 20
-6.401353425822299
 30
0.0
 10
-10.29109252724431
 20
-6.353331328950658
 30
0.0
 10
-10.32877246602993
 20
-6.310098174014111
 30
0.0
 10
-10.36983363578165
 20
-6.27107745935376
 30
0.0
 10
-10.41503390039403
 20
-6.237562068452175
 30
0.0
 10
-10.4634615631446
 20
-6.207944661426797
 30
0.0
 10
-10.51568777852806
 20
-6.183098532823939
 30
0.0
 10
-10.57104181694606
 20
-6.163367869290485
 30
0.0
 10
-10.6279801966853
 20
-6.148412636745999
 30
0.0
 10
-10.68559232761443
 20
-6.139683203702189
 30
0.0
 10
-10.74302362808078
 20
-6.136281890819983
 30
0.0
 10
-10.80049174908107
 20
-6.139206872696178
 30
0.0
 10
-10.85784421292645
 20
-6.147973996462656
 30
0.0
 10
-10.91499976638468
 20
-6.163179911212066
 30
0.0
 10
-10.97230654003203
 20
-6.183412877815148
 30
0.0
 10
-11.00922434556348
 20
-6.201458060645803
 30
0.0
 10
-11.02802592083221
 20
-6.210648148148145
 30
0.0
  0
SPLINE
  5
110
330
1F
100
AcDbEntity
  8
0
  6
Continuous
 62
     7
370
    25
100
AcDbSpline
210
0.0
220
0.0
230
1.0
 70
     8
 71
     3
 72
    19
 73
    15
 74
     0
 42
0.000000001
 43
0.00000001
 40
0.0
 40
0.0
 40
0.0
 40
0.0
 40
0.0838896927560986
 40
0.1667737671992345
 40
0.2506522905978644
 40
0.3360166808668839
 40
0.4217097087124247
 40
0.5045903918499446
 40
0.5869061816541215
 40
0.669703168615158
 40
0.7523937166599868
 40
0.8338168578620653
 40
0.9158738658318193
 40
1.0
 40
1.0
 40
1.0
 40
1.0
 10
-10.48796181826811
 20
-7.245503917378914
 30
0.0
 10
-10.46540593191115
 20
-7.23274070155749
 30
0.0
 10
-10.42056454536318
 20
-7.207367267537359
 30
0.0
 10
-10.36006802630703
 20
-7.158692156542276
 30
0.0
 10
-10.30564935399819
 20
-7.102865236958621
 30
0.0
 10
-10.25861297660373
 20
-7.039549055781814
 30
0.0
 10
-10.21964981830503
 20
-6.97136900560608
 30
0.0
 10
-10.18988546807373
 20
-6.899681981617442
 30
0.0
 10
-10.17041857609829
 20
-6.8254161728085
 30
0.0
 10
-10.16183778002773
 20
-6.749221915731709
 30
0.0
 10
-10.16287517194674
 20
-6.672828268141282
 30
0.0
 10
-10.17433194183981
 20
-6.597556418966667
 30
0.0
 10
-10.19538042486881
 20
-6.52378587646568
 30
0.0
 10
-10.21726692865446
 20
-6.477346197571319
 30
0.0
 10
-10.22834643365272
 20
-6.453837250712248
 30
0.0
  0
SPLINE
  5
111
330
1F
100
AcDbEntity
  8
0
  6
Continuous
 62
     7
370
    25
100
AcDbSpline
210
0.0
220
0.0
230
1.0
 70
     8
 71
     3
 72
    19
 73
    15
 74
     0
 42
0.000000001
 43
0.00000001
 40
0.0
 40
0.0
 40
0.0
 40
0.0
 40
0.0814510175969865
 40
0.1621888387990591
 40
0.2431032277307582
 40
0.32597015550059
 40
0.4097329923528172
 40
0.4927086188968062
 40
0.5767020443692307
 40
0.662939159885343
 40
0.7496334243027668
 40
0.8337776209291926
 40
0.9167532474731831
 40
1.0
 40
1.0
 40
1.0
 40
1.0
 10
-11.28603874134503
 20
-7.002715455840454
 30
0.0
 10
-11.27370335388062
 20
-7.024626964192207
 30
0.0
 10
-11.24914058931347
 20
-7.068258120692803
 30
0.0
 10
-11.2012930692592
 20
-7.126338472427265
 30
0.0
 10
-11.14694390151148
 20
-7.178786269524338
 30
0.0
 10
-11.08472131227818
 20
-7.223379627290601
 30
0.0
 10
-11.0169483507161
 20
-7.2601546536931
 30
0.0
 10
-10.94453217210151
 20
-7.287886285167087
 30
0.0
 10
-10.86812116728457
 20
-7.304807512580801
 30
0.0
 10
-10.78917783815606
 20
-7.312917708942217
 30
0.0
 10
-10.70974323060943
 20
-7.310904767783365
 30
0.0
 10
-10.63224171900558
 20
-7.29923099652954
 30
0.0
 10
-10.55761120395728
 20
-7.278319573663831
 30
0.0
 10
-10.51120351208802
 20
-7.256454357620803
 30
0.0
 10
-10.48796181826811
 20
-7.245503917378915
 30
0.0
  0
SPLINE
  5
112
330
1F
100
AcDbEntity
  8
0
  6
Continuous
 62
     7
370
    25
100
AcDbSpline
210
0.0
220
0.0
230
1.0
 70
     8
 71
     3
 72
    19
 73
    15
 74
     0
 42
0.000000001
 43
0.00000001
 40
0.0
 40
0.0
 40
0.0
 40
0.0
 40
0.0830733450034857
 40
0.1647916937368412
 40
0.2475266805099483
 40
0.332059046775328
 40
0.4165594355981914
 40
0.4984930412937553
 40
0.579852508287528
 40
0.66147500504144
 40
0.7439753653605158
 40
0.8267328773142103
 40
0.9116721750049502
 40
0.9999999999999999
 40
0.9999999999999999
 40
0.9999999999999999
 40
0.9999999999999999
 10
-16.9837524654856
 20
4.052706552706542
 30
0.0
 10
-16.97115324475729
 20
4.030259951311916
 30
0.0
 10
-16.94616030720919
 20
3.98573287150911
 30
0.0
 10
-16.89759141179967
 20
3.926144542247018
 30
0.0
 10
-16.84274235001547
 20
3.871825431776595
 30
0.0
 10
-16.77981929604187
 20
3.825527670154265
 30
0.0
 10
-16.7124279416503
 20
3.786639111886427
 30
0.0
 10
-16.64113645831614
 20
3.757723003004675
 30
0.0
 10
-16.56728812381092
 20
3.739754829737053
 30
0.0
 10
-16.49156661998876
 20
3.731623516640923
 30
0.0
 10
-16.41497525260957
 20
3.734046931219872
 30
0.0
 10
-16.33849586043628
 20
3.747164773215666
 30
0.0
 10
-16.26248515481178
 20
3.770428024131228
 30
0.0
 10
-16.21399867069403
 20
3.793399856464029
 30
0.0
 10
-16.18928131163945
 20
3.805110398860388
 30
0.0
  0
SPLINE
  5
113
330
1F
100
AcDbEntity
  8
0
  6
Continuous
 62
     7
370
    25
100
AcDbSpline
210
0.0
220
0.0
230
1.0
 70
     8
 71
     3
 72
    23
 73
    19
 74
     0
 42
0.000000001
 43
0.00000001
 40
0.0
 40
0.0
 40
0.0
 40
0.0
 40
0.0673184612810448
 40
0.1321138096109407
 40
0.1951744310960236
 40
0.2568157185562525
 40
0.3182412773278659
 40
0.3795947579731289
 40
0.442002949849331
 40
0.5054773746769029
 40
0.5688224125231743
 40
0.6307323037477719
 40
0.690998857040089
 40
0.7511367860057732
 40
0.8114354525092626
 40
0.8727784146850553
 40
0.9352530414640826
 40
1.0
 40
1.0
 40
1.0
 40
1.0
 10
-16.18928131163945
 20
3.805110398860388
 30
0.0
 10
-16.17092767140004
 20
3.815208887597503
 30
0.0
 10
-16.13490828999834
 20
3.835027371160334
 30
0.0
 10
-16.08496063795818
 20
3.869736800563007
 30
0.0
 10
-16.03991647650748
 20
3.907881436524041
 30
0.0
 10
-15.99954745769672
 20
3.949487633952355
 30
0.0
 10
-15.96359899526156
 20
3.994335520495633
 30
0.0
 10
-15.93314600666698
 20
4.04335434689723
 30
0.0
 10
-15.90699481302848
 20
4.095480352051083
 30
0.0
 10
-15.88599388417322
 20
4.150555988143788
 30
0.0
 10
-15.86990652854344
 20
4.207090289493833
 30
0.0
 10
-15.85981136130336
 20
4.264021332598898
 30
0.0
 10
-15.85589824178355
 20
4.320665769198705
 30
0.0
 10
-15.85713418266603
 20
4.376987318270493
 30
0.0
 10
-15.86575513600903
 20
4.432965903326592
 30
0.0
 10
-15.87854636022622
 20
4.488862878348002
 30
0.0
 10
-15.89858372080745
 20
4.544149924724684
 30
0.0
 10
-15.91573087971389
 20
4.579823575758177
 30
0.0
 10
-15.92445759369074
 20
4.597978988603979
 30
0.0
  0
SPLINE
  5
114
330
1F
100
AcDbEntity
  8
0
  6
Continuous
 62
     7
370
    25
100
AcDbSpline
210
0.0
220
0.0
230
1.0
 70
     8
 71
     3
 72
    19
 73
    15
 74
     0
 42
0.000000001
 43
0.00000001
 40
0.0
 40
0.0
 40
0.0
 40
0.0
 40
0.0842560473866609
 40
0.1659193251413859
 40
0.2476559895516083
 40
0.3303362213266846
 40
0.4132461475707386
 40
0.4953213717221408
 40
0.5783780592963415
 40
0.6640465855573403
 40
0.7497796068548674
 40
0.8329749148663949
 40
0.9162748803064383
 40
1.0
 40
1.0
 40
1.0
 40
1.0
 10
-15.92445759369073
 20
4.597978988603979
 30
0.0
 10
-15.93721413950353
 20
4.620668691980197
 30
0.0
 10
-15.96233468026046
 20
4.665349879724073
 30
0.0
 10
-16.01021705267744
 20
4.725316083654541
 30
0.0
 10
-16.06499285937231
 20
4.778163448168847
 30
0.0
 10
-16.12674794166653
 20
4.823390598458215
 30
0.0
 10
-16.19393891068168
 20
4.86021308523244
 30
0.0
 10
-16.26554768401823
 20
4.88791817764556
 30
0.0
 10
-16.34126914793559
 20
4.905057596788087
 30
0.0
 10
-16.41960754692295
 20
4.912416550436006
 30
0.0
 10
-16.4983585237316
 20
4.910652066538186
 30
0.0
 10
-16.57541077093718
 20
4.89871263320975
 30
0.0
 10
-16.65016321724828
 20
4.878081942671293
 30
0.0
 10
-16.696768642209
 20
4.855895379429892
 30
0.0
 10
-16.72013067061381
 20
4.84477386039885
 30
0.0
  0
SPLINE
  5
115
330
1F
100
AcDbEntity
  8
0
  6
Continuous
 62
     7
370
    25
100
AcDbSpline
210
0.0
220
0.0
230
1.0
 70
     8
 71
     3
 72
    19
 73
    15
 74
     0
 42
0.000000001
 43
0.00000001
 40
0.0
 40
0.0
 40
0.0
 40
0.0
 40
0.083288349898008
 40
0.1661651573633525
 40
0.2500474949726594
 40
0.3366161868900069
 40
0.4228922147653329
 40
0.506331142086104
 40
0.589477655498928
 40
0.6728008646666546
 40
0.7559113175710445
 40
0.8368356826199116
 40
0.9178144358284315
 40
1.0
 40
1.0
 40
1.0
 40
1.0
 10
-16.72013067061381
 20
4.84477386039885
 30
0.0
 10
-16.74254198232572
 20
4.832135948141495
 30
0.0
 10
-16.78725386750401
 20
4.806922569781149
 30
0.0
 10
-16.84777969282466
 20
4.758501091138501
 30
0.0
 10
-16.90169623839408
 20
4.701684395181669
 30
0.0
 10
-16.94945786985523
 20
4.638243649160779
 30
0.0
 10
-16.98876180440133
 20
4.569418161909236
 30
0.0
 10
-17.01925022789647
 20
4.497329892480964
 30
0.0
 10
-17.03814568552953
 20
4.422317897720943
 30
0.0
 10
-17.04803024242945
 20
4.345761692893006
 30
0.0
 10
-17.04723508274932
 20
4.269167894632552
 30
0.0
 10
-17.03610863893745
 20
4.194237347628155
 30
0.0
 10
-17.01610977209903
 20
4.121276276409046
 30
0.0
 10
-16.99459128669179
 20
4.075675552699282
 30
0.0
 10
-16.9837524654856
 20
4.052706552706542
 30
0.0
  0
SPLINE
  5
117
330
1F
100
AcDbEntity
  8
0
  6
Continuous
 62
     7
370
    25
100
AcDbSpline
210
0.0
220
0.0
230
1.0
 70
     8
 71
     3
 72
    15
 73
    11
 74
     0
 42
0.000000001
 43
0.00000001
 40
0.0
 40
0.0
 40
0.0
 40
0.0
 40
0.1302738269534435
 40
0.2580146031196041
 40
0.3826415379221284
 40
0.5046779966913866
 40
0.6265270290429673
 40
0.7487904066710214
 40
0.8732260011089353
 40
0.9999999999999999
 40
0.9999999999999999
 40
0.9999999999999999
 40
0.9999999999999999
 10
-15.06521488344655
 20
2.933805199430191
 30
0.0
 10
-15.07363374034008
 20
2.949318110076256
 30
0.0
 10
-15.09030775745392
 20
2.980042297560245
 30
0.0
 10
-15.11960285007567
 20
3.022901838365714
 30
0.0
 10
-15.15210116521823
 20
3.061925452139147
 30
0.0
 10
-15.18777068664706
 20
3.096906841931387
 30
0.0
 10
-15.22574685719284
 20
3.128910621190161
 30
0.0
 10
-15.26741788304767
 20
3.156529102551693
 30
0.0
 10
-15.31190365369794
 20
3.180781568123568
 30
0.0
 10
-15.34339377265283
 20
3.193708067912159
 30
0.0
 10
-15.35928539626706
 20
3.200231481481473
 30
0.0
  0
SPLINE
  5
118
330
1F
100
AcDbEntity
  8
0
  6
Continuous
 62
     7
370
    25
100
AcDbSpline
210
0.0
220
0.0
230
1.0
 70
     8
 71
     3
 72
    19
 73
    15
 74
     0
 42
0.000000001
 43
0.00000001
 40
0.0
 40
0.0
 40
0.0
 40
0.0
 40
0.0976283052935649
 40
0.1873391333856534
 40
0.270286439026737
 40
0.3481043231587886
 40
0.4237534226546962
 40
0.5013216688361105
 40
0.5805233284376984
 40
0.6638621433607138
 40
0.7485970154512773
 40
0.832048049349451
 40
0.9153868642724662
 40
1.0
 40
1.0
 40
1.0
 40
1.0
 10
-15.20624052447219
 20
2.239894943019934
 30
0.0
 10
-15.187699490484
 20
2.256747519276445
 30
0.0
 10
-15.15212106649132
 20
2.289085958643152
 30
0.0
 10
-15.10682436408835
 20
2.341719144097322
 30
0.0
 10
-15.0690929257664
 20
2.393851798885729
 30
0.0
 10
-15.0406704434569
 20
2.447614521172269
 30
0.0
 10
-15.01972964519354
 20
2.503205647355274
 30
0.0
 10
-15.00638427811237
 20
2.561445972471232
 30
0.0
 10
-14.99913190329769
 20
2.622691631426073
 30
0.0
 10
-14.99841744718711
 20
2.686210574352332
 30
0.0
 10
-15.00431477208516
 20
2.750555955392587
 30
0.0
 10
-15.01713196695932
 20
2.813887139585781
 30
0.0
 10
-15.03718152565203
 20
2.875366265698843
 30
0.0
 10
-15.05582328327733
 20
2.914227270023983
 30
0.0
 10
-15.06521488344655
 20
2.933805199430191
 30
0.0
  0
SPLINE
  5
119
330
1F
100
AcDbEntity
  8
0
  6
Continuous
 62
     7
370
    25
100
AcDbSpline
210
0.0
220
0.0
230
1.0
 70
     8
 71
     3
 72
    15
 73
    11
 74
     0
 42
0.000000001
 43
0.00000001
 40
0.0
 40
0.0
 40
0.0
 40
0.0
 40
0.1083976402868791
 40
0.2211756252451814
 40
0.3366893783980475
 40
0.4580755143187694
 40
0.5836540563719185
 40
0.716251939398086
 40
0.8541861197998409
 40
0.9999999999999999
 40
0.9999999999999999
 40
0.9999999999999999
 40
0.9999999999999999
 10
-15.35928539626706
 20
3.200231481481473
 30
0.0
 10
-15.37137248040604
 20
3.204454034876428
 30
0.0
 10
-15.3960350873111
 20
3.21306977489428
 30
0.0
 10
-15.43482730033274
 20
3.222075764385016
 30
0.0
 10
-15.47570482144363
 20
3.228057940594675
 30
0.0
 10
-15.51841541021071
 20
3.231154596307274
 30
0.0
 10
-15.56325238152441
 20
3.231607036304576
 30
0.0
 10
-15.60996110507671
 20
3.228721142388133
 30
0.0
 10
-15.65875830751721
 20
3.222589358344227
 30
0.0
 10
-15.69171065341583
 20
3.216554076374468
 30
0.0
 10
-15.70864437062603
 20
3.213452635327627
 30
0.0
  0
SPLINE
  5
11A
330
1F
100
AcDbEntity
  8
0
  6
Continuous
 62
     7
370
    25
100
AcDbSpline
210
0.0
220
0.0
230
1.0
 70
     8
 71
     3
 72
    19
 73
    15
 74
     0
 42
0.000000001
 43
0.00000001
 40
0.0
 40
0.0
 40
0.0
 40
0.0
 40
0.0842560473866608
 40
0.1659193251413865
 40
0.2476559895516089
 40
0.3303362213266851
 40
0.4132461475707391
 40
0.4953213717221412
 40
0.5783780592963381
 40
0.6640465855573404
 40
0.7497796068548676
 40
0.832974914866395
 40
0.9162748803064383
 40
1.0
 40
1.0
 40
1.0
 40
1.0
 10
-16.79491825265287
 20
6.28699252136751
 30
0.0
 10
-16.80767479846567
 20
6.309682224743729
 30
0.0
 10
-16.83279533922259
 20
6.354363412487604
 30
0.0
 10
-16.88067771163957
 20
6.414329616418073
 30
0.0
 10
-16.93545351833444
 20
6.467176980932378
 30
0.0
 10
-16.99720860062867
 20
6.512404131221748
 30
0.0
 10
-17.06439956964381
 20
6.549226617995972
 30
0.0
 10
-17.13600834298036
 20
6.57693171040909
 30
0.0
 10
-17.21172980689773
 20
6.594071129551623
 30
0.0
 10
-17.29006820588508
 20
6.601430083199536
 30
0.0
 10
-17.36881918269374
 20
6.599665599301721
 30
0.0
 10
-17.44587142989931
 20
6.58772616597328
 30
0.0
 10
-17.52062387621041
 20
6.567095475434826
 30
0.0
 10
-17.56722930117114
 20
6.544908912193423
 30
0.0
 10
-17.59059132957595
 20
6.533787393162382
 30
0.0
  0
SPLINE
  5
11B
330
1F
100
AcDbEntity
  8
0
  6
Continuous
 62
     7
370
    25
100
AcDbSpline
210
0.0
220
0.0
230
1.0
 70
     8
 71
     3
 72
    19
 73
    15
 74
     0
 42
0.000000001
 43
0.00000001
 40
0.0
 40
0.0
 40
0.0
 40
0.0
 40
0.0830733450034865
 40
0.1647916937368412
 40
0.2475266805099484
 40
0.3320590467753281
 40
0.4165594355981914
 40
0.4984930412937554
 40
0.579852508287528
 40
0.66147500504144
 40
0.7439753653605158
 40
0.8267328773142102
 40
0.9116721750049503
 40
0.9999999999999999
 40
0.9999999999999999
 40
0.9999999999999999
 40
0.9999999999999999
 10
-17.85421312444774
 20
5.741720085470075
 30
0.0
 10
-17.84161390371942
 20
5.719273484075448
 30
0.0
 10
-17.81662096617133
 20
5.674746404272644
 30
0.0
 10
-17.76805207076179
 20
5.615158075010546
 30
0.0
 10
-17.7132030089776
 20
5.560838964540127
 30
0.0
 10
-17.65027995500401
 20
5.514541202917798
 30
0.0
 10
-17.58288860061243
 20
5.47565264464996
 30
0.0
 10
-17.51159711727828
 20
5.446736535768207
 30
0.0
 10
-17.43774878277306
 20
5.428768362500586
 30
0.0
 10
-17.3620272789509
 20
5.420637049404456
 30
0.0
 10
-17.28543591157171
 20
5.423060463983405
 30
0.0
 10
-17.20895651939842
 20
5.436178305979197
 30
0.0
 10
-17.13294581377392
 20
5.459441556894761
 30
0.0
 10
-17.08445932965616
 20
5.482413389227561
 30
0.0
 10
-17.05974197060159
 20
5.49412393162392
 30
0.0
  0
SPLINE
  5
11C
330
1F
100
AcDbEntity
  8
0
  6
Continuous
 62
     7
370
    25
100
AcDbSpline
210
0.0
220
0.0
230
1.0
 70
     8
 71
     3
 72
    23
 73
    19
 74
     0
 42
0.000000001
 43
0.00000001
 40
0.0
 40
0.0
 40
0.0
 40
0.0
 40
0.0673184612810449
 40
0.1321138096109408
 40
0.1951744310960238
 40
0.2568157185562526
 40
0.3182412773278653
 40
0.3795947579731285
 40
0.4420029498493331
 40
0.5054773746769023
 40
0.5688224125231749
 40
0.6307323037477726
 40
0.6909988570400888
 40
0.7511367860057738
 40
0.8114354525092633
 40
0.8727784146850561
 40
0.9352530414640835
 40
1.0
 40
1.0
 40
1.0
 40
1.0
 10
-17.05974197060159
 20
5.49412393162392
 30
0.0
 10
-17.04138833036217
 20
5.504222420361036
 30
0.0
 10
-17.00536894896048
 20
5.524040903923868
 30
0.0
 10
-16.95542129692032
 20
5.55875033332654
 30
0.0
 10
-16.91037713546961
 20
5.596894969287573
 30
0.0
 10
-16.87000811665886
 20
5.638501166715889
 30
0.0
 10
-16.8340596542237
 20
5.683349053259165
 30
0.0
 10
-16.80360666562911
 20
5.732367879660762
 30
0.0
 10
-16.77745547199061
 20
5.784493884814612
 30
0.0
 10
-16.75645454313536
 20
5.839569520907323
 30
0.0
 10
-16.74036718750557
 20
5.896103822257365
 30
0.0
 10
-16.7302720202655
 20
5.953034865362435
 30
0.0
 10
-16.72635890074568
 20
6.009679301962234
 30
0.0
 10
-16.72759484162817
 20
6.066000851034026
 30
0.0
 10
-16.73621579497116
 20
6.121979436090124
 30
0.0
 10
-16.74900701918835
 20
6.177876411111535
 30
0.0
 10
-16.76904437976959
 20
6.233163457488218
 30
0.0
 10
-16.78619153867603
 20
6.268837108521708
 30
0.0
 10
-16.79491825265287
 20
6.28699252136751
 30
0.0
  0
SPLINE
  5
11D
330
1F
100
AcDbEntity
  8
0
  6
Continuous
 62
     7
370
    25
100
AcDbSpline
210
0.0
220
0.0
230
1.0
 70
     8
 71
     3
 72
    19
 73
    15
 74
     0
 42
0.000000001
 43
0.00000001
 40
0.0
 40
0.0
 40
0.0
 40
0.0
 40
0.083288349898008
 40
0.1661651573633531
 40
0.2500474949726593
 40
0.3366161868900068
 40
0.4228922147653329
 40
0.506331142086104
 40
0.589477655498928
 40
0.6728008646666546
 40
0.7559113175710446
 40
0.8368356826199117
 40
0.9178144358284316
 40
1.0
 40
1.0
 40
1.0
 40
1.0
 10
-17.59059132957595
 20
6.533787393162382
 30
0.0
 10
-17.61300264128786
 20
6.521149480905028
 30
0.0
 10
-17.65771452646615
 20
6.495936102544682
 30
0.0
 10
-17.71824035178678
 20
6.44751462390203
 30
0.0
 10
-17.77215689735621
 20
6.390697927945201
 30
0.0
 10
-17.81991852881736
 20
6.327257181924308
 30
0.0
 10
-17.85922246336347
 20
6.25843169467277
 30
0.0
 10
-17.88971088685861
 20
6.186343425244497
 30
0.0
 10
-17.90860634449167
 20
6.111331430484476
 30
0.0
 10
-17.91849090139158
 20
6.034775225656537
 30
0.0
 10
-17.91769574171146
 20
5.958181427396084
 30
0.0
 10
-17.90656929789958
 20
5.883250880391687
 30
0.0
 10
-17.88657043106116
 20
5.810289809172578
 30
0.0
 10
-17.86505194565393
 20
5.764689085462814
 30
0.0
 10
-17.85421312444774
 20
5.741720085470075
 30
0.0
  0
LINE
  5
11E
330
1F
100
AcDbEntity
  8
0
  6
Continuous
 62
     7
370
    25
100
AcDbLine
 10
-11.4438913054
 20
-6.4402154558
 30
0.0
 11
-12.1470163054
 21
-6.8031962251
 31
0.0
  0
LINE
  5
11F
330
1F
100
AcDbEntity
  8
0
  6
Continuous
 62
     7
370
    25
100
AcDbLine
 10
-10.3609586131
 20
-5.8813212251
 30
0.0
 11
-10.6013432285
 21
-6.005519943
 31
0.0
  0
LINE
  5
120
330
1F
100
AcDbEntity
  8
0
  6
Continuous
 62
     7
370
    25
100
AcDbLine
 10
-10.4470964337
 20
-5.7142539174
 30
0.0
 11
-10.3609586131
 21
-5.8813212251
 31
0.0
  0
LINE
  5
121
330
1F
100
AcDbEntity
  8
0
  6
Continuous
 62
     7
370
    25
100
AcDbLine
 10
-12.233154126
 20
-6.6361289174
 30
0.0
 11
-10.4470964337
 21
-5.7142539174
 31
0.0
  0
LINE
  5
122
330
1F
100
AcDbEntity
  8
0
  6
Continuous
 62
     7
370
    25
100
AcDbLine
 10
-12.1470163054
 20
-6.8031962251
 30
0.0
 11
-12.233154126
 21
-6.6361289174
 31
0.0
  0
LINE
  5
123
330
1F
100
AcDbEntity
  8
0
  6
Continuous
 62
     7
370
    25
100
AcDbLine
 10
-17.7119855603
 20
5.171207265
 30
0.0
 11
-17.487225945
 21
5.2873931624
 31
0.0
  0
LINE
  5
124
330
1F
100
AcDbEntity
  8
0
  6
Continuous
 62
     7
370
    25
100
AcDbLine
 10
-17.6262483809
 20
5.0053418803
 30
0.0
 11
-17.7119855603
 21
5.171207265
 31
0.0
  0
LINE
  5
125
330
1F
100
AcDbEntity
  8
0
  6
Continuous
 62
     7
370
    25
100
AcDbLine
 10
-16.3185560732
 20
5.6804220085
 30
0.0
 11
-17.6262483809
 21
5.0053418803
 31
0.0
  0
LINE
  5
126
330
1F
100
AcDbEntity
  8
0
  6
Continuous
 62
     7
370
    25
100
AcDbLine
 10
-16.4042932527
 20
5.8462873932
 30
0.0
 11
-16.3185560732
 21
5.6804220085
 31
0.0
  0
LINE
  5
127
330
1F
100
AcDbEntity
  8
0
  6
Continuous
 62
     7
370
    25
100
AcDbLine
 10
-16.644677868
 20
5.7220886752
 30
0.0
 11
-16.4042932527
 21
5.8462873932
 31
0.0
  0
LINE
  5
128
330
1F
100
AcDbEntity
  8
0
  6
Continuous
 62
     7
370
    25
100
AcDbLine
 10
-12.5319930489
 20
-4.4336271368
 30
0.0
 11
-12.4646853566
 21
-4.3987713675
 31
0.0
  0
LINE
  5
129
330
1F
100
AcDbEntity
  8
0
  6
Continuous
 62
     7
370
    25
100
AcDbLine
 10
-13.424220613
 20
-3.4039797009
 30
0.0
 11
-13.330069972
 21
-3.5866720085
 31
0.0
  0
LINE
  5
12A
330
1F
100
AcDbEntity
  8
0
  6
Continuous
 62
     7
370
    25
100
AcDbLine
 10
-11.3184513822
 20
-4.0217681624
 30
0.0
 11
-12.3605186899
 21
-4.5598290598
 31
0.0
  0
LINE
  5
12B
330
1F
100
AcDbEntity
  8
0
  6
Continuous
 62
     7
370
    25
100
AcDbLine
 10
-28.057764064
 20
25.0
 30
0.0
 11
-21.2769876576
 21
25.0
 31
0.0
  0
LINE
  5
12C
330
1F
100
AcDbEntity
  8
0
  6
Continuous
 62
     7
370
    25
100
AcDbLine
 10
-19.4992098799
 20
23.9162456946
 30
0.0
 11
-0.0007901201
 21
-13.9162456946
 31
0.0
  0
LINE
  5
12D
330
1F
100
AcDbEntity
  8
0
  6
Continuous
 62
     7
370
    25
100
AcDbLine
 10
23.057764064
 20
-15.0
 30
0.0
 11
20.557764064
 21
-15.0
 31
0.0
  0
LINE
  5
12E
330
1F
100
AcDbEntity
  8
0
  6
Continuous
 62
     7
370
    25
100
AcDbLine
 10
23.057764064
 20
-17.5
 30
0.0
 11
23.057764064
 21
-15.0
 31
0.0
  0
LINE
  5
12F
330
1F
100
AcDbEntity
  8
0
  6
Continuous
 62
     7
370
    25
100
AcDbLine
 10
25.557764064
 20
-17.5
 30
0.0
 11
23.057764064
 21
-17.5
 31
0.0
  0
LINE
  5
130
330
1F
100
AcDbEntity
  8
0
  6
Continuous
 62
     7
370
    25
100
AcDbLine
 10
25.557764064
 20
-15.0
 30
0.0
 11
25.557764064
 21
-17.5
 31
0.0
  0
LINE
  5
131
330
1F
100
AcDbEntity
  8
0
  6
Continuous
 62
     7
370
    25
100
AcDbLine
 10
28.057764064
 20
-15.0
 30
0.0
 11
25.557764064
 21
-15.0
 31
0.0
  0
LINE
  5
132
330
1F
100
AcDbEntity
  8
0
  6
Continuous
 62
     7
370
    25
100
AcDbLine
 10
28.057764064
 20
-17.5
 30
0.0
 11
28.057764064
 21
-15.0
 31
0.0
  0
LINE
  5
133
330
1F
100
AcDbEntity
  8
0
  6
Continuous
 62
     7
370
    25
100
AcDbLine
 10
30.557764064
 20
-17.5
 30
0.0
 11
28.057764064
 21
-17.5
 31
0.0
  0
LINE
  5
134
330
1F
100
AcDbEntity
  8
0
  6
Continuous
 62
     7
370
    25
100
AcDbLine
 10
30.557764064
 20
-15.0
 30
0.0
 11
30.557764064
 21
-17.5
 31
0.0
  0
LINE
  5
135
330
1F
100
AcDbEntity
  8
0
  6
Continuous
 62
     7
370
    25
100
AcDbLine
 10
33.057764064
 20
-15.0
 30
0.0
 11
30.557764064
 21
-15.0
 31
0.0
  0
LINE
  5
136
330
1F
100
AcDbEntity
  8
0
  6
Continuous
 62
     7
370
    25
100
AcDbLine
 10
39.057764064
 20
-10.0
 30
0.0
 11
35.057764064
 21
-10.0
 31
0.0
  0
LINE
  5
137
330
1F
100
AcDbEntity
  8
0
  6
Continuous
 62
     7
370
    25
100
AcDbLine
 10
41.057764064
 20
-12.0
 30
0.0
 11
41.057764064
 21
-23.0
 31
0.0
  0
LINE
  5
138
330
1F
100
AcDbEntity
  8
0
  6
Continuous
 62
     7
370
    25
100
AcDbLine
 10
-39.057764064
 20
-25.0
 30
0.0
 11
-22.057764064
 21
-25.0
 31
0.0
  0
LINE
  5
139
330
1F
100
AcDbEntity
  8
0
  6
Continuous
 62
     7
370
    25
100
AcDbLine
 10
-41.057764064
 20
-23.0
 30
0.0
 11
-41.057764064
 21
23.0
 31
0.0
  0
LINE
  5
13A
330
1F
100
AcDbEntity
  8
0
  6
Continuous
 62
     7
370
    25
100
AcDbLine
 10
-39.057764064
 20
25.0
 30
0.0
 11
-33.057764064
 21
25.0
 31
0.0
  0
LINE
  5
13B
330
1F
100
AcDbEntity
  8
0
  6
Continuous
 62
     7
370
    25
100
AcDbLine
 10
-33.057764064
 20
25.0
 30
0.0
 11
-33.057764064
 21
0.0
 31
0.0
  0
LINE
  5
13C
330
1F
100
AcDbEntity
  8
0
  6
Continuous
 62
     7
370
    25
100
AcDbLine
 10
-18.9854897112
 20
7.6415598291
 30
0.0
 11
-18.0383743265
 21
8.9328258547
 31
0.0
  0
LINE
  5
13D
330
1F
100
AcDbEntity
  8
0
  6
Continuous
 62
     7
370
    25
100
AcDbLine
 10
-18.9626531727
 20
7.5970886752
 30
0.0
 11
-18.9854897112
 21
7.6415598291
 31
0.0
  0
LINE
  5
13E
330
1F
100
AcDbEntity
  8
0
  6
Continuous
 62
     7
370
    25
100
AcDbLine
 10
-17.3753134291
 20
7.624732906
 30
0.0
 11
-18.9626531727
 21
7.5970886752
 31
0.0
  0
LINE
  5
13F
330
1F
100
AcDbEntity
  8
0
  6
Continuous
 62
     7
370
    25
100
AcDbLine
 10
-18.5503935573
 20
6.7990117521
 30
0.0
 11
-17.3753134291
 21
7.624732906
 31
0.0
  0
LINE
  5
140
330
1F
100
AcDbEntity
  8
0
  6
Continuous
 62
     7
370
    25
100
AcDbLine
 10
-18.4602493265
 20
6.624732906
 30
0.0
 11
-18.5503935573
 21
6.7990117521
 31
0.0
  0
LINE
  5
141
330
1F
100
AcDbEntity
  8
0
  6
Continuous
 62
     7
370
    25
100
AcDbLine
 10
-16.8232300958
 20
7.7909989316
 30
0.0
 11
-18.4602493265
 21
6.624732906
 31
0.0
  0
LINE
  5
142
330
1F
100
AcDbEntity
  8
0
  6
Continuous
 62
     7
370
    25
100
AcDbLine
 10
-18.6561627881
 20
7.7825854701
 30
0.0
 11
-16.8380538137
 21
7.8198450855
 31
0.0
  0
LINE
  5
143
330
1F
100
AcDbEntity
  8
0
  6
Continuous
 62
     7
370
    25
100
AcDbLine
 10
-17.576835865
 20
9.250133547
 30
0.0
 11
-18.6561627881
 21
7.7825854701
 31
0.0
  0
LINE
  5
144
330
1F
100
AcDbEntity
  8
0
  6
Continuous
 62
     7
370
    25
100
AcDbLine
 10
-17.591659583
 20
9.2789797009
 30
0.0
 11
-17.576835865
 21
9.250133547
 31
0.0
  0
LINE
  5
145
330
1F
100
AcDbEntity
  8
0
  6
Continuous
 62
     7
370
    25
100
AcDbLine
 10
-19.4894961214
 20
8.6175213675
 30
0.0
 11
-17.591659583
 21
9.2789797009
 31
0.0
  0
LINE
  5
146
330
1F
100
AcDbEntity
  8
0
  6
Continuous
 62
     7
370
    25
100
AcDbLine
 10
-19.4013550958
 20
8.4468482906
 30
0.0
 11
-19.4894961214
 21
8.6175213675
 31
0.0
  0
LINE
  5
147
330
1F
100
AcDbEntity
  8
0
  6
Continuous
 62
     7
370
    25
100
AcDbLine
 10
-13.7095807023
 20
0.6156071937
 30
0.0
 11
-13.9439557023
 21
0.494613604
 31
0.0
  0
LINE
  5
148
330
1F
100
AcDbEntity
  8
0
  6
Continuous
 62
     7
370
    25
100
AcDbLine
 10
-13.4420699757
 20
-3.114093661
 30
0.0
 11
-13.9613007449
 21
-2.1080840456
 31
0.0
  0
LINE
  5
149
330
1F
100
AcDbEntity
  8
0
  6
Continuous
 62
     7
370
    25
100
AcDbLine
 10
-12.7494009245
 20
-5.6339031339
 30
0.0
 11
-12.8415483604
 21
-5.4560185185
 31
0.0
  0
LINE
  5
14A
330
1F
100
AcDbEntity
  8
0
  6
Continuous
 62
     7
370
    25
100
AcDbLine
 10
-10.5606990014
 20
-5.4920762108
 30
0.0
 11
-12.7494009245
 21
-5.6339031339
 31
0.0
  0
LINE
  5
14B
330
1F
100
AcDbEntity
  8
0
  6
Continuous
 62
     7
370
    25
100
AcDbLine
 10
-11.2025259245
 20
-4.2492877493
 30
0.0
 11
-11.1103784886
 21
-4.4271723647
 31
0.0
  0
LINE
  5
14C
330
1F
100
AcDbEntity
  8
0
  6
Continuous
 62
     7
370
    25
100
AcDbLine
 10
-12.1340163091
 20
-5.4107460826
 30
0.0
 11
-11.2025259245
 21
-4.2492877493
 31
0.0
  0
LINE
  5
14D
330
1F
100
AcDbEntity
  8
0
  6
Continuous
 62
     7
370
    25
100
AcDbLine
 10
-12.8415483604
 20
-5.4560185185
 30
0.0
 11
-12.1340163091
 21
-5.4107460826
 31
0.0
  0
LINE
  5
14E
330
1F
100
AcDbEntity
  8
0
  6
Continuous
 62
     7
370
    25
100
AcDbLine
 10
-16.8415249014
 20
3.4821937322
 30
0.0
 11
-16.616765286
 21
3.5983796296
 31
0.0
  0
LINE
  5
14F
330
1F
100
AcDbEntity
  8
0
  6
Continuous
 62
     7
370
    25
100
AcDbLine
 10
-16.7557877219
 20
3.3163283476
 30
0.0
 11
-16.8415249014
 21
3.4821937322
 31
0.0
  0
LINE
  5
150
330
1F
100
AcDbEntity
  8
0
  6
Continuous
 62
     7
370
    25
100
AcDbLine
 10
-14.9432877219
 20
4.2522257835
 30
0.0
 11
-16.7557877219
 21
3.3163283476
 31
0.0
  0
LINE
  5
151
330
1F
100
AcDbEntity
  8
0
  6
Continuous
 62
     7
370
    25
100
AcDbLine
 10
-15.0290249014
 20
4.4180911681
 30
0.0
 11
-14.9432877219
 21
4.2522257835
 31
0.0
  0
LINE
  5
152
330
1F
100
AcDbEntity
  8
0
  6
Continuous
 62
     7
370
    25
100
AcDbLine
 10
-15.7742172091
 20
4.0330751425
 30
0.0
 11
-15.0290249014
 21
4.4180911681
 31
0.0
  0
LINE
  5
153
330
1F
100
AcDbEntity
  8
0
  6
Continuous
 62
     7
370
    25
100
AcDbLine
 10
-15.2559200117
 20
1.9798789174
 30
0.0
 11
-15.8628911655
 21
3.1553596866
 31
0.0
  0
LINE
  5
154
330
1F
100
AcDbEntity
  8
0
  6
Continuous
 62
     7
370
    25
100
AcDbLine
 10
-15.558403986
 20
2.0580039174
 30
0.0
 11
-15.5596059091
 21
1.8777154558
 31
0.0
  0
LINE
  5
155
330
1F
100
AcDbEntity
  8
0
  6
Continuous
 62
     7
370
    25
100
AcDbLine
 10
-13.5255569417
 20
1.3893785613
 30
0.0
 11
-15.2935857878
 21
0.4767183048
 31
0.0
  0
LINE
  5
156
330
1F
100
AcDbEntity
  8
0
  6
Continuous
 62
     7
370
    25
100
AcDbLine
 10
-13.6165024545
 20
1.5660612536
 30
0.0
 11
-13.5255569417
 21
1.3893785613
 31
0.0
  0
LINE
  5
157
330
1F
100
AcDbEntity
  8
0
  6
Continuous
 62
     7
370
    25
100
AcDbLine
 10
-15.3845313006
 20
0.6534009972
 30
0.0
 11
-13.6165024545
 21
1.5660612536
 31
0.0
  0
LINE
  5
158
330
1F
100
AcDbEntity
  8
0
  6
Continuous
 62
     7
370
    25
100
AcDbLine
 10
-15.2935857878
 20
0.4767183048
 30
0.0
 11
-15.3845313006
 21
0.6534009972
 31
0.0
  0
LINE
  5
159
330
1F
100
AcDbEntity
  8
0
  6
Continuous
 62
     7
370
    25
100
AcDbLine
 10
-9.7661389798
 20
-7.3900462963
 30
0.0
 11
-9.6219082106
 21
-7.3155270655
 31
0.0
  0
LINE
  5
15A
330
1F
100
AcDbEntity
  8
0
  6
Continuous
 62
     7
370
    25
100
AcDbLine
 10
-9.6475492362
 20
-7.619613604
 30
0.0
 11
-9.7661389798
 21
-7.3900462963
 31
0.0
  0
LINE
  5
15B
330
1F
100
AcDbEntity
  8
0
  6
Continuous
 62
     7
370
    25
100
AcDbLine
 10
-10.8110107747
 20
-8.2201745014
 30
0.0
 11
-9.6475492362
 21
-7.619613604
 31
0.0
  0
LINE
  5
15C
330
1F
100
AcDbEntity
  8
0
  6
Continuous
 62
     7
370
    25
100
AcDbLine
 10
-10.7236710311
 20
-8.3896456553
 30
0.0
 11
-10.8110107747
 21
-8.2201745014
 31
0.0
  0
LINE
  5
15D
330
1F
100
AcDbEntity
  8
0
  6
Continuous
 62
     7
370
    25
100
AcDbLine
 10
-9.5602094926
 20
-7.7890847578
 30
0.0
 11
-10.7236710311
 21
-8.3896456553
 31
0.0
  0
LINE
  5
15E
330
1F
100
AcDbEntity
  8
0
  6
Continuous
 62
     7
370
    25
100
AcDbLine
 10
-9.4223889798
 20
-8.0559116809
 30
0.0
 11
-9.5602094926
 21
-7.7890847578
 31
0.0
  0
LINE
  5
15F
330
1F
100
AcDbEntity
  8
0
  6
Continuous
 62
     7
370
    25
100
AcDbLine
 10
-9.4159787234
 20
-7.7145655271
 30
0.0
 11
-9.2781582106
 21
-7.9813924501
 31
0.0
  0
LINE
  5
160
330
1F
100
AcDbEntity
  8
0
  6
Continuous
 62
     7
370
    25
100
AcDbLine
 10
-8.9304018003
 20
-7.463764245
 30
0.0
 11
-9.4159787234
 21
-7.7145655271
 31
0.0
  0
LINE
  5
161
330
1F
100
AcDbEntity
  8
0
  6
Continuous
 62
     7
370
    25
100
AcDbLine
 10
-9.0177415439
 20
-7.2942930912
 30
0.0
 11
-8.9304018003
 21
-7.463764245
 31
0.0
  0
LINE
  5
162
330
1F
100
AcDbEntity
  8
0
  6
Continuous
 62
     7
370
    25
100
AcDbLine
 10
-9.503318467
 20
-7.5450943732
 30
0.0
 11
-9.0177415439
 21
-7.2942930912
 31
0.0
  0
LINE
  5
163
330
1F
100
AcDbEntity
  8
0
  6
Continuous
 62
     7
370
    25
100
AcDbLine
 10
-9.6219082106
 20
-7.3155270655
 30
0.0
 11
-9.503318467
 21
-7.5450943732
 31
0.0
  0
LINE
  5
164
330
1F
100
AcDbEntity
  8
0
  6
Continuous
 62
     7
370
    25
100
AcDbLine
 10
-11.6700347192
 20
-2.208644943
 30
0.0
 11
-11.8443135654
 21
-2.2983885328
 31
0.0
  0
LINE
  5
165
330
1F
100
AcDbEntity
  8
0
  6
Continuous
 62
     7
370
    25
100
AcDbLine
 10
-13.8417922408
 20
-0.6844729345
 30
0.0
 11
-14.5148691639
 21
-1.0318287037
 31
0.0
  0
LINE
  5
166
330
1F
100
AcDbEntity
  8
0
  6
Continuous
 62
     7
370
    25
100
AcDbLine
 10
-11.4057911258
 20
-3.8522970085
 30
0.0
 11
-11.3184513822
 21
-4.0217681624
 31
0.0
  0
LINE
  5
167
330
1F
100
AcDbEntity
  8
0
  6
Continuous
 62
     7
370
    25
100
AcDbLine
 10
-11.6329545874
 20
-3.9696848291
 30
0.0
 11
-11.4057911258
 21
-3.8522970085
 31
0.0
  0
LINE
  5
168
330
1F
100
AcDbEntity
  8
0
  6
Continuous
 62
     7
370
    25
100
AcDbLine
 10
-15.01727301
 20
-0.0594729345
 30
0.0
 11
-15.1038114715
 21
0.1087962963
 31
0.0
  0
LINE
  5
169
330
1F
100
AcDbEntity
  8
0
  6
Continuous
 62
     7
370
    25
100
AcDbLine
 10
-14.5377057023
 20
0.1881232194
 30
0.0
 11
-15.01727301
 21
-0.0594729345
 31
0.0
  0
LINE
  5
16A
330
1F
100
AcDbEntity
  8
0
  6
Continuous
 62
     7
370
    25
100
AcDbLine
 10
18.057764064
 20
-17.5
 30
0.0
 11
18.057764064
 21
-15.0
 31
0.0
  0
LINE
  5
16B
330
1F
100
AcDbEntity
  8
0
  6
Continuous
 62
     7
370
    25
100
AcDbLine
 10
20.557764064
 20
-17.5
 30
0.0
 11
18.057764064
 21
-17.5
 31
0.0
  0
LINE
  5
16C
330
1F
100
AcDbEntity
  8
0
  6
Continuous
 62
     7
370
    25
100
AcDbLine
 10
-10.6532470783
 20
-5.3129896724
 30
0.0
 11
-10.5606990014
 21
-5.4920762108
 31
0.0
  0
LINE
  5
16D
330
1F
100
AcDbEntity
  8
0
  6
Continuous
 62
     7
370
    25
100
AcDbLine
 10
-11.8856188732
 20
-5.3967236467
 30
0.0
 11
-10.6532470783
 21
-5.3129896724
 31
0.0
  0
LINE
  5
16E
330
1F
100
AcDbEntity
  8
0
  6
Continuous
 62
     7
370
    25
100
AcDbLine
 10
-11.1103784886
 20
-4.4271723647
 30
0.0
 11
-11.8856188732
 21
-5.3967236467
 31
0.0
  0
LINE
  5
16F
330
1F
100
AcDbEntity
  8
0
  6
Continuous
 62
     7
370
    25
100
AcDbLine
 10
-14.5148691639
 20
-1.0318287037
 30
0.0
 11
-14.6014076254
 21
-0.864761396
 31
0.0
  0
LINE
  5
170
330
1F
100
AcDbEntity
  8
0
  6
Continuous
 62
     7
370
    25
100
AcDbLine
 10
-16.2799862863
 20
-4.1581718099
 30
0.0
 11
-6.0969080881
 21
-23.9162456946
 31
0.0
  0
LINE
  5
171
330
1F
100
AcDbEntity
  8
0
  6
Continuous
 62
     7
370
    25
100
AcDbLine
 10
-12.1932718987
 20
-1.1954237892
 30
0.0
 11
-11.6700347192
 21
-2.208644943
 31
0.0
  0
LINE
  5
172
330
1F
100
AcDbEntity
  8
0
  6
Continuous
 62
     7
370
    25
100
AcDbLine
 10
-13.2677911295
 20
-3.0239494302
 30
0.0
 11
-13.4420699757
 21
-3.114093661
 31
0.0
  0
LINE
  5
173
330
1F
100
AcDbEntity
  8
0
  6
Continuous
 62
     7
370
    25
100
AcDbLine
 10
-13.6960763859
 20
-2.1946225071
 30
0.0
 11
-13.2677911295
 21
-3.0239494302
 31
0.0
  0
LINE
  5
174
330
1F
100
AcDbEntity
  8
0
  6
Continuous
 62
     7
370
    25
100
AcDbLine
 10
-13.0025667705
 20
-1.8368500712
 30
0.0
 11
-13.6960763859
 21
-2.1946225071
 31
0.0
  0
LINE
  5
175
330
1F
100
AcDbEntity
  8
0
  6
Continuous
 62
     7
370
    25
100
AcDbLine
 10
-12.5742815141
 20
-2.6661769943
 30
0.0
 11
-13.0025667705
 21
-1.8368500712
 31
0.0
  0
LINE
  5
176
330
1F
100
AcDbEntity
  8
0
  6
Continuous
 62
     7
370
    25
100
AcDbLine
 10
-12.401204591
 20
-2.5768340456
 30
0.0
 11
-12.5742815141
 21
-2.6661769943
 31
0.0
  0
LINE
  5
177
330
1F
100
AcDbEntity
  8
0
  6
Continuous
 62
     7
370
    25
100
AcDbLine
 10
-12.8294898474
 20
-1.7475071225
 30
0.0
 11
-12.401204591
 21
-2.5768340456
 31
0.0
  0
LINE
  5
178
330
1F
100
AcDbEntity
  8
0
  6
Continuous
 62
     7
370
    25
100
AcDbLine
 10
-12.2766052321
 20
-1.4618500712
 30
0.0
 11
-12.8294898474
 21
-1.7475071225
 31
0.0
  0
LINE
  5
179
330
1F
100
AcDbEntity
  8
0
  6
Continuous
 62
     7
370
    25
100
AcDbLine
 10
-11.8443135654
 20
-2.2983885328
 30
0.0
 11
-12.2766052321
 21
-1.4618500712
 31
0.0
  0
LINE
  5
17A
330
1F
100
AcDbEntity
  8
0
  6
Continuous
 62
     7
370
    25
100
AcDbLine
 10
-28.057764064
 20
25.0
 30
0.0
 11
-28.057764064
 21
0.0
 31
0.0
  0
LINE
  5
17B
330
1F
100
AcDbEntity
  8
0
  6
Continuous
 62
     7
370
    25
100
AcDbLine
 10
18.057764064
 20
-15.0
 30
0.0
 11
1.7769876576
 21
-15.0
 31
0.0
  0
LINE
  5
17C
330
1F
100
AcDbEntity
  8
0
  6
Continuous
 62
     7
370
    25
100
AcDbLine
 10
-13.9613007449
 20
-2.1080840456
 30
0.0
 11
-12.1932718987
 21
-1.1954237892
 31
0.0
  0
LINE
  5
17D
330
1F
100
AcDbEntity
  8
0
  6
Continuous
 62
     7
370
    25
100
AcDbLine
 10
-9.2781582106
 20
-7.9813924501
 30
0.0
 11
-9.4223889798
 21
-8.0559116809
 31
0.0
  0
LINE
  5
17E
330
1F
100
AcDbEntity
  8
0
  6
Continuous
 62
     7
370
    25
100
AcDbLine
 10
-16.8380538137
 20
7.8198450855
 30
0.0
 11
-16.8232300958
 21
7.7909989316
 31
0.0
  0
LINE
  5
17F
330
1F
100
AcDbEntity
  8
0
  6
Continuous
 62
     7
370
    25
100
AcDbLine
 10
-13.7961191639
 20
0.7838764245
 30
0.0
 11
-13.7095807023
 21
0.6156071937
 31
0.0
  0
LINE
  5
180
330
1F
100
AcDbEntity
  8
0
  6
Continuous
 62
     7
370
    25
100
AcDbLine
 10
39.057764064
 20
-25.0
 30
0.0
 11
-4.3191303103
 21
-25.0
 31
0.0
  0
LINE
  5
181
330
1F
100
AcDbEntity
  8
0
  6
Continuous
 62
     7
370
    25
100
AcDbLine
 10
33.057764064
 20
-12.0
 30
0.0
 11
33.057764064
 21
-15.0
 31
0.0
  0
LINE
  5
182
330
1F
100
AcDbEntity
  8
0
  6
Continuous
 62
     7
370
    25
100
AcDbLine
 10
20.557764064
 20
-15.0
 30
0.0
 11
20.557764064
 21
-17.5
 31
0.0
  0
LINE
  5
183
330
1F
100
AcDbEntity
  8
0
  6
Continuous
 62
     7
370
    25
100
AcDbLine
 10
-33.057764064
 20
0.0
 30
0.0
 11
-28.057764064
 21
0.0
 31
0.0
  0
LINE
  5
184
330
1F
100
AcDbEntity
  8
0
  6
Continuous
 62
     7
370
    25
100
AcDbLine
 10
-14.6014076254
 20
-0.864761396
 30
0.0
 11
-13.9776095485
 21
-0.5426460114
 31
0.0
  0
LINE
  5
185
330
1F
100
AcDbEntity
  8
0
  6
Continuous
 62
     7
370
    25
100
AcDbLine
 10
-20.057764064
 20
-23.0
 30
0.0
 11
-20.057764064
 21
-5.0744175045
 31
0.0
  0
LINE
  5
186
330
1F
100
AcDbEntity
  8
0
  6
Continuous
 62
     7
370
    25
100
AcDbLine
 10
-15.1038114715
 20
0.1087962963
 30
0.0
 11
-13.7961191639
 21
0.7838764245
 31
0.0
  0
LINE
  5
187
330
1F
100
AcDbEntity
  8
0
  6
Continuous
 62
     7
370
    25
100
AcDbLine
 10
-18.0383743265
 20
8.9328258547
 30
0.0
 11
-19.4013550958
 21
8.4468482906
 31
0.0
  0
LINE
  5
188
330
1F
100
AcDbEntity
  8
0
  6
Continuous
 62
     7
370
    25
100
AcDbLine
 10
-15.7086443706
 20
3.2134526353
 30
0.0
 11
-15.2062405245
 21
2.239894943
 31
0.0
  0
ARC
  5
189
330
1F
100
AcDbEntity
  8
0
  6
Continuous
 62
     7
370
    25
100
AcDbCircle
 10
-21.2769876576
 20
23.0
 30
0.0
 40
2.000000000000022
100
AcDbArc
 50
27.2660444507
 51
90.0
  0
ARC
  5
18A
330
1F
100
AcDbEntity
  8
0
  6
Continuous
 62
     7
370
    25
100
AcDbCircle
 10
1.7769876576
 20
-13.0
 30
0.0
 40
1.999999999999998
100
AcDbArc
 50
207.2660444507
 51
270.0
  0
ARC
  5
18B
330
1F
100
AcDbEntity
  8
0
  6
Continuous
 62
     7
370
    25
100
AcDbCircle
 10
39.057764064
 20
-12.0
 30
0.0
 40
2.000000000000007
100
AcDbArc
 50
0.0
 51
90.0
  0
ARC
  5
18C
330
1F
100
AcDbEntity
  8
0
  6
Continuous
 62
     7
370
    25
100
AcDbCircle
 10
-18.057764064
 20
-5.0744175045
 30
0.0
 40
2.000000000000007
100
AcDbArc
 50
27.2660444507
 51
180.0
  0
ARC
  5
18D
330
1F
100
AcDbEntity
  8
0
  6
Continuous
 62
     7
370
    25
100
AcDbCircle
 10
-39.057764064
 20
-23.0
 30
0.0
 40
2.000000000000014
100
AcDbArc
 50
180.0
 51
270.0
  0
ARC
  5
18E
330
1F
100
AcDbEntity
  8
0
  6
Continuous
 62
     7
370
    25
100
AcDbCircle
 10
-39.057764064
 20
23.0
 30
0.0
 40
2.000000000000007
100
AcDbArc
 50
90.0
 51
180.0
  0
ARC
  5
18F
330
1F
100
AcDbEntity
  8
0
  6
Continuous
 62
     7
370
    25
100
AcDbCircle
 10
35.057764064
 20
-12.0
 30
0.0
 40
1.999999999999986
100
AcDbArc
 50
90.0
 51
180.0
  0
ARC
  5
190
330
1F
100
AcDbEntity
  8
0
  6
Continuous
 62
     7
370
    25
100
AcDbCircle
 10
39.057764064
 20
-23.0
 30
0.0
 40
2.000000000000014
100
AcDbArc
 50
270.0
 51
0.0
  0
ARC
  5
191
330
1F
100
AcDbEntity
  8
0
  6
Continuous
 62
     7
370
    25
100
AcDbCircle
 10
-22.057764064
 20
-23.0
 30
0.0
 40
1.999999999999996
100
AcDbArc
 50
270.0
 51
0.0
  0
ARC
  5
192
330
1F
100
AcDbEntity
  8
0
  6
Continuous
 62
     7
370
    25
100
AcDbCircle
 10
-4.3191303103
 20
-23.0
 30
0.0
 40
2.000000000000004
100
AcDbArc
 50
207.2660444507
 51
270.0
  0
ENDSEC
  0
SECTION
  2
OBJECTS
  0
DICTIONARY
  5
C
330
0
100
AcDbDictionary
281
     1
  3
ACAD_GROUP
350
D
  3
ACAD_LAYOUT
350
1A
  3
ACAD_MLINESTYLE
350
17
  3
ACAD_PLOTSETTINGS
350
19
  3
ACAD_PLOTSTYLENAME
350
E
  3
ACAD_SCALELIST
350
47
  0
DICTIONARY
  5
D
102
{ACAD_REACTORS
330
C
102
}
330
C
100
AcDbDictionary
281
     1
  0
DICTIONARY
  5
1A
102
{ACAD_REACTORS
330
C
102
}
330
C
100
AcDbDictionary
281
     1
  3
Layout1
350
1E
  3
Layout2
350
26
  3
Model
350
22
  0
DICTIONARY
  5
17
102
{ACAD_REACTORS
330
C
102
}
330
C
100
AcDbDictionary
281
     1
  3
Standard
350
18
  0
DICTIONARY
  5
19
102
{ACAD_REACTORS
330
C
102
}
330
C
100
AcDbDictionary
281
     1
  0
ACDBDICTIONARYWDFLT
  5
E
102
{ACAD_REACTORS
330
C
102
}
330
C
100
AcDbDictionary
281
     1
  3
Normal
350
F
100
AcDbDictionaryWithDefault
340
F
  0
DICTIONARY
  5
47
102
{ACAD_REACTORS
330
C
102
}
330
C
100
AcDbDictionary
281
     1
  3
A0
350
48
  3
A1
350
49
  3
A2
350
4A
  3
A3
350
4B
  3
A4
350
4C
  3
A5
350
4D
  3
A6
350
4E
  3
A7
350
4F
  3
A8
350
50
  3
A9
350
51
  3
B0
350
52
  3
B1
350
53
  3
B2
350
54
  3
B3
350
55
  3
B4
350
56
  3
B5
350
57
  3
B6
350
58
  3
B7
350
59
  3
B8
350
5A
  3
B9
350
5B
  3
C0
350
5C
  3
C1
350
5D
  3
C2
350
5E
  3
C3
350
5F
  3
C4
350
60
  3
C5
350
61
  3
C6
350
62
  3
C7
350
63
  3
C8
350
64
  3
C9
350
65
  3
D0
350
66
  3
D1
350
67
  3
D2
350
68
  0
LAYOUT
  5
1E
102
{ACAD_REACTORS
330
1A
102
}
330
1A
100
AcDbPlotSettings
  1

  2
none_device
  4

  6

 40
0.0
 41
0.0
 42
0.0
 43
0.0
 44
0.0
 45
0.0
 46
0.0
 47
0.0
 48
0.0
 49
0.0
140
0.0
141
0.0
142
1.0
143
1.0
 70
   688
 72
     1
 73
     0
 74
     5
  7

 75
    16
147
1.0
148
0.0
149
0.0
100
AcDbLayout
  1
Layout1
 70
     1
 71
     1
 10
0.0
 20
0.0
 11
420.0
 21
297.0
 12
0.0
 22
0.0
 32
0.0
 14
1.0000000000E+20
 24
1.0000000000E+20
 34
1.0000000000E+20
 15
-1.0000000000E+20
 25
-1.0000000000E+20
 35
-1.0000000000E+20
146
0.0
 13
0.0
 23
0.0
 33
0.0
 16
1.0
 26
0.0
 36
0.0
 17
0.0
 27
1.0
 37
0.0
 76
     0
330
1B
  0
LAYOUT
  5
26
102
{ACAD_REACTORS
330
1A
102
}
330
1A
100
AcDbPlotSettings
  1

  2
none_device
  4

  6

 40
0.0
 41
0.0
 42
0.0
 43
0.0
 44
0.0
 45
0.0
 46
0.0
 47
0.0
 48
0.0
 49
0.0
140
0.0
141
0.0
142
1.0
143
1.0
 70
   688
 72
     1
 73
     0
 74
     5
  7

 75
    16
147
1.0
148
0.0
149
0.0
100
AcDbLayout
  1
Layout2
 70
     1
 71
     2
 10
0.0
 20
0.0
 11
0.0
 21
0.0
 12
0.0
 22
0.0
 32
0.0
 14
0.0
 24
0.0
 34
0.0
 15
0.0
 25
0.0
 35
0.0
146
0.0
 13
0.0
 23
0.0
 33
0.0
 16
1.0
 26
0.0
 36
0.0
 17
0.0
 27
1.0
 37
0.0
 76
     0
330
23
  0
LAYOUT
  5
22
102
{ACAD_REACTORS
330
1A
102
}
330
1A
100
AcDbPlotSettings
  1

  2
none_device
  4
ANSI_A_(11.00_x_8.50_Inches)
  6

 40
6.35
 41
19.05
 42
6.35000508
 43
19.05000254
 44
279.4
 45
215.9
 46
133.34999746
 47
88.89999873
 48
0.0
 49
0.0
140
0.0
141
0.0
142
0.1326180352
143
1.0
 70
  1696
 72
     0
 73
     0
 74
     0
  7

 75
     0
147
0.0179189148
148
-1300.4909072572
149
0.0
100
AcDbLayout
  1
Model
 70
     1
 71
     0
 10
0.0
 20
0.0
 11
420.0
 21
297.0
 12
0.0
 22
0.0
 32
0.0
 14
-41.057764064
 24
-25.0
 34
0.0
 15
41.057764064
 25
25.0
 35
0.0
146
0.0
 13
0.0
 23
0.0
 33
0.0
 16
1.0
 26
0.0
 36
0.0
 17
0.0
 27
1.0
 37
0.0
 76
     0
330
1F
331
29
  0
MLINESTYLE
  5
18
102
{ACAD_REACTORS
330
17
102
}
330
17
100
AcDbMlineStyle
  2
Standard
 70
     0
  3

 62
   256
 51
90.0
 52
90.0
 71
     2
 49
0.5
 62
   256
  6
BYLAYER
 49
-0.5
 62
   256
  6
BYLAYER
  0
ACDBPLACEHOLDER
  5
F
102
{ACAD_REACTORS
330
E
102
}
330
E
  0
SCALE
  5
48
102
{ACAD_REACTORS
330
47
102
}
330
47
100
AcDbScale
 70
     0
300
1:1
140
1.0
141
1.0
290
     1
  0
SCALE
  5
49
102
{ACAD_REACTORS
330
47
102
}
330
47
100
AcDbScale
 70
     0
300
1:2
140
1.0
141
2.0
290
     0
  0
SCALE
  5
4A
102
{ACAD_REACTORS
330
47
102
}
330
47
100
AcDbScale
 70
     0
300
1:4
140
1.0
141
4.0
290
     0
  0
SCALE
  5
4B
102
{ACAD_REACTORS
330
47
102
}
330
47
100
AcDbScale
 70
     0
300
1:5
140
1.0
141
5.0
290
     0
  0
SCALE
  5
4C
102
{ACAD_REACTORS
330
47
102
}
330
47
100
AcDbScale
 70
     0
300
1:8
140
1.0
141
8.0
290
     0
  0
SCALE
  5
4D
102
{ACAD_REACTORS
330
47
102
}
330
47
100
AcDbScale
 70
     0
300
1:10
140
1.0
141
10.0
290
     0
  0
SCALE
  5
4E
102
{ACAD_REACTORS
330
47
102
}
330
47
100
AcDbScale
 70
     0
300
1:16
140
1.0
141
16.0
290
     0
  0
SCALE
  5
4F
102
{ACAD_REACTORS
330
47
102
}
330
47
100
AcDbScale
 70
     0
300
1:20
140
1.0
141
20.0
290
     0
  0
SCALE
  5
50
102
{ACAD_REACTORS
330
47
102
}
330
47
100
AcDbScale
 70
     0
300
1:30
140
1.0
141
30.0
290
     0
  0
SCALE
  5
51
102
{ACAD_REACTORS
330
47
102
}
330
47
100
AcDbScale
 70
     0
300
1:40
140
1.0
141
40.0
290
     0
  0
SCALE
  5
52
102
{ACAD_REACTORS
330
47
102
}
330
47
100
AcDbScale
 70
     0
300
1:50
140
1.0
141
50.0
290
     0
  0
SCALE
  5
53
102
{ACAD_REACTORS
330
47
102
}
330
47
100
AcDbScale
 70
     0
300
1:100
140
1.0
141
100.0
290
     0
  0
SCALE
  5
54
102
{ACAD_REACTORS
330
47
102
}
330
47
100
AcDbScale
 70
     0
300
2:1
140
2.0
141
1.0
290
     0
  0
SCALE
  5
55
102
{ACAD_REACTORS
330
47
102
}
330
47
100
AcDbScale
 70
     0
300
4:1
140
4.0
141
1.0
290
     0
  0
SCALE
  5
56
102
{ACAD_REACTORS
330
47
102
}
330
47
100
AcDbScale
 70
     0
300
8:1
140
8.0
141
1.0
290
     0
  0
SCALE
  5
57
102
{ACAD_REACTORS
330
47
102
}
330
47
100
AcDbScale
 70
     0
300
10:1
140
10.0
141
1.0
290
     0
  0
SCALE
  5
58
102
{ACAD_REACTORS
330
47
102
}
330
47
100
AcDbScale
 70
     0
300
100:1
140
100.0
141
1.0
290
     0
  0
SCALE
  5
59
102
{ACAD_REACTORS
330
47
102
}
330
47
100
AcDbScale
 70
     0
300
1/128" = 1'-0"
140
0.0078125
141
12.0
290
     0
  0
SCALE
  5
5A
102
{ACAD_REACTORS
330
47
102
}
330
47
100
AcDbScale
 70
     0
300
1/64" = 1'-0"
140
0.015625
141
12.0
290
     0
  0
SCALE
  5
5B
102
{ACAD_REACTORS
330
47
102
}
330
47
100
AcDbScale
 70
     0
300
1/32" = 1'-0"
140
0.03125
141
12.0
290
     0
  0
SCALE
  5
5C
102
{ACAD_REACTORS
330
47
102
}
330
47
100
AcDbScale
 70
     0
300
1/16" = 1'-0"
140
0.0625
141
12.0
290
     0
  0
SCALE
  5
5D
102
{ACAD_REACTORS
330
47
102
}
330
47
100
AcDbScale
 70
     0
300
3/32" = 1'-0"
140
0.09375
141
12.0
290
     0
  0
SCALE
  5
5E
102
{ACAD_REACTORS
330
47
102
}
330
47
100
AcDbScale
 70
     0
300
1/8" = 1'-0"
140
0.125
141
12.0
290
     0
  0
SCALE
  5
5F
102
{ACAD_REACTORS
330
47
102
}
330
47
100
AcDbScale
 70
     0
300
3/16" = 1'-0"
140
0.1875
141
12.0
290
     0
  0
SCALE
  5
60
102
{ACAD_REACTORS
330
47
102
}
330
47
100
AcDbScale
 70
     0
300
1/4" = 1'-0"
140
0.25
141
12.0
290
     0
  0
SCALE
  5
61
102
{ACAD_REACTORS
330
47
102
}
330
47
100
AcDbScale
 70
     0
300
3/8" = 1'-0"
140
0.375
141
12.0
290
     0
  0
SCALE
  5
62
102
{ACAD_REACTORS
330
47
102
}
330
47
100
AcDbScale
 70
     0
300
1/2" = 1'-0"
140
0.5
141
12.0
290
     0
  0
SCALE
  5
63
102
{ACAD_REACTORS
330
47
102
}
330
47
100
AcDbScale
 70
     0
300
3/4" = 1'-0"
140
0.75
141
12.0
290
     0
  0
SCALE
  5
64
102
{ACAD_REACTORS
330
47
102
}
330
47
100
AcDbScale
 70
     0
300
1" = 1'-0"
140
1.0
141
12.0
290
     0
  0
SCALE
  5
65
102
{ACAD_REACTORS
330
47
102
}
330
47
100
AcDbScale
 70
     0
300
1-1/2" = 1'-0"
140
1.5
141
12.0
290
     0
  0
SCALE
  5
66
102
{ACAD_REACTORS
330
47
102
}
330
47
100
AcDbScale
 70
     0
300
3" = 1'-0"
140
3.0
141
12.0
290
     0
  0
SCALE
  5
67
102
{ACAD_REACTORS
330
47
102
}
330
47
100
AcDbScale
 70
     0
300
6" = 1'-0"
140
6.0
141
12.0
290
     0
  0
SCALE
  5
68
102
{ACAD_REACTORS
330
47
102
}
330
47
100
AcDbScale
 70
     0
300
1'-0" = 1'-0"
140
12.0
141
12.0
290
     0
  0
ENDSEC
  0
EOF
