  0
SECTION
  2
HEADER
  9
$ACADVER
  1
AC1015
  9
$ACADMAINTVER
 70
     6
  9
$DWGCODEPAGE
  3
ANSI_1252
  9
$INSBASE
 10
0.0
 20
0.0
 30
0.0
  9
$EXTMIN
 10
-41.057764064
 20
-25.0
 30
0.0
  9
$EXTMAX
 10
41.057764064
 20
25.0
 30
0.0
  9
$LIMMIN
 10
0.0
 20
0.0
  9
$LIMMAX
 10
420.0
 20
297.0
  9
$ORTHOMODE
 70
     0
  9
$REGENMODE
 70
     1
  9
$FILLMODE
 70
     1
  9
$QTEXTMODE
 70
     0
  9
$MIRRTEXT
 70
     1
  9
$LTSCALE
 40
1.0
  9
$ATTMODE
 70
     1
  9
$TEXTSIZE
 40
3.5
  9
$TRACEWID
 40
1.0
  9
$TEXTSTYLE
  7
Standard
  9
$CLAYER
  8
0
  9
$CELTYPE
  6
ByLayer
  9
$CECOLOR
 62
   256
  9
$CELTSCALE
 40
1.0
  9
$DISPSILH
 70
     0
  9
$DIMSCALE
 40
1.0
  9
$DIMASZ
 40
3.302
  9
$DIMEXO
 40
1.0
  9
$DIMDLI
 40
3.75
  9
$DIMRND
 40
0.0
  9
$DIMDLE
 40
0.0
  9
$DIMEXE
 40
1.0
  9
$DIMTP
 40
0.0
  9
$DIMTM
 40
0.0
  9
$DIMTXT
 40
3.5
  9
$DIMCEN
 40
2.5
  9
$DIMTSZ
 40
0.0
  9
$DIMTOL
 70
     0
  9
$DIMLIM
 70
     0
  9
$DIMTIH
 70
     1
  9
$DIMTOH
 70
     1
  9
$DIMSE1
 70
     0
  9
$DIMSE2
 70
     0
  9
$DIMTAD
 70
     1
  9
$DIMZIN
 70
     1
  9
$DIMBLK
  1

  9
$DIMASO
 70
     1
  9
$DIMSHO
 70
     1
  9
$DIMPOST
  1

  9
$DIMAPOST
  1

  9
$DIMALT
 70
     0
  9
$DIMALTD
 70
     3
  9
$DIMALTF
 40
0.0393700787
  9
$DIMLFAC
 40
1.0
  9
$DIMTOFL
 70
     1
  9
$DIMTVP
 40
0.0
  9
$DIMTIX
 70
     0
  9
$DIMSOXD
 70
     0
  9
$DIMSAH
 70
     0
  9
$DIMBLK1
  1

  9
$DIMBLK2
  1

  9
$DIMSTYLE
  2
ISO-25
  9
$DIMCLRD
 70
     0
  9
$DIMCLRE
 70
     0
  9
$DIMCLRT
 70
     0
  9
$DIMTFAC
 40
1.0
  9
$DIMGAP
 40
1.524
  9
$DIMJUST
 70
     0
  9
$DIMSD1
 70
     0
  9
$DIMSD2
 70
     0
  9
$DIMTOLJ
 70
     0
  9
$DIMTZIN
 70
     1
  9
$DIMALTZ
 70
     0
  9
$DIMALTTZ
 70
     0
  9
$DIMUPT
 70
     0
  9
$DIMDEC
 70
     2
  9
$DIMTDEC
 70
     2
  9
$DIMALTU
 70
     2
  9
$DIMALTTD
 70
     3
  9
$DIMTXSTY
  7
Standard
  9
$DIMAUNIT
 70
     0
  9
$DIMADEC
 70
     2
  9
$DIMALTRND
 40
0.0
  9
$DIMAZIN
 70
     0
  9
$DIMDSEP
 70
    44
  9
$DIMATFIT
 70
     3
  9
$DIMFRAC
 70
     0
  9
$DIMLDRBLK
  1

  9
$DIMLUNIT
 70
     2
  9
$DIMLWD
 70
    -2
  9
$DIMLWE
 70
    -2
  9
$DIMTMOVE
 70
     0
  9
$LUNITS
 70
     2
  9
$LUPREC
 70
     2
  9
$SKETCHINC
 40
1.0
  9
$FILLETRAD
 40
10.0
  9
$AUNITS
 70
     0
  9
$AUPREC
 70
     2
  9
$MENU
  1
.
  9
$ELEVATION
 40
0.0
  9
$PELEVATION
 40
0.0
  9
$THICKNESS
 40
0.0
  9
$LIMCHECK
 70
     0
  9
$CHAMFERA
 40
0.0
  9
$CHAMFERB
 40
0.0
  9
$CHAMFERC
 40
0.0
  9
$CHAMFERD
 40
0.0
  9
$SKPOLY
 70
     0
  9
$TDCREATE
 40
2459207.606645475
  9
$TDUCREATE
 40
2459207.523312141
  9
$TDUPDATE
 40
2459207.606663727
  9
$TDUUPDATE
 40
2459207.523330394
  9
$TDINDWG
 40
0.0000000116
  9
$TDUSRTIMER
 40
0.0000000116
  9
$USRTIMER
 70
     1
  9
$ANGBASE
 50
0.0
  9
$ANGDIR
 70
     0
  9
$PDMODE
 70
     0
  9
$PDSIZE
 40
-1.0
  9
$PLINEWID
 40
0.0
  9
$SPLFRAME
 70
     0
  9
$SPLINETYPE
 70
     6
  9
$SPLINESEGS
 70
     8
  9
$HANDSEED
  5
13C
  9
$SURFTAB1
 70
     6
  9
$SURFTAB2
 70
     6
  9
$SURFTYPE
 70
     6
  9
$SURFU
 70
     6
  9
$SURFV
 70
     6
  9
$UCSBASE
  2

  9
$UCSNAME
  2

  9
$UCSORG
 10
0.0
 20
0.0
 30
0.0
  9
$UCSXDIR
 10
1.0
 20
0.0
 30
0.0
  9
$UCSYDIR
 10
0.0
 20
1.0
 30
0.0
  9
$UCSORTHOREF
  2

  9
$UCSORTHOVIEW
 70
     0
  9
$UCSORGTOP
 10
0.0
 20
0.0
 30
0.0
  9
$UCSORGBOTTOM
 10
0.0
 20
0.0
 30
0.0
  9
$UCSORGLEFT
 10
0.0
 20
0.0
 30
0.0
  9
$UCSORGRIGHT
 10
0.0
 20
0.0
 30
0.0
  9
$UCSORGFRONT
 10
0.0
 20
0.0
 30
0.0
  9
$UCSORGBACK
 10
0.0
 20
0.0
 30
0.0
  9
$PUCSBASE
  2

  9
$PUCSNAME
  2

  9
$PUCSORG
 10
0.0
 20
0.0
 30
0.0
  9
$PUCSXDIR
 10
1.0
 20
0.0
 30
0.0
  9
$PUCSYDIR
 10
0.0
 20
1.0
 30
0.0
  9
$PUCSORTHOREF
  2

  9
$PUCSORTHOVIEW
 70
     0
  9
$PUCSORGTOP
 10
0.0
 20
0.0
 30
0.0
  9
$PUCSORGBOTTOM
 10
0.0
 20
0.0
 30
0.0
  9
$PUCSORGLEFT
 10
0.0
 20
0.0
 30
0.0
  9
$PUCSORGRIGHT
 10
0.0
 20
0.0
 30
0.0
  9
$PUCSORGFRONT
 10
0.0
 20
0.0
 30
0.0
  9
$PUCSORGBACK
 10
0.0
 20
0.0
 30
0.0
  9
$USERI1
 70
     0
  9
$USERI2
 70
     0
  9
$USERI3
 70
     0
  9
$USERI4
 70
     0
  9
$USERI5
 70
     0
  9
$USERR1
 40
0.0
  9
$USERR2
 40
0.0
  9
$USERR3
 40
0.0
  9
$USERR4
 40
0.0
  9
$USERR5
 40
0.0
  9
$WORLDVIEW
 70
     1
  9
$SHADEDGE
 70
     3
  9
$SHADEDIF
 70
    70
  9
$TILEMODE
 70
     1
  9
$MAXACTVP
 70
    64
  9
$PINSBASE
 10
0.0
 20
0.0
 30
0.0
  9
$PLIMCHECK
 70
     0
  9
$PEXTMIN
 10
1.0000000000E+20
 20
1.0000000000E+20
 30
1.0000000000E+20
  9
$PEXTMAX
 10
-1.0000000000E+20
 20
-1.0000000000E+20
 30
-1.0000000000E+20
  9
$PLIMMIN
 10
0.0
 20
0.0
  9
$PLIMMAX
 10
420.0
 20
297.0
  9
$UNITMODE
 70
     0
  9
$VISRETAIN
 70
     1
  9
$PLINEGEN
 70
     0
  9
$PSLTSCALE
 70
     1
  9
$TREEDEPTH
 70
  3020
  9
$CMLSTYLE
  2
Standard
  9
$CMLJUST
 70
     0
  9
$CMLSCALE
 40
20.0
  9
$PROXYGRAPHICS
 70
     1
  9
$MEASUREMENT
 70
     1
  9
$CELWEIGHT
370
    -1
  9
$ENDCAPS
280
     0
  9
$JOINSTYLE
280
     0
  9
$LWDISPLAY
290
     1
  9
$INSUNITS
 70
     4
  9
$HYPERLINKBASE
  1

  9
$STYLESHEET
  1

  9
$XEDIT
290
     1
  9
$CEPSNTYPE
380
     0
  9
$PSTYLEMODE
290
     1
  9
$FINGERPRINTGUID
  2
{DAB069BB-87B0-4CAC-BCCC-871293D42017}
  9
$VERSIONGUID
  2
{FAEB1C32-E019-11D5-929B-00C0DF256EC4}
  9
$EXTNAMES
290
     1
  9
$PSVPSCALE
 40
0.0
  9
$OLESTARTUP
290
     0
  0
ENDSEC
  0
SECTION
  2
CLASSES
  0
CLASS
  1
ACDBDICTIONARYWDFLT
  2
AcDbDictionaryWithDefault
  3
ObjectDBX Classes
 90
        0
280
     0
281
     0
  0
CLASS
  1
VISUALSTYLE
  2
AcDbVisualStyle
  3
ObjectDBX Classes
 90
     4095
280
     0
281
     0
  0
CLASS
  1
MATERIAL
  2
AcDbMaterial
  3
ObjectDBX Classes
 90
     1153
280
     0
281
     0
  0
CLASS
  1
SCALE
  2
AcDbScale
  3
ObjectDBX Classes
 90
     1153
280
     0
281
     0
  0
CLASS
  1
TABLESTYLE
  2
AcDbTableStyle
  3
ObjectDBX Classes
 90
     4095
280
     0
281
     0
  0
CLASS
  1
MLEADERSTYLE
  2
AcDbMLeaderStyle
  3
ACDB_MLEADERSTYLE_CLASS
 90
     4095
280
     0
281
     0
  0
CLASS
  1
SUN
  2
AcDbSun
  3
SCENEOE
 90
     1153
280
     0
281
     0
  0
CLASS
  1
ACDBPLACEHOLDER
  2
AcDbPlaceHolder
  3
ObjectDBX Classes
 90
        0
280
     0
281
     0
  0
CLASS
  1
LAYOUT
  2
AcDbLayout
  3
ObjectDBX Classes
 90
        0
280
     0
281
     0
  0
ENDSEC
  0
SECTION
  2
TABLES
  0
TABLE
  2
VPORT
  5
8
330
0
100
AcDbSymbolTable
 70
     1
  0
VPORT
  5
29
330
8
100
AcDbSymbolTableRecord
100
AcDbViewportTableRecord
  2
*Active
 70
     0
 10
0.0
 20
0.0
 11
1.0
 21
1.0
 12
0.0
 22
0.0
 13
0.0
 23
0.0
 14
10.0
 24
10.0
 15
10.0
 25
10.0
 16
0.0
 26
0.0
 36
1.0
 17
0.0
 27
0.0
 37
0.0
 40
51.0
 41
1.6423105626
 42
50.0
 43
0.0
 44
0.0
 50
0.0
 51
0.0
 71
     0
 72
   100
 73
     1
 74
     3
 75
     0
 76
     0
 77
     0
 78
     0
281
     0
 65
     1
110
0.0
120
0.0
130
0.0
111
1.0
121
0.0
131
0.0
112
0.0
122
1.0
132
0.0
 79
     0
146
0.0
  0
ENDTAB
  0
TABLE
  2
LTYPE
  5
5
330
0
100
AcDbSymbolTable
 70
     6
  0
LTYPE
  5
14
330
5
100
AcDbSymbolTableRecord
100
AcDbLinetypeTableRecord
  2
ByBlock
 70
     0
  3

 72
    65
 73
     0
 40
0.0
  0
LTYPE
  5
15
330
5
100
AcDbSymbolTableRecord
100
AcDbLinetypeTableRecord
  2
ByLayer
 70
     0
  3

 72
    65
 73
     0
 40
0.0
  0
LTYPE
  5
16
330
5
100
AcDbSymbolTableRecord
100
AcDbLinetypeTableRecord
  2
Continuous
 70
     0
  3
Solid line
 72
    65
 73
     0
 40
0.0
  0
LTYPE
  5
6E
330
5
100
AcDbSymbolTableRecord
100
AcDbLinetypeTableRecord
  2
HIDDEN
 70
     0
  3
Hidden __ __ __ __ __ __ __ __ __ __ __ __ __ __
 72
    65
 73
     2
 40
1.905
 49
1.27
 74
     0
 49
-0.635
 74
     0
  0
LTYPE
  5
6F
330
5
100
AcDbSymbolTableRecord
100
AcDbLinetypeTableRecord
  2
PHANTOM
 70
     0
  3
Phantom ______  __  __  ______  __  __  ______
 72
    65
 73
     6
 40
12.7
 49
6.35
 74
     0
 49
-1.27
 74
     0
 49
1.27
 74
     0
 49
-1.27
 74
     0
 49
1.27
 74
     0
 49
-1.27
 74
     0
  0
LTYPE
  5
70
330
5
100
AcDbSymbolTableRecord
100
AcDbLinetypeTableRecord
  2
CENTER
 70
     0
  3
Center ____ _ ____ _ ____ _ ____ _ ____ _ ____
 72
    65
 73
     4
 40
10.16
 49
6.35
 74
     0
 49
-1.27
 74
     0
 49
1.27
 74
     0
 49
-1.27
 74
     0
  0
LTYPE
  5
71
330
5
100
AcDbSymbolTableRecord
100
AcDbLinetypeTableRecord
  2
CENTERX2
 70
     0
  3
Center (2x) ________  __  ________  __  _____
 72
    65
 73
     4
 40
20.32
 49
12.7
 74
     0
 49
-2.54
 74
     0
 49
2.54
 74
     0
 49
-2.54
 74
     0
  0
LTYPE
  5
72
330
5
100
AcDbSymbolTableRecord
100
AcDbLinetypeTableRecord
  2
DOT2
 70
     0
  3
Dot (.5x) ........................................
 72
    65
 73
     2
 40
0.635
 49
0.0
 74
     0
 49
-0.635
 74
     0
  0
ENDTAB
  0
TABLE
  2
LAYER
  5
2
330
0
100
AcDbSymbolTable
 70
     1
  0
LAYER
  5
10
330
2
100
AcDbSymbolTableRecord
100
AcDbLayerTableRecord
  2
0
 70
     0
 62
     7
  6
Continuous
370
    -3
390
F
  0
ENDTAB
  0
TABLE
  2
STYLE
  5
3
330
0
100
AcDbSymbolTable
 70
     1
  0
STYLE
  5
11
330
3
100
AcDbSymbolTableRecord
100
AcDbTextStyleTableRecord
  2
Standard
 70
     0
 40
0.0
 41
1.0
 50
0.0
 71
     0
 42
3.5
  3
txt
  4

  0
ENDTAB
  0
TABLE
  2
VIEW
  5
6
330
0
100
AcDbSymbolTable
 70
     0
  0
ENDTAB
  0
TABLE
  2
UCS
  5
7
330
0
100
AcDbSymbolTable
 70
     0
  0
ENDTAB
  0
TABLE
  2
APPID
  5
9
330
0
100
AcDbSymbolTable
 70
     1
  0
APPID
  5
12
330
9
100
AcDbSymbolTableRecord
100
AcDbRegAppTableRecord
  2
ACAD
 70
     0
  0
ENDTAB
  0
TABLE
  2
DIMSTYLE
  5
A
330
0
100
AcDbSymbolTable
 70
     1
100
AcDbDimStyleTable
  0
DIMSTYLE
105
27
330
A
100
AcDbSymbolTableRecord
100
AcDbDimStyleTableRecord
  2
ISO-25
 70
     0
 41
2.5
 42
0.625
 43
3.75
 44
1.25
 73
     0
 74
     0
 77
     1
 78
     8
140
2.5
141
2.5
143
0.0393700787
147
0.625
171
     3
172
     1
178
     0
271
     2
272
     2
274
     3
278
    44
283
     0
284
     8
340
11
  0
ENDTAB
  0
TABLE
  2
BLOCK_RECORD
  5
1
330
0
100
AcDbSymbolTable
 70
     1
  0
BLOCK_RECORD
  5
1F
330
1
100
AcDbSymbolTableRecord
100
AcDbBlockTableRecord
  2
*Model_Space
340
22
  0
BLOCK_RECORD
  5
1B
330
1
100
AcDbSymbolTableRecord
100
AcDbBlockTableRecord
  2
*Paper_Space
340
1E
  0
BLOCK_RECORD
  5
23
330
1
100
AcDbSymbolTableRecord
100
AcDbBlockTableRecord
  2
*Paper_Space0
340
26
  0
ENDTAB
  0
ENDSEC
  0
SECTION
  2
BLOCKS
  0
BLOCK
  5
20
330
1F
100
AcDbEntity
  8
0
100
AcDbBlockBegin
  2
*Model_Space
 70
     0
 10
0.0
 20
0.0
 30
0.0
  3
*Model_Space
  1

  0
ENDBLK
  5
21
330
1F
100
AcDbEntity
  8
0
100
AcDbBlockEnd
  0
BLOCK
  5
1C
330
1B
100
AcDbEntity
 67
     1
  8
0
100
AcDbBlockBegin
  2
*Paper_Space
 70
     0
 10
0.0
 20
0.0
 30
0.0
  3
*Paper_Space
  1

  0
ENDBLK
  5
1D
330
1B
100
AcDbEntity
 67
     1
  8
0
100
AcDbBlockEnd
  0
BLOCK
  5
24
330
23
100
AcDbEntity
  8
0
100
AcDbBlockBegin
  2
*Paper_Space0
 70
     0
 10
0.0
 20
0.0
 30
0.0
  3
*Paper_Space0
  1

  0
ENDBLK
  5
25
330
23
100
AcDbEntity
  8
0
100
AcDbBlockEnd
  0
ENDSEC
  0
SECTION
  2
ENTITIES
  0
SPLINE
  5
73
330
1F
100
AcDbEntity
  8
0
  6
Continuous
 62
     7
370
    25
100
AcDbSpline
210
0.0
220
0.0
230
1.0
 70
     8
 71
     3
 72
    23
 73
    19
 74
     0
 42
0.000000001
 43
0.00000001
 40
0.0
 40
0.0
 40
0.0
 40
0.0
 40
0.0660619271637471
 40
0.1301034561777574
 40
0.1924997584874318
 40
0.2538759544378466
 40
0.3152565065882716
 40
0.3768809965605112
 40
0.439564693191958
 40
0.5038132483106456
 40
0.5679711091227468
 40
0.6303269275955815
 40
0.6914236807066204
 40
0.7516629875083091
 40
0.8121640943150272
 40
0.8733546223449664
 40
0.9356465658063854
 40
1.0
 40
1.0
 40
1.0
 40
1.0
 10
15.39196112179349
 20
0.528122774216526
 30
0.0
 10
15.37015788146652
 20
0.4884507954727534
 30
0.0
 10
15.32721821796895
 20
0.4103201418637288
 30
0.0
 10
15.25106878108778
 20
0.3023377683601093
 30
0.0
 10
15.16701090239165
 20
0.204784860873735
 30
0.0
 10
15.07557241770837
 20
0.11657077192131
 30
0.0
 10
14.97476782549267
 20
0.0401072738411363
 30
0.0
 10
14.86652431581835
 20
-0.0269785293252645
 30
0.0
 10
14.75030114660523
 20
-0.0837806946905322
 30
0.0
 10
14.62738651287198
 20
-0.1292659578422605
 30
0.0
 10
14.50117329653834
 20
-0.1636272566071502
 30
0.0
 10
14.37446336533505
 20
-0.1860586385491069
 30
0.0
 10
14.24875707681139
 20
-0.1952341321136059
 30
0.0
 10
14.12408770873676
 20
-0.1910422804243232
 30
0.0
 10
14.00035815822248
 20
-0.1745982822515461
 30
0.0
 10
13.87773393381644
 20
-0.1447422668905647
 30
0.0
 10
13.75608812213806
 20
-0.1020573421840457
 30
0.0
 10
13.67789035437354
 20
-0.064419793655307
 30
0.0
 10
13.6381550320499
 20
-0.045294693732192
 30
0.0
  0
SPLINE
  5
74
330
1F
100
AcDbEntity
  8
0
  6
Continuous
 62
     7
370
    25
100
AcDbSpline
210
0.0
220
0.0
230
1.0
 70
     8
 71
     3
 72
    23
 73
    19
 74
     0
 42
0.000000001
 43
0.00000001
 40
0.0
 40
0.0
 40
0.0
 40
0.0
 40
0.0651071743853055
 40
0.1283349653550895
 40
0.1899700641709268
 40
0.2511049670129418
 40
0.3119234528509301
 40
0.3733466108441244
 40
0.4358488435037655
 40
0.5000206662948192
 40
0.5643368848079434
 40
0.626816826830619
 40
0.6880834505963439
 40
0.7489891028165023
 40
0.809933185462847
 40
0.8716394098569196
 40
0.9348564188209213
 40
1.0
 40
1.0
 40
1.0
 40
1.0
 10
14.82906048076785
 20
2.28743767806268
 30
0.0
 10
14.86826553665753
 20
2.266015531612924
 30
0.0
 10
14.94554395546234
 20
2.22378961030061
 30
0.0
 10
15.05171639476973
 20
2.147824959735359
 30
0.0
 10
15.14875402517907
 20
2.064867415806038
 30
0.0
 10
15.23596202449434
 20
1.973695490497282
 30
0.0
 10
15.31167899122709
 20
1.873022315891446
 30
0.0
 10
15.37819420016324
 20
1.764999315837055
 30
0.0
 10
15.4343617817294
 20
1.648657148034751
 30
0.0
 10
15.48001033275018
 20
1.525733453640221
 30
0.0
 10
15.51447023828016
 20
1.399199798510188
 30
0.0
 10
15.5360272619578
 20
1.271885791424553
 30
0.0
 10
15.54561738585295
 20
1.145397829187868
 30
0.0
 10
15.54062672929704
 20
1.019719915841162
 30
0.0
 10
15.52397591763952
 20
0.8947251518210639
 30
0.0
 10
15.49252971153253
 20
0.7710213738533943
 30
0.0
 10
15.4499870482984
 20
0.647558987569376
 30
0.0
 10
15.41149567046982
 20
0.5683312235078832
 30
0.0
 10
15.39196112179349
 20
0.528122774216526
 30
0.0
  0
SPLINE
  5
75
330
1F
100
AcDbEntity
  8
0
  6
Continuous
 62
     7
370
    25
100
AcDbSpline
210
0.0
220
0.0
230
1.0
 70
     8
 71
     3
 72
    23
 73
    19
 74
     0
 42
0.000000001
 43
0.00000001
 40
0.0
 40
0.0
 40
0.0
 40
0.0
 40
0.0666645352141324
 40
0.1311102658880619
 40
0.1937509428749902
 40
0.2553409335813921
 40
0.316528521265205
 40
0.3776423571203027
 40
0.4397835628004874
 40
0.5032259467989147
 40
0.5667196766572621
 40
0.6286676695600028
 40
0.6893558129473483
 40
0.7497030724878915
 40
0.81036052363652
 40
0.871969408427485
 40
0.9349145224409383
 40
1.0
 40
1.0
 40
1.0
 40
1.0
 10
13.06123195512682
 20
1.708511396011398
 30
0.0
 10
13.08333380039302
 20
1.749041147743156
 30
0.0
 10
13.12680187228701
 20
1.828751694120768
 30
0.0
 10
13.20420871864106
 20
1.938560698359846
 30
0.0
 10
13.28844717095791
 20
2.03853948197308
 30
0.0
 10
13.38110892619461
 20
2.127643357253261
 30
0.0
 10
13.48155677301908
 20
2.206150684516815
 30
0.0
 10
13.5901960720611
 20
2.273581129558007
 30
0.0
 10
13.70625056059199
 20
2.330785853541218
 30
0.0
 10
13.82884074338574
 20
2.377136165404021
 30
0.0
 10
13.95519950748004
 20
2.411253188363167
 30
0.0
 10
14.08221238611113
 20
2.4338734070796
 30
0.0
 10
14.20880481440689
 20
2.442322260698738
 30
0.0
 10
14.3346706887258
 20
2.437838594989461
 30
0.0
 10
14.46003979257993
 20
2.420156968114572
 30
0.0
 10
14.58461804047597
 20
2.38928492466737
 30
0.0
 10
14.70873832701507
 20
2.345790607793913
 30
0.0
 10
14.78850857396305
 20
2.307104235670271
 30
0.0
 10
14.82906048076785
 20
2.28743767806268
 30
0.0
  0
SPLINE
  5
76
330
1F
100
AcDbEntity
  8
0
  6
Continuous
 62
     7
370
    25
100
AcDbSpline
210
0.0
220
0.0
230
1.0
 70
     8
 71
     3
 72
    31
 73
    27
 74
     0
 42
0.000000001
 43
0.00000001
 40
0.0
 40
0.0
 40
0.0
 40
0.0
 40
0.0432190327485064
 40
0.085893380869716
 40
0.128126642233781
 40
0.1699909112635782
 40
0.2117257607768633
 40
0.2534990513216095
 40
0.2954611855625546
 40
0.338006482470788
 40
0.3805748279947198
 40
0.4221255239327079
 40
0.4634926835645257
 40
0.5046754889458664
 40
0.5455685770094887
 40
0.5865067055276852
 40
0.6279191077547566
 40
0.6697514147140097
 40
0.7114506390825065
 40
0.7529576754107866
 40
0.7936956483142074
 40
0.8345851019212553
 40
0.8753289114195558
 40
0.916655813831018
 40
0.9579020839262766
 40
1.0
 40
1.0
 40
1.0
 40
1.0
 10
13.6381550320499
 20
-0.045294693732192
 30
0.0
 10
13.61205059673778
 20
-0.0313275272401353
 30
0.0
 10
13.56017071738693
 20
-0.0035692208903844
 30
0.0
 10
13.48684190364336
 20
0.044715846203678
 30
0.0
 10
13.41620102290251
 20
0.0952581286784806
 30
0.0
 10
13.35086233731236
 20
0.1515179046930006
 30
0.0
 10
13.2881591310778
 20
0.2102346759304928
 30
0.0
 10
13.2309303035462
 20
0.2744045578886264
 30
0.0
 10
13.17628865346236
 20
0.3414694496853938
 30
0.0
 10
13.12665078276836
 20
0.4130119717532982
 30
0.0
 10
13.08121138812807
 20
0.4869451696404646
 30
0.0
 10
13.04154509644358
 20
0.5632169646004309
 30
0.0
 10
13.00657494291289
 20
0.6407395336597644
 30
0.0
 10
12.97847874630227
 20
0.7205260526750048
 30
0.0
 10
12.95457433614749
 20
0.801332784680405
 30
0.0
 10
12.93653438284696
 20
0.8838407427612287
 30
0.0
 10
12.92403323027951
 20
0.9680053855696229
 30
0.0
 10
12.91714723579256
 20
1.053325710654184
 30
0.0
 10
12.91540623450515
 20
1.138989572850746
 30
0.0
 10
12.92018572273284
 20
1.223779735236603
 30
0.0
 10
12.92959081010843
 20
1.307608604556996
 30
0.0
 10
12.9446169123535
 20
1.390099855627683
 30
0.0
 10
12.96519095533979
 20
1.471809881038864
 30
0.0
 10
12.99183790787905
 20
1.551984046995924
 30
0.0
 10
13.02339965900867
 20
1.631375737096195
 30
0.0
 10
13.04853557330299
 20
1.682624947703789
 30
0.0
 10
13.06123195512683
 20
1.708511396011398
 30
0.0
  0
SPLINE
  5
7A
330
1F
100
AcDbEntity
  8
0
  6
Continuous
 62
     7
370
    25
100
AcDbSpline
210
0.0
220
0.0
230
1.0
 70
     8
 71
     3
 72
    15
 73
    11
 74
     0
 42
0.000000001
 43
0.00000001
 40
0.0
 40
0.0
 40
0.0
 40
0.0
 40
0.0753937583570198
 40
0.1646775096556915
 40
0.2685168199226873
 40
0.3858396248503125
 40
0.5181993080250914
 40
0.6638895416008646
 40
0.8247137914759941
 40
1.0
 40
1.0
 40
1.0
 40
1.0
 10
12.32458213290794
 20
-2.672887731481477
 30
0.0
 10
12.32043436701109
 20
-2.688305192396111
 30
0.0
 10
12.31137468125709
 20
-2.721980514119868
 30
0.0
 10
12.2921095398476
 20
-2.775500330459099
 30
0.0
 10
12.26891708528382
 20
-2.836986341298825
 30
0.0
 10
12.23938566376911
 20
-2.905770472211951
 30
0.0
 10
12.2049650935069
 20
-2.982057361108729
 30
0.0
 10
12.16513158856248
 20
-3.065991647939672
 30
0.0
 10
12.12017554659055
 20
-3.157541759535071
 30
0.0
 10
12.08764237669122
 20
-3.220817863570091
 30
0.0
 10
12.07067588290794
 20
-3.253817218660964
 30
0.0
  0
SPLINE
  5
7B
330
1F
100
AcDbEntity
  8
0
  6
Continuous
 62
     7
370
    25
100
AcDbSpline
210
0.0
220
0.0
230
1.0
 70
     8
 71
     3
 72
    23
 73
    19
 74
     0
 42
0.000000001
 43
0.00000001
 40
0.0
 40
0.0
 40
0.0
 40
0.0
 40
0.0697846423518411
 40
0.1366340412346873
 40
0.2014145100331605
 40
0.2641026388285865
 40
0.3251650052887126
 40
0.3855653630741059
 40
0.4449574812679329
 40
0.5046413861010346
 40
0.5643613177181299
 40
0.6237032712871986
 40
0.6833871761202996
 40
0.7435459973803281
 40
0.8051075894098058
 40
0.867903835365406
 40
0.9329849821481044
 40
1.0
 40
1.0
 40
1.0
 40
1.0
 10
11.99455408803614
 20
-1.945223468660964
 30
0.0
 10
12.01241737878393
 20
-1.954786708362979
 30
0.0
 10
12.04739260431155
 20
-1.973510944007756
 30
0.0
 10
12.09609673947288
 20
-2.005958754656931
 30
0.0
 10
12.14090827622927
 20
-2.040296664944684
 30
0.0
 10
12.18093368672708
 20
-2.07768307035754
 30
0.0
 10
12.21755493020003
 20
-2.116701072529836
 30
0.0
 10
12.24894464383299
 20
-2.158895967863946
 30
0.0
 10
12.27620966773072
 20
-2.203334129251523
 30
0.0
 10
12.29937732785148
 20
-2.249867472065314
 30
0.0
 10
12.31755235421023
 20
-2.298504897508101
 30
0.0
 10
12.33262042110428
 20
-2.34822493249214
 30
0.0
 10
12.34167966483001
 20
-2.399512637871263
 30
0.0
 10
12.34751229657362
 20
-2.451884409706287
 30
0.0
 10
12.34817125052244
 20
-2.505490690081634
 30
0.0
 10
12.34544225872322
 20
-2.560448115488929
 30
0.0
 10
12.33719319652141
 20
-2.616490794532749
 30
0.0
 10
12.32882664917586
 20
-2.653906167064984
 30
0.0
 10
12.32458213290794
 20
-2.672887731481477
 30
0.0
  0
SPLINE
  5
7C
330
1F
100
AcDbEntity
  8
0
  6
Continuous
 62
     7
370
    25
100
AcDbSpline
210
0.0
220
0.0
230
1.0
 70
     8
 71
     3
 72
    23
 73
    19
 74
     0
 42
0.000000001
 43
0.00000001
 40
0.0
 40
0.0
 40
0.0
 40
0.0
 40
0.0632133317935632
 40
0.1248090432985619
 40
0.1855545412921793
 40
0.2449976211895805
 40
0.3048409572046008
 40
0.3641950439592591
 40
0.4247718822160145
 40
0.4856771743517153
 40
0.5473143970676506
 40
0.6088103673406879
 40
0.6701397417587804
 40
0.7324373821423841
 40
0.7962307141791342
 40
0.8620111961739706
 40
0.9294732805487721
 40
1.0
 40
1.0
 40
1.0
 40
1.0
 10
11.2168096970105
 20
-2.087951834045579
 30
0.0
 10
11.22894004923075
 20
-2.074544814734865
 30
0.0
 10
11.25289033966041
 20
-2.048073859855913
 30
0.0
 10
11.29237027427689
 20
-2.012531403492389
 30
0.0
 10
11.33327736784561
 20
-1.98042567673642
 30
0.0
 10
11.37629249947796
 20
-1.952058102278731
 30
0.0
 10
11.42119713415517
 20
-1.927614540916255
 30
0.0
 10
11.46828538895385
 20
-1.906896982585993
 30
0.0
 10
11.51717132631573
 20
-1.889907630093396
 30
0.0
 10
11.56793500294008
 20
-1.876933049652727
 30
0.0
 10
11.61980036157843
 20
-1.867725934227257
 30
0.0
 10
11.67247013914743
 20
-1.863770730050045
 30
0.0
 10
11.72545568836532
 20
-1.864775531721914
 30
0.0
 10
11.77875655664778
 20
-1.870879805200776
 30
0.0
 10
11.83255491243901
 20
-1.881957668966821
 30
0.0
 10
11.88652108010288
 20
-1.898229376822674
 30
0.0
 10
11.94120016513712
 20
-1.918561166268991
 30
0.0
 10
11.97650805917086
 20
-1.936205412397487
 30
0.0
 10
11.99455408803614
 20
-1.945223468660964
 30
0.0
  0
SPLINE
  5
7D
330
1F
100
AcDbEntity
  8
0
  6
Continuous
 62
     7
370
    25
100
AcDbSpline
210
0.0
220
0.0
230
1.0
 70
     8
 71
     3
 72
    15
 73
    11
 74
     0
 42
0.000000001
 43
0.00000001
 40
0.0
 40
0.0
 40
0.0
 40
0.0
 40
0.1774387530321325
 40
0.3389943537458021
 40
0.4862854638675089
 40
0.6189345970830752
 40
0.7362499370441116
 40
0.8383270703794349
 40
0.9265247327881454
 40
0.9999999999999999
 40
0.9999999999999999
 40
0.9999999999999999
 40
0.9999999999999999
 10
10.92033533803615
 20
-2.581741898148144
 30
0.0
 10
10.9361528048622
 20
-2.551505532356956
 30
0.0
 10
10.96637186272281
 20
-2.493739361743996
 30
0.0
 10
11.01036871425445
 20
-2.411209556112708
 30
0.0
 10
11.05199894218507
 20
-2.337204827520413
 30
0.0
 10
11.09032334645448
 20
-2.271109749464423
 30
0.0
 10
11.12582383538832
 20
-2.213450395067516
 30
0.0
 10
11.15834503059368
 20
-2.164024517696327
 30
0.0
 10
11.18818966634654
 20
-2.122973284470898
 30
0.0
 10
11.20786697735978
 20
-2.09889476477101
 30
0.0
 10
11.2168096970105
 20
-2.087951834045579
 30
0.0
  0
SPLINE
  5
B9
330
1F
100
AcDbEntity
  8
0
  6
Continuous
 62
     7
370
    25
100
AcDbSpline
210
0.0
220
0.0
230
1.0
 70
     8
 71
     3
 72
    23
 73
    19
 74
     0
 42
0.000000001
 43
0.00000001
 40
0.0
 40
0.0
 40
0.0
 40
0.0
 40
0.0660619271637472
 40
0.1301034561777574
 40
0.1924997584874319
 40
0.2538759544378467
 40
0.3152565065882717
 40
0.3768809965605113
 40
0.4395646931919581
 40
0.5038132483106456
 40
0.5679711091227461
 40
0.6303269275955815
 40
0.6914236807066204
 40
0.7516629875083091
 40
0.8121640943150263
 40
0.8733546223449664
 40
0.9356465658063854
 40
1.0
 40
1.0
 40
1.0
 40
1.0
 10
12.13224086222396
 20
-5.796663550569789
 30
0.0
 10
12.11043762189699
 20
-5.836335529313562
 30
0.0
 10
12.06749795839941
 20
-5.914466182922586
 30
0.0
 10
11.99134852151825
 20
-6.022448556426208
 30
0.0
 10
11.90729064282211
 20
-6.120001463912579
 30
0.0
 10
11.81585215813884
 20
-6.208215552865009
 30
0.0
 10
11.71504756592313
 20
-6.284679050945178
 30
0.0
 10
11.60680405624881
 20
-6.351764854111579
 30
0.0
 10
11.4905808870357
 20
-6.40856701947685
 30
0.0
 10
11.36766625330244
 20
-6.454052282628574
 30
0.0
 10
11.24145303696881
 20
-6.488413581393466
 30
0.0
 10
11.11474310576551
 20
-6.510844963335421
 30
0.0
 10
10.98903681724185
 20
-6.52002045689992
 30
0.0
 10
10.86436744916723
 20
-6.515828605210639
 30
0.0
 10
10.74063789865295
 20
-6.499384607037859
 30
0.0
 10
10.61801367424692
 20
-6.469528591676882
 30
0.0
 10
10.49636786256852
 20
-6.426843666970361
 30
0.0
 10
10.418170094804
 20
-6.389206118441623
 30
0.0
 10
10.37843477248037
 20
-6.370081018518507
 30
0.0
  0
SPLINE
  5
BA
330
1F
100
AcDbEntity
  8
0
  6
Continuous
 62
     7
370
    25
100
AcDbSpline
210
0.0
220
0.0
230
1.0
 70
     8
 71
     3
 72
    23
 73
    19
 74
     0
 42
0.000000001
 43
0.00000001
 40
0.0
 40
0.0
 40
0.0
 40
0.0
 40
0.0651071743853054
 40
0.1283349653550893
 40
0.1899700641709269
 40
0.2511049670129417
 40
0.3119234528509304
 40
0.3733466108441245
 40
0.4358488435037655
 40
0.5000206662948194
 40
0.5643368848079434
 40
0.6268168268306192
 40
0.6880834505963441
 40
0.7489891028165023
 40
0.8099331854628469
 40
0.8716394098569198
 40
0.9348564188209214
 40
1.0
 40
1.0
 40
1.0
 40
1.0
 10
11.56934022119832
 20
-4.037348646723635
 30
0.0
 10
11.60854527708799
 20
-4.05877079317339
 30
0.0
 10
11.68582369589281
 20
-4.100996714485705
 30
0.0
 10
11.79199613520019
 20
-4.176961365050956
 30
0.0
 10
11.88903376560953
 20
-4.259918908980276
 30
0.0
 10
11.97624176492481
 20
-4.351090834289034
 30
0.0
 10
12.05195873165755
 20
-4.451764008894866
 30
0.0
 10
12.11847394059371
 20
-4.559787008949263
 30
0.0
 10
12.17464152215986
 20
-4.676129176751562
 30
0.0
 10
12.22029007318065
 20
-4.799052871146096
 30
0.0
 10
12.25474997871062
 20
-4.925586526276126
 30
0.0
 10
12.27630700238827
 20
-5.052900533361765
 30
0.0
 10
12.28589712628341
 20
-5.179388495598447
 30
0.0
 10
12.28090646972751
 20
-5.305066408945152
 30
0.0
 10
12.26425565806998
 20
-5.430061172965251
 30
0.0
 10
12.232809451963
 20
-5.553764950932922
 30
0.0
 10
12.19026678872888
 20
-5.67722733721694
 30
0.0
 10
12.15177541090028
 20
-5.756455101278432
 30
0.0
 10
12.13224086222396
 20
-5.796663550569789
 30
0.0
  0
SPLINE
  5
BB
330
1F
100
AcDbEntity
  8
0
  6
Continuous
 62
     7
370
    25
100
AcDbSpline
210
0.0
220
0.0
230
1.0
 70
     8
 71
     3
 72
    23
 73
    19
 74
     0
 42
0.000000001
 43
0.00000001
 40
0.0
 40
0.0
 40
0.0
 40
0.0
 40
0.0666645352141326
 40
0.1311102658880619
 40
0.1937509428749903
 40
0.2553409335813921
 40
0.3165285212652049
 40
0.3776423571203028
 40
0.4397835628004872
 40
0.5032259467989146
 40
0.5667196766572621
 40
0.6286676695600028
 40
0.6893558129473483
 40
0.7497030724878916
 40
0.81036052363652
 40
0.871969408427485
 40
0.9349145224409383
 40
1.0
 40
1.0
 40
1.0
 40
1.0
 10
9.80151169555729
 20
-4.616274928774917
 30
0.0
 10
9.823613540823482
 20
-4.575745177043158
 30
0.0
 10
9.867081612717476
 20
-4.496034630665547
 30
0.0
 10
9.94448845907152
 20
-4.386225626426469
 30
0.0
 10
10.02872691138838
 20
-4.286246842813236
 30
0.0
 10
10.12138866662508
 20
-4.197142967533055
 30
0.0
 10
10.22183651344955
 20
-4.118635640269502
 30
0.0
 10
10.33047581249157
 20
-4.051205195228307
 30
0.0
 10
10.44653030102245
 20
-3.994000471245099
 30
0.0
 10
10.5691204838162
 20
-3.947650159382293
 30
0.0
 10
10.69547924791051
 20
-3.913533136423148
 30
0.0
 10
10.82249212654159
 20
-3.890912917706715
 30
0.0
 10
10.94908455483735
 20
-3.882464064087578
 30
0.0
 10
11.07495042915627
 20
-3.886947729796854
 30
0.0
 10
11.20031953301039
 20
-3.904629356671744
 30
0.0
 10
11.32489778090644
 20
-3.935501400118944
 30
0.0
 10
11.44901806744554
 20
-3.978995716992404
 30
0.0
 10
11.52878831439351
 20
-4.017682089116044
 30
0.0
 10
11.56934022119832
 20
-4.037348646723635
 30
0.0
  0
SPLINE
  5
BC
330
1F
100
AcDbEntity
  8
0
  6
Continuous
 62
     7
370
    25
100
AcDbSpline
210
0.0
220
0.0
230
1.0
 70
     8
 71
     3
 72
    31
 73
    27
 74
     0
 42
0.000000001
 43
0.00000001
 40
0.0
 40
0.0
 40
0.0
 40
0.0
 40
0.0432190327485064
 40
0.085893380869716
 40
0.1281266422337811
 40
0.1699909112635783
 40
0.2117257607768634
 40
0.2534990513216094
 40
0.2954611855625546
 40
0.3380064824707879
 40
0.3805748279947195
 40
0.422125523932708
 40
0.4634926835645258
 40
0.5046754889458666
 40
0.5455685770094888
 40
0.586506705527685
 40
0.6279191077547563
 40
0.6697514147140095
 40
0.7114506390825064
 40
0.7529576754107868
 40
0.7936956483142075
 40
0.8345851019212552
 40
0.8753289114195559
 40
0.9166558138310181
 40
0.9579020839262765
 40
1.0
 40
1.0
 40
1.0
 40
1.0
 10
10.37843477248037
 20
-6.370081018518507
 30
0.0
 10
10.35233033716825
 20
-6.356113852026452
 30
0.0
 10
10.30045045781739
 20
-6.328355545676699
 30
0.0
 10
10.22712164407382
 20
-6.280070478582637
 30
0.0
 10
10.15648076333297
 20
-6.229528196107836
 30
0.0
 10
10.09114207774283
 20
-6.173268420093315
 30
0.0
 10
10.02843887150827
 20
-6.114551648855826
 30
0.0
 10
9.971210043976663
 20
-6.050381766897685
 30
0.0
 10
9.916568393892826
 20
-5.983316875100922
 30
0.0
 10
9.86693052319882
 20
-5.911774353033017
 30
0.0
 10
9.821491128558534
 20
-5.837841155145852
 30
0.0
 10
9.781824836874044
 20
-5.761569360185885
 30
0.0
 10
9.746854683343365
 20
-5.684046791126549
 30
0.0
 10
9.718758486732723
 20
-5.60426027211131
 30
0.0
 10
9.694854076577963
 20
-5.523453540105909
 30
0.0
 10
9.676814123277422
 20
-5.440945582025087
 30
0.0
 10
9.664312970709972
 20
-5.356780939216694
 30
0.0
 10
9.657426976223025
 20
-5.27146061413213
 30
0.0
 10
9.655685974935617
 20
-5.185796751935572
 30
0.0
 10
9.660465463163302
 20
-5.101006589549712
 30
0.0
 10
9.669870550538896
 20
-5.017177720229318
 30
0.0
 10
9.684896652783967
 20
-4.934686469158633
 30
0.0
 10
9.70547069577025
 20
-4.85297644374745
 30
0.0
 10
9.732117648309513
 20
-4.772802277790392
 30
0.0
 10
9.763679399439134
 20
-4.69341058769012
 30
0.0
 10
9.788815313733453
 20
-4.642161377082527
 30
0.0
 10
9.80151169555729
 20
-4.616274928774917
 30
0.0
  0
SPLINE
  5
C4
330
1F
100
AcDbEntity
  8
0
  6
Continuous
 62
     7
370
    25
100
AcDbSpline
210
0.0
220
0.0
230
1.0
 70
     8
 71
     3
 72
    15
 73
    11
 74
     0
 42
0.000000001
 43
0.00000001
 40
0.0
 40
0.0
 40
0.0
 40
0.0
 40
0.0753937583570195
 40
0.1646775096556919
 40
0.2685168199226877
 40
0.3858396248503123
 40
0.5181993080250913
 40
0.6638895416008649
 40
0.8247137914759944
 40
1.0
 40
1.0
 40
1.0
 40
1.0
 10
13.2643213068379
 20
-0.8495259081196561
 30
0.0
 10
13.26017354094105
 20
-0.8649433690342896
 30
0.0
 10
13.25111385518705
 20
-0.8986186907580462
 30
0.0
 10
13.23184871377757
 20
-0.9521385070972784
 30
0.0
 10
13.20865625921378
 20
-1.013624517937004
 30
0.0
 10
13.17912483769907
 20
-1.08240864885013
 30
0.0
 10
13.14470426743685
 20
-1.158695537746907
 30
0.0
 10
13.10487076249244
 20
-1.242629824577851
 30
0.0
 10
13.05991472052051
 20
-1.33417993617325
 30
0.0
 10
13.02738155062117
 20
-1.39745604020827
 30
0.0
 10
13.0104150568379
 20
-1.430455395299143
 30
0.0
  0
SPLINE
  5
C5
330
1F
100
AcDbEntity
  8
0
  6
Continuous
 62
     7
370
    25
100
AcDbSpline
210
0.0
220
0.0
230
1.0
 70
     8
 71
     3
 72
    23
 73
    19
 74
     0
 42
0.000000001
 43
0.00000001
 40
0.0
 40
0.0
 40
0.0
 40
0.0
 40
0.0697846423518411
 40
0.1366340412346873
 40
0.2014145100331605
 40
0.2641026388285865
 40
0.3251650052887126
 40
0.3855653630741059
 40
0.4449574812679329
 40
0.5046413861010346
 40
0.5643613177181299
 40
0.6237032712871986
 40
0.6833871761202996
 40
0.7435459973803281
 40
0.8051075894098055
 40
0.8679038353654063
 40
0.9329849821481042
 40
1.0
 40
1.0
 40
1.0
 40
1.0
 10
12.9342932619661
 20
-0.1218616452991431
 30
0.0
 10
12.95215655271389
 20
-0.1314248850011582
 30
0.0
 10
12.98713177824151
 20
-0.1501491206459347
 30
0.0
 10
13.03583591340283
 20
-0.18259693129511
 30
0.0
 10
13.08064745015923
 20
-0.2169348415828631
 30
0.0
 10
13.12067286065703
 20
-0.254321246995719
 30
0.0
 10
13.15729410412999
 20
-0.2933392491680154
 30
0.0
 10
13.18868381776296
 20
-0.3355341445021252
 30
0.0
 10
13.21594884166068
 20
-0.3799723058897023
 30
0.0
 10
13.23911650178144
 20
-0.4265056487034937
 30
0.0
 10
13.25729152814019
 20
-0.47514307414628
 30
0.0
 10
13.27235959503424
 20
-0.5248631091303189
 30
0.0
 10
13.28141883875997
 20
-0.5761508145094419
 30
0.0
 10
13.28725147050358
 20
-0.6285225863444656
 30
0.0
 10
13.2879104244524
 20
-0.6821288667198135
 30
0.0
 10
13.28518143265319
 20
-0.7370862921271086
 30
0.0
 10
13.27693237045137
 20
-0.7931289711709273
 30
0.0
 10
13.26856582310581
 20
-0.8305443437031634
 30
0.0
 10
13.2643213068379
 20
-0.8495259081196561
 30
0.0
  0
SPLINE
  5
C6
330
1F
100
AcDbEntity
  8
0
  6
Continuous
 62
     7
370
    25
100
AcDbSpline
210
0.0
220
0.0
230
1.0
 70
     8
 71
     3
 72
    23
 73
    19
 74
     0
 42
0.000000001
 43
0.00000001
 40
0.0
 40
0.0
 40
0.0
 40
0.0
 40
0.0632133317935632
 40
0.1248090432985619
 40
0.1855545412921793
 40
0.2449976211895805
 40
0.3048409572046008
 40
0.3641950439592591
 40
0.4247718822160145
 40
0.4856771743517153
 40
0.5473143970676506
 40
0.6088103673406879
 40
0.6701397417587804
 40
0.7324373821423841
 40
0.7962307141791342
 40
0.8620111961739706
 40
0.9294732805487721
 40
1.0
 40
1.0
 40
1.0
 40
1.0
 10
12.15654887094046
 20
-0.2645900106837584
 30
0.0
 10
12.1686792231607
 20
-0.2511829913730439
 30
0.0
 10
12.19262951359037
 20
-0.2247120364940918
 30
0.0
 10
12.23210944820685
 20
-0.189169580130568
 30
0.0
 10
12.27301654177557
 20
-0.1570638533745985
 30
0.0
 10
12.31603167340792
 20
-0.12869627891691
 30
0.0
 10
12.36093630808513
 20
-0.1042527175544337
 30
0.0
 10
12.40802456288381
 20
-0.0835351592241718
 30
0.0
 10
12.45691050024569
 20
-0.0665458067315752
 30
0.0
 10
12.50767417687004
 20
-0.0535712262909065
 30
0.0
 10
12.55953953550839
 20
-0.0443641108654364
 30
0.0
 10
12.61220931307739
 20
-0.0404089066882246
 30
0.0
 10
12.66519486229527
 20
-0.0414137083600929
 30
0.0
 10
12.71849573057774
 20
-0.0475179818389554
 30
0.0
 10
12.77229408636897
 20
-0.0585958456050001
 30
0.0
 10
12.82626025403284
 20
-0.0748675534608533
 30
0.0
 10
12.88093933906708
 20
-0.09519934290717
 30
0.0
 10
12.91624723310082
 20
-0.1128435890356669
 30
0.0
 10
12.9342932619661
 20
-0.1218616452991431
 30
0.0
  0
SPLINE
  5
C7
330
1F
100
AcDbEntity
  8
0
  6
Continuous
 62
     7
370
    25
100
AcDbSpline
210
0.0
220
0.0
230
1.0
 70
     8
 71
     3
 72
    15
 73
    11
 74
     0
 42
0.000000001
 43
0.00000001
 40
0.0
 40
0.0
 40
0.0
 40
0.0
 40
0.1774387530321326
 40
0.3389943537458018
 40
0.4862854638675088
 40
0.6189345970830751
 40
0.7362499370441115
 40
0.8383270703794348
 40
0.9265247327881454
 40
1.0
 40
1.0
 40
1.0
 40
1.0
 10
11.86007451196611
 20
-0.7583800747863227
 30
0.0
 10
11.87589197879216
 20
-0.728143708995136
 30
0.0
 10
11.90611103665277
 20
-0.6703775383821757
 30
0.0
 10
11.95010788818441
 20
-0.5878477327508871
 30
0.0
 10
11.99173811611502
 20
-0.5138430041585925
 30
0.0
 10
12.03006252038444
 20
-0.4477479261026028
 30
0.0
 10
12.06556300931828
 20
-0.3900885717056951
 30
0.0
 10
12.09808420452364
 20
-0.3406626943345067
 30
0.0
 10
12.12792884027649
 20
-0.2996114611090767
 30
0.0
 10
12.14760615128974
 20
-0.2755329414091885
 30
0.0
 10
12.15654887094046
 20
-0.2645900106837584
 30
0.0
  0
SPLINE
  5
CA
330
1F
100
AcDbEntity
  8
0
  6
Continuous
 62
     7
370
    25
100
AcDbSpline
210
0.0
220
0.0
230
1.0
 70
     8
 71
     3
 72
    23
 73
    19
 74
     0
 42
0.000000001
 43
0.00000001
 40
0.0
 40
0.0
 40
0.0
 40
0.0
 40
0.0617393976744051
 40
0.1218666881973361
 40
0.1813463078486131
 40
0.2407897388742137
 40
0.30026935852549
 40
0.3609736449163283
 40
0.4238595320118758
 40
0.4887030169917578
 40
0.5538461339213993
 40
0.6176812507625521
 40
0.6803889516821056
 40
0.7426109262869888
 40
0.8049331112843794
 40
0.8681636559571838
 40
0.9331612680021145
 40
0.9999999999999999
 40
0.9999999999999999
 40
0.9999999999999999
 40
0.9999999999999999
 10
16.17374550145183
 20
3.507167022792024
 30
0.0
 10
16.19319436921855
 20
3.496385429325729
 30
0.0
 10
16.23158426599752
 20
3.475103765773443
 30
0.0
 10
16.28433692359188
 20
3.436426050720667
 30
0.0
 10
16.3328465234827
 20
3.393881335197313
 30
0.0
 10
16.37603753209598
 20
3.346162782164948
 30
0.0
 10
16.41371439374301
 20
3.293496383144953
 30
0.0
 10
16.44695267083349
 20
3.236520952986197
 30
0.0
 10
16.47562878990137
 20
3.174933756950011
 30
0.0
 10
16.4980992314788
 20
3.109168495822384
 30
0.0
 10
16.5158795493646
 20
3.041637544255375
 30
0.0
 10
16.52642402119646
 20
2.973331410952748
 30
0.0
 10
16.52990225099691
 20
2.905376800422346
 30
0.0
 10
16.52682294546157
 20
2.837978386666919
 30
0.0
 10
16.51759915861977
 20
2.770887431291124
 30
0.0
 10
16.49992237197802
 20
2.704516843671184
 30
0.0
 10
16.47669671835225
 20
2.638148663898574
 30
0.0
 10
16.45611511321533
 20
2.595364340439413
 30
0.0
 10
16.44568059760568
 20
2.573673433048435
 30
0.0
  0
SPLINE
  5
CB
330
1F
100
AcDbEntity
  8
0
  6
Continuous
 62
     7
370
    25
100
AcDbSpline
210
0.0
220
0.0
230
1.0
 70
     8
 71
     3
 72
    23
 73
    19
 74
     0
 42
0.000000001
 43
0.00000001
 40
0.0
 40
0.0
 40
0.0
 40
0.0
 40
0.0958703507165908
 40
0.1860832562945216
 40
0.2698177237724329
 40
0.3487229885655994
 40
0.4212008929101392
 40
0.488646067105278
 40
0.5507358807407992
 40
0.6075237088142232
 40
0.6609748741218963
 40
0.7128348249062633
 40
0.763297858603768
 40
0.8121222744128392
 40
0.859970229433862
 40
0.9071869917682723
 40
0.9536040081746556
 40
1.0
 40
1.0
 40
1.0
 40
1.0
 10
15.20669822581081
 20
3.372952279202281
 30
0.0
 10
15.23582036107333
 20
3.387169237315081
 30
0.0
 10
15.29234609316247
 20
3.414764190712646
 30
0.0
 10
15.37580328891614
 20
3.45158856593055
 30
0.0
 10
15.45490546578128
 20
3.48396902604924
 30
0.0
 10
15.5294511519143
 20
3.511584324039335
 30
0.0
 10
15.60005206350417
 20
3.533748107864568
 30
0.0
 10
15.6660599777402
 20
3.551258117240761
 30
0.0
 10
15.72761158250617
 20
3.564836041659101
 30
0.0
 10
15.78545254754635
 20
3.572271293818528
 30
0.0
 10
15.8401571346219
 20
3.575691817442125
 30
0.0
 10
15.89283357324594
 20
3.576398486956213
 30
0.0
 10
15.94389270265345
 20
3.57347267192184
 30
0.0
 10
15.9932079889863
 20
3.56678686125037
 30
0.0
 10
16.04097874291203
 20
3.557442310818834
 30
0.0
 10
16.08703885922318
 20
3.544406288217461
 30
0.0
 10
16.13149509945348
 20
3.5279337116123
 30
0.0
 10
16.15966416112952
 20
3.514088206942116
 30
0.0
 10
16.17374550145183
 20
3.507167022792024
 30
0.0
  0
SPLINE
  5
CC
330
1F
100
AcDbEntity
  8
0
  6
Continuous
 62
     7
370
    25
100
AcDbSpline
210
0.0
220
0.0
230
1.0
 70
     8
 71
     3
 72
    15
 73
    11
 74
     0
 42
0.000000001
 43
0.00000001
 40
0.0
 40
0.0
 40
0.0
 40
0.0
 40
0.0526214816609346
 40
0.1249194762688768
 40
0.2187287199840807
 40
0.3339244481805434
 40
0.4689149281891191
 40
0.6248258172832059
 40
0.8022357331015776
 40
1.0
 40
1.0
 40
1.0
 40
1.0
 10
14.83810848222107
 20
3.201678240740742
 30
0.0
 10
14.84481259200476
 20
3.204115527384086
 30
0.0
 10
14.86072764906121
 20
3.209901464256133
 30
0.0
 10
14.88780209215792
 20
3.22200747914383
 30
0.0
 10
14.9230188807654
 20
3.236609526939176
 30
0.0
 10
14.96525435735664
 20
3.256372256176101
 30
0.0
 10
15.01499233047122
 20
3.27992434263427
 30
0.0
 10
15.0720308595778
 20
3.307761945874361
 30
0.0
 10
15.13719792389393
 20
3.338323966930554
 30
0.0
 10
15.18270843028035
 20
3.360999437156251
 30
0.0
 10
15.20669822581081
 20
3.372952279202281
 30
0.0
  0
SPLINE
  5
CD
330
1F
100
AcDbEntity
  8
0
  6
Continuous
 62
     7
370
    25
100
AcDbSpline
210
0.0
220
0.0
230
1.0
 70
     8
 71
     3
 72
    15
 73
    11
 74
     0
 42
0.000000001
 43
0.00000001
 40
0.0
 40
0.0
 40
0.0
 40
0.0
 40
0.1085072782033326
 40
0.2185839840430172
 40
0.3267101920780571
 40
0.4384410357650168
 40
0.5576392432375854
 40
0.6900212323355136
 40
0.8366512271576202
 40
1.0
 40
1.0
 40
1.0
 40
1.0
 10
14.4790339629903
 20
3.210191862535614
 30
0.0
 10
14.49111575635595
 20
3.204438218791761
 30
0.0
 10
14.51545409173749
 20
3.192847711748179
 30
0.0
 10
14.55373096539425
 20
3.17997877581256
 30
0.0
 10
14.59354215483622
 20
3.171395265238942
 30
0.0
 10
14.63515184283974
 20
3.166667352613328
 30
0.0
 10
14.68005366387651
 20
3.167329035034124
 30
0.0
 10
14.72876525513845
 20
3.173832771934994
 30
0.0
 10
14.78223144260942
 20
3.184819141108933
 30
0.0
 10
14.81882490991751
 20
3.195860042980403
 30
0.0
 10
14.83810848222107
 20
3.201678240740742
 30
0.0
  0
SPLINE
  5
CE
330
1F
100
AcDbEntity
  8
0
  6
Continuous
 62
     7
370
    25
100
AcDbSpline
210
0.0
220
0.0
230
1.0
 70
     8
 71
     3
 72
    15
 73
    11
 74
     0
 42
0.000000001
 43
0.00000001
 40
0.0
 40
0.0
 40
0.0
 40
0.0
 40
0.1390298514342162
 40
0.2673528802053174
 40
0.3926307948872257
 40
0.5171507036013262
 40
0.6398799459458606
 40
0.757984364765889
 40
0.8765280682754854
 40
1.0
 40
1.0
 40
1.0
 40
1.0
 10
14.35483524504158
 20
3.658409009971511
 30
0.0
 10
14.34461737288233
 20
3.636524600223551
 30
0.0
 10
14.32496851673264
 20
3.594441120184165
 30
0.0
 10
14.31027969603848
 20
3.527460616945411
 30
0.0
 10
14.30837065820892
 20
3.461541135079188
 30
0.0
 10
14.3207075407915
 20
3.397694445338969
 30
0.0
 10
14.34455861108077
 20
3.338600754021932
 30
0.0
 10
14.37929275073128
 20
3.28647876202848
 30
0.0
 10
14.42403677994771
 20
3.242030262527667
 30
0.0
 10
14.46045437494525
 20
3.220947765349899
 30
0.0
 10
14.4790339629903
 20
3.210191862535614
 30
0.0
  0
SPLINE
  5
CF
330
1F
100
AcDbEntity
  8
0
  6
Continuous
 62
     7
370
    25
100
AcDbSpline
210
0.0
220
0.0
230
1.0
 70
     8
 71
     3
 72
    19
 73
    15
 74
     0
 42
0.000000001
 43
0.00000001
 40
0.0
 40
0.0
 40
0.0
 40
0.0
 40
0.0989717960885784
 40
0.1905358223958287
 40
0.2754547920743479
 40
0.3538039747579205
 40
0.4259519542812072
 40
0.4917884110545541
 40
0.5506860957904014
 40
0.6041276699417156
 40
0.7034838390443301
 40
0.8009503921918554
 40
0.899622196317537
 40
1.0
 40
1.0
 40
1.0
 40
1.0
 10
14.83410207196466
 20
3.922832086894588
 30
0.0
 10
14.81554465081379
 20
3.919638221645509
 30
0.0
 10
14.77981878101789
 20
3.91348954327546
 30
0.0
 10
14.7286168608439
 20
3.902272808157992
 30
0.0
 10
14.68151506615319
 20
3.890802702156754
 30
0.0
 10
14.63829696927456
 20
3.878996662964877
 30
0.0
 10
14.59926427533065
 20
3.865894029907821
 30
0.0
 10
14.5642587485817
 20
3.852550871421674
 30
0.0
 10
14.53331520028277
 20
3.838617765686812
 30
0.0
 10
14.49827832345517
 20
3.818668313386569
 30
0.0
 10
14.45953277436028
 20
3.790755278239961
 30
0.0
 10
14.41828175030746
 20
3.752344381688566
 30
0.0
 10
14.38294044761365
 20
3.708027541267448
 30
0.0
 10
14.36425702273451
 20
3.675042754920383
 30
0.0
 10
14.35483524504158
 20
3.658409009971511
 30
0.0
  0
SPLINE
  5
D1
330
1F
100
AcDbEntity
  8
0
  6
Continuous
 62
     7
370
    25
100
AcDbSpline
210
0.0
220
0.0
230
1.0
 70
     8
 71
     3
 72
    19
 73
    15
 74
     0
 42
0.000000001
 43
0.00000001
 40
0.0
 40
0.0
 40
0.0
 40
0.0
 40
0.1077778434169134
 40
0.2140197722099926
 40
0.3199441245709113
 40
0.4279115192177077
 40
0.4844242364355776
 40
0.5452678954492742
 40
0.6095964410399565
 40
0.678279114908126
 40
0.7519230294003979
 40
0.8297228764826517
 40
0.9125844358557801
 40
0.9999999999999999
 40
0.9999999999999999
 40
0.9999999999999999
 40
0.9999999999999999
 10
14.12897386683645
 20
3.781105324074076
 30
0.0
 10
14.14321719009067
 20
3.80620455660502
 30
0.0
 10
14.17150085862344
 20
3.85604533889029
 30
0.0
 10
14.22463725948676
 20
3.923603109260283
 30
0.0
 10
14.28646620108476
 20
3.983144190014651
 30
0.0
 10
14.34464689497278
 20
4.026537117796049
 30
0.0
 10
14.39669031264492
 20
4.057017816659173
 30
0.0
 10
14.44006283140579
 20
4.079013421599424
 30
0.0
 10
14.48791213991274
 20
4.099132647433538
 30
0.0
 10
14.5403117049621
 20
4.116805994605177
 30
0.0
 10
14.59663437520585
 20
4.134035325617324
 30
0.0
 10
14.6575640131065
 20
4.148832103052357
 30
0.0
 10
14.72253496341446
 20
4.162392882803813
 30
0.0
 10
14.76746600618053
 20
4.169886508894184
 30
0.0
 10
14.79053236042619
 20
4.173733529202281
 30
0.0
  0
SPLINE
  5
D2
330
1F
100
AcDbEntity
  8
0
  6
Continuous
 62
     7
370
    25
100
AcDbSpline
210
0.0
220
0.0
230
1.0
 70
     8
 71
     3
 72
    19
 73
    15
 74
     0
 42
0.000000001
 43
0.00000001
 40
0.0
 40
0.0
 40
0.0
 40
0.0
 40
0.084624524028521
 40
0.1671978195589812
 40
0.2484803918598536
 40
0.3302764564808464
 40
0.4118538497363794
 40
0.4928828645889096
 40
0.5745862840173844
 40
0.6588062560036781
 40
0.743868693477868
 40
0.8279800032503932
 40
0.9128793294767543
 40
1.0
 40
1.0
 40
1.0
 40
1.0
 10
14.37036008478517
 20
2.976818465099717
 30
0.0
 10
14.34724029908263
 20
2.989701116454746
 30
0.0
 10
14.30156113216841
 20
3.015154154346856
 30
0.0
 10
14.24092914299472
 20
3.064102015023761
 30
0.0
 10
14.18712665853223
 20
3.119010177302654
 30
0.0
 10
14.14157461892468
 20
3.180653943733891
 30
0.0
 10
14.10479724749101
 20
3.247826645117107
 30
0.0
 10
14.0783197722655
 20
3.319607403753829
 30
0.0
 10
14.06075223745066
 20
3.394968423463726
 30
0.0
 10
14.05498064134549
 20
3.473346194225277
 30
0.0
 10
14.05736419284007
 20
3.552653855956077
 30
0.0
 10
14.07157167092656
 20
3.630917140177083
 30
0.0
 10
14.09419453272358
 20
3.707915970247791
 30
0.0
 10
14.11728137973996
 20
3.75649974731296
 30
0.0
 10
14.12897386683645
 20
3.781105324074076
 30
0.0
  0
SPLINE
  5
D3
330
1F
100
AcDbEntity
  8
0
  6
Continuous
 62
     7
370
    25
100
AcDbSpline
210
0.0
220
0.0
230
1.0
 70
     8
 71
     3
 72
    15
 73
    11
 74
     0
 42
0.000000001
 43
0.00000001
 40
0.0
 40
0.0
 40
0.0
 40
0.0
 40
0.1318472833458799
 40
0.2603459542023173
 40
0.3862154583860665
 40
0.5090052115223329
 40
0.631946838251753
 40
0.7537907499095367
 40
0.8759222389300998
 40
1.0
 40
1.0
 40
1.0
 40
1.0
 10
14.76899790529799
 20
2.91972711894587
 30
0.0
 10
14.75116634327977
 20
2.917112808899691
 30
0.0
 10
14.71595609919479
 20
2.911950586165317
 30
0.0
 10
14.6631961005945
 20
2.909103314889894
 30
0.0
 10
14.6116217038618
 20
2.909966730544769
 30
0.0
 10
14.56106929416779
 20
2.915127002978258
 30
0.0
 10
14.51151633771136
 20
2.923800762820626
 30
0.0
 10
14.46334571648218
 20
2.937857380569074
 30
0.0
 10
14.41578594781454
 20
2.954439852877736
 30
0.0
 10
14.38558162701991
 20
2.969319719487081
 30
0.0
 10
14.37036008478517
 20
2.976818465099717
 30
0.0
  0
SPLINE
  5
D4
330
1F
100
AcDbEntity
  8
0
  6
Continuous
 62
     7
370
    25
100
AcDbSpline
210
0.0
220
0.0
230
1.0
 70
     8
 71
     3
 72
    15
 73
    11
 74
     0
 42
0.000000001
 43
0.00000001
 40
0.0
 40
0.0
 40
0.0
 40
0.0
 40
0.1814112200060555
 40
0.3455369551512516
 40
0.4945919808727168
 40
0.6264747174501732
 40
0.7437796298638896
 40
0.8450275616815371
 40
0.929787650212226
 40
1.0
 40
1.0
 40
1.0
 40
1.0
 10
15.24826473222107
 20
3.108028400997153
 30
0.0
 10
15.22009741696094
 20
3.094578247226729
 30
0.0
 10
15.16644666509761
 20
3.068959516588166
 30
0.0
 10
15.08895936577671
 20
3.033776622277261
 30
0.0
 10
15.01875388138718
 20
3.00317069142718
 30
0.0
 10
14.95516788615627
 20
2.977645404806704
 30
0.0
 10
14.89897247848159
 20
2.955723636882543
 30
0.0
 10
14.84938856300001
 20
2.939470688351742
 30
0.0
 10
14.80717244131822
 20
2.926533287201577
 30
0.0
 10
14.78090068034146
 20
2.92184927413363
 30
0.0
 10
14.76899790529799
 20
2.91972711894587
 30
0.0
  0
SPLINE
  5
D5
330
1F
100
AcDbEntity
  8
0
  6
Continuous
 62
     7
370
    25
100
AcDbSpline
210
0.0
220
0.0
230
1.0
 70
     8
 71
     3
 72
    15
 73
    11
 74
     0
 42
0.000000001
 43
0.00000001
 40
0.0
 40
0.0
 40
0.0
 40
0.0
 40
0.0910388947602968
 40
0.1911550942896523
 40
0.3014973935709257
 40
0.4204025955855654
 40
0.5499286197365434
 40
0.6902136880416891
 40
0.8398026835947761
 40
1.0
 40
1.0
 40
1.0
 40
1.0
 10
15.79864534119543
 20
3.303340900997152
 30
0.0
 10
15.78107238223063
 20
3.300568261774559
 30
0.0
 10
15.74417429996908
 20
3.294746529058872
 30
0.0
 10
15.68691413808519
 20
3.280720976922769
 30
0.0
 10
15.62514717069471
 20
3.26268920624935
 30
0.0
 10
15.55865855096781
 20
3.240466792056429
 30
0.0
 10
15.48756283557779
 20
3.213767556756908
 30
0.0
 10
15.41166649653461
 20
3.182881500014401
 30
0.0
 10
15.33140628469396
 20
3.146965127271813
 30
0.0
 10
15.27660413126418
 20
3.12130026555236
 30
0.0
 10
15.24826473222107
 20
3.108028400997153
 30
0.0
  0
SPLINE
  5
D6
330
1F
100
AcDbEntity
  8
0
  6
Continuous
 62
     7
370
    25
100
AcDbSpline
210
0.0
220
0.0
230
1.0
 70
     8
 71
     3
 72
    11
 73
     7
 74
     0
 42
0.000000001
 43
0.00000001
 40
0.0
 40
0.0
 40
0.0
 40
0.0
 40
0.2371828642837574
 40
0.4791365502726909
 40
0.7309579432726284
 40
1.0
 40
1.0
 40
1.0
 40
1.0
 10
16.05505559760568
 20
3.265780804843307
 30
0.0
 10
16.0361160897481
 20
3.274531901297848
 30
0.0
 10
15.99785611474464
 20
3.292210118394157
 30
0.0
 10
15.93467140169136
 20
3.305390780306042
 30
0.0
 10
15.86770146804989
 20
3.310323910780538
 30
0.0
 10
15.82216587909108
 20
3.305719316261912
 30
0.0
 10
15.79864534119543
 20
3.303340900997152
 30
0.0
  0
SPLINE
  5
D7
330
1F
100
AcDbEntity
  8
0
  6
Continuous
 62
     7
370
    25
100
AcDbSpline
210
0.0
220
0.0
230
1.0
 70
     8
 71
     3
 72
    19
 73
    15
 74
     0
 42
0.000000001
 43
0.00000001
 40
0.0
 40
0.0
 40
0.0
 40
0.0
 40
0.0891005043302941
 40
0.1764685626585852
 40
0.263478822507305
 40
0.3515551659513517
 40
0.438994608284193
 40
0.5229979939514554
 40
0.6041939671378397
 40
0.6861420660338758
 40
0.7661933549016329
 40
0.8442451830502835
 40
0.9217220113162221
 40
1.0
 40
1.0
 40
1.0
 40
1.0
 10
16.21981921940055
 20
2.663316862535614
 30
0.0
 10
16.22866487525386
 20
2.681979452857655
 30
0.0
 10
16.246184194431
 20
2.718941763165218
 30
0.0
 10
16.26357474605388
 20
2.777659114576196
 30
0.0
 10
16.27363667950737
 20
2.837716136486343
 30
0.0
 10
16.27646155766835
 20
2.89853943786001
 30
0.0
 10
16.27302856907191
 20
2.958704064183131
 30
0.0
 10
16.26072806869519
 20
3.016082646779783
 30
0.0
 10
16.24170058555254
 20
3.070255572587027
 30
0.0
 10
16.21451343564586
 20
3.11980688955924
 30
0.0
 10
16.18192989530115
 20
3.164973613771706
 30
0.0
 10
16.14471193643039
 20
3.20505103850083
 30
0.0
 10
16.10226074577687
 20
3.23905708608604
 30
0.0
 10
16.07084451251596
 20
3.256842404310923
 30
0.0
 10
16.05505559760568
 20
3.265780804843307
 30
0.0
  0
SPLINE
  5
D8
330
1F
100
AcDbEntity
  8
0
  6
Continuous
 62
     7
370
    25
100
AcDbSpline
210
0.0
220
0.0
230
1.0
 70
     8
 71
     3
 72
    15
 73
    11
 74
     0
 42
0.000000001
 43
0.00000001
 40
0.0
 40
0.0
 40
0.0
 40
0.0
 40
0.1615079343475269
 40
0.3089550600504669
 40
0.4443362257195091
 40
0.5683131134877546
 40
0.6825096026655051
 40
0.7908232230331961
 40
0.8956915155406935
 40
1.0
 40
1.0
 40
1.0
 40
1.0
 10
15.61785607837491
 20
2.393885772792024
 30
0.0
 10
15.65512712432819
 20
2.39544888246943
 30
0.0
 10
15.72642441561704
 20
2.398439018193718
 30
0.0
 10
15.82825590333995
 20
2.412323476835156
 30
0.0
 10
15.91976874408263
 20
2.434127800425224
 30
0.0
 10
16.00120231070803
 20
2.463214697029103
 30
0.0
 10
16.07210206729926
 20
2.501065836192476
 30
0.0
 10
16.13226013075782
 20
2.547178847426518
 30
0.0
 10
16.18359140835711
 20
2.600379960515256
 30
0.0
 10
16.20776484705772
 20
2.642375358503041
 30
0.0
 10
16.21981921940055
 20
2.663316862535614
 30
0.0
  0
SPLINE
  5
DA
330
1F
100
AcDbEntity
  8
0
  6
Continuous
 62
     7
370
    25
100
AcDbSpline
210
0.0
220
0.0
230
1.0
 70
     8
 71
     3
 72
    23
 73
    19
 74
     0
 42
0.000000001
 43
0.00000001
 40
0.0
 40
0.0
 40
0.0
 40
0.0
 40
0.0581169119102703
 40
0.1144864590697275
 40
0.1705491499953381
 40
0.2262529058365588
 40
0.281481716742903
 40
0.3369038895043229
 40
0.3928734787477665
 40
0.4492833398435826
 40
0.5073357899397885
 40
0.5676455363289633
 40
0.6309348611979055
 40
0.6976634783216187
 40
0.76723913843053
 40
0.8408165928397521
 40
0.9187265040514585
 40
1.0
 40
1.0
 40
1.0
 40
1.0
 10
16.44568059760568
 20
2.573673433048435
 30
0.0
 10
16.43674383581456
 20
2.55717092610864
 30
0.0
 10
16.41913900824569
 20
2.524662082758055
 30
0.0
 10
16.38867133139721
 20
2.478714032240338
 30
0.0
 10
16.35549317100587
 20
2.435740068852426
 30
0.0
 10
16.32024328378115
 20
2.394867399011736
 30
0.0
 10
16.28117742303317
 20
2.357940106887988
 30
0.0
 10
16.24020042656382
 20
2.323044273268721
 30
0.0
 10
16.19598901478055
 20
2.291641559699518
 30
0.0
 10
16.14910204682954
 20
2.262798529437809
 30
0.0
 10
16.09883520615784
 20
2.23699885309796
 30
0.0
 10
16.04430367442103
 20
2.215316239561457
 30
0.0
 10
15.98614201915186
 20
2.195375344427838
 30
0.0
 10
15.92355247443023
 20
2.179869383003434
 30
0.0
 10
15.85710194904507
 20
2.166480144791317
 30
0.0
 10
15.78627283363773
 20
2.157530070434215
 30
0.0
 10
15.711479138653
 20
2.150079201036828
 30
0.0
 10
15.66010934463274
 20
2.148366160682829
 30
0.0
 10
15.63388171940056
 20
2.147491542022793
 30
0.0
  0
SPLINE
  5
DB
330
1F
100
AcDbEntity
  8
0
  6
Continuous
 62
     7
370
    25
100
AcDbSpline
210
0.0
220
0.0
230
1.0
 70
     8
 71
     3
 72
    31
 73
    27
 74
     0
 42
0.000000001
 43
0.00000001
 40
0.0
 40
0.0
 40
0.0
 40
0.0
 40
0.0428316341336741
 40
0.0850101160577676
 40
0.1266490245430731
 40
0.1680949920951947
 40
0.2094760854018413
 40
0.2507889511100141
 40
0.2924386120573414
 40
0.3343358867643883
 40
0.3763388348032643
 40
0.4174757385116232
 40
0.4584424830089328
 40
0.4990987234465721
 40
0.5395207975437047
 40
0.580115313999957
 40
0.6212053851952986
 40
0.6625724090055732
 40
0.704250013371641
 40
0.7455650467669734
 40
0.7870747084578567
 40
0.8285692651326787
 40
0.870410927749542
 40
0.912852931839771
 40
0.9559347407023645
 40
1.0
 40
1.0
 40
1.0
 40
1.0
 10
11.91339070196755
 20
-5.693498486467225
 30
0.0
 10
11.92408535899444
 20
-5.672119199600623
 30
0.0
 10
11.94531158707197
 20
-5.629686644912426
 30
0.0
 10
11.97086469508493
 20
-5.563738233071584
 30
0.0
 10
11.99323746987067
 20
-5.497525105440955
 30
0.0
 10
12.01096686236995
 20
-5.430309538214025
 30
0.0
 10
12.02307854437667
 20
-5.362087905312019
 30
0.0
 10
12.03208872457114
 20
-5.293259705584408
 30
0.0
 10
12.0351561907912
 20
-5.223612476140191
 30
0.0
 10
12.0348211864828
 20
-5.15355787045053
 30
0.0
 10
12.03007910647761
 20
-5.083896170956827
 30
0.0
 10
12.01969656165592
 20
-5.015389514835937
 30
0.0
 10
12.00571873978833
 20
-4.948328830804666
 30
0.0
 10
11.98798758124654
 20
-4.882530997862921
 30
0.0
 10
11.96467012621614
 20
-4.818703168701484
 30
0.0
 10
11.93684043418416
 20
-4.756499327097397
 30
0.0
 10
11.90558816901335
 20
-4.695328701265378
 30
0.0
 10
11.86932346188629
 20
-4.636262605364498
 30
0.0
 10
11.82940333058448
 20
-4.579487773522178
 30
0.0
 10
11.78627481503601
 20
-4.52499267606192
 30
0.0
 10
11.73925336857446
 20
-4.473907709820964
 30
0.0
 10
11.68820410605585
 20
-4.426495486531469
 30
0.0
 10
11.63485041612437
 20
-4.3808278744901
 30
0.0
 10
11.57677233564595
 20
-4.339820893408327
 30
0.0
 10
11.51637690309821
 20
-4.299984007897289
 30
0.0
 10
11.47338862120192
 20
-4.277222975905596
 30
0.0
 10
11.45165191991626
 20
-4.26571403133902
 30
0.0
  0
SPLINE
  5
DC
330
1F
100
AcDbEntity
  8
0
  6
Continuous
 62
     7
370
    25
100
AcDbSpline
210
0.0
220
0.0
230
1.0
 70
     8
 71
     3
 72
    23
 73
    19
 74
     0
 42
0.000000001
 43
0.00000001
 40
0.0
 40
0.0
 40
0.0
 40
0.0
 40
0.0657368819769901
 40
0.1293554288930248
 40
0.1917336241172549
 40
0.2529108337892816
 40
0.3141397726144791
 40
0.3754585712421919
 40
0.4381595839630004
 40
0.5025359608074276
 40
0.5668524393706632
 40
0.6294472529737287
 40
0.6904930689496914
 40
0.7514448588704109
 40
0.8118749923345505
 40
0.8730589517676948
 40
0.9356728212245319
 40
0.9999999999999999
 40
0.9999999999999999
 40
0.9999999999999999
 40
0.9999999999999999
 10
10.49712467632652
 20
-6.140213230056968
 30
0.0
 10
10.52972949507312
 20
-6.156053619560796
 30
0.0
 10
10.59388846011836
 20
-6.18722395068203
 30
0.0
 10
10.69382693907349
 20
-6.222243588664733
 30
0.0
 10
10.79411415247431
 20
-6.246944816274644
 30
0.0
 10
10.895138320112
 20
-6.261227775940813
 30
0.0
 10
10.99649458343542
 20
-6.264493672698618
 30
0.0
 10
11.09856156569082
 20
-6.258203702736949
 30
0.0
 10
11.20102922272488
 20
-6.24030147508867
 30
0.0
 10
11.30284369024933
 20
-6.212280329208869
 30
0.0
 10
11.4018549003326
 20
-6.175689321130461
 30
0.0
 10
11.4952587447398
 20
-6.130548914945051
 30
0.0
 10
11.58229045506853
 20
-6.077583291334604
 30
0.0
 10
11.66247672132298
 20
-6.016605175976517
 30
0.0
 10
11.73545636160845
 20
-5.947123312643246
 30
0.0
 10
11.80265114831742
 20
-5.870830236389334
 30
0.0
 10
11.86243803776889
 20
-5.785824396408759
 30
0.0
 10
11.8962543422581
 20
-5.724549463450325
 30
0.0
 10
11.91339070196755
 20
-5.693498486467225
 30
0.0
  0
SPLINE
  5
DD
330
1F
100
AcDbEntity
  8
0
  6
Continuous
 62
     7
370
    25
100
AcDbSpline
210
0.0
220
0.0
230
1.0
 70
     8
 71
     3
 72
    31
 73
    27
 74
     0
 42
0.000000001
 43
0.00000001
 40
0.0
 40
0.0
 40
0.0
 40
0.0
 40
0.043946144558005
 40
0.0867970900247712
 40
0.128888140735209
 40
0.1705772735041179
 40
0.2118846226442479
 40
0.2530288329845771
 40
0.2942618095865807
 40
0.335429051780855
 40
0.3767243791504456
 40
0.4173885673887359
 40
0.4582885048591727
 40
0.4989826523915849
 40
0.5401323476759275
 40
0.5815608121986007
 40
0.6234874671985082
 40
0.6663594748171812
 40
0.7091155122040426
 40
0.7514897916144431
 40
0.7929846645239816
 40
0.834203407567074
 40
0.8755599002879169
 40
0.9167830234110436
 40
0.9580346057181769
 40
1.0
 40
1.0
 40
1.0
 40
1.0
 10
11.45165191991626
 20
-4.26571403133902
 30
0.0
 10
11.42973287152498
 20
-4.254948386906164
 30
0.0
 10
11.38644102793755
 20
-4.233685392884473
 30
0.0
 10
11.32013594860371
 20
-4.20643513444486
 30
0.0
 10
11.25320736762574
 20
-4.184616727597018
 30
0.0
 10
11.18614149472078
 20
-4.166244027477514
 30
0.0
 10
11.11833619038479
 20
-4.153157485113648
 30
0.0
 10
11.05001013189341
 20
-4.145468499603117
 30
0.0
 10
10.9814616176915
 20
-4.14108580060216
 30
0.0
 10
10.91267560945061
 20
-4.142289003163059
 30
0.0
 10
10.8444629407208
 20
-4.147859928088288
 30
0.0
 10
10.77679207749591
 20
-4.157186307259465
 30
0.0
 10
10.71036092895387
 20
-4.17173375250251
 30
0.0
 10
10.64496464103053
 20
-4.191169041739094
 30
0.0
 10
10.58022806456506
 20
-4.21372526554429
 30
0.0
 10
10.51717599186254
 20
-4.242324071676159
 30
0.0
 10
10.45465704142833
 20
-4.274184661724453
 30
0.0
 10
10.39414433647975
 20
-4.311194686232366
 30
0.0
 10
10.33563221853721
 20
-4.351670540965454
 30
0.0
 10
10.28016109024514
 20
-4.395021315023282
 30
0.0
 10
10.22829571330204
 20
-4.441351288337173
 30
0.0
 10
10.17991565558459
 20
-4.490537789770672
 30
0.0
 10
10.13554592970005
 20
-4.543175142254351
 30
0.0
 10
10.09444574459608
 20
-4.598378778514182
 30
0.0
 10
10.05632056825862
 20
-4.656153648674795
 30
0.0
 10
10.03441393475075
 20
-4.696892592299079
 30
0.0
 10
10.02336666350601
 20
-4.717436787749277
 30
0.0
  0
SPLINE
  5
DE
330
1F
100
AcDbEntity
  8
0
  6
Continuous
 62
     7
370
    25
100
AcDbSpline
210
0.0
220
0.0
230
1.0
 70
     8
 71
     3
 72
    31
 73
    27
 74
     0
 42
0.000000001
 43
0.00000001
 40
0.0
 40
0.0
 40
0.0
 40
0.0
 40
0.0412328910810509
 40
0.0819365056638278
 40
0.1222942113846749
 40
0.1627857368893369
 40
0.2036617596256625
 40
0.2447456922113474
 40
0.286521659200981
 40
0.32886887653888
 40
0.3713595631212107
 40
0.4132293058626693
 40
0.4543965464014729
 40
0.495559406514584
 40
0.536400122811382
 40
0.577406075317581
 40
0.6186345929481434
 40
0.6603976088264844
 40
0.7022156392269977
 40
0.7438575838308071
 40
0.7855071057001023
 40
0.8273477681140868
 40
0.8695606408934522
 40
0.9123220658355503
 40
0.9556407073331893
 40
1.0
 40
1.0
 40
1.0
 40
1.0
 10
10.02336666350601
 20
-4.717436787749277
 30
0.0
 10
10.01322325593122
 20
-4.738003564368442
 30
0.0
 10
9.993066644293956
 20
-4.778873116921291
 30
0.0
 10
9.968185841121588
 20
-4.842224707477469
 30
0.0
 10
9.947403967705116
 20
-4.906579204612727
 30
0.0
 10
9.931545049382168
 20
-4.972422670849848
 30
0.0
 10
9.919393793653501
 20
-5.039448676183445
 30
0.0
 10
9.911892913034604
 20
-5.107888731247186
 30
0.0
 10
9.908941726347882
 20
-5.177480761681058
 30
0.0
 10
9.910410023941898
 20
-5.247910302209744
 30
0.0
 10
9.916547915295283
 20
-5.318121352371609
 30
0.0
 10
9.92625808164302
 20
-5.387284978065009
 30
0.0
 10
9.941162467771425
 20
-5.454757245798793
 30
0.0
 10
9.959372338903455
 20
-5.520812735884665
 30
0.0
 10
9.98259331942845
 20
-5.585213293409334
 30
0.0
 10
10.01029837766824
 20
-5.647823294231648
 30
0.0
 10
10.04183958982318
 20
-5.70917234384534
 30
0.0
 10
10.07781329502162
 20
-5.768574818445139
 30
0.0
 10
10.11785087638773
 20
-5.82558918031977
 30
0.0
 10
10.16150476671139
 20
-5.87980447377759
 30
0.0
 10
10.20869166057824
 20
-5.930991721791282
 30
0.0
 10
10.2593872537105
 20
-5.979169431871808
 30
0.0
 10
10.31362269899248
 20
-6.024288327785028
 30
0.0
 10
10.37120234912953
 20
-6.066466498077459
 30
0.0
 10
10.43263933147226
 20
-6.1051166382179
 30
0.0
 10
10.47546014766472
 20
-6.128422161535163
 30
0.0
 10
10.49712467632652
 20
-6.140213230056968
 30
0.0
  0
SPLINE
  5
DF
330
1F
100
AcDbEntity
  8
0
  6
Continuous
 62
     7
370
    25
100
AcDbSpline
210
0.0
220
0.0
230
1.0
 70
     8
 71
     3
 72
    23
 73
    19
 74
     0
 42
0.000000001
 43
0.00000001
 40
0.0
 40
0.0
 40
0.0
 40
0.0
 40
0.0730165074571402
 40
0.1436252119390776
 40
0.214658205172082
 40
0.2870220110031802
 40
0.3586585239450695
 40
0.4274597126696045
 40
0.4961305209472053
 40
0.5656102964492994
 40
0.6033469151612181
 40
0.6448998446951512
 40
0.6917482148850362
 40
0.7432287124589857
 40
0.7997932694305262
 40
0.8615071423847702
 40
0.9281283877920949
 40
1.0
 40
1.0
 40
1.0
 40
1.0
 10
11.8768657867541
 20
-2.173588853276349
 30
0.0
 10
11.85823326509594
 20
-2.164806215706582
 30
0.0
 10
11.8215826505252
 20
-2.14753055810159
 30
0.0
 10
11.7627983273528
 20
-2.13216985559577
 30
0.0
 10
11.70278569768502
 20
-2.124908949111801
 30
0.0
 10
11.64205003520911
 20
-2.127143132034328
 30
0.0
 10
11.58279544284352
 20
-2.137348082335071
 30
0.0
 10
11.5267934268047
 20
-2.15624304184787
 30
0.0
 10
11.47466251858987
 20
-2.182806847479046
 30
0.0
 10
11.43477610024553
 20
-2.212610949370972
 30
0.0
 10
11.40457807444219
 20
-2.241692171780575
 30
0.0
 10
11.38079325893948
 20
-2.26811129296487
 30
0.0
 10
11.35643892388175
 20
-2.299102838078697
 30
0.0
 10
11.3314795883361
 20
-2.33489010865344
 30
0.0
 10
11.30548107056562
 20
-2.37501027383309
 30
0.0
 10
11.27841760724082
 20
-2.419502051792171
 30
0.0
 10
11.25096190160578
 20
-2.468752947366925
 30
0.0
 10
11.23276400819229
 20
-2.503245070491381
 30
0.0
 10
11.22332011367717
 20
-2.521144943019939
 30
0.0
  0
SPLINE
  5
E0
330
1F
100
AcDbEntity
  8
0
  6
Continuous
 62
     7
370
    25
100
AcDbSpline
210
0.0
220
0.0
230
1.0
 70
     8
 71
     3
 72
    23
 73
    19
 74
     0
 42
0.000000001
 43
0.00000001
 40
0.0
 40
0.0
 40
0.0
 40
0.0
 40
0.0710709864358169
 40
0.1375081521462523
 40
0.1985924450602259
 40
0.255683696189769
 40
0.3075844613371639
 40
0.3545786236980391
 40
0.3977659422804575
 40
0.4363419466949262
 40
0.5080374931101711
 40
0.5779238801443922
 40
0.6466708501541892
 40
0.7169836173017792
 40
0.7878263401251498
 40
0.8569825723560696
 40
0.927650660132873
 40
1.0
 40
1.0
 40
1.0
 40
1.0
 10
11.97051562649768
 20
-2.92779558404558
 30
0.0
 10
11.97978083064934
 20
-2.909474545722649
 30
0.0
 10
11.99770714863147
 20
-2.874026998818794
 30
0.0
 10
12.02223681948834
 20
-2.822156895715492
 30
0.0
 10
12.04344481101501
 20
-2.773219829256458
 30
0.0
 10
12.06152360392436
 20
-2.727516772630806
 30
0.0
 10
12.07594580811393
 20
-2.684821203083076
 30
0.0
 10
12.08796218144835
 20
-2.645547201183656
 30
0.0
 10
12.09579680161944
 20
-2.609152664860886
 30
0.0
 10
12.10270292650937
 20
-2.565334280672146
 30
0.0
 10
12.10428930571509
 20
-2.513084638426913
 30
0.0
 10
12.09699919004341
 20
-2.452498281373782
 30
0.0
 10
12.07941033043742
 20
-2.394475600954775
 30
0.0
 10
12.05337712250699
 20
-2.339481733276445
 30
0.0
 10
12.01950734411264
 20
-2.288794710793383
 30
0.0
 10
11.97885747432135
 20
-2.243227003399626
 30
0.0
 10
11.93095974097249
 20
-2.204458427565875
 30
0.0
 10
11.89503786559306
 20
-2.183959038740138
 30
0.0
 10
11.8768657867541
 20
-2.173588853276349
 30
0.0
  0
SPLINE
  5
E4
330
1F
100
AcDbEntity
  8
0
  6
Continuous
 62
     7
370
    25
100
AcDbSpline
210
0.0
220
0.0
230
1.0
 70
     8
 71
     3
 72
    23
 73
    19
 74
     0
 42
0.000000001
 43
0.00000001
 40
0.0
 40
0.0
 40
0.0
 40
0.0
 40
0.0730165074571402
 40
0.1436252119390776
 40
0.214658205172082
 40
0.2870220110031802
 40
0.3586585239450695
 40
0.4274597126696045
 40
0.4961305209472053
 40
0.5656102964492994
 40
0.6033469151612181
 40
0.6448998446951512
 40
0.6917482148850362
 40
0.7432287124589857
 40
0.7997932694305262
 40
0.8615071423847702
 40
0.9281283877920949
 40
1.0
 40
1.0
 40
1.0
 40
1.0
 10
12.81660496068405
 20
-0.3502270299145277
 30
0.0
 10
12.79797243902589
 20
-0.341444392344761
 30
0.0
 10
12.76132182445516
 20
-0.3241687347397696
 30
0.0
 10
12.70253750128276
 20
-0.308808032233949
 30
0.0
 10
12.64252487161498
 20
-0.3015471257499797
 30
0.0
 10
12.58178920913907
 20
-0.3037813086725066
 30
0.0
 10
12.52253461677347
 20
-0.3139862589732496
 30
0.0
 10
12.46653260073466
 20
-0.3328812184860488
 30
0.0
 10
12.41440169251983
 20
-0.3594450241172255
 30
0.0
 10
12.37451527417549
 20
-0.3892491260091512
 30
0.0
 10
12.34431724837215
 20
-0.418330348418754
 30
0.0
 10
12.32053243286944
 20
-0.444749469603049
 30
0.0
 10
12.29617809781171
 20
-0.475741014716876
 30
0.0
 10
12.27121876226606
 20
-0.5115282852916186
 30
0.0
 10
12.24522024449558
 20
-0.5516484504712682
 30
0.0
 10
12.21815678117078
 20
-0.5961402284303501
 30
0.0
 10
12.19070107553573
 20
-0.6453911240051043
 30
0.0
 10
12.17250318212224
 20
-0.6798832471295604
 30
0.0
 10
12.16305928760713
 20
-0.6977831196581176
 30
0.0
  0
SPLINE
  5
E5
330
1F
100
AcDbEntity
  8
0
  6
Continuous
 62
     7
370
    25
100
AcDbSpline
210
0.0
220
0.0
230
1.0
 70
     8
 71
     3
 72
    23
 73
    19
 74
     0
 42
0.000000001
 43
0.00000001
 40
0.0
 40
0.0
 40
0.0
 40
0.0
 40
0.0710709864358167
 40
0.1375081521462521
 40
0.1985924450602257
 40
0.2556836961897687
 40
0.3075844613371638
 40
0.354578623698039
 40
0.3977659422804573
 40
0.4363419466949261
 40
0.5080374931101713
 40
0.5779238801443921
 40
0.6466708501541891
 40
0.7169836173017791
 40
0.7878263401251497
 40
0.8569825723560694
 40
0.9276506601328729
 40
1.0
 40
1.0
 40
1.0
 40
1.0
 10
12.91025480042764
 20
-1.104433760683759
 30
0.0
 10
12.9195200045793
 20
-1.086112722360828
 30
0.0
 10
12.93744632256143
 20
-1.050665175456973
 30
0.0
 10
12.9619759934183
 20
-0.9987950723536699
 30
0.0
 10
12.98318398494498
 20
-0.9498580058946379
 30
0.0
 10
13.00126277785432
 20
-0.9041549492689853
 30
0.0
 10
13.01568498204388
 20
-0.8614593797212539
 30
0.0
 10
13.02770135537831
 20
-0.8221853778218351
 30
0.0
 10
13.0355359755494
 20
-0.7857908414990654
 30
0.0
 10
13.04244210043933
 20
-0.7419724573103242
 30
0.0
 10
13.04402847964505
 20
-0.6897228150650926
 30
0.0
 10
13.03673836397338
 20
-0.6291364580119609
 30
0.0
 10
13.01914950436737
 20
-0.5711137775929539
 30
0.0
 10
12.99311629643695
 20
-0.5161199099146242
 30
0.0
 10
12.9592465180426
 20
-0.4654328874315625
 30
0.0
 10
12.91859664825131
 20
-0.419865180037805
 30
0.0
 10
12.87069891490245
 20
-0.3810966042040534
 30
0.0
 10
12.83477703952302
 20
-0.3605972153783169
 30
0.0
 10
12.81660496068405
 20
-0.3502270299145277
 30
0.0
  0
SPLINE
  5
E9
330
1F
100
AcDbEntity
  8
0
  6
Continuous
 62
     7
370
    25
100
AcDbSpline
210
0.0
220
0.0
230
1.0
 70
     8
 71
     3
 72
    31
 73
    27
 74
     0
 42
0.000000001
 43
0.00000001
 40
0.0
 40
0.0
 40
0.0
 40
0.0
 40
0.042831634133674
 40
0.0850101160577678
 40
0.1266490245430731
 40
0.1680949920951943
 40
0.2094760854018416
 40
0.2507889511100141
 40
0.2924386120573413
 40
0.3343358867643884
 40
0.3763388348032644
 40
0.4174757385116233
 40
0.4584424830089334
 40
0.4990987234465725
 40
0.5395207975437049
 40
0.5801153139999574
 40
0.6212053851952987
 40
0.6625724090055733
 40
0.7042500133716416
 40
0.7455650467669734
 40
0.7870747084578567
 40
0.8285692651326788
 40
0.8704109277495421
 40
0.912852931839771
 40
0.9559347407023647
 40
1.0
 40
1.0
 40
1.0
 40
1.0
 10
15.17311096153708
 20
0.6312878383190901
 30
0.0
 10
15.18380561856398
 20
0.6526671251856901
 30
0.0
 10
15.2050318466415
 20
0.6950996798738878
 30
0.0
 10
15.23058495465447
 20
0.7610480917147305
 30
0.0
 10
15.25295772944021
 20
0.8272612193453601
 30
0.0
 10
15.27068712193949
 20
0.8944767865722885
 30
0.0
 10
15.28279880394621
 20
0.9626984194742979
 30
0.0
 10
15.29180898414068
 20
1.031526619201907
 30
0.0
 10
15.29487645036074
 20
1.101173848646125
 30
0.0
 10
15.29454144605233
 20
1.171228454335784
 30
0.0
 10
15.28979936604714
 20
1.240890153829489
 30
0.0
 10
15.27941682122546
 20
1.309396809950379
 30
0.0
 10
15.26543899935787
 20
1.376457493981649
 30
0.0
 10
15.24770784081607
 20
1.442255326923394
 30
0.0
 10
15.22439038578569
 20
1.506083156084831
 30
0.0
 10
15.19656069375369
 20
1.568286997688918
 30
0.0
 10
15.16530842858288
 20
1.629457623520936
 30
0.0
 10
15.12904372145583
 20
1.688523719421818
 30
0.0
 10
15.08912359015401
 20
1.745298551264136
 30
0.0
 10
15.04599507460555
 20
1.799793648724395
 30
0.0
 10
14.99897362814399
 20
1.850878614965352
 30
0.0
 10
14.94792436562538
 20
1.898290838254846
 30
0.0
 10
14.89457067569391
 20
1.943958450296217
 30
0.0
 10
14.83649259521549
 20
1.984965431377987
 30
0.0
 10
14.77609716266775
 20
2.024802316889027
 30
0.0
 10
14.73310888077145
 20
2.047563348880719
 30
0.0
 10
14.7113721794858
 20
2.059072293447295
 30
0.0
  0
SPLINE
  5
EA
330
1F
100
AcDbEntity
  8
0
  6
Continuous
 62
     7
370
    25
100
AcDbSpline
210
0.0
220
0.0
230
1.0
 70
     8
 71
     3
 72
    23
 73
    19
 74
     0
 42
0.000000001
 43
0.00000001
 40
0.0
 40
0.0
 40
0.0
 40
0.0
 40
0.0657368819769901
 40
0.1293554288930248
 40
0.1917336241172549
 40
0.2529108337892817
 40
0.3141397726144791
 40
0.375458571242192
 40
0.4381595839630005
 40
0.5025359608074276
 40
0.5668524393706634
 40
0.6294472529737288
 40
0.6904930689496914
 40
0.7514448588704112
 40
0.8118749923345506
 40
0.8730589517676951
 40
0.9356728212245321
 40
1.0
 40
1.0
 40
1.0
 40
1.0
 10
13.75684493589605
 20
0.1845730947293465
 30
0.0
 10
13.78944975464265
 20
0.1687327052255179
 30
0.0
 10
13.8536087196879
 20
0.137562374104283
 30
0.0
 10
13.95354719864302
 20
0.1025427361215826
 30
0.0
 10
14.05383441204384
 20
0.077841508511673
 30
0.0
 10
14.15485857968153
 20
0.0635585488455024
 30
0.0
 10
14.25621484300495
 20
0.060292652087696
 30
0.0
 10
14.35828182526035
 20
0.0665826220493682
 30
0.0
 10
14.46074948229442
 20
0.084484849697644
 30
0.0
 10
14.56256394981886
 20
0.112505995577447
 30
0.0
 10
14.66157515990214
 20
0.1490970036558537
 30
0.0
 10
14.75497900430934
 20
0.1942374098412635
 30
0.0
 10
14.84201071463806
 20
0.247203033451711
 30
0.0
 10
14.92219698089253
 20
0.3081811488097986
 30
0.0
 10
14.99517662117798
 20
0.37766301214307
 30
0.0
 10
15.06237140788696
 20
0.4539560883969813
 30
0.0
 10
15.12215829733842
 20
0.5389619283775559
 30
0.0
 10
15.15597460182763
 20
0.6002368613359894
 30
0.0
 10
15.17311096153708
 20
0.6312878383190901
 30
0.0
  0
SPLINE
  5
EB
330
1F
100
AcDbEntity
  8
0
  6
Continuous
 62
     7
370
    25
100
AcDbSpline
210
0.0
220
0.0
230
1.0
 70
     8
 71
     3
 72
    31
 73
    27
 74
     0
 42
0.000000001
 43
0.00000001
 40
0.0
 40
0.0
 40
0.0
 40
0.0
 40
0.043946144558005
 40
0.0867970900247711
 40
0.1288881407352091
 40
0.1705772735041179
 40
0.2118846226442479
 40
0.2530288329845771
 40
0.2942618095865807
 40
0.335429051780855
 40
0.3767243791504457
 40
0.417388567388736
 40
0.4582885048591729
 40
0.4989826523915851
 40
0.5401323476759278
 40
0.5815608121986009
 40
0.6234874671985087
 40
0.6663594748171814
 40
0.7091155122040427
 40
0.7514897916144434
 40
0.7929846645239815
 40
0.8342034075670742
 40
0.8755599002879167
 40
0.9167830234110435
 40
0.9580346057181766
 40
0.9999999999999999
 40
0.9999999999999999
 40
0.9999999999999999
 40
0.9999999999999999
 10
14.7113721794858
 20
2.059072293447295
 30
0.0
 10
14.68945313109452
 20
2.069837937880151
 30
0.0
 10
14.64616128750709
 20
2.091100931901843
 30
0.0
 10
14.57985620817324
 20
2.118351190341455
 30
0.0
 10
14.51292762719527
 20
2.140169597189296
 30
0.0
 10
14.44586175429032
 20
2.158542297308801
 30
0.0
 10
14.37805644995433
 20
2.171628839672668
 30
0.0
 10
14.30973039146294
 20
2.1793178251832
 30
0.0
 10
14.24118187726103
 20
2.183700524184154
 30
0.0
 10
14.17239586902015
 20
2.182497321623257
 30
0.0
 10
14.10418320029034
 20
2.176926396698026
 30
0.0
 10
14.03651233706545
 20
2.167600017526852
 30
0.0
 10
13.9700811885234
 20
2.153052572283805
 30
0.0
 10
13.90468490060007
 20
2.13361728304722
 30
0.0
 10
13.83994832413459
 20
2.111061059242026
 30
0.0
 10
13.77689625143208
 20
2.082462253110156
 30
0.0
 10
13.71437730099786
 20
2.050601663061863
 30
0.0
 10
13.65386459604928
 20
2.01359163855395
 30
0.0
 10
13.59535247810675
 20
1.973115783820861
 30
0.0
 10
13.53988134981468
 20
1.929765009763033
 30
0.0
 10
13.48801597287157
 20
1.883435036449142
 30
0.0
 10
13.43963591515412
 20
1.834248535015644
 30
0.0
 10
13.39526618926958
 20
1.781611182531965
 30
0.0
 10
13.35416600416561
 20
1.726407546272133
 30
0.0
 10
13.31604082782816
 20
1.66863267611152
 30
0.0
 10
13.29413419432028
 20
1.627893732487236
 30
0.0
 10
13.28308692307554
 20
1.607349537037039
 30
0.0
  0
SPLINE
  5
EC
330
1F
100
AcDbEntity
  8
0
  6
Continuous
 62
     7
370
    25
100
AcDbSpline
210
0.0
220
0.0
230
1.0
 70
     8
 71
     3
 72
    31
 73
    27
 74
     0
 42
0.000000001
 43
0.00000001
 40
0.0
 40
0.0
 40
0.0
 40
0.0
 40
0.0412328910810502
 40
0.0819365056638271
 40
0.1222942113846751
 40
0.1627857368893371
 40
0.2036617596256625
 40
0.2447456922113475
 40
0.2865216592009808
 40
0.3288688765388799
 40
0.3713595631212109
 40
0.4132293058626695
 40
0.454396546401473
 40
0.4955594065145844
 40
0.5364001228113819
 40
0.577406075317581
 40
0.6186345929481436
 40
0.6603976088264845
 40
0.7022156392269979
 40
0.743857583830807
 40
0.7855071057001024
 40
0.8273477681140867
 40
0.8695606408934522
 40
0.912322065835551
 40
0.9556407073331892
 40
0.9999999999999999
 40
0.9999999999999999
 40
0.9999999999999999
 40
0.9999999999999999
 10
13.28308692307554
 20
1.607349537037039
 30
0.0
 10
13.27294351550076
 20
1.586782760417873
 30
0.0
 10
13.25278690386349
 20
1.545913207865024
 30
0.0
 10
13.22790610069113
 20
1.482561617308844
 30
0.0
 10
13.20712422727465
 20
1.418207120173591
 30
0.0
 10
13.1912653089517
 20
1.352363653936465
 30
0.0
 10
13.17911405322304
 20
1.28533764860287
 30
0.0
 10
13.17161317260414
 20
1.216897593539127
 30
0.0
 10
13.16866198591742
 20
1.147305563105258
 30
0.0
 10
13.17013028351143
 20
1.07687602257657
 30
0.0
 10
13.17626817486482
 20
1.006664972414705
 30
0.0
 10
13.18597834121255
 20
0.9375013467213087
 30
0.0
 10
13.20088272734097
 20
0.8700290789875194
 30
0.0
 10
13.21909259847299
 20
0.8039735889016513
 30
0.0
 10
13.24231357899798
 20
0.7395730313769827
 30
0.0
 10
13.27001863723778
 20
0.6769630305546687
 30
0.0
 10
13.30155984939272
 20
0.6156139809409746
 30
0.0
 10
13.33753355459115
 20
0.5562115063411764
 30
0.0
 10
13.37757113595726
 20
0.4991971444665468
 30
0.0
 10
13.42122502628093
 20
0.4449818510087247
 30
0.0
 10
13.46841192014777
 20
0.3937946029950347
 30
0.0
 10
13.51910751328004
 20
0.345616892914508
 30
0.0
 10
13.57334295856201
 20
0.3004979970012864
 30
0.0
 10
13.63092260869907
 20
0.2583198267088593
 30
0.0
 10
13.6923595910418
 20
0.2196696865684136
 30
0.0
 10
13.73518040723426
 20
0.1963641632511536
 30
0.0
 10
13.75684493589605
 20
0.1845730947293465
 30
0.0
  0
LINE
  5
ED
330
1F
100
AcDbEntity
  8
0
  6
Continuous
 62
     7
370
    25
100
AcDbLine
 10
13.0166895047
 20
-3.9419181802
 30
0.0
 11
12.9030076137
 21
-4.1627715456
 31
0.0
  0
LINE
  5
EE
330
1F
100
AcDbEntity
  8
0
  6
Continuous
 62
     7
370
    25
100
AcDbLine
 10
11.9890452739
 20
-3.4115696225
 30
0.0
 11
13.0166895047
 21
-3.9419181802
 31
0.0
  0
LINE
  5
EF
330
1F
100
AcDbEntity
  8
0
  6
Continuous
 62
     7
370
    25
100
AcDbLine
 10
12.0706758829
 20
-3.2538172187
 30
0.0
 11
11.9890452739
 21
-3.4115696225
 31
0.0
  0
LINE
  5
F0
330
1F
100
AcDbEntity
  8
0
  6
Continuous
 62
     7
370
    25
100
AcDbLine
 10
10.692971556
 20
-3.0219462251
 30
0.0
 11
10.920335338
 21
-2.5817418981
 31
0.0
  0
LINE
  5
F1
330
1F
100
AcDbEntity
  8
0
  6
Continuous
 62
     7
370
    25
100
AcDbLine
 10
12.9030076137
 20
-4.1627715456
 30
0.0
 11
10.692971556
 21
-3.0219462251
 31
0.0
  0
LINE
  5
F2
330
1F
100
AcDbEntity
  8
0
  6
Continuous
 62
     7
370
    25
100
AcDbLine
 10
18.6340133881
 20
6.9552951389
 30
0.0
 11
17.9849749266
 21
5.6977831197
 31
0.0
  0
LINE
  5
F3
330
1F
100
AcDbEntity
  8
0
  6
Continuous
 62
     7
370
    25
100
AcDbLine
 10
18.4161648304
 20
7.0679754274
 30
0.0
 11
18.6340133881
 21
6.9552951389
 31
0.0
  0
LINE
  5
F4
330
1F
100
AcDbEntity
  8
0
  6
Continuous
 62
     7
370
    25
100
AcDbLine
 10
17.8808082599
 20
6.0313167735
 30
0.0
 11
18.4161648304
 21
7.0679754274
 31
0.0
  0
LINE
  5
F5
330
1F
100
AcDbEntity
  8
0
  6
Continuous
 62
     7
370
    25
100
AcDbLine
 10
17.0139212407
 20
6.4785323184
 30
0.0
 11
17.8808082599
 21
6.0313167735
 31
0.0
  0
LINE
  5
F6
330
1F
100
AcDbEntity
  8
0
  6
Continuous
 62
     7
370
    25
100
AcDbLine
 10
17.5492778112
 20
7.5151909722
 30
0.0
 11
17.0139212407
 21
6.4785323184
 31
0.0
  0
LINE
  5
F7
330
1F
100
AcDbEntity
  8
0
  6
Continuous
 62
     7
370
    25
100
AcDbLine
 10
17.3329316574
 20
7.6268696581
 30
0.0
 11
17.5492778112
 21
7.5151909722
 31
0.0
  0
LINE
  5
F8
330
1F
100
AcDbEntity
  8
0
  6
Continuous
 62
     7
370
    25
100
AcDbLine
 10
16.7975750868
 20
6.5902110043
 30
0.0
 11
17.3329316574
 21
7.6268696581
 31
0.0
  0
LINE
  5
F9
330
1F
100
AcDbEntity
  8
0
  6
Continuous
 62
     7
370
    25
100
AcDbLine
 10
16.1064693176
 20
6.9472823184
 30
0.0
 11
16.7975750868
 21
6.5902110043
 31
0.0
  0
LINE
  5
FA
330
1F
100
AcDbEntity
  8
0
  6
Continuous
 62
     7
370
    25
100
AcDbLine
 10
16.6468339009
 20
7.9929553953
 30
0.0
 11
16.1064693176
 21
6.9472823184
 31
0.0
  0
LINE
  5
FB
330
1F
100
AcDbEntity
  8
0
  6
Continuous
 62
     7
370
    25
100
AcDbLine
 10
16.4289853432
 20
8.1051348825
 30
0.0
 11
16.6468339009
 21
7.9929553953
 31
0.0
  0
LINE
  5
FC
330
1F
100
AcDbEntity
  8
0
  6
Continuous
 62
     7
370
    25
100
AcDbLine
 10
15.7749388689
 20
6.8386084402
 30
0.0
 11
16.4289853432
 21
8.1051348825
 31
0.0
  0
LINE
  5
FD
330
1F
100
AcDbEntity
  8
0
  6
Continuous
 62
     7
370
    25
100
AcDbLine
 10
17.9849749266
 20
5.6977831197
 30
0.0
 11
15.7749388689
 21
6.8386084402
 31
0.0
  0
LINE
  5
FE
330
1F
100
AcDbEntity
  8
0
  6
Continuous
 62
     7
370
    25
100
AcDbLine
 10
17.4507633569
 20
4.6606793091
 30
0.0
 11
15.4555710492
 21
5.6908275463
 31
0.0
  0
LINE
  5
FF
330
1F
100
AcDbEntity
  8
0
  6
Continuous
 62
     7
370
    25
100
AcDbLine
 10
17.5669492543
 20
4.886039886
 30
0.0
 11
17.4507633569
 21
4.6606793091
 31
0.0
  0
LINE
  5
100
330
1F
100
AcDbEntity
  8
0
  6
Continuous
 62
     7
370
    25
100
AcDbLine
 10
15.5717569466
 20
5.9161881232
 30
0.0
 11
17.5669492543
 21
4.886039886
 31
0.0
  0
LINE
  5
101
330
1F
100
AcDbEntity
  8
0
  6
Continuous
 62
     7
370
    25
100
AcDbLine
 10
15.8261639979
 20
6.4089765848
 30
0.0
 11
15.5717569466
 21
5.9161881232
 31
0.0
  0
LINE
  5
102
330
1F
100
AcDbEntity
  8
0
  6
Continuous
 62
     7
370
    25
100
AcDbLine
 10
15.6113202479
 20
6.5196536681
 30
0.0
 11
15.8261639979
 21
6.4089765848
 31
0.0
  0
LINE
  5
103
330
1F
100
AcDbEntity
  8
0
  6
Continuous
 62
     7
370
    25
100
AcDbLine
 10
14.9853186453
 20
5.3072137642
 30
0.0
 11
15.6113202479
 21
6.5196536681
 31
0.0
  0
LINE
  5
104
330
1F
100
AcDbEntity
  8
0
  6
Continuous
 62
     7
370
    25
100
AcDbLine
 10
15.2001623953
 20
5.1965366809
 30
0.0
 11
14.9853186453
 21
5.3072137642
 31
0.0
  0
LINE
  5
105
330
1F
100
AcDbEntity
  8
0
  6
Continuous
 62
     7
370
    25
100
AcDbLine
 10
15.4555710492
 20
5.6908275463
 30
0.0
 11
15.2001623953
 21
5.1965366809
 31
0.0
  0
LINE
  5
106
330
1F
100
AcDbEntity
  8
0
  6
Continuous
 62
     7
370
    25
100
AcDbLine
 10
28.057764064
 20
0.0
 30
0.0
 11
33.057764064
 21
0.0
 31
0.0
  0
LINE
  5
107
330
1F
100
AcDbEntity
  8
0
  6
Continuous
 62
     7
370
    25
100
AcDbLine
 10
28.057764064
 20
-25.0
 30
0.0
 11
28.057764064
 21
0.0
 31
0.0
  0
LINE
  5
108
330
1F
100
AcDbEntity
  8
0
  6
Continuous
 62
     7
370
    25
100
AcDbLine
 10
28.057764064
 20
-25.0
 30
0.0
 11
22.057764064
 21
-25.0
 31
0.0
  0
LINE
  5
109
330
1F
100
AcDbEntity
  8
0
  6
Continuous
 62
     7
370
    25
100
AcDbLine
 10
20.057764064
 20
-23.0
 30
0.0
 11
20.057764064
 21
-5.0744175045
 31
0.0
  0
LINE
  5
10A
330
1F
100
AcDbEntity
  8
0
  6
Continuous
 62
     7
370
    25
100
AcDbLine
 10
16.2799862863
 20
-4.1581718099
 30
0.0
 11
6.0969080881
 21
-23.9162456946
 31
0.0
  0
LINE
  5
10B
330
1F
100
AcDbEntity
  8
0
  6
Continuous
 62
     7
370
    25
100
AcDbLine
 10
-39.057764064
 20
-25.0
 30
0.0
 11
4.3191303103
 21
-25.0
 31
0.0
  0
LINE
  5
10C
330
1F
100
AcDbEntity
  8
0
  6
Continuous
 62
     7
370
    25
100
AcDbLine
 10
-41.057764064
 20
-12.0
 30
0.0
 11
-41.057764064
 21
-23.0
 31
0.0
  0
LINE
  5
10D
330
1F
100
AcDbEntity
  8
0
  6
Continuous
 62
     7
370
    25
100
AcDbLine
 10
-39.057764064
 20
-10.0
 30
0.0
 11
-35.057764064
 21
-10.0
 31
0.0
  0
LINE
  5
10E
330
1F
100
AcDbEntity
  8
0
  6
Continuous
 62
     7
370
    25
100
AcDbLine
 10
-33.057764064
 20
-12.0
 30
0.0
 11
-33.057764064
 21
-15.0
 31
0.0
  0
LINE
  5
10F
330
1F
100
AcDbEntity
  8
0
  6
Continuous
 62
     7
370
    25
100
AcDbLine
 10
-33.057764064
 20
-15.0
 30
0.0
 11
-30.557764064
 21
-15.0
 31
0.0
  0
LINE
  5
110
330
1F
100
AcDbEntity
  8
0
  6
Continuous
 62
     7
370
    25
100
AcDbLine
 10
-30.557764064
 20
-15.0
 30
0.0
 11
-30.557764064
 21
-17.5
 31
0.0
  0
LINE
  5
111
330
1F
100
AcDbEntity
  8
0
  6
Continuous
 62
     7
370
    25
100
AcDbLine
 10
-30.557764064
 20
-17.5
 30
0.0
 11
-28.057764064
 21
-17.5
 31
0.0
  0
LINE
  5
112
330
1F
100
AcDbEntity
  8
0
  6
Continuous
 62
     7
370
    25
100
AcDbLine
 10
-28.057764064
 20
-17.5
 30
0.0
 11
-28.057764064
 21
-15.0
 31
0.0
  0
LINE
  5
113
330
1F
100
AcDbEntity
  8
0
  6
Continuous
 62
     7
370
    25
100
AcDbLine
 10
-28.057764064
 20
-15.0
 30
0.0
 11
-25.557764064
 21
-15.0
 31
0.0
  0
LINE
  5
114
330
1F
100
AcDbEntity
  8
0
  6
Continuous
 62
     7
370
    25
100
AcDbLine
 10
-25.557764064
 20
-15.0
 30
0.0
 11
-25.557764064
 21
-17.5
 31
0.0
  0
LINE
  5
115
330
1F
100
AcDbEntity
  8
0
  6
Continuous
 62
     7
370
    25
100
AcDbLine
 10
-25.557764064
 20
-17.5
 30
0.0
 11
-23.057764064
 21
-17.5
 31
0.0
  0
LINE
  5
116
330
1F
100
AcDbEntity
  8
0
  6
Continuous
 62
     7
370
    25
100
AcDbLine
 10
-23.057764064
 20
-17.5
 30
0.0
 11
-23.057764064
 21
-15.0
 31
0.0
  0
LINE
  5
117
330
1F
100
AcDbEntity
  8
0
  6
Continuous
 62
     7
370
    25
100
AcDbLine
 10
-23.057764064
 20
-15.0
 30
0.0
 11
-20.557764064
 21
-15.0
 31
0.0
  0
LINE
  5
118
330
1F
100
AcDbEntity
  8
0
  6
Continuous
 62
     7
370
    25
100
AcDbLine
 10
-20.557764064
 20
-15.0
 30
0.0
 11
-20.557764064
 21
-17.5
 31
0.0
  0
LINE
  5
119
330
1F
100
AcDbEntity
  8
0
  6
Continuous
 62
     7
370
    25
100
AcDbLine
 10
-20.557764064
 20
-17.5
 30
0.0
 11
-18.057764064
 21
-17.5
 31
0.0
  0
LINE
  5
11A
330
1F
100
AcDbEntity
  8
0
  6
Continuous
 62
     7
370
    25
100
AcDbLine
 10
-18.057764064
 20
-17.5
 30
0.0
 11
-18.057764064
 21
-15.0
 31
0.0
  0
LINE
  5
11B
330
1F
100
AcDbEntity
  8
0
  6
Continuous
 62
     7
370
    25
100
AcDbLine
 10
-18.057764064
 20
-15.0
 30
0.0
 11
-1.7769876576
 21
-15.0
 31
0.0
  0
LINE
  5
11C
330
1F
100
AcDbEntity
  8
0
  6
Continuous
 62
     7
370
    25
100
AcDbLine
 10
19.4992098799
 20
23.9162456946
 30
0.0
 11
0.0007901201
 21
-13.9162456946
 31
0.0
  0
LINE
  5
11D
330
1F
100
AcDbEntity
  8
0
  6
Continuous
 62
     7
370
    25
100
AcDbLine
 10
39.057764064
 20
25.0
 30
0.0
 11
21.2769876576
 21
25.0
 31
0.0
  0
LINE
  5
11E
330
1F
100
AcDbEntity
  8
0
  6
Continuous
 62
     7
370
    25
100
AcDbLine
 10
41.057764064
 20
-23.0
 30
0.0
 11
41.057764064
 21
23.0
 31
0.0
  0
LINE
  5
11F
330
1F
100
AcDbEntity
  8
0
  6
Continuous
 62
     7
370
    25
100
AcDbLine
 10
39.057764064
 20
-25.0
 30
0.0
 11
33.057764064
 21
-25.0
 31
0.0
  0
LINE
  5
120
330
1F
100
AcDbEntity
  8
0
  6
Continuous
 62
     7
370
    25
100
AcDbLine
 10
33.057764064
 20
-25.0
 30
0.0
 11
33.057764064
 21
0.0
 31
0.0
  0
LINE
  5
121
330
1F
100
AcDbEntity
  8
0
  6
Continuous
 62
     7
370
    25
100
AcDbLine
 10
17.0537898525
 20
3.8912816061
 30
0.0
 11
16.9401079615
 21
3.6704282407
 31
0.0
  0
LINE
  5
122
330
1F
100
AcDbEntity
  8
0
  6
Continuous
 62
     7
370
    25
100
AcDbLine
 10
14.8437537948
 20
5.0321069266
 30
0.0
 11
17.0537898525
 21
3.8912816061
 31
0.0
  0
LINE
  5
123
330
1F
100
AcDbEntity
  8
0
  6
Continuous
 62
     7
370
    25
100
AcDbLine
 10
14.7300719038
 20
4.8112535613
 30
0.0
 11
14.8437537948
 21
5.0321069266
 31
0.0
  0
LINE
  5
124
330
1F
100
AcDbEntity
  8
0
  6
Continuous
 62
     7
370
    25
100
AcDbLine
 10
16.9401079615
 20
3.6704282407
 30
0.0
 11
14.7300719038
 21
4.8112535613
 31
0.0
  0
LINE
  5
125
330
1F
100
AcDbEntity
  8
0
  6
Continuous
 62
     7
370
    25
100
AcDbLine
 10
13.9564286786
 20
-2.1185563568
 30
0.0
 11
13.8427467876
 21
-2.3394097222
 31
0.0
  0
LINE
  5
126
330
1F
100
AcDbEntity
  8
0
  6
Continuous
 62
     7
370
    25
100
AcDbLine
 10
12.9287844479
 20
-1.5882077991
 30
0.0
 11
13.9564286786
 21
-2.1185563568
 31
0.0
  0
LINE
  5
127
330
1F
100
AcDbEntity
  8
0
  6
Continuous
 62
     7
370
    25
100
AcDbLine
 10
13.0104150568
 20
-1.4304553953
 30
0.0
 11
12.9287844479
 21
-1.5882077991
 31
0.0
  0
LINE
  5
128
330
1F
100
AcDbEntity
  8
0
  6
Continuous
 62
     7
370
    25
100
AcDbLine
 10
11.6327107299
 20
-1.1985844017
 30
0.0
 11
11.860074512
 21
-0.7583800748
 31
0.0
  0
LINE
  5
129
330
1F
100
AcDbEntity
  8
0
  6
Continuous
 62
     7
370
    25
100
AcDbLine
 10
13.8427467876
 20
-2.3394097222
 30
0.0
 11
11.6327107299
 21
-1.1985844017
 31
0.0
  0
LINE
  5
12A
330
1F
100
AcDbEntity
  8
0
  6
Continuous
 62
     7
370
    25
100
AcDbLine
 10
14.7905323604
 20
4.1737335292
 30
0.0
 11
14.834102072
 21
3.9228320869
 31
0.0
  0
LINE
  5
12B
330
1F
100
AcDbEntity
  8
0
  6
Continuous
 62
     7
370
    25
100
AcDbLine
 10
15.6338817194
 20
2.147491542
 30
0.0
 11
15.6178560784
 21
2.3938857728
 31
0.0
  0
LINE
  5
12C
330
1F
100
AcDbEntity
  8
0
  6
Continuous
 62
     7
370
    25
100
AcDbLine
 10
11.7726991201
 20
-3.2998909366
 30
0.0
 11
11.9705156265
 21
-2.927795584
 31
0.0
  0
LINE
  5
12D
330
1F
100
AcDbEntity
  8
0
  6
Continuous
 62
     7
370
    25
100
AcDbLine
 10
11.021497197
 20
-2.911769943
 30
0.0
 11
11.7726991201
 21
-3.2998909366
 31
0.0
  0
LINE
  5
12E
330
1F
100
AcDbEntity
  8
0
  6
Continuous
 62
     7
370
    25
100
AcDbLine
 10
11.2233201137
 20
-2.521144943
 30
0.0
 11
11.021497197
 21
-2.911769943
 31
0.0
  0
LINE
  5
12F
330
1F
100
AcDbEntity
  8
0
  6
Continuous
 62
     7
370
    25
100
AcDbLine
 10
12.712438294
 20
-1.4765291132
 30
0.0
 11
12.9102548004
 21
-1.1044337607
 31
0.0
  0
LINE
  5
130
330
1F
100
AcDbEntity
  8
0
  6
Continuous
 62
     7
370
    25
100
AcDbLine
 10
12.1630592876
 20
-0.6977831197
 30
0.0
 11
11.9612363709
 21
-1.0884081197
 31
0.0
  0
LINE
  5
131
330
1F
100
AcDbEntity
  8
0
  6
Continuous
 62
     7
370
    25
100
AcDbLine
 10
11.9612363709
 20
-1.0884081197
 30
0.0
 11
12.712438294
 21
-1.4765291132
 31
0.0
  0
ARC
  5
132
330
1F
100
AcDbEntity
  8
0
  6
Continuous
 62
     7
370
    25
100
AcDbCircle
 10
22.057764064
 20
-23.0
 30
0.0
 40
1.999999999999996
100
AcDbArc
 50
180.0
 51
270.0
  0
ARC
  5
133
330
1F
100
AcDbEntity
  8
0
  6
Continuous
 62
     7
370
    25
100
AcDbCircle
 10
18.057764064
 20
-5.0744175045
 30
0.0
 40
2.000000000000011
100
AcDbArc
 50
0.0
 51
152.7339555493
  0
ARC
  5
134
330
1F
100
AcDbEntity
  8
0
  6
Continuous
 62
     7
370
    25
100
AcDbCircle
 10
4.3191303103
 20
-23.0
 30
0.0
 40
2.000000000000004
100
AcDbArc
 50
270.0
 51
332.7339555493
  0
ARC
  5
135
330
1F
100
AcDbEntity
  8
0
  6
Continuous
 62
     7
370
    25
100
AcDbCircle
 10
-39.057764064
 20
-23.0
 30
0.0
 40
2.000000000000007
100
AcDbArc
 50
180.0
 51
270.0
  0
ARC
  5
136
330
1F
100
AcDbEntity
  8
0
  6
Continuous
 62
     7
370
    25
100
AcDbCircle
 10
-39.057764064
 20
-12.0
 30
0.0
 40
2.000000000000004
100
AcDbArc
 50
90.0
 51
180.0
  0
ARC
  5
137
330
1F
100
AcDbEntity
  8
0
  6
Continuous
 62
     7
370
    25
100
AcDbCircle
 10
-35.057764064
 20
-12.0
 30
0.0
 40
1.999999999999982
100
AcDbArc
 50
0.0
 51
90.0
  0
ARC
  5
138
330
1F
100
AcDbEntity
  8
0
  6
Continuous
 62
     7
370
    25
100
AcDbCircle
 10
-1.7769876576
 20
-13.0
 30
0.0
 40
2.000000000000002
100
AcDbArc
 50
270.0
 51
332.7339555493
  0
ARC
  5
139
330
1F
100
AcDbEntity
  8
0
  6
Continuous
 62
     7
370
    25
100
AcDbCircle
 10
21.2769876576
 20
23.0
 30
0.0
 40
2.000000000000004
100
AcDbArc
 50
90.0
 51
152.7339555493
  0
ARC
  5
13A
330
1F
100
AcDbEntity
  8
0
  6
Continuous
 62
     7
370
    25
100
AcDbCircle
 10
39.057764064
 20
23.0
 30
0.0
 40
1.999999999999989
100
AcDbArc
 50
0.0
 51
90.0
  0
ARC
  5
13B
330
1F
100
AcDbEntity
  8
0
  6
Continuous
 62
     7
370
    25
100
AcDbCircle
 10
39.057764064
 20
-23.0
 30
0.0
 40
1.999999999999986
100
AcDbArc
 50
270.0
 51
0.0
  0
ENDSEC
  0
SECTION
  2
OBJECTS
  0
DICTIONARY
  5
C
330
0
100
AcDbDictionary
281
     1
  3
ACAD_GROUP
350
D
  3
ACAD_LAYOUT
350
1A
  3
ACAD_MLINESTYLE
350
17
  3
ACAD_PLOTSETTINGS
350
19
  3
ACAD_PLOTSTYLENAME
350
E
  3
ACAD_SCALELIST
350
47
  0
DICTIONARY
  5
D
102
{ACAD_REACTORS
330
C
102
}
330
C
100
AcDbDictionary
281
     1
  0
DICTIONARY
  5
1A
102
{ACAD_REACTORS
330
C
102
}
330
C
100
AcDbDictionary
281
     1
  3
Layout1
350
1E
  3
Layout2
350
26
  3
Model
350
22
  0
DICTIONARY
  5
17
102
{ACAD_REACTORS
330
C
102
}
330
C
100
AcDbDictionary
281
     1
  3
Standard
350
18
  0
DICTIONARY
  5
19
102
{ACAD_REACTORS
330
C
102
}
330
C
100
AcDbDictionary
281
     1
  0
ACDBDICTIONARYWDFLT
  5
E
102
{ACAD_REACTORS
330
C
102
}
330
C
100
AcDbDictionary
281
     1
  3
Normal
350
F
100
AcDbDictionaryWithDefault
340
F
  0
DICTIONARY
  5
47
102
{ACAD_REACTORS
330
C
102
}
330
C
100
AcDbDictionary
281
     1
  3
A0
350
48
  3
A1
350
49
  3
A2
350
4A
  3
A3
350
4B
  3
A4
350
4C
  3
A5
350
4D
  3
A6
350
4E
  3
A7
350
4F
  3
A8
350
50
  3
A9
350
51
  3
B0
350
52
  3
B1
350
53
  3
B2
350
54
  3
B3
350
55
  3
B4
350
56
  3
B5
350
57
  3
B6
350
58
  3
B7
350
59
  3
B8
350
5A
  3
B9
350
5B
  3
C0
350
5C
  3
C1
350
5D
  3
C2
350
5E
  3
C3
350
5F
  3
C4
350
60
  3
C5
350
61
  3
C6
350
62
  3
C7
350
63
  3
C8
350
64
  3
C9
350
65
  3
D0
350
66
  3
D1
350
67
  3
D2
350
68
  0
LAYOUT
  5
1E
102
{ACAD_REACTORS
330
1A
102
}
330
1A
100
AcDbPlotSettings
  1

  2
none_device
  4

  6

 40
0.0
 41
0.0
 42
0.0
 43
0.0
 44
0.0
 45
0.0
 46
0.0
 47
0.0
 48
0.0
 49
0.0
140
0.0
141
0.0
142
1.0
143
1.0
 70
   688
 72
     1
 73
     0
 74
     5
  7

 75
    16
147
1.0
148
0.0
149
0.0
100
AcDbLayout
  1
Layout1
 70
     1
 71
     1
 10
0.0
 20
0.0
 11
420.0
 21
297.0
 12
0.0
 22
0.0
 32
0.0
 14
1.0000000000E+20
 24
1.0000000000E+20
 34
1.0000000000E+20
 15
-1.0000000000E+20
 25
-1.0000000000E+20
 35
-1.0000000000E+20
146
0.0
 13
0.0
 23
0.0
 33
0.0
 16
1.0
 26
0.0
 36
0.0
 17
0.0
 27
1.0
 37
0.0
 76
     0
330
1B
  0
LAYOUT
  5
26
102
{ACAD_REACTORS
330
1A
102
}
330
1A
100
AcDbPlotSettings
  1

  2
none_device
  4

  6

 40
0.0
 41
0.0
 42
0.0
 43
0.0
 44
0.0
 45
0.0
 46
0.0
 47
0.0
 48
0.0
 49
0.0
140
0.0
141
0.0
142
1.0
143
1.0
 70
   688
 72
     1
 73
     0
 74
     5
  7

 75
    16
147
1.0
148
0.0
149
0.0
100
AcDbLayout
  1
Layout2
 70
     1
 71
     2
 10
0.0
 20
0.0
 11
0.0
 21
0.0
 12
0.0
 22
0.0
 32
0.0
 14
0.0
 24
0.0
 34
0.0
 15
0.0
 25
0.0
 35
0.0
146
0.0
 13
0.0
 23
0.0
 33
0.0
 16
1.0
 26
0.0
 36
0.0
 17
0.0
 27
1.0
 37
0.0
 76
     0
330
23
  0
LAYOUT
  5
22
102
{ACAD_REACTORS
330
1A
102
}
330
1A
100
AcDbPlotSettings
  1

  2
none_device
  4
ANSI_A_(11.00_x_8.50_Inches)
  6

 40
6.35
 41
19.05
 42
6.35000508
 43
19.05000254
 44
279.4
 45
215.9
 46
133.34999746
 47
88.89999873
 48
0.0
 49
0.0
140
0.0
141
0.0
142
0.1326180352
143
1.0
 70
  1696
 72
     0
 73
     0
 74
     0
  7

 75
     0
147
0.0179189148
148
-1300.4909072572
149
0.0
100
AcDbLayout
  1
Model
 70
     1
 71
     0
 10
0.0
 20
0.0
 11
420.0
 21
297.0
 12
0.0
 22
0.0
 32
0.0
 14
-41.057764064
 24
-25.0
 34
0.0
 15
41.057764064
 25
25.0
 35
0.0
146
0.0
 13
0.0
 23
0.0
 33
0.0
 16
1.0
 26
0.0
 36
0.0
 17
0.0
 27
1.0
 37
0.0
 76
     0
330
1F
331
29
  0
MLINESTYLE
  5
18
102
{ACAD_REACTORS
330
17
102
}
330
17
100
AcDbMlineStyle
  2
Standard
 70
     0
  3

 62
   256
 51
90.0
 52
90.0
 71
     2
 49
0.5
 62
   256
  6
BYLAYER
 49
-0.5
 62
   256
  6
BYLAYER
  0
ACDBPLACEHOLDER
  5
F
102
{ACAD_REACTORS
330
E
102
}
330
E
  0
SCALE
  5
48
102
{ACAD_REACTORS
330
47
102
}
330
47
100
AcDbScale
 70
     0
300
1:1
140
1.0
141
1.0
290
     1
  0
SCALE
  5
49
102
{ACAD_REACTORS
330
47
102
}
330
47
100
AcDbScale
 70
     0
300
1:2
140
1.0
141
2.0
290
     0
  0
SCALE
  5
4A
102
{ACAD_REACTORS
330
47
102
}
330
47
100
AcDbScale
 70
     0
300
1:4
140
1.0
141
4.0
290
     0
  0
SCALE
  5
4B
102
{ACAD_REACTORS
330
47
102
}
330
47
100
AcDbScale
 70
     0
300
1:5
140
1.0
141
5.0
290
     0
  0
SCALE
  5
4C
102
{ACAD_REACTORS
330
47
102
}
330
47
100
AcDbScale
 70
     0
300
1:8
140
1.0
141
8.0
290
     0
  0
SCALE
  5
4D
102
{ACAD_REACTORS
330
47
102
}
330
47
100
AcDbScale
 70
     0
300
1:10
140
1.0
141
10.0
290
     0
  0
SCALE
  5
4E
102
{ACAD_REACTORS
330
47
102
}
330
47
100
AcDbScale
 70
     0
300
1:16
140
1.0
141
16.0
290
     0
  0
SCALE
  5
4F
102
{ACAD_REACTORS
330
47
102
}
330
47
100
AcDbScale
 70
     0
300
1:20
140
1.0
141
20.0
290
     0
  0
SCALE
  5
50
102
{ACAD_REACTORS
330
47
102
}
330
47
100
AcDbScale
 70
     0
300
1:30
140
1.0
141
30.0
290
     0
  0
SCALE
  5
51
102
{ACAD_REACTORS
330
47
102
}
330
47
100
AcDbScale
 70
     0
300
1:40
140
1.0
141
40.0
290
     0
  0
SCALE
  5
52
102
{ACAD_REACTORS
330
47
102
}
330
47
100
AcDbScale
 70
     0
300
1:50
140
1.0
141
50.0
290
     0
  0
SCALE
  5
53
102
{ACAD_REACTORS
330
47
102
}
330
47
100
AcDbScale
 70
     0
300
1:100
140
1.0
141
100.0
290
     0
  0
SCALE
  5
54
102
{ACAD_REACTORS
330
47
102
}
330
47
100
AcDbScale
 70
     0
300
2:1
140
2.0
141
1.0
290
     0
  0
SCALE
  5
55
102
{ACAD_REACTORS
330
47
102
}
330
47
100
AcDbScale
 70
     0
300
4:1
140
4.0
141
1.0
290
     0
  0
SCALE
  5
56
102
{ACAD_REACTORS
330
47
102
}
330
47
100
AcDbScale
 70
     0
300
8:1
140
8.0
141
1.0
290
     0
  0
SCALE
  5
57
102
{ACAD_REACTORS
330
47
102
}
330
47
100
AcDbScale
 70
     0
300
10:1
140
10.0
141
1.0
290
     0
  0
SCALE
  5
58
102
{ACAD_REACTORS
330
47
102
}
330
47
100
AcDbScale
 70
     0
300
100:1
140
100.0
141
1.0
290
     0
  0
SCALE
  5
59
102
{ACAD_REACTORS
330
47
102
}
330
47
100
AcDbScale
 70
     0
300
1/128" = 1'-0"
140
0.0078125
141
12.0
290
     0
  0
SCALE
  5
5A
102
{ACAD_REACTORS
330
47
102
}
330
47
100
AcDbScale
 70
     0
300
1/64" = 1'-0"
140
0.015625
141
12.0
290
     0
  0
SCALE
  5
5B
102
{ACAD_REACTORS
330
47
102
}
330
47
100
AcDbScale
 70
     0
300
1/32" = 1'-0"
140
0.03125
141
12.0
290
     0
  0
SCALE
  5
5C
102
{ACAD_REACTORS
330
47
102
}
330
47
100
AcDbScale
 70
     0
300
1/16" = 1'-0"
140
0.0625
141
12.0
290
     0
  0
SCALE
  5
5D
102
{ACAD_REACTORS
330
47
102
}
330
47
100
AcDbScale
 70
     0
300
3/32" = 1'-0"
140
0.09375
141
12.0
290
     0
  0
SCALE
  5
5E
102
{ACAD_REACTORS
330
47
102
}
330
47
100
AcDbScale
 70
     0
300
1/8" = 1'-0"
140
0.125
141
12.0
290
     0
  0
SCALE
  5
5F
102
{ACAD_REACTORS
330
47
102
}
330
47
100
AcDbScale
 70
     0
300
3/16" = 1'-0"
140
0.1875
141
12.0
290
     0
  0
SCALE
  5
60
102
{ACAD_REACTORS
330
47
102
}
330
47
100
AcDbScale
 70
     0
300
1/4" = 1'-0"
140
0.25
141
12.0
290
     0
  0
SCALE
  5
61
102
{ACAD_REACTORS
330
47
102
}
330
47
100
AcDbScale
 70
     0
300
3/8" = 1'-0"
140
0.375
141
12.0
290
     0
  0
SCALE
  5
62
102
{ACAD_REACTORS
330
47
102
}
330
47
100
AcDbScale
 70
     0
300
1/2" = 1'-0"
140
0.5
141
12.0
290
     0
  0
SCALE
  5
63
102
{ACAD_REACTORS
330
47
102
}
330
47
100
AcDbScale
 70
     0
300
3/4" = 1'-0"
140
0.75
141
12.0
290
     0
  0
SCALE
  5
64
102
{ACAD_REACTORS
330
47
102
}
330
47
100
AcDbScale
 70
     0
300
1" = 1'-0"
140
1.0
141
12.0
290
     0
  0
SCALE
  5
65
102
{ACAD_REACTORS
330
47
102
}
330
47
100
AcDbScale
 70
     0
300
1-1/2" = 1'-0"
140
1.5
141
12.0
290
     0
  0
SCALE
  5
66
102
{ACAD_REACTORS
330
47
102
}
330
47
100
AcDbScale
 70
     0
300
3" = 1'-0"
140
3.0
141
12.0
290
     0
  0
SCALE
  5
67
102
{ACAD_REACTORS
330
47
102
}
330
47
100
AcDbScale
 70
     0
300
6" = 1'-0"
140
6.0
141
12.0
290
     0
  0
SCALE
  5
68
102
{ACAD_REACTORS
330
47
102
}
330
47
100
AcDbScale
 70
     0
300
1'-0" = 1'-0"
140
12.0
141
12.0
290
     0
  0
ENDSEC
  0
EOF
