<svg width="46.228mm" height="82.04200254mm" viewBox="0 0 18200000 32300001"  version="1.1" xmlns="http://www.w3.org/2000/svg" xmlns:xlink="http://www.w3.org/1999/xlink">
<desc>
Origin 51800000 12400000 Bound 51800000 12399999 18200000 32300001
</desc>
<g fill-rule="evenodd" fill="rgb(0, 0, 255)" stroke="black" stroke-width="1" transform="translate(0, 32300001) scale(1, -1) translate(-51800000, -12399999)">
<path id="N" d="M 59786182.00 42678741.00 L 59786182.00 42521259.00 A 317686.61 317686.61 0 0 0 59550725.00 42214406.00 L 59510707.00 42209137.34 L 59510707.00 40191731.39 L 59534632.00 40173373.00 A 317671.90 317671.90 0 0 0 59627678.00 39948741.00 L 59627678.00 39791259.00 A 317686.61 317686.61 0 0 0 58992322.00 39791259.00 L 58992322.00 39948741.00 A 317686.61 317686.61 0 0 0 59085368.00 40173373.00 L 59109293.00 40191731.39 L 59109293.00 42336865.00 L 59046865.00 42399293.00 L 58774642.19 42399293.00 L 58759369.00 42362420.00 A 317683.20 317683.20 0 0 0 58166574.00 42521259.00 L 58166574.00 42678741.00 A 317686.61 317686.61 0 0 0 58759369.00 42837580.00 L 58774642.19 42800707.00 L 59178113.81 42800707.00 L 59193387.00 42837580.00 A 317683.20 317683.20 0 0 0 59786182.00 42678741.00  zM 59310000.44 39869998.65 m -180637.35 0 a 180637.35 180637.35 0 1 1 361274.69 0a 180637.35 180637.35 0 1 1 -361274.69 0M 58484252.44 42599998.65 m -180637.35 0 a 180637.35 180637.35 0 1 1 361274.69 0a 180637.35 180637.35 0 1 1 -361274.69 0M 59468504.44 42599998.65 m -180637.35 0 a 180637.35 180637.35 0 1 1 361274.69 0a 180637.35 180637.35 0 1 1 -361274.69 0"/>
<path id="N" d="M 62093701.00 43000707.00 L 62900000.00 43000707.00 L 62976807.00 42985429.00 L 63041921.00 42941921.00 L 63866164.82 42117678.00 L 63978741.00 42117678.00 A 317686.61 317686.61 0 1 0 63978741.00 41482322.00 L 63821259.00 41482322.00 A 317686.61 317686.61 0 0 0 63514406.00 41882221.00 L 63520126.25 41896030.99 L 62816864.94 42599293.00 L 62093701.00 42599293.00 L 62093701.00 42504725.00 L 61306299.00 42504725.00 L 61306299.00 43095275.00 L 62093701.00 43095275.00 L 62093701.00 43000707.00  zM 61700000.44 42799998.65 m -180637.35 0 a 180637.35 180637.35 0 1 1 361274.69 0a 180637.35 180637.35 0 1 1 -361274.69 0M 63900000.44 41799998.65 m -180637.35 0 a 180637.35 180637.35 0 1 1 361274.69 0a 180637.35 180637.35 0 1 1 -361274.69 0"/>
<path id="N" d="M 54308476.00 19361092.00 L 54390929.46 19297823.00 L 58278740.00 19297823.00 A 297823.01 297823.01 0 0 0 58489333.00 19210593.00 L 59306224.33 18393701.00 L 59814960.00 18393701.00 L 59814960.00 18197823.00 L 61317237.50 18197823.00 L 61339038.00 18206853.00 L 61421259.00 18217678.00 L 61578741.00 18217678.00 A 317686.61 317686.61 0 1 0 61578741.00 17582322.00 L 61421259.00 17582322.00 L 61339038.00 17593147.00 L 61317237.50 17602177.00 L 59779083.79 17602177.00 L 59757922.00 17551088.00 L 59710588.70 17489403.70 L 59679713.00 17458527.74 L 59679714.00 17367071.00 A 297837.69 297837.69 0 0 0 59592483.00 17156478.00 L 58948450.38 16512445.38 L 58943896.00 16501450.00 A 397093.98 397093.98 0 1 0 58600000.00 17097098.00 L 58680175.48 17086542.48 L 59084067.00 17490434.00 L 59084067.00 17581890.00 L 59094215.00 17658972.00 L 59125177.11 17732377.76 L 58155377.07 18702177.00 L 54390929.46 18702177.00 L 54308476.00 18638908.00 L 54207915.00 18597254.00 L 54104874.76 18583688.76 L 53597823.00 18076637.00 L 53597823.00 16419183.90 L 53609019.00 16410593.00 A 297829.90 297829.90 0 0 0 53398426.00 15902177.00 L 53201574.00 15902177.00 A 297823.01 297823.01 0 0 0 52990981.00 16410593.00 L 53002177.00 16419183.90 L 53002177.00 18200000.00 A 297823.01 297823.01 0 0 0 53089407.00 18410593.00 L 53683688.76 19004874.76 L 53697254.00 19107915.00 A 416954.52 416954.52 0 0 0 54308476.00 19361092.00  zM 53300000.44 16199998.65 m -180637.35 0 a 180637.35 180637.35 0 1 1 361274.69 0a 180637.35 180637.35 0 1 1 -361274.69 0M 54100000.44 18999998.65 m -180637.35 0 a 180637.35 180637.35 0 1 1 361274.69 0a 180637.35 180637.35 0 1 1 -361274.69 0M 58600000.44 16699998.65 m -180637.35 0 a 180637.35 180637.35 0 1 1 361274.69 0a 180637.35 180637.35 0 1 1 -361274.69 0M 59500000.44 17999998.65 m -180637.35 0 a 180637.35 180637.35 0 1 1 361274.69 0a 180637.35 180637.35 0 1 1 -361274.69 0M 61500000.44 17899998.65 m -180637.35 0 a 180637.35 180637.35 0 1 1 361274.69 0a 180637.35 180637.35 0 1 1 -361274.69 0"/>
<path id="N" d="M 68800005.86 13500011.12 m -989001.57 0 a 989001.57 989001.57 0 1 1 1978003.14 0a 989001.57 989001.57 0 1 1 -1978003.14 0M 68799999.40 13499999.06 m -593408.94 0 a 593408.94 593408.94 0 1 1 1186817.89 0a 593408.94 593408.94 0 1 1 -1186817.89 0"/>
<path id="N" d="M 68800005.86 27300011.12 m -989001.57 0 a 989001.57 989001.57 0 1 1 1978003.14 0a 989001.57 989001.57 0 1 1 -1978003.14 0M 68799999.40 27299999.06 m -593408.94 0 a 593408.94 593408.94 0 1 1 1186817.89 0a 593408.94 593408.94 0 1 1 -1186817.89 0"/>
<path id="N" d="M 53000005.86 43500011.12 m -989001.57 0 a 989001.57 989001.57 0 1 1 1978003.14 0a 989001.57 989001.57 0 1 1 -1978003.14 0M 52999999.40 43499999.06 m -593408.94 0 a 593408.94 593408.94 0 1 1 1186817.89 0a 593408.94 593408.94 0 1 1 -1186817.89 0"/>
<path id="N" d="M 68800005.86 43500011.12 m -989001.57 0 a 989001.57 989001.57 0 1 1 1978003.14 0a 989001.57 989001.57 0 1 1 -1978003.14 0M 68799999.40 43499999.06 m -593408.94 0 a 593408.94 593408.94 0 1 1 1186817.89 0a 593408.94 593408.94 0 1 1 -1186817.89 0"/>
<path id="N" d="M 55617678.00 15378741.00 L 55617678.00 15221259.00 A 317686.61 317686.61 0 0 0 55075368.00 14996627.00 L 55031271.03 15054095.00 L 53693701.00 15054095.00 L 53693701.00 14904725.00 L 52906299.00 14904725.00 L 52906299.00 15495275.00 L 53693701.00 15495275.00 L 53693701.00 15455509.00 L 54992429.07 15455509.00 L 54993147.00 15460962.00 A 317671.90 317671.90 0 0 0 55617678.00 15378741.00  zM 53300000.44 15199998.65 m -180637.35 0 a 180637.35 180637.35 0 1 1 361274.69 0a 180637.35 180637.35 0 1 1 -361274.69 0M 55300000.44 15299998.65 m -180637.35 0 a 180637.35 180637.35 0 1 1 361274.69 0a 180637.35 180637.35 0 1 1 -361274.69 0"/>
<path id="N" d="M 58217678.00 18078741.00 L 58217678.00 17921259.00 A 317686.61 317686.61 0 0 0 58124632.00 17696627.00 L 58099084.36 17677023.51 L 58085429.00 17608374.00 L 58041921.00 17543260.00 L 57601938.00 17103277.00 L 57536824.00 17059769.00 L 57460017.00 17044491.00 L 57175433.17 17044491.00 L 58224729.96 15995195.00 L 61106299.00 15995195.00 L 61106299.00 16214960.00 L 61893701.00 16214960.00 L 61893701.00 15585040.00 L 61106299.00 15585040.00 L 61106299.00 15593781.00 L 58141594.00 15593781.00 L 58064786.00 15609059.00 L 57999672.00 15652567.00 L 56785579.27 16866660.63 L 56758839.00 16846142.00 A 317686.61 317686.61 0 0 0 56282322.00 17121259.00 L 56282322.00 17278741.00 A 317686.61 317686.61 0 0 0 56824632.00 17503373.00 L 56868728.97 17445905.00 L 57376882.00 17445905.00 L 57654630.07 17723653.07 L 57624883.00 17762420.00 L 57593147.00 17839038.00 L 57582322.00 17921259.00 L 57582322.00 18078741.00 A 317686.61 317686.61 0 1 0 58217678.00 18078741.00  zM 56600000.44 17199998.65 m -180637.35 0 a 180637.35 180637.35 0 1 1 361274.69 0a 180637.35 180637.35 0 1 1 -361274.69 0M 57900000.44 17999998.65 m -180637.35 0 a 180637.35 180637.35 0 1 1 361274.69 0a 180637.35 180637.35 0 1 1 -361274.69 0M 61500000.44 15899998.65 m -180637.35 0 a 180637.35 180637.35 0 1 1 361274.69 0a 180637.35 180637.35 0 1 1 -361274.69 0"/>
<path id="N" d="M 63611296.00 43841921.00 L 65041921.00 42411296.00 L 65085429.00 42346183.00 L 65100707.00 42269375.00 L 65100707.00 41300000.00 L 65085429.00 41223193.00 L 65041921.00 41158079.00 L 63045586.00 39161744.00 L 62980472.00 39118236.00 L 62903665.00 39102958.00 L 61924543.66 39102958.00 L 61903373.00 39075368.00 L 61837580.00 39024883.00 L 61800707.00 39009609.81 L 61800707.00 38690390.19 L 61837580.00 38675117.00 L 61903373.00 38624632.00 L 61953858.00 38558839.00 L 61957881.86 38549124.48 L 62002592.00 38540231.00 L 62067706.00 38496723.00 L 62741921.00 37822508.00 L 62785429.00 37757394.00 L 62800707.00 37680587.00 L 62800707.00 36800000.00 L 62785429.00 36723193.00 L 62741921.00 36658079.00 L 61487119.00 35403277.00 L 61422005.00 35359769.00 L 61345198.00 35344491.00 L 60872536.72 35344491.00 L 60854709.00 35301451.00 A 397086.64 397086.64 0 1 0 60791603.00 35780791.00 L 60818371.75 35745905.00 L 61262063.00 35745905.00 L 62399293.00 36883135.00 L 62399293.00 37597452.00 L 61856977.61 38139767.39 L 61837580.00 38124883.00 L 61760962.00 38093147.00 L 61678741.00 38082322.00 L 61521259.00 38082322.00 A 317686.61 317686.61 0 0 0 61296627.00 38175368.00 L 61276153.85 38202049.00 L 60542913.00 38202049.00 L 60464344.46 38218504.00 L 60195669.00 38218504.00 L 60195669.00 38592520.00 L 60471288.10 38592520.00 L 60540157.00 38606219.00 L 60554012.22 38603463.00 L 61280383.37 38603463.00 L 61296627.00 38624632.00 L 61362420.00 38675117.00 L 61399293.00 38690390.19 L 61399293.00 39009609.81 L 61362420.00 39024883.00 A 317683.20 317683.20 0 0 0 61521259.00 39617678.00 L 61678741.00 39617678.00 A 317686.61 317686.61 0 0 0 61903373.00 39524632.00 L 61918919.12 39504372.00 L 62820530.00 39504372.00 L 64699293.00 41383135.00 L 64699293.00 42186240.00 L 63386240.00 43499293.00 L 58308060.00 43499293.00 L 57745905.00 42937138.00 L 57745905.00 42875649.63 L 57775117.00 42837580.00 L 57806853.00 42760962.00 L 57817678.00 42678741.00 L 57817678.00 42521259.00 A 317686.61 317686.61 0 1 0 57182322.00 42521259.00 L 57182322.00 42678741.00 A 317686.61 317686.61 0 0 0 57344491.00 42955237.32 L 57344491.00 43020273.00 L 57359769.00 43097080.00 L 57403277.00 43162194.00 L 58083004.00 43841921.00 L 58148118.00 43885429.00 L 58224925.00 43900707.00 L 63469375.00 43900707.00 L 63546182.00 43885429.00 L 63611296.00 43841921.00  zM 60510813.44 35499998.65 m -180637.35 0 a 180637.35 180637.35 0 1 1 361274.69 0a 180637.35 180637.35 0 1 1 -361274.69 0M 61600000.44 38399998.65 m -180637.35 0 a 180637.35 180637.35 0 1 1 361274.69 0a 180637.35 180637.35 0 1 1 -361274.69 0M 57500000.44 42599998.65 m -180637.35 0 a 180637.35 180637.35 0 1 1 361274.69 0a 180637.35 180637.35 0 1 1 -361274.69 0M 61600000.44 39299998.65 m -180637.35 0 a 180637.35 180637.35 0 1 1 361274.69 0a 180637.35 180637.35 0 1 1 -361274.69 0"/>
<path id="N" d="M 62009019.00 41589407.00 L 61960158.00 41551915.03 L 61960158.00 40614960.00 L 61993701.00 40614960.00 L 61993701.00 40597823.00 L 62268504.44 40597823.00 L 62381274.00 40710593.00 A 297829.90 297829.90 0 0 0 62591874.60 40797823.00 L 62745934.00 40797823.00 A 297823.01 297823.01 0 1 0 62745934.00 40202177.00 L 62715229.44 40202177.00 L 62602460.00 40089407.00 A 297829.90 297829.90 0 0 0 62391867.00 40002177.00 L 61993701.00 40002177.00 L 61993701.00 39985040.00 L 61703230.30 39985040.00 L 61654424.00 39947590.00 L 61582594.00 39917837.00 L 61505512.00 39907689.00 L 61096857.06 39907689.00 L 59797823.00 38608654.06 L 59797823.00 37797823.00 L 61436079.00 37797823.00 L 61513161.00 37787675.00 L 61584991.00 37757922.00 L 61637438.55 37717678.00 L 61678741.00 37717678.00 A 317686.61 317686.61 0 0 0 61678741.00 37082322.00 L 61521259.00 37082322.00 A 317686.61 317686.61 0 0 0 61296627.00 37175368.00 L 61276055.63 37202177.00 L 58404331.00 37202177.00 L 58404331.00 36870079.00 L 58357666.00 36870079.00 L 58357666.00 35948700.58 L 58390196.64 35916169.78 L 58460962.00 35906853.00 A 317671.90 317671.90 0 0 0 58378741.00 35282322.00 L 58221259.00 35282322.00 L 58139038.00 35293147.00 L 58072564.59 35320681.00 L 55518504.00 35320680.00 L 55441422.00 35330829.00 L 55421248.86 35339185.00 L 55401574.00 35339185.00 A 297823.01 297823.01 0 0 0 55401574.00 35934831.00 L 55598426.00 35934831.00 L 55675508.00 35924683.00 L 55695681.14 35916327.00 L 57762020.00 35916327.00 L 57762020.00 36870079.00 L 57715355.00 36870079.00 L 57715355.00 38129921.00 L 58404331.00 38129921.00 L 58404331.00 37797823.00 L 59202177.00 37797823.00 L 59202177.00 38732017.00 A 297823.01 297823.01 0 0 0 59289407.00 38942610.00 L 60762902.00 40416105.00 A 297844.08 297844.08 0 0 0 60973502.60 40503335.00 L 61206299.00 40503335.00 L 61206299.00 40614960.00 L 61364512.00 40614960.00 L 61364512.00 41623902.43 L 61343652.00 41651088.00 A 297823.01 297823.01 0 0 0 61601574.00 42097823.00 L 61798426.00 42097823.00 A 297829.90 297829.90 0 0 0 62009019.00 41589407.00  zM 55500000.44 35637006.65 m -180637.35 0 a 180637.35 180637.35 0 1 1 361274.69 0a 180637.35 180637.35 0 1 1 -361274.69 0M 58300000.68 35599999.74 m -100353.26 0 a 100353.26 100353.26 0 1 1 200706.53 0a 100353.26 100353.26 0 1 1 -200706.53 0M 61600000.44 37399998.65 m -180637.35 0 a 180637.35 180637.35 0 1 1 361274.69 0a 180637.35 180637.35 0 1 1 -361274.69 0M 61600000.44 40299998.65 m -180637.35 0 a 180637.35 180637.35 0 1 1 361274.69 0a 180637.35 180637.35 0 1 1 -361274.69 0M 61700000.44 41799998.65 m -180637.35 0 a 180637.35 180637.35 0 1 1 361274.69 0a 180637.35 180637.35 0 1 1 -361274.69 0"/>
<path id="N" d="M 69214960.00 41624321.70 L 69218162.00 41600000.00 L 69218163.00 40520339.00 A 297837.69 297837.69 0 0 0 69130927.70 40309742.70 L 67671185.95 38850000.05 L 69169270.25 37351915.75 L 69178912.00 37347922.00 L 69240593.00 37300593.00 L 69285036.00 37256150.00 A 297829.90 297829.90 0 0 0 69372266.00 37045549.40 L 69372266.00 31562064.76 L 69377636.00 31557951.00 A 317684.55 317684.55 0 0 0 69153439.00 31015461.00 L 69084525.42 31015405.86 L 69060000.00 31012177.00 L 69035770.56 31015366.85 L 68995957.00 31015335.00 L 68913727.00 31026094.00 L 68891564.56 31035253.00 L 66874016.00 31035253.00 A 297823.01 297823.01 0 0 0 66663423.00 31122483.00 L 64666397.25 33119508.75 L 64599957.00 33110762.00 L 64533516.75 33119508.75 L 61973415.00 30559407.00 A 297829.90 297829.90 0 0 0 61762822.00 30472177.00 L 61292768.30 30472177.00 L 61258839.00 30446142.00 A 317686.61 317686.61 0 0 0 60782322.00 30721259.00 L 60782322.00 30878741.00 A 317686.61 317686.61 0 0 0 61324632.00 31103373.00 L 61351910.61 31067823.00 L 61639459.00 31067823.00 L 64112330.75 33540694.75 L 64103584.00 33607135.00 L 64103584.00 34591387.00 A 496366.14 496366.14 0 1 0 65096330.00 34591387.00 L 65096330.00 33607135.00 L 65087583.25 33540694.75 L 66997379.00 31630899.00 L 68776620.00 31630899.00 L 68776620.00 36902194.00 L 67176637.00 38502177.00 L 65300000.00 38502177.00 A 297823.01 297823.01 0 0 0 65089407.00 39010593.00 L 65123200.26 39036523.21 L 65149394.00 39099718.00 A 397086.65 397086.65 0 0 0 65837903.69 39097823.00 L 67079608.34 39097823.00 L 67089407.00 39110593.00 L 68622516.00 40643701.04 L 68622516.00 41206299.00 L 68585040.00 41206299.00 L 68585040.00 41993701.00 L 69214960.00 41993701.00 L 69214960.00 41624321.70  zM 61100000.44 30799998.65 m -180637.35 0 a 180637.35 180637.35 0 1 1 361274.69 0a 180637.35 180637.35 0 1 1 -361274.69 0M 64698382.00 34788237.00 L 64501532.00 34788237.00 L 64501532.00 33410285.00 L 64698382.00 33410285.00 L 64698382.00 34788237.00  zM 69074443.44 31333074.65 m -180637.35 0 a 180637.35 180637.35 0 1 1 361274.69 0a 180637.35 180637.35 0 1 1 -361274.69 0M 65493243.44 38901084.65 m -180637.35 0 a 180637.35 180637.35 0 1 1 361274.69 0a 180637.35 180637.35 0 1 1 -361274.69 0M 68900000.44 41599998.65 m -180637.35 0 a 180637.35 180637.35 0 1 1 361274.69 0a 180637.35 180637.35 0 1 1 -361274.69 0"/>
<path id="N" d="M 69153439.00 24090133.00 L 68995957.00 24090007.00 L 68913727.00 24100766.00 L 68891564.56 24109925.00 L 64831110.09 24109925.00 L 64027823.00 23306637.09 L 64027823.00 21223363.00 L 64103584.00 21147602.00 L 64103584.00 21209366.00 A 496366.14 496366.14 0 1 0 65096330.00 21209366.00 L 65096330.00 20225114.00 A 496366.14 496366.14 0 0 0 64848143.00 19795242.00 L 64835615.00 19790052.69 L 64835615.00 18817485.00 L 65388917.90 18264182.10 A 393861.23 393861.23 0 1 0 65294611.00 17537420.00 L 65234658.21 17583446.00 L 64824632.00 17583446.00 L 63930593.00 16689407.00 A 297829.90 297829.90 0 0 0 63720000.00 16602177.00 L 61682762.50 16602177.00 L 61660962.00 16593147.00 L 61578741.00 16582322.00 L 61421259.00 16582322.00 A 317686.61 317686.61 0 0 0 61421259.00 17217678.00 L 61578741.00 17217678.00 L 61660962.00 17206853.00 L 61682762.50 17197823.00 L 63596637.00 17197823.00 L 64490676.00 18091862.00 L 64552357.00 18139191.00 L 64624187.00 18168944.00 L 64639736.65 18170991.35 L 64327199.00 18483529.00 A 297829.90 297829.90 0 0 0 64239969.00 18694122.00 L 64239969.00 19885852.69 L 64170085.00 19976927.00 L 64120497.00 20096643.00 L 64103584.00 20225114.00 L 64103584.00 20426376.11 A 292891.73 292891.73 0 0 0 63895544.00 20513270.00 L 63519407.00 20889407.00 A 297829.90 297829.90 0 0 0 63432177.00 21100000.00 L 63432177.00 23430000.00 A 297823.01 297823.01 0 0 0 63519407.00 23640593.00 L 64497155.00 24618341.00 A 297829.90 297829.90 0 0 0 64707748.00 24705571.00 L 68891794.84 24705571.00 L 68913235.00 24714472.00 L 68995447.00 24725363.00 L 69152929.00 24725489.00 A 317663.23 317663.23 0 0 0 69153439.00 24090133.00  zM 61500000.44 16899998.65 m -180637.35 0 a 180637.35 180637.35 0 1 1 361274.69 0a 180637.35 180637.35 0 1 1 -361274.69 0M 64698382.00 21406216.00 L 64501532.00 21406216.00 L 64501532.00 20028264.00 L 64698382.00 20028264.00 L 64698382.00 21406216.00  zM 65493243.44 17881267.65 m -180637.35 0 a 180637.35 180637.35 0 1 1 361274.69 0a 180637.35 180637.35 0 1 1 -361274.69 0M 69074443.44 24407746.65 m -180637.35 0 a 180637.35 180637.35 0 1 1 361274.69 0a 180637.35 180637.35 0 1 1 -361274.69 0"/>
<path id="N" d="M 57397823.00 37998426.00 L 57397823.00 36882762.50 L 57406853.00 36860962.00 L 57417678.00 36778741.00 L 57417678.00 36621259.00 A 317686.61 317686.61 0 0 0 56875368.00 36396627.00 L 56871109.31 36402177.00 L 55619297.78 36402177.00 L 55575088.00 36368254.00 L 55503258.00 36338501.00 L 55426176.00 36328353.00 L 55226154.09 36328353.00 L 54408063.00 35510261.09 L 54408063.00 27997823.00 L 57191405.71 27997823.00 L 57251451.00 28043897.00 A 397100.93 397100.93 0 1 0 57251451.00 27356103.00 L 57191405.71 27402177.00 L 54401169.46 27402177.00 L 54318716.00 27338908.00 A 416944.49 416944.49 0 0 0 53812417.00 27990929.46 L 53812417.00 35633624.00 A 297823.01 297823.01 0 0 0 53899647.00 35844217.00 L 54892199.00 36836769.00 A 297829.90 297829.90 0 0 0 55102792.00 36923999.00 L 55208452.22 36923999.00 L 55252662.00 36957922.00 L 55324492.00 36987675.00 L 55401574.00 36997823.00 L 56802177.00 36997823.00 L 56802177.00 37998426.00 A 297823.01 297823.01 0 0 0 57397823.00 37998426.00  zM 54110240.44 27699998.65 m -180637.35 0 a 180637.35 180637.35 0 1 1 361274.69 0a 180637.35 180637.35 0 1 1 -361274.69 0M 57450000.44 27699998.65 m -180637.35 0 a 180637.35 180637.35 0 1 1 361274.69 0a 180637.35 180637.35 0 1 1 -361274.69 0M 55500000.44 36699998.65 m -180637.35 0 a 180637.35 180637.35 0 1 1 361274.69 0a 180637.35 180637.35 0 1 1 -361274.69 0M 57100000.44 36699998.65 m -180637.35 0 a 180637.35 180637.35 0 1 1 361274.69 0a 180637.35 180637.35 0 1 1 -361274.69 0M 57099999.13 37900001.07 m -150528.93 0 a 150528.93 150528.93 0 1 1 301057.86 0a 150528.93 150528.93 0 1 1 -301057.86 0"/>
<path id="N" d="M 60609025.90 36781496.00 L 60884645.00 36781496.00 L 60884645.00 36407480.00 L 60609025.90 36407480.00 L 60540157.00 36393781.00 L 60485498.69 36393781.00 L 60355308.00 36263591.00 L 60290194.00 36220083.00 L 60213387.00 36204805.00 L 60140133.00 36204805.00 L 59606113.00 35670785.00 L 59606113.00 35346079.00 L 59590835.00 35269272.00 L 59547327.00 35204158.00 L 58895736.00 34552567.00 L 58830622.00 34509059.00 L 58753815.00 34493781.00 L 58693701.00 34493781.00 L 58693701.00 34285040.00 L 58201280.27 34285040.00 L 58181890.00 34281183.00 L 57965025.92 34281183.00 L 57417678.00 33733835.78 L 57417678.00 33621259.00 A 317686.61 317686.61 0 0 0 56793147.00 33539038.00 L 56792429.07 33544491.00 L 56328818.00 33544491.00 L 56252011.00 33559769.00 L 56186897.00 33603276.00 L 55511432.81 34278741.00 L 55106299.00 34278741.00 L 55106299.00 34869291.00 L 55893701.00 34869291.00 L 55893701.00 34464157.30 L 56411953.93 33945905.00 L 56831271.03 33945905.00 L 56875368.00 34003373.00 A 317671.90 317671.90 0 0 0 57182221.00 34085594.00 L 57196031.31 34079873.62 L 57739968.00 34623811.00 L 57805082.00 34667319.00 L 57881890.00 34682597.00 L 57906299.00 34682597.00 L 57906299.00 34914960.00 L 58690445.00 34914960.00 L 59204699.00 35429214.00 L 59204699.00 35753920.00 L 59219977.00 35830727.00 L 59263485.00 35895841.00 L 59915077.00 36547433.00 L 59980190.00 36590941.00 L 60056998.00 36606219.00 L 60130251.69 36606219.00 L 60195669.00 36671636.66 L 60195669.00 36781496.00 L 60333493.72 36781496.00 L 60402363.00 36795195.00 L 60540157.00 36795195.00 L 60609025.90 36781496.00  zM 55500000.44 34574014.65 m -180637.35 0 a 180637.35 180637.35 0 1 1 361274.69 0a 180637.35 180637.35 0 1 1 -361274.69 0M 57100000.44 33699998.65 m -180637.35 0 a 180637.35 180637.35 0 1 1 361274.69 0a 180637.35 180637.35 0 1 1 -361274.69 0M 58300000.68 34599999.74 m -100353.26 0 a 100353.26 100353.26 0 1 1 200706.53 0a 100353.26 100353.26 0 1 1 -200706.53 0"/>
<path id="N" d="M 68042453.65 44651876.91 L 67987555.00 44618235.00 A 1382226.82 1382226.82 0 0 1 68172488.00 42268438.00 L 68191339.00 42260629.64 L 68191339.00 42034759.11 L 68146494.91 42012644.41 L 68109270.00 42041208.00 L 68092175.27 42048288.97 L 68079916.00 41986658.00 L 68058839.00 41953858.00 A 317683.20 317683.20 0 0 0 68217678.00 41678741.00 L 68217678.00 41521259.00 A 317686.61 317686.61 0 0 0 67982221.00 41214406.00 L 67950000.03 41210163.87 L 67950000.04 41109300.45 L 68008326.00 41116979.00 L 68109270.00 41158792.00 L 68146494.91 41187355.59 L 68191339.00 41165240.89 L 68191338.33 40812598.75 L 68185812.59 40764886.59 L 66913236.00 39492310.00 L 66014012.68 39492310.00 L 65932975.00 39558849.00 A 791193.87 791193.87 0 0 1 64835480.00 39340818.00 L 64803545.98 39281108.65 L 64724365.00 39184627.00 A 692300.20 692300.20 0 0 1 65300000.00 38107690.00 L 67013236.00 38107690.00 L 68382133.00 36738793.00 L 68382133.00 32025386.00 L 67160780.00 32025386.00 L 65490070.00 33696096.00 L 65490070.00 34591387.00 L 65472967.00 34765039.00 L 65422314.00 34932018.00 L 65376897.72 35016986.28 L 65158079.00 35235805.00 L 65114571.00 35300919.00 L 65111224.05 35317745.08 L 65094477.00 35331489.00 A 890133.85 890133.85 0 0 1 63709844.00 34591387.00 L 63709844.00 33696096.00 L 61488417.61 31474669.61 L 61372505.00 31536626.00 A 712098.72 712098.72 0 0 1 60596476.00 31382265.00 L 60549493.65 31325016.32 L 60514957.94 31293701.00 L 60300707.00 31293701.00 L 60300707.00 31193701.00 L 60414960.00 31193701.00 L 60414960.00 30409555.08 L 60653936.61 30170578.73 L 60704384.00 30129178.00 A 712094.99 712094.99 0 0 1 61372505.00 30063374.00 L 61399288.43 30077690.00 L 61762822.00 30077690.00 A 692286.02 692286.02 0 0 1 62252359.00 30280463.00 L 64599957.00 32628061.00 L 66384479.00 30843539.00 A 692293.40 692293.40 0 0 1 66874016.00 30640766.00 L 68581297.40 30640766.00 L 68581491.87 30398428.64 L 68681491.84 30398508.92 L 68681279.00 30663468.00 L 69468681.00 30664100.00 L 69469187.00 30034180.00 L 69125484.83 30033904.13 L 69125565.11 29933904.66 L 69442784.81 29934159.42 L 69461937.71 29887972.71 L 69438933.00 29864968.00 L 69503901.00 29800000.00 L 69900000.00 29800000.00 L 69949999.93 30299997.22 L 70000000.00 30297503.43 L 70000000.00 28071118.46 L 69951876.91 28057546.35 L 69918235.00 28112445.00 A 1382226.82 1382226.82 0 1 1 68372872.00 25985436.00 L 68506299.00 25953403.07 L 68506299.00 25100058.00 L 64707748.00 25100058.00 A 692336.08 692336.08 0 0 1 64218211.00 24897285.00 L 63240463.00 23919537.00 A 692293.40 692293.40 0 0 1 63037690.00 23430000.00 L 63037690.00 21100000.00 A 692286.02 692286.02 0 0 1 63240463.00 20610463.00 L 63616600.00 20234326.00 L 63717056.44 20151883.93 L 63726947.00 20051462.00 L 63777600.00 19884483.00 L 63845482.00 19757484.12 L 63845482.00 18694122.00 A 692286.02 692286.02 0 0 1 64047018.13 18206092.13 L 63433236.00 17592310.00 L 62267509.54 17592310.00 L 62241120.24 17642310.52 L 62277148.00 17761078.00 A 712071.42 712071.42 0 0 1 61578741.00 18612090.00 L 61421259.00 18612090.00 L 61282337.00 18598407.00 L 61262237.90 18592310.00 L 60208661.00 18592310.00 L 60208661.00 18787402.00 L 59470412.00 18787402.00 L 58768277.00 19489537.00 A 692293.40 692293.40 0 0 1 58278740.00 19692310.00 L 54516896.81 19692310.00 L 54410353.00 19749259.00 A 810989.88 810989.88 0 0 1 53350741.00 19310353.00 L 53315671.95 19194745.95 L 52810463.00 18689537.00 A 692293.40 692293.40 0 0 1 52607690.00 18200000.00 L 52607690.00 16550485.43 L 52561963.00 16464936.00 L 52558103.00 16452211.11 L 52558103.00 15947788.89 L 52560776.18 15938976.49 L 52560220.12 15926100.48 L 52558103.00 15922568.27 L 52558103.00 14523082.82 L 52656764.70 14424420.96 L 52807053.00 14470010.00 A 988994.34 988994.34 0 0 0 53549467.00 14322335.00 L 53626631.70 14259007.97 L 53784816.28 14250596.52 L 53769053.00 14269053.00 L 53639278.00 14379891.00 L 53506881.04 14461023.67 L 53520982.55 14511024.00 L 54087402.00 14511024.00 L 54087402.00 14661394.00 L 54865128.33 14661394.00 L 54904384.00 14629178.00 A 712094.99 712094.99 0 0 1 55892081.00 14825643.00 L 55943574.30 14921980.49 L 56002227.07 14927677.75 L 56070816.36 14874072.23 L 56142380.82 14945636.74 A 315268.81 315268.81 0 0 0 55982322.00 15221259.00 L 55982322.00 15378741.00 A 317686.61 317686.61 0 0 0 56141161.00 15653858.00 L 56190528.46 15674306.54 L 56113991.59 15750843.41 L 56090730.00 15741208.00 L 56002227.07 15672322.25 L 55943574.30 15678019.51 L 55892081.00 15774357.00 A 712057.32 712057.32 0 0 1 54796476.00 15882265.00 L 54768528.04 15848210.00 L 54087402.00 15848210.00 L 54087402.00 15888976.00 L 54062031.46 15888976.00 L 54039779.88 15926100.48 L 54039223.82 15938976.49 L 54077433.00 16064937.00 A 692286.84 692286.84 0 0 1 54038037.00 16464936.00 L 53992310.00 16550485.43 L 53992310.00 17913236.00 L 54294745.95 18215671.95 L 54410353.00 18250741.00 L 54516896.81 18307690.00 L 57186934.37 18307690.00 L 57216719.73 18267529.08 L 57201593.00 18217663.00 L 57187910.00 18078741.00 L 57187910.00 17921259.00 L 57192401.81 17875654.15 L 57158823.42 17838606.00 L 57034871.67 17838606.00 L 56995616.00 17870822.00 A 712094.99 712094.99 0 0 1 56007919.00 17674357.00 L 55956425.70 17578019.51 L 55897772.93 17572322.25 L 55809270.00 17641208.00 L 55708326.00 17683021.00 L 55650000.00 17690699.55 L 55650000.00 17589836.13 L 55682221.00 17585594.00 A 317671.90 317671.90 0 0 0 55875117.00 17437580.00 L 55904338.29 17367033.09 L 55941921.00 17341921.00 L 55985429.00 17276807.00 L 56000707.00 17200000.00 L 56000707.00 16739135.74 L 56007919.00 16725643.00 A 712057.32 712057.32 0 0 1 56600000.00 16409169.00 L 56679842.94 16417033.06 L 57721991.00 15374885.00 A 593405.42 593405.42 0 0 1 58025825.00 15212482.00 L 58062579.41 15208862.09 L 58106299.19 15193700.24 L 58106300.00 14900707.00 L 58206300.00 14900707.00 L 58206300.00 15093701.00 L 58993700.00 15093701.00 L 58993700.00 14900707.00 L 59093700.27 14900707.00 L 59093700.76 15193700.11 L 59140644.02 15201080.00 L 60712598.00 15201080.00 L 60712598.00 15191339.00 L 62287402.00 15191339.00 L 62287402.00 16207690.00 L 63720000.00 16207690.00 A 692286.02 692286.02 0 0 1 64209537.00 16410463.00 L 64988033.00 17188959.00 L 65118106.04 17188959.00 L 65190283.00 17150357.00 A 791215.05 791215.05 0 1 1 65647788.00 18657241.00 L 65543444.77 18667543.23 L 65230102.00 18980886.00 L 65230102.00 19596610.69 A 887135.18 887135.18 0 0 1 65490070.00 20225114.00 L 65490070.00 21209366.00 A 890094.36 890094.36 0 0 1 64599957.00 22099479.00 L 64472310.54 22086907.09 L 64422310.00 22132225.00 L 64422310.00 23143236.00 L 64994512.00 23715438.00 L 68581297.40 23715438.00 L 68581491.87 23473100.64 L 68681491.84 23473180.92 L 68681279.00 23738140.00 L 69468681.00 23738772.00 L 69468893.84 23473813.05 L 69568893.87 23473893.33 L 69568606.55 23831938.89 L 69657112.00 23904692.00 A 712134.88 712134.88 0 0 1 69851479.00 24547294.00 L 69838322.52 24590540.14 L 69868091.77 24630713.00 L 69969287.00 24630713.00 L 70000000.00 24600000.00 L 70000000.00 14271118.46 L 69951876.91 14257546.35 L 69918235.00 14312445.00 A 1382226.82 1382226.82 0 1 1 67822627.00 12522627.00 L 67911280.15 12446909.96 L 67893974.14 12400000.00 L 53276919.89 12400000.00 L 53271001.95 12450000.16 L 53336088.00 12465626.00 L 53493762.00 12530937.00 L 53639278.00 12620109.00 L 53698322.64 12670537.74 L 53549467.00 12677665.00 A 989001.57 989001.57 0 0 0 52029990.00 13307053.00 L 52015910.67 13450000.00 L 51916330.02 13450000.00 L 51925785.00 13329861.00 A 1087599.90 1087599.90 0 0 1 52663912.00 12465626.00 L 52728998.05 12450000.16 L 52723080.11 12400000.00 L 51800000.00 12400000.00 L 51800000.00 14201352.43 L 51777438.00 14255822.00 L 51763907.00 14358599.00 L 51763907.00 21261005.00 L 51777438.00 21363782.00 L 51800000.00 21418251.57 L 51800000.00 42728881.54 L 51848123.09 42742453.65 L 51881765.00 42687555.00 A 1382226.82 1382226.82 0 1 1 53812445.00 44618235.00 L 53757546.35 44651876.91 L 53771118.46 44700000.00 L 68028881.54 44700000.00 L 68042453.65 44651876.91  zM 52011407.76 13946614.45 L 51965626.00 13836088.00 L 51925785.00 13670139.00 L 51916330.02 13550000.00 L 52015910.67 13550000.00 L 52029990.00 13692947.00 L 52084704.41 13873317.91 L 52011407.76 13946614.45  zM 52999999.40 13499999.06 m -593408.94 0 a 593408.94 593408.94 0 1 1 1186817.89 0a 593408.94 593408.94 0 1 1 -1186817.89 0M 56300000.44 15299998.65 m -180637.35 0 a 180637.35 180637.35 0 1 1 361274.69 0a 180637.35 180637.35 0 1 1 -361274.69 0M 56606219.00 14973860.00 L 56606219.00 14938684.80 L 56621491.22 14958587.78 L 56606219.00 14973860.00  zM 56655509.00 15597079.77 L 56655509.00 15475552.60 L 56705842.00 15441921.00 L 56710887.68 15436875.32 L 56704280.00 15487067.00 L 56662467.00 15588012.00 L 56655509.00 15597079.77  zM 55282322.00 17150000.00 L 55181459.00 17150000.00 L 55181459.00 17121259.00 A 418533.70 418533.70 0 0 1 55491674.00 16716979.00 L 55550000.00 16709300.45 L 55550000.00 16810163.87 L 55517779.00 16814406.00 A 317671.90 317671.90 0 0 0 55282322.00 17121259.00 L 55282322.00 17150000.00  zM 55600000.44 17199998.65 m -180637.35 0 a 180637.35 180637.35 0 1 1 361274.69 0a 180637.35 180637.35 0 1 1 -361274.69 0M 55550000.00 17690699.55 L 55491674.00 17683021.00 A 418552.54 418552.54 0 0 1 55181459.00 17278741.00 L 55181459.00 17250000.00 L 55282322.00 17250000.00 L 55282322.00 17278741.00 A 317686.61 317686.61 0 0 0 55517779.00 17585594.00 L 55550000.00 17589836.13 L 55550000.00 17690699.55  zM 57699999.98 25191378.23 L 57621118.00 25180993.00 A 497968.61 497968.61 0 0 1 57318753.00 24948980.00 L 57298757.76 24900707.00 L 57407758.88 24900707.00 A 391877.54 391877.54 0 0 0 57647223.00 25083567.00 L 57699999.98 25090515.30 L 57699999.98 25191378.23  zM 58206300.00 14499293.00 L 58106300.00 14499293.00 L 58106300.00 14206299.00 L 58550000.01 14206299.00 L 58550000.00 14306299.00 L 58206300.00 14306299.00 L 58206300.00 14499293.00  zM 58600000.44 14699998.65 m -180637.35 0 a 180637.35 180637.35 0 1 1 361274.69 0a 180637.35 180637.35 0 1 1 -361274.69 0M 59093700.11 14499293.00 L 58993700.00 14499293.00 L 58993700.00 14306299.00 L 58650000.00 14306299.00 L 58650000.01 14206299.00 L 59093700.00 14206299.00 L 59093700.11 14499293.00  zM 64999047.95 15831387.96 L 64998988.04 15582830.72 L 65099012.10 15682854.88 L 65099047.93 15831363.86 L 64999047.95 15831387.96  zM 65531083.40 23115232.00 L 65338145.00 23115232.00 A 547600.66 547600.66 0 0 1 64809206.00 22709363.00 L 64797129.62 22617633.91 L 64897992.53 22617633.92 L 64906632.00 22683258.00 A 446720.81 446720.81 0 0 0 65338145.00 23014369.00 L 65525353.68 23014369.00 L 65518187.00 23050398.00 L 65531083.40 23115232.00  zM 57407758.88 24499293.00 L 57298757.76 24499293.00 L 57318753.00 24451020.00 A 497940.77 497940.77 0 0 1 57621118.00 24219007.00 L 57700000.02 24208621.76 L 57700000.02 24309484.70 L 57647223.00 24316433.00 A 397102.15 397102.15 0 0 0 57407758.88 24499293.00  zM 58201242.24 24499293.00 L 58092241.12 24499293.00 A 391877.54 391877.54 0 0 0 57852777.00 24316433.00 L 57800000.02 24309484.70 L 57800000.02 24208621.77 L 57878882.00 24219007.00 A 497968.61 497968.61 0 0 1 58181247.00 24451020.00 L 58201242.24 24499293.00  zM 57750000.44 24699998.65 m -180637.35 0 a 180637.35 180637.35 0 1 1 361274.69 0a 180637.35 180637.35 0 1 1 -361274.69 0M 57799999.98 25191378.24 L 57799999.98 25090515.30 L 57852777.00 25083567.00 A 397102.15 397102.15 0 0 0 58092241.12 24900707.00 L 58201242.24 24900707.00 L 58181247.00 24948980.00 A 497940.77 497940.77 0 0 1 57878882.00 25180993.00 L 57799999.98 25191378.24  zM 65442657.21 15458814.37 L 65371439.98 15387597.21 L 65442640.04 15387580.05 L 65442657.21 15458814.37  zM 65986426.82 15735204.34 L 65955547.00 15714571.00 L 65886418.48 15700820.36 L 65886367.00 15487473.00 L 65542664.14 15487555.94 L 65542640.04 15387555.95 L 65986343.00 15387449.00 L 65986426.82 15735204.34  zM 65492761.44 15881267.65 m -180637.35 0 a 180637.35 180637.35 0 1 1 361274.69 0a 180637.35 180637.35 0 1 1 -361274.69 0M 64999179.00 16375089.00 L 64999072.05 15931387.96 L 65099072.06 15931363.86 L 65099155.00 16275065.00 L 65442853.86 16274982.07 L 65442877.96 16374982.05 L 64999179.00 16375089.00  zM 65542877.96 16374957.95 L 65542853.86 16274957.94 L 65886557.00 16274875.00 L 65886536.92 16191639.06 L 65986560.95 16291663.19 L 65986581.00 16374851.00 L 65542877.96 16374957.95  zM 66515427.00 20667241.98 L 66414564.00 20667241.98 L 66414564.00 20274326.00 A 547600.66 547600.66 0 0 1 66688363.00 19800092.00 L 66699290.00 19795565.90 L 66699290.00 19917754.97 L 66646273.00 19958437.00 A 446720.81 446720.81 0 0 0 66515427.00 20274326.00 L 66515427.00 20667241.98  zM 67509760.00 20667242.02 L 67408897.00 20667242.02 L 67408897.00 20274326.00 A 446733.54 446733.54 0 0 0 67185530.00 19887442.00 L 67100704.00 19852305.94 L 67100704.00 19744967.42 A 541820.37 541820.37 0 0 1 67436396.00 20000527.00 L 67491101.00 20132597.00 L 67509760.00 20274326.00 L 67509760.00 20667242.02  zM 67060587.00 21307791.00 L 66863737.00 21307791.00 L 66863737.00 20126689.00 L 67060587.00 20126689.00 L 67060587.00 21307791.00  zM 66605127.00 21570518.27 L 66574952.00 21547364.00 A 547587.27 547587.27 0 0 1 66414564.00 21160154.00 L 66414564.00 20767241.98 L 66515427.00 20767241.98 L 66515427.00 21160154.00 L 66530649.00 21275778.00 L 66575278.00 21383522.00 L 66605127.00 21422421.35 L 66605127.00 21570518.27  zM 64897992.55 22517633.92 L 64797129.64 22517633.91 L 64809206.00 22425905.00 A 547587.27 547587.27 0 0 1 65338145.00 22020036.00 L 65731061.05 22020036.00 L 65731061.04 22120899.00 L 65338145.00 22120899.00 A 446726.20 446726.20 0 0 0 64906632.00 22452010.00 L 64897992.55 22517633.92  zM 66371610.00 22666059.00 L 65190508.00 22666059.00 L 65190508.00 22469209.00 L 66371610.00 22469209.00 L 66371610.00 22666059.00  zM 66541419.40 22253774.60 A 442138.19 442138.19 0 0 0 66223973.00 22120899.00 L 65831061.04 22120899.00 L 65831061.05 22020036.00 L 66223973.00 22020036.00 L 66365702.00 22038695.00 L 66497772.00 22093400.00 L 66605127.00 22175777.03 L 66605127.00 22190067.00 L 66541419.40 22253774.60  zM 67012159.96 21701169.64 L 67012159.96 21600306.72 L 67077786.00 21591667.00 A 446720.81 446720.81 0 0 0 67408897.00 21160154.00 L 67408897.00 20767242.02 L 67509760.00 20767242.02 L 67509760.00 21160154.00 A 547600.66 547600.66 0 0 1 67103891.00 21689093.00 L 67012159.96 21701169.64  zM 66251235.13 23111642.87 L 66380796.57 22982081.43 L 66447340.00 22954518.00 L 66539862.00 22883523.00 L 66610857.00 22791002.00 L 66638420.70 22724457.30 L 66745243.92 22617634.08 L 66764988.36 22617634.09 L 66752912.00 22709363.00 A 547587.27 547587.27 0 0 1 66365702.00 23096573.00 L 66251235.13 23111642.87  zM 68681572.16 23373180.95 L 68581572.12 23373100.67 L 68581865.00 23008140.00 L 69025565.14 23008496.34 L 69025484.86 23108495.87 L 68681785.00 23108220.00 L 68681572.16 23373180.95  zM 69568974.12 23373893.36 L 69468974.16 23373813.08 L 69469187.00 23108852.00 L 69125484.83 23108576.13 L 69125565.11 23008576.66 L 69569267.00 23008933.00 L 69568974.12 23373893.36  zM 69075233.44 23423494.65 m -180637.35 0 a 180637.35 180637.35 0 1 1 361274.69 0a 180637.35 180637.35 0 1 1 -361274.69 0M 68681572.16 30298508.95 L 68581572.12 30298428.67 L 68581865.00 29933468.00 L 69025565.14 29933824.34 L 69025484.86 30033823.87 L 68681785.00 30033548.00 L 68681572.16 30298508.95  zM 59785040.00 30749999.97 L 59685040.00 30749999.96 L 59685040.00 30306299.00 L 60001714.89 30306299.00 L 59993781.00 30346185.00 L 59993781.00 30406299.00 L 59785040.00 30406299.00 L 59785040.00 30749999.97  zM 60100000.44 30799998.65 m -180637.35 0 a 180637.35 180637.35 0 1 1 361274.69 0a 180637.35 180637.35 0 1 1 -361274.69 0M 59899293.00 31293701.00 L 59685040.00 31293701.00 L 59685040.00 30849999.96 L 59785040.00 30849999.97 L 59785040.00 31193701.00 L 59899293.00 31193701.00 L 59899293.00 31293701.00  zM 60460812.00 33106299.00 L 60400954.74 33106299.00 L 60300954.28 33006299.00 L 60460812.01 33006299.00 L 60460812.00 33106299.00  zM 60117113.00 33449999.00 L 60017113.00 33449998.99 L 60017113.00 33290142.28 L 60114347.48 33387377.22 L 60117113.00 33401280.27 L 60117113.00 33449999.00  zM 61004513.00 33449999.01 L 60904513.00 33449999.00 L 60904513.00 33106299.00 L 60560812.00 33106299.00 L 60560812.01 33006299.00 L 61004513.00 33006299.00 L 61004513.00 33449999.01  zM 60510813.44 33499998.65 m -180637.35 0 a 180637.35 180637.35 0 1 1 361274.69 0a 180637.35 180637.35 0 1 1 -361274.69 0M 69075233.44 30348822.65 m -180637.35 0 a 180637.35 180637.35 0 1 1 361274.69 0a 180637.35 180637.35 0 1 1 -361274.69 0M 67509760.00 34049262.02 L 67408897.00 34049262.02 L 67408897.00 33656347.00 A 446733.54 446733.54 0 0 0 67185529.00 33269463.00 L 67086471.01 33228431.48 L 67085429.00 33223193.00 L 67041921.00 33158079.00 L 67012159.04 33138192.60 L 67012159.04 33115331.24 L 67103891.00 33127408.00 A 547587.27 547587.27 0 0 1 67509760.00 33656347.00 L 67509760.00 34049262.02  zM 60460811.99 33993701.00 L 60017113.00 33993701.00 L 60017113.00 33549998.99 L 60117113.00 33549999.00 L 60117113.00 33893701.00 L 60460812.00 33893701.00 L 60460811.99 33993701.00  zM 61004513.00 33993701.00 L 60560811.99 33993701.00 L 60560812.00 33893701.00 L 60904513.00 33893701.00 L 60904513.00 33549999.00 L 61004513.00 33549999.01 L 61004513.00 33993701.00  zM 66442978.02 34049261.98 L 66414564.00 34049261.98 L 66414564.00 33656347.00 A 547600.66 547600.66 0 0 1 66688363.00 33182113.00 L 66777149.04 33145336.74 L 66758079.00 33158079.00 L 66714571.00 33223193.00 L 66699346.03 33299733.42 L 66646273.00 33340458.00 A 446720.81 446720.81 0 0 0 66515427.00 33656347.00 L 66515427.00 33976813.00 L 66442978.02 34049261.98  zM 67060587.00 34689812.00 L 66863737.00 34689812.00 L 66863737.00 33508710.00 L 67060587.00 33508710.00 L 67060587.00 34689812.00  zM 67012158.96 35083190.77 L 67012158.96 34982327.86 L 67077786.00 34973688.00 A 446734.99 446734.99 0 0 0 67408897.00 34542175.00 L 67408897.00 34149262.02 L 67509760.00 34149262.02 L 67509760.00 34542175.00 A 547600.66 547600.66 0 0 1 67103891.00 35071114.00 L 67012158.96 35083190.77  zM 65731061.04 35502920.00 L 65500707.00 35502920.00 L 65500707.00 35460861.00 L 65559511.00 35402057.00 L 65731061.05 35402057.00 L 65731061.04 35502920.00  zM 66912158.96 35083189.97 L 66820433.00 35071114.00 A 547587.27 547587.27 0 0 1 66487928.00 34815974.00 L 66456680.00 34740534.40 L 66456680.00 34603244.00 L 66515697.13 34544226.87 A 442769.96 442769.96 0 0 0 66846538.00 34973688.00 L 66912158.96 34982327.06 L 66912158.96 35083189.97  zM 63469375.00 44293408.00 L 58224925.00 44293408.00 A 593408.94 593408.94 0 0 1 57805322.00 44119603.00 L 57125595.00 43439876.00 L 57051797.00 43349953.00 L 56996960.00 43247361.00 L 56965918.99 43145030.84 L 56907919.00 43074357.00 A 712094.99 712094.99 0 0 1 56787910.00 42678741.00 L 56787910.00 42521259.00 L 56801593.00 42382337.00 L 56809999.00 42354626.16 L 56809999.00 41769999.00 L 58716592.00 41769999.84 L 58716592.00 40341874.35 L 58666425.70 40248019.51 L 58607772.93 40242322.25 L 58519270.00 40311208.00 L 58418326.00 40353021.00 L 58360000.00 40360699.55 L 58360000.00 40259836.13 L 58392221.00 40255594.00 A 317671.90 317671.90 0 0 0 58627678.00 39948741.00 L 58627678.00 39791259.00 A 317686.61 317686.61 0 1 0 57992322.00 39791259.00 L 57992322.00 39820000.00 L 57891459.00 39820000.00 L 57891459.00 39791259.00 L 57905720.00 39682933.00 L 57940071.94 39600000.51 L 57914192.26 39550000.00 L 57485313.49 39550000.00 A 395720.74 395720.74 0 0 1 56714779.59 39550707.00 L 56822762.78 39550707.00 L 56842078.00 39597338.00 A 297809.61 297809.61 0 0 0 57397823.00 39448426.00 L 57397823.00 39251574.00 A 297823.01 297823.01 0 0 0 57177082.00 38963899.00 L 57150000.02 38960333.60 L 57150000.92 38723038.62 L 57112952.78 38689460.22 L 57100000.00 38690736.00 A 692336.08 692336.08 0 0 1 56407690.00 37998426.00 L 56407690.00 37392310.00 L 55401574.00 37392310.00 L 55266511.00 37379007.00 L 55136638.00 37339611.00 L 55095833.56 37317800.63 L 54967729.00 37305183.00 A 692300.20 692300.20 0 0 1 54613255.00 37115713.00 L 53620703.00 36123161.00 A 692293.40 692293.40 0 0 1 53417930.00 35633624.00 L 53417930.00 28116896.81 L 53360981.00 28010353.00 A 810989.88 810989.88 0 0 1 54420593.00 26950741.00 L 54527136.81 27007690.00 L 57074860.38 27007690.00 L 57147216.00 26969015.00 A 791227.24 791227.24 0 1 1 57147216.00 28430985.00 L 57074860.38 28392310.00 L 54802550.00 28392310.00 L 54802550.00 32871621.93 L 54852550.54 32919999.99 L 56990040.84 32919999.33 L 57100000.00 32909169.00 L 57209958.48 32919999.26 L 58069998.00 32919999.00 L 59041338.00 33891339.00 L 59087402.00 33891339.00 L 59087402.00 33937403.00 L 60027789.02 34877790.02 L 60071240.00 34842131.00 A 791198.52 791198.52 0 0 1 61070284.00 34940528.00 L 61079526.41 34951790.00 L 61345198.00 34951790.00 A 593418.90 593418.90 0 0 1 61764801.00 35125595.00 L 63019603.00 36380397.00 A 593415.38 593415.38 0 0 1 63193408.00 36800000.00 L 63193408.00 37680587.00 A 593418.90 593418.90 0 0 1 63019603.00 38100190.00 L 62455730.40 38664062.60 L 62474864.75 38710257.00 L 62903665.00 38710257.00 A 593418.90 593418.90 0 0 1 63323268.00 38884062.00 L 65319603.00 40880397.00 A 593415.38 593415.38 0 0 1 65493408.00 41300000.00 L 65493408.00 41466907.28 L 65543408.46 41490156.37 L 65611988.00 41437533.00 L 65712933.00 41395720.00 L 65821259.00 41381459.00 L 65850000.04 41381459.00 L 65850000.03 41482322.00 L 65821259.00 41482322.00 A 317686.61 317686.61 0 1 0 65821259.00 42117678.00 L 65849999.97 42117678.00 L 65849999.96 42218541.00 L 65821259.00 42218541.00 L 65712933.00 42204280.00 L 65611988.00 42162467.00 L 65543408.46 42109843.63 L 65493408.00 42133092.72 L 65493408.00 42269375.00 A 593408.94 593408.94 0 0 1 65319603.00 42688978.00 L 63888978.00 44119603.00 A 593415.38 593415.38 0 0 1 63469375.00 44293408.00  zM 66764988.64 35899657.09 L 66664125.73 35899657.08 L 66655486.00 35834031.00 A 446734.99 446734.99 0 0 0 66223973.00 35502920.00 L 65831061.04 35502920.00 L 65831061.05 35402057.00 L 66223973.00 35402057.00 A 547600.66 547600.66 0 0 1 66752912.00 35807926.00 L 66764988.64 35899657.09  zM 56822762.78 39149293.00 L 56714899.00 39148386.00 A 398700.16 398700.16 0 0 1 56996812.00 38866473.00 L 57050000.02 38859470.64 L 57050000.02 38960333.60 L 57022918.00 38963899.00 A 297829.90 297829.90 0 0 0 56842078.00 39102662.00 L 56822762.78 39149293.00  zM 57099999.13 39350001.07 m -150528.93 0 a 150528.93 150528.93 0 1 1 301057.86 0a 150528.93 150528.93 0 1 1 -301057.86 0M 58260000.00 40360699.55 L 58201674.00 40353021.00 A 418552.54 418552.54 0 0 1 57891459.00 39948741.00 L 57891459.00 39920000.00 L 57992322.00 39920000.00 L 57992322.00 39948741.00 A 317686.61 317686.61 0 0 0 58227779.00 40255594.00 L 58260000.00 40259836.13 L 58260000.00 40360699.55  zM 58310000.44 39869998.65 m -180637.35 0 a 180637.35 180637.35 0 1 1 361274.69 0a 180637.35 180637.35 0 1 1 -361274.69 0M 64897992.29 35899656.92 L 64797129.38 35899656.91 L 64809206.00 35807926.00 A 547587.27 547587.27 0 0 1 65064346.00 35475421.00 L 65099293.00 35460945.53 L 65099293.00 35574653.12 L 65022256.00 35633766.00 L 64951261.00 35726288.00 L 64906632.00 35834031.00 L 64897992.29 35899656.92  zM 64999020.76 36738397.24 L 64998938.72 36407505.13 L 64984157.91 36362358.03 L 64950935.00 36336865.00 L 64863911.00 36223454.00 L 64809206.00 36091384.00 L 64797129.89 35999656.91 L 64897992.80 35999656.92 L 64906632.00 36065279.00 L 64951261.00 36173022.00 L 65022256.00 36265544.00 L 65099293.00 36324656.88 L 65098998.17 36644943.10 L 65079339.00 36658079.00 L 64999020.76 36738397.24  zM 65492761.44 36901084.65 m -180637.35 0 a 180637.35 180637.35 0 1 1 361274.69 0a 180637.35 180637.35 0 1 1 -361274.69 0M 64999179.00 37394906.00 L 64999157.56 37305944.44 L 65099133.55 37205968.45 L 65099155.00 37294882.00 L 65442853.86 37294799.07 L 65442877.96 37394799.05 L 64999179.00 37394906.00  zM 65542877.96 37394774.95 L 65542853.86 37294774.94 L 65886557.00 37294692.00 L 65886474.07 36950995.14 L 65986474.05 36950971.04 L 65986581.00 37394668.00 L 65542877.96 37394774.95  zM 66371610.00 36048080.00 L 65190508.00 36048080.00 L 65190508.00 35851230.00 L 66371610.00 35851230.00 L 66371610.00 36048080.00  zM 65886449.94 36850995.14 L 65886367.00 36507290.00 L 65500707.00 36507383.06 L 65500707.00 36396390.00 L 66223973.00 36396390.00 A 446726.20 446726.20 0 0 0 66655486.00 36065279.00 L 66664125.18 35999657.08 L 66764988.09 35999657.09 L 66752912.00 36091384.00 A 547587.27 547587.27 0 0 1 66223973.00 36497253.00 L 66021724.83 36497253.00 L 65986373.21 36532613.14 L 65986449.95 36850971.04 L 65886449.94 36850995.14  zM 66390699.56 41750000.04 L 66289836.14 41750000.03 L 66285594.00 41717779.00 A 317671.90 317671.90 0 0 0 65978741.00 41482322.00 L 65950000.03 41482322.00 L 65950000.04 41381459.00 L 65978741.00 41381459.00 L 66087067.00 41395720.00 L 66129420.86 41413263.63 L 66365477.14 41649320.00 L 66383021.00 41691674.00 L 66390699.56 41750000.04  zM 67582322.00 41549999.97 L 67481459.00 41549999.96 L 67481459.00 41521259.00 A 418533.70 418533.70 0 0 1 67791674.00 41116979.00 L 67850000.04 41109300.44 L 67850000.03 41210163.86 L 67817779.00 41214406.00 A 317671.90 317671.90 0 0 0 67582322.00 41521259.00 L 67582322.00 41549999.97  zM 65900000.44 41799998.65 m -180637.35 0 a 180637.35 180637.35 0 1 1 361274.69 0a 180637.35 180637.35 0 1 1 -361274.69 0M 65978741.00 42218541.00 L 65949999.96 42218541.00 L 65949999.97 42117678.00 L 65978741.00 42117678.00 A 317686.61 317686.61 0 0 0 66285594.00 41882221.00 L 66289836.13 41850000.03 L 66390699.55 41850000.04 L 66383021.00 41908326.00 A 418552.54 418552.54 0 0 1 65978741.00 42218541.00  zM 67599293.00 41968498.52 L 67537533.00 41888012.00 L 67495720.00 41787067.00 L 67481459.00 41678741.00 L 67481459.00 41649999.96 L 67582322.00 41649999.97 L 67582322.00 41678741.00 L 67593147.00 41760962.00 L 67608618.80 41798314.48 L 67599293.00 41845198.00 L 67599293.00 41968498.52  zM 67900000.44 41599998.65 m -180637.35 0 a 180637.35 180637.35 0 1 1 361274.69 0a 180637.35 180637.35 0 1 1 -361274.69 0"/>
</g>
</svg>
