<svg width="152.4mm" height="101.6mm" viewBox="0 0 60000000 40000000"  version="1.1" xmlns="http://www.w3.org/2000/svg" xmlns:xlink="http://www.w3.org/1999/xlink">
<desc>
Origin 0 0 Bound 10000000 10000000 60000000 40000000
</desc>
<g fill-rule="evenodd" fill="rgb(255, 0, 255)" stroke="black" stroke-width="1" transform="translate(0, 40000000) scale(1, -1) translate(-10000000, -10000000)">
<path id="N" d="M 70000000.00 10000000.00 L 10000000.00 10000000.00 L 10000000.00 42761627.64 L 10031674.00 42685160.00 A 358042.36 358042.36 0 0 1 10341731.00 42506149.00 L 10499213.00 42506149.00 A 358011.17 358011.17 0 1 1 10499213.00 43222195.00 L 10341731.00 43222195.00 A 358011.17 358011.17 0 0 1 10031674.00 43043184.00 L 10000000.00 42966716.36 L 10000000.00 44533281.64 L 10031674.00 44456814.00 A 358042.36 358042.36 0 0 1 10341731.00 44277803.00 L 10499213.00 44277803.00 A 358011.17 358011.17 0 0 1 10499213.00 44993849.00 L 10341731.00 44993849.00 A 358011.17 358011.17 0 0 1 10031674.00 44814838.00 L 10000000.00 44738370.36 L 10000000.00 50000000.00 L 70000000.00 50000000.00 L 70000000.00 10000000.00  zM 12500715.00 33342914.00 L 12500715.00 32457086.00 A 487085.47 487085.47 0 0 1 13474875.00 32457086.00 L 13474875.00 33342914.00 A 487085.47 487085.47 0 0 1 12500715.00 33342914.00  zM 11578741.00 36208023.00 L 11421259.00 36208023.00 A 358011.17 358011.17 0 0 1 11421259.00 35491977.00 L 11578741.00 35491977.00 A 358011.17 358011.17 0 0 1 11578741.00 36208023.00  zM 11933701.00 38204960.00 L 11066299.00 38204960.00 L 11066299.00 37495040.00 L 11933701.00 37495040.00 L 11933701.00 38204960.00  zM 11278741.00 40558023.00 L 11121259.00 40558023.00 A 358011.17 358011.17 0 0 1 11121259.00 39841977.00 L 11278741.00 39841977.00 A 358011.17 358011.17 0 0 1 11278741.00 40558023.00  zM 11633701.00 41539212.00 L 10766299.00 41539212.00 L 10766299.00 40829292.00 L 11633701.00 40829292.00 L 11633701.00 41539212.00  zM 13058269.00 43222195.00 L 12900787.00 43222195.00 A 358011.17 358011.17 0 0 1 12900787.00 42506149.00 L 13058269.00 42506149.00 A 358011.17 358011.17 0 0 1 13058269.00 43222195.00  zM 13058269.00 44993849.00 L 12900787.00 44993849.00 A 358011.17 358011.17 0 0 1 12900787.00 44277803.00 L 13058269.00 44277803.00 A 358011.17 358011.17 0 0 1 13058269.00 44993849.00  zM 14611812.00 31536686.00 L 13725984.00 31536686.00 A 487085.47 487085.47 0 0 1 13725984.00 30562526.00 L 14611812.00 30562526.00 A 487085.47 487085.47 0 0 1 14611812.00 31536686.00  zM 14813282.00 33392126.00 L 14813282.00 32407874.00 A 536705.37 536705.37 0 1 1 15886718.00 32407874.00 L 15886718.00 33392126.00 A 536705.37 536705.37 0 0 1 14813282.00 33392126.00  zM 23449998.32 38850004.50 m -358018.50 0 a 358018.50 358018.50 0 1 1 716037.01 0a 358018.50 358018.50 0 1 1 -716037.01 0M 25400002.83 38849987.00 m -367964.00 0 a 367964.00 367964.00 0 1 1 735927.99 0a 367964.00 367964.00 0 1 1 -735927.99 0M 23449998.32 40850004.50 m -358018.50 0 a 358018.50 358018.50 0 1 1 716037.01 0a 358018.50 358018.50 0 1 1 -716037.01 0M 23785275.00 43485275.00 L 23114725.00 43485275.00 L 23114725.00 42814725.00 L 23785275.00 42814725.00 L 23785275.00 43485275.00  zM 23450002.00 44149993.05 m -338174.95 0 a 338174.95 338174.95 0 1 1 676349.89 0a 338174.95 338174.95 0 1 1 -676349.89 0M 27384104.00 38566536.00 L 27384104.00 38409054.00 A 358018.50 358018.50 0 0 1 28100150.00 38409054.00 L 28100150.00 38566536.00 A 358018.50 358018.50 0 1 1 27384104.00 38566536.00  zM 26596702.00 40928741.00 L 26596702.00 40771259.00 A 358011.17 358011.17 0 0 1 27312748.00 40771259.00 L 27312748.00 40928741.00 A 358011.17 358011.17 0 0 1 26596702.00 40928741.00  zM 25764803.00 43214803.00 L 25035197.00 43214803.00 L 25035197.00 42485197.00 L 25764803.00 42485197.00 L 25764803.00 43214803.00  zM 27384104.00 43290946.00 L 27384104.00 43133464.00 A 358018.50 358018.50 0 1 1 28100150.00 43133464.00 L 28100150.00 43290946.00 A 358018.50 358018.50 0 1 1 27384104.00 43290946.00  zM 32187253.00 38566536.00 L 32187253.00 38409054.00 A 358018.50 358018.50 0 0 1 32903299.00 38409054.00 L 32903299.00 38566536.00 A 358018.50 358018.50 0 1 1 32187253.00 38566536.00  zM 32187253.00 43290946.00 L 32187253.00 43133464.00 A 358018.50 358018.50 0 1 1 32903299.00 43133464.00 L 32903299.00 43290946.00 A 358018.50 358018.50 0 1 1 32187253.00 43290946.00  zM 33699998.32 45650004.50 m -358018.50 0 a 358018.50 358018.50 0 1 1 716037.01 0a 358018.50 358018.50 0 1 1 -716037.01 0M 38699999.17 38050002.94 m -348093.06 0 a 348093.06 348093.06 0 1 1 696186.11 0a 348093.06 348093.06 0 1 1 -696186.11 0M 38699999.17 41050002.94 m -348093.06 0 a 348093.06 348093.06 0 1 1 696186.11 0a 348093.06 348093.06 0 1 1 -696186.11 0M 39045118.00 43395118.00 L 38354882.00 43395118.00 L 38354882.00 42704882.00 L 39045118.00 42704882.00 L 39045118.00 43395118.00  zM 37799213.00 44222195.00 L 37641731.00 44222195.00 A 358011.17 358011.17 0 0 1 37641731.00 43506149.00 L 37799213.00 43506149.00 A 358011.17 358011.17 0 0 1 37799213.00 44222195.00  zM 37799213.00 45993849.00 L 37641731.00 45993849.00 A 358011.17 358011.17 0 0 1 37641731.00 45277803.00 L 37799213.00 45277803.00 A 358011.17 358011.17 0 0 1 37799213.00 45993849.00  zM 36699998.32 45650004.50 m -358018.50 0 a 358018.50 358018.50 0 1 1 716037.01 0a 358018.50 358018.50 0 1 1 -716037.01 0M 38799999.17 24800002.94 m -348093.06 0 a 348093.06 348093.06 0 1 1 696186.11 0a 348093.06 348093.06 0 1 1 -696186.11 0M 38799999.17 26800002.94 m -348093.06 0 a 348093.06 348093.06 0 1 1 696186.11 0a 348093.06 348093.06 0 1 1 -696186.11 0M 38799999.17 27800002.94 m -348093.06 0 a 348093.06 348093.06 0 1 1 696186.11 0a 348093.06 348093.06 0 1 1 -696186.11 0M 38799999.17 28800002.94 m -348093.06 0 a 348093.06 348093.06 0 1 1 696186.11 0a 348093.06 348093.06 0 1 1 -696186.11 0M 38799999.17 25800002.94 m -348093.06 0 a 348093.06 348093.06 0 1 1 696186.11 0a 348093.06 348093.06 0 1 1 -696186.11 0M 38799999.17 29800002.94 m -348093.06 0 a 348093.06 348093.06 0 1 1 696186.11 0a 348093.06 348093.06 0 1 1 -696186.11 0M 45068881.72 30587235.22 m -270674.78 0 a 270674.78 270674.78 0 1 1 541349.57 0a 270674.78 270674.78 0 1 1 -541349.57 0M 38799999.17 30800002.94 m -348093.06 0 a 348093.06 348093.06 0 1 1 696186.11 0a 348093.06 348093.06 0 1 1 -696186.11 0M 39145118.00 32145118.00 L 38454882.00 32145118.00 L 38454882.00 31454882.00 L 39145118.00 31454882.00 L 39145118.00 32145118.00  zM 41149998.33 32475006.15 m -278596.85 0 a 278596.85 278596.85 0 1 1 557193.70 0a 278596.85 278596.85 0 1 1 -557193.70 0M 41149998.33 33575006.15 m -278596.85 0 a 278596.85 278596.85 0 1 1 557193.70 0a 278596.85 278596.85 0 1 1 -557193.70 0M 41149998.33 31025006.15 m -278596.85 0 a 278596.85 278596.85 0 1 1 557193.70 0a 278596.85 278596.85 0 1 1 -557193.70 0M 43249998.36 32089382.49 m -278589.51 0 a 278589.51 278589.51 0 1 1 557179.03 0a 278589.51 278589.51 0 1 1 -557179.03 0M 43526221.00 34286849.00 L 42973781.00 34286849.00 L 42973781.00 33734409.00 L 43526221.00 33734409.00 L 43526221.00 34286849.00  zM 38699999.17 34800002.94 m -348093.06 0 a 348093.06 348093.06 0 1 1 696186.11 0a 348093.06 348093.06 0 1 1 -696186.11 0M 38699999.17 35800002.94 m -348093.06 0 a 348093.06 348093.06 0 1 1 696186.11 0a 348093.06 348093.06 0 1 1 -696186.11 0M 39045118.00 37145118.00 L 38354882.00 37145118.00 L 38354882.00 36454882.00 L 39045118.00 36454882.00 L 39045118.00 37145118.00  zM 38699999.17 40050002.94 m -348093.06 0 a 348093.06 348093.06 0 1 1 696186.11 0a 348093.06 348093.06 0 1 1 -696186.11 0M 41149998.33 35025006.15 m -278596.85 0 a 278596.85 278596.85 0 1 1 557193.70 0a 278596.85 278596.85 0 1 1 -557193.70 0M 38699999.17 39050002.94 m -348093.06 0 a 348093.06 348093.06 0 1 1 696186.11 0a 348093.06 348093.06 0 1 1 -696186.11 0M 45068881.72 34587235.22 m -270674.78 0 a 270674.78 270674.78 0 1 1 541349.57 0a 270674.78 270674.78 0 1 1 -541349.57 0M 38699999.17 42050002.94 m -348093.06 0 a 348093.06 348093.06 0 1 1 696186.11 0a 348093.06 348093.06 0 1 1 -696186.11 0M 40358269.00 44222195.00 L 40200787.00 44222195.00 A 358011.17 358011.17 0 0 1 40200787.00 43506149.00 L 40358269.00 43506149.00 A 358011.17 358011.17 0 0 1 40358269.00 44222195.00  zM 40358269.00 45993849.00 L 40200787.00 45993849.00 A 358011.17 358011.17 0 0 1 40200787.00 45277803.00 L 40358269.00 45277803.00 A 358011.17 358011.17 0 0 1 40358269.00 45993849.00  zM 41999999.17 44100002.94 m -348093.06 0 a 348093.06 348093.06 0 1 1 696186.11 0a 348093.06 348093.06 0 1 1 -696186.11 0M 42345118.00 45445118.00 L 41654882.00 45445118.00 L 41654882.00 44754882.00 L 42345118.00 44754882.00 L 42345118.00 45445118.00  zM 45068881.72 42587235.22 m -270674.78 0 a 270674.78 270674.78 0 1 1 541349.57 0a 270674.78 270674.78 0 1 1 -541349.57 0M 45068881.72 26587235.22 m -270674.78 0 a 270674.78 270674.78 0 1 1 541349.57 0a 270674.78 270674.78 0 1 1 -541349.57 0M 45068881.72 27587235.22 m -270674.78 0 a 270674.78 270674.78 0 1 1 541349.57 0a 270674.78 270674.78 0 1 1 -541349.57 0M 45068881.72 28587235.22 m -270674.78 0 a 270674.78 270674.78 0 1 1 541349.57 0a 270674.78 270674.78 0 1 1 -541349.57 0M 45068881.72 29587235.22 m -270674.78 0 a 270674.78 270674.78 0 1 1 541349.57 0a 270674.78 270674.78 0 1 1 -541349.57 0M 51169669.72 26587235.22 m -270674.78 0 a 270674.78 270674.78 0 1 1 541349.57 0a 270674.78 270674.78 0 1 1 -541349.57 0M 51169669.72 29587235.22 m -270674.78 0 a 270674.78 270674.78 0 1 1 541349.57 0a 270674.78 270674.78 0 1 1 -541349.57 0M 51169669.72 30587235.22 m -270674.78 0 a 270674.78 270674.78 0 1 1 541349.57 0a 270674.78 270674.78 0 1 1 -541349.57 0M 45068881.72 31587235.22 m -270674.78 0 a 270674.78 270674.78 0 1 1 541349.57 0a 270674.78 270674.78 0 1 1 -541349.57 0M 45068881.72 32587235.22 m -270674.78 0 a 270674.78 270674.78 0 1 1 541349.57 0a 270674.78 270674.78 0 1 1 -541349.57 0M 45068881.72 33587235.22 m -270674.78 0 a 270674.78 270674.78 0 1 1 541349.57 0a 270674.78 270674.78 0 1 1 -541349.57 0M 45068881.72 35587235.22 m -270674.78 0 a 270674.78 270674.78 0 1 1 541349.57 0a 270674.78 270674.78 0 1 1 -541349.57 0M 51169669.72 31587235.22 m -270674.78 0 a 270674.78 270674.78 0 1 1 541349.57 0a 270674.78 270674.78 0 1 1 -541349.57 0M 51169669.72 32587235.22 m -270674.78 0 a 270674.78 270674.78 0 1 1 541349.57 0a 270674.78 270674.78 0 1 1 -541349.57 0M 51169669.72 34587235.22 m -270674.78 0 a 270674.78 270674.78 0 1 1 541349.57 0a 270674.78 270674.78 0 1 1 -541349.57 0M 51169669.72 27587235.22 m -270674.78 0 a 270674.78 270674.78 0 1 1 541349.57 0a 270674.78 270674.78 0 1 1 -541349.57 0M 51169669.72 28587235.22 m -270674.78 0 a 270674.78 270674.78 0 1 1 541349.57 0a 270674.78 270674.78 0 1 1 -541349.57 0M 56845118.00 27695118.00 L 56154882.00 27695118.00 L 56154882.00 27004882.00 L 56845118.00 27004882.00 L 56845118.00 27695118.00  zM 56499999.17 28350002.94 m -348093.06 0 a 348093.06 348093.06 0 1 1 696186.11 0a 348093.06 348093.06 0 1 1 -696186.11 0M 56499999.17 29350002.94 m -348093.06 0 a 348093.06 348093.06 0 1 1 696186.11 0a 348093.06 348093.06 0 1 1 -696186.11 0M 56499999.17 30350002.94 m -348093.06 0 a 348093.06 348093.06 0 1 1 696186.11 0a 348093.06 348093.06 0 1 1 -696186.11 0M 56499999.17 31350002.94 m -348093.06 0 a 348093.06 348093.06 0 1 1 696186.11 0a 348093.06 348093.06 0 1 1 -696186.11 0M 51169669.72 33587235.22 m -270674.78 0 a 270674.78 270674.78 0 1 1 541349.57 0a 270674.78 270674.78 0 1 1 -541349.57 0M 51169669.72 35587235.22 m -270674.78 0 a 270674.78 270674.78 0 1 1 541349.57 0a 270674.78 270674.78 0 1 1 -541349.57 0M 51169669.72 36587235.22 m -270674.78 0 a 270674.78 270674.78 0 1 1 541349.57 0a 270674.78 270674.78 0 1 1 -541349.57 0M 56499999.17 32350002.94 m -348093.06 0 a 348093.06 348093.06 0 1 1 696186.11 0a 348093.06 348093.06 0 1 1 -696186.11 0M 56499999.17 33350002.94 m -348093.06 0 a 348093.06 348093.06 0 1 1 696186.11 0a 348093.06 348093.06 0 1 1 -696186.11 0M 56499999.17 34350002.94 m -348093.06 0 a 348093.06 348093.06 0 1 1 696186.11 0a 348093.06 348093.06 0 1 1 -696186.11 0M 45068881.72 36587235.22 m -270674.78 0 a 270674.78 270674.78 0 1 1 541349.57 0a 270674.78 270674.78 0 1 1 -541349.57 0M 45068881.72 38587235.22 m -270674.78 0 a 270674.78 270674.78 0 1 1 541349.57 0a 270674.78 270674.78 0 1 1 -541349.57 0M 45068881.72 39587235.22 m -270674.78 0 a 270674.78 270674.78 0 1 1 541349.57 0a 270674.78 270674.78 0 1 1 -541349.57 0M 45068881.72 40587235.22 m -270674.78 0 a 270674.78 270674.78 0 1 1 541349.57 0a 270674.78 270674.78 0 1 1 -541349.57 0M 45068881.72 37587235.22 m -270674.78 0 a 270674.78 270674.78 0 1 1 541349.57 0a 270674.78 270674.78 0 1 1 -541349.57 0M 51169669.72 37587235.22 m -270674.78 0 a 270674.78 270674.78 0 1 1 541349.57 0a 270674.78 270674.78 0 1 1 -541349.57 0M 51169669.72 38587235.22 m -270674.78 0 a 270674.78 270674.78 0 1 1 541349.57 0a 270674.78 270674.78 0 1 1 -541349.57 0M 45068881.72 41587235.22 m -270674.78 0 a 270674.78 270674.78 0 1 1 541349.57 0a 270674.78 270674.78 0 1 1 -541349.57 0M 45068881.72 43587235.22 m -270674.78 0 a 270674.78 270674.78 0 1 1 541349.57 0a 270674.78 270674.78 0 1 1 -541349.57 0M 45068881.72 44587235.22 m -270674.78 0 a 270674.78 270674.78 0 1 1 541349.57 0a 270674.78 270674.78 0 1 1 -541349.57 0M 45337224.00 45855594.00 L 44800532.00 45855594.00 L 44800532.00 45318902.00 L 45337224.00 45318902.00 L 45337224.00 45855594.00  zM 51169669.72 43587235.22 m -270674.78 0 a 270674.78 270674.78 0 1 1 541349.57 0a 270674.78 270674.78 0 1 1 -541349.57 0M 51169669.72 41587235.22 m -270674.78 0 a 270674.78 270674.78 0 1 1 541349.57 0a 270674.78 270674.78 0 1 1 -541349.57 0M 51169669.72 39587235.22 m -270674.78 0 a 270674.78 270674.78 0 1 1 541349.57 0a 270674.78 270674.78 0 1 1 -541349.57 0M 51169669.72 42587235.22 m -270674.78 0 a 270674.78 270674.78 0 1 1 541349.57 0a 270674.78 270674.78 0 1 1 -541349.57 0M 51169669.72 40587235.22 m -270674.78 0 a 270674.78 270674.78 0 1 1 541349.57 0a 270674.78 270674.78 0 1 1 -541349.57 0M 56099999.17 40800002.94 m -348093.06 0 a 348093.06 348093.06 0 1 1 696186.11 0a 348093.06 348093.06 0 1 1 -696186.11 0M 56445118.00 39145118.00 L 55754882.00 39145118.00 L 55754882.00 38454882.00 L 56445118.00 38454882.00 L 56445118.00 39145118.00  zM 56099999.17 39800002.94 m -348093.06 0 a 348093.06 348093.06 0 1 1 696186.11 0a 348093.06 348093.06 0 1 1 -696186.11 0M 56099999.17 41800002.94 m -348093.06 0 a 348093.06 348093.06 0 1 1 696186.11 0a 348093.06 348093.06 0 1 1 -696186.11 0M 51169669.72 44587235.22 m -270674.78 0 a 270674.78 270674.78 0 1 1 541349.57 0a 270674.78 270674.78 0 1 1 -541349.57 0M 51169669.72 45587235.22 m -270674.78 0 a 270674.78 270674.78 0 1 1 541349.57 0a 270674.78 270674.78 0 1 1 -541349.57 0M 56099999.17 42800002.94 m -348093.06 0 a 348093.06 348093.06 0 1 1 696186.11 0a 348093.06 348093.06 0 1 1 -696186.11 0M 56099999.17 43800002.94 m -348093.06 0 a 348093.06 348093.06 0 1 1 696186.11 0a 348093.06 348093.06 0 1 1 -696186.11 0M 56099999.17 44800002.94 m -348093.06 0 a 348093.06 348093.06 0 1 1 696186.11 0a 348093.06 348093.06 0 1 1 -696186.11 0M 56099999.17 45800002.94 m -348093.06 0 a 348093.06 348093.06 0 1 1 696186.11 0a 348093.06 348093.06 0 1 1 -696186.11 0"/>
</g>
</svg>
