<svg width="140.716mm" height="82.804mm" viewBox="0 0 55400000 32600000"  version="1.1" xmlns="http://www.w3.org/2000/svg" xmlns:xlink="http://www.w3.org/1999/xlink">
<desc>
Origin 9650000 17400000 Bound 9650000 17400000 55400000 32600000
</desc>
<g fill-rule="evenodd" fill="rgb(255, 0, 255)" stroke="black" stroke-width="1" transform="translate(0, 32600000) scale(1, -1) translate(-9650000, -17400000)">
<path id="N" d="M 65050000.00 17400000.00 L 9650000.00 17400000.00 L 9650000.00 50000000.00 L 65050000.00 50000000.00 L 65050000.00 17400000.00  zM 10999999.28 18650005.39 m -1029202.61 0 a 1029202.61 1029202.61 0 1 1 2058405.22 0a 1029202.61 1029202.61 0 1 1 -2058405.22 0M 11833701.00 21004960.00 L 10966299.00 21004960.00 L 10966299.00 20295040.00 L 11833701.00 20295040.00 L 11833701.00 21004960.00  zM 11478741.00 22008023.00 L 11321259.00 22008023.00 A 358011.17 358011.17 0 1 1 11321259.00 21291977.00 L 11478741.00 21291977.00 A 358011.17 358011.17 0 0 1 11478741.00 22008023.00  zM 14483701.00 21004960.00 L 13616299.00 21004960.00 L 13616299.00 20295040.00 L 14483701.00 20295040.00 L 14483701.00 21004960.00  zM 11478741.00 23008023.00 L 11321259.00 23008023.00 A 358011.17 358011.17 0 0 1 11321259.00 22291977.00 L 11478741.00 22291977.00 A 358011.17 358011.17 0 0 1 11478741.00 23008023.00  zM 11478741.00 24008023.00 L 11321259.00 24008023.00 A 358011.17 358011.17 0 1 1 11321259.00 23291977.00 L 11478741.00 23291977.00 A 358011.17 358011.17 0 0 1 11478741.00 24008023.00  zM 14128741.00 23008023.00 L 13971259.00 23008023.00 A 358011.17 358011.17 0 0 1 13971259.00 22291977.00 L 14128741.00 22291977.00 A 358011.17 358011.17 0 0 1 14128741.00 23008023.00  zM 14128741.00 24008023.00 L 13971259.00 24008023.00 A 358011.17 358011.17 0 0 1 13971259.00 23291977.00 L 14128741.00 23291977.00 A 358011.17 358011.17 0 0 1 14128741.00 24008023.00  zM 11478741.00 25008023.00 L 11321259.00 25008023.00 A 358011.17 358011.17 0 0 1 11321259.00 24291977.00 L 11478741.00 24291977.00 A 358011.17 358011.17 0 0 1 11478741.00 25008023.00  zM 11478741.00 26008023.00 L 11321259.00 26008023.00 A 358011.17 358011.17 0 0 1 11321259.00 25291977.00 L 11478741.00 25291977.00 A 358011.17 358011.17 0 0 1 11478741.00 26008023.00  zM 14128741.00 25008023.00 L 13971259.00 25008023.00 A 358011.17 358011.17 0 0 1 13971259.00 24291977.00 L 14128741.00 24291977.00 A 358011.17 358011.17 0 0 1 14128741.00 25008023.00  zM 14128741.00 26008023.00 L 13971259.00 26008023.00 A 358011.17 358011.17 0 0 1 13971259.00 25291977.00 L 14128741.00 25291977.00 A 358011.17 358011.17 0 0 1 14128741.00 26008023.00  zM 11478741.00 27008023.00 L 11321259.00 27008023.00 A 358011.17 358011.17 0 1 1 11321259.00 26291977.00 L 11478741.00 26291977.00 A 358011.17 358011.17 0 0 1 11478741.00 27008023.00  zM 14128741.00 27008023.00 L 13971259.00 27008023.00 A 358011.17 358011.17 0 0 1 13971259.00 26291977.00 L 14128741.00 26291977.00 A 358011.17 358011.17 0 0 1 14128741.00 27008023.00  zM 11478741.00 28008023.00 L 11321259.00 28008023.00 A 358011.17 358011.17 0 0 1 11321259.00 27291977.00 L 11478741.00 27291977.00 A 358011.17 358011.17 0 0 1 11478741.00 28008023.00  zM 10999999.28 30950005.39 m -1029202.61 0 a 1029202.61 1029202.61 0 1 1 2058405.22 0a 1029202.61 1029202.61 0 1 1 -2058405.22 0M 15849213.00 19522195.00 L 15691731.00 19522195.00 A 358011.17 358011.17 0 0 1 15691731.00 18806149.00 L 15849213.00 18806149.00 A 358011.17 358011.17 0 0 1 15849213.00 19522195.00  zM 15849213.00 21293849.00 L 15691731.00 21293849.00 A 358011.17 358011.17 0 0 1 15691731.00 20577803.00 L 15849213.00 20577803.00 A 358011.17 358011.17 0 0 1 15849213.00 21293849.00  zM 18408269.00 19522195.00 L 18250787.00 19522195.00 A 358011.17 358011.17 0 0 1 18250787.00 18806149.00 L 18408269.00 18806149.00 A 358011.17 358011.17 0 1 1 18408269.00 19522195.00  zM 18408269.00 21293849.00 L 18250787.00 21293849.00 A 358011.17 358011.17 0 0 1 18250787.00 20577803.00 L 18408269.00 20577803.00 A 358011.17 358011.17 0 1 1 18408269.00 21293849.00  zM 14128741.00 22008023.00 L 13971259.00 22008023.00 A 358011.17 358011.17 0 0 1 13971259.00 21291977.00 L 14128741.00 21291977.00 A 358011.17 358011.17 0 0 1 14128741.00 22008023.00  zM 18349998.32 22250004.50 m -358018.50 0 a 358018.50 358018.50 0 1 1 716037.01 0a 358018.50 358018.50 0 1 1 -716037.01 0M 18349998.32 23250004.50 m -358018.50 0 a 358018.50 358018.50 0 1 1 716037.01 0a 358018.50 358018.50 0 1 1 -716037.01 0M 14128741.00 28008023.00 L 13971259.00 28008023.00 A 358011.17 358011.17 0 0 1 13971259.00 27291977.00 L 14128741.00 27291977.00 A 358011.17 358011.17 0 0 1 14128741.00 28008023.00  zM 20499213.00 19522195.00 L 20341731.00 19522195.00 A 358011.17 358011.17 0 1 1 20341731.00 18806149.00 L 20499213.00 18806149.00 A 358011.17 358011.17 0 0 1 20499213.00 19522195.00  zM 20499213.00 21293849.00 L 20341731.00 21293849.00 A 358011.17 358011.17 0 1 1 20341731.00 20577803.00 L 20499213.00 20577803.00 A 358011.17 358011.17 0 0 1 20499213.00 21293849.00  zM 23058269.00 19522195.00 L 22900787.00 19522195.00 A 358011.17 358011.17 0 1 1 22900787.00 18806149.00 L 23058269.00 18806149.00 A 358011.17 358011.17 0 1 1 23058269.00 19522195.00  zM 23058269.00 21293849.00 L 22900787.00 21293849.00 A 358011.17 358011.17 0 1 1 22900787.00 20577803.00 L 23058269.00 20577803.00 A 358011.17 358011.17 0 1 1 23058269.00 21293849.00  zM 20399998.32 22250004.50 m -358018.50 0 a 358018.50 358018.50 0 1 1 716037.01 0a 358018.50 358018.50 0 1 1 -716037.01 0M 20399998.32 23250004.50 m -358018.50 0 a 358018.50 358018.50 0 1 1 716037.01 0a 358018.50 358018.50 0 1 1 -716037.01 0M 18491977.00 25128741.00 L 18491977.00 24971259.00 A 358011.17 358011.17 0 1 1 19208023.00 24971259.00 L 19208023.00 25128741.00 A 358011.17 358011.17 0 1 1 18491977.00 25128741.00  zM 20204960.00 25483701.00 L 19495040.00 25483701.00 L 19495040.00 24616299.00 L 20204960.00 24616299.00 L 20204960.00 25483701.00  zM 25699213.00 19522195.00 L 25541731.00 19522195.00 A 358011.17 358011.17 0 0 1 25541731.00 18806149.00 L 25699213.00 18806149.00 A 358011.17 358011.17 0 0 1 25699213.00 19522195.00  zM 25699213.00 21293849.00 L 25541731.00 21293849.00 A 358011.17 358011.17 0 0 1 25541731.00 20577803.00 L 25699213.00 20577803.00 A 358011.17 358011.17 0 0 1 25699213.00 21293849.00  zM 28258269.00 21293849.00 L 28100787.00 21293849.00 A 358011.17 358011.17 0 0 1 28100787.00 20577803.00 L 28258269.00 20577803.00 A 358011.17 358011.17 0 0 1 28258269.00 21293849.00  zM 28099998.32 22250004.50 m -358018.50 0 a 358018.50 358018.50 0 1 1 716037.01 0a 358018.50 358018.50 0 1 1 -716037.01 0M 28258269.00 19522195.00 L 28100787.00 19522195.00 A 358011.17 358011.17 0 0 1 28100787.00 18806149.00 L 28258269.00 18806149.00 A 358011.17 358011.17 0 0 1 28258269.00 19522195.00  zM 30328741.00 21308023.00 L 30171259.00 21308023.00 A 358011.17 358011.17 0 0 1 30171259.00 20591977.00 L 30328741.00 20591977.00 A 358011.17 358011.17 0 0 1 30328741.00 21308023.00  zM 30328741.00 19536369.00 L 30171259.00 19536369.00 A 358011.17 358011.17 0 0 1 30171259.00 18820323.00 L 30328741.00 18820323.00 A 358011.17 358011.17 0 0 1 30328741.00 19536369.00  zM 32887797.00 19536369.00 L 32730315.00 19536369.00 A 358011.17 358011.17 0 1 1 32730315.00 18820323.00 L 32887797.00 18820323.00 A 358011.17 358011.17 0 0 1 32887797.00 19536369.00  zM 30316297.32 22250004.50 m -358018.50 0 a 358018.50 358018.50 0 1 1 716037.01 0a 358018.50 358018.50 0 1 1 -716037.01 0M 30316297.32 23250004.50 m -358018.50 0 a 358018.50 358018.50 0 1 1 716037.01 0a 358018.50 358018.50 0 1 1 -716037.01 0M 28099998.32 23250004.50 m -358018.50 0 a 358018.50 358018.50 0 1 1 716037.01 0a 358018.50 358018.50 0 1 1 -716037.01 0M 30004960.00 25483701.00 L 29295040.00 25483701.00 L 29295040.00 24616299.00 L 30004960.00 24616299.00 L 30004960.00 25483701.00  zM 24154960.00 25533701.00 L 23445040.00 25533701.00 L 23445040.00 24666299.00 L 24154960.00 24666299.00 L 24154960.00 25533701.00  zM 28291977.00 25128741.00 L 28291977.00 24971259.00 A 358011.17 358011.17 0 1 1 29008023.00 24971259.00 L 29008023.00 25128741.00 A 358011.17 358011.17 0 1 1 28291977.00 25128741.00  zM 24441977.00 25178741.00 L 24441977.00 25021259.00 A 358011.17 358011.17 0 1 1 25158023.00 25021259.00 L 25158023.00 25178741.00 A 358011.17 358011.17 0 0 1 24441977.00 25178741.00  zM 25895486.00 31945118.00 L 25205250.00 31945118.00 L 25205250.00 31254882.00 L 25895486.00 31254882.00 L 25895486.00 31945118.00  zM 32887797.00 21308023.00 L 32730315.00 21308023.00 A 358011.17 358011.17 0 1 1 32730315.00 20591977.00 L 32887797.00 20591977.00 A 358011.17 358011.17 0 0 1 32887797.00 21308023.00  zM 35459649.68 20038171.80 m -437460.20 0 a 437460.20 437460.20 0 1 1 874920.41 0a 437460.20 437460.20 0 1 1 -874920.41 0M 35459649.68 22238171.80 m -437460.20 0 a 437460.20 437460.20 0 1 1 874920.41 0a 437460.20 437460.20 0 1 1 -874920.41 0M 36779960.00 24413229.00 L 36070040.00 24413229.00 L 36070040.00 23545827.00 L 36779960.00 23545827.00 L 36779960.00 24413229.00  zM 37428153.68 20038171.80 m -437460.20 0 a 437460.20 437460.20 0 1 1 874920.41 0a 437460.20 437460.20 0 1 1 -874920.41 0M 39396657.68 20038171.80 m -437460.20 0 a 437460.20 437460.20 0 1 1 874920.41 0a 437460.20 437460.20 0 1 1 -874920.41 0M 37428153.68 22238171.80 m -437460.20 0 a 437460.20 437460.20 0 1 1 874920.41 0a 437460.20 437460.20 0 1 1 -874920.41 0M 37066977.00 24058269.00 L 37066977.00 23900787.00 A 358011.17 358011.17 0 0 1 37783023.00 23900787.00 L 37783023.00 24058269.00 A 358011.17 358011.17 0 1 1 37066977.00 24058269.00  zM 36779960.00 25833701.00 L 36070040.00 25833701.00 L 36070040.00 24966299.00 L 36779960.00 24966299.00 L 36779960.00 25833701.00  zM 37066977.00 25478741.00 L 37066977.00 25321259.00 A 358011.17 358011.17 0 1 1 37783023.00 25321259.00 L 37783023.00 25478741.00 A 358011.17 358011.17 0 0 1 37066977.00 25478741.00  zM 38066977.00 24058269.00 L 38066977.00 23900787.00 A 358011.17 358011.17 0 0 1 38783023.00 23900787.00 L 38783023.00 24058269.00 A 358011.17 358011.17 0 1 1 38066977.00 24058269.00  zM 38066977.00 25478741.00 L 38066977.00 25321259.00 A 358011.17 358011.17 0 1 1 38783023.00 25321259.00 L 38783023.00 25478741.00 A 358011.17 358011.17 0 0 1 38066977.00 25478741.00  zM 38849999.28 27500005.39 m -1029202.61 0 a 1029202.61 1029202.61 0 1 1 2058405.22 0a 1029202.61 1029202.61 0 1 1 -2058405.22 0M 37854960.00 31133701.00 L 37145040.00 31133701.00 L 37145040.00 30266299.00 L 37854960.00 30266299.00 L 37854960.00 31133701.00  zM 38141977.00 30778741.00 L 38141977.00 30621259.00 A 358011.17 358011.17 0 0 1 38858023.00 30621259.00 L 38858023.00 30778741.00 A 358011.17 358011.17 0 0 1 38141977.00 30778741.00  zM 11991411.00 33560840.00 L 11833929.00 33560714.00 A 358022.19 358022.19 0 1 1 11834503.00 32844668.00 L 11991985.00 32844794.00 A 358022.19 358022.19 0 1 1 11991411.00 33560840.00  zM 12345583.00 34542314.00 L 11478181.00 34541618.00 L 11478751.00 33831698.00 L 12346153.00 33832394.00 L 12345583.00 34542314.00  zM 12750757.00 37336177.00 L 12750757.00 36450349.00 A 487085.47 487085.47 0 0 1 13724917.00 36450349.00 L 13724917.00 37336177.00 A 487085.47 487085.47 0 0 1 12750757.00 37336177.00  zM 11396040.62 39662584.02 m -633575.98 0 a 633575.98 633575.98 0 1 1 1267151.97 0a 633575.98 633575.98 0 1 1 -1267151.97 0M 14861854.00 35529949.00 L 13976026.00 35529949.00 A 487085.47 487085.47 0 0 1 13976026.00 34555789.00 L 14861854.00 34555789.00 A 487085.47 487085.47 0 0 1 14861854.00 35529949.00  zM 15063324.00 37385389.00 L 15063324.00 36401137.00 A 536705.37 536705.37 0 0 1 16136760.00 36401137.00 L 16136760.00 37385389.00 A 536705.37 536705.37 0 0 1 15063324.00 37385389.00  zM 20970284.00 32033701.00 L 20102882.00 32033701.00 L 20102882.00 31166299.00 L 20970284.00 31166299.00 L 20970284.00 32033701.00  zM 21754960.00 38944960.00 L 21045040.00 38944960.00 L 21045040.00 38235040.00 L 21754960.00 38235040.00 L 21754960.00 38944960.00  zM 23536586.68 31599982.80 m -437460.20 0 a 437460.20 437460.20 0 1 1 874920.41 0a 437460.20 437460.20 0 1 1 -874920.41 0M 21804960.00 36294960.00 L 21095040.00 36294960.00 L 21095040.00 35585040.00 L 21804960.00 35585040.00 L 21804960.00 36294960.00  zM 22449998.32 35950004.50 m -358018.50 0 a 358018.50 358018.50 0 1 1 716037.01 0a 358018.50 358018.50 0 1 1 -716037.01 0M 24099998.32 37600004.50 m -358018.50 0 a 358018.50 358018.50 0 1 1 716037.01 0a 358018.50 358018.50 0 1 1 -716037.01 0M 22399998.32 38600004.50 m -358018.50 0 a 358018.50 358018.50 0 1 1 716037.01 0a 358018.50 358018.50 0 1 1 -716037.01 0M 21754960.00 41554960.00 L 21045040.00 41554960.00 L 21045040.00 40845040.00 L 21754960.00 40845040.00 L 21754960.00 41554960.00  zM 22399998.32 41200004.50 m -358018.50 0 a 358018.50 358018.50 0 1 1 716037.01 0a 358018.50 358018.50 0 1 1 -716037.01 0M 24099998.32 40600004.50 m -358018.50 0 a 358018.50 358018.50 0 1 1 716037.01 0a 358018.50 358018.50 0 1 1 -716037.01 0M 12026597.00 42293109.00 L 10765495.00 42293109.00 L 10765495.00 41032007.00 L 12026597.00 41032007.00 L 12026597.00 42293109.00  zM 11359465.00 45487187.00 L 11201983.00 45487187.00 A 358011.17 358011.17 0 0 1 11201983.00 44771141.00 L 11359465.00 44771141.00 A 358011.17 358011.17 0 0 1 11359465.00 45487187.00  zM 13918521.00 45487187.00 L 13761039.00 45487187.00 A 358011.17 358011.17 0 0 1 13761039.00 44771141.00 L 13918521.00 44771141.00 A 358011.17 358011.17 0 0 1 13918521.00 45487187.00  zM 15699998.32 43650004.50 m -358018.50 0 a 358018.50 358018.50 0 1 1 716037.01 0a 358018.50 358018.50 0 1 1 -716037.01 0M 11359465.00 47258841.00 L 11201983.00 47258841.00 A 358011.17 358011.17 0 0 1 11201983.00 46542795.00 L 11359465.00 46542795.00 A 358011.17 358011.17 0 1 1 11359465.00 47258841.00  zM 10999999.28 48600005.39 m -1029202.61 0 a 1029202.61 1029202.61 0 1 1 2058405.22 0a 1029202.61 1029202.61 0 1 1 -2058405.22 0M 13918521.00 47258841.00 L 13761039.00 47258841.00 A 358011.17 358011.17 0 1 1 13761039.00 46542795.00 L 13918521.00 46542795.00 A 358011.17 358011.17 0 0 1 13918521.00 47258841.00  zM 16054960.00 48004960.00 L 15345040.00 48004960.00 L 15345040.00 47295040.00 L 16054960.00 47295040.00 L 16054960.00 48004960.00  zM 17650002.83 44299987.00 m -367964.00 0 a 367964.00 367964.00 0 1 1 735927.99 0a 367964.00 367964.00 0 1 1 -735927.99 0M 15699998.32 46650004.50 m -358018.50 0 a 358018.50 358018.50 0 1 1 716037.01 0a 358018.50 358018.50 0 1 1 -716037.01 0M 19874413.68 43925572.80 m -437460.20 0 a 437460.20 437460.20 0 1 1 874920.41 0a 437460.20 437460.20 0 1 1 -874920.41 0M 19087011.68 46287777.80 m -437460.20 0 a 437460.20 437460.20 0 1 1 874920.41 0a 437460.20 437460.20 0 1 1 -874920.41 0M 15699998.32 48650004.50 m -358018.50 0 a 358018.50 358018.50 0 1 1 716037.01 0a 358018.50 358018.50 0 1 1 -716037.01 0M 18014803.00 48664803.00 L 17285197.00 48664803.00 L 17285197.00 47935197.00 L 18014803.00 47935197.00 L 18014803.00 48664803.00  zM 19874413.68 48649982.80 m -437460.20 0 a 437460.20 437460.20 0 1 1 874920.41 0a 437460.20 437460.20 0 1 1 -874920.41 0M 26033701.00 37954960.00 L 25166299.00 37954960.00 L 25166299.00 37245040.00 L 26033701.00 37245040.00 L 26033701.00 37954960.00  zM 25678741.00 38958023.00 L 25521259.00 38958023.00 A 358011.17 358011.17 0 1 1 25521259.00 38241977.00 L 25678741.00 38241977.00 A 358011.17 358011.17 0 0 1 25678741.00 38958023.00  zM 25678741.00 39958023.00 L 25521259.00 39958023.00 A 358011.17 358011.17 0 1 1 25521259.00 39241977.00 L 25678741.00 39241977.00 A 358011.17 358011.17 0 0 1 25678741.00 39958023.00  zM 24677561.71 43925580.13 m -437452.87 0 a 437452.87 437452.87 0 1 1 874905.73 0a 437452.87 437452.87 0 1 1 -874905.73 0M 27254960.00 43883701.00 L 26545040.00 43883701.00 L 26545040.00 43016299.00 L 27254960.00 43016299.00 L 27254960.00 43883701.00  zM 27541977.00 43528741.00 L 27541977.00 43371259.00 A 358011.17 358011.17 0 1 1 28258023.00 43371259.00 L 28258023.00 43528741.00 A 358011.17 358011.17 0 0 1 27541977.00 43528741.00  zM 28541977.00 43528741.00 L 28541977.00 43371259.00 A 358011.17 358011.17 0 1 1 29258023.00 43371259.00 L 29258023.00 43528741.00 A 358011.17 358011.17 0 0 1 28541977.00 43528741.00  zM 36141977.00 42028741.00 L 36141977.00 41871259.00 A 358011.17 358011.17 0 1 1 36858023.00 41871259.00 L 36858023.00 42028741.00 A 358011.17 358011.17 0 0 1 36141977.00 42028741.00  zM 36867712.00 33252579.00 L 36157792.00 33252579.00 L 36157792.00 32385177.00 L 36867712.00 32385177.00 L 36867712.00 33252579.00  zM 38154729.00 32897619.00 L 38154729.00 32740137.00 A 358011.17 358011.17 0 0 1 38870775.00 32740137.00 L 38870775.00 32897619.00 A 358011.17 358011.17 0 0 1 38154729.00 32897619.00  zM 37154729.00 32897619.00 L 37154729.00 32740137.00 A 358011.17 358011.17 0 0 1 37870775.00 32740137.00 L 37870775.00 32897619.00 A 358011.17 358011.17 0 0 1 37154729.00 32897619.00  zM 37154729.00 38998407.00 L 37154729.00 38840925.00 A 358011.17 358011.17 0 1 1 37870775.00 38840925.00 L 37870775.00 38998407.00 A 358011.17 358011.17 0 0 1 37154729.00 38998407.00  zM 36154729.00 38998407.00 L 36154729.00 38840925.00 A 358011.17 358011.17 0 1 1 36870775.00 38840925.00 L 36870775.00 38998407.00 A 358011.17 358011.17 0 0 1 36154729.00 38998407.00  zM 38154729.00 38998407.00 L 38154729.00 38840925.00 A 358011.17 358011.17 0 1 1 38870775.00 38840925.00 L 38870775.00 38998407.00 A 358011.17 358011.17 0 0 1 38154729.00 38998407.00  zM 37141977.00 42028741.00 L 37141977.00 41871259.00 A 358011.17 358011.17 0 1 1 37858023.00 41871259.00 L 37858023.00 42028741.00 A 358011.17 358011.17 0 0 1 37141977.00 42028741.00  zM 38141977.00 42028741.00 L 38141977.00 41871259.00 A 358011.17 358011.17 0 1 1 38858023.00 41871259.00 L 38858023.00 42028741.00 A 358011.17 358011.17 0 0 1 38141977.00 42028741.00  zM 27049998.32 44600004.50 m -358018.50 0 a 358018.50 358018.50 0 1 1 716037.01 0a 358018.50 358018.50 0 1 1 -716037.01 0M 27049998.32 47600004.50 m -358018.50 0 a 358018.50 358018.50 0 1 1 716037.01 0a 358018.50 358018.50 0 1 1 -716037.01 0M 24677561.71 48649990.13 m -437452.87 0 a 437452.87 437452.87 0 1 1 874905.73 0a 437452.87 437452.87 0 1 1 -874905.73 0M 28654960.00 49283701.00 L 27945040.00 49283701.00 L 27945040.00 48416299.00 L 28654960.00 48416299.00 L 28654960.00 49283701.00  zM 28399213.00 46172195.00 L 28241731.00 46172195.00 A 358011.17 358011.17 0 0 1 28241731.00 45456149.00 L 28399213.00 45456149.00 A 358011.17 358011.17 0 0 1 28399213.00 46172195.00  zM 28399213.00 47943849.00 L 28241731.00 47943849.00 A 358011.17 358011.17 0 0 1 28241731.00 47227803.00 L 28399213.00 47227803.00 A 358011.17 358011.17 0 0 1 28399213.00 47943849.00  zM 28941977.00 48928741.00 L 28941977.00 48771259.00 A 358011.17 358011.17 0 0 1 29658023.00 48771259.00 L 29658023.00 48928741.00 A 358011.17 358011.17 0 0 1 28941977.00 48928741.00  zM 30958269.00 47943849.00 L 30800787.00 47943849.00 A 358011.17 358011.17 0 0 1 30800787.00 47227803.00 L 30958269.00 47227803.00 A 358011.17 358011.17 0 0 1 30958269.00 47943849.00  zM 30958269.00 46172195.00 L 30800787.00 46172195.00 A 358011.17 358011.17 0 0 1 30800787.00 45456149.00 L 30958269.00 45456149.00 A 358011.17 358011.17 0 0 1 30958269.00 46172195.00  zM 31345118.00 49195118.00 L 30654882.00 49195118.00 L 30654882.00 48504882.00 L 31345118.00 48504882.00 L 31345118.00 49195118.00  zM 36845118.00 44745118.00 L 36154882.00 44745118.00 L 36154882.00 44054882.00 L 36845118.00 44054882.00 L 36845118.00 44745118.00  zM 38254960.00 46783701.00 L 37545040.00 46783701.00 L 37545040.00 45916299.00 L 38254960.00 45916299.00 L 38254960.00 46783701.00  zM 38404960.00 44833701.00 L 37695040.00 44833701.00 L 37695040.00 43966299.00 L 38404960.00 43966299.00 L 38404960.00 44833701.00  zM 38691977.00 44478741.00 L 38691977.00 44321259.00 A 358011.17 358011.17 0 0 1 39408023.00 44321259.00 L 39408023.00 44478741.00 A 358011.17 358011.17 0 0 1 38691977.00 44478741.00  zM 38541977.00 46428741.00 L 38541977.00 46271259.00 A 358011.17 358011.17 0 0 1 39258023.00 46271259.00 L 39258023.00 46428741.00 A 358011.17 358011.17 0 0 1 38541977.00 46428741.00  zM 42278153.68 20038171.80 m -437460.20 0 a 437460.20 437460.20 0 1 1 874920.41 0a 437460.20 437460.20 0 1 1 -874920.41 0M 42278153.68 22238171.80 m -437460.20 0 a 437460.20 437460.20 0 1 1 874920.41 0a 437460.20 437460.20 0 1 1 -874920.41 0M 39396657.68 22238171.80 m -437460.20 0 a 437460.20 437460.20 0 1 1 874920.41 0a 437460.20 437460.20 0 1 1 -874920.41 0M 43579960.00 24363229.00 L 42870040.00 24363229.00 L 42870040.00 23495827.00 L 43579960.00 23495827.00 L 43579960.00 24363229.00  zM 44246657.68 20038171.80 m -437460.20 0 a 437460.20 437460.20 0 1 1 874920.41 0a 437460.20 437460.20 0 1 1 -874920.41 0M 44246657.68 22238171.80 m -437460.20 0 a 437460.20 437460.20 0 1 1 874920.41 0a 437460.20 437460.20 0 1 1 -874920.41 0M 43866977.00 24008269.00 L 43866977.00 23850787.00 A 358011.17 358011.17 0 0 1 44583023.00 23850787.00 L 44583023.00 24008269.00 A 358011.17 358011.17 0 1 1 43866977.00 24008269.00  zM 44866977.00 24008269.00 L 44866977.00 23850787.00 A 358011.17 358011.17 0 0 1 45583023.00 23850787.00 L 45583023.00 24008269.00 A 358011.17 358011.17 0 1 1 44866977.00 24008269.00  zM 46215161.68 20038171.80 m -437460.20 0 a 437460.20 437460.20 0 1 1 874920.41 0a 437460.20 437460.20 0 1 1 -874920.41 0M 50328741.00 20558023.00 L 50171259.00 20558023.00 A 358011.17 358011.17 0 1 1 50171259.00 19841977.00 L 50328741.00 19841977.00 A 358011.17 358011.17 0 0 1 50328741.00 20558023.00  zM 49991977.00 18828741.00 L 49991977.00 18671259.00 A 358011.17 358011.17 0 1 1 50708023.00 18671259.00 L 50708023.00 18828741.00 A 358011.17 358011.17 0 1 1 49991977.00 18828741.00  zM 50328741.00 21558023.00 L 50171259.00 21558023.00 A 358011.17 358011.17 0 1 1 50171259.00 20841977.00 L 50328741.00 20841977.00 A 358011.17 358011.17 0 0 1 50328741.00 21558023.00  zM 46215161.68 22238171.80 m -437460.20 0 a 437460.20 437460.20 0 1 1 874920.41 0a 437460.20 437460.20 0 1 1 -874920.41 0M 50683701.00 22554960.00 L 49816299.00 22554960.00 L 49816299.00 21845040.00 L 50683701.00 21845040.00 L 50683701.00 22554960.00  zM 50499998.32 24000004.50 m -358018.50 0 a 358018.50 358018.50 0 1 1 716037.01 0a 358018.50 358018.50 0 1 1 -716037.01 0M 50499998.32 25000004.50 m -358018.50 0 a 358018.50 358018.50 0 1 1 716037.01 0a 358018.50 358018.50 0 1 1 -716037.01 0M 43579960.00 25833701.00 L 42870040.00 25833701.00 L 42870040.00 24966299.00 L 43579960.00 24966299.00 L 43579960.00 25833701.00  zM 43866977.00 25478741.00 L 43866977.00 25321259.00 A 358011.17 358011.17 0 1 1 44583023.00 25321259.00 L 44583023.00 25478741.00 A 358011.17 358011.17 0 0 1 43866977.00 25478741.00  zM 42141977.00 30778741.00 L 42141977.00 30621259.00 A 358011.17 358011.17 0 0 1 42858023.00 30621259.00 L 42858023.00 30778741.00 A 358011.17 358011.17 0 0 1 42141977.00 30778741.00  zM 43141977.00 30778741.00 L 43141977.00 30621259.00 A 358011.17 358011.17 0 0 1 43858023.00 30621259.00 L 43858023.00 30778741.00 A 358011.17 358011.17 0 0 1 43141977.00 30778741.00  zM 39141977.00 30778741.00 L 39141977.00 30621259.00 A 358011.17 358011.17 0 0 1 39858023.00 30621259.00 L 39858023.00 30778741.00 A 358011.17 358011.17 0 0 1 39141977.00 30778741.00  zM 40141977.00 30778741.00 L 40141977.00 30621259.00 A 358011.17 358011.17 0 0 1 40858023.00 30621259.00 L 40858023.00 30778741.00 A 358011.17 358011.17 0 0 1 40141977.00 30778741.00  zM 41141977.00 30778741.00 L 41141977.00 30621259.00 A 358011.17 358011.17 0 0 1 41858023.00 30621259.00 L 41858023.00 30778741.00 A 358011.17 358011.17 0 0 1 41141977.00 30778741.00  zM 44141977.00 30778741.00 L 44141977.00 30621259.00 A 358011.17 358011.17 0 0 1 44858023.00 30621259.00 L 44858023.00 30778741.00 A 358011.17 358011.17 0 0 1 44141977.00 30778741.00  zM 44866977.00 25478741.00 L 44866977.00 25321259.00 A 358011.17 358011.17 0 1 1 45583023.00 25321259.00 L 45583023.00 25478741.00 A 358011.17 358011.17 0 0 1 44866977.00 25478741.00  zM 46762088.32 27400004.50 m -358018.50 0 a 358018.50 358018.50 0 1 1 716037.01 0a 358018.50 358018.50 0 1 1 -716037.01 0M 45141977.00 30778741.00 L 45141977.00 30621259.00 A 358011.17 358011.17 0 0 1 45858023.00 30621259.00 L 45858023.00 30778741.00 A 358011.17 358011.17 0 0 1 45141977.00 30778741.00  zM 48052681.00 29376221.00 L 47500241.00 29376221.00 L 47500241.00 28823781.00 L 48052681.00 28823781.00 L 48052681.00 29376221.00  zM 48212088.32 27400004.50 m -358018.50 0 a 358018.50 358018.50 0 1 1 716037.01 0a 358018.50 358018.50 0 1 1 -716037.01 0M 49312088.32 27400004.50 m -358018.50 0 a 358018.50 358018.50 0 1 1 716037.01 0a 358018.50 358018.50 0 1 1 -716037.01 0M 50762088.32 27400004.50 m -358018.50 0 a 358018.50 358018.50 0 1 1 716037.01 0a 358018.50 358018.50 0 1 1 -716037.01 0M 49697718.36 29100014.49 m -278589.51 0 a 278589.51 278589.51 0 1 1 557179.03 0a 278589.51 278589.51 0 1 1 -557179.03 0M 50991977.00 18828741.00 L 50991977.00 18671259.00 A 358011.17 358011.17 0 0 1 51708023.00 18671259.00 L 51708023.00 18828741.00 A 358011.17 358011.17 0 0 1 50991977.00 18828741.00  zM 52704960.00 19183701.00 L 51995040.00 19183701.00 L 51995040.00 18316299.00 L 52704960.00 18316299.00 L 52704960.00 19183701.00  zM 51449998.32 21200004.50 m -358018.50 0 a 358018.50 358018.50 0 1 1 716037.01 0a 358018.50 358018.50 0 1 1 -716037.01 0M 52949996.35 21700012.83 m -358011.17 0 a 358011.17 358011.17 0 1 1 716022.33 0a 358011.17 358011.17 0 1 1 -716022.33 0M 55108897.00 19032483.00 L 54241495.00 19032483.00 L 54241495.00 18322563.00 L 55108897.00 18322563.00 L 55108897.00 19032483.00  zM 54753937.00 20035546.00 L 54596455.00 20035546.00 A 358018.50 358018.50 0 0 1 54596455.00 19319500.00 L 54753937.00 19319500.00 A 358018.50 358018.50 0 0 1 54753937.00 20035546.00  zM 53304960.00 21054960.00 L 52595040.00 21054960.00 L 52595040.00 20345040.00 L 53304960.00 20345040.00 L 53304960.00 21054960.00  zM 54728741.00 21608023.00 L 54571259.00 21608023.00 A 358011.17 358011.17 0 0 1 54571259.00 20891977.00 L 54728741.00 20891977.00 A 358011.17 358011.17 0 0 1 54728741.00 21608023.00  zM 51449998.32 22200004.50 m -358018.50 0 a 358018.50 358018.50 0 1 1 716037.01 0a 358018.50 358018.50 0 1 1 -716037.01 0M 52949998.32 22700004.50 m -358018.50 0 a 358018.50 358018.50 0 1 1 716037.01 0a 358018.50 358018.50 0 1 1 -716037.01 0M 55083701.00 22604960.00 L 54216299.00 22604960.00 L 54216299.00 21895040.00 L 55083701.00 21895040.00 L 55083701.00 22604960.00  zM 54728741.00 24308023.00 L 54571259.00 24308023.00 A 358011.17 358011.17 0 0 1 54571259.00 23591977.00 L 54728741.00 23591977.00 A 358011.17 358011.17 0 0 1 54728741.00 24308023.00  zM 52399998.32 24000004.50 m -358018.50 0 a 358018.50 358018.50 0 1 1 716037.01 0a 358018.50 358018.50 0 1 1 -716037.01 0M 55083701.00 25304960.00 L 54216299.00 25304960.00 L 54216299.00 24595040.00 L 55083701.00 24595040.00 L 55083701.00 25304960.00  zM 52744960.00 25354960.00 L 52035040.00 25354960.00 L 52035040.00 24645040.00 L 52744960.00 24645040.00 L 52744960.00 25354960.00  zM 54854960.00 31133701.00 L 54145040.00 31133701.00 L 54145040.00 30266299.00 L 54854960.00 30266299.00 L 54854960.00 31133701.00  zM 56237798.68 19404706.80 m -437460.20 0 a 437460.20 437460.20 0 1 1 874920.41 0a 437460.20 437460.20 0 1 1 -874920.41 0M 60962207.71 24207863.13 m -437452.87 0 a 437452.87 437452.87 0 1 1 874905.73 0a 437452.87 437452.87 0 1 1 -874905.73 0M 56237797.71 24207863.13 m -437452.87 0 a 437452.87 437452.87 0 1 1 874905.73 0a 437452.87 437452.87 0 1 1 -874905.73 0M 58600002.71 24995265.13 m -437452.87 0 a 437452.87 437452.87 0 1 1 874905.73 0a 437452.87 437452.87 0 1 1 -874905.73 0M 60962208.68 19404706.80 m -437460.20 0 a 437460.20 437460.20 0 1 1 874920.41 0a 437460.20 437460.20 0 1 1 -874920.41 0M 63699999.28 18650005.39 m -1029202.61 0 a 1029202.61 1029202.61 0 1 1 2058405.22 0a 1029202.61 1029202.61 0 1 1 -2058405.22 0M 64180551.00 21580551.00 L 62919449.00 21580551.00 L 62919449.00 20319449.00 L 64180551.00 20319449.00 L 64180551.00 21580551.00  zM 63549994.62 22950026.02 m -633575.98 0 a 633575.98 633575.98 0 1 1 1267151.97 0a 633575.98 633575.98 0 1 1 -1267151.97 0M 55141977.00 30778741.00 L 55141977.00 30621259.00 A 358011.17 358011.17 0 0 1 55858023.00 30621259.00 L 55858023.00 30778741.00 A 358011.17 358011.17 0 0 1 55141977.00 30778741.00  zM 56141977.00 30778741.00 L 56141977.00 30621259.00 A 358011.17 358011.17 0 0 1 56858023.00 30621259.00 L 56858023.00 30778741.00 A 358011.17 358011.17 0 0 1 56141977.00 30778741.00  zM 57141977.00 30778741.00 L 57141977.00 30621259.00 A 358011.17 358011.17 0 0 1 57858023.00 30621259.00 L 57858023.00 30778741.00 A 358011.17 358011.17 0 0 1 57141977.00 30778741.00  zM 58141977.00 30778741.00 L 58141977.00 30621259.00 A 358011.17 358011.17 0 0 1 58858023.00 30621259.00 L 58858023.00 30778741.00 A 358011.17 358011.17 0 0 1 58141977.00 30778741.00  zM 59141977.00 30778741.00 L 59141977.00 30621259.00 A 358011.17 358011.17 0 0 1 59858023.00 30621259.00 L 59858023.00 30778741.00 A 358011.17 358011.17 0 0 1 59141977.00 30778741.00  zM 60141977.00 30778741.00 L 60141977.00 30621259.00 A 358011.17 358011.17 0 0 1 60858023.00 30621259.00 L 60858023.00 30778741.00 A 358011.17 358011.17 0 0 1 60141977.00 30778741.00  zM 61141977.00 30778741.00 L 61141977.00 30621259.00 A 358011.17 358011.17 0 0 1 61858023.00 30621259.00 L 61858023.00 30778741.00 A 358011.17 358011.17 0 0 1 61141977.00 30778741.00  zM 39154729.00 32897619.00 L 39154729.00 32740137.00 A 358011.17 358011.17 0 0 1 39870775.00 32740137.00 L 39870775.00 32897619.00 A 358011.17 358011.17 0 0 1 39154729.00 32897619.00  zM 41154729.00 32897619.00 L 41154729.00 32740137.00 A 358011.17 358011.17 0 0 1 41870775.00 32740137.00 L 41870775.00 32897619.00 A 358011.17 358011.17 0 0 1 41154729.00 32897619.00  zM 42154729.00 32897619.00 L 42154729.00 32740137.00 A 358011.17 358011.17 0 0 1 42870775.00 32740137.00 L 42870775.00 32897619.00 A 358011.17 358011.17 0 0 1 42154729.00 32897619.00  zM 43154729.00 32897619.00 L 43154729.00 32740137.00 A 358011.17 358011.17 0 0 1 43870775.00 32740137.00 L 43870775.00 32897619.00 A 358011.17 358011.17 0 0 1 43154729.00 32897619.00  zM 44154729.00 32897619.00 L 44154729.00 32740137.00 A 358011.17 358011.17 0 0 1 44870775.00 32740137.00 L 44870775.00 32897619.00 A 358011.17 358011.17 0 0 1 44154729.00 32897619.00  zM 45154729.00 32897619.00 L 45154729.00 32740137.00 A 358011.17 358011.17 0 0 1 45870775.00 32740137.00 L 45870775.00 32897619.00 A 358011.17 358011.17 0 0 1 45154729.00 32897619.00  zM 46799998.32 30800004.50 m -358018.50 0 a 358018.50 358018.50 0 1 1 716037.01 0a 358018.50 358018.50 0 1 1 -716037.01 0M 47154729.00 32897619.00 L 47154729.00 32740137.00 A 358011.17 358011.17 0 0 1 47870775.00 32740137.00 L 47870775.00 32897619.00 A 358011.17 358011.17 0 0 1 47154729.00 32897619.00  zM 40154729.00 32897619.00 L 40154729.00 32740137.00 A 358011.17 358011.17 0 0 1 40870775.00 32740137.00 L 40870775.00 32897619.00 A 358011.17 358011.17 0 0 1 40154729.00 32897619.00  zM 42154729.00 38998407.00 L 42154729.00 38840925.00 A 358011.17 358011.17 0 1 1 42870775.00 38840925.00 L 42870775.00 38998407.00 A 358011.17 358011.17 0 0 1 42154729.00 38998407.00  zM 39154729.00 38998407.00 L 39154729.00 38840925.00 A 358011.17 358011.17 0 1 1 39870775.00 38840925.00 L 39870775.00 38998407.00 A 358011.17 358011.17 0 0 1 39154729.00 38998407.00  zM 43154729.00 38998407.00 L 43154729.00 38840925.00 A 358011.17 358011.17 0 1 1 43870775.00 38840925.00 L 43870775.00 38998407.00 A 358011.17 358011.17 0 0 1 43154729.00 38998407.00  zM 46154729.00 32897619.00 L 46154729.00 32740137.00 A 358011.17 358011.17 0 0 1 46870775.00 32740137.00 L 46870775.00 32897619.00 A 358011.17 358011.17 0 0 1 46154729.00 32897619.00  zM 47154729.00 38998407.00 L 47154729.00 38840925.00 A 358011.17 358011.17 0 1 1 47870775.00 38840925.00 L 47870775.00 38998407.00 A 358011.17 358011.17 0 0 1 47154729.00 38998407.00  zM 44154729.00 38998407.00 L 44154729.00 38840925.00 A 358011.17 358011.17 0 1 1 44870775.00 38840925.00 L 44870775.00 38998407.00 A 358011.17 358011.17 0 0 1 44154729.00 38998407.00  zM 45154729.00 38998407.00 L 45154729.00 38840925.00 A 358011.17 358011.17 0 1 1 45870775.00 38840925.00 L 45870775.00 38998407.00 A 358011.17 358011.17 0 0 1 45154729.00 38998407.00  zM 47799998.32 30800004.50 m -358018.50 0 a 358018.50 358018.50 0 1 1 716037.01 0a 358018.50 358018.50 0 1 1 -716037.01 0M 48154729.00 32897619.00 L 48154729.00 32740137.00 A 358011.17 358011.17 0 0 1 48870775.00 32740137.00 L 48870775.00 32897619.00 A 358011.17 358011.17 0 0 1 48154729.00 32897619.00  zM 49154729.00 32897619.00 L 49154729.00 32740137.00 A 358011.17 358011.17 0 0 1 49870775.00 32740137.00 L 49870775.00 32897619.00 A 358011.17 358011.17 0 0 1 49154729.00 32897619.00  zM 50154729.00 32897619.00 L 50154729.00 32740137.00 A 358011.17 358011.17 0 0 1 50870775.00 32740137.00 L 50870775.00 32897619.00 A 358011.17 358011.17 0 0 1 50154729.00 32897619.00  zM 51154729.00 32897619.00 L 51154729.00 32740137.00 A 358011.17 358011.17 0 0 1 51870775.00 32740137.00 L 51870775.00 32897619.00 A 358011.17 358011.17 0 0 1 51154729.00 32897619.00  zM 52154729.00 32897619.00 L 52154729.00 32740137.00 A 358011.17 358011.17 0 0 1 52870775.00 32740137.00 L 52870775.00 32897619.00 A 358011.17 358011.17 0 0 1 52154729.00 32897619.00  zM 53154729.00 32897619.00 L 53154729.00 32740137.00 A 358011.17 358011.17 0 0 1 53870775.00 32740137.00 L 53870775.00 32897619.00 A 358011.17 358011.17 0 0 1 53154729.00 32897619.00  zM 55154729.00 32897619.00 L 55154729.00 32740137.00 A 358011.17 358011.17 0 0 1 55870775.00 32740137.00 L 55870775.00 32897619.00 A 358011.17 358011.17 0 0 1 55154729.00 32897619.00  zM 48154729.00 38998407.00 L 48154729.00 38840925.00 A 358011.17 358011.17 0 1 1 48870775.00 38840925.00 L 48870775.00 38998407.00 A 358011.17 358011.17 0 0 1 48154729.00 38998407.00  zM 49154729.00 38998407.00 L 49154729.00 38840925.00 A 358011.17 358011.17 0 1 1 49870775.00 38840925.00 L 49870775.00 38998407.00 A 358011.17 358011.17 0 0 1 49154729.00 38998407.00  zM 50154729.00 38998407.00 L 50154729.00 38840925.00 A 358011.17 358011.17 0 1 1 50870775.00 38840925.00 L 50870775.00 38998407.00 A 358011.17 358011.17 0 0 1 50154729.00 38998407.00  zM 52154729.00 38998407.00 L 52154729.00 38840925.00 A 358011.17 358011.17 0 0 1 52870775.00 38840925.00 L 52870775.00 38998407.00 A 358011.17 358011.17 0 0 1 52154729.00 38998407.00  zM 54154729.00 32897619.00 L 54154729.00 32740137.00 A 358011.17 358011.17 0 0 1 54870775.00 32740137.00 L 54870775.00 32897619.00 A 358011.17 358011.17 0 0 1 54154729.00 32897619.00  zM 54154729.00 38998407.00 L 54154729.00 38840925.00 A 358011.17 358011.17 0 1 1 54870775.00 38840925.00 L 54870775.00 38998407.00 A 358011.17 358011.17 0 0 1 54154729.00 38998407.00  zM 55154729.00 38998407.00 L 55154729.00 38840925.00 A 358011.17 358011.17 0 0 1 55870775.00 38840925.00 L 55870775.00 38998407.00 A 358011.17 358011.17 0 0 1 55154729.00 38998407.00  zM 40154729.00 38998407.00 L 40154729.00 38840925.00 A 358011.17 358011.17 0 1 1 40870775.00 38840925.00 L 40870775.00 38998407.00 A 358011.17 358011.17 0 0 1 40154729.00 38998407.00  zM 41154729.00 38998407.00 L 41154729.00 38840925.00 A 358011.17 358011.17 0 1 1 41870775.00 38840925.00 L 41870775.00 38998407.00 A 358011.17 358011.17 0 0 1 41154729.00 38998407.00  zM 39141977.00 42028741.00 L 39141977.00 41871259.00 A 358011.17 358011.17 0 1 1 39858023.00 41871259.00 L 39858023.00 42028741.00 A 358011.17 358011.17 0 0 1 39141977.00 42028741.00  zM 41141977.00 42028741.00 L 41141977.00 41871259.00 A 358011.17 358011.17 0 1 1 41858023.00 41871259.00 L 41858023.00 42028741.00 A 358011.17 358011.17 0 0 1 41141977.00 42028741.00  zM 42141977.00 42028741.00 L 42141977.00 41871259.00 A 358011.17 358011.17 0 1 1 42858023.00 41871259.00 L 42858023.00 42028741.00 A 358011.17 358011.17 0 0 1 42141977.00 42028741.00  zM 43854960.00 42383701.00 L 43145040.00 42383701.00 L 43145040.00 41516299.00 L 43854960.00 41516299.00 L 43854960.00 42383701.00  zM 44499998.32 40550004.50 m -358018.50 0 a 358018.50 358018.50 0 1 1 716037.01 0a 358018.50 358018.50 0 1 1 -716037.01 0M 45304960.00 42383701.00 L 44595040.00 42383701.00 L 44595040.00 41516299.00 L 45304960.00 41516299.00 L 45304960.00 42383701.00  zM 40141977.00 42028741.00 L 40141977.00 41871259.00 A 358011.17 358011.17 0 1 1 40858023.00 41871259.00 L 40858023.00 42028741.00 A 358011.17 358011.17 0 0 1 40141977.00 42028741.00  zM 41854960.00 43583701.00 L 41145040.00 43583701.00 L 41145040.00 42716299.00 L 41854960.00 42716299.00 L 41854960.00 43583701.00  zM 42141977.00 43228741.00 L 42141977.00 43071259.00 A 358011.17 358011.17 0 1 1 42858023.00 43071259.00 L 42858023.00 43228741.00 A 358011.17 358011.17 0 0 1 42141977.00 43228741.00  zM 43141977.00 43228741.00 L 43141977.00 43071259.00 A 358011.17 358011.17 0 1 1 43858023.00 43071259.00 L 43858023.00 43228741.00 A 358011.17 358011.17 0 0 1 43141977.00 43228741.00  zM 39541977.00 46428741.00 L 39541977.00 46271259.00 A 358011.17 358011.17 0 0 1 40258023.00 46271259.00 L 40258023.00 46428741.00 A 358011.17 358011.17 0 0 1 39541977.00 46428741.00  zM 40541977.00 46428741.00 L 40541977.00 46271259.00 A 358011.17 358011.17 0 0 1 41258023.00 46271259.00 L 41258023.00 46428741.00 A 358011.17 358011.17 0 0 1 40541977.00 46428741.00  zM 41541977.00 46428741.00 L 41541977.00 46271259.00 A 358011.17 358011.17 0 0 1 42258023.00 46271259.00 L 42258023.00 46428741.00 A 358011.17 358011.17 0 0 1 41541977.00 46428741.00  zM 42541977.00 46428741.00 L 42541977.00 46271259.00 A 358011.17 358011.17 0 0 1 43258023.00 46271259.00 L 43258023.00 46428741.00 A 358011.17 358011.17 0 0 1 42541977.00 46428741.00  zM 45499998.32 40550004.50 m -358018.50 0 a 358018.50 358018.50 0 1 1 716037.01 0a 358018.50 358018.50 0 1 1 -716037.01 0M 45591977.00 42028741.00 L 45591977.00 41871259.00 A 358011.17 358011.17 0 1 1 46308023.00 41871259.00 L 46308023.00 42028741.00 A 358011.17 358011.17 0 0 1 45591977.00 42028741.00  zM 46154729.00 38998407.00 L 46154729.00 38840925.00 A 358011.17 358011.17 0 1 1 46870775.00 38840925.00 L 46870775.00 38998407.00 A 358011.17 358011.17 0 0 1 46154729.00 38998407.00  zM 51154729.00 38998407.00 L 51154729.00 38840925.00 A 358011.17 358011.17 0 1 1 51870775.00 38840925.00 L 51870775.00 38998407.00 A 358011.17 358011.17 0 0 1 51154729.00 38998407.00  zM 46499999.28 45200005.39 m -1029202.61 0 a 1029202.61 1029202.61 0 1 1 2058405.22 0a 1029202.61 1029202.61 0 1 1 -2058405.22 0M 48468902.00 46428741.00 L 48468902.00 46271259.00 A 358011.17 358011.17 0 0 1 49184948.00 46271259.00 L 49184948.00 46428741.00 A 358011.17 358011.17 0 0 1 48468902.00 46428741.00  zM 49468902.00 46428741.00 L 49468902.00 46271259.00 A 358011.17 358011.17 0 0 1 50184948.00 46271259.00 L 50184948.00 46428741.00 A 358011.17 358011.17 0 0 1 49468902.00 46428741.00  zM 50468902.00 46428741.00 L 50468902.00 46271259.00 A 358011.17 358011.17 0 0 1 51184948.00 46271259.00 L 51184948.00 46428741.00 A 358011.17 358011.17 0 0 1 50468902.00 46428741.00  zM 53154729.00 38998407.00 L 53154729.00 38840925.00 A 358011.17 358011.17 0 1 1 53870775.00 38840925.00 L 53870775.00 38998407.00 A 358011.17 358011.17 0 0 1 53154729.00 38998407.00  zM 52468902.00 46428741.00 L 52468902.00 46271259.00 A 358011.17 358011.17 0 0 1 53184948.00 46271259.00 L 53184948.00 46428741.00 A 358011.17 358011.17 0 0 1 52468902.00 46428741.00  zM 51468902.00 46428741.00 L 51468902.00 46271259.00 A 358011.17 358011.17 0 0 1 52184948.00 46271259.00 L 52184948.00 46428741.00 A 358011.17 358011.17 0 0 1 51468902.00 46428741.00  zM 53468902.00 46428741.00 L 53468902.00 46271259.00 A 358011.17 358011.17 0 0 1 54184948.00 46271259.00 L 54184948.00 46428741.00 A 358011.17 358011.17 0 0 1 53468902.00 46428741.00  zM 54468902.00 46428741.00 L 54468902.00 46271259.00 A 358011.17 358011.17 0 0 1 55184948.00 46271259.00 L 55184948.00 46428741.00 A 358011.17 358011.17 0 0 1 54468902.00 46428741.00  zM 56181885.00 46783701.00 L 55471965.00 46783701.00 L 55471965.00 45916299.00 L 56181885.00 45916299.00 L 56181885.00 46783701.00  zM 63849999.28 48600005.39 m -1029202.61 0 a 1029202.61 1029202.61 0 1 1 2058405.22 0a 1029202.61 1029202.61 0 1 1 -2058405.22 0"/>
</g>
</svg>
