<svg width="46.228mm" height="82.042mm" viewBox="0 0 18200000 32300000"  version="1.1" xmlns="http://www.w3.org/2000/svg" xmlns:xlink="http://www.w3.org/1999/xlink">
<desc>
Origin 51800000 12400000 Bound 51800000 12400000 18200000 32300000
</desc>
<g fill-rule="evenodd" fill="rgb(128, 128, 0)" stroke="black" stroke-width="1" transform="translate(0, 32300000) scale(1, -1) translate(-51800000, -12400000)">
<path id="N" d="M 58388220.00 39538172.00 L 58488188.00 39438204.00 L 58504039.00 39399935.00 L 58504040.00 39000065.00 L 58488188.00 38961796.00 L 58388220.00 38861828.00 L 58349951.00 38845977.00 L 58150016.00 38845976.00 L 58111747.00 38861828.00 L 58011779.00 38961796.00 A 54121.84 54121.84 0 1 0 58088317.00 39038334.00 L 58172434.00 38954217.00 L 58327533.00 38954217.00 L 58395799.00 39022483.00 L 58395799.00 39377517.00 L 58327533.00 39445783.00 L 58172434.00 39445783.00 L 58088317.00 39361666.00 A 54119.43 54119.43 0 1 0 58011779.00 39438204.00 L 58111747.00 39538172.00 L 58150016.00 39554023.00 L 58349951.00 39554024.00 L 58388220.00 39538172.00  z"/>
<path id="N" d="M 57788414.00 39538172.00 L 57888382.00 39438204.00 A 54121.84 54121.84 0 0 0 57811844.00 39361666.00 L 57727727.00 39445783.00 L 57572628.00 39445783.00 L 57504362.00 39377517.00 L 57504362.00 39322386.00 L 57888382.00 38938366.00 A 54119.43 54119.43 0 0 0 57850110.59 38845977.00 L 57450242.00 38845977.00 A 54118.70 54118.70 0 1 0 57450242.00 38954217.00 L 57719455.00 38954217.00 L 57411973.00 39261699.00 L 57396122.00 39299970.41 L 57396121.00 39399935.00 L 57411973.00 39438204.00 L 57511941.00 39538172.00 L 57550210.00 39554023.00 L 57750145.00 39554024.00 L 57788414.00 39538172.00  z"/>
<path id="N" d="M 58949757.00 39445783.00 L 58903909.00 39445783.00 L 58903909.00 38954217.00 L 58949757.00 38954217.00 A 54118.70 54118.70 0 1 0 58949757.00 38845977.00 L 58749822.00 38845977.00 A 54118.70 54118.70 0 0 0 58749822.00 38954217.00 L 58795669.00 38954217.00 L 58795669.00 39445783.00 L 58749822.00 39445783.00 A 54118.70 54118.70 0 0 0 58749822.00 39554023.00 L 58949757.00 39554023.00 A 54121.84 54121.84 0 1 0 58949757.00 39445783.00  z"/>
<path id="N" d="M 60019109.00 38809661.00 L 60031590.00 38779528.00 L 60031590.00 36220472.00 L 60019109.00 36190339.00 L 59988976.00 36177858.00 L 58611024.00 36177858.00 L 58580891.00 36190339.00 L 58568410.00 36220472.00 L 58568410.00 38779528.00 L 58580891.00 38809661.00 L 58611024.00 38822142.00 L 59988976.00 38822142.00 L 60019109.00 38809661.00  zM 59946362.00 38736914.00 L 58653638.00 38736914.00 L 58653638.00 36263086.00 L 59946362.00 36263086.00 L 59946362.00 38736914.00  z"/>
<path id="N" d="M 60914779.00 38760448.00 L 60927260.00 38730315.00 L 60914779.00 38700182.00 L 60884646.00 38687701.00 L 60195669.00 38687701.00 L 60165536.00 38700182.00 L 60153055.00 38730315.00 L 60165536.00 38760448.00 L 60195669.00 38772929.00 L 60884646.00 38772929.00 L 60914779.00 38760448.00  z"/>
</g>
</svg>
