<svg width="152.4mm" height="101.6mm" viewBox="0 0 60000000 40000000"  version="1.1" xmlns="http://www.w3.org/2000/svg" xmlns:xlink="http://www.w3.org/1999/xlink">
<desc>
Origin 0 0 Bound 10000000 10000000 60000000 40000000
</desc>
<g fill-rule="evenodd" fill="rgb(255, 0, 0)" stroke="black" stroke-width="1" transform="translate(0, 40000000) scale(1, -1) translate(-10000000, -10000000)">
<path id="N" d="M 38799996.32 24799994.16 m -307757.99 0 a 307757.99 307757.99 0 1 1 615515.98 0a 307757.99 307757.99 0 1 1 -615515.98 0M 38799999.24 24799999.93 m -204721.07 0 a 204721.07 204721.07 0 1 1 409442.13 0a 204721.07 204721.07 0 1 1 -409442.13 0"/>
<path id="N" d="M 51169669.36 35587251.36 m -232815.81 0 a 232815.81 232815.81 0 1 1 465631.62 0a 232815.81 232815.81 0 1 1 -465631.62 0M 51169665.96 35587247.84 m -152537.16 0 a 152537.16 152537.16 0 1 1 305074.33 0a 152537.16 152537.16 0 1 1 -305074.33 0"/>
<path id="N" d="M 13058269.00 44318148.00 L 12900787.00 44318148.00 A 317686.61 317686.61 0 1 0 12900787.00 44953504.00 L 13058269.00 44953504.00 A 317671.90 317671.90 0 1 0 13058269.00 44318148.00  zM 12979528.68 44635825.74 m -100353.26 0 a 100353.26 100353.26 0 1 1 200706.53 0a 100353.26 100353.26 0 1 1 -200706.53 0"/>
<path id="N" d="M 28059805.00 43290946.00 L 28059805.00 43133464.00 A 317686.61 317686.61 0 1 0 27424449.00 43133464.00 L 27424449.00 43290946.00 A 317686.61 317686.61 0 0 0 28059805.00 43290946.00  zM 27742127.68 43212204.74 m -100353.26 0 a 100353.26 100353.26 0 1 1 200706.53 0a 100353.26 100353.26 0 1 1 -200706.53 0"/>
<path id="N" d="M 10499213.00 44318148.00 L 10341731.00 44318148.00 A 317686.61 317686.61 0 1 0 10341731.00 44953504.00 L 10499213.00 44953504.00 A 317671.90 317671.90 0 1 0 10499213.00 44318148.00  zM 10420472.68 44635825.74 m -100353.26 0 a 100353.26 100353.26 0 1 1 200706.53 0a 100353.26 100353.26 0 1 1 -200706.53 0"/>
<path id="N" d="M 32862954.00 38566536.00 L 32862954.00 38409054.00 A 317686.61 317686.61 0 0 0 32227598.00 38409054.00 L 32227598.00 38566536.00 A 317686.61 317686.61 0 0 0 32862954.00 38566536.00  zM 32545276.68 38487794.74 m -100353.26 0 a 100353.26 100353.26 0 1 1 200706.53 0a 100353.26 100353.26 0 1 1 -200706.53 0"/>
<path id="N" d="M 33700002.99 45650005.10 m -317671.90 0 a 317671.90 317671.90 0 1 1 635343.80 0a 317671.90 317671.90 0 1 1 -635343.80 0M 33700000.68 45649999.74 m -100353.26 0 a 100353.26 100353.26 0 1 1 200706.53 0a 100353.26 100353.26 0 1 1 -200706.53 0"/>
<path id="N" d="M 23449997.35 44149993.57 m -297829.90 0 a 297829.90 297829.90 0 1 1 595659.80 0a 297829.90 297829.90 0 1 1 -595659.80 0M 23450002.46 44149992.27 m -120431.73 0 a 120431.73 120431.73 0 1 1 240863.46 0a 120431.73 120431.73 0 1 1 -240863.46 0"/>
<path id="N" d="M 45068881.36 35587251.36 m -232815.81 0 a 232815.81 232815.81 0 1 1 465631.62 0a 232815.81 232815.81 0 1 1 -465631.62 0M 45068877.96 35587247.84 m -152537.16 0 a 152537.16 152537.16 0 1 1 305074.33 0a 152537.16 152537.16 0 1 1 -305074.33 0"/>
<path id="N" d="M 51169669.36 37587251.36 m -232815.81 0 a 232815.81 232815.81 0 1 1 465631.62 0a 232815.81 232815.81 0 1 1 -465631.62 0M 51169665.96 37587247.84 m -152537.16 0 a 152537.16 152537.16 0 1 1 305074.33 0a 152537.16 152537.16 0 1 1 -305074.33 0"/>
<path id="N" d="M 25724803.00 42525197.00 L 25075197.00 42525197.00 L 25075197.00 43174803.00 L 25724803.00 43174803.00 L 25724803.00 42525197.00  zM 25400000.68 42849999.74 m -100353.26 0 a 100353.26 100353.26 0 1 1 200706.53 0a 100353.26 100353.26 0 1 1 -200706.53 0"/>
<path id="N" d="M 87678337.15 29341323.00 m -387188.24 0 a 387188.24 387188.24 0 1 1 774376.48 0a 387188.24 387188.24 0 1 1 -774376.48 0M 87678345.02 29341343.48 m -258108.52 0 a 258108.52 258108.52 0 1 1 516217.04 0a 258108.52 258108.52 0 1 1 -516217.04 0"/>
<path id="N" d="M 71405118.00 28694882.00 L 70794882.00 28694882.00 L 70794882.00 29305118.00 L 71405118.00 29305118.00 L 71405118.00 28694882.00  zM 71099999.24 28999999.93 m -204721.07 0 a 204721.07 204721.07 0 1 1 409442.13 0a 204721.07 204721.07 0 1 1 -409442.13 0"/>
<path id="N" d="M 45068881.36 31587251.36 m -232815.81 0 a 232815.81 232815.81 0 1 1 465631.62 0a 232815.81 232815.81 0 1 1 -465631.62 0M 45068877.96 31587247.84 m -152537.16 0 a 152537.16 152537.16 0 1 1 305074.33 0a 152537.16 152537.16 0 1 1 -305074.33 0"/>
<path id="N" d="M 56805118.00 27044882.00 L 56194882.00 27044882.00 L 56194882.00 27655118.00 L 56805118.00 27655118.00 L 56805118.00 27044882.00  zM 56499999.24 27349999.93 m -204721.07 0 a 204721.07 204721.07 0 1 1 409442.13 0a 204721.07 204721.07 0 1 1 -409442.13 0"/>
<path id="N" d="M 56499996.32 28349994.16 m -307757.99 0 a 307757.99 307757.99 0 1 1 615515.98 0a 307757.99 307757.99 0 1 1 -615515.98 0M 56499999.24 28349999.93 m -204721.07 0 a 204721.07 204721.07 0 1 1 409442.13 0a 204721.07 204721.07 0 1 1 -409442.13 0"/>
<path id="N" d="M 45068881.36 30587251.36 m -232815.81 0 a 232815.81 232815.81 0 1 1 465631.62 0a 232815.81 232815.81 0 1 1 -465631.62 0M 45068877.96 30587247.84 m -152537.16 0 a 152537.16 152537.16 0 1 1 305074.33 0a 152537.16 152537.16 0 1 1 -305074.33 0"/>
<path id="N" d="M 77131850.00 31158269.00 L 77131850.00 31000787.00 A 317686.61 317686.61 0 0 0 76496494.00 31000787.00 L 76496494.00 31158269.00 A 317686.61 317686.61 0 1 0 77131850.00 31158269.00  zM 76814172.68 31079527.74 m -100353.26 0 a 100353.26 100353.26 0 1 1 200706.53 0a 100353.26 100353.26 0 1 1 -200706.53 0"/>
<path id="N" d="M 80181850.00 31158269.00 L 80181850.00 31000787.00 A 317686.61 317686.61 0 0 0 79546494.00 31000787.00 L 79546494.00 31158269.00 A 317686.61 317686.61 0 0 0 80181850.00 31158269.00  zM 79864172.68 31079527.74 m -100353.26 0 a 100353.26 100353.26 0 1 1 200706.53 0a 100353.26 100353.26 0 1 1 -200706.53 0"/>
<path id="N" d="M 77131850.00 28599213.00 L 77131850.00 28441731.00 A 317686.61 317686.61 0 0 0 76496494.00 28441731.00 L 76496494.00 28599213.00 A 317686.61 317686.61 0 0 0 77131850.00 28599213.00  zM 76814172.68 28520471.74 m -100353.26 0 a 100353.26 100353.26 0 1 1 200706.53 0a 100353.26 100353.26 0 1 1 -200706.53 0"/>
<path id="N" d="M 80181850.00 28599213.00 L 80181850.00 28441731.00 A 317686.61 317686.61 0 0 0 79546494.00 28441731.00 L 79546494.00 28599213.00 A 317686.61 317686.61 0 0 0 80181850.00 28599213.00  zM 79864172.68 28520471.74 m -100353.26 0 a 100353.26 100353.26 0 1 1 200706.53 0a 100353.26 100353.26 0 1 1 -200706.53 0"/>
<path id="N" d="M 84750002.99 28150005.10 m -317671.90 0 a 317671.90 317671.90 0 1 1 635343.80 0a 317671.90 317671.90 0 1 1 -635343.80 0M 84750000.68 28149999.74 m -100353.26 0 a 100353.26 100353.26 0 1 1 200706.53 0a 100353.26 100353.26 0 1 1 -200706.53 0"/>
<path id="N" d="M 132799996.32 30999994.16 m -307757.99 0 a 307757.99 307757.99 0 1 1 615515.98 0a 307757.99 307757.99 0 1 1 -615515.98 0M 132799999.24 30999999.93 m -204721.07 0 a 204721.07 204721.07 0 1 1 409442.13 0a 204721.07 204721.07 0 1 1 -409442.13 0"/>
<path id="N" d="M 83050002.99 28150005.10 m -317671.90 0 a 317671.90 317671.90 0 1 1 635343.80 0a 317671.90 317671.90 0 1 1 -635343.80 0M 83050000.68 28149999.74 m -100353.26 0 a 100353.26 100353.26 0 1 1 200706.53 0a 100353.26 100353.26 0 1 1 -200706.53 0"/>
<path id="N" d="M 38799996.32 27799994.16 m -307757.99 0 a 307757.99 307757.99 0 1 1 615515.98 0a 307757.99 307757.99 0 1 1 -615515.98 0M 38799999.24 27799999.93 m -204721.07 0 a 204721.07 204721.07 0 1 1 409442.13 0a 204721.07 204721.07 0 1 1 -409442.13 0"/>
<path id="N" d="M 51169669.36 32587251.36 m -232815.81 0 a 232815.81 232815.81 0 1 1 465631.62 0a 232815.81 232815.81 0 1 1 -465631.62 0M 51169665.96 32587247.84 m -152537.16 0 a 152537.16 152537.16 0 1 1 305074.33 0a 152537.16 152537.16 0 1 1 -305074.33 0"/>
<path id="N" d="M 28059805.00 38566536.00 L 28059805.00 38409054.00 A 317686.61 317686.61 0 0 0 27424449.00 38409054.00 L 27424449.00 38566536.00 A 317686.61 317686.61 0 0 0 28059805.00 38566536.00  zM 27742127.68 38487794.74 m -100353.26 0 a 100353.26 100353.26 0 1 1 200706.53 0a 100353.26 100353.26 0 1 1 -200706.53 0"/>
<path id="N" d="M 37799213.00 43546494.00 L 37641731.00 43546494.00 A 317686.61 317686.61 0 0 0 37641731.00 44181850.00 L 37799213.00 44181850.00 A 317671.90 317671.90 0 0 0 37799213.00 43546494.00  zM 37720472.68 43864171.74 m -100353.26 0 a 100353.26 100353.26 0 1 1 200706.53 0a 100353.26 100353.26 0 1 1 -200706.53 0"/>
<path id="N" d="M 40358269.00 43546494.00 L 40200787.00 43546494.00 A 317686.61 317686.61 0 0 0 40200787.00 44181850.00 L 40358269.00 44181850.00 A 317671.90 317671.90 0 0 0 40358269.00 43546494.00  zM 40279528.68 43864171.74 m -100353.26 0 a 100353.26 100353.26 0 1 1 200706.53 0a 100353.26 100353.26 0 1 1 -200706.53 0"/>
<path id="N" d="M 73750002.99 31000005.10 m -317671.90 0 a 317671.90 317671.90 0 1 1 635343.80 0a 317671.90 317671.90 0 1 1 -635343.80 0M 73750000.68 30999999.74 m -100353.26 0 a 100353.26 100353.26 0 1 1 200706.53 0a 100353.26 100353.26 0 1 1 -200706.53 0"/>
<path id="N" d="M 41999996.32 44099994.16 m -307757.99 0 a 307757.99 307757.99 0 1 1 615515.98 0a 307757.99 307757.99 0 1 1 -615515.98 0M 41999999.24 44099999.93 m -204721.07 0 a 204721.07 204721.07 0 1 1 409442.13 0a 204721.07 204721.07 0 1 1 -409442.13 0"/>
<path id="N" d="M 23450002.99 38850005.10 m -317671.90 0 a 317671.90 317671.90 0 1 1 635343.80 0a 317671.90 317671.90 0 1 1 -635343.80 0M 23450000.68 38849999.74 m -100353.26 0 a 100353.26 100353.26 0 1 1 200706.53 0a 100353.26 100353.26 0 1 1 -200706.53 0"/>
<path id="N" d="M 25400001.97 38850005.69 m -327599.99 0 a 327599.99 327599.99 0 1 1 655199.97 0a 327599.99 327599.99 0 1 1 -655199.97 0M 25400000.68 38849999.74 m -100353.26 0 a 100353.26 100353.26 0 1 1 200706.53 0a 100353.26 100353.26 0 1 1 -200706.53 0"/>
<path id="N" d="M 51169669.36 36587251.36 m -232815.81 0 a 232815.81 232815.81 0 1 1 465631.62 0a 232815.81 232815.81 0 1 1 -465631.62 0M 51169665.96 36587247.84 m -152537.16 0 a 152537.16 152537.16 0 1 1 305074.33 0a 152537.16 152537.16 0 1 1 -305074.33 0"/>
<path id="N" d="M 41149991.06 32474991.06 m -240860.29 0 a 240860.29 240860.29 0 1 1 481720.58 0a 240860.29 240860.29 0 1 1 -481720.58 0M 41149999.13 32475001.07 m -150528.93 0 a 150528.93 150528.93 0 1 1 301057.86 0a 150528.93 150528.93 0 1 1 -301057.86 0"/>
<path id="N" d="M 41149991.06 33574991.06 m -240860.29 0 a 240860.29 240860.29 0 1 1 481720.58 0a 240860.29 240860.29 0 1 1 -481720.58 0M 41149999.13 33575001.07 m -150528.93 0 a 150528.93 150528.93 0 1 1 301057.86 0a 150528.93 150528.93 0 1 1 -301057.86 0"/>
<path id="N" d="M 45068881.36 34587251.36 m -232815.81 0 a 232815.81 232815.81 0 1 1 465631.62 0a 232815.81 232815.81 0 1 1 -465631.62 0M 45068877.96 34587247.84 m -152537.16 0 a 152537.16 152537.16 0 1 1 305074.33 0a 152537.16 152537.16 0 1 1 -305074.33 0"/>
<path id="N" d="M 14611812.00 30602871.00 L 13725984.00 30602871.00 A 446733.54 446733.54 0 1 0 13725984.00 31496341.00 L 14611812.00 31496341.00 A 446720.81 446720.81 0 0 0 14611812.00 30602871.00  zM 14759449.00 31148031.00 L 13578347.00 31148031.00 L 13578347.00 30951181.00 L 14759449.00 30951181.00 L 14759449.00 31148031.00  z"/>
<path id="N" d="M 13434530.00 33342914.00 L 13434530.00 32457086.00 A 446726.20 446726.20 0 0 0 12541060.00 32457086.00 L 12541060.00 33342914.00 A 446726.20 446726.20 0 1 0 13434530.00 33342914.00  zM 13086220.00 33490551.00 L 12889370.00 33490551.00 L 12889370.00 32309449.00 L 13086220.00 32309449.00 L 13086220.00 33490551.00  z"/>
<path id="N" d="M 129693701.00 30206299.00 L 128906299.00 30206299.00 L 128906299.00 30993701.00 L 129693701.00 30993701.00 L 129693701.00 30206299.00  zM 129300000.44 30599998.65 m -180637.35 0 a 180637.35 180637.35 0 1 1 361274.69 0a 180637.35 180637.35 0 1 1 -361274.69 0"/>
<path id="N" d="M 11593701.00 40869292.00 L 10806299.00 40869292.00 L 10806299.00 41499212.00 L 11593701.00 41499212.00 L 11593701.00 40869292.00  zM 11200000.68 41184251.74 m -100353.26 0 a 100353.26 100353.26 0 1 1 200706.53 0a 100353.26 100353.26 0 1 1 -200706.53 0"/>
<path id="N" d="M 11893701.00 37535040.00 L 11106299.00 37535040.00 L 11106299.00 38164960.00 L 11893701.00 38164960.00 L 11893701.00 37535040.00  zM 11500000.68 37849999.74 m -100353.26 0 a 100353.26 100353.26 0 1 1 200706.53 0a 100353.26 100353.26 0 1 1 -200706.53 0"/>
<path id="N" d="M 121296841.15 29341323.00 m -387188.24 0 a 387188.24 387188.24 0 1 1 774376.48 0a 387188.24 387188.24 0 1 1 -774376.48 0M 121296849.02 29341343.48 m -258108.52 0 a 258108.52 258108.52 0 1 1 516217.04 0a 258108.52 258108.52 0 1 1 -516217.04 0"/>
<path id="N" d="M 102849996.32 29999994.16 m -307757.99 0 a 307757.99 307757.99 0 1 1 615515.98 0a 307757.99 307757.99 0 1 1 -615515.98 0M 102849999.24 29999999.93 m -204721.07 0 a 204721.07 204721.07 0 1 1 409442.13 0a 204721.07 204721.07 0 1 1 -409442.13 0"/>
<path id="N" d="M 23450002.99 40850005.10 m -317671.90 0 a 317671.90 317671.90 0 1 1 635343.80 0a 317671.90 317671.90 0 1 1 -635343.80 0M 23450000.68 40849999.74 m -100353.26 0 a 100353.26 100353.26 0 1 1 200706.53 0a 100353.26 100353.26 0 1 1 -200706.53 0"/>
<path id="N" d="M 23745275.00 42854725.00 L 23154725.00 42854725.00 L 23154725.00 43445275.00 L 23745275.00 43445275.00 L 23745275.00 42854725.00  zM 23450002.46 43149992.27 m -120431.73 0 a 120431.73 120431.73 0 1 1 240863.46 0a 120431.73 120431.73 0 1 1 -240863.46 0"/>
<path id="N" d="M 156340946.00 29777598.00 L 156183464.00 29777598.00 A 317686.61 317686.61 0 0 0 156183464.00 30412954.00 L 156340946.00 30412954.00 A 317671.90 317671.90 0 0 0 156340946.00 29777598.00  zM 156262205.68 30095275.74 m -100353.26 0 a 100353.26 100353.26 0 1 1 200706.53 0a 100353.26 100353.26 0 1 1 -200706.53 0"/>
<path id="N" d="M 147050001.97 31150005.69 m -327599.99 0 a 327599.99 327599.99 0 1 1 655199.97 0a 327599.99 327599.99 0 1 1 -655199.97 0M 147050000.68 31149999.74 m -100353.26 0 a 100353.26 100353.26 0 1 1 200706.53 0a 100353.26 100353.26 0 1 1 -200706.53 0"/>
<path id="N" d="M 173843701.00 29985040.00 L 173056299.00 29985040.00 L 173056299.00 30614960.00 L 173843701.00 30614960.00 L 173843701.00 29985040.00  zM 173450000.68 30299999.74 m -100353.26 0 a 100353.26 100353.26 0 1 1 200706.53 0a 100353.26 100353.26 0 1 1 -200706.53 0"/>
<path id="N" d="M 115303504.00 28599213.00 L 115303504.00 28441731.00 A 317686.61 317686.61 0 0 0 114668148.00 28441731.00 L 114668148.00 28599213.00 A 317686.61 317686.61 0 0 0 115303504.00 28599213.00  zM 114985826.68 28520471.74 m -100353.26 0 a 100353.26 100353.26 0 1 1 200706.53 0a 100353.26 100353.26 0 1 1 -200706.53 0"/>
<path id="N" d="M 112253504.00 28599213.00 L 112253504.00 28441731.00 A 317686.61 317686.61 0 0 0 111618148.00 28441731.00 L 111618148.00 28599213.00 A 317686.61 317686.61 0 0 0 112253504.00 28599213.00  zM 111935826.68 28520471.74 m -100353.26 0 a 100353.26 100353.26 0 1 1 200706.53 0a 100353.26 100353.26 0 1 1 -200706.53 0"/>
<path id="N" d="M 112253504.00 31158269.00 L 112253504.00 31000787.00 A 317686.61 317686.61 0 0 0 111618148.00 31000787.00 L 111618148.00 31158269.00 A 317686.61 317686.61 0 0 0 112253504.00 31158269.00  zM 111935826.68 31079527.74 m -100353.26 0 a 100353.26 100353.26 0 1 1 200706.53 0a 100353.26 100353.26 0 1 1 -200706.53 0"/>
<path id="N" d="M 115303504.00 31158269.00 L 115303504.00 31000787.00 A 317686.61 317686.61 0 0 0 114668148.00 31000787.00 L 114668148.00 31158269.00 A 317686.61 317686.61 0 0 0 115303504.00 31158269.00  zM 114985826.68 31079527.74 m -100353.26 0 a 100353.26 100353.26 0 1 1 200706.53 0a 100353.26 100353.26 0 1 1 -200706.53 0"/>
<path id="N" d="M 106900002.99 31150005.10 m -317671.90 0 a 317671.90 317671.90 0 1 1 635343.80 0a 317671.90 317671.90 0 1 1 -635343.80 0M 106900000.68 31149999.74 m -100353.26 0 a 100353.26 100353.26 0 1 1 200706.53 0a 100353.26 100353.26 0 1 1 -200706.53 0"/>
<path id="N" d="M 108600002.99 31150005.10 m -317671.90 0 a 317671.90 317671.90 0 1 1 635343.80 0a 317671.90 317671.90 0 1 1 -635343.80 0M 108600000.68 31149999.74 m -100353.26 0 a 100353.26 100353.26 0 1 1 200706.53 0a 100353.26 100353.26 0 1 1 -200706.53 0"/>
<path id="N" d="M 133105118.00 29694882.00 L 132494882.00 29694882.00 L 132494882.00 30305118.00 L 133105118.00 30305118.00 L 133105118.00 29694882.00  zM 132799999.24 29999999.93 m -204721.07 0 a 204721.07 204721.07 0 1 1 409442.13 0a 204721.07 204721.07 0 1 1 -409442.13 0"/>
<path id="N" d="M 100749997.35 30699993.57 m -297829.90 0 a 297829.90 297829.90 0 1 1 595659.80 0a 297829.90 297829.90 0 1 1 -595659.80 0M 100750002.46 30699992.27 m -120431.73 0 a 120431.73 120431.73 0 1 1 240863.46 0a 120431.73 120431.73 0 1 1 -240863.46 0"/>
<path id="N" d="M 125799996.32 30999994.16 m -307757.99 0 a 307757.99 307757.99 0 1 1 615515.98 0a 307757.99 307757.99 0 1 1 -615515.98 0M 125799999.24 30999999.93 m -204721.07 0 a 204721.07 204721.07 0 1 1 409442.13 0a 204721.07 204721.07 0 1 1 -409442.13 0"/>
<path id="N" d="M 173528741.00 27982322.00 L 173371259.00 27982322.00 A 317686.61 317686.61 0 0 0 173371259.00 28617678.00 L 173528741.00 28617678.00 A 317671.90 317671.90 0 1 0 173528741.00 27982322.00  zM 173450000.68 28299999.74 m -100353.26 0 a 100353.26 100353.26 0 1 1 200706.53 0a 100353.26 100353.26 0 1 1 -200706.53 0"/>
<path id="N" d="M 153978741.00 24187047.00 L 153821259.00 24187047.00 A 317686.61 317686.61 0 1 0 153821259.00 24822403.00 L 153978741.00 24822403.00 A 317671.90 317671.90 0 0 0 153978741.00 24187047.00  zM 153900000.68 24504724.74 m -100353.26 0 a 100353.26 100353.26 0 1 1 200706.53 0a 100353.26 100353.26 0 1 1 -200706.53 0"/>
<path id="N" d="M 165699996.32 30999994.16 m -307757.99 0 a 307757.99 307757.99 0 1 1 615515.98 0a 307757.99 307757.99 0 1 1 -615515.98 0M 165699999.24 30999999.93 m -204721.07 0 a 204721.07 204721.07 0 1 1 409442.13 0a 204721.07 204721.07 0 1 1 -409442.13 0"/>
<path id="N" d="M 38699996.32 34799994.16 m -307757.99 0 a 307757.99 307757.99 0 1 1 615515.98 0a 307757.99 307757.99 0 1 1 -615515.98 0M 38699999.24 34799999.93 m -204721.07 0 a 204721.07 204721.07 0 1 1 409442.13 0a 204721.07 204721.07 0 1 1 -409442.13 0"/>
<path id="N" d="M 45068881.36 36587251.36 m -232815.81 0 a 232815.81 232815.81 0 1 1 465631.62 0a 232815.81 232815.81 0 1 1 -465631.62 0M 45068877.96 36587247.84 m -152537.16 0 a 152537.16 152537.16 0 1 1 305074.33 0a 152537.16 152537.16 0 1 1 -305074.33 0"/>
<path id="N" d="M 81953504.00 31158269.00 L 81953504.00 31000787.00 A 317686.61 317686.61 0 0 0 81318148.00 31000787.00 L 81318148.00 31158269.00 A 317686.61 317686.61 0 0 0 81953504.00 31158269.00  zM 81635826.68 31079527.74 m -100353.26 0 a 100353.26 100353.26 0 1 1 200706.53 0a 100353.26 100353.26 0 1 1 -200706.53 0"/>
<path id="N" d="M 81953504.00 28599213.00 L 81953504.00 28441731.00 A 317686.61 317686.61 0 0 0 81318148.00 28441731.00 L 81318148.00 28599213.00 A 317686.61 317686.61 0 0 0 81953504.00 28599213.00  zM 81635826.68 28520471.74 m -100353.26 0 a 100353.26 100353.26 0 1 1 200706.53 0a 100353.26 100353.26 0 1 1 -200706.53 0"/>
<path id="N" d="M 108600002.99 28150005.10 m -317671.90 0 a 317671.90 317671.90 0 1 1 635343.80 0a 317671.90 317671.90 0 1 1 -635343.80 0M 108600000.68 28149999.74 m -100353.26 0 a 100353.26 100353.26 0 1 1 200706.53 0a 100353.26 100353.26 0 1 1 -200706.53 0"/>
<path id="N" d="M 116705118.00 29694882.00 L 116094882.00 29694882.00 L 116094882.00 30305118.00 L 116705118.00 30305118.00 L 116705118.00 29694882.00  zM 116399999.24 29999999.93 m -204721.07 0 a 204721.07 204721.07 0 1 1 409442.13 0a 204721.07 204721.07 0 1 1 -409442.13 0"/>
<path id="N" d="M 45068881.36 27587251.36 m -232815.81 0 a 232815.81 232815.81 0 1 1 465631.62 0a 232815.81 232815.81 0 1 1 -465631.62 0M 45068877.96 27587247.84 m -152537.16 0 a 152537.16 152537.16 0 1 1 305074.33 0a 152537.16 152537.16 0 1 1 -305074.33 0"/>
<path id="N" d="M 39105118.00 31494882.00 L 38494882.00 31494882.00 L 38494882.00 32105118.00 L 39105118.00 32105118.00 L 39105118.00 31494882.00  zM 38799999.24 31799999.93 m -204721.07 0 a 204721.07 204721.07 0 1 1 409442.13 0a 204721.07 204721.07 0 1 1 -409442.13 0"/>
<path id="N" d="M 119328337.15 29341323.00 m -387188.24 0 a 387188.24 387188.24 0 1 1 774376.48 0a 387188.24 387188.24 0 1 1 -774376.48 0M 119328345.02 29341343.48 m -258108.52 0 a 258108.52 258108.52 0 1 1 516217.04 0a 258108.52 258108.52 0 1 1 -516217.04 0"/>
<path id="N" d="M 103155118.00 28694882.00 L 102544882.00 28694882.00 L 102544882.00 29305118.00 L 103155118.00 29305118.00 L 103155118.00 28694882.00  zM 102849999.24 28999999.93 m -204721.07 0 a 204721.07 204721.07 0 1 1 409442.13 0a 204721.07 204721.07 0 1 1 -409442.13 0"/>
<path id="N" d="M 156340946.00 24974449.00 L 156183464.00 24974449.00 A 317686.61 317686.61 0 0 0 156183464.00 25609805.00 L 156340946.00 25609805.00 A 317671.90 317671.90 0 0 0 156340946.00 24974449.00  zM 156262205.68 25292126.74 m -100353.26 0 a 100353.26 100353.26 0 1 1 200706.53 0a 100353.26 100353.26 0 1 1 -200706.53 0"/>
<path id="N" d="M 150217678.00 30878741.00 L 150217678.00 30721259.00 A 317686.61 317686.61 0 0 0 149582322.00 30721259.00 L 149582322.00 30878741.00 A 317686.61 317686.61 0 0 0 150217678.00 30878741.00  zM 149900000.68 30799999.74 m -100353.26 0 a 100353.26 100353.26 0 1 1 200706.53 0a 100353.26 100353.26 0 1 1 -200706.53 0"/>
<path id="N" d="M 144550002.99 31000005.10 m -317671.90 0 a 317671.90 317671.90 0 1 1 635343.80 0a 317671.90 317671.90 0 1 1 -635343.80 0M 144550000.68 30999999.74 m -100353.26 0 a 100353.26 100353.26 0 1 1 200706.53 0a 100353.26 100353.26 0 1 1 -200706.53 0"/>
<path id="N" d="M 135400004.08 30600004.08 m -220772.76 0 a 220772.76 220772.76 0 1 1 441545.52 0a 220772.76 220772.76 0 1 1 -441545.52 0M 135399999.59 30600002.48 m -160563.52 0 a 160563.52 160563.52 0 1 1 321127.04 0a 160563.52 160563.52 0 1 1 -321127.04 0"/>
<path id="N" d="M 137414960.00 30406299.00 L 136785040.00 30406299.00 L 136785040.00 31193701.00 L 137414960.00 31193701.00 L 137414960.00 30406299.00  zM 137100000.68 30799999.74 m -100353.26 0 a 100353.26 100353.26 0 1 1 200706.53 0a 100353.26 100353.26 0 1 1 -200706.53 0"/>
<path id="N" d="M 56099996.32 40799994.16 m -307757.99 0 a 307757.99 307757.99 0 1 1 615515.98 0a 307757.99 307757.99 0 1 1 -615515.98 0M 56099999.24 40799999.93 m -204721.07 0 a 204721.07 204721.07 0 1 1 409442.13 0a 204721.07 204721.07 0 1 1 -409442.13 0"/>
<path id="N" d="M 51169669.36 40587251.36 m -232815.81 0 a 232815.81 232815.81 0 1 1 465631.62 0a 232815.81 232815.81 0 1 1 -465631.62 0M 51169665.96 40587247.84 m -152537.16 0 a 152537.16 152537.16 0 1 1 305074.33 0a 152537.16 152537.16 0 1 1 -305074.33 0"/>
<path id="N" d="M 56099996.32 44799994.16 m -307757.99 0 a 307757.99 307757.99 0 1 1 615515.98 0a 307757.99 307757.99 0 1 1 -615515.98 0M 56099999.24 44799999.93 m -204721.07 0 a 204721.07 204721.07 0 1 1 409442.13 0a 204721.07 204721.07 0 1 1 -409442.13 0"/>
<path id="N" d="M 51169669.36 44587251.36 m -232815.81 0 a 232815.81 232815.81 0 1 1 465631.62 0a 232815.81 232815.81 0 1 1 -465631.62 0M 51169665.96 44587247.84 m -152537.16 0 a 152537.16 152537.16 0 1 1 305074.33 0a 152537.16 152537.16 0 1 1 -305074.33 0"/>
<path id="N" d="M 56099996.32 41799994.16 m -307757.99 0 a 307757.99 307757.99 0 1 1 615515.98 0a 307757.99 307757.99 0 1 1 -615515.98 0M 56099999.24 41799999.93 m -204721.07 0 a 204721.07 204721.07 0 1 1 409442.13 0a 204721.07 204721.07 0 1 1 -409442.13 0"/>
<path id="N" d="M 51169669.36 41587251.36 m -232815.81 0 a 232815.81 232815.81 0 1 1 465631.62 0a 232815.81 232815.81 0 1 1 -465631.62 0M 51169665.96 41587247.84 m -152537.16 0 a 152537.16 152537.16 0 1 1 305074.33 0a 152537.16 152537.16 0 1 1 -305074.33 0"/>
<path id="N" d="M 38699996.32 40049994.16 m -307757.99 0 a 307757.99 307757.99 0 1 1 615515.98 0a 307757.99 307757.99 0 1 1 -615515.98 0M 38699999.24 40049999.93 m -204721.07 0 a 204721.07 204721.07 0 1 1 409442.13 0a 204721.07 204721.07 0 1 1 -409442.13 0"/>
<path id="N" d="M 45068881.36 41587251.36 m -232815.81 0 a 232815.81 232815.81 0 1 1 465631.62 0a 232815.81 232815.81 0 1 1 -465631.62 0M 45068877.96 41587247.84 m -152537.16 0 a 152537.16 152537.16 0 1 1 305074.33 0a 152537.16 152537.16 0 1 1 -305074.33 0"/>
<path id="N" d="M 41149991.06 35024991.06 m -240860.29 0 a 240860.29 240860.29 0 1 1 481720.58 0a 240860.29 240860.29 0 1 1 -481720.58 0M 41149999.13 35025001.07 m -150528.93 0 a 150528.93 150528.93 0 1 1 301057.86 0a 150528.93 150528.93 0 1 1 -301057.86 0"/>
<path id="N" d="M 45068881.36 33587251.36 m -232815.81 0 a 232815.81 232815.81 0 1 1 465631.62 0a 232815.81 232815.81 0 1 1 -465631.62 0M 45068877.96 33587247.84 m -152537.16 0 a 152537.16 152537.16 0 1 1 305074.33 0a 152537.16 152537.16 0 1 1 -305074.33 0"/>
<path id="N" d="M 43486221.00 33774409.00 L 43013781.00 33774409.00 L 43013781.00 34246849.00 L 43486221.00 34246849.00 L 43486221.00 33774409.00  zM 43250003.38 34010623.09 m -140500.91 0 a 140500.91 140500.91 0 1 1 281001.82 0a 140500.91 140500.91 0 1 1 -281001.82 0"/>
<path id="N" d="M 151616536.00 29777598.00 L 151459054.00 29777598.00 A 317686.61 317686.61 0 0 0 151459054.00 30412954.00 L 151616536.00 30412954.00 A 317671.90 317671.90 0 0 0 151616536.00 29777598.00  zM 151537795.68 30095275.74 m -100353.26 0 a 100353.26 100353.26 0 1 1 200706.53 0a 100353.26 100353.26 0 1 1 -200706.53 0"/>
<path id="N" d="M 32862954.00 43290946.00 L 32862954.00 43133464.00 A 317686.61 317686.61 0 1 0 32227598.00 43133464.00 L 32227598.00 43290946.00 A 317686.61 317686.61 0 0 0 32862954.00 43290946.00  zM 32545276.68 43212204.74 m -100353.26 0 a 100353.26 100353.26 0 1 1 200706.53 0a 100353.26 100353.26 0 1 1 -200706.53 0"/>
<path id="N" d="M 56499996.32 29349994.16 m -307757.99 0 a 307757.99 307757.99 0 1 1 615515.98 0a 307757.99 307757.99 0 1 1 -615515.98 0M 56499999.24 29349999.93 m -204721.07 0 a 204721.07 204721.07 0 1 1 409442.13 0a 204721.07 204721.07 0 1 1 -409442.13 0"/>
<path id="N" d="M 45068881.36 29587251.36 m -232815.81 0 a 232815.81 232815.81 0 1 1 465631.62 0a 232815.81 232815.81 0 1 1 -465631.62 0M 45068877.96 29587247.84 m -152537.16 0 a 152537.16 152537.16 0 1 1 305074.33 0a 152537.16 152537.16 0 1 1 -305074.33 0"/>
<path id="N" d="M 27272403.00 40928741.00 L 27272403.00 40771259.00 A 317686.61 317686.61 0 0 0 26637047.00 40771259.00 L 26637047.00 40928741.00 A 317686.61 317686.61 0 0 0 27272403.00 40928741.00  zM 26954725.68 40849999.74 m -100353.26 0 a 100353.26 100353.26 0 1 1 200706.53 0a 100353.26 100353.26 0 1 1 -200706.53 0"/>
<path id="N" d="M 11578741.00 35532322.00 L 11421259.00 35532322.00 A 317686.61 317686.61 0 0 0 11421259.00 36167678.00 L 11578741.00 36167678.00 A 317671.90 317671.90 0 0 0 11578741.00 35532322.00  zM 11500000.68 35849999.74 m -100353.26 0 a 100353.26 100353.26 0 1 1 200706.53 0a 100353.26 100353.26 0 1 1 -200706.53 0"/>
<path id="N" d="M 11278741.00 39882322.00 L 11121259.00 39882322.00 A 317686.61 317686.61 0 0 0 11121259.00 40517678.00 L 11278741.00 40517678.00 A 317671.90 317671.90 0 0 0 11278741.00 39882322.00  zM 11200000.68 40199999.74 m -100353.26 0 a 100353.26 100353.26 0 1 1 200706.53 0a 100353.26 100353.26 0 1 1 -200706.53 0"/>
<path id="N" d="M 13058269.00 42546494.00 L 12900787.00 42546494.00 A 317686.61 317686.61 0 1 0 12900787.00 43181850.00 L 13058269.00 43181850.00 A 317671.90 317671.90 0 1 0 13058269.00 42546494.00  zM 12979528.68 42864171.74 m -100353.26 0 a 100353.26 100353.26 0 1 1 200706.53 0a 100353.26 100353.26 0 1 1 -200706.53 0"/>
<path id="N" d="M 10499213.00 42546494.00 L 10341731.00 42546494.00 A 317686.61 317686.61 0 0 0 10341731.00 43181850.00 L 10499213.00 43181850.00 A 317671.90 317671.90 0 1 0 10499213.00 42546494.00  zM 10420472.68 42864171.74 m -100353.26 0 a 100353.26 100353.26 0 1 1 200706.53 0a 100353.26 100353.26 0 1 1 -200706.53 0"/>
<path id="N" d="M 15846373.00 33392126.00 L 15846373.00 32407874.00 A 496358.81 496358.81 0 0 0 14853627.00 32407874.00 L 14853627.00 33392126.00 A 496358.81 496358.81 0 0 0 15846373.00 33392126.00  zM 15448425.00 33588976.00 L 15251575.00 33588976.00 L 15251575.00 32211024.00 L 15448425.00 32211024.00 L 15448425.00 33588976.00  z"/>
<path id="N" d="M 56499996.32 33349994.16 m -307757.99 0 a 307757.99 307757.99 0 1 1 615515.98 0a 307757.99 307757.99 0 1 1 -615515.98 0M 56499999.24 33349999.93 m -204721.07 0 a 204721.07 204721.07 0 1 1 409442.13 0a 204721.07 204721.07 0 1 1 -409442.13 0"/>
<path id="N" d="M 51169669.36 30587251.36 m -232815.81 0 a 232815.81 232815.81 0 1 1 465631.62 0a 232815.81 232815.81 0 1 1 -465631.62 0M 51169665.96 30587247.84 m -152537.16 0 a 152537.16 152537.16 0 1 1 305074.33 0a 152537.16 152537.16 0 1 1 -305074.33 0"/>
<path id="N" d="M 56499996.32 30349994.16 m -307757.99 0 a 307757.99 307757.99 0 1 1 615515.98 0a 307757.99 307757.99 0 1 1 -615515.98 0M 56499999.24 30349999.93 m -204721.07 0 a 204721.07 204721.07 0 1 1 409442.13 0a 204721.07 204721.07 0 1 1 -409442.13 0"/>
<path id="N" d="M 45068881.36 28587251.36 m -232815.81 0 a 232815.81 232815.81 0 1 1 465631.62 0a 232815.81 232815.81 0 1 1 -465631.62 0M 45068877.96 28587247.84 m -152537.16 0 a 152537.16 152537.16 0 1 1 305074.33 0a 152537.16 152537.16 0 1 1 -305074.33 0"/>
<path id="N" d="M 166005118.00 29694882.00 L 165394882.00 29694882.00 L 165394882.00 30305118.00 L 166005118.00 30305118.00 L 166005118.00 29694882.00  zM 165699999.24 29999999.93 m -204721.07 0 a 204721.07 204721.07 0 1 1 409442.13 0a 204721.07 204721.07 0 1 1 -409442.13 0"/>
<path id="N" d="M 147374803.00 26825197.00 L 146725197.00 26825197.00 L 146725197.00 27474803.00 L 147374803.00 27474803.00 L 147374803.00 26825197.00  zM 147050000.68 27149999.74 m -100353.26 0 a 100353.26 100353.26 0 1 1 200706.53 0a 100353.26 100353.26 0 1 1 -200706.53 0"/>
<path id="N" d="M 38799996.32 29799994.16 m -307757.99 0 a 307757.99 307757.99 0 1 1 615515.98 0a 307757.99 307757.99 0 1 1 -615515.98 0M 38799999.24 29799999.93 m -204721.07 0 a 204721.07 204721.07 0 1 1 409442.13 0a 204721.07 204721.07 0 1 1 -409442.13 0"/>
<path id="N" d="M 51169669.36 26587251.36 m -232815.81 0 a 232815.81 232815.81 0 1 1 465631.62 0a 232815.81 232815.81 0 1 1 -465631.62 0M 51169665.96 26587247.84 m -152537.16 0 a 152537.16 152537.16 0 1 1 305074.33 0a 152537.16 152537.16 0 1 1 -305074.33 0"/>
<path id="N" d="M 45068881.36 38587251.36 m -232815.81 0 a 232815.81 232815.81 0 1 1 465631.62 0a 232815.81 232815.81 0 1 1 -465631.62 0M 45068877.96 38587247.84 m -152537.16 0 a 152537.16 152537.16 0 1 1 305074.33 0a 152537.16 152537.16 0 1 1 -305074.33 0"/>
<path id="N" d="M 39005118.00 36494882.00 L 38394882.00 36494882.00 L 38394882.00 37105118.00 L 39005118.00 37105118.00 L 39005118.00 36494882.00  zM 38699999.24 36799999.93 m -204721.07 0 a 204721.07 204721.07 0 1 1 409442.13 0a 204721.07 204721.07 0 1 1 -409442.13 0"/>
<path id="N" d="M 91615345.15 29341323.00 m -387188.24 0 a 387188.24 387188.24 0 1 1 774376.48 0a 387188.24 387188.24 0 1 1 -774376.48 0M 91615353.02 29341343.48 m -258108.52 0 a 258108.52 258108.52 0 1 1 516217.04 0a 258108.52 258108.52 0 1 1 -516217.04 0"/>
<path id="N" d="M 71099996.32 30999994.16 m -307757.99 0 a 307757.99 307757.99 0 1 1 615515.98 0a 307757.99 307757.99 0 1 1 -615515.98 0M 71099999.24 30999999.93 m -204721.07 0 a 204721.07 204721.07 0 1 1 409442.13 0a 204721.07 204721.07 0 1 1 -409442.13 0"/>
<path id="N" d="M 38799996.32 26799994.16 m -307757.99 0 a 307757.99 307757.99 0 1 1 615515.98 0a 307757.99 307757.99 0 1 1 -615515.98 0M 38799999.24 26799999.93 m -204721.07 0 a 204721.07 204721.07 0 1 1 409442.13 0a 204721.07 204721.07 0 1 1 -409442.13 0"/>
<path id="N" d="M 51169669.36 33587251.36 m -232815.81 0 a 232815.81 232815.81 0 1 1 465631.62 0a 232815.81 232815.81 0 1 1 -465631.62 0M 51169665.96 33587247.84 m -152537.16 0 a 152537.16 152537.16 0 1 1 305074.33 0a 152537.16 152537.16 0 1 1 -305074.33 0"/>
<path id="N" d="M 45068881.36 32587251.36 m -232815.81 0 a 232815.81 232815.81 0 1 1 465631.62 0a 232815.81 232815.81 0 1 1 -465631.62 0M 45068877.96 32587247.84 m -152537.16 0 a 152537.16 152537.16 0 1 1 305074.33 0a 152537.16 152537.16 0 1 1 -305074.33 0"/>
<path id="N" d="M 41149991.06 31024991.06 m -240860.29 0 a 240860.29 240860.29 0 1 1 481720.58 0a 240860.29 240860.29 0 1 1 -481720.58 0M 41149999.13 31025001.07 m -150528.93 0 a 150528.93 150528.93 0 1 1 301057.86 0a 150528.93 150528.93 0 1 1 -301057.86 0"/>
<path id="N" d="M 43249992.06 32089360.06 m -240860.29 0 a 240860.29 240860.29 0 1 1 481720.58 0a 240860.29 240860.29 0 1 1 -481720.58 0M 43250003.38 32089363.09 m -140500.91 0 a 140500.91 140500.91 0 1 1 281001.82 0a 140500.91 140500.91 0 1 1 -281001.82 0"/>
<path id="N" d="M 78903504.00 31158269.00 L 78903504.00 31000787.00 A 317686.61 317686.61 0 0 0 78268148.00 31000787.00 L 78268148.00 31158269.00 A 317686.61 317686.61 0 1 0 78903504.00 31158269.00  zM 78585826.68 31079527.74 m -100353.26 0 a 100353.26 100353.26 0 1 1 200706.53 0a 100353.26 100353.26 0 1 1 -200706.53 0"/>
<path id="N" d="M 78903504.00 28599213.00 L 78903504.00 28441731.00 A 317686.61 317686.61 0 0 0 78268148.00 28441731.00 L 78268148.00 28599213.00 A 317686.61 317686.61 0 1 0 78903504.00 28599213.00  zM 78585826.68 28520471.74 m -100353.26 0 a 100353.26 100353.26 0 1 1 200706.53 0a 100353.26 100353.26 0 1 1 -200706.53 0"/>
<path id="N" d="M 116399996.32 30999994.16 m -307757.99 0 a 307757.99 307757.99 0 1 1 615515.98 0a 307757.99 307757.99 0 1 1 -615515.98 0M 116399999.24 30999999.93 m -204721.07 0 a 204721.07 204721.07 0 1 1 409442.13 0a 204721.07 204721.07 0 1 1 -409442.13 0"/>
<path id="N" d="M 106900002.99 28150005.10 m -317671.90 0 a 317671.90 317671.90 0 1 1 635343.80 0a 317671.90 317671.90 0 1 1 -635343.80 0M 106900000.68 28149999.74 m -100353.26 0 a 100353.26 100353.26 0 1 1 200706.53 0a 100353.26 100353.26 0 1 1 -200706.53 0"/>
<path id="N" d="M 56499996.32 32349994.16 m -307757.99 0 a 307757.99 307757.99 0 1 1 615515.98 0a 307757.99 307757.99 0 1 1 -615515.98 0M 56499999.24 32349999.93 m -204721.07 0 a 204721.07 204721.07 0 1 1 409442.13 0a 204721.07 204721.07 0 1 1 -409442.13 0"/>
<path id="N" d="M 51169669.36 29587251.36 m -232815.81 0 a 232815.81 232815.81 0 1 1 465631.62 0a 232815.81 232815.81 0 1 1 -465631.62 0M 51169665.96 29587247.84 m -152537.16 0 a 152537.16 152537.16 0 1 1 305074.33 0a 152537.16 152537.16 0 1 1 -305074.33 0"/>
<path id="N" d="M 56499996.32 31349994.16 m -307757.99 0 a 307757.99 307757.99 0 1 1 615515.98 0a 307757.99 307757.99 0 1 1 -615515.98 0M 56499999.24 31349999.93 m -204721.07 0 a 204721.07 204721.07 0 1 1 409442.13 0a 204721.07 204721.07 0 1 1 -409442.13 0"/>
<path id="N" d="M 51169669.36 28587251.36 m -232815.81 0 a 232815.81 232815.81 0 1 1 465631.62 0a 232815.81 232815.81 0 1 1 -465631.62 0M 51169665.96 28587247.84 m -152537.16 0 a 152537.16 152537.16 0 1 1 305074.33 0a 152537.16 152537.16 0 1 1 -305074.33 0"/>
<path id="N" d="M 89646841.15 29341323.00 m -387188.24 0 a 387188.24 387188.24 0 1 1 774376.48 0a 387188.24 387188.24 0 1 1 -774376.48 0M 89646849.02 29341343.48 m -258108.52 0 a 258108.52 258108.52 0 1 1 516217.04 0a 258108.52 258108.52 0 1 1 -516217.04 0"/>
<path id="N" d="M 71099996.32 29999994.16 m -307757.99 0 a 307757.99 307757.99 0 1 1 615515.98 0a 307757.99 307757.99 0 1 1 -615515.98 0M 71099999.24 29999999.93 m -204721.07 0 a 204721.07 204721.07 0 1 1 409442.13 0a 204721.07 204721.07 0 1 1 -409442.13 0"/>
<path id="N" d="M 138417678.00 30878741.00 L 138417678.00 30721259.00 A 317686.61 317686.61 0 1 0 137782322.00 30721259.00 L 137782322.00 30878741.00 A 317686.61 317686.61 0 1 0 138417678.00 30878741.00  zM 138100000.68 30799999.74 m -100353.26 0 a 100353.26 100353.26 0 1 1 200706.53 0a 100353.26 100353.26 0 1 1 -200706.53 0"/>
<path id="N" d="M 161149996.32 30999994.16 m -307757.99 0 a 307757.99 307757.99 0 1 1 615515.98 0a 307757.99 307757.99 0 1 1 -615515.98 0M 161149999.24 30999999.93 m -204721.07 0 a 204721.07 204721.07 0 1 1 409442.13 0a 204721.07 204721.07 0 1 1 -409442.13 0"/>
<path id="N" d="M 134616536.00 30383466.00 L 134183466.00 30383466.00 L 134183466.00 30816536.00 L 134616536.00 30816536.00 L 134616536.00 30383466.00  zM 134399999.59 30600002.48 m -160563.52 0 a 160563.52 160563.52 0 1 1 321127.04 0a 160563.52 160563.52 0 1 1 -321127.04 0"/>
<path id="N" d="M 56499996.32 34349994.16 m -307757.99 0 a 307757.99 307757.99 0 1 1 615515.98 0a 307757.99 307757.99 0 1 1 -615515.98 0M 56499999.24 34349999.93 m -204721.07 0 a 204721.07 204721.07 0 1 1 409442.13 0a 204721.07 204721.07 0 1 1 -409442.13 0"/>
<path id="N" d="M 51169669.36 31587251.36 m -232815.81 0 a 232815.81 232815.81 0 1 1 465631.62 0a 232815.81 232815.81 0 1 1 -465631.62 0M 51169665.96 31587247.84 m -152537.16 0 a 152537.16 152537.16 0 1 1 305074.33 0a 152537.16 152537.16 0 1 1 -305074.33 0"/>
<path id="N" d="M 123265345.15 29341323.00 m -387188.24 0 a 387188.24 387188.24 0 1 1 774376.48 0a 387188.24 387188.24 0 1 1 -774376.48 0M 123265353.02 29341343.48 m -258108.52 0 a 258108.52 258108.52 0 1 1 516217.04 0a 258108.52 258108.52 0 1 1 -516217.04 0"/>
<path id="N" d="M 102849996.32 30999994.16 m -307757.99 0 a 307757.99 307757.99 0 1 1 615515.98 0a 307757.99 307757.99 0 1 1 -615515.98 0M 102849999.24 30999999.93 m -204721.07 0 a 204721.07 204721.07 0 1 1 409442.13 0a 204721.07 204721.07 0 1 1 -409442.13 0"/>
<path id="N" d="M 38799996.32 25799994.16 m -307757.99 0 a 307757.99 307757.99 0 1 1 615515.98 0a 307757.99 307757.99 0 1 1 -615515.98 0M 38799999.24 25799999.93 m -204721.07 0 a 204721.07 204721.07 0 1 1 409442.13 0a 204721.07 204721.07 0 1 1 -409442.13 0"/>
<path id="N" d="M 51169669.36 34587251.36 m -232815.81 0 a 232815.81 232815.81 0 1 1 465631.62 0a 232815.81 232815.81 0 1 1 -465631.62 0M 51169665.96 34587247.84 m -152537.16 0 a 152537.16 152537.16 0 1 1 305074.33 0a 152537.16 152537.16 0 1 1 -305074.33 0"/>
<path id="N" d="M 38699996.32 41049994.16 m -307757.99 0 a 307757.99 307757.99 0 1 1 615515.98 0a 307757.99 307757.99 0 1 1 -615515.98 0M 38699999.24 41049999.93 m -204721.07 0 a 204721.07 204721.07 0 1 1 409442.13 0a 204721.07 204721.07 0 1 1 -409442.13 0"/>
<path id="N" d="M 45068881.36 42587251.36 m -232815.81 0 a 232815.81 232815.81 0 1 1 465631.62 0a 232815.81 232815.81 0 1 1 -465631.62 0M 45068877.96 42587247.84 m -152537.16 0 a 152537.16 152537.16 0 1 1 305074.33 0a 152537.16 152537.16 0 1 1 -305074.33 0"/>
<path id="N" d="M 38799996.32 30799994.16 m -307757.99 0 a 307757.99 307757.99 0 1 1 615515.98 0a 307757.99 307757.99 0 1 1 -615515.98 0M 38799999.24 30799999.93 m -204721.07 0 a 204721.07 204721.07 0 1 1 409442.13 0a 204721.07 204721.07 0 1 1 -409442.13 0"/>
<path id="N" d="M 45068881.36 26587251.36 m -232815.81 0 a 232815.81 232815.81 0 1 1 465631.62 0a 232815.81 232815.81 0 1 1 -465631.62 0M 45068877.96 26587247.84 m -152537.16 0 a 152537.16 152537.16 0 1 1 305074.33 0a 152537.16 152537.16 0 1 1 -305074.33 0"/>
<path id="N" d="M 45068881.36 44587251.36 m -232815.81 0 a 232815.81 232815.81 0 1 1 465631.62 0a 232815.81 232815.81 0 1 1 -465631.62 0M 45068877.96 44587247.84 m -152537.16 0 a 152537.16 152537.16 0 1 1 305074.33 0a 152537.16 152537.16 0 1 1 -305074.33 0"/>
<path id="N" d="M 39005118.00 42744882.00 L 38394882.00 42744882.00 L 38394882.00 43355118.00 L 39005118.00 43355118.00 L 39005118.00 42744882.00  zM 38699999.24 43049999.93 m -204721.07 0 a 204721.07 204721.07 0 1 1 409442.13 0a 204721.07 204721.07 0 1 1 -409442.13 0"/>
<path id="N" d="M 94949997.35 30699993.57 m -297829.90 0 a 297829.90 297829.90 0 1 1 595659.80 0a 297829.90 297829.90 0 1 1 -595659.80 0M 94950002.46 30699992.27 m -120431.73 0 a 120431.73 120431.73 0 1 1 240863.46 0a 120431.73 120431.73 0 1 1 -240863.46 0"/>
<path id="N" d="M 126105118.00 28694882.00 L 125494882.00 28694882.00 L 125494882.00 29305118.00 L 126105118.00 29305118.00 L 126105118.00 28694882.00  zM 125799999.24 28999999.93 m -204721.07 0 a 204721.07 204721.07 0 1 1 409442.13 0a 204721.07 204721.07 0 1 1 -409442.13 0"/>
<path id="N" d="M 113531850.00 31158269.00 L 113531850.00 31000787.00 A 317686.61 317686.61 0 1 0 112896494.00 31000787.00 L 112896494.00 31158269.00 A 317686.61 317686.61 0 1 0 113531850.00 31158269.00  zM 113214172.68 31079527.74 m -100353.26 0 a 100353.26 100353.26 0 1 1 200706.53 0a 100353.26 100353.26 0 1 1 -200706.53 0"/>
<path id="N" d="M 113531850.00 28599213.00 L 113531850.00 28441731.00 A 317686.61 317686.61 0 1 0 112896494.00 28441731.00 L 112896494.00 28599213.00 A 317686.61 317686.61 0 1 0 113531850.00 28599213.00  zM 113214172.68 28520471.74 m -100353.26 0 a 100353.26 100353.26 0 1 1 200706.53 0a 100353.26 100353.26 0 1 1 -200706.53 0"/>
<path id="N" d="M 84750002.99 31150005.10 m -317671.90 0 a 317671.90 317671.90 0 1 1 635343.80 0a 317671.90 317671.90 0 1 1 -635343.80 0M 84750000.68 31149999.74 m -100353.26 0 a 100353.26 100353.26 0 1 1 200706.53 0a 100353.26 100353.26 0 1 1 -200706.53 0"/>
<path id="N" d="M 75555118.00 29694882.00 L 74944882.00 29694882.00 L 74944882.00 30305118.00 L 75555118.00 30305118.00 L 75555118.00 29694882.00  zM 75249999.24 29999999.93 m -204721.07 0 a 204721.07 204721.07 0 1 1 409442.13 0a 204721.07 204721.07 0 1 1 -409442.13 0"/>
<path id="N" d="M 38699996.32 38049994.16 m -307757.99 0 a 307757.99 307757.99 0 1 1 615515.98 0a 307757.99 307757.99 0 1 1 -615515.98 0M 38699999.24 38049999.93 m -204721.07 0 a 204721.07 204721.07 0 1 1 409442.13 0a 204721.07 204721.07 0 1 1 -409442.13 0"/>
<path id="N" d="M 45068881.36 39587251.36 m -232815.81 0 a 232815.81 232815.81 0 1 1 465631.62 0a 232815.81 232815.81 0 1 1 -465631.62 0M 45068877.96 39587247.84 m -152537.16 0 a 152537.16 152537.16 0 1 1 305074.33 0a 152537.16 152537.16 0 1 1 -305074.33 0"/>
<path id="N" d="M 145550002.99 31000005.10 m -317671.90 0 a 317671.90 317671.90 0 1 1 635343.80 0a 317671.90 317671.90 0 1 1 -635343.80 0M 145550000.68 30999999.74 m -100353.26 0 a 100353.26 100353.26 0 1 1 200706.53 0a 100353.26 100353.26 0 1 1 -200706.53 0"/>
<path id="N" d="M 163195275.00 29994725.00 L 162604725.00 29994725.00 L 162604725.00 30585275.00 L 163195275.00 30585275.00 L 163195275.00 29994725.00  zM 162900002.46 30289992.27 m -120431.73 0 a 120431.73 120431.73 0 1 1 240863.46 0a 120431.73 120431.73 0 1 1 -240863.46 0"/>
<path id="N" d="M 56099996.32 39799994.16 m -307757.99 0 a 307757.99 307757.99 0 1 1 615515.98 0a 307757.99 307757.99 0 1 1 -615515.98 0M 56099999.24 39799999.93 m -204721.07 0 a 204721.07 204721.07 0 1 1 409442.13 0a 204721.07 204721.07 0 1 1 -409442.13 0"/>
<path id="N" d="M 51169669.36 39587251.36 m -232815.81 0 a 232815.81 232815.81 0 1 1 465631.62 0a 232815.81 232815.81 0 1 1 -465631.62 0M 51169665.96 39587247.84 m -152537.16 0 a 152537.16 152537.16 0 1 1 305074.33 0a 152537.16 152537.16 0 1 1 -305074.33 0"/>
<path id="N" d="M 38799996.32 28799994.16 m -307757.99 0 a 307757.99 307757.99 0 1 1 615515.98 0a 307757.99 307757.99 0 1 1 -615515.98 0M 38799999.24 28799999.93 m -204721.07 0 a 204721.07 204721.07 0 1 1 409442.13 0a 204721.07 204721.07 0 1 1 -409442.13 0"/>
<path id="N" d="M 51169669.36 27587251.36 m -232815.81 0 a 232815.81 232815.81 0 1 1 465631.62 0a 232815.81 232815.81 0 1 1 -465631.62 0M 51169665.96 27587247.84 m -152537.16 0 a 152537.16 152537.16 0 1 1 305074.33 0a 152537.16 152537.16 0 1 1 -305074.33 0"/>
<path id="N" d="M 38699996.32 39049994.16 m -307757.99 0 a 307757.99 307757.99 0 1 1 615515.98 0a 307757.99 307757.99 0 1 1 -615515.98 0M 38699999.24 39049999.93 m -204721.07 0 a 204721.07 204721.07 0 1 1 409442.13 0a 204721.07 204721.07 0 1 1 -409442.13 0"/>
<path id="N" d="M 45068881.36 40587251.36 m -232815.81 0 a 232815.81 232815.81 0 1 1 465631.62 0a 232815.81 232815.81 0 1 1 -465631.62 0M 45068877.96 40587247.84 m -152537.16 0 a 152537.16 152537.16 0 1 1 305074.33 0a 152537.16 152537.16 0 1 1 -305074.33 0"/>
<path id="N" d="M 97849997.35 30699993.57 m -297829.90 0 a 297829.90 297829.90 0 1 1 595659.80 0a 297829.90 297829.90 0 1 1 -595659.80 0M 97850002.46 30699992.27 m -120431.73 0 a 120431.73 120431.73 0 1 1 240863.46 0a 120431.73 120431.73 0 1 1 -240863.46 0"/>
<path id="N" d="M 125799996.32 29999994.16 m -307757.99 0 a 307757.99 307757.99 0 1 1 615515.98 0a 307757.99 307757.99 0 1 1 -615515.98 0M 125799999.24 29999999.93 m -204721.07 0 a 204721.07 204721.07 0 1 1 409442.13 0a 204721.07 204721.07 0 1 1 -409442.13 0"/>
<path id="N" d="M 56099996.32 43799994.16 m -307757.99 0 a 307757.99 307757.99 0 1 1 615515.98 0a 307757.99 307757.99 0 1 1 -615515.98 0M 56099999.24 43799999.93 m -204721.07 0 a 204721.07 204721.07 0 1 1 409442.13 0a 204721.07 204721.07 0 1 1 -409442.13 0"/>
<path id="N" d="M 51169669.36 43587251.36 m -232815.81 0 a 232815.81 232815.81 0 1 1 465631.62 0a 232815.81 232815.81 0 1 1 -465631.62 0M 51169665.96 43587247.84 m -152537.16 0 a 152537.16 152537.16 0 1 1 305074.33 0a 152537.16 152537.16 0 1 1 -305074.33 0"/>
<path id="N" d="M 38699996.32 35799994.16 m -307757.99 0 a 307757.99 307757.99 0 1 1 615515.98 0a 307757.99 307757.99 0 1 1 -615515.98 0M 38699999.24 35799999.93 m -204721.07 0 a 204721.07 204721.07 0 1 1 409442.13 0a 204721.07 204721.07 0 1 1 -409442.13 0"/>
<path id="N" d="M 45068881.36 37587251.36 m -232815.81 0 a 232815.81 232815.81 0 1 1 465631.62 0a 232815.81 232815.81 0 1 1 -465631.62 0M 45068877.96 37587247.84 m -152537.16 0 a 152537.16 152537.16 0 1 1 305074.33 0a 152537.16 152537.16 0 1 1 -305074.33 0"/>
<path id="N" d="M 151616536.00 24974449.00 L 151459054.00 24974449.00 A 317686.61 317686.61 0 0 0 151459054.00 25609805.00 L 151616536.00 25609805.00 A 317671.90 317671.90 0 0 0 151616536.00 24974449.00  zM 151537795.68 25292126.74 m -100353.26 0 a 100353.26 100353.26 0 1 1 200706.53 0a 100353.26 100353.26 0 1 1 -200706.53 0"/>
<path id="N" d="M 163899997.35 30299993.57 m -297829.90 0 a 297829.90 297829.90 0 1 1 595659.80 0a 297829.90 297829.90 0 1 1 -595659.80 0M 163900002.46 30299992.27 m -120431.73 0 a 120431.73 120431.73 0 1 1 240863.46 0a 120431.73 120431.73 0 1 1 -240863.46 0"/>
<path id="N" d="M 149214960.00 30406299.00 L 148585040.00 30406299.00 L 148585040.00 31193701.00 L 149214960.00 31193701.00 L 149214960.00 30406299.00  zM 148900000.68 30799999.74 m -100353.26 0 a 100353.26 100353.26 0 1 1 200706.53 0a 100353.26 100353.26 0 1 1 -200706.53 0"/>
<path id="N" d="M 161455118.00 28694882.00 L 160844882.00 28694882.00 L 160844882.00 29305118.00 L 161455118.00 29305118.00 L 161455118.00 28694882.00  zM 161149999.24 28999999.93 m -204721.07 0 a 204721.07 204721.07 0 1 1 409442.13 0a 204721.07 204721.07 0 1 1 -409442.13 0"/>
<path id="N" d="M 129299998.82 27599995.93 m -397102.15 0 a 397102.15 397102.15 0 1 1 794204.30 0a 397102.15 397102.15 0 1 1 -794204.30 0M 129300000.44 27599998.65 m -180637.35 0 a 180637.35 180637.35 0 1 1 361274.69 0a 180637.35 180637.35 0 1 1 -361274.69 0"/>
<path id="N" d="M 105205118.00 30494882.00 L 104594882.00 30494882.00 L 104594882.00 31105118.00 L 105205118.00 31105118.00 L 105205118.00 30494882.00  zM 104899999.24 30799999.93 m -204721.07 0 a 204721.07 204721.07 0 1 1 409442.13 0a 204721.07 204721.07 0 1 1 -409442.13 0"/>
<path id="N" d="M 56099996.32 45799994.16 m -307757.99 0 a 307757.99 307757.99 0 1 1 615515.98 0a 307757.99 307757.99 0 1 1 -615515.98 0M 56099999.24 45799999.93 m -204721.07 0 a 204721.07 204721.07 0 1 1 409442.13 0a 204721.07 204721.07 0 1 1 -409442.13 0"/>
<path id="N" d="M 51169669.36 45587251.36 m -232815.81 0 a 232815.81 232815.81 0 1 1 465631.62 0a 232815.81 232815.81 0 1 1 -465631.62 0M 51169665.96 45587247.84 m -152537.16 0 a 152537.16 152537.16 0 1 1 305074.33 0a 152537.16 152537.16 0 1 1 -305074.33 0"/>
<path id="N" d="M 51169669.36 38587251.36 m -232815.81 0 a 232815.81 232815.81 0 1 1 465631.62 0a 232815.81 232815.81 0 1 1 -465631.62 0M 51169665.96 38587247.84 m -152537.16 0 a 152537.16 152537.16 0 1 1 305074.33 0a 152537.16 152537.16 0 1 1 -305074.33 0"/>
<path id="N" d="M 56405118.00 38494882.00 L 55794882.00 38494882.00 L 55794882.00 39105118.00 L 56405118.00 39105118.00 L 56405118.00 38494882.00  zM 56099999.24 38799999.93 m -204721.07 0 a 204721.07 204721.07 0 1 1 409442.13 0a 204721.07 204721.07 0 1 1 -409442.13 0"/>
<path id="N" d="M 72750002.99 31000005.10 m -317671.90 0 a 317671.90 317671.90 0 1 1 635343.80 0a 317671.90 317671.90 0 1 1 -635343.80 0M 72750000.68 30999999.74 m -100353.26 0 a 100353.26 100353.26 0 1 1 200706.53 0a 100353.26 100353.26 0 1 1 -200706.53 0"/>
<path id="N" d="M 94245275.00 30394725.00 L 93654725.00 30394725.00 L 93654725.00 30985275.00 L 94245275.00 30985275.00 L 94245275.00 30394725.00  zM 93950002.46 30689992.27 m -120431.73 0 a 120431.73 120431.73 0 1 1 240863.46 0a 120431.73 120431.73 0 1 1 -240863.46 0"/>
<path id="N" d="M 97145275.00 30394725.00 L 96554725.00 30394725.00 L 96554725.00 30985275.00 L 97145275.00 30985275.00 L 97145275.00 30394725.00  zM 96850002.46 30689992.27 m -120431.73 0 a 120431.73 120431.73 0 1 1 240863.46 0a 120431.73 120431.73 0 1 1 -240863.46 0"/>
<path id="N" d="M 100045275.00 30394725.00 L 99454725.00 30394725.00 L 99454725.00 30985275.00 L 100045275.00 30985275.00 L 100045275.00 30394725.00  zM 99750002.46 30689992.27 m -120431.73 0 a 120431.73 120431.73 0 1 1 240863.46 0a 120431.73 120431.73 0 1 1 -240863.46 0"/>
<path id="N" d="M 161149996.32 29999994.16 m -307757.99 0 a 307757.99 307757.99 0 1 1 615515.98 0a 307757.99 307757.99 0 1 1 -615515.98 0M 161149999.24 29999999.93 m -204721.07 0 a 204721.07 204721.07 0 1 1 409442.13 0a 204721.07 204721.07 0 1 1 -409442.13 0"/>
<path id="N" d="M 134900004.08 30600004.08 m -220772.76 0 a 220772.76 220772.76 0 1 1 441545.52 0a 220772.76 220772.76 0 1 1 -441545.52 0M 134899999.59 30600002.48 m -160563.52 0 a 160563.52 160563.52 0 1 1 321127.04 0a 160563.52 160563.52 0 1 1 -321127.04 0"/>
<path id="N" d="M 56099996.32 42799994.16 m -307757.99 0 a 307757.99 307757.99 0 1 1 615515.98 0a 307757.99 307757.99 0 1 1 -615515.98 0M 56099999.24 42799999.93 m -204721.07 0 a 204721.07 204721.07 0 1 1 409442.13 0a 204721.07 204721.07 0 1 1 -409442.13 0"/>
<path id="N" d="M 51169669.36 42587251.36 m -232815.81 0 a 232815.81 232815.81 0 1 1 465631.62 0a 232815.81 232815.81 0 1 1 -465631.62 0M 51169665.96 42587247.84 m -152537.16 0 a 152537.16 152537.16 0 1 1 305074.33 0a 152537.16 152537.16 0 1 1 -305074.33 0"/>
<path id="N" d="M 38699996.32 42049994.16 m -307757.99 0 a 307757.99 307757.99 0 1 1 615515.98 0a 307757.99 307757.99 0 1 1 -615515.98 0M 38699999.24 42049999.93 m -204721.07 0 a 204721.07 204721.07 0 1 1 409442.13 0a 204721.07 204721.07 0 1 1 -409442.13 0"/>
<path id="N" d="M 45068881.36 43587251.36 m -232815.81 0 a 232815.81 232815.81 0 1 1 465631.62 0a 232815.81 232815.81 0 1 1 -465631.62 0M 45068877.96 43587247.84 m -152537.16 0 a 152537.16 152537.16 0 1 1 305074.33 0a 152537.16 152537.16 0 1 1 -305074.33 0"/>
<path id="N" d="M 37799213.00 45318148.00 L 37641731.00 45318148.00 A 317686.61 317686.61 0 0 0 37641731.00 45953504.00 L 37799213.00 45953504.00 A 317671.90 317671.90 0 0 0 37799213.00 45318148.00  zM 37720472.68 45635825.74 m -100353.26 0 a 100353.26 100353.26 0 1 1 200706.53 0a 100353.26 100353.26 0 1 1 -200706.53 0"/>
<path id="N" d="M 40358269.00 45318148.00 L 40200787.00 45318148.00 A 317686.61 317686.61 0 1 0 40200787.00 45953504.00 L 40358269.00 45953504.00 A 317671.90 317671.90 0 1 0 40358269.00 45318148.00  zM 40279528.68 45635825.74 m -100353.26 0 a 100353.26 100353.26 0 1 1 200706.53 0a 100353.26 100353.26 0 1 1 -200706.53 0"/>
<path id="N" d="M 36700002.99 45650005.10 m -317671.90 0 a 317671.90 317671.90 0 1 1 635343.80 0a 317671.90 317671.90 0 1 1 -635343.80 0M 36700000.68 45649999.74 m -100353.26 0 a 100353.26 100353.26 0 1 1 200706.53 0a 100353.26 100353.26 0 1 1 -200706.53 0"/>
<path id="N" d="M 42305118.00 44794882.00 L 41694882.00 44794882.00 L 41694882.00 45405118.00 L 42305118.00 45405118.00 L 42305118.00 44794882.00  zM 41999999.24 45099999.93 m -204721.07 0 a 204721.07 204721.07 0 1 1 409442.13 0a 204721.07 204721.07 0 1 1 -409442.13 0"/>
<path id="N" d="M 45297224.00 45358902.00 L 44840532.00 45358902.00 L 44840532.00 45815594.00 L 45297224.00 45815594.00 L 45297224.00 45358902.00  zM 45068877.96 45587247.84 m -152537.16 0 a 152537.16 152537.16 0 1 1 305074.33 0a 152537.16 152537.16 0 1 1 -305074.33 0"/>
<path id="N" d="M 110481850.00 31158269.00 L 110481850.00 31000787.00 A 317686.61 317686.61 0 0 0 109846494.00 31000787.00 L 109846494.00 31158269.00 A 317686.61 317686.61 0 0 0 110481850.00 31158269.00  zM 110164172.68 31079527.74 m -100353.26 0 a 100353.26 100353.26 0 1 1 200706.53 0a 100353.26 100353.26 0 1 1 -200706.53 0"/>
<path id="N" d="M 110481850.00 28599213.00 L 110481850.00 28441731.00 A 317686.61 317686.61 0 0 0 109846494.00 28441731.00 L 109846494.00 28599213.00 A 317686.61 317686.61 0 0 0 110481850.00 28599213.00  zM 110164172.68 28520471.74 m -100353.26 0 a 100353.26 100353.26 0 1 1 200706.53 0a 100353.26 100353.26 0 1 1 -200706.53 0"/>
<path id="N" d="M 75249996.32 30999994.16 m -307757.99 0 a 307757.99 307757.99 0 1 1 615515.98 0a 307757.99 307757.99 0 1 1 -615515.98 0M 75249999.24 30999999.93 m -204721.07 0 a 204721.07 204721.07 0 1 1 409442.13 0a 204721.07 204721.07 0 1 1 -409442.13 0"/>
<path id="N" d="M 83050002.99 31150005.10 m -317671.90 0 a 317671.90 317671.90 0 1 1 635343.80 0a 317671.90 317671.90 0 1 1 -635343.80 0M 83050000.68 31149999.74 m -100353.26 0 a 100353.26 100353.26 0 1 1 200706.53 0a 100353.26 100353.26 0 1 1 -200706.53 0"/>
</g>
</svg>
