<svg width="46.228mm" height="82.042mm" viewBox="0 0 18200000 32300000"  version="1.1" xmlns="http://www.w3.org/2000/svg" xmlns:xlink="http://www.w3.org/1999/xlink">
<desc>
Origin 51800000 12400000 Bound 51800000 12400000 18200000 32300000
</desc>
<g fill-rule="evenodd" fill="rgb(255, 0, 255)" stroke="black" stroke-width="1" transform="translate(0, 32300000) scale(1, -1) translate(-51800000, -12400000)">
<path id="N" d="M 70000000.00 12400000.00 L 51800000.00 12400000.00 L 51800000.00 44700000.00 L 70000000.00 44700000.00 L 70000000.00 12400000.00  zM 52999999.28 13500005.39 m -1029202.61 0 a 1029202.61 1029202.61 0 1 1 2058405.22 0a 1029202.61 1029202.61 0 1 1 -2058405.22 0M 53733701.00 15535275.00 L 52866299.00 15535275.00 L 52866299.00 14864725.00 L 53733701.00 14864725.00 L 53733701.00 15535275.00  zM 53398426.00 16538168.00 L 53201574.00 16538168.00 A 338174.95 338174.95 0 0 1 53201574.00 15861832.00 L 53398426.00 15861832.00 A 338174.95 338174.95 0 0 1 53398426.00 16538168.00  zM 54941977.00 15378741.00 L 54941977.00 15221259.00 A 358011.17 358011.17 0 0 1 55658023.00 15221259.00 L 55658023.00 15378741.00 A 358011.17 358011.17 0 0 1 54941977.00 15378741.00  zM 55941977.00 15378741.00 L 55941977.00 15221259.00 A 358011.17 358011.17 0 0 1 56658023.00 15221259.00 L 56658023.00 15378741.00 A 358011.17 358011.17 0 0 1 55941977.00 15378741.00  zM 55241977.00 17278741.00 L 55241977.00 17121259.00 A 358011.17 358011.17 0 1 1 55958023.00 17121259.00 L 55958023.00 17278741.00 A 358011.17 358011.17 0 0 1 55241977.00 17278741.00  zM 54100001.00 18999994.24 m -457303.76 0 a 457303.76 457303.76 0 1 1 914607.52 0a 457303.76 457303.76 0 1 1 -914607.52 0M 56241977.00 17278741.00 L 56241977.00 17121259.00 A 358011.17 358011.17 0 1 1 56958023.00 17121259.00 L 56958023.00 17278741.00 A 358011.17 358011.17 0 0 1 56241977.00 17278741.00  zM 57541977.00 18078741.00 L 57541977.00 17921259.00 A 358011.17 358011.17 0 0 1 58258023.00 17921259.00 L 58258023.00 18078741.00 A 358011.17 358011.17 0 0 1 57541977.00 18078741.00  zM 59033700.00 15133701.00 L 58166300.00 15133701.00 L 58166300.00 14266299.00 L 59033700.00 14266299.00 L 59033700.00 15133701.00  zM 58599997.34 16700010.18 m -437432.82 0 a 437432.82 437432.82 0 1 1 874865.64 0a 437432.82 437432.82 0 1 1 -874865.64 0M 61933701.00 16254960.00 L 61066299.00 16254960.00 L 61066299.00 15545040.00 L 61933701.00 15545040.00 L 61933701.00 16254960.00  zM 59854960.00 18433701.00 L 59145040.00 18433701.00 L 59145040.00 17566299.00 L 59854960.00 17566299.00 L 59854960.00 18433701.00  zM 61578741.00 18258023.00 L 61421259.00 18258023.00 A 358011.17 358011.17 0 0 1 61421259.00 17541977.00 L 61578741.00 17541977.00 A 358011.17 358011.17 0 0 1 61578741.00 18258023.00  zM 61578741.00 17258023.00 L 61421259.00 17258023.00 A 358011.17 358011.17 0 0 1 61421259.00 16541977.00 L 61578741.00 16541977.00 A 358011.17 358011.17 0 0 1 61578741.00 17258023.00  zM 65059165.00 16315074.00 L 65058956.00 15447673.00 L 65926357.00 15447464.00 L 65926566.00 16314865.00 L 65059165.00 16315074.00  zM 68799999.28 13500005.39 m -1029202.61 0 a 1029202.61 1029202.61 0 1 1 2058405.22 0a 1029202.61 1029202.61 0 1 1 -2058405.22 0M 65493248.91 17881244.21 m -437467.80 0 a 437467.80 437467.80 0 1 1 874935.60 0a 437467.80 437467.80 0 1 1 -874935.60 0M 57750003.68 24699982.80 m -437460.20 0 a 437460.20 437460.20 0 1 1 874920.41 0a 437460.20 437460.20 0 1 1 -874920.41 0M 64063239.00 21209366.00 L 64063239.00 20225114.00 A 536705.37 536705.37 0 1 1 65136675.00 20225114.00 L 65136675.00 21209366.00 A 536705.37 536705.37 0 1 1 64063239.00 21209366.00  zM 57450003.68 27699982.80 m -437460.20 0 a 437460.20 437460.20 0 1 1 874920.41 0a 437460.20 437460.20 0 1 1 -874920.41 0M 54110241.00 27699994.24 m -457303.76 0 a 457303.76 457303.76 0 1 1 914607.52 0a 457303.76 457303.76 0 1 1 -914607.52 0M 60454960.00 31233701.00 L 59745040.00 31233701.00 L 59745040.00 30366299.00 L 60454960.00 30366299.00 L 60454960.00 31233701.00  zM 56741977.00 33778741.00 L 56741977.00 33621259.00 A 358011.17 358011.17 0 0 1 57458023.00 33621259.00 L 57458023.00 33778741.00 A 358011.17 358011.17 0 0 1 56741977.00 33778741.00  zM 60944513.00 33933701.00 L 60077113.00 33933701.00 L 60077113.00 33066299.00 L 60944513.00 33066299.00 L 60944513.00 33933701.00  zM 60741977.00 30878741.00 L 60741977.00 30721259.00 A 358011.17 358011.17 0 0 1 61458023.00 30721259.00 L 61458023.00 30878741.00 A 358011.17 358011.17 0 0 1 60741977.00 30878741.00  zM 64063239.00 34591387.00 L 64063239.00 33607135.00 A 536705.37 536705.37 0 1 1 65136675.00 33607135.00 L 65136675.00 34591387.00 A 536705.37 536705.37 0 1 1 64063239.00 34591387.00  zM 66475082.00 21160154.00 L 66475082.00 20274326.00 A 487085.47 487085.47 0 1 1 67449242.00 20274326.00 L 67449242.00 21160154.00 A 487085.47 487085.47 0 0 1 66475082.00 21160154.00  zM 66223973.00 23054714.00 L 65338145.00 23054714.00 A 487085.47 487085.47 0 0 1 65338145.00 22080554.00 L 66223973.00 22080554.00 A 487085.47 487085.47 0 0 1 66223973.00 23054714.00  zM 69508649.00 23778804.00 L 68641247.00 23778108.00 L 68641817.00 23068188.00 L 69509219.00 23068884.00 L 69508649.00 23778804.00  zM 69152897.00 24765834.00 L 68995415.00 24765708.00 A 358022.19 358022.19 0 1 1 68995989.00 24049662.00 L 69153471.00 24049788.00 A 358022.19 358022.19 0 1 1 69152897.00 24765834.00  zM 68799999.28 27300005.39 m -1029202.61 0 a 1029202.61 1029202.61 0 1 1 2058405.22 0a 1029202.61 1029202.61 0 1 1 -2058405.22 0M 69508649.00 30704132.00 L 68641247.00 30703436.00 L 68641817.00 29993516.00 L 69509219.00 29994212.00 L 69508649.00 30704132.00  zM 69152897.00 31691162.00 L 68995415.00 31691036.00 A 358022.19 358022.19 0 1 1 68995989.00 30974990.00 L 69153471.00 30975116.00 A 358022.19 358022.19 0 1 1 69152897.00 31691162.00  zM 66475082.00 34542175.00 L 66475082.00 33656347.00 A 487085.47 487085.47 0 0 1 67449242.00 33656347.00 L 67449242.00 34542175.00 A 487085.47 487085.47 0 0 1 66475082.00 34542175.00  zM 55933701.00 34909291.00 L 55066299.00 34909291.00 L 55066299.00 34238741.00 L 55933701.00 34238741.00 L 55933701.00 34909291.00  zM 55598426.00 35975176.00 L 55401574.00 35975176.00 A 338174.95 338174.95 0 0 1 55401574.00 35298840.00 L 55598426.00 35298840.00 A 338174.95 338174.95 0 0 1 55598426.00 35975176.00  zM 56741977.00 36778741.00 L 56741977.00 36621259.00 A 358011.17 358011.17 0 0 1 57458023.00 36621259.00 L 57458023.00 36778741.00 A 358011.17 358011.17 0 0 1 56741977.00 36778741.00  zM 55598426.00 37038168.00 L 55401574.00 37038168.00 A 338174.95 338174.95 0 0 1 55401574.00 36361832.00 L 55598426.00 36361832.00 A 338174.95 338174.95 0 0 1 55598426.00 37038168.00  zM 58444331.00 38169921.00 L 57675355.00 38169921.00 L 57675355.00 36830079.00 L 58444331.00 36830079.00 L 58444331.00 38169921.00  zM 58733701.00 34954960.00 L 57866299.00 34954960.00 L 57866299.00 34245040.00 L 58733701.00 34245040.00 L 58733701.00 34954960.00  zM 60510810.34 35500010.18 m -437432.82 0 a 437432.82 437432.82 0 1 1 874865.64 0a 437432.82 437432.82 0 1 1 -874865.64 0M 58378741.00 35958023.00 L 58221259.00 35958023.00 A 358011.17 358011.17 0 1 1 58221259.00 35241977.00 L 58378741.00 35241977.00 A 358011.17 358011.17 0 0 1 58378741.00 35958023.00  zM 60924645.00 37727008.00 L 60155669.00 37727008.00 L 60155669.00 37272992.00 L 60924645.00 37272992.00 L 60924645.00 37727008.00  zM 56761832.00 37998426.00 L 56761832.00 37801574.00 A 338174.95 338174.95 0 0 1 57438168.00 37801574.00 L 57438168.00 37998426.00 A 338174.95 338174.95 0 0 1 56761832.00 37998426.00  zM 56761832.00 39448426.00 L 56761832.00 39251574.00 A 338174.95 338174.95 0 0 1 57438168.00 39251574.00 L 57438168.00 39448426.00 A 338174.95 338174.95 0 0 1 56761832.00 39448426.00  zM 57641977.00 39678741.00 L 57641977.00 39521259.00 A 358011.17 358011.17 0 0 1 58358023.00 39521259.00 L 58358023.00 39678741.00 A 358011.17 358011.17 0 0 1 57641977.00 39678741.00  zM 52999999.28 43500005.39 m -1029202.61 0 a 1029202.61 1029202.61 0 1 1 2058405.22 0a 1029202.61 1029202.61 0 1 1 -2058405.22 0M 57141977.00 42678741.00 L 57141977.00 42521259.00 A 358011.17 358011.17 0 0 1 57858023.00 42521259.00 L 57858023.00 42678741.00 A 358011.17 358011.17 0 0 1 57141977.00 42678741.00  zM 58641977.00 39678741.00 L 58641977.00 39521259.00 A 358011.17 358011.17 0 0 1 59358023.00 39521259.00 L 59358023.00 39678741.00 A 358011.17 358011.17 0 0 1 58641977.00 39678741.00  zM 60924645.00 38632520.00 L 60155669.00 38632520.00 L 60155669.00 38178504.00 L 60924645.00 38178504.00 L 60924645.00 38632520.00  zM 58126229.00 42678741.00 L 58126229.00 42521259.00 A 358011.17 358011.17 0 0 1 58842275.00 42521259.00 L 58842275.00 42678741.00 A 358011.17 358011.17 0 0 1 58126229.00 42678741.00  zM 59110481.00 42678741.00 L 59110481.00 42521259.00 A 358011.17 358011.17 0 0 1 59826527.00 42521259.00 L 59826527.00 42678741.00 A 358011.17 358011.17 0 0 1 59110481.00 42678741.00  zM 60924645.00 36821496.00 L 60155669.00 36821496.00 L 60155669.00 36367480.00 L 60924645.00 36367480.00 L 60924645.00 36821496.00  zM 61678741.00 37758023.00 L 61521259.00 37758023.00 A 358011.17 358011.17 0 0 1 61521259.00 37041977.00 L 61678741.00 37041977.00 A 358011.17 358011.17 0 0 1 61678741.00 37758023.00  zM 61678741.00 38758023.00 L 61521259.00 38758023.00 A 358011.17 358011.17 0 0 1 61521259.00 38041977.00 L 61678741.00 38041977.00 A 358011.17 358011.17 0 0 1 61678741.00 38758023.00  zM 61678741.00 39658023.00 L 61521259.00 39658023.00 A 358011.17 358011.17 0 0 1 61521259.00 38941977.00 L 61678741.00 38941977.00 A 358011.17 358011.17 0 0 1 61678741.00 39658023.00  zM 62033701.00 40654960.00 L 61166299.00 40654960.00 L 61166299.00 39945040.00 L 62033701.00 39945040.00 L 62033701.00 40654960.00  zM 61798426.00 42138168.00 L 61601574.00 42138168.00 A 338174.95 338174.95 0 0 1 61601574.00 41461832.00 L 61798426.00 41461832.00 A 338174.95 338174.95 0 0 1 61798426.00 42138168.00  zM 62133701.00 43135275.00 L 61266299.00 43135275.00 L 61266299.00 42464725.00 L 62133701.00 42464725.00 L 62133701.00 43135275.00  zM 62745936.00 40499993.05 m -338174.95 0 a 338174.95 338174.95 0 1 1 676349.89 0a 338174.95 338174.95 0 1 1 -676349.89 0M 63978741.00 42158023.00 L 63821259.00 42158023.00 A 358011.17 358011.17 0 1 1 63821259.00 41441977.00 L 63978741.00 41441977.00 A 358011.17 358011.17 0 0 1 63978741.00 42158023.00  zM 66223973.00 36436735.00 L 65338145.00 36436735.00 A 487085.47 487085.47 0 0 1 65338145.00 35462575.00 L 66223973.00 35462575.00 A 487085.47 487085.47 0 0 1 66223973.00 36436735.00  zM 65059165.00 37334891.00 L 65058956.00 36467490.00 L 65926357.00 36467281.00 L 65926566.00 37334682.00 L 65059165.00 37334891.00  zM 65493248.91 38901061.21 m -437467.80 0 a 437467.80 437467.80 0 1 1 874935.60 0a 437467.80 437467.80 0 1 1 -874935.60 0M 68900002.00 40499993.05 m -338174.95 0 a 338174.95 338174.95 0 1 1 676349.89 0a 338174.95 338174.95 0 1 1 -676349.89 0M 65978741.00 42158023.00 L 65821259.00 42158023.00 A 358011.17 358011.17 0 0 1 65821259.00 41441977.00 L 65978741.00 41441977.00 A 358011.17 358011.17 0 0 1 65978741.00 42158023.00  zM 67541977.00 41678741.00 L 67541977.00 41521259.00 A 358011.17 358011.17 0 0 1 68258023.00 41521259.00 L 68258023.00 41678741.00 A 358011.17 358011.17 0 0 1 67541977.00 41678741.00  zM 69254960.00 42033701.00 L 68545040.00 42033701.00 L 68545040.00 41166299.00 L 69254960.00 41166299.00 L 69254960.00 42033701.00  zM 68799999.28 43500005.39 m -1029202.61 0 a 1029202.61 1029202.61 0 1 1 2058405.22 0a 1029202.61 1029202.61 0 1 1 -2058405.22 0"/>
</g>
</svg>
