<svg width="46.228mm" height="82.042mm" viewBox="0 0 18200000 32300000"  version="1.1" xmlns="http://www.w3.org/2000/svg" xmlns:xlink="http://www.w3.org/1999/xlink">
<desc>
Origin 51800000 12400000 Bound 51800000 12400000 18200000 32300000
</desc>
<g fill-rule="evenodd" fill="rgb(255, 0, 0)" stroke="black" stroke-width="1" transform="translate(0, 32300000) scale(1, -1) translate(-51800000, -12400000)">
<path id="N" d="M 58317678.00 39678741.00 L 58317678.00 39521259.00 A 317686.61 317686.61 0 1 0 57682322.00 39521259.00 L 57682322.00 39678741.00 A 317686.61 317686.61 0 0 0 58317678.00 39678741.00  zM 58000000.44 39599998.65 m -180637.35 0 a 180637.35 180637.35 0 1 1 361274.69 0a 180637.35 180637.35 0 1 1 -361274.69 0"/>
<path id="N" d="M 59786182.00 42678741.00 L 59786182.00 42521259.00 A 317686.61 317686.61 0 1 0 59150826.00 42521259.00 L 59150826.00 42678741.00 A 317686.61 317686.61 0 1 0 59786182.00 42678741.00  zM 59468504.44 42599998.65 m -180637.35 0 a 180637.35 180637.35 0 1 1 361274.69 0a 180637.35 180637.35 0 1 1 -361274.69 0"/>
<path id="N" d="M 58801930.00 42678741.00 L 58801930.00 42521259.00 A 317686.61 317686.61 0 1 0 58166574.00 42521259.00 L 58166574.00 42678741.00 A 317686.61 317686.61 0 1 0 58801930.00 42678741.00  zM 58484252.44 42599998.65 m -180637.35 0 a 180637.35 180637.35 0 1 1 361274.69 0a 180637.35 180637.35 0 1 1 -361274.69 0"/>
<path id="N" d="M 63978741.00 41482322.00 L 63821259.00 41482322.00 A 317686.61 317686.61 0 1 0 63821259.00 42117678.00 L 63978741.00 42117678.00 A 317671.90 317671.90 0 1 0 63978741.00 41482322.00  zM 63900000.44 41799998.65 m -180637.35 0 a 180637.35 180637.35 0 1 1 361274.69 0a 180637.35 180637.35 0 1 1 -361274.69 0"/>
<path id="N" d="M 62093701.00 42504725.00 L 61306299.00 42504725.00 L 61306299.00 43095275.00 L 62093701.00 43095275.00 L 62093701.00 42504725.00  zM 61700000.44 42799998.65 m -180637.35 0 a 180637.35 180637.35 0 1 1 361274.69 0a 180637.35 180637.35 0 1 1 -361274.69 0"/>
<path id="N" d="M 68800005.86 43500011.12 m -989001.57 0 a 989001.57 989001.57 0 1 1 1978003.14 0a 989001.57 989001.57 0 1 1 -1978003.14 0M 68799999.40 43499999.06 m -593408.94 0 a 593408.94 593408.94 0 1 1 1186817.89 0a 593408.94 593408.94 0 1 1 -1186817.89 0"/>
<path id="N" d="M 53000005.86 43500011.12 m -989001.57 0 a 989001.57 989001.57 0 1 1 1978003.14 0a 989001.57 989001.57 0 1 1 -1978003.14 0M 52999999.40 43499999.06 m -593408.94 0 a 593408.94 593408.94 0 1 1 1186817.89 0a 593408.94 593408.94 0 1 1 -1186817.89 0"/>
<path id="N" d="M 68800005.86 13500011.12 m -989001.57 0 a 989001.57 989001.57 0 1 1 1978003.14 0a 989001.57 989001.57 0 1 1 -1978003.14 0M 68799999.40 13499999.06 m -593408.94 0 a 593408.94 593408.94 0 1 1 1186817.89 0a 593408.94 593408.94 0 1 1 -1186817.89 0"/>
<path id="N" d="M 68800005.86 27300011.12 m -989001.57 0 a 989001.57 989001.57 0 1 1 1978003.14 0a 989001.57 989001.57 0 1 1 -1978003.14 0M 68799999.40 27299999.06 m -593408.94 0 a 593408.94 593408.94 0 1 1 1186817.89 0a 593408.94 593408.94 0 1 1 -1186817.89 0"/>
<path id="N" d="M 61578741.00 17582322.00 L 61421259.00 17582322.00 A 317686.61 317686.61 0 0 0 61421259.00 18217678.00 L 61578741.00 18217678.00 A 317671.90 317671.90 0 1 0 61578741.00 17582322.00  zM 61500000.44 17899998.65 m -180637.35 0 a 180637.35 180637.35 0 1 1 361274.69 0a 180637.35 180637.35 0 1 1 -361274.69 0"/>
<path id="N" d="M 53398426.00 15902177.00 L 53201574.00 15902177.00 A 297823.01 297823.01 0 1 0 53201574.00 16497823.00 L 53398426.00 16497823.00 A 297829.90 297829.90 0 0 0 53398426.00 15902177.00  zM 53300000.44 16199998.65 m -180637.35 0 a 180637.35 180637.35 0 1 1 361274.69 0a 180637.35 180637.35 0 1 1 -361274.69 0"/>
<path id="N" d="M 58599997.82 16699995.93 m -397102.15 0 a 397102.15 397102.15 0 1 1 794204.30 0a 397102.15 397102.15 0 1 1 -794204.30 0M 58600000.44 16699998.65 m -180637.35 0 a 180637.35 180637.35 0 1 1 361274.69 0a 180637.35 180637.35 0 1 1 -361274.69 0"/>
<path id="N" d="M 54099998.10 18999999.16 m -416954.52 0 a 416954.52 416954.52 0 1 1 833909.05 0a 416954.52 416954.52 0 1 1 -833909.05 0M 54100000.44 18999998.65 m -180637.35 0 a 180637.35 180637.35 0 1 1 361274.69 0a 180637.35 180637.35 0 1 1 -361274.69 0"/>
<path id="N" d="M 59814960.00 17606299.00 L 59185040.00 17606299.00 L 59185040.00 18393701.00 L 59814960.00 18393701.00 L 59814960.00 17606299.00  zM 59500000.44 17999998.65 m -180637.35 0 a 180637.35 180637.35 0 1 1 361274.69 0a 180637.35 180637.35 0 1 1 -361274.69 0"/>
<path id="N" d="M 55617678.00 15378741.00 L 55617678.00 15221259.00 A 317686.61 317686.61 0 0 0 54982322.00 15221259.00 L 54982322.00 15378741.00 A 317686.61 317686.61 0 0 0 55617678.00 15378741.00  zM 55300000.44 15299998.65 m -180637.35 0 a 180637.35 180637.35 0 1 1 361274.69 0a 180637.35 180637.35 0 1 1 -361274.69 0"/>
<path id="N" d="M 53693701.00 14904725.00 L 52906299.00 14904725.00 L 52906299.00 15495275.00 L 53693701.00 15495275.00 L 53693701.00 14904725.00  zM 53300000.44 15199998.65 m -180637.35 0 a 180637.35 180637.35 0 1 1 361274.69 0a 180637.35 180637.35 0 1 1 -361274.69 0"/>
<path id="N" d="M 56917678.00 17278741.00 L 56917678.00 17121259.00 A 317686.61 317686.61 0 1 0 56282322.00 17121259.00 L 56282322.00 17278741.00 A 317686.61 317686.61 0 1 0 56917678.00 17278741.00  zM 56600000.44 17199998.65 m -180637.35 0 a 180637.35 180637.35 0 1 1 361274.69 0a 180637.35 180637.35 0 1 1 -361274.69 0"/>
<path id="N" d="M 58217678.00 18078741.00 L 58217678.00 17921259.00 A 317686.61 317686.61 0 1 0 57582322.00 17921259.00 L 57582322.00 18078741.00 A 317686.61 317686.61 0 1 0 58217678.00 18078741.00  zM 57900000.44 17999998.65 m -180637.35 0 a 180637.35 180637.35 0 1 1 361274.69 0a 180637.35 180637.35 0 1 1 -361274.69 0"/>
<path id="N" d="M 61893701.00 15585040.00 L 61106299.00 15585040.00 L 61106299.00 16214960.00 L 61893701.00 16214960.00 L 61893701.00 15585040.00  zM 61500000.44 15899998.65 m -180637.35 0 a 180637.35 180637.35 0 1 1 361274.69 0a 180637.35 180637.35 0 1 1 -361274.69 0"/>
<path id="N" d="M 61678741.00 38982322.00 L 61521259.00 38982322.00 A 317686.61 317686.61 0 0 0 61521259.00 39617678.00 L 61678741.00 39617678.00 A 317671.90 317671.90 0 0 0 61678741.00 38982322.00  zM 61600000.44 39299998.65 m -180637.35 0 a 180637.35 180637.35 0 1 1 361274.69 0a 180637.35 180637.35 0 1 1 -361274.69 0"/>
<path id="N" d="M 61678741.00 38082322.00 L 61521259.00 38082322.00 A 317686.61 317686.61 0 0 0 61521259.00 38717678.00 L 61678741.00 38717678.00 A 317671.90 317671.90 0 0 0 61678741.00 38082322.00  zM 61600000.44 38399998.65 m -180637.35 0 a 180637.35 180637.35 0 1 1 361274.69 0a 180637.35 180637.35 0 1 1 -361274.69 0"/>
<path id="N" d="M 57817678.00 42678741.00 L 57817678.00 42521259.00 A 317686.61 317686.61 0 1 0 57182322.00 42521259.00 L 57182322.00 42678741.00 A 317686.61 317686.61 0 1 0 57817678.00 42678741.00  zM 57500000.44 42599998.65 m -180637.35 0 a 180637.35 180637.35 0 1 1 361274.69 0a 180637.35 180637.35 0 1 1 -361274.69 0"/>
<path id="N" d="M 60510810.82 35499995.93 m -397102.15 0 a 397102.15 397102.15 0 1 1 794204.30 0a 397102.15 397102.15 0 1 1 -794204.30 0M 60510813.44 35499998.65 m -180637.35 0 a 180637.35 180637.35 0 1 1 361274.69 0a 180637.35 180637.35 0 1 1 -361274.69 0"/>
<path id="N" d="M 68689407.00 40289407.00 L 68681821.28 40299293.00 L 62964112.72 40299293.00 L 62956527.00 40289407.00 A 297829.90 297829.90 0 1 0 62956527.00 40710593.00 L 62964112.72 40700707.00 L 68681821.28 40700707.00 L 68689407.00 40710593.00 A 297829.90 297829.90 0 1 0 68689407.00 40289407.00  z"/>
<path id="N" d="M 61678741.00 37082322.00 L 61521259.00 37082322.00 A 317686.61 317686.61 0 0 0 61521259.00 37717678.00 L 61678741.00 37717678.00 A 317671.90 317671.90 0 0 0 61678741.00 37082322.00  zM 61600000.44 37399998.65 m -180637.35 0 a 180637.35 180637.35 0 1 1 361274.69 0a 180637.35 180637.35 0 1 1 -361274.69 0"/>
<path id="N" d="M 61798426.00 41502177.00 L 61601574.00 41502177.00 A 297823.01 297823.01 0 0 0 61601574.00 42097823.00 L 61798426.00 42097823.00 A 297829.90 297829.90 0 0 0 61798426.00 41502177.00  zM 61700000.44 41799998.65 m -180637.35 0 a 180637.35 180637.35 0 1 1 361274.69 0a 180637.35 180637.35 0 1 1 -361274.69 0"/>
<path id="N" d="M 61417678.00 30878741.00 L 61417678.00 30721259.00 A 317686.61 317686.61 0 1 0 60782322.00 30721259.00 L 60782322.00 30878741.00 A 317686.61 317686.61 0 1 0 61417678.00 30878741.00  zM 61100000.44 30799998.65 m -180637.35 0 a 180637.35 180637.35 0 1 1 361274.69 0a 180637.35 180637.35 0 1 1 -361274.69 0"/>
<path id="N" d="M 69153439.00 31015461.00 L 68995957.00 31015335.00 A 317689.57 317689.57 0 0 0 68995447.00 31650691.00 L 69152929.00 31650817.00 A 317663.23 317663.23 0 0 0 69153439.00 31015461.00  zM 69074443.44 31333074.65 m -180637.35 0 a 180637.35 180637.35 0 1 1 361274.69 0a 180637.35 180637.35 0 1 1 -361274.69 0"/>
<path id="N" d="M 58378741.00 35282322.00 L 58221259.00 35282322.00 A 317686.61 317686.61 0 0 0 58221259.00 35917678.00 L 58378741.00 35917678.00 A 317671.90 317671.90 0 0 0 58378741.00 35282322.00  zM 58300000.68 35599999.74 m -100353.26 0 a 100353.26 100353.26 0 1 1 200706.53 0a 100353.26 100353.26 0 1 1 -200706.53 0"/>
<path id="N" d="M 55598426.00 35339185.00 L 55401574.00 35339185.00 A 297823.01 297823.01 0 0 0 55401574.00 35934831.00 L 55598426.00 35934831.00 A 297829.90 297829.90 0 0 0 55598426.00 35339185.00  zM 55500000.44 35637006.65 m -180637.35 0 a 180637.35 180637.35 0 1 1 361274.69 0a 180637.35 180637.35 0 1 1 -361274.69 0"/>
<path id="N" d="M 65493243.84 38901084.13 m -397099.18 0 a 397099.18 397099.18 0 1 1 794198.37 0a 397099.18 397099.18 0 1 1 -794198.37 0M 65493243.44 38901084.65 m -180637.35 0 a 180637.35 180637.35 0 1 1 361274.69 0a 180637.35 180637.35 0 1 1 -361274.69 0"/>
<path id="N" d="M 65096330.00 34591387.00 L 65096330.00 33607135.00 A 496366.14 496366.14 0 0 0 64103584.00 33607135.00 L 64103584.00 34591387.00 A 496366.14 496366.14 0 1 0 65096330.00 34591387.00  zM 64698382.00 34788237.00 L 64501532.00 34788237.00 L 64501532.00 33410285.00 L 64698382.00 33410285.00 L 64698382.00 34788237.00  z"/>
<path id="N" d="M 69214960.00 41206299.00 L 68585040.00 41206299.00 L 68585040.00 41993701.00 L 69214960.00 41993701.00 L 69214960.00 41206299.00  zM 68900000.44 41599998.65 m -180637.35 0 a 180637.35 180637.35 0 1 1 361274.69 0a 180637.35 180637.35 0 1 1 -361274.69 0"/>
<path id="N" d="M 61993701.00 39985040.00 L 61206299.00 39985040.00 L 61206299.00 40614960.00 L 61993701.00 40614960.00 L 61993701.00 39985040.00  zM 61600000.44 40299998.65 m -180637.35 0 a 180637.35 180637.35 0 1 1 361274.69 0a 180637.35 180637.35 0 1 1 -361274.69 0"/>
<path id="N" d="M 69153439.00 24090133.00 L 68995957.00 24090007.00 A 317689.57 317689.57 0 0 0 68995447.00 24725363.00 L 69152929.00 24725489.00 A 317663.23 317663.23 0 0 0 69153439.00 24090133.00  zM 69074443.44 24407746.65 m -180637.35 0 a 180637.35 180637.35 0 1 1 361274.69 0a 180637.35 180637.35 0 1 1 -361274.69 0"/>
<path id="N" d="M 61578741.00 16582322.00 L 61421259.00 16582322.00 A 317686.61 317686.61 0 0 0 61421259.00 17217678.00 L 61578741.00 17217678.00 A 317671.90 317671.90 0 1 0 61578741.00 16582322.00  zM 61500000.44 16899998.65 m -180637.35 0 a 180637.35 180637.35 0 1 1 361274.69 0a 180637.35 180637.35 0 1 1 -361274.69 0"/>
<path id="N" d="M 65493243.84 17881267.13 m -397099.18 0 a 397099.18 397099.18 0 1 1 794198.37 0a 397099.18 397099.18 0 1 1 -794198.37 0M 65493243.44 17881267.65 m -180637.35 0 a 180637.35 180637.35 0 1 1 361274.69 0a 180637.35 180637.35 0 1 1 -361274.69 0"/>
<path id="N" d="M 65096330.00 21209366.00 L 65096330.00 20225114.00 A 496366.14 496366.14 0 1 0 64103584.00 20225114.00 L 64103584.00 21209366.00 A 496366.14 496366.14 0 1 0 65096330.00 21209366.00  zM 64698382.00 21406216.00 L 64501532.00 21406216.00 L 64501532.00 20028264.00 L 64698382.00 20028264.00 L 64698382.00 21406216.00  z"/>
<path id="N" d="M 57397823.00 37998426.00 L 57397823.00 37801574.00 A 297823.01 297823.01 0 0 0 56802177.00 37801574.00 L 56802177.00 37998426.00 A 297823.01 297823.01 0 0 0 57397823.00 37998426.00  zM 57099999.13 37900001.07 m -150528.93 0 a 150528.93 150528.93 0 1 1 301057.86 0a 150528.93 150528.93 0 1 1 -301057.86 0"/>
<path id="N" d="M 55598426.00 36402177.00 L 55401574.00 36402177.00 A 297823.01 297823.01 0 0 0 55401574.00 36997823.00 L 55598426.00 36997823.00 A 297829.90 297829.90 0 1 0 55598426.00 36402177.00  zM 55500000.44 36699998.65 m -180637.35 0 a 180637.35 180637.35 0 1 1 361274.69 0a 180637.35 180637.35 0 1 1 -361274.69 0"/>
<path id="N" d="M 57417678.00 36778741.00 L 57417678.00 36621259.00 A 317686.61 317686.61 0 0 0 56782322.00 36621259.00 L 56782322.00 36778741.00 A 317686.61 317686.61 0 0 0 57417678.00 36778741.00  zM 57100000.44 36699998.65 m -180637.35 0 a 180637.35 180637.35 0 1 1 361274.69 0a 180637.35 180637.35 0 1 1 -361274.69 0"/>
<path id="N" d="M 57449998.82 27699995.93 m -397102.15 0 a 397102.15 397102.15 0 1 1 794204.30 0a 397102.15 397102.15 0 1 1 -794204.30 0M 57450000.44 27699998.65 m -180637.35 0 a 180637.35 180637.35 0 1 1 361274.69 0a 180637.35 180637.35 0 1 1 -361274.69 0"/>
<path id="N" d="M 54110238.10 27699999.16 m -416954.52 0 a 416954.52 416954.52 0 1 1 833909.05 0a 416954.52 416954.52 0 1 1 -833909.05 0M 54110240.44 27699998.65 m -180637.35 0 a 180637.35 180637.35 0 1 1 361274.69 0a 180637.35 180637.35 0 1 1 -361274.69 0"/>
<path id="N" d="M 57417678.00 33778741.00 L 57417678.00 33621259.00 A 317686.61 317686.61 0 0 0 56782322.00 33621259.00 L 56782322.00 33778741.00 A 317686.61 317686.61 0 1 0 57417678.00 33778741.00  zM 57100000.44 33699998.65 m -180637.35 0 a 180637.35 180637.35 0 1 1 361274.69 0a 180637.35 180637.35 0 1 1 -361274.69 0"/>
<path id="N" d="M 55893701.00 34278741.00 L 55106299.00 34278741.00 L 55106299.00 34869291.00 L 55893701.00 34869291.00 L 55893701.00 34278741.00  zM 55500000.44 34574014.65 m -180637.35 0 a 180637.35 180637.35 0 1 1 361274.69 0a 180637.35 180637.35 0 1 1 -361274.69 0"/>
<path id="N" d="M 58693701.00 34285040.00 L 57906299.00 34285040.00 L 57906299.00 34914960.00 L 58693701.00 34914960.00 L 58693701.00 34285040.00  zM 58300000.68 34599999.74 m -100353.26 0 a 100353.26 100353.26 0 1 1 200706.53 0a 100353.26 100353.26 0 1 1 -200706.53 0"/>
<path id="N" d="M 53000005.86 13500011.12 m -989001.57 0 a 989001.57 989001.57 0 1 1 1978003.14 0a 989001.57 989001.57 0 1 1 -1978003.14 0M 52999999.40 13499999.06 m -593408.94 0 a 593408.94 593408.94 0 1 1 1186817.89 0a 593408.94 593408.94 0 1 1 -1186817.89 0"/>
<path id="N" d="M 59317678.00 39678741.00 L 59317678.00 39521259.00 A 317686.61 317686.61 0 1 0 58682322.00 39521259.00 L 58682322.00 39678741.00 A 317686.61 317686.61 0 0 0 59317678.00 39678741.00  zM 59000000.44 39599998.65 m -180637.35 0 a 180637.35 180637.35 0 1 1 361274.69 0a 180637.35 180637.35 0 1 1 -361274.69 0"/>
<path id="N" d="M 55917678.00 17278741.00 L 55917678.00 17121259.00 A 317686.61 317686.61 0 0 0 55282322.00 17121259.00 L 55282322.00 17278741.00 A 317686.61 317686.61 0 0 0 55917678.00 17278741.00  zM 55600000.44 17199998.65 m -180637.35 0 a 180637.35 180637.35 0 1 1 361274.69 0a 180637.35 180637.35 0 1 1 -361274.69 0"/>
<path id="N" d="M 56617678.00 15378741.00 L 56617678.00 15221259.00 A 317686.61 317686.61 0 1 0 55982322.00 15221259.00 L 55982322.00 15378741.00 A 317686.61 317686.61 0 1 0 56617678.00 15378741.00  zM 56300000.44 15299998.65 m -180637.35 0 a 180637.35 180637.35 0 1 1 361274.69 0a 180637.35 180637.35 0 1 1 -361274.69 0"/>
<path id="N" d="M 57397823.00 39448426.00 L 57397823.00 39251574.00 A 297823.01 297823.01 0 0 0 56802177.00 39251574.00 L 56802177.00 39448426.00 A 297823.01 297823.01 0 0 0 57397823.00 39448426.00  zM 57099999.13 39350001.07 m -150528.93 0 a 150528.93 150528.93 0 1 1 301057.86 0a 150528.93 150528.93 0 1 1 -301057.86 0"/>
<path id="N" d="M 65978741.00 41482322.00 L 65821259.00 41482322.00 A 317686.61 317686.61 0 1 0 65821259.00 42117678.00 L 65978741.00 42117678.00 A 317671.90 317671.90 0 0 0 65978741.00 41482322.00  zM 65900000.44 41799998.65 m -180637.35 0 a 180637.35 180637.35 0 1 1 361274.69 0a 180637.35 180637.35 0 1 1 -361274.69 0"/>
<path id="N" d="M 68217678.00 41678741.00 L 68217678.00 41521259.00 A 317686.61 317686.61 0 0 0 67582322.00 41521259.00 L 67582322.00 41678741.00 A 317686.61 317686.61 0 0 0 68217678.00 41678741.00  zM 67900000.44 41599998.65 m -180637.35 0 a 180637.35 180637.35 0 1 1 361274.69 0a 180637.35 180637.35 0 1 1 -361274.69 0"/>
<path id="N" d="M 57749998.82 24699995.93 m -397102.15 0 a 397102.15 397102.15 0 1 1 794204.30 0a 397102.15 397102.15 0 1 1 -794204.30 0M 57750000.44 24699998.65 m -180637.35 0 a 180637.35 180637.35 0 1 1 361274.69 0a 180637.35 180637.35 0 1 1 -361274.69 0"/>
<path id="N" d="M 66223973.00 22120899.00 L 65338145.00 22120899.00 A 446726.20 446726.20 0 0 0 65338145.00 23014369.00 L 66223973.00 23014369.00 A 446734.99 446734.99 0 0 0 66223973.00 22120899.00  zM 66371610.00 22666059.00 L 65190508.00 22666059.00 L 65190508.00 22469209.00 L 66371610.00 22469209.00 L 66371610.00 22666059.00  z"/>
<path id="N" d="M 67408897.00 21160154.00 L 67408897.00 20274326.00 A 446733.54 446733.54 0 0 0 66515427.00 20274326.00 L 66515427.00 21160154.00 A 446733.54 446733.54 0 0 0 67408897.00 21160154.00  zM 67060587.00 21307791.00 L 66863737.00 21307791.00 L 66863737.00 20126689.00 L 67060587.00 20126689.00 L 67060587.00 21307791.00  z"/>
<path id="N" d="M 67408897.00 34542175.00 L 67408897.00 33656347.00 A 446733.54 446733.54 0 0 0 66515427.00 33656347.00 L 66515427.00 34542175.00 A 446733.54 446733.54 0 1 0 67408897.00 34542175.00  zM 67060587.00 34689812.00 L 66863737.00 34689812.00 L 66863737.00 33508710.00 L 67060587.00 33508710.00 L 67060587.00 34689812.00  z"/>
<path id="N" d="M 66223973.00 35502920.00 L 65338145.00 35502920.00 A 446726.20 446726.20 0 0 0 65338145.00 36396390.00 L 66223973.00 36396390.00 A 446734.99 446734.99 0 0 0 66223973.00 35502920.00  zM 66371610.00 36048080.00 L 65190508.00 36048080.00 L 65190508.00 35851230.00 L 66371610.00 35851230.00 L 66371610.00 36048080.00  z"/>
<path id="N" d="M 65886557.00 16274875.00 L 65886367.00 15487473.00 L 65098965.00 15487663.00 L 65099155.00 16275065.00 L 65886557.00 16274875.00  zM 65492761.44 15881267.65 m -180637.35 0 a 180637.35 180637.35 0 1 1 361274.69 0a 180637.35 180637.35 0 1 1 -361274.69 0"/>
<path id="N" d="M 65886557.00 37294692.00 L 65886367.00 36507290.00 L 65098965.00 36507480.00 L 65099155.00 37294882.00 L 65886557.00 37294692.00  zM 65492761.44 36901084.65 m -180637.35 0 a 180637.35 180637.35 0 1 1 361274.69 0a 180637.35 180637.35 0 1 1 -361274.69 0"/>
<path id="N" d="M 60904513.00 33106299.00 L 60117113.00 33106299.00 L 60117113.00 33893701.00 L 60904513.00 33893701.00 L 60904513.00 33106299.00  zM 60510813.44 33499998.65 m -180637.35 0 a 180637.35 180637.35 0 1 1 361274.69 0a 180637.35 180637.35 0 1 1 -361274.69 0"/>
<path id="N" d="M 60414960.00 30406299.00 L 59785040.00 30406299.00 L 59785040.00 31193701.00 L 60414960.00 31193701.00 L 60414960.00 30406299.00  zM 60100000.44 30799998.65 m -180637.35 0 a 180637.35 180637.35 0 1 1 361274.69 0a 180637.35 180637.35 0 1 1 -361274.69 0"/>
<path id="N" d="M 58993700.00 14306299.00 L 58206300.00 14306299.00 L 58206300.00 15093701.00 L 58993700.00 15093701.00 L 58993700.00 14306299.00  zM 58600000.44 14699998.65 m -180637.35 0 a 180637.35 180637.35 0 1 1 361274.69 0a 180637.35 180637.35 0 1 1 -361274.69 0"/>
<path id="N" d="M 69469187.00 30034180.00 L 68681785.00 30033548.00 L 68681279.00 30663468.00 L 69468681.00 30664100.00 L 69469187.00 30034180.00  zM 69075233.44 30348822.65 m -180637.35 0 a 180637.35 180637.35 0 1 1 361274.69 0a 180637.35 180637.35 0 1 1 -361274.69 0"/>
<path id="N" d="M 69469187.00 23108852.00 L 68681785.00 23108220.00 L 68681279.00 23738140.00 L 69468681.00 23738772.00 L 69469187.00 23108852.00  zM 69075233.44 23423494.65 m -180637.35 0 a 180637.35 180637.35 0 1 1 361274.69 0a 180637.35 180637.35 0 1 1 -361274.69 0"/>
</g>
</svg>
