<svg width="46.228mm" height="82.042mm" viewBox="0 0 18200000 32300000"  version="1.1" xmlns="http://www.w3.org/2000/svg" xmlns:xlink="http://www.w3.org/1999/xlink">
<desc>
Origin 51800000 12400000 Bound 51800000 12400000 18200000 32300000
</desc>
<g fill-rule="evenodd" fill="rgb(0, 0, 255)" stroke="black" stroke-width="1" transform="translate(0, 32300000) scale(1, -1) translate(-51800000, -12400000)">
<path id="N" d="M 59786182.00 42678741.00 L 59786182.00 42521259.00 L 59775357.00 42439038.00 L 59743621.00 42362420.00 L 59714409.00 42324350.37 L 59714409.00 42282987.80 L 59729324.00 42268073.00 L 59772831.00 42202959.00 L 59788109.00 42126152.00 L 59788109.00 41467989.00 L 59772831.00 41391182.00 L 59729323.00 41326068.00 L 58260232.61 39856977.61 L 58275117.00 39837580.00 L 58306853.00 39760962.00 L 58317678.00 39678741.00 L 58317678.00 39521259.00 A 317686.61 317686.61 0 1 0 57682322.00 39521259.00 L 57682322.00 39678741.00 A 317686.61 317686.61 0 0 0 57841161.00 39953858.00 L 57850875.52 39957881.86 L 57859769.00 40002592.00 L 57903277.00 40067706.00 L 59386695.00 41551124.00 L 59386695.00 42043016.80 L 59371781.00 42057931.00 L 59328273.00 42123045.00 L 59312995.00 42199852.00 L 59312995.00 42244762.68 L 59243872.00 42296627.00 L 59193387.00 42362420.00 L 59178113.81 42399293.00 L 58774642.19 42399293.00 L 58759369.00 42362420.00 A 317683.20 317683.20 0 0 0 58166574.00 42521259.00 L 58166574.00 42678741.00 A 317686.61 317686.61 0 0 0 58759369.00 42837580.00 L 58774642.19 42800707.00 L 59178113.81 42800707.00 L 59193387.00 42837580.00 A 317683.20 317683.20 0 0 0 59786182.00 42678741.00  zM 58000000.44 39599998.65 m -180637.35 0 a 180637.35 180637.35 0 1 1 361274.69 0a 180637.35 180637.35 0 1 1 -361274.69 0M 58484252.44 42599998.65 m -180637.35 0 a 180637.35 180637.35 0 1 1 361274.69 0a 180637.35 180637.35 0 1 1 -361274.69 0M 59468504.44 42599998.65 m -180637.35 0 a 180637.35 180637.35 0 1 1 361274.69 0a 180637.35 180637.35 0 1 1 -361274.69 0"/>
<path id="N" d="M 62093701.00 43000707.00 L 62900000.00 43000707.00 L 62976807.00 42985429.00 L 63041921.00 42941921.00 L 63866164.82 42117678.00 L 63978741.00 42117678.00 A 317686.61 317686.61 0 1 0 63978741.00 41482322.00 L 63821259.00 41482322.00 A 317686.61 317686.61 0 0 0 63514406.00 41882221.00 L 63520126.25 41896030.99 L 62816864.94 42599293.00 L 62093701.00 42599293.00 L 62093701.00 42504725.00 L 61306299.00 42504725.00 L 61306299.00 43095275.00 L 62093701.00 43095275.00 L 62093701.00 43000707.00  zM 61700000.44 42799998.65 m -180637.35 0 a 180637.35 180637.35 0 1 1 361274.69 0a 180637.35 180637.35 0 1 1 -361274.69 0M 63900000.44 41799998.65 m -180637.35 0 a 180637.35 180637.35 0 1 1 361274.69 0a 180637.35 180637.35 0 1 1 -361274.69 0"/>
<path id="N" d="M 54308476.00 19361092.00 L 54390929.46 19297823.00 L 58278740.00 19297823.00 A 297823.01 297823.01 0 0 0 58489333.00 19210593.00 L 59306224.33 18393701.00 L 59814960.00 18393701.00 L 59814960.00 18197823.00 L 61317237.50 18197823.00 L 61339038.00 18206853.00 L 61421259.00 18217678.00 L 61578741.00 18217678.00 A 317686.61 317686.61 0 1 0 61578741.00 17582322.00 L 61421259.00 17582322.00 L 61339038.00 17593147.00 L 61317237.50 17602177.00 L 59779083.79 17602177.00 L 59757922.00 17551088.00 L 59710588.70 17489403.70 L 59679713.00 17458527.74 L 59679714.00 17367071.00 A 297837.69 297837.69 0 0 0 59592483.00 17156478.00 L 58948450.38 16512445.38 L 58943896.00 16501450.00 A 397093.98 397093.98 0 1 0 58600000.00 17097098.00 L 58680175.48 17086542.48 L 59084067.00 17490434.00 L 59084067.00 17581890.00 L 59094215.00 17658972.00 L 59125177.11 17732377.76 L 58155377.07 18702177.00 L 54390929.46 18702177.00 L 54308476.00 18638908.00 L 54207915.00 18597254.00 L 54104874.76 18583688.76 L 53597823.00 18076637.00 L 53597823.00 16419183.90 L 53609019.00 16410593.00 A 297829.90 297829.90 0 0 0 53398426.00 15902177.00 L 53201574.00 15902177.00 A 297823.01 297823.01 0 0 0 52990981.00 16410593.00 L 53002177.00 16419183.90 L 53002177.00 18200000.00 A 297823.01 297823.01 0 0 0 53089407.00 18410593.00 L 53683688.76 19004874.76 L 53697254.00 19107915.00 A 416954.52 416954.52 0 0 0 54308476.00 19361092.00  zM 53300000.44 16199998.65 m -180637.35 0 a 180637.35 180637.35 0 1 1 361274.69 0a 180637.35 180637.35 0 1 1 -361274.69 0M 54100000.44 18999998.65 m -180637.35 0 a 180637.35 180637.35 0 1 1 361274.69 0a 180637.35 180637.35 0 1 1 -361274.69 0M 58600000.44 16699998.65 m -180637.35 0 a 180637.35 180637.35 0 1 1 361274.69 0a 180637.35 180637.35 0 1 1 -361274.69 0M 59500000.44 17999998.65 m -180637.35 0 a 180637.35 180637.35 0 1 1 361274.69 0a 180637.35 180637.35 0 1 1 -361274.69 0M 61500000.44 17899998.65 m -180637.35 0 a 180637.35 180637.35 0 1 1 361274.69 0a 180637.35 180637.35 0 1 1 -361274.69 0"/>
<path id="N" d="M 68800005.86 27300011.12 m -989001.57 0 a 989001.57 989001.57 0 1 1 1978003.14 0a 989001.57 989001.57 0 1 1 -1978003.14 0M 68799999.40 27299999.06 m -593408.94 0 a 593408.94 593408.94 0 1 1 1186817.89 0a 593408.94 593408.94 0 1 1 -1186817.89 0"/>
<path id="N" d="M 68800005.86 13500011.12 m -989001.57 0 a 989001.57 989001.57 0 1 1 1978003.14 0a 989001.57 989001.57 0 1 1 -1978003.14 0M 68799999.40 13499999.06 m -593408.94 0 a 593408.94 593408.94 0 1 1 1186817.89 0a 593408.94 593408.94 0 1 1 -1186817.89 0"/>
<path id="N" d="M 53000005.86 43500011.12 m -989001.57 0 a 989001.57 989001.57 0 1 1 1978003.14 0a 989001.57 989001.57 0 1 1 -1978003.14 0M 52999999.40 43499999.06 m -593408.94 0 a 593408.94 593408.94 0 1 1 1186817.89 0a 593408.94 593408.94 0 1 1 -1186817.89 0"/>
<path id="N" d="M 68800005.86 43500011.12 m -989001.57 0 a 989001.57 989001.57 0 1 1 1978003.14 0a 989001.57 989001.57 0 1 1 -1978003.14 0M 68799999.40 43499999.06 m -593408.94 0 a 593408.94 593408.94 0 1 1 1186817.89 0a 593408.94 593408.94 0 1 1 -1186817.89 0"/>
<path id="N" d="M 55617678.00 15378741.00 L 55617678.00 15221259.00 A 317686.61 317686.61 0 0 0 55075368.00 14996627.00 L 55031271.03 15054095.00 L 53693701.00 15054095.00 L 53693701.00 14904725.00 L 52906299.00 14904725.00 L 52906299.00 15495275.00 L 53693701.00 15495275.00 L 53693701.00 15455509.00 L 54992429.07 15455509.00 L 54993147.00 15460962.00 A 317671.90 317671.90 0 0 0 55617678.00 15378741.00  zM 53300000.44 15199998.65 m -180637.35 0 a 180637.35 180637.35 0 1 1 361274.69 0a 180637.35 180637.35 0 1 1 -361274.69 0M 55300000.44 15299998.65 m -180637.35 0 a 180637.35 180637.35 0 1 1 361274.69 0a 180637.35 180637.35 0 1 1 -361274.69 0"/>
<path id="N" d="M 58217678.00 18078741.00 L 58217678.00 17921259.00 A 317686.61 317686.61 0 0 0 58124632.00 17696627.00 L 58099084.36 17677023.51 L 58085429.00 17608374.00 L 58041921.00 17543260.00 L 57601938.00 17103277.00 L 57536824.00 17059769.00 L 57460017.00 17044491.00 L 57175433.17 17044491.00 L 58224729.96 15995195.00 L 61106299.00 15995195.00 L 61106299.00 16214960.00 L 61893701.00 16214960.00 L 61893701.00 15585040.00 L 61106299.00 15585040.00 L 61106299.00 15593781.00 L 58141594.00 15593781.00 L 58064786.00 15609059.00 L 57999672.00 15652567.00 L 56785579.27 16866660.63 L 56758839.00 16846142.00 A 317686.61 317686.61 0 0 0 56282322.00 17121259.00 L 56282322.00 17278741.00 A 317686.61 317686.61 0 0 0 56824632.00 17503373.00 L 56868728.97 17445905.00 L 57376882.00 17445905.00 L 57654630.07 17723653.07 L 57624883.00 17762420.00 L 57593147.00 17839038.00 L 57582322.00 17921259.00 L 57582322.00 18078741.00 A 317686.61 317686.61 0 1 0 58217678.00 18078741.00  zM 56600000.44 17199998.65 m -180637.35 0 a 180637.35 180637.35 0 1 1 361274.69 0a 180637.35 180637.35 0 1 1 -361274.69 0M 57900000.44 17999998.65 m -180637.35 0 a 180637.35 180637.35 0 1 1 361274.69 0a 180637.35 180637.35 0 1 1 -361274.69 0M 61500000.44 15899998.65 m -180637.35 0 a 180637.35 180637.35 0 1 1 361274.69 0a 180637.35 180637.35 0 1 1 -361274.69 0"/>
<path id="N" d="M 63611296.00 43841921.00 L 65041921.00 42411296.00 L 65085429.00 42346183.00 L 65100707.00 42269375.00 L 65100707.00 41300000.00 L 65085429.00 41223193.00 L 65041921.00 41158079.00 L 63045586.00 39161744.00 L 62980472.00 39118236.00 L 62903665.00 39102958.00 L 61924543.66 39102958.00 L 61903373.00 39075368.00 L 61837580.00 39024883.00 L 61800707.00 39009609.81 L 61800707.00 38690390.19 L 61837580.00 38675117.00 L 61903373.00 38624632.00 L 61953858.00 38558839.00 L 61957881.86 38549124.48 L 62002592.00 38540231.00 L 62067706.00 38496723.00 L 62741921.00 37822508.00 L 62785429.00 37757394.00 L 62800707.00 37680587.00 L 62800707.00 36800000.00 L 62785429.00 36723193.00 L 62741921.00 36658079.00 L 61487119.00 35403277.00 L 61422005.00 35359769.00 L 61345198.00 35344491.00 L 60872536.72 35344491.00 L 60854709.00 35301451.00 A 397086.64 397086.64 0 1 0 60791603.00 35780791.00 L 60818371.75 35745905.00 L 61262063.00 35745905.00 L 62399293.00 36883135.00 L 62399293.00 37597452.00 L 61856977.61 38139767.39 L 61837580.00 38124883.00 L 61760962.00 38093147.00 L 61678741.00 38082322.00 L 61521259.00 38082322.00 A 317686.61 317686.61 0 0 0 61296627.00 38175368.00 L 61276153.85 38202049.00 L 60542913.00 38202049.00 L 60464344.46 38218504.00 L 60195669.00 38218504.00 L 60195669.00 38592520.00 L 60471288.10 38592520.00 L 60540157.00 38606219.00 L 60554012.22 38603463.00 L 61280383.37 38603463.00 L 61296627.00 38624632.00 L 61362420.00 38675117.00 L 61399293.00 38690390.19 L 61399293.00 39009609.81 L 61362420.00 39024883.00 A 317683.20 317683.20 0 0 0 61521259.00 39617678.00 L 61678741.00 39617678.00 A 317686.61 317686.61 0 0 0 61903373.00 39524632.00 L 61918919.12 39504372.00 L 62820530.00 39504372.00 L 64699293.00 41383135.00 L 64699293.00 42186240.00 L 63386240.00 43499293.00 L 58308060.00 43499293.00 L 57745905.00 42937138.00 L 57745905.00 42875649.63 L 57775117.00 42837580.00 L 57806853.00 42760962.00 L 57817678.00 42678741.00 L 57817678.00 42521259.00 A 317686.61 317686.61 0 1 0 57182322.00 42521259.00 L 57182322.00 42678741.00 A 317686.61 317686.61 0 0 0 57344491.00 42955237.32 L 57344491.00 43020273.00 L 57359769.00 43097080.00 L 57403277.00 43162194.00 L 58083004.00 43841921.00 L 58148118.00 43885429.00 L 58224925.00 43900707.00 L 63469375.00 43900707.00 L 63546182.00 43885429.00 L 63611296.00 43841921.00  zM 60510813.44 35499998.65 m -180637.35 0 a 180637.35 180637.35 0 1 1 361274.69 0a 180637.35 180637.35 0 1 1 -361274.69 0M 61600000.44 38399998.65 m -180637.35 0 a 180637.35 180637.35 0 1 1 361274.69 0a 180637.35 180637.35 0 1 1 -361274.69 0M 57500000.44 42599998.65 m -180637.35 0 a 180637.35 180637.35 0 1 1 361274.69 0a 180637.35 180637.35 0 1 1 -361274.69 0M 61600000.44 39299998.65 m -180637.35 0 a 180637.35 180637.35 0 1 1 361274.69 0a 180637.35 180637.35 0 1 1 -361274.69 0"/>
<path id="N" d="M 62009019.00 41589407.00 L 61960158.00 41551915.03 L 61960158.00 40614960.00 L 61993701.00 40614960.00 L 61993701.00 40597823.00 L 62268504.44 40597823.00 L 62381274.00 40710593.00 A 297829.90 297829.90 0 0 0 62591874.60 40797823.00 L 62745934.00 40797823.00 A 297823.01 297823.01 0 1 0 62745934.00 40202177.00 L 62715229.44 40202177.00 L 62602460.00 40089407.00 A 297829.90 297829.90 0 0 0 62391867.00 40002177.00 L 61993701.00 40002177.00 L 61993701.00 39985040.00 L 61703230.30 39985040.00 L 61654424.00 39947590.00 L 61582594.00 39917837.00 L 61505512.00 39907689.00 L 61096857.06 39907689.00 L 59797823.00 38608654.06 L 59797823.00 37797823.00 L 61436079.00 37797823.00 L 61513161.00 37787675.00 L 61584991.00 37757922.00 L 61637438.55 37717678.00 L 61678741.00 37717678.00 A 317686.61 317686.61 0 0 0 61678741.00 37082322.00 L 61521259.00 37082322.00 A 317686.61 317686.61 0 0 0 61296627.00 37175368.00 L 61276055.63 37202177.00 L 58404331.00 37202177.00 L 58404331.00 36870079.00 L 58357666.00 36870079.00 L 58357666.00 35948700.58 L 58390196.64 35916169.78 L 58460962.00 35906853.00 A 317671.90 317671.90 0 0 0 58378741.00 35282322.00 L 58221259.00 35282322.00 L 58139038.00 35293147.00 L 58072564.59 35320681.00 L 55518504.00 35320680.00 L 55441422.00 35330829.00 L 55421248.86 35339185.00 L 55401574.00 35339185.00 A 297823.01 297823.01 0 0 0 55401574.00 35934831.00 L 55598426.00 35934831.00 L 55675508.00 35924683.00 L 55695681.14 35916327.00 L 57762020.00 35916327.00 L 57762020.00 36870079.00 L 57715355.00 36870079.00 L 57715355.00 38129921.00 L 58404331.00 38129921.00 L 58404331.00 37797823.00 L 59202177.00 37797823.00 L 59202177.00 38732017.00 A 297823.01 297823.01 0 0 0 59289407.00 38942610.00 L 60762902.00 40416105.00 A 297844.08 297844.08 0 0 0 60973502.60 40503335.00 L 61206299.00 40503335.00 L 61206299.00 40614960.00 L 61364512.00 40614960.00 L 61364512.00 41623902.43 L 61343652.00 41651088.00 A 297823.01 297823.01 0 0 0 61601574.00 42097823.00 L 61798426.00 42097823.00 A 297829.90 297829.90 0 0 0 62009019.00 41589407.00  zM 55500000.44 35637006.65 m -180637.35 0 a 180637.35 180637.35 0 1 1 361274.69 0a 180637.35 180637.35 0 1 1 -361274.69 0M 58300000.68 35599999.74 m -100353.26 0 a 100353.26 100353.26 0 1 1 200706.53 0a 100353.26 100353.26 0 1 1 -200706.53 0M 61600000.44 37399998.65 m -180637.35 0 a 180637.35 180637.35 0 1 1 361274.69 0a 180637.35 180637.35 0 1 1 -361274.69 0M 61600000.44 40299998.65 m -180637.35 0 a 180637.35 180637.35 0 1 1 361274.69 0a 180637.35 180637.35 0 1 1 -361274.69 0M 61700000.44 41799998.65 m -180637.35 0 a 180637.35 180637.35 0 1 1 361274.69 0a 180637.35 180637.35 0 1 1 -361274.69 0"/>
<path id="N" d="M 69214960.00 41624321.70 L 69218162.00 41600000.00 L 69218163.00 40520339.00 A 297837.69 297837.69 0 0 0 69130927.70 40309742.70 L 67671185.95 38850000.05 L 69210593.00 37310593.00 A 297829.90 297829.90 0 0 0 69297823.00 37100000.00 L 69297823.00 30613150.69 L 69303373.00 30608892.00 A 317671.90 317671.90 0 0 0 69078741.00 30066582.00 L 68921259.00 30066582.00 L 68839038.00 30077407.00 L 68817237.50 30086437.00 L 67453535.00 30086437.00 A 297823.01 297823.01 0 0 0 67242938.70 30173671.30 L 65019554.04 32397055.00 L 64810811.52 32397055.00 L 64785981.00 32378002.00 A 496358.81 496358.81 0 0 0 64041422.00 32807874.00 L 64041422.00 33002177.00 L 63644622.04 33002177.00 L 61417678.00 30775232.04 L 61417678.00 30721259.00 A 317686.61 317686.61 0 1 0 60782322.00 30721259.00 L 60782322.00 30878741.00 A 317686.61 317686.61 0 0 0 60941161.00 31153858.00 L 60962962.41 31162888.38 L 63310667.00 33510593.00 A 297829.90 297829.90 0 0 0 63521267.60 33597823.00 L 64041422.00 33597823.00 L 64041422.00 33792126.00 A 496366.14 496366.14 0 0 0 65034168.00 33792126.00 L 65034168.00 32992701.00 L 65142917.00 32992701.00 A 297823.01 297823.01 0 0 0 65353510.00 32905471.00 L 67576897.04 30682083.00 L 68702177.00 30682083.00 L 68702177.00 36976637.00 L 67176637.00 38502177.00 L 65300000.00 38502177.00 A 297823.01 297823.01 0 0 0 65002177.00 38800000.00 L 65009122.15 38852753.82 L 65002902.00 38900000.00 A 397100.93 397100.93 0 0 0 65744197.72 39097823.00 L 67079608.34 39097823.00 L 67089407.00 39110593.00 L 68622516.00 40643701.04 L 68622516.00 41206299.00 L 68585040.00 41206299.00 L 68585040.00 41993701.00 L 69214960.00 41993701.00 L 69214960.00 41624321.70  zM 61100000.44 30799998.65 m -180637.35 0 a 180637.35 180637.35 0 1 1 361274.69 0a 180637.35 180637.35 0 1 1 -361274.69 0M 64636220.00 33988976.00 L 64439370.00 33988976.00 L 64439370.00 32611024.00 L 64636220.00 32611024.00 L 64636220.00 33988976.00  zM 69000000.44 30384258.65 m -180637.35 0 a 180637.35 180637.35 0 1 1 361274.69 0a 180637.35 180637.35 0 1 1 -361274.69 0M 65400000.44 38899998.65 m -180637.35 0 a 180637.35 180637.35 0 1 1 361274.69 0a 180637.35 180637.35 0 1 1 -361274.69 0M 68900000.44 41599998.65 m -180637.35 0 a 180637.35 180637.35 0 1 1 361274.69 0a 180637.35 180637.35 0 1 1 -361274.69 0"/>
<path id="N" d="M 57397823.00 37998426.00 L 57397823.00 36882762.50 L 57406853.00 36860962.00 L 57417678.00 36778741.00 L 57417678.00 36621259.00 A 317686.61 317686.61 0 0 0 56875368.00 36396627.00 L 56871109.31 36402177.00 L 55619297.78 36402177.00 L 55575088.00 36368254.00 L 55503258.00 36338501.00 L 55426176.00 36328353.00 L 55226154.09 36328353.00 L 54408063.00 35510261.09 L 54408063.00 27997823.00 L 57191405.71 27997823.00 L 57251451.00 28043897.00 A 397100.93 397100.93 0 1 0 57251451.00 27356103.00 L 57191405.71 27402177.00 L 54401169.46 27402177.00 L 54318716.00 27338908.00 A 416944.49 416944.49 0 0 0 53812417.00 27990929.46 L 53812417.00 35633624.00 A 297823.01 297823.01 0 0 0 53899647.00 35844217.00 L 54892199.00 36836769.00 A 297829.90 297829.90 0 0 0 55102792.00 36923999.00 L 55208452.22 36923999.00 L 55252662.00 36957922.00 L 55324492.00 36987675.00 L 55401574.00 36997823.00 L 56802177.00 36997823.00 L 56802177.00 37998426.00 A 297823.01 297823.01 0 0 0 57397823.00 37998426.00  zM 54110240.44 27699998.65 m -180637.35 0 a 180637.35 180637.35 0 1 1 361274.69 0a 180637.35 180637.35 0 1 1 -361274.69 0M 57450000.44 27699998.65 m -180637.35 0 a 180637.35 180637.35 0 1 1 361274.69 0a 180637.35 180637.35 0 1 1 -361274.69 0M 55500000.44 36699998.65 m -180637.35 0 a 180637.35 180637.35 0 1 1 361274.69 0a 180637.35 180637.35 0 1 1 -361274.69 0M 57100000.44 36699998.65 m -180637.35 0 a 180637.35 180637.35 0 1 1 361274.69 0a 180637.35 180637.35 0 1 1 -361274.69 0M 57099999.13 37900001.07 m -150528.93 0 a 150528.93 150528.93 0 1 1 301057.86 0a 150528.93 150528.93 0 1 1 -301057.86 0"/>
<path id="N" d="M 69078741.00 24882328.00 L 68921259.00 24882328.00 L 68839038.00 24893153.00 L 68817237.50 24902183.00 L 65223369.00 24902183.00 L 64540339.00 24219153.00 L 64540339.00 22745686.00 L 64635389.00 22650636.00 A 297829.90 297829.90 0 0 0 64722619.00 22440035.41 L 64722619.00 22148246.38 L 64785978.00 22122002.00 A 496363.67 496363.67 0 0 0 65034165.00 21692130.00 L 65034165.00 20707878.00 A 496358.81 496358.81 0 0 0 64888781.00 20356889.00 L 64835615.00 20316093.56 L 64835615.00 18817485.00 L 65361120.62 18291979.38 L 65400000.00 18297098.00 A 397100.93 397100.93 0 0 0 65743897.00 17701451.00 L 65697823.00 17641405.71 L 65697823.00 17130625.00 A 297823.01 297823.01 0 0 0 65610593.00 16920032.00 L 65379968.00 16689407.00 A 297829.90 297829.90 0 0 0 65169375.00 16602177.00 L 61682762.50 16602177.00 L 61660962.00 16593147.00 L 61578741.00 16582322.00 L 61421259.00 16582322.00 A 317686.61 317686.61 0 0 0 61421259.00 17217678.00 L 61578741.00 17217678.00 L 61660962.00 17206853.00 L 61682762.50 17197823.00 L 65046012.00 17197823.00 L 65102177.00 17253988.00 L 65102177.00 17641405.71 L 65056103.00 17701451.00 L 65018503.40 17792224.60 L 64327199.00 18483529.00 A 297829.90 297829.90 0 0 0 64239969.00 18694122.00 L 64239969.00 20316093.56 L 64186803.00 20356889.00 A 496384.78 496384.78 0 0 0 64041419.00 20707878.00 L 64041419.00 21692130.00 L 64058332.00 21820601.00 L 64107920.00 21940316.00 L 64126973.00 21965146.52 L 64126973.00 22316680.00 L 64031923.00 22411730.00 A 297829.90 297829.90 0 0 0 63944693.00 22622323.00 L 63944693.00 24342516.00 A 297823.01 297823.01 0 0 0 64031923.00 24553109.00 L 64889413.00 25410599.00 A 297829.90 297829.90 0 0 0 65100006.00 25497829.00 L 68817237.50 25497829.00 L 68839038.00 25506859.00 L 68921259.00 25517684.00 L 69078741.00 25517684.00 A 317671.90 317671.90 0 1 0 69078741.00 24882328.00  zM 61500000.44 16899998.65 m -180637.35 0 a 180637.35 180637.35 0 1 1 361274.69 0a 180637.35 180637.35 0 1 1 -361274.69 0M 65400000.44 17899998.65 m -180637.35 0 a 180637.35 180637.35 0 1 1 361274.69 0a 180637.35 180637.35 0 1 1 -361274.69 0M 64636217.00 21888980.00 L 64439367.00 21888980.00 L 64439367.00 20511028.00 L 64636217.00 20511028.00 L 64636217.00 21888980.00  zM 69000000.44 25200004.65 m -180637.35 0 a 180637.35 180637.35 0 1 1 361274.69 0a 180637.35 180637.35 0 1 1 -361274.69 0"/>
<path id="N" d="M 60609025.90 36781496.00 L 60884645.00 36781496.00 L 60884645.00 36407480.00 L 60609025.90 36407480.00 L 60540157.00 36393781.00 L 60485498.69 36393781.00 L 60355308.00 36263591.00 L 60290194.00 36220083.00 L 60213387.00 36204805.00 L 60140133.00 36204805.00 L 59606113.00 35670785.00 L 59606113.00 35346079.00 L 59590835.00 35269272.00 L 59547327.00 35204158.00 L 58895736.00 34552567.00 L 58830622.00 34509059.00 L 58753815.00 34493781.00 L 58693701.00 34493781.00 L 58693701.00 34285040.00 L 58201280.27 34285040.00 L 58181890.00 34281183.00 L 57965025.92 34281183.00 L 57417678.00 33733835.78 L 57417678.00 33621259.00 A 317686.61 317686.61 0 0 0 56793147.00 33539038.00 L 56792429.07 33544491.00 L 56328818.00 33544491.00 L 56252011.00 33559769.00 L 56186897.00 33603276.00 L 55511432.81 34278741.00 L 55106299.00 34278741.00 L 55106299.00 34869291.00 L 55893701.00 34869291.00 L 55893701.00 34464157.30 L 56411953.93 33945905.00 L 56831271.03 33945905.00 L 56875368.00 34003373.00 A 317671.90 317671.90 0 0 0 57182221.00 34085594.00 L 57196031.31 34079873.62 L 57739968.00 34623811.00 L 57805082.00 34667319.00 L 57881890.00 34682597.00 L 57906299.00 34682597.00 L 57906299.00 34914960.00 L 58690445.00 34914960.00 L 59204699.00 35429214.00 L 59204699.00 35753920.00 L 59219977.00 35830727.00 L 59263485.00 35895841.00 L 59915077.00 36547433.00 L 59980190.00 36590941.00 L 60056998.00 36606219.00 L 60130251.69 36606219.00 L 60195669.00 36671636.66 L 60195669.00 36781496.00 L 60333493.72 36781496.00 L 60402363.00 36795195.00 L 60540157.00 36795195.00 L 60609025.90 36781496.00  zM 55500000.44 34574014.65 m -180637.35 0 a 180637.35 180637.35 0 1 1 361274.69 0a 180637.35 180637.35 0 1 1 -361274.69 0M 57100000.44 33699998.65 m -180637.35 0 a 180637.35 180637.35 0 1 1 361274.69 0a 180637.35 180637.35 0 1 1 -361274.69 0M 58300000.68 34599999.74 m -100353.26 0 a 100353.26 100353.26 0 1 1 200706.53 0a 100353.26 100353.26 0 1 1 -200706.53 0"/>
<path id="N" d="M 68042453.65 44651876.91 L 67987555.00 44618235.00 A 1382226.82 1382226.82 0 0 1 68172488.00 42268438.00 L 68191339.00 42260629.64 L 68191339.00 42034759.11 L 68146494.91 42012644.41 L 68109270.00 42041208.00 L 68092175.27 42048288.97 L 68079916.00 41986658.00 L 68058839.00 41953858.00 A 317683.20 317683.20 0 0 0 68217678.00 41678741.00 L 68217678.00 41521259.00 A 317686.61 317686.61 0 0 0 67982221.00 41214406.00 L 67950000.03 41210163.87 L 67950000.04 41109300.45 L 68008326.00 41116979.00 L 68109270.00 41158792.00 L 68146494.91 41187355.59 L 68191339.00 41165240.89 L 68191338.33 40812598.75 L 68185812.59 40764886.59 L 66913236.00 39492310.00 L 65919457.00 39492310.00 L 65839574.00 39557869.00 A 791193.44 791193.44 0 0 1 64608788.00 38900000.00 L 64613163.67 38855573.23 L 64607690.00 38800000.00 A 692336.08 692336.08 0 0 1 65300000.00 38107690.00 L 67013236.00 38107690.00 L 68307690.00 36813236.00 L 68307690.00 31076570.00 L 67740299.00 31076570.00 L 65632454.00 33184415.00 L 65527544.00 33270513.00 L 65427908.00 33323769.41 L 65427908.00 33792126.00 A 890094.36 890094.36 0 0 1 63715438.00 34132757.00 L 63672833.47 33992310.00 L 63521260.00 33992310.00 A 692300.10 692300.10 0 0 1 63031723.00 33789537.00 L 60722910.69 31480724.69 L 60704384.00 31470822.00 L 60596476.00 31382265.00 L 60549493.65 31325016.32 L 60514957.94 31293701.00 L 60300707.00 31293701.00 L 60300707.00 31193701.00 L 60414960.00 31193701.00 L 60414960.00 30409555.08 L 60653936.61 30170578.73 L 60704384.00 30129178.00 A 712094.99 712094.99 0 0 1 61798407.00 30582337.00 L 61800126.24 30599792.24 L 63668890.68 32468556.68 L 63723397.38 32452351.97 L 63797693.00 32313354.00 A 890104.11 890104.11 0 0 1 64874419.40 31984301.60 L 66963998.00 29894723.00 A 692293.40 692293.40 0 0 1 67453535.00 29691950.00 L 68506299.00 29691950.00 L 68506299.00 29600715.00 L 68606299.00 29600715.00 L 68606299.00 29714968.00 L 69393701.00 29714968.00 L 69393701.00 29450008.02 L 69493701.00 29450008.02 L 69493701.00 29754224.48 L 69503901.90 29800000.00 L 69900000.00 29800000.00 L 69949999.93 30299997.22 L 70000000.00 30297503.43 L 70000000.00 28071118.46 L 69951876.91 28057546.35 L 69918235.00 28112445.00 A 1382226.82 1382226.82 0 1 1 68372872.00 25985436.00 L 68506299.00 25953403.07 L 68506299.00 25892316.00 L 65100006.00 25892316.00 A 692286.02 692286.02 0 0 1 64610469.00 25689543.00 L 63752979.00 24832053.00 A 692293.40 692293.40 0 0 1 63550206.00 24342516.00 L 63550206.00 22622323.00 A 692286.02 692286.02 0 0 1 63666881.00 22237696.00 L 63732486.00 22157756.62 L 63732486.00 22064661.33 L 63715435.00 22032761.00 L 63664782.00 21865782.00 L 63647679.00 21692130.00 L 63647679.00 20707878.00 A 890094.36 890094.36 0 0 1 63797690.00 20213358.00 L 63845482.00 20155123.14 L 63845482.00 18694122.00 A 692286.02 692286.02 0 0 1 64048255.00 18204585.00 L 64614335.60 17638504.40 L 64595201.25 17592310.00 L 62267509.54 17592310.00 L 62241120.24 17642310.52 L 62277148.00 17761078.00 A 712071.42 712071.42 0 0 1 61578741.00 18612090.00 L 61421259.00 18612090.00 L 61282337.00 18598407.00 L 61262237.90 18592310.00 L 60208661.00 18592310.00 L 60208661.00 18787402.00 L 59470412.00 18787402.00 L 58768277.00 19489537.00 A 692293.40 692293.40 0 0 1 58278740.00 19692310.00 L 54516896.81 19692310.00 L 54410353.00 19749259.00 A 810989.88 810989.88 0 0 1 53350741.00 19310353.00 L 53315671.95 19194745.95 L 52810463.00 18689537.00 A 692293.40 692293.40 0 0 1 52607690.00 18200000.00 L 52607690.00 16550485.43 L 52561963.00 16464936.00 L 52558103.00 16452211.11 L 52558103.00 15947788.89 L 52560776.18 15938976.49 L 52560220.12 15926100.48 L 52558103.00 15922568.27 L 52558103.00 14523082.82 L 52656764.70 14424420.96 L 52807053.00 14470010.00 A 988994.34 988994.34 0 0 0 53549467.00 14322335.00 L 53626631.70 14259007.97 L 53784816.28 14250596.52 L 53769053.00 14269053.00 L 53639278.00 14379891.00 L 53506881.04 14461023.67 L 53520982.55 14511024.00 L 54087402.00 14511024.00 L 54087402.00 14661394.00 L 54865128.33 14661394.00 L 54904384.00 14629178.00 A 712094.99 712094.99 0 0 1 55892081.00 14825643.00 L 55943574.30 14921980.49 L 56002227.07 14927677.75 L 56070816.36 14874072.23 L 56142380.82 14945636.74 A 315268.81 315268.81 0 0 0 55982322.00 15221259.00 L 55982322.00 15378741.00 A 317686.61 317686.61 0 0 0 56141161.00 15653858.00 L 56190528.46 15674306.54 L 56113991.59 15750843.41 L 56090730.00 15741208.00 L 56002227.07 15672322.25 L 55943574.30 15678019.51 L 55892081.00 15774357.00 A 712057.32 712057.32 0 0 1 54796476.00 15882265.00 L 54768528.04 15848210.00 L 54087402.00 15848210.00 L 54087402.00 15888976.00 L 54062031.46 15888976.00 L 54039779.88 15926100.48 L 54039223.82 15938976.49 L 54077433.00 16064937.00 A 692286.84 692286.84 0 0 1 54038037.00 16464936.00 L 53992310.00 16550485.43 L 53992310.00 17913236.00 L 54294745.95 18215671.95 L 54410353.00 18250741.00 L 54516896.81 18307690.00 L 57186934.37 18307690.00 L 57216719.73 18267529.08 L 57201593.00 18217663.00 L 57187910.00 18078741.00 L 57187910.00 17921259.00 L 57192401.81 17875654.15 L 57158823.42 17838606.00 L 57034871.67 17838606.00 L 56995616.00 17870822.00 A 712094.99 712094.99 0 0 1 56007919.00 17674357.00 L 55956425.70 17578019.51 L 55897772.93 17572322.25 L 55809270.00 17641208.00 L 55708326.00 17683021.00 L 55650000.00 17690699.55 L 55650000.00 17589836.13 L 55682221.00 17585594.00 A 317671.90 317671.90 0 0 0 55875117.00 17437580.00 L 55904338.29 17367033.09 L 55941921.00 17341921.00 L 55985429.00 17276807.00 L 56000707.00 17200000.00 L 56000707.00 16739135.74 L 56007919.00 16725643.00 A 712057.32 712057.32 0 0 1 56600000.00 16409169.00 L 56679842.94 16417033.06 L 57721991.00 15374885.00 A 593405.42 593405.42 0 0 1 58025825.00 15212482.00 L 58062579.41 15208862.09 L 58106299.19 15193700.24 L 58106300.00 14900707.00 L 58206300.00 14900707.00 L 58206300.00 15093701.00 L 58993700.00 15093701.00 L 58993700.00 14900707.00 L 59093700.27 14900707.00 L 59093700.76 15193700.11 L 59140644.02 15201080.00 L 60712598.00 15201080.00 L 60712598.00 15191339.00 L 62287402.00 15191339.00 L 62287402.00 16207690.00 L 64906299.00 16207690.00 L 64906299.00 15949999.96 L 65006299.00 15949999.97 L 65006299.00 16293701.00 L 65793701.00 16293701.00 L 65794513.63 16099615.68 L 65893701.00 16198803.15 L 65893701.00 16393701.00 L 65712861.28 16393701.00 L 65692150.43 16443701.43 L 65889537.00 16641088.00 A 692293.40 692293.40 0 0 1 66092310.00 17130625.00 L 66092310.00 17524860.38 L 66130985.00 17597216.00 A 791227.24 791227.24 0 0 1 65554358.00 18676009.00 L 65532861.80 18678126.20 L 65230102.00 18980886.00 L 65230102.00 20155123.14 L 65277894.00 20213358.00 A 890133.85 890133.85 0 0 1 65427905.00 20707878.00 L 65427905.00 21692130.00 A 890094.36 890094.36 0 0 1 65167197.00 22321535.00 L 65117106.00 22362643.53 L 65117106.00 22440043.00 L 65113140.57 22480306.37 L 65159659.44 22518113.91 L 65275980.00 22502800.00 L 65668898.05 22502800.00 L 65668898.04 22603663.00 L 65275980.00 22603663.00 A 446733.54 446733.54 0 1 0 65275980.00 23497133.00 L 65668897.96 23497133.00 L 65668897.95 23597996.00 L 65275980.00 23597996.00 L 65134251.00 23579337.00 L 65002181.00 23524632.00 L 64979670.15 23507358.68 L 64934826.00 23529473.26 L 64934826.00 24055752.00 L 65386770.00 24507696.00 L 68506299.00 24507696.00 L 68506299.00 24265753.98 L 68606299.00 24265753.98 L 68606299.00 24530714.00 L 69393701.00 24530714.00 L 69393701.00 24265754.02 L 69493701.00 24265754.02 L 69493701.00 24623800.07 L 69502124.51 24630713.00 L 69969287.00 24630713.00 L 70000000.00 24600000.00 L 70000000.00 14271118.46 L 69951876.91 14257546.35 L 69918235.00 14312445.00 A 1382226.82 1382226.82 0 1 1 67822627.00 12522627.00 L 67911280.15 12446909.96 L 67893974.14 12400000.00 L 53276919.89 12400000.00 L 53271001.95 12450000.16 L 53336088.00 12465626.00 L 53493762.00 12530937.00 L 53639278.00 12620109.00 L 53698322.64 12670537.74 L 53549467.00 12677665.00 A 989001.57 989001.57 0 0 0 52029990.00 13307053.00 L 52015910.67 13450000.00 L 51916330.02 13450000.00 L 51925785.00 13329861.00 A 1087599.90 1087599.90 0 0 1 52663912.00 12465626.00 L 52728998.05 12450000.16 L 52723080.11 12400000.00 L 51800000.00 12400000.00 L 51800000.00 14201352.43 L 51777438.00 14255822.00 L 51763907.00 14358599.00 L 51763907.00 21261005.00 L 51777438.00 21363782.00 L 51800000.00 21418251.57 L 51800000.00 42728881.54 L 51848123.09 42742453.65 L 51881765.00 42687555.00 A 1382226.82 1382226.82 0 1 1 53812445.00 44618235.00 L 53757546.35 44651876.91 L 53771118.46 44700000.00 L 68028881.54 44700000.00 L 68042453.65 44651876.91  zM 52011407.76 13946614.45 L 51965626.00 13836088.00 L 51925785.00 13670139.00 L 51916330.02 13550000.00 L 52015910.67 13550000.00 L 52029990.00 13692947.00 L 52084704.41 13873317.91 L 52011407.76 13946614.45  zM 52999999.40 13499999.06 m -593408.94 0 a 593408.94 593408.94 0 1 1 1186817.89 0a 593408.94 593408.94 0 1 1 -1186817.89 0M 55282322.00 17150000.00 L 55181459.00 17150000.00 L 55181459.00 17121259.00 A 418533.70 418533.70 0 0 1 55491674.00 16716979.00 L 55550000.00 16709300.45 L 55550000.00 16810163.87 L 55517779.00 16814406.00 A 317671.90 317671.90 0 0 0 55282322.00 17121259.00 L 55282322.00 17150000.00  zM 55600000.44 17199998.65 m -180637.35 0 a 180637.35 180637.35 0 1 1 361274.69 0a 180637.35 180637.35 0 1 1 -361274.69 0M 55550000.00 17690699.55 L 55491674.00 17683021.00 A 418552.54 418552.54 0 0 1 55181459.00 17278741.00 L 55181459.00 17250000.00 L 55282322.00 17250000.00 L 55282322.00 17278741.00 A 317686.61 317686.61 0 0 0 55517779.00 17585594.00 L 55550000.00 17589836.13 L 55550000.00 17690699.55  zM 56606219.00 14973860.00 L 56606219.00 14938684.80 L 56621491.22 14958587.78 L 56606219.00 14973860.00  zM 56300000.44 15299998.65 m -180637.35 0 a 180637.35 180637.35 0 1 1 361274.69 0a 180637.35 180637.35 0 1 1 -361274.69 0M 56655509.00 15597079.77 L 56655509.00 15475552.60 L 56705842.00 15441921.00 L 56710887.68 15436875.32 L 56704280.00 15487067.00 L 56662467.00 15588012.00 L 56655509.00 15597079.77  zM 58206300.00 14499293.00 L 58106300.00 14499293.00 L 58106300.00 14206299.00 L 58550000.01 14206299.00 L 58550000.00 14306299.00 L 58206300.00 14306299.00 L 58206300.00 14499293.00  zM 58600000.44 14699998.65 m -180637.35 0 a 180637.35 180637.35 0 1 1 361274.69 0a 180637.35 180637.35 0 1 1 -361274.69 0M 59093700.11 14499293.00 L 58993700.00 14499293.00 L 58993700.00 14306299.00 L 58650000.00 14306299.00 L 58650000.01 14206299.00 L 59093700.00 14206299.00 L 59093700.11 14499293.00  zM 65006299.00 15849999.97 L 64906299.00 15849999.96 L 64906299.00 15490141.60 L 65006299.00 15590141.69 L 65006299.00 15849999.97  zM 65400000.44 15899998.65 m -180637.35 0 a 180637.35 180637.35 0 1 1 361274.69 0a 180637.35 180637.35 0 1 1 -361274.69 0M 65893701.00 15702268.95 L 65884226.30 15700384.30 L 65823811.00 15639969.00 L 65793701.00 15619850.04 L 65793701.00 15506299.00 L 65490141.88 15506299.00 L 65450000.04 15466157.20 L 65450000.04 15406299.00 L 65893701.00 15406299.00 L 65893701.00 15702268.95  zM 66605127.00 22100983.53 L 66512787.00 22030128.00 A 547587.27 547587.27 0 0 1 66352399.00 21642918.00 L 66352399.00 21250004.98 L 66453262.00 21250004.98 L 66453262.00 21642918.00 A 446726.20 446726.20 0 0 0 66584108.00 21958807.00 L 66605127.00 21974935.70 L 66605127.00 22100983.53  zM 66453262.00 21150004.98 L 66352399.00 21150004.98 L 66352399.00 20757090.00 A 547600.66 547600.66 0 0 1 66626198.00 20282856.00 L 66699290.00 20252580.40 L 66699290.00 20360819.51 L 66676629.00 20370206.00 A 446752.54 446752.54 0 0 0 66453262.00 20757090.00 L 66453262.00 21150004.98  zM 67447595.00 21150005.02 L 67346732.00 21150005.02 L 67346732.00 20757090.00 A 446726.20 446726.20 0 0 0 67123365.00 20370206.00 L 67100704.00 20360819.51 L 67100704.00 20252580.40 L 67173796.00 20282856.00 A 547614.01 547614.01 0 0 1 67447595.00 20757090.00 L 67447595.00 21150005.02  zM 66998422.00 21790555.00 L 66801572.00 21790555.00 L 66801572.00 20609453.00 L 66998422.00 20609453.00 L 66998422.00 21790555.00  zM 67126210.50 22136862.49 L 67120629.00 22131281.00 L 67055515.00 22087773.00 L 67006541.00 22078031.38 L 67006541.00 22075626.39 L 67015621.00 22074431.00 A 446720.81 446720.81 0 0 0 67346732.00 21642918.00 L 67346732.00 21250005.02 L 67447595.00 21250005.02 L 67447595.00 21642918.00 A 547600.66 547600.66 0 0 1 67173796.00 22117152.00 L 67126210.50 22136862.49  zM 57407758.88 24499293.00 L 57298757.76 24499293.00 L 57318753.00 24451020.00 A 497940.77 497940.77 0 0 1 57621118.00 24219007.00 L 57700000.02 24208621.76 L 57700000.02 24309484.70 L 57647223.00 24316433.00 A 397102.15 397102.15 0 0 0 57407758.88 24499293.00  zM 57750000.44 24699998.65 m -180637.35 0 a 180637.35 180637.35 0 1 1 361274.69 0a 180637.35 180637.35 0 1 1 -361274.69 0M 58201242.24 24499293.00 L 58092241.12 24499293.00 A 391877.54 391877.54 0 0 0 57852777.00 24316433.00 L 57800000.02 24309484.70 L 57800000.02 24208621.77 L 57878882.00 24219007.00 A 497968.61 497968.61 0 0 1 58181247.00 24451020.00 L 58201242.24 24499293.00  zM 57699999.98 25191378.23 L 57621118.00 25180993.00 A 497968.61 497968.61 0 0 1 57318753.00 24948980.00 L 57298757.76 24900707.00 L 57407758.88 24900707.00 A 391877.54 391877.54 0 0 0 57647223.00 25083567.00 L 57699999.98 25090515.30 L 57699999.98 25191378.23  zM 57799999.98 25191378.24 L 57799999.98 25090515.30 L 57852777.00 25083567.00 A 397102.15 397102.15 0 0 0 58092241.12 24900707.00 L 58201242.24 24900707.00 L 58181247.00 24948980.00 A 497940.77 497940.77 0 0 1 57878882.00 25180993.00 L 57799999.98 25191378.24  zM 66309445.00 23148823.00 L 65128343.00 23148823.00 L 65128343.00 22951973.00 L 66309445.00 22951973.00 L 66309445.00 23148823.00  zM 66188073.17 22607120.83 L 66161808.00 22603663.00 L 65768898.04 22603663.00 L 65768898.05 22502800.00 L 66161808.00 22502800.00 L 66277202.06 22517991.94 L 66188073.17 22607120.83  zM 59785040.00 30749999.97 L 59685040.00 30749999.96 L 59685040.00 30306299.00 L 60001714.89 30306299.00 L 59993781.00 30346185.00 L 59993781.00 30406299.00 L 59785040.00 30406299.00 L 59785040.00 30749999.97  zM 60100000.44 30799998.65 m -180637.35 0 a 180637.35 180637.35 0 1 1 361274.69 0a 180637.35 180637.35 0 1 1 -361274.69 0M 66161808.00 23597996.00 L 65768897.95 23597996.00 L 65768897.96 23497133.00 L 66161808.00 23497133.00 A 446733.54 446733.54 0 0 0 66593321.00 23166022.00 L 66601960.45 23100398.08 L 66702823.36 23100398.09 L 66690747.00 23192127.00 A 547587.27 547587.27 0 0 1 66161808.00 23597996.00  zM 66702823.38 23000398.09 L 66601960.47 23000398.08 L 66593321.00 22934774.00 L 66548692.00 22827030.00 L 66543115.42 22819762.58 L 66614436.12 22748441.88 L 66636042.00 22776599.00 L 66690747.00 22908669.00 L 66702823.38 23000398.09  zM 68587417.08 24165753.98 L 68506299.00 24165753.98 L 68506299.00 24084635.86 L 68587417.08 24165753.98  zM 68950000.01 23900794.00 L 68890142.91 23900794.00 L 68790142.86 23800794.00 L 68950000.02 23800794.00 L 68950000.01 23900794.00  zM 69493701.00 24165754.02 L 69393701.00 24165754.02 L 69393701.00 23900794.00 L 69050000.01 23900794.00 L 69050000.02 23800794.00 L 69493701.00 23800794.00 L 69493701.00 24165754.02  zM 69000000.44 24215752.65 m -180637.35 0 a 180637.35 180637.35 0 1 1 361274.69 0a 180637.35 180637.35 0 1 1 -361274.69 0M 68606299.00 29199301.00 L 68506299.00 29199301.00 L 68506299.00 28985048.00 L 68950000.02 28985048.00 L 68950000.01 29085048.00 L 68606299.00 29085048.00 L 68606299.00 29199301.00  zM 69000000.44 29400006.65 m -180637.35 0 a 180637.35 180637.35 0 1 1 361274.69 0a 180637.35 180637.35 0 1 1 -361274.69 0M 69493701.00 29350008.02 L 69393701.00 29350008.02 L 69393701.00 29085048.00 L 69050000.01 29085048.00 L 69050000.02 28985048.00 L 69493701.00 28985048.00 L 69493701.00 29350008.02  zM 59899293.00 31293701.00 L 59685040.00 31293701.00 L 59685040.00 30849999.96 L 59785040.00 30849999.97 L 59785040.00 31193701.00 L 59899293.00 31193701.00 L 59899293.00 31293701.00  zM 60460812.00 33106299.00 L 60400954.74 33106299.00 L 60300954.28 33006299.00 L 60460812.01 33006299.00 L 60460812.00 33106299.00  zM 60117113.00 33449999.00 L 60017113.00 33449998.99 L 60017113.00 33290142.28 L 60114347.48 33387377.22 L 60117113.00 33401280.27 L 60117113.00 33449999.00  zM 60510813.44 33499998.65 m -180637.35 0 a 180637.35 180637.35 0 1 1 361274.69 0a 180637.35 180637.35 0 1 1 -361274.69 0M 60460811.99 33993701.00 L 60017113.00 33993701.00 L 60017113.00 33549998.99 L 60117113.00 33549999.00 L 60117113.00 33893701.00 L 60460812.00 33893701.00 L 60460811.99 33993701.00  zM 61004513.00 33449999.01 L 60904513.00 33449999.00 L 60904513.00 33106299.00 L 60560812.00 33106299.00 L 60560812.01 33006299.00 L 61004513.00 33006299.00 L 61004513.00 33449999.01  zM 61004513.00 33993701.00 L 60560811.99 33993701.00 L 60560812.00 33893701.00 L 60904513.00 33893701.00 L 60904513.00 33549999.00 L 61004513.00 33549999.01 L 61004513.00 33993701.00  zM 64835831.08 35100389.92 L 64734968.17 35100389.91 L 64747044.00 35008665.00 A 547587.27 547587.27 0 0 1 65275983.00 34602796.00 L 65668895.05 34602796.00 L 65668895.04 34703659.00 L 65275983.00 34703659.00 A 446726.20 446726.20 0 0 0 64844470.00 35034770.00 L 64835831.08 35100389.92  zM 65099293.00 35664851.73 L 65002184.00 35624628.00 A 547614.01 547614.01 0 0 1 64747044.00 35292123.00 L 64734967.10 35200389.91 L 64835830.01 35200389.92 L 64844470.00 35266018.00 A 446720.81 446720.81 0 0 0 65052616.00 35537278.00 L 65099293.00 35556612.41 L 65099293.00 35664851.73  zM 66453265.00 33249999.98 L 66352402.00 33249999.98 L 66352402.00 32857086.00 A 547600.66 547600.66 0 0 1 66758271.00 32328147.00 L 66850000.04 32316070.63 L 66850000.04 32416933.54 L 66784376.00 32425573.00 A 446720.81 446720.81 0 0 0 66453265.00 32857086.00 L 66453265.00 33249999.98  zM 67447598.00 33250000.02 L 67346735.00 33250000.02 L 67346735.00 32857086.00 A 446733.54 446733.54 0 0 0 67015624.00 32425573.00 L 66950000.04 32416933.55 L 66950000.04 32316070.64 L 67041729.00 32328147.00 A 547587.27 547587.27 0 0 1 67447598.00 32857086.00 L 67447598.00 33250000.02  zM 66998425.00 33890551.00 L 66801575.00 33890551.00 L 66801575.00 32709449.00 L 66998425.00 32709449.00 L 66998425.00 33890551.00  zM 66447371.02 34044868.98 L 66425766.00 34016713.00 L 66371061.00 33884643.00 L 66352402.00 33742914.00 L 66352402.00 33349999.98 L 66453265.00 33349999.98 L 66453265.00 33742914.00 L 66468487.00 33858538.00 L 66513116.00 33966282.00 L 66518691.71 33973548.29 L 66447371.02 34044868.98  zM 66949999.96 34283929.37 L 66949999.96 34183066.46 L 67015624.00 34174427.00 A 446720.81 446720.81 0 0 0 67346735.00 33742914.00 L 67346735.00 33350000.02 L 67447598.00 33350000.02 L 67447598.00 33742914.00 A 547600.66 547600.66 0 0 1 67041729.00 34271853.00 L 66949999.96 34283929.37  zM 66309448.00 35248819.00 L 65128346.00 35248819.00 L 65128346.00 35051969.00 L 66309448.00 35051969.00 L 66309448.00 35248819.00  zM 66055266.00 34703659.00 L 65768895.04 34703659.00 L 65768895.05 34602796.00 L 66055266.00 34602796.00 L 66055266.00 34703659.00  zM 66849999.96 34283929.36 L 66784604.17 34275319.83 L 66849999.96 34209924.04 L 66849999.96 34283929.36  zM 66702825.85 35100390.09 L 66601962.94 35100390.08 L 66593324.00 35034770.00 L 66548695.00 34927026.00 L 66477700.00 34834505.00 L 66456680.00 34818375.70 L 66456680.00 34692327.71 L 66549021.00 34763184.00 L 66636045.00 34876595.00 L 66690750.00 35008665.00 L 66702825.85 35100390.09  zM 66161811.00 35697992.00 L 65768894.95 35697992.00 L 65768894.96 35597129.00 L 66161811.00 35597129.00 A 446726.20 446726.20 0 0 0 66593324.00 35266018.00 L 66601963.97 35200390.08 L 66702826.88 35200390.09 L 66690750.00 35292123.00 A 547587.27 547587.27 0 0 1 66161811.00 35697992.00  zM 63469375.00 44293408.00 L 58224925.00 44293408.00 A 593408.94 593408.94 0 0 1 57805322.00 44119603.00 L 57125595.00 43439876.00 L 57051797.00 43349953.00 L 56996960.00 43247361.00 L 56965918.99 43145030.84 L 56907919.00 43074357.00 A 712094.99 712094.99 0 0 1 56787910.00 42678741.00 L 56787910.00 42521259.00 L 56801593.00 42382337.00 L 56842115.00 42248754.00 L 56867031.00 42202139.30 L 56867031.00 41732969.00 L 56918183.00 41681817.00 L 58896695.25 41681817.00 L 58915829.60 41635622.60 L 57625595.00 40345388.00 L 57551797.00 40255465.00 L 57525325.75 40205941.16 L 57496476.00 40182265.00 L 57407919.00 40074357.00 L 57342115.00 39951246.00 L 57309468.25 39843624.20 L 57255757.20 39811751.96 L 57203188.00 39833527.00 L 57149999.98 39840529.36 L 57149999.98 39739666.40 L 57177082.00 39736101.00 A 297829.90 297829.90 0 0 0 57397823.00 39448426.00 L 57397823.00 39251574.00 A 297823.01 297823.01 0 0 0 57177082.00 38963899.00 L 57150000.02 38960333.60 L 57150000.02 38859470.65 L 57203188.00 38866473.00 L 57299343.00 38906302.00 L 57381914.00 38969660.00 L 57389228.82 38979193.00 L 57543439.99 38979193.00 L 57604384.00 38929178.00 A 712094.99 712094.99 0 0 1 58592081.00 39125643.00 L 58643574.30 39221980.49 L 58702227.07 39227677.75 L 58790730.00 39158792.00 L 58872167.84 39125058.84 L 58899852.64 39070784.48 L 58860389.00 38996953.00 L 58820992.00 38867080.00 L 58807690.00 38732017.00 L 58807690.00 38569622.03 L 58798031.01 38523622.00 L 57546086.68 38523622.00 L 57484627.00 38574061.00 A 692300.20 692300.20 0 0 1 56407690.00 37998426.00 L 56407690.00 37888571.00 L 55913647.00 37394528.00 L 55193074.00 37394528.00 L 55138818.41 37340272.41 L 55095833.56 37317800.63 L 54967729.00 37305183.00 A 692300.20 692300.20 0 0 1 54613255.00 37115713.00 L 53620703.00 36123161.00 A 692293.40 692293.40 0 0 1 53417930.00 35633624.00 L 53417930.00 28116896.81 L 53360981.00 28010353.00 A 810989.88 810989.88 0 0 1 54420593.00 26950741.00 L 54527136.81 27007690.00 L 57074860.38 27007690.00 L 57147216.00 26969015.00 A 791227.24 791227.24 0 1 1 57147216.00 28430985.00 L 57074860.38 28392310.00 L 54802550.00 28392310.00 L 54802550.00 33000000.00 L 56758972.36 33000000.00 L 56827495.00 32963374.00 A 712098.72 712098.72 0 0 1 57372505.00 32963374.00 L 57441027.64 33000000.00 L 58000000.00 33000000.00 L 58000000.00 33067928.00 L 58823411.00 33891339.00 L 59087402.00 33891339.00 L 59087402.00 34155330.00 L 59832072.00 34900000.00 L 60000725.89 34900000.00 L 60071240.00 34842131.00 A 791198.52 791198.52 0 0 1 61070284.00 34940528.00 L 61079526.41 34951790.00 L 61345198.00 34951790.00 A 593418.90 593418.90 0 0 1 61764801.00 35125595.00 L 63019603.00 36380397.00 A 593415.38 593415.38 0 0 1 63193408.00 36800000.00 L 63193408.00 37680587.00 A 593418.90 593418.90 0 0 1 63019603.00 38100190.00 L 62455730.40 38664062.60 L 62474864.75 38710257.00 L 62903665.00 38710257.00 A 593418.90 593418.90 0 0 1 63323268.00 38884062.00 L 65319603.00 40880397.00 A 593415.38 593415.38 0 0 1 65493408.00 41300000.00 L 65493408.00 41466907.28 L 65543408.46 41490156.37 L 65611988.00 41437533.00 L 65712933.00 41395720.00 L 65821259.00 41381459.00 L 65850000.04 41381459.00 L 65850000.03 41482322.00 L 65821259.00 41482322.00 A 317686.61 317686.61 0 1 0 65821259.00 42117678.00 L 65849999.97 42117678.00 L 65849999.96 42218541.00 L 65821259.00 42218541.00 L 65712933.00 42204280.00 L 65611988.00 42162467.00 L 65543408.46 42109843.63 L 65493408.00 42133092.72 L 65493408.00 42269375.00 A 593408.94 593408.94 0 0 1 65319603.00 42688978.00 L 63888978.00 44119603.00 A 593415.38 593415.38 0 0 1 63469375.00 44293408.00  zM 65668894.95 35697992.00 L 65500707.00 35697992.00 L 65500707.00 35597129.00 L 65668894.96 35597129.00 L 65668894.95 35697992.00  zM 64906299.00 36831119.00 L 64906299.00 36406299.00 L 65099293.00 36406299.00 L 65099293.00 36506299.00 L 65006299.00 36506299.00 L 65006299.00 36731119.00 L 64906299.00 36831119.00  zM 65893701.00 36850000.04 L 65793701.00 36850000.03 L 65793701.00 36506299.00 L 65500707.00 36506299.00 L 65500707.00 36406299.00 L 65893701.00 36406299.00 L 65893701.00 36850000.04  zM 56822762.78 39149293.00 L 56714899.00 39148386.00 A 398700.16 398700.16 0 0 1 56996812.00 38866473.00 L 57050000.02 38859470.64 L 57050000.02 38960333.60 L 57022918.00 38963899.00 A 297829.90 297829.90 0 0 0 56842078.00 39102662.00 L 56822762.78 39149293.00  zM 65349999.96 37393701.00 L 64911401.00 37393701.00 L 65011401.00 37293701.00 L 65349999.97 37293701.00 L 65349999.96 37393701.00  zM 65400000.44 36899998.65 m -180637.35 0 a 180637.35 180637.35 0 1 1 361274.69 0a 180637.35 180637.35 0 1 1 -361274.69 0M 65893701.00 37393701.00 L 65449999.96 37393701.00 L 65449999.97 37293701.00 L 65793701.00 37293701.00 L 65793701.00 36950000.03 L 65893701.00 36950000.04 L 65893701.00 37393701.00  zM 57099999.13 39350001.07 m -150528.93 0 a 150528.93 150528.93 0 1 1 301057.86 0a 150528.93 150528.93 0 1 1 -301057.86 0M 57049999.98 39840529.35 L 56996812.00 39833527.00 A 398700.16 398700.16 0 0 1 56714779.59 39550707.00 L 56822762.78 39550707.00 L 56842078.00 39597338.00 A 297809.61 297809.61 0 0 0 57022918.00 39736101.00 L 57049999.98 39739666.40 L 57049999.98 39840529.35  zM 65900000.44 41799998.65 m -180637.35 0 a 180637.35 180637.35 0 1 1 361274.69 0a 180637.35 180637.35 0 1 1 -361274.69 0M 65978741.00 42218541.00 L 65949999.96 42218541.00 L 65949999.97 42117678.00 L 65978741.00 42117678.00 A 317686.61 317686.61 0 0 0 66285594.00 41882221.00 L 66289836.13 41850000.03 L 66390699.55 41850000.04 L 66383021.00 41908326.00 A 418552.54 418552.54 0 0 1 65978741.00 42218541.00  zM 66390699.56 41750000.04 L 66289836.14 41750000.03 L 66285594.00 41717779.00 A 317671.90 317671.90 0 0 0 65978741.00 41482322.00 L 65950000.03 41482322.00 L 65950000.04 41381459.00 L 65978741.00 41381459.00 L 66087067.00 41395720.00 L 66129420.86 41413263.63 L 66365477.14 41649320.00 L 66383021.00 41691674.00 L 66390699.56 41750000.04  zM 67599293.00 41968498.52 L 67537533.00 41888012.00 L 67495720.00 41787067.00 L 67481459.00 41678741.00 L 67481459.00 41649999.96 L 67582322.00 41649999.97 L 67582322.00 41678741.00 L 67593147.00 41760962.00 L 67608618.80 41798314.48 L 67599293.00 41845198.00 L 67599293.00 41968498.52  zM 67582322.00 41549999.97 L 67481459.00 41549999.96 L 67481459.00 41521259.00 A 418533.70 418533.70 0 0 1 67791674.00 41116979.00 L 67850000.04 41109300.44 L 67850000.03 41210163.86 L 67817779.00 41214406.00 A 317671.90 317671.90 0 0 0 67582322.00 41521259.00 L 67582322.00 41549999.97  zM 67900000.44 41599998.65 m -180637.35 0 a 180637.35 180637.35 0 1 1 361274.69 0a 180637.35 180637.35 0 1 1 -361274.69 0"/>
<path id="N" d="M 59317678.00 39678741.00 L 59317678.00 39521259.00 A 317686.61 317686.61 0 1 0 58682322.00 39521259.00 L 58682322.00 39678741.00 A 317686.61 317686.61 0 0 0 59317678.00 39678741.00  zM 59000000.44 39599998.65 m -180637.35 0 a 180637.35 180637.35 0 1 1 361274.69 0a 180637.35 180637.35 0 1 1 -361274.69 0"/>
</g>
</svg>
