**ABCDEFGHIJKLMNOPQRSTUVWXYZabcdefghijklmnopqrstuvwxyz**************************
**PARASOLID !"#$%&'()*+,-./:;<=>?@[\]^_`{|}~0123456789**************************
**PART1;
MC=AMD64;
MC_MODEL=Intel64 Family 6 Model 69 Stepping 1, GenuineIntel;
MC_ID=unknown;
OS=Windows_NT;
OS_RELEASE=unknown;
FRU=CAD Exchanger 3.6.1 (cadexchanger.com);
APPL=unknown;
SITE=unknown;
USER=unknown;
FORMAT=text;
GUISE=transmit;
KEY=Pin_Pin;
FILE=Pin_Pin.x_t;
DATE=Tue Dec 15 01:37:22 2020;
**PART2;
SCH=SCH_1200000_12006;
USFLD_SIZE=0;
**PART3;
**END_OF_HEADER*****************************************************************
T51 : TRANSMIT FILE created by modeller version 120000017 SCH_1200000_120060 74
 2 1 2 0 2 66 12 2 40 0 3 0 0 0 0 1000 1e-008 0 0 0 1 0 1 1 39 7 13 11 36 12 10
 70 3 0 2 0 0 4 1 20 0 4 4 1 T74 20 4 1 0 5 0 0 0 0 0 0 0 0 0 0 0 0 0 0 0 0 0 0
 0 81 1 5 7 33 6 0 0 42 0 35 14 6 5 5 1e-008 40 0 8 39 7 +0 0 40 0 37 51 7 6 0 6
 41 0 0 +0 0 0.0001 -0 -0 -1 0.002375 1 0 0 15 8 8 0 9 6 0 17 9 0 8 17 29 10 14
 12 0 22 +18 10 9 0 9 0 15 11 ?2 29 11 10 0 10 16 0 -0.002375 1.454267927812e-01
9 0.0001 16 12 11 0 ?9 0 20 13 0 0 2 31 13 12 0 12 21 0 0 +0 0 0.0001 0 0 1 1 0
 0 0.002375 17 14 0 44 45 49 15 9 12 0 48 -18 15 13 0 29 10 18 16 ?2 29 16 14 0
 15 19 11 0.002375 -2.908536175628e-019 0.0001 17 17 0 8 23 9 18 22 20 0 58 +18
 18 15 0 17 15 24 19 ?2 29 19 16 0 18 25 16 -0.002375 1.454267927812e-019 0.0102
6 16 20 17 0 ?17 12 26 21 0 0 2 30 21 18 0 20 27 13 0 +-0.002375 1.454267927812e
-019 0.0001 0 0 1 17 22 0 0 61 61 10 17 20 0 52 -17 23 0 8 29 17 24 28 26 0 0 -1
8 24 19 0 32 18 0 25 ?2 29 25 20 0 24 0 19 0.002375 -2.908536175628e-019 0.01026
 16 26 21 0 ?28 20 30 27 0 0 2 31 27 22 0 26 31 21 0 +0 0 0.01026 0 0 1 1 0 0 0.
002375 17 28 0 57 58 62 18 23 26 0 61 +17 29 0 8 9 23 15 32 30 0 14 -16 30 23 0
 ?32 26 46 31 0 0 2 30 31 24 0 30 47 27 0 +0.002375 -2.908536175628e-019 0.0001
 0 0 1 17 32 0 0 65 48 24 29 30 0 62 +80 1 33 0 34 8001 0 0 0 0 3 5 0 0 FFFFTFTF
FFFFFF2 79 15 34 SDL/TYSA_COLOUR83 3 35 0.300000011920929 0.300000011920929 0.30
0000011920929 19 36 1 0 2 38 0 37 V13 37 2 0 2 0 0 0 0 36 6 19 38 3 0 2 0 36 39
 S13 39 4 0 2 0 6 0 0 38 0 14 40 25 42 1e-008 53 6 44 39 41 -0 0 53 6 37 50 41 2
6 0 40 54 7 0 +-4.986264812352e-019 -3.809050892127e-020 0.0001 0 0 1 1 0 0 81 1
 42 27 33 40 0 0 55 5 43 83 3 43 0.300000011920929 0.300000011920929 0.300000011
920929 15 44 28 0 14 40 0 17 45 0 44 49 14 10 48 46 0 0 -16 46 29 0 ?48 30 50 47
 0 0 2 31 47 30 0 46 51 31 0 +0 0 0.0001 0 0 1 1 0 0 0.002375 17 48 0 0 32 65 15
 45 46 0 0 +17 49 0 44 14 45 10 52 50 0 45 -16 50 31 0 ?52 46 59 51 0 0 2 30 51
 32 0 50 60 47 0 +-0.002375 0 0.0001 0 1 0 17 52 0 0 0 0 10 49 50 0 49 +14 53 33
 55 1e-008 0 40 57 39 54 +0 0 0 40 37 50 54 34 0 53 0 41 0 +-4.986264812352e-019
 -3.809050892127e-020 0.01026 0 0 1 1 0 0 81 1 55 35 33 53 0 0 0 42 56 83 3 56 0
.300000011920929 0.300000011920929 0.300000011920929 15 57 36 0 58 53 0 17 58 0
 57 62 28 18 61 59 0 28 +16 59 37 0 ?58 50 63 60 0 0 2 30 60 38 0 59 64 51 0 +-0
.002375 0 0.01026 0 1 0 17 61 0 0 22 22 18 58 59 0 65 -17 62 0 57 28 58 24 65 63
 0 23 +16 63 39 0 ?62 59 0 64 0 0 2 31 64 40 0 63 0 60 0 +0 0 0.01026 0 0 1 1 0
 0 0.002375 17 65 0 0 48 32 18 62 63 0 0 -12 66 26 0 67 0 0 0 0 1000 1e-008 0 0
 0 1 0 1 1 93 71 77 75 90 76 74 70 67 0 66 0 0 4 1 20 0 68 68 1 T74 20 68 1 0 69
 0 0 0 0 0 0 0 0 0 0 0 0 0 0 0 0 0 0 0 81 1 69 7 33 70 0 0 96 0 89 14 70 5 69 1e
-008 94 0 72 93 71 +0 0 94 0 91 51 71 6 0 70 95 0 0 +0 0 -0.005 0 0 1 0.000508 1
 0 0 15 72 8 0 73 70 0 17 73 0 72 79 84 74 78 76 0 0 -18 74 9 0 84 0 80 75 ?66 2
9 75 10 0 74 81 0 0.000508 -1.244241147934e-019 0.0001 16 76 11 0 ?78 0 82 77 0
 0 66 31 77 12 0 76 83 0 0 +0 0 0.0001 0 0 1 1 0 0 0.000508 17 78 0 98 78 78 74
 73 76 0 73 +17 79 0 72 85 73 80 84 82 0 85 -18 80 13 0 79 74 0 81 ?66 29 81 14
 0 80 0 75 0.000508 -1.244241147934e-019 -0.005 16 82 15 0 ?84 76 86 83 0 0 66 3
0 83 16 0 82 87 77 0 +0.000508 -1.244241147934e-019 -0.005 0 0 1 17 84 0 72 73 8
5 74 79 82 0 78 +17 85 0 72 84 79 80 88 86 0 88 +16 86 17 0 ?85 82 0 87 0 0 66 3
1 87 18 0 86 0 83 0 +0 0 -0.005 0 0 1 1 0 0 0.000508 17 88 0 103 88 88 80 85 86
 0 0 -83 3 89 0.734000027179718 0.7730000019073486 0.796999990940094 19 90 1 0 6
6 92 0 91 V13 91 2 0 66 0 0 0 0 90 70 19 92 3 0 66 0 90 93 S13 93 4 0 66 0 70 0
 0 92 0 14 94 19 96 1e-008 99 70 98 93 95 +0 0 99 70 91 50 95 20 0 94 100 71 0 +
0 0 0.0001 0 0 1 1 0 0 81 1 96 21 33 94 0 0 101 69 97 83 3 97 0.734000027179718
 0.7730000019073486 0.796999990940094 15 98 22 0 78 94 0 14 99 23 101 1e-008 0 9
4 103 93 100 -0 0 0 94 91 50 100 24 0 99 0 95 0 +0 0 -0.005 0 0 1 1 0 0 81 1 101
 25 33 99 0 0 0 96 102 83 3 102 0.734000027179718 0.7730000019073486 0.796999990
940094 15 103 26 0 88 99 0 1 0 
