  0
SECTION
  2
HEADER
  9
$ACADVER
  1
AC1015
  9
$ACADMAINTVER
 70
     6
  9
$DWGCODEPAGE
  3
ANSI_1252
  9
$INSBASE
 10
0.0
 20
0.0
 30
0.0
  9
$EXTMIN
 10
-150.0
 20
-150.0
 30
0.0
  9
$EXTMAX
 10
150.0
 20
150.0
 30
0.0
  9
$LIMMIN
 10
0.0
 20
0.0
  9
$LIMMAX
 10
420.0
 20
297.0
  9
$ORTHOMODE
 70
     0
  9
$REGENMODE
 70
     1
  9
$FILLMODE
 70
     1
  9
$QTEXTMODE
 70
     0
  9
$MIRRTEXT
 70
     1
  9
$LTSCALE
 40
1.0
  9
$ATTMODE
 70
     1
  9
$TEXTSIZE
 40
3.5
  9
$TRACEWID
 40
1.0
  9
$TEXTSTYLE
  7
Standard
  9
$CLAYER
  8
0
  9
$CELTYPE
  6
ByLayer
  9
$CECOLOR
 62
   256
  9
$CELTSCALE
 40
1.0
  9
$DISPSILH
 70
     0
  9
$DIMSCALE
 40
1.0
  9
$DIMASZ
 40
3.302
  9
$DIMEXO
 40
1.0
  9
$DIMDLI
 40
3.75
  9
$DIMRND
 40
0.0
  9
$DIMDLE
 40
0.0
  9
$DIMEXE
 40
1.0
  9
$DIMTP
 40
0.0
  9
$DIMTM
 40
0.0
  9
$DIMTXT
 40
3.5
  9
$DIMCEN
 40
2.5
  9
$DIMTSZ
 40
0.0
  9
$DIMTOL
 70
     0
  9
$DIMLIM
 70
     0
  9
$DIMTIH
 70
     1
  9
$DIMTOH
 70
     1
  9
$DIMSE1
 70
     0
  9
$DIMSE2
 70
     0
  9
$DIMTAD
 70
     1
  9
$DIMZIN
 70
     1
  9
$DIMBLK
  1

  9
$DIMASO
 70
     1
  9
$DIMSHO
 70
     1
  9
$DIMPOST
  1

  9
$DIMAPOST
  1

  9
$DIMALT
 70
     0
  9
$DIMALTD
 70
     3
  9
$DIMALTF
 40
0.0393700787
  9
$DIMLFAC
 40
1.0
  9
$DIMTOFL
 70
     1
  9
$DIMTVP
 40
0.0
  9
$DIMTIX
 70
     0
  9
$DIMSOXD
 70
     0
  9
$DIMSAH
 70
     0
  9
$DIMBLK1
  1

  9
$DIMBLK2
  1

  9
$DIMSTYLE
  2
ISO-25
  9
$DIMCLRD
 70
     0
  9
$DIMCLRE
 70
     0
  9
$DIMCLRT
 70
     0
  9
$DIMTFAC
 40
1.0
  9
$DIMGAP
 40
1.524
  9
$DIMJUST
 70
     0
  9
$DIMSD1
 70
     0
  9
$DIMSD2
 70
     0
  9
$DIMTOLJ
 70
     0
  9
$DIMTZIN
 70
     1
  9
$DIMALTZ
 70
     0
  9
$DIMALTTZ
 70
     0
  9
$DIMUPT
 70
     0
  9
$DIMDEC
 70
     2
  9
$DIMTDEC
 70
     2
  9
$DIMALTU
 70
     2
  9
$DIMALTTD
 70
     3
  9
$DIMTXSTY
  7
Standard
  9
$DIMAUNIT
 70
     0
  9
$DIMADEC
 70
     2
  9
$DIMALTRND
 40
0.0
  9
$DIMAZIN
 70
     0
  9
$DIMDSEP
 70
    44
  9
$DIMATFIT
 70
     3
  9
$DIMFRAC
 70
     0
  9
$DIMLDRBLK
  1

  9
$DIMLUNIT
 70
     2
  9
$DIMLWD
 70
    -2
  9
$DIMLWE
 70
    -2
  9
$DIMTMOVE
 70
     0
  9
$LUNITS
 70
     2
  9
$LUPREC
 70
     2
  9
$SKETCHINC
 40
1.0
  9
$FILLETRAD
 40
10.0
  9
$AUNITS
 70
     0
  9
$AUPREC
 70
     2
  9
$MENU
  1
.
  9
$ELEVATION
 40
0.0
  9
$PELEVATION
 40
0.0
  9
$THICKNESS
 40
0.0
  9
$LIMCHECK
 70
     0
  9
$CHAMFERA
 40
0.0
  9
$CHAMFERB
 40
0.0
  9
$CHAMFERC
 40
0.0
  9
$CHAMFERD
 40
0.0
  9
$SKPOLY
 70
     0
  9
$TDCREATE
 40
2458940.052615602
  9
$TDUCREATE
 40
2458939.969282269
  9
$TDUPDATE
 40
2458940.052986123
  9
$TDUUPDATE
 40
2458939.969652789
  9
$TDINDWG
 40
0.0000000116
  9
$TDUSRTIMER
 40
0.0000000116
  9
$USRTIMER
 70
     1
  9
$ANGBASE
 50
0.0
  9
$ANGDIR
 70
     0
  9
$PDMODE
 70
     0
  9
$PDSIZE
 40
-1.0
  9
$PLINEWID
 40
0.0
  9
$SPLFRAME
 70
     0
  9
$SPLINETYPE
 70
     6
  9
$SPLINESEGS
 70
     8
  9
$HANDSEED
  5
146
  9
$SURFTAB1
 70
     6
  9
$SURFTAB2
 70
     6
  9
$SURFTYPE
 70
     6
  9
$SURFU
 70
     6
  9
$SURFV
 70
     6
  9
$UCSBASE
  2

  9
$UCSNAME
  2

  9
$UCSORG
 10
0.0
 20
0.0
 30
0.0
  9
$UCSXDIR
 10
1.0
 20
0.0
 30
0.0
  9
$UCSYDIR
 10
0.0
 20
1.0
 30
0.0
  9
$UCSORTHOREF
  2

  9
$UCSORTHOVIEW
 70
     0
  9
$UCSORGTOP
 10
0.0
 20
0.0
 30
0.0
  9
$UCSORGBOTTOM
 10
0.0
 20
0.0
 30
0.0
  9
$UCSORGLEFT
 10
0.0
 20
0.0
 30
0.0
  9
$UCSORGRIGHT
 10
0.0
 20
0.0
 30
0.0
  9
$UCSORGFRONT
 10
0.0
 20
0.0
 30
0.0
  9
$UCSORGBACK
 10
0.0
 20
0.0
 30
0.0
  9
$PUCSBASE
  2

  9
$PUCSNAME
  2

  9
$PUCSORG
 10
0.0
 20
0.0
 30
0.0
  9
$PUCSXDIR
 10
1.0
 20
0.0
 30
0.0
  9
$PUCSYDIR
 10
0.0
 20
1.0
 30
0.0
  9
$PUCSORTHOREF
  2

  9
$PUCSORTHOVIEW
 70
     0
  9
$PUCSORGTOP
 10
0.0
 20
0.0
 30
0.0
  9
$PUCSORGBOTTOM
 10
0.0
 20
0.0
 30
0.0
  9
$PUCSORGLEFT
 10
0.0
 20
0.0
 30
0.0
  9
$PUCSORGRIGHT
 10
0.0
 20
0.0
 30
0.0
  9
$PUCSORGFRONT
 10
0.0
 20
0.0
 30
0.0
  9
$PUCSORGBACK
 10
0.0
 20
0.0
 30
0.0
  9
$USERI1
 70
     0
  9
$USERI2
 70
     0
  9
$USERI3
 70
     0
  9
$USERI4
 70
     0
  9
$USERI5
 70
     0
  9
$USERR1
 40
0.0
  9
$USERR2
 40
0.0
  9
$USERR3
 40
0.0
  9
$USERR4
 40
0.0
  9
$USERR5
 40
0.0
  9
$WORLDVIEW
 70
     1
  9
$SHADEDGE
 70
     3
  9
$SHADEDIF
 70
    70
  9
$TILEMODE
 70
     1
  9
$MAXACTVP
 70
    64
  9
$PINSBASE
 10
0.0
 20
0.0
 30
0.0
  9
$PLIMCHECK
 70
     0
  9
$PEXTMIN
 10
1.0000000000E+20
 20
1.0000000000E+20
 30
1.0000000000E+20
  9
$PEXTMAX
 10
-1.0000000000E+20
 20
-1.0000000000E+20
 30
-1.0000000000E+20
  9
$PLIMMIN
 10
0.0
 20
0.0
  9
$PLIMMAX
 10
420.0
 20
297.0
  9
$UNITMODE
 70
     0
  9
$VISRETAIN
 70
     1
  9
$PLINEGEN
 70
     0
  9
$PSLTSCALE
 70
     1
  9
$TREEDEPTH
 70
  3020
  9
$CMLSTYLE
  2
Standard
  9
$CMLJUST
 70
     0
  9
$CMLSCALE
 40
20.0
  9
$PROXYGRAPHICS
 70
     1
  9
$MEASUREMENT
 70
     1
  9
$CELWEIGHT
370
    -1
  9
$ENDCAPS
280
     0
  9
$JOINSTYLE
280
     0
  9
$LWDISPLAY
290
     1
  9
$INSUNITS
 70
     4
  9
$HYPERLINKBASE
  1

  9
$STYLESHEET
  1

  9
$XEDIT
290
     1
  9
$CEPSNTYPE
380
     0
  9
$PSTYLEMODE
290
     1
  9
$FINGERPRINTGUID
  2
{B35EB235-8039-487A-9E68-2EEE9A2350EE}
  9
$VERSIONGUID
  2
{FAEB1C32-E019-11D5-929B-00C0DF256EC4}
  9
$EXTNAMES
290
     1
  9
$PSVPSCALE
 40
0.0
  9
$OLESTARTUP
290
     0
  0
ENDSEC
  0
SECTION
  2
CLASSES
  0
CLASS
  1
ACDBDICTIONARYWDFLT
  2
AcDbDictionaryWithDefault
  3
ObjectDBX Classes
 90
        0
280
     0
281
     0
  0
CLASS
  1
VISUALSTYLE
  2
AcDbVisualStyle
  3
ObjectDBX Classes
 90
     4095
280
     0
281
     0
  0
CLASS
  1
MATERIAL
  2
AcDbMaterial
  3
ObjectDBX Classes
 90
     1153
280
     0
281
     0
  0
CLASS
  1
SCALE
  2
AcDbScale
  3
ObjectDBX Classes
 90
     1153
280
     0
281
     0
  0
CLASS
  1
TABLESTYLE
  2
AcDbTableStyle
  3
ObjectDBX Classes
 90
     4095
280
     0
281
     0
  0
CLASS
  1
MLEADERSTYLE
  2
AcDbMLeaderStyle
  3
ACDB_MLEADERSTYLE_CLASS
 90
     4095
280
     0
281
     0
  0
CLASS
  1
SUN
  2
AcDbSun
  3
SCENEOE
 90
     1153
280
     0
281
     0
  0
CLASS
  1
ACDBPLACEHOLDER
  2
AcDbPlaceHolder
  3
ObjectDBX Classes
 90
        0
280
     0
281
     0
  0
CLASS
  1
LAYOUT
  2
AcDbLayout
  3
ObjectDBX Classes
 90
        0
280
     0
281
     0
  0
ENDSEC
  0
SECTION
  2
TABLES
  0
TABLE
  2
VPORT
  5
8
330
0
100
AcDbSymbolTable
 70
     1
  0
VPORT
  5
29
330
8
100
AcDbSymbolTableRecord
100
AcDbViewportTableRecord
  2
*Active
 70
     0
 10
0.0
 20
0.0
 11
1.0
 21
1.0
 12
0.0
 22
0.0
 13
0.0
 23
0.0
 14
10.0
 24
10.0
 15
10.0
 25
10.0
 16
0.0
 26
0.0
 36
1.0
 17
0.0
 27
0.0
 37
0.0
 40
306.0
 41
1.0
 42
50.0
 43
0.0
 44
0.0
 50
0.0
 51
0.0
 71
     0
 72
   100
 73
     1
 74
     3
 75
     0
 76
     0
 77
     0
 78
     0
281
     0
 65
     1
110
0.0
120
0.0
130
0.0
111
1.0
121
0.0
131
0.0
112
0.0
122
1.0
132
0.0
 79
     0
146
0.0
  0
ENDTAB
  0
TABLE
  2
LTYPE
  5
5
330
0
100
AcDbSymbolTable
 70
     6
  0
LTYPE
  5
14
330
5
100
AcDbSymbolTableRecord
100
AcDbLinetypeTableRecord
  2
ByBlock
 70
     0
  3

 72
    65
 73
     0
 40
0.0
  0
LTYPE
  5
15
330
5
100
AcDbSymbolTableRecord
100
AcDbLinetypeTableRecord
  2
ByLayer
 70
     0
  3

 72
    65
 73
     0
 40
0.0
  0
LTYPE
  5
16
330
5
100
AcDbSymbolTableRecord
100
AcDbLinetypeTableRecord
  2
Continuous
 70
     0
  3
Solid line
 72
    65
 73
     0
 40
0.0
  0
LTYPE
  5
6E
330
5
100
AcDbSymbolTableRecord
100
AcDbLinetypeTableRecord
  2
HIDDEN
 70
     0
  3
Hidden __ __ __ __ __ __ __ __ __ __ __ __ __ __
 72
    65
 73
     2
 40
1.905
 49
1.27
 74
     0
 49
-0.635
 74
     0
  0
LTYPE
  5
6F
330
5
100
AcDbSymbolTableRecord
100
AcDbLinetypeTableRecord
  2
PHANTOM
 70
     0
  3
Phantom ______  __  __  ______  __  __  ______
 72
    65
 73
     6
 40
12.7
 49
6.35
 74
     0
 49
-1.27
 74
     0
 49
1.27
 74
     0
 49
-1.27
 74
     0
 49
1.27
 74
     0
 49
-1.27
 74
     0
  0
LTYPE
  5
70
330
5
100
AcDbSymbolTableRecord
100
AcDbLinetypeTableRecord
  2
CENTER
 70
     0
  3
Center ____ _ ____ _ ____ _ ____ _ ____ _ ____
 72
    65
 73
     4
 40
10.16
 49
6.35
 74
     0
 49
-1.27
 74
     0
 49
1.27
 74
     0
 49
-1.27
 74
     0
  0
LTYPE
  5
71
330
5
100
AcDbSymbolTableRecord
100
AcDbLinetypeTableRecord
  2
CENTERX2
 70
     0
  3
Center (2x) ________  __  ________  __  _____
 72
    65
 73
     4
 40
20.32
 49
12.7
 74
     0
 49
-2.54
 74
     0
 49
2.54
 74
     0
 49
-2.54
 74
     0
  0
LTYPE
  5
72
330
5
100
AcDbSymbolTableRecord
100
AcDbLinetypeTableRecord
  2
DOT2
 70
     0
  3
Dot (.5x) ........................................
 72
    65
 73
     2
 40
0.635
 49
0.0
 74
     0
 49
-0.635
 74
     0
  0
ENDTAB
  0
TABLE
  2
LAYER
  5
2
330
0
100
AcDbSymbolTable
 70
     1
  0
LAYER
  5
10
330
2
100
AcDbSymbolTableRecord
100
AcDbLayerTableRecord
  2
0
 70
     0
 62
     7
  6
Continuous
370
    -3
390
F
  0
ENDTAB
  0
TABLE
  2
STYLE
  5
3
330
0
100
AcDbSymbolTable
 70
     1
  0
STYLE
  5
11
330
3
100
AcDbSymbolTableRecord
100
AcDbTextStyleTableRecord
  2
Standard
 70
     0
 40
0.0
 41
1.0
 50
0.0
 71
     0
 42
3.5
  3
txt
  4

  0
ENDTAB
  0
TABLE
  2
VIEW
  5
6
330
0
100
AcDbSymbolTable
 70
     0
  0
ENDTAB
  0
TABLE
  2
UCS
  5
7
330
0
100
AcDbSymbolTable
 70
     0
  0
ENDTAB
  0
TABLE
  2
APPID
  5
9
330
0
100
AcDbSymbolTable
 70
     1
  0
APPID
  5
12
330
9
100
AcDbSymbolTableRecord
100
AcDbRegAppTableRecord
  2
ACAD
 70
     0
  0
ENDTAB
  0
TABLE
  2
DIMSTYLE
  5
A
330
0
100
AcDbSymbolTable
 70
     1
100
AcDbDimStyleTable
  0
DIMSTYLE
105
27
330
A
100
AcDbSymbolTableRecord
100
AcDbDimStyleTableRecord
  2
ISO-25
 70
     0
 41
2.5
 42
0.625
 43
3.75
 44
1.25
 73
     0
 74
     0
 77
     1
 78
     8
140
2.5
141
2.5
143
0.0393700787
147
0.625
171
     3
172
     1
178
     0
271
     2
272
     2
274
     3
278
    44
283
     0
284
     8
340
11
  0
ENDTAB
  0
TABLE
  2
BLOCK_RECORD
  5
1
330
0
100
AcDbSymbolTable
 70
     1
  0
BLOCK_RECORD
  5
1F
330
1
100
AcDbSymbolTableRecord
100
AcDbBlockTableRecord
  2
*Model_Space
340
22
  0
BLOCK_RECORD
  5
1B
330
1
100
AcDbSymbolTableRecord
100
AcDbBlockTableRecord
  2
*Paper_Space
340
1E
  0
BLOCK_RECORD
  5
23
330
1
100
AcDbSymbolTableRecord
100
AcDbBlockTableRecord
  2
*Paper_Space0
340
26
  0
ENDTAB
  0
ENDSEC
  0
SECTION
  2
BLOCKS
  0
BLOCK
  5
20
330
1F
100
AcDbEntity
  8
0
100
AcDbBlockBegin
  2
*Model_Space
 70
     0
 10
0.0
 20
0.0
 30
0.0
  3
*Model_Space
  1

  0
ENDBLK
  5
21
330
1F
100
AcDbEntity
  8
0
100
AcDbBlockEnd
  0
BLOCK
  5
1C
330
1B
100
AcDbEntity
 67
     1
  8
0
100
AcDbBlockBegin
  2
*Paper_Space
 70
     0
 10
0.0
 20
0.0
 30
0.0
  3
*Paper_Space
  1

  0
ENDBLK
  5
1D
330
1B
100
AcDbEntity
 67
     1
  8
0
100
AcDbBlockEnd
  0
BLOCK
  5
24
330
23
100
AcDbEntity
  8
0
100
AcDbBlockBegin
  2
*Paper_Space0
 70
     0
 10
0.0
 20
0.0
 30
0.0
  3
*Paper_Space0
  1

  0
ENDBLK
  5
25
330
23
100
AcDbEntity
  8
0
100
AcDbBlockEnd
  0
ENDSEC
  0
SECTION
  2
ENTITIES
  0
SPLINE
  5
B7
330
1F
100
AcDbEntity
  8
0
  6
Continuous
 62
     7
370
    25
100
AcDbSpline
210
0.0
220
0.0
230
1.0
 70
     8
 71
     3
 72
    26
 73
    22
 74
     0
 42
0.000000001
 43
0.00000001
 40
0.8296663849716611
 40
0.8296663849716611
 40
0.8296663849716611
 40
0.8296663849716611
 40
0.8780856890430815
 40
0.9502916182238903
 40
0.9790638105394661
 40
0.9979063810539465
 40
0.9999999999999999
 40
0.9999999999999999
 40
0.9999999999999999
 40
1.069754527052229
 40
1.202968172442225
 40
1.221828093144031
 40
1.258353734070289
 40
1.299434213652435
 40
1.353906301871776
 40
1.405170617882373
 40
1.455024717319262
 40
1.49834623846733
 40
1.657672658802975
 40
1.765949037355414
 40
1.790774484838608
 40
1.790774484838608
 40
1.790774484838608
 40
1.790774484838608
 10
24.82890050912404
 20
104.9783963786121
 30
0.0
 10
17.43796181326392
 20
108.8444150599191
 30
0.0
 10
-7.033182636217909
 20
112.9502500740232
 30
0.0
 10
-8.589872104342337
 20
118.050641872029
 30
0.0
 10
-60.87562569069436
 20
146.3749419931154
 30
0.0
 10
-74.44345458713777
 20
104.0225428369129
 30
0.0
 10
-76.2165950458898
 20
100.3689135012641
 30
0.0
 10
-76.39616236369848
 20
100.0068198547079
 30
0.0
 10
-82.37892887973152
 20
87.94269944170178
 30
0.0
 10
-107.0653892525462
 20
63.39899465177187
 30
0.0
 10
-114.3405759724054
 20
46.89005346165249
 30
0.0
 10
-128.0277570219039
 20
27.55501320527719
 30
0.0
 10
-132.9662456008223
 20
10.55861511719104
 30
0.0
 10
-126.6075598399968
 20
-12.63259154253297
 30
0.0
 10
-99.53643410897342
 20
-16.19296608779721
 30
0.0
 10
-82.86683049689427
 20
-33.43878024614684
 30
0.0
 10
-58.49647848155504
 20
-42.58080664907179
 30
0.0
 10
-19.95874170962425
 20
-20.88547313157563
 30
0.0
 10
-10.99621673336275
 20
35.04216922973511
 30
0.0
 10
31.52018641758282
 20
62.5621829468255
 30
0.0
 10
35.43951853358762
 20
86.42589896663428
 30
0.0
 10
35.11398952444903
 20
90.5161705131892
 30
0.0
  0
LWPOLYLINE
  5
BB
330
1F
100
AcDbEntity
  8
0
  6
Continuous
 62
     7
370
    25
100
AcDbPolyline
 90
      103
 70
   128
 43
0.0
 10
99.8480281413
 20
23.220438706
 10
96.8177346475
 20
24.7414378888
 10
93.6206948916
 20
26.0291267674
 10
90.2675800349
 20
27.0792072607
 10
86.7695821904
 20
27.888174383
 10
83.1383770652
 20
28.4533279432
 10
79.3860849889
 20
28.7727815571
 10
75.5252304585
 20
28.8454689444
 10
71.5687003334
 20
28.671147487
 10
67.5297008216
 20
28.2503990398
 10
63.4217133992
 20
27.5846279876
 10
59.2584498124
 20
26.6760565582
 10
55.0538063092
 20
25.5277174046
 10
50.8218172567
 20
24.1434434828
 10
46.5766082968
 20
22.5278552578
 10
42.3323491969
 20
20.6863452816
 10
38.1032065542
 20
18.6250601933
 10
33.9032965095
 20
16.3508802034
 10
29.7466376305
 20
13.8713961282
 10
25.64710412
 20
11.1948840535
 10
21.6183795063
 20
8.3302777098
 10
17.6739109699
 20
5.2871386539
 10
13.8268644592
 20
2.0756243535
 10
10.0900807448
 20
-1.2935457164
 10
6.4760325595
 20
-4.8091258535
 10
2.9967829662
 20
-8.459381664
 10
-0.3360549066
 20
-12.2321292304
 10
-3.5113566269
 20
-16.1147757789
 10
-6.5185235911
 20
-20.094361712
 10
-9.3475184
 20
-24.1576038657
 10
-11.988898362
 20
-28.2909398458
 10
-14.4338470114
 20
-32.4805732975
 10
-16.6742035356
 20
-36.7125199544
 10
-18.7024900151
 20
-40.9726543163
 10
-20.5119363832
 20
-45.2467567974
 10
-22.0965030233
 20
-49.5205611885
 10
-23.4509009282
 20
-53.7798022756
 10
-24.5706093537
 20
-58.0102634543
 10
-25.4518909084
 20
-62.1978241826
 10
-26.091804028
 20
-66.3285071128
 10
-26.488212794
 20
-70.3885247453
 10
-26.639794063
 20
-74.3643254489
 10
-26.5460418834
 20
-78.2426386938
 10
-26.2072691833
 20
-82.0105193465
 10
-25.6246067272
 20
-85.6553908782
 10
-24.7999993406
 20
-89.165087343
 10
-23.7361994194
 20
-92.5278939859
 10
-22.4367577422
 20
-95.7325863445
 10
-20.9060116188
 20
-98.7684677144
 10
-19.149070413
 20
-101.6254048526
 10
-17.1717984883
 20
-104.293861801
 10
-14.9807956337
 20
-106.7649317154
 10
-12.5833750347
 20
-109.0303665953
 10
-9.9875388635
 20
-111.0826048138
 10
-7.2019515688
 20
-112.9147963576
 10
-4.2359109553
 20
-114.5208256906
 10
-1.0993171496
 20
-115.8953321668
 10
2.1973604448
 20
-117.0337279233
 10
5.6431180929
 20
-117.9322131933
 10
9.2264544562
 20
-118.5877889898
 10
12.9354089826
 20
-118.998267115
 10
16.7576018284
 20
-119.1622774644
 10
20.68027518
 20
-119.0792726001
 10
24.6903358377
 20
-118.7495295778
 10
28.7743989178
 20
-118.1741490224
 10
32.9188325299
 20
-117.3550514537
 10
37.1098032767
 20
-116.2949708767
 10
41.3333224287
 20
-114.9974456555
 10
45.575292615
 20
-113.4668067033
 10
49.8215548785
 20
-111.708163026
 10
54.057935936
 20
-109.7273846696
 10
58.270295486
 20
-107.5310831271
 10
62.4445734065
 20
-105.1265892701
 10
66.5668366855
 20
-102.52192888
 10
70.6233259267
 20
-99.7257958592
 10
74.600501276
 20
-96.7475232123
 10
78.4850876155
 20
-93.5970518942
 10
82.2641188731
 20
-90.2848976292
 10
85.9249813011
 20
-86.8221158106
 10
89.4554555789
 20
-83.2202646008
 10
92.8437575987
 20
-79.4913663511
 10
96.078577799
 20
-75.647867474
 10
99.1491189139
 20
-71.7025968986
 10
102.0451320123
 20
-67.6687232506
 10
104.7569507073
 20
-63.559710897
 10
107.2755234209
 20
-59.3892750048
 10
109.5924435962
 20
-55.1713357621
 10
111.6999777577
 20
-50.9199719148
 10
113.5910913236
 20
-46.6493737743
 10
115.2594720865
 20
-42.373795853
 10
116.6995512822
 20
-38.1075092845
 10
117.9065221775
 20
-33.8647541898
 10
118.8763561138
 20
-29.6596921459
 10
119.6058159545
 20
-25.5063589169
 10
120.0924668898
 20
-21.418617605
 10
120.3346845638
 20
-17.4101123784
 10
120.331660496
 20
-13.4942229287
 10
120.0834047803
 20
-9.6840198123
 10
119.5907460509
 20
-5.9922208231
 10
118.8553287169
 20
-2.4311485425
 10
117.879607473
 20
0.9873107909
 10
116.6668391068
 20
4.2517469556
 10
115.2210716277
 20
7.3512638329
  0
SPLINE
  5
C1
330
1F
100
AcDbEntity
  8
0
  6
Continuous
 62
     7
370
    25
100
AcDbSpline
210
0.0
220
0.0
230
1.0
 70
     8
 71
     3
 72
    47
 73
    43
 74
     0
 42
0.000000001
 43
0.00000001
 40
0.0
 40
0.0
 40
0.0
 40
0.0
 40
0.0299388073404713
 40
0.0572042206917723
 40
0.0821270731517779
 40
0.1044073911387954
 40
0.1260193674538855
 40
0.1484517712882707
 40
0.1720267066312655
 40
0.1965469925414565
 40
0.2208874690609897
 40
0.2433629792271424
 40
0.2647742100466083
 40
0.2848860511943929
 40
0.3051907071236788
 40
0.3272122099298714
 40
0.3507502707284972
 40
0.3763199648165181
 40
0.4039335980101001
 40
0.4337794171497522
 40
0.465444115557991
 40
0.4998003530616735
 40
0.5343302444907267
 40
0.5662393229026347
 40
0.5958379812724132
 40
0.6236379288832008
 40
0.6493296284905576
 40
0.6729550410479347
 40
0.6948952500880358
 40
0.7151803399747821
 40
0.7353316306466053
 40
0.7565729560849609
 40
0.7791893661178376
 40
0.8033085982332772
 40
0.8279349303173954
 40
0.851362019239412
 40
0.8739212948377548
 40
0.8953197715587224
 40
0.9177455362954926
 40
0.9426544436708992
 40
0.9700678250936685
 40
1.0
 40
1.0
 40
1.0
 40
1.0
 10
44.62291416577617
 20
-55.20006167305964
 30
0.0
 10
44.78240179095818
 20
-55.35322832987842
 30
0.0
 10
45.08713555021471
 20
-55.64588458500712
 30
0.0
 10
45.52669002967149
 20
-56.06399204382676
 30
0.0
 10
45.93520219646045
 20
-56.43228918447832
 30
0.0
 10
46.3188391566517
 20
-56.76602805880683
 30
0.0
 10
46.70907093062209
 20
-57.06252597119149
 30
0.0
 10
47.11925878364622
 20
-57.34812045115003
 30
0.0
 10
47.57025411040761
 20
-57.60946740154768
 30
0.0
 10
48.03938329796438
 20
-57.86687856355318
 30
0.0
 10
48.52146359571209
 20
-58.08210096626784
 30
0.0
 10
49.00198498937302
 20
-58.23618096101443
 30
0.0
 10
49.46446797153394
 20
-58.33944449150121
 30
0.0
 10
49.92122913137282
 20
-58.3739895886424
 30
0.0
 10
50.38331628669171
 20
-58.35004425831102
 30
0.0
 10
50.86102414779623
 20
-58.25085119668653
 30
0.0
 10
51.36355783635362
 20
-58.09586478155251
 30
0.0
 10
51.88807156736131
 20
-57.87867660498328
 30
0.0
 10
52.42743083586406
 20
-57.58461148705339
 30
0.0
 10
52.97330709437251
 20
-57.21485987707854
 30
0.0
 10
53.51948148663158
 20
-56.7629015549635
 30
0.0
 10
54.05829187042168
 20
-56.25128394088815
 30
0.0
 10
54.56633700253372
 20
-55.70585268562167
 30
0.0
 10
55.00068550943513
 20
-55.14432970969665
 30
0.0
 10
55.36978090351328
 20
-54.59621202251972
 30
0.0
 10
55.64699403306228
 20
-54.0474470105123
 30
0.0
 10
55.86380750250403
 20
-53.5197345870332
 30
0.0
 10
56.00613814415427
 20
-53.01221031348976
 30
0.0
 10
56.09670552877395
 20
-52.53303291195034
 30
0.0
 10
56.11040755997173
 20
-52.07078405109721
 30
0.0
 10
56.06443690349306
 20
-51.61635305891345
 30
0.0
 10
55.95760089407867
 20
-51.15482882348633
 30
0.0
 10
55.79538826858692
 20
-50.67842511845794
 30
0.0
 10
55.56402773854258
 20
-50.20402847872791
 30
0.0
 10
55.31099352131708
 20
-49.7345999456647
 30
0.0
 10
55.0303683634075
 20
-49.2946640167694
 30
0.0
 10
54.74850385443576
 20
-48.88409064338318
 30
0.0
 10
54.43902930143712
 20
-48.50333563072242
 30
0.0
 10
54.1060058717251
 20
-48.12014233536499
 30
0.0
 10
53.73010648614871
 20
-47.71561921787666
 30
0.0
 10
53.30396440880185
 20
-47.28256108819472
 30
0.0
 10
53.00395854404627
 20
-46.98357083825497
 30
0.0
 10
52.84736702080331
 20
-46.82750942688554
 30
0.0
  0
SPLINE
  5
C5
330
1F
100
AcDbEntity
  8
0
  6
Continuous
 62
     7
370
    25
100
AcDbSpline
210
0.0
220
0.0
230
1.0
 70
     8
 71
     3
 72
    31
 73
    27
 74
     0
 42
0.000000001
 43
0.00000001
 40
0.0
 40
0.0
 40
0.0
 40
0.0
 40
0.0464325085681908
 40
0.0957817016814794
 40
0.1483436062849012
 40
0.2041888196204025
 40
0.2598577576163142
 40
0.3123506133933442
 40
0.3618682868322557
 40
0.4082916331674554
 40
0.4517827687750073
 40
0.4923074394006235
 40
0.5302558231501143
 40
0.565721183856362
 40
0.5998416680634872
 40
0.6337092483453246
 40
0.6676956116668945
 40
0.7021426151242736
 40
0.7367614251509718
 40
0.7714609807508728
 40
0.80638691290041
 40
0.8416636503012027
 40
0.8780531599359549
 40
0.9166560811523174
 40
0.9571895903103453
 40
1.0
 40
1.0
 40
1.0
 40
1.0
 10
59.50196632967282
 20
-54.97791258633922
 30
0.0
 10
59.31176928355247
 20
-55.2849681009811
 30
0.0
 10
58.91942785523087
 20
-55.91836699778827
 30
0.0
 10
58.23313884785025
 20
-56.84737705925743
 30
0.0
 10
57.43849494708979
 20
-57.78268316826075
 30
0.0
 10
56.56880424094975
 20
-58.71700543488408
 30
0.0
 10
55.65171553454729
 20
-59.60406666228954
 30
0.0
 10
54.7300731533762
 20
-60.41385997164387
 30
0.0
 10
53.81226239162346
 20
-61.11548970284727
 30
0.0
 10
52.90756102545515
 20
-61.71447228532694
 30
0.0
 10
52.02522791515931
 20
-62.21695211321862
 30
0.0
 10
51.162853296055
 20
-62.61449780228583
 30
0.0
 10
50.3281005680786
 20
-62.91550101324442
 30
0.0
 10
49.51332358648505
 20
-63.11245488876435
 30
0.0
 10
48.7133675917621
 20
-63.20908768356194
 30
0.0
 10
47.91916291333549
 20
-63.23350163128679
 30
0.0
 10
47.12547691665384
 20
-63.1593622305715
 30
0.0
 10
46.33621851459316
 20
-63.01364954587982
 30
0.0
 10
45.56162659829391
 20
-62.78279873830604
 30
0.0
 10
44.80507067537168
 20
-62.48997813476741
 30
0.0
 10
44.0667490260053
 20
-62.14072143984019
 30
0.0
 10
43.35167408588613
 20
-61.71973101471048
 30
0.0
 10
42.64324015936592
 20
-61.23537779877472
 30
0.0
 10
41.93770534132167
 20
-60.67873510185429
 30
0.0
 10
41.21039525405453
 20
-60.06938509878154
 30
0.0
 10
40.74487174369423
 20
-59.61812956423144
 30
0.0
 10
40.50575109189102
 20
-59.3863377961467
 30
0.0
  0
SPLINE
  5
C6
330
1F
100
AcDbEntity
  8
0
  6
Continuous
 62
     7
370
    25
100
AcDbSpline
210
0.0
220
0.0
230
1.0
 70
     8
 71
     3
 72
    23
 73
    19
 74
     0
 42
0.000000001
 43
0.00000001
 40
0.0
 40
0.0
 40
0.0
 40
0.0
 40
0.0723240848509641
 40
0.1407151578983183
 40
0.2061117383877324
 40
0.2677195837651711
 40
0.3270843889100525
 40
0.3859353906965332
 40
0.4445032439036657
 40
0.5029749516316087
 40
0.5611176958249934
 40
0.6182990984375072
 40
0.6758727391371819
 40
0.7338039663369834
 40
0.7939232690629708
 40
0.8577013246327096
 40
0.9263974187433563
 40
1.0
 40
1.0
 40
1.0
 40
1.0
 10
56.96453009468845
 20
-42.64123330379849
 30
0.0
 10
57.19882156882541
 20
-42.87767996722887
 30
0.0
 10
57.65466365580583
 20
-43.33771523276592
 30
0.0
 10
58.28461147804175
 20
-44.04744419065231
 30
0.0
 10
58.84708619495334
 20
-44.74951401478508
 30
0.0
 10
59.3411627263233
 20
-45.45125603747166
 30
0.0
 10
59.77173619263959
 20
-46.15868931597822
 30
0.0
 10
60.13953786545061
 20
-46.88552237470299
 30
0.0
 10
60.43865561209639
 20
-47.63849495555495
 30
0.0
 10
60.68418830708885
 20
-48.4072612110909
 30
0.0
 10
60.85250625699538
 20
-49.1905016251344
 30
0.0
 10
60.93950432827152
 20
-49.98305775250387
 30
0.0
 10
60.93193160780854
 20
-50.77929105558987
 30
0.0
 10
60.8436723761818
 20
-51.58407840965992
 30
0.0
 10
60.65732956489754
 20
-52.4017863667353
 30
0.0
 10
60.3687752613385
 20
-53.24086451306649
 30
0.0
 10
59.9911310456049
 20
-54.1124565856124
 30
0.0
 10
59.66872675670909
 20
-54.68287124839787
 30
0.0
 10
59.50196632967282
 20
-54.97791258633922
 30
0.0
  0
LWPOLYLINE
  5
DD
330
1F
100
AcDbEntity
  8
0
  6
Continuous
 62
     7
370
    25
100
AcDbPolyline
 90
      103
 70
   128
 43
0.0
 10
99.8480281413
 20
23.220438706
 10
96.8177346475
 20
24.7414378888
 10
93.6206948916
 20
26.0291267674
 10
90.2675800349
 20
27.0792072607
 10
86.7695821904
 20
27.888174383
 10
83.1383770652
 20
28.4533279432
 10
79.3860849889
 20
28.7727815571
 10
75.5252304585
 20
28.8454689444
 10
71.5687003334
 20
28.671147487
 10
67.5297008216
 20
28.2503990398
 10
63.4217133992
 20
27.5846279876
 10
59.2584498124
 20
26.6760565582
 10
55.0538063092
 20
25.5277174046
 10
50.8218172567
 20
24.1434434828
 10
46.5766082968
 20
22.5278552578
 10
42.3323491969
 20
20.6863452816
 10
38.1032065542
 20
18.6250601933
 10
33.9032965095
 20
16.3508802034
 10
29.7466376305
 20
13.8713961282
 10
25.64710412
 20
11.1948840535
 10
21.6183795063
 20
8.3302777098
 10
17.6739109699
 20
5.2871386539
 10
13.8268644592
 20
2.0756243535
 10
10.0900807448
 20
-1.2935457164
 10
6.4760325595
 20
-4.8091258535
 10
2.9967829662
 20
-8.459381664
 10
-0.3360549066
 20
-12.2321292304
 10
-3.5113566269
 20
-16.1147757789
 10
-6.5185235911
 20
-20.094361712
 10
-9.3475184
 20
-24.1576038657
 10
-11.988898362
 20
-28.2909398458
 10
-14.4338470114
 20
-32.4805732975
 10
-16.6742035356
 20
-36.7125199544
 10
-18.7024900151
 20
-40.9726543163
 10
-20.5119363832
 20
-45.2467567974
 10
-22.0965030233
 20
-49.5205611885
 10
-23.4509009282
 20
-53.7798022756
 10
-24.5706093537
 20
-58.0102634543
 10
-25.4518909084
 20
-62.1978241826
 10
-26.091804028
 20
-66.3285071128
 10
-26.488212794
 20
-70.3885247453
 10
-26.639794063
 20
-74.3643254489
 10
-26.5460418834
 20
-78.2426386938
 10
-26.2072691833
 20
-82.0105193465
 10
-25.6246067272
 20
-85.6553908782
 10
-24.7999993406
 20
-89.165087343
 10
-23.7361994194
 20
-92.5278939859
 10
-22.4367577422
 20
-95.7325863445
 10
-20.9060116188
 20
-98.7684677144
 10
-19.149070413
 20
-101.6254048526
 10
-17.1717984883
 20
-104.293861801
 10
-14.9807956337
 20
-106.7649317154
 10
-12.5833750347
 20
-109.0303665953
 10
-9.9875388635
 20
-111.0826048138
 10
-7.2019515688
 20
-112.9147963576
 10
-4.2359109553
 20
-114.5208256906
 10
-1.0993171496
 20
-115.8953321668
 10
2.1973604448
 20
-117.0337279233
 10
5.6431180929
 20
-117.9322131933
 10
9.2264544562
 20
-118.5877889898
 10
12.9354089826
 20
-118.998267115
 10
16.7576018284
 20
-119.1622774644
 10
20.68027518
 20
-119.0792726001
 10
24.6903358377
 20
-118.7495295778
 10
28.7743989178
 20
-118.1741490224
 10
32.9188325299
 20
-117.3550514537
 10
37.1098032767
 20
-116.2949708767
 10
41.3333224287
 20
-114.9974456555
 10
45.575292615
 20
-113.4668067033
 10
49.8215548785
 20
-111.708163026
 10
54.057935936
 20
-109.7273846696
 10
58.270295486
 20
-107.5310831271
 10
62.4445734065
 20
-105.1265892701
 10
66.5668366855
 20
-102.52192888
 10
70.6233259267
 20
-99.7257958592
 10
74.600501276
 20
-96.7475232123
 10
78.4850876155
 20
-93.5970518942
 10
82.2641188731
 20
-90.2848976292
 10
85.9249813011
 20
-86.8221158106
 10
89.4554555789
 20
-83.2202646008
 10
92.8437575987
 20
-79.4913663511
 10
96.078577799
 20
-75.647867474
 10
99.1491189139
 20
-71.7025968986
 10
102.0451320123
 20
-67.6687232506
 10
104.7569507073
 20
-63.559710897
 10
107.2755234209
 20
-59.3892750048
 10
109.5924435962
 20
-55.1713357621
 10
111.6999777577
 20
-50.9199719148
 10
113.5910913236
 20
-46.6493737743
 10
115.2594720865
 20
-42.373795853
 10
116.6995512822
 20
-38.1075092845
 10
117.9065221775
 20
-33.8647541898
 10
118.8763561138
 20
-29.6596921459
 10
119.6058159545
 20
-25.5063589169
 10
120.0924668898
 20
-21.418617605
 10
120.3346845638
 20
-17.4101123784
 10
120.331660496
 20
-13.4942229287
 10
120.0834047803
 20
-9.6840198123
 10
119.5907460509
 20
-5.9922208231
 10
118.8553287169
 20
-2.4311485425
 10
117.879607473
 20
0.9873107909
 10
116.6668391068
 20
4.2517469556
 10
115.2210716277
 20
7.3512638329
  0
CIRCLE
  5
DE
330
1F
100
AcDbEntity
  8
0
  6
Continuous
 62
     7
370
    25
100
AcDbCircle
 10
118.9828035841
 20
26.3869591769
 30
0.0
 40
8.500000000000071
  0
SPLINE
  5
E2
330
1F
100
AcDbEntity
  8
0
  6
Continuous
 62
     7
370
    25
100
AcDbSpline
210
0.0
220
0.0
230
1.0
 70
     8
 71
     3
 72
   241
 73
   237
 74
     0
 42
0.000000001
 43
0.00000001
 40
0.0
 40
0.0
 40
0.0
 40
0.0
 40
0.0078125
 40
0.0078125
 40
0.015625
 40
0.015625
 40
0.0312500000000001
 40
0.0312500000000001
 40
0.0390625000000001
 40
0.0390625000000001
 40
0.0468750000000002
 40
0.0468750000000002
 40
0.0546875000000002
 40
0.0546875000000002
 40
0.0625000000000002
 40
0.0625000000000002
 40
0.0703125000000002
 40
0.0703125000000002
 40
0.0781250000000003
 40
0.0781250000000003
 40
0.0859375000000003
 40
0.0859375000000003
 40
0.0937500000000003
 40
0.0937500000000003
 40
0.1093750000000004
 40
0.1093750000000004
 40
0.1250000000000005
 40
0.1250000000000005
 40
0.1328125000000006
 40
0.1328125000000006
 40
0.1406250000000007
 40
0.1406250000000007
 40
0.1484375000000007
 40
0.1484375000000007
 40
0.1562500000000008
 40
0.1562500000000008
 40
0.1601562500000009
 40
0.1601562500000009
 40
0.1640625000000009
 40
0.1640625000000009
 40
0.1718750000000011
 40
0.1718750000000011
 40
0.1738281250000011
 40
0.1738281250000011
 40
0.1757812500000012
 40
0.1757812500000012
 40
0.1796875000000013
 40
0.1796875000000013
 40
0.1835937500000014
 40
0.1835937500000014
 40
0.1855468750000014
 40
0.1855468750000014
 40
0.1875000000000014
 40
0.1875000000000014
 40
0.1914062500000013
 40
0.1914062500000013
 40
0.1953125000000012
 40
0.1953125000000012
 40
0.2031250000000009
 40
0.2031250000000009
 40
0.2109375000000007
 40
0.2109375000000007
 40
0.2187500000000004
 40
0.2187500000000004
 40
0.2343749999999998
 40
0.2343749999999998
 40
0.2499999999999991
 40
0.2499999999999991
 40
0.2578124999999987
 40
0.2578124999999987
 40
0.2617187499999985
 40
0.2617187499999985
 40
0.2656249999999983
 40
0.2656249999999983
 40
0.2675781249999982
 40
0.2675781249999982
 40
0.2695312499999981
 40
0.273437499999998
 40
0.273437499999998
 40
0.2812499999999977
 40
0.2812499999999977
 40
0.2968749999999973
 40
0.2968749999999973
 40
0.3046874999999971
 40
0.3046874999999971
 40
0.3124999999999969
 40
0.3124999999999969
 40
0.3281249999999965
 40
0.3281249999999965
 40
0.3359374999999963
 40
0.3359374999999963
 40
0.3437499999999962
 40
0.3437499999999962
 40
0.3593749999999958
 40
0.3593749999999958
 40
0.3749999999999955
 40
0.3749999999999955
 40
0.3906249999999951
 40
0.3906249999999951
 40
0.4062499999999947
 40
0.4062499999999947
 40
0.4218749999999943
 40
0.4218749999999943
 40
0.4296874999999941
 40
0.4296874999999941
 40
0.4374999999999938
 40
0.4374999999999938
 40
0.4414062499999938
 40
0.4414062499999938
 40
0.4453124999999937
 40
0.4453124999999937
 40
0.4531249999999934
 40
0.4531249999999934
 40
0.4609374999999932
 40
0.4609374999999932
 40
0.4687499999999931
 40
0.4687499999999931
 40
0.4765624999999928
 40
0.4765624999999928
 40
0.4843749999999926
 40
0.4843749999999926
 40
0.4921874999999925
 40
0.4921874999999925
 40
0.4960937499999923
 40
0.4960937499999923
 40
0.4999999999999922
 40
0.4999999999999922
 40
0.507812499999992
 40
0.507812499999992
 40
0.5117187499999919
 40
0.5117187499999919
 40
0.5156249999999918
 40
0.5156249999999918
 40
0.5195312499999917
 40
0.5195312499999917
 40
0.5234374999999916
 40
0.5234374999999916
 40
0.5312499999999916
 40
0.5312499999999916
 40
0.5351562499999916
 40
0.5351562499999916
 40
0.5390624999999916
 40
0.5390624999999916
 40
0.5468749999999916
 40
0.5468749999999916
 40
0.5624999999999917
 40
0.5624999999999917
 40
0.5703124999999917
 40
0.5703124999999917
 40
0.5742187499999917
 40
0.5742187499999917
 40
0.5781249999999918
 40
0.5781249999999918
 40
0.5859374999999918
 40
0.5859374999999918
 40
0.5937499999999918
 40
0.5937499999999918
 40
0.6093749999999919
 40
0.6093749999999919
 40
0.6171874999999919
 40
0.6171874999999919
 40
0.6249999999999919
 40
0.6249999999999919
 40
0.632812499999992
 40
0.632812499999992
 40
0.636718749999992
 40
0.636718749999992
 40
0.640624999999992
 40
0.640624999999992
 40
0.6484374999999921
 40
0.6484374999999921
 40
0.6562499999999922
 40
0.6562499999999922
 40
0.6640624999999923
 40
0.6640624999999923
 40
0.6718749999999925
 40
0.6718749999999925
 40
0.6757812499999927
 40
0.6757812499999927
 40
0.6796874999999928
 40
0.6796874999999928
 40
0.687499999999993
 40
0.687499999999993
 40
0.6914062499999931
 40
0.6914062499999931
 40
0.6953124999999932
 40
0.6953124999999932
 40
0.7031249999999933
 40
0.7031249999999933
 40
0.7109374999999934
 40
0.7109374999999934
 40
0.7187499999999936
 40
0.7187499999999936
 40
0.7265624999999938
 40
0.7265624999999938
 40
0.7343749999999939
 40
0.7343749999999939
 40
0.7499999999999942
 40
0.7499999999999942
 40
0.7656249999999946
 40
0.7656249999999946
 40
0.7734374999999947
 40
0.7734374999999947
 40
0.7812499999999949
 40
0.7812499999999949
 40
0.8124999999999954
 40
0.8124999999999954
 40
0.8437499999999961
 40
0.8437499999999961
 40
0.8515624999999962
 40
0.8515624999999962
 40
0.8593749999999963
 40
0.8593749999999963
 40
0.8671874999999964
 40
0.8671874999999964
 40
0.8749999999999966
 40
0.8749999999999966
 40
0.9062499999999974
 40
0.9062499999999974
 40
0.9374999999999983
 40
0.9374999999999983
 40
0.9453124999999986
 40
0.9453124999999986
 40
0.9531249999999988
 40
0.9531249999999988
 40
0.9687499999999991
 40
0.9687499999999991
 40
0.9726562499999992
 40
0.9726562499999992
 40
0.9765624999999994
 40
0.9765624999999994
 40
0.9843749999999997
 40
0.9843749999999997
 40
0.9921874999999999
 40
0.9921874999999999
 40
1.0
 40
1.0
 40
1.0
 40
1.0
 10
24.82890050912652
 20
104.9783963786108
 30
0.0
 10
23.70894616042957
 20
105.5642170182408
 30
0.0
 10
22.56673580021712
 20
106.0827513964178
 30
0.0
 10
20.25208759291946
 20
107.0284338509913
 30
0.0
 10
19.07951454672491
 20
107.4551731819748
 30
0.0
 10
15.52970865457223
 20
108.638383780392
 30
0.0
 10
13.1205056903673
 20
109.2982002750901
 30
0.0
 10
9.481003879613471
 20
110.2102345656566
 30
0.0
 10
8.263438236891716
 20
110.5008522190637
 30
0.0
 10
5.82653479276981
 20
111.0772203084205
 30
0.0
 10
4.606948737568607
 20
111.3622976430451
 30
0.0
 10
2.179068284578796
 20
111.9633778881799
 30
0.0
 10
0.971110597034056
 20
112.2803029802457
 30
0.0
 10
-1.406454016804856
 20
113.0191881768638
 30
0.0
 10
-2.575363888134233
 20
113.4430573746009
 30
0.0
 10
-4.857842328465106
 20
114.4423644532374
 30
0.0
 10
-5.971513330668627
 20
115.0175217902233
 30
0.0
 10
-8.167466657229744
 20
116.2538037321704
 30
0.0
 10
-9.251841659070152
 20
116.9112517456787
 30
0.0
 10
-11.40907241403282
 20
118.2383742471674
 30
0.0
 10
-12.48301909897969
 20
118.9096171339019
 30
0.0
 10
-14.63370467132336
 20
120.2475087554379
 30
0.0
 10
-15.71012068425273
 20
120.9146887319331
 30
0.0
 10
-18.94758206943664
 20
122.9027148271266
 30
0.0
 10
-21.11686477032972
 20
124.2100076523354
 30
0.0
 10
-25.47819887020938
 20
126.7871308120385
 30
0.0
 10
-27.66981378295353
 20
128.0576176420348
 30
0.0
 10
-30.96937147363857
 20
129.9404225821066
 30
0.0
 10
-32.06968625999321
 20
130.5671855982066
 30
0.0
 10
-34.28683154636422
 20
131.7907464644433
 30
0.0
 10
-35.40441504428549
 20
132.3861781182621
 30
0.0
 10
-37.67620773431769
 20
133.510589861808
 30
0.0
 10
-38.83055963786298
 20
134.0396962595185
 30
0.0
 10
-41.17317303471061
 20
134.985164308041
 30
0.0
 10
-42.36335383474454
 20
135.4029911313948
 30
0.0
 10
-44.18999211751483
 20
135.9093891764359
 30
0.0
 10
-44.80580968077147
 20
136.0580045914311
 30
0.0
 10
-46.05432197840383
 20
136.3061375493999
 30
0.0
 10
-46.68255912076456
 20
136.4045889546628
 30
0.0
 10
-48.56704425797516
 20
136.6095689661607
 30
0.0
 10
-49.82831311692406
 20
136.6276037568732
 30
0.0
 10
-51.41299554247902
 20
136.4559524599808
 30
0.0
 10
-51.72991566968928
 20
136.4118012252341
 30
0.0
 10
-52.35513508175972
 20
136.3046334548188
 30
0.0
 10
-52.66458807974389
 20
136.2415090418
 30
0.0
 10
-53.58346406515633
 20
136.0234752787933
 30
0.0
 10
-54.18340118113961
 20
135.8398967522878
 30
0.0
 10
-55.3579919105219
 20
135.3963252967862
 30
0.0
 10
-55.93264631637516
 20
135.136334762827
 30
0.0
 10
-56.77573607034448
 20
134.6892520548255
 30
0.0
 10
-57.05404353710768
 20
134.5303719559019
 30
0.0
 10
-57.59701804619412
 20
134.1984490386817
 30
0.0
 10
-57.86263324193683
 20
134.0249470124589
 30
0.0
 10
-58.64295557394851
 20
133.4832226988618
 30
0.0
 10
-59.14116849769049
 20
133.0938194715474
 30
0.0
 10
-60.0986344319167
 20
132.2649828877787
 30
0.0
 10
-60.55920988452754
 20
131.8241283944063
 30
0.0
 10
-61.87965281136056
 20
130.4442333042459
 30
0.0
 10
-62.66688456837723
 20
129.4591659088469
 30
0.0
 10
-64.12406784523397
 20
127.4069439423937
 30
0.0
 10
-64.79623238106645
 20
126.341338312891
 30
0.0
 10
-66.07051435689877
 20
124.1610994564132
 30
0.0
 10
-66.67227666682199
 20
123.0452580252254
 30
0.0
 10
-68.39634422482425
 20
119.6602584026954
 30
0.0
 10
-69.442145443155
 20
117.3491755036962
 30
0.0
 10
-71.42283904281312
 20
112.6687413642922
 30
0.0
 10
-72.35473746610246
 20
110.2978171836798
 30
0.0
 10
-73.71523948921784
 20
106.7218105928814
 30
0.0
 10
-74.16198931119531
 20
105.5262616905397
 30
0.0
 10
-74.83739616116114
 20
103.7357134107273
 30
0.0
 10
-75.06332785757446
 20
103.139282221735
 30
0.0
 10
-75.52636486098741
 20
101.9522901402389
 30
0.0
 10
-75.76164533660166
 20
101.3607705333436
 30
0.0
 10
-76.15575238364421
 20
100.4951292486317
 30
0.0
 10
-76.29473183859749
 20
100.2105804615792
 30
0.0
 10
-76.57678054631339
 20
99.64363155065966
 30
0.0
 10
-77.00550659225493
 20
98.7961781011238
 30
0.0
 10
-77.45100894145725
 20
97.95753844309759
 30
0.0
 10
-78.3638359249338
 20
96.2917239335582
 30
0.0
 10
-79.00151000772384
 20
95.19648119538041
 30
0.0
 10
-80.99667025861827
 20
91.95390594595595
 30
0.0
 10
-82.43691957271322
 20
89.85005483237519
 30
0.0
 10
-84.73242065264608
 20
86.76527009304326
 30
0.0
 10
-85.51996951680543
 20
85.74876729268199
 30
0.0
 10
-87.13261586238424
 20
83.73548866511109
 30
0.0
 10
-87.95828553196421
 20
82.73810249441405
 30
0.0
 10
-90.46974447984104
 20
79.77743965393104
 30
0.0
 10
-92.19382548066685
 20
77.84382836214088
 30
0.0
 10
-94.78324375433442
 20
74.94607162052924
 30
0.0
 10
-95.64662310507589
 20
73.98034630531036
 30
0.0
 10
-97.35579250615025
 20
72.03470270617557
 30
0.0
 10
-98.19986475871815
 20
71.0533983154028
 30
0.0
 10
-100.6916720215818
 20
68.07687834906729
 30
0.0
 10
-102.3008073055991
 20
66.05051629842873
 30
0.0
 10
-105.4069332322443
 20
61.90730165188863
 30
0.0
 10
-106.9032612999631
 20
59.789914418183
 30
0.0
 10
-109.7999971121081
 20
55.47774095739137
 30
0.0
 10
-111.1985256633657
 20
53.2859583086995
 30
0.0
 10
-113.9500031297316
 20
48.8775778339149
 30
0.0
 10
-115.3053050104526
 20
46.66054850626374
 30
0.0
 10
-118.0486614443368
 20
42.24706613679041
 30
0.0
 10
-119.4376224413244
 20
40.05118255223176
 30
0.0
 10
-121.5828392256039
 20
36.79616640544104
 30
0.0
 10
-122.3091026164417
 20
35.71819165183598
 30
0.0
 10
-123.7791636068929
 20
33.5732577004462
 30
0.0
 10
-124.5130822745736
 20
32.50009223880645
 30
0.0
 10
-125.5355079195977
 20
30.84105774416547
 30
0.0
 10
-125.8637760000375
 20
30.28016791930759
 30
0.0
 10
-126.488558652702
 20
29.13843969097543
 30
0.0
 10
-126.7846276247715
 20
28.55732134710331
 30
0.0
 10
-127.6247822890655
 20
26.7837783400823
 30
0.0
 10
-128.117444556378
 20
25.57611801266048
 30
0.0
 10
-128.9883573333687
 20
23.13095813869514
 30
0.0
 10
-129.3670457813539
 20
21.89124426367529
 30
0.0
 10
-130.0163381247396
 20
19.37919398038671
 30
0.0
 10
-130.2868441295486
 20
18.10682802636884
 30
0.0
 10
-130.7125130392888
 20
15.527282779879
 30
0.0
 10
-130.8652408322666
 20
14.2333251738006
 30
0.0
 10
-131.039512781751
 20
11.64841927761059
 30
0.0
 10
-131.0602579248275
 20
10.35562001404744
 30
0.0
 10
-130.9591226210167
 20
7.769277506966229
 30
0.0
 10
-130.8382072614279
 20
6.475739297647184
 30
0.0
 10
-130.5372385726545
 20
4.534808135130107
 30
0.0
 10
-130.4172453112748
 20
3.890944298149126
 30
0.0
 10
-130.1374335607561
 20
2.618332364085132
 30
0.0
 10
-129.9774290389799
 20
1.988295442981191
 30
0.0
 10
-129.4328543327571
 20
0.1183221927651091
 30
0.0
 10
-128.9847023047296
 20
-1.10178207963286
 30
0.0
 10
-128.1538958114708
 20
-2.882475675245927
 30
0.0
 10
-127.8503396930077
 20
-3.466788780246424
 30
0.0
 10
-127.1956817979496
 20
-4.594473666368653
 30
0.0
 10
-126.8434033732886
 20
-5.140547552743038
 30
0.0
 10
-126.0842018395212
 20
-6.193778390757778
 30
0.0
 10
-125.6772988424862
 20
-6.700949665843755
 30
0.0
 10
-124.8022010420366
 20
-7.67164132384164
 30
0.0
 10
-124.3303652469963
 20
-8.136461662376137
 30
0.0
 10
-122.8572870691023
 20
-9.434802360045895
 30
0.0
 10
-121.7928679736158
 20
-10.1841769172447
 30
0.0
 10
-120.1103029643339
 20
-11.18701790593209
 30
0.0
 10
-119.5335981119591
 20
-11.50169377706313
 30
0.0
 10
-118.364435552181
 20
-12.09441038561079
 30
0.0
 10
-117.7727553647435
 20
-12.3722381828198
 30
0.0
 10
-115.9817062561755
 20
-13.16393395044262
 30
0.0
 10
-114.7664769501594
 20
-13.63640104724787
 30
0.0
 10
-111.0911429419829
 20
-14.97641619355555
 30
0.0
 10
-108.6010842379758
 20
-15.76577434707151
 30
0.0
 10
-104.9198392641098
 20
-17.09035990921831
 30
0.0
 10
-103.7039062502655
 20
-17.55439177254914
 30
0.0
 10
-101.9194961876968
 20
-18.32278856642737
 30
0.0
 10
-101.3313079587577
 20
-18.59124658482128
 30
0.0
 10
-100.1715560607017
 20
-19.15913863840442
 30
0.0
 10
-99.5996494267299
 20
-19.45793363802125
 30
0.0
 10
-97.90533676271599
 20
-20.39420606654673
 30
0.0
 10
-96.80444729945553
 20
-21.07177463417666
 30
0.0
 10
-94.64372169405956
 20
-22.50340512494711
 30
0.0
 10
-93.5832937374385
 20
-23.25777748322664
 30
0.0
 10
-90.43871728265174
 20
-25.57901503392842
 30
0.0
 10
-88.3924650219717
 20
-27.20099637733765
 30
0.0
 10
-85.25994539211801
 20
-29.54014878925961
 30
0.0
 10
-84.20536227333378
 20
-30.30439850009689
 30
0.0
 10
-82.0553731014695
 20
-31.77224039322874
 30
0.0
 10
-80.95937208331455
 20
-32.47494853542114
 30
0.0
 10
-78.71283378932624
 20
-33.79933109051162
 30
0.0
 10
-77.5634640007292
 20
-34.42274023638707
 30
0.0
 10
-75.79585877321617
 20
-35.29314355530533
 30
0.0
 10
-75.19885462094022
 20
-35.57261572487214
 30
0.0
 10
-73.99837697506946
 20
-36.10432563181192
 30
0.0
 10
-73.3938784057861
 20
-36.35709687685794
 30
0.0
 10
-71.56688974668607
 20
-37.07396733685431
 30
0.0
 10
-70.33099261961337
 20
-37.49688715942816
 30
0.0
 10
-67.81778483027763
 20
-38.2155261275942
 30
0.0
 10
-66.53927768666013
 20
-38.51161155599015
 30
0.0
 10
-63.93706053499609
 20
-38.94844218690027
 30
0.0
 10
-62.63512897716154
 20
-39.08544670260264
 30
0.0
 10
-60.02939332506411
 20
-39.17422119947744
 30
0.0
 10
-58.72558802645597
 20
-39.12587204472565
 30
0.0
 10
-56.76823395004602
 20
-38.89051044122042
 30
0.0
 10
-56.11290589810865
 20
-38.7847108434302
 30
0.0
 10
-54.82092709272122
 20
-38.52564851646594
 30
0.0
 10
-54.18290414048664
 20
-38.3724589127658
 30
0.0
 10
-52.29047567474479
 20
-37.84862334968022
 30
0.0
 10
-51.0576059805382
 20
-37.41402119097079
 30
0.0
 10
-49.24477281830955
 20
-36.65380673625114
 30
0.0
 10
-48.64660244256697
 20
-36.38226457349104
 30
0.0
 10
-47.46166029158555
 20
-35.8053291482916
 30
0.0
 10
-46.87642541466379
 20
-35.50059320110805
 30
0.0
 10
-45.15389796244427
 20
-34.54911801521962
 30
0.0
 10
-44.04391221901952
 20
-33.86262098163186
 30
0.0
 10
-41.88833505026016
 20
-32.40204622640519
 30
0.0
 10
-40.84280466847265
 20
-31.62788548135662
 30
0.0
 10
-38.80870915560918
 20
-30.00208734424636
 30
0.0
 10
-37.82001823687032
 20
-29.15062103203144
 30
0.0
 10
-35.89704184121872
 20
-27.37369327619597
 30
0.0
 10
-34.9607723301349
 20
-26.44543423484385
 30
0.0
 10
-33.16431174967241
 20
-24.54337437840591
 30
0.0
 10
-32.30117436211233
 20
-23.56718813564234
 30
0.0
 10
-29.80590495663626
 20
-20.57114325966729
 30
0.0
 10
-28.26786705187221
 20
-18.48383334921504
 30
0.0
 10
-25.38464299318222
 20
-14.17096793061726
 30
0.0
 10
-24.03946853300527
 20
-11.94540403981848
 30
0.0
 10
-22.12385270112355
 20
-8.533835040321007
 30
0.0
 10
-21.50199749067546
 20
-7.383738846465786
 30
0.0
 10
-20.2881431863891
 20
-5.069509154816696
 30
0.0
 10
-19.69585654735817
 20
-3.90491769999823
 30
0.0
 10
-16.78843811792743
 20
1.945623804244082
 30
0.0
 10
-14.63419233687517
 20
6.713735030345617
 30
0.0
 10
-10.2074416432057
 20
16.18956497581923
 30
0.0
 10
-7.937602477975859
 20
20.89864503756606
 30
0.0
 10
-4.731644545348111
 20
26.59672855638822
 30
0.0
 10
-4.071869494218896
 20
27.72685506691093
 30
0.0
 10
-2.706904013564011
 20
29.96391538808505
 30
0.0
 10
-2.001050951444481
 20
31.07184048741715
 30
0.0
 10
-0.5380759394220638
 20
33.2557191061495
 30
0.0
 10
0.2165593125148068
 20
34.32799577761066
 30
0.0
 10
1.77826458880038
 20
36.42800888983972
 30
0.0
 10
2.586575480710871
 20
37.45469128717564
 30
0.0
 10
6.740257170277077
 20
42.49285783915395
 30
0.0
 10
10.41413421619539
 20
46.22528807493067
 30
0.0
 10
17.70806007916585
 20
53.73590211053754
 30
0.0
 10
21.33159758019533
 20
57.5112316747895
 30
0.0
 10
25.35561021191879
 20
62.66238484128145
 30
0.0
 10
26.13497733800585
 20
63.71435601352386
 30
0.0
 10
27.63003878803628
 20
65.8727217608507
 30
0.0
 10
28.34708505138815
 20
66.98188391306765
 30
0.0
 10
30.35872703739019
 20
70.36492481241815
 30
0.0
 10
31.52053622523391
 20
72.70453379465741
 30
0.0
 10
32.70598458558744
 20
75.75442369522109
 30
0.0
 10
32.92980321348324
 20
76.3706378974397
 30
0.0
 10
33.35010500442943
 20
77.61591156317648
 30
0.0
 10
33.54703739499326
 20
78.24643550345733
 30
0.0
 10
34.09219722847068
 20
80.14621511832163
 30
0.0
 10
34.39468274111292
 20
81.42042144430431
 30
0.0
 10
34.86649131032554
 20
83.98562639729637
 30
0.0
 10
35.03604305756792
 20
85.27659618552707
 30
0.0
 10
35.21211687662008
 20
87.87909443495731
 30
0.0
 10
35.21949334511489
 20
89.19051515342858
 30
0.0
 10
35.11398952444891
 20
90.51617051319056
 30
0.0
  0
CIRCLE
  5
E3
330
1F
100
AcDbEntity
  8
0
  6
Continuous
 62
     7
370
    25
100
AcDbCircle
 10
43.1047769149
 20
110.1681806995
 30
0.0
 40
8.499999999999964
  0
LINE
  5
E4
330
1F
100
AcDbEntity
  8
0
  6
Continuous
 62
     7
370
    25
100
AcDbLine
 10
114.0
 20
-145.0
 30
0.0
 11
114.0
 21
-140.0
 31
0.0
  0
LINE
  5
E5
330
1F
100
AcDbEntity
  8
0
  6
Continuous
 62
     7
370
    25
100
AcDbLine
 10
84.0
 20
-140.0
 30
0.0
 11
114.0
 21
-140.0
 31
0.0
  0
LINE
  5
E6
330
1F
100
AcDbEntity
  8
0
  6
Continuous
 62
     7
370
    25
100
AcDbLine
 10
84.0
 20
-145.0
 30
0.0
 11
84.0
 21
-140.0
 31
0.0
  0
LINE
  5
E7
330
1F
100
AcDbEntity
  8
0
  6
Continuous
 62
     7
370
    25
100
AcDbLine
 10
84.0
 20
-145.0
 30
0.0
 11
114.0
 21
-145.0
 31
0.0
  0
LINE
  5
E8
330
1F
100
AcDbEntity
  8
0
  6
Continuous
 62
     7
370
    25
100
AcDbLine
 10
48.0
 20
-145.0
 30
0.0
 11
48.0
 21
-140.0
 31
0.0
  0
LINE
  5
E9
330
1F
100
AcDbEntity
  8
0
  6
Continuous
 62
     7
370
    25
100
AcDbLine
 10
18.0
 20
-140.0
 30
0.0
 11
48.0
 21
-140.0
 31
0.0
  0
LINE
  5
EA
330
1F
100
AcDbEntity
  8
0
  6
Continuous
 62
     7
370
    25
100
AcDbLine
 10
18.0
 20
-145.0
 30
0.0
 11
18.0
 21
-140.0
 31
0.0
  0
LINE
  5
EB
330
1F
100
AcDbEntity
  8
0
  6
Continuous
 62
     7
370
    25
100
AcDbLine
 10
18.0
 20
-145.0
 30
0.0
 11
48.0
 21
-145.0
 31
0.0
  0
LINE
  5
EC
330
1F
100
AcDbEntity
  8
0
  6
Continuous
 62
     7
370
    25
100
AcDbLine
 10
-18.0
 20
-145.0
 30
0.0
 11
-18.0
 21
-140.0
 31
0.0
  0
LINE
  5
ED
330
1F
100
AcDbEntity
  8
0
  6
Continuous
 62
     7
370
    25
100
AcDbLine
 10
-48.0
 20
-140.0
 30
0.0
 11
-18.0
 21
-140.0
 31
0.0
  0
LINE
  5
EE
330
1F
100
AcDbEntity
  8
0
  6
Continuous
 62
     7
370
    25
100
AcDbLine
 10
-48.0
 20
-145.0
 30
0.0
 11
-48.0
 21
-140.0
 31
0.0
  0
LINE
  5
EF
330
1F
100
AcDbEntity
  8
0
  6
Continuous
 62
     7
370
    25
100
AcDbLine
 10
-48.0
 20
-145.0
 30
0.0
 11
-18.0
 21
-145.0
 31
0.0
  0
LINE
  5
F0
330
1F
100
AcDbEntity
  8
0
  6
Continuous
 62
     7
370
    25
100
AcDbLine
 10
-84.0
 20
-145.0
 30
0.0
 11
-84.0
 21
-140.0
 31
0.0
  0
LINE
  5
F1
330
1F
100
AcDbEntity
  8
0
  6
Continuous
 62
     7
370
    25
100
AcDbLine
 10
-114.0
 20
-140.0
 30
0.0
 11
-84.0
 21
-140.0
 31
0.0
  0
LINE
  5
F2
330
1F
100
AcDbEntity
  8
0
  6
Continuous
 62
     7
370
    25
100
AcDbLine
 10
-114.0
 20
-145.0
 30
0.0
 11
-114.0
 21
-140.0
 31
0.0
  0
LINE
  5
F3
330
1F
100
AcDbEntity
  8
0
  6
Continuous
 62
     7
370
    25
100
AcDbLine
 10
-114.0
 20
-145.0
 30
0.0
 11
-84.0
 21
-145.0
 31
0.0
  0
LINE
  5
F4
330
1F
100
AcDbEntity
  8
0
  6
Continuous
 62
     7
370
    25
100
AcDbLine
 10
-114.0
 20
145.0
 30
0.0
 11
-114.0
 21
140.0
 31
0.0
  0
LINE
  5
F5
330
1F
100
AcDbEntity
  8
0
  6
Continuous
 62
     7
370
    25
100
AcDbLine
 10
-114.0
 20
140.0
 30
0.0
 11
-84.0
 21
140.0
 31
0.0
  0
LINE
  5
F6
330
1F
100
AcDbEntity
  8
0
  6
Continuous
 62
     7
370
    25
100
AcDbLine
 10
-84.0
 20
145.0
 30
0.0
 11
-84.0
 21
140.0
 31
0.0
  0
LINE
  5
F7
330
1F
100
AcDbEntity
  8
0
  6
Continuous
 62
     7
370
    25
100
AcDbLine
 10
-114.0
 20
145.0
 30
0.0
 11
-84.0
 21
145.0
 31
0.0
  0
LINE
  5
F8
330
1F
100
AcDbEntity
  8
0
  6
Continuous
 62
     7
370
    25
100
AcDbLine
 10
48.0
 20
145.0
 30
0.0
 11
48.0
 21
140.0
 31
0.0
  0
LINE
  5
F9
330
1F
100
AcDbEntity
  8
0
  6
Continuous
 62
     7
370
    25
100
AcDbLine
 10
18.0
 20
145.0
 30
0.0
 11
48.0
 21
145.0
 31
0.0
  0
LINE
  5
FA
330
1F
100
AcDbEntity
  8
0
  6
Continuous
 62
     7
370
    25
100
AcDbLine
 10
18.0
 20
145.0
 30
0.0
 11
18.0
 21
140.0
 31
0.0
  0
LINE
  5
FB
330
1F
100
AcDbEntity
  8
0
  6
Continuous
 62
     7
370
    25
100
AcDbLine
 10
18.0
 20
140.0
 30
0.0
 11
48.0
 21
140.0
 31
0.0
  0
LINE
  5
FC
330
1F
100
AcDbEntity
  8
0
  6
Continuous
 62
     7
370
    25
100
AcDbLine
 10
114.0
 20
145.0
 30
0.0
 11
114.0
 21
140.0
 31
0.0
  0
LINE
  5
FD
330
1F
100
AcDbEntity
  8
0
  6
Continuous
 62
     7
370
    25
100
AcDbLine
 10
84.0
 20
145.0
 30
0.0
 11
114.0
 21
145.0
 31
0.0
  0
LINE
  5
FE
330
1F
100
AcDbEntity
  8
0
  6
Continuous
 62
     7
370
    25
100
AcDbLine
 10
84.0
 20
145.0
 30
0.0
 11
84.0
 21
140.0
 31
0.0
  0
LINE
  5
FF
330
1F
100
AcDbEntity
  8
0
  6
Continuous
 62
     7
370
    25
100
AcDbLine
 10
84.0
 20
140.0
 30
0.0
 11
114.0
 21
140.0
 31
0.0
  0
LINE
  5
100
330
1F
100
AcDbEntity
  8
0
  6
Continuous
 62
     7
370
    25
100
AcDbLine
 10
145.0
 20
150.0
 30
0.0
 11
145.0
 21
114.0
 31
0.0
  0
LINE
  5
101
330
1F
100
AcDbEntity
  8
0
  6
Continuous
 62
     7
370
    25
100
AcDbLine
 10
145.0
 20
114.0
 30
0.0
 11
150.0
 21
114.0
 31
0.0
  0
LINE
  5
102
330
1F
100
AcDbEntity
  8
0
  6
Continuous
 62
     7
370
    25
100
AcDbLine
 10
150.0
 20
114.0
 30
0.0
 11
150.0
 21
84.0
 31
0.0
  0
LINE
  5
103
330
1F
100
AcDbEntity
  8
0
  6
Continuous
 62
     7
370
    25
100
AcDbLine
 10
150.0
 20
84.0
 30
0.0
 11
145.0
 21
84.0
 31
0.0
  0
LINE
  5
104
330
1F
100
AcDbEntity
  8
0
  6
Continuous
 62
     7
370
    25
100
AcDbLine
 10
145.0
 20
84.0
 30
0.0
 11
145.0
 21
48.0
 31
0.0
  0
LINE
  5
105
330
1F
100
AcDbEntity
  8
0
  6
Continuous
 62
     7
370
    25
100
AcDbLine
 10
145.0
 20
48.0
 30
0.0
 11
150.0
 21
48.0
 31
0.0
  0
LINE
  5
106
330
1F
100
AcDbEntity
  8
0
  6
Continuous
 62
     7
370
    25
100
AcDbLine
 10
150.0
 20
48.0
 30
0.0
 11
150.0
 21
18.0
 31
0.0
  0
LINE
  5
107
330
1F
100
AcDbEntity
  8
0
  6
Continuous
 62
     7
370
    25
100
AcDbLine
 10
150.0
 20
18.0
 30
0.0
 11
145.0
 21
18.0
 31
0.0
  0
LINE
  5
108
330
1F
100
AcDbEntity
  8
0
  6
Continuous
 62
     7
370
    25
100
AcDbLine
 10
145.0
 20
18.0
 30
0.0
 11
145.0
 21
-18.0
 31
0.0
  0
LINE
  5
109
330
1F
100
AcDbEntity
  8
0
  6
Continuous
 62
     7
370
    25
100
AcDbLine
 10
145.0
 20
-18.0
 30
0.0
 11
150.0
 21
-18.0
 31
0.0
  0
LINE
  5
10A
330
1F
100
AcDbEntity
  8
0
  6
Continuous
 62
     7
370
    25
100
AcDbLine
 10
150.0
 20
-18.0
 30
0.0
 11
150.0
 21
-48.0
 31
0.0
  0
LINE
  5
10B
330
1F
100
AcDbEntity
  8
0
  6
Continuous
 62
     7
370
    25
100
AcDbLine
 10
150.0
 20
-48.0
 30
0.0
 11
145.0
 21
-48.0
 31
0.0
  0
LINE
  5
10C
330
1F
100
AcDbEntity
  8
0
  6
Continuous
 62
     7
370
    25
100
AcDbLine
 10
145.0
 20
-48.0
 30
0.0
 11
145.0
 21
-84.0
 31
0.0
  0
LINE
  5
10D
330
1F
100
AcDbEntity
  8
0
  6
Continuous
 62
     7
370
    25
100
AcDbLine
 10
145.0
 20
-84.0
 30
0.0
 11
150.0
 21
-84.0
 31
0.0
  0
LINE
  5
10E
330
1F
100
AcDbEntity
  8
0
  6
Continuous
 62
     7
370
    25
100
AcDbLine
 10
150.0
 20
-84.0
 30
0.0
 11
150.0
 21
-114.0
 31
0.0
  0
LINE
  5
10F
330
1F
100
AcDbEntity
  8
0
  6
Continuous
 62
     7
370
    25
100
AcDbLine
 10
150.0
 20
-114.0
 30
0.0
 11
145.0
 21
-114.0
 31
0.0
  0
LINE
  5
110
330
1F
100
AcDbEntity
  8
0
  6
Continuous
 62
     7
370
    25
100
AcDbLine
 10
145.0
 20
-114.0
 30
0.0
 11
145.0
 21
-150.0
 31
0.0
  0
LINE
  5
111
330
1F
100
AcDbEntity
  8
0
  6
Continuous
 62
     7
370
    25
100
AcDbLine
 10
-145.0
 20
-150.0
 30
0.0
 11
145.0
 21
-150.0
 31
0.0
  0
LINE
  5
112
330
1F
100
AcDbEntity
  8
0
  6
Continuous
 62
     7
370
    25
100
AcDbLine
 10
-145.0
 20
-114.0
 30
0.0
 11
-145.0
 21
-150.0
 31
0.0
  0
LINE
  5
113
330
1F
100
AcDbEntity
  8
0
  6
Continuous
 62
     7
370
    25
100
AcDbLine
 10
-150.0
 20
-114.0
 30
0.0
 11
-145.0
 21
-114.0
 31
0.0
  0
LINE
  5
114
330
1F
100
AcDbEntity
  8
0
  6
Continuous
 62
     7
370
    25
100
AcDbLine
 10
-150.0
 20
-84.0
 30
0.0
 11
-150.0
 21
-114.0
 31
0.0
  0
LINE
  5
115
330
1F
100
AcDbEntity
  8
0
  6
Continuous
 62
     7
370
    25
100
AcDbLine
 10
-145.0
 20
-84.0
 30
0.0
 11
-150.0
 21
-84.0
 31
0.0
  0
LINE
  5
116
330
1F
100
AcDbEntity
  8
0
  6
Continuous
 62
     7
370
    25
100
AcDbLine
 10
-145.0
 20
-48.0
 30
0.0
 11
-145.0
 21
-84.0
 31
0.0
  0
LINE
  5
117
330
1F
100
AcDbEntity
  8
0
  6
Continuous
 62
     7
370
    25
100
AcDbLine
 10
-150.0
 20
-48.0
 30
0.0
 11
-145.0
 21
-48.0
 31
0.0
  0
LINE
  5
118
330
1F
100
AcDbEntity
  8
0
  6
Continuous
 62
     7
370
    25
100
AcDbLine
 10
-150.0
 20
-18.0
 30
0.0
 11
-150.0
 21
-48.0
 31
0.0
  0
LINE
  5
119
330
1F
100
AcDbEntity
  8
0
  6
Continuous
 62
     7
370
    25
100
AcDbLine
 10
-145.0
 20
-18.0
 30
0.0
 11
-150.0
 21
-18.0
 31
0.0
  0
LINE
  5
11A
330
1F
100
AcDbEntity
  8
0
  6
Continuous
 62
     7
370
    25
100
AcDbLine
 10
-145.0
 20
18.0
 30
0.0
 11
-145.0
 21
-18.0
 31
0.0
  0
LINE
  5
11B
330
1F
100
AcDbEntity
  8
0
  6
Continuous
 62
     7
370
    25
100
AcDbLine
 10
-150.0
 20
18.0
 30
0.0
 11
-145.0
 21
18.0
 31
0.0
  0
LINE
  5
11C
330
1F
100
AcDbEntity
  8
0
  6
Continuous
 62
     7
370
    25
100
AcDbLine
 10
-150.0
 20
48.0
 30
0.0
 11
-150.0
 21
18.0
 31
0.0
  0
LINE
  5
11D
330
1F
100
AcDbEntity
  8
0
  6
Continuous
 62
     7
370
    25
100
AcDbLine
 10
-145.0
 20
48.0
 30
0.0
 11
-150.0
 21
48.0
 31
0.0
  0
LINE
  5
11E
330
1F
100
AcDbEntity
  8
0
  6
Continuous
 62
     7
370
    25
100
AcDbLine
 10
-145.0
 20
84.0
 30
0.0
 11
-145.0
 21
48.0
 31
0.0
  0
LINE
  5
11F
330
1F
100
AcDbEntity
  8
0
  6
Continuous
 62
     7
370
    25
100
AcDbLine
 10
-150.0
 20
84.0
 30
0.0
 11
-145.0
 21
84.0
 31
0.0
  0
LINE
  5
120
330
1F
100
AcDbEntity
  8
0
  6
Continuous
 62
     7
370
    25
100
AcDbLine
 10
-150.0
 20
114.0
 30
0.0
 11
-150.0
 21
84.0
 31
0.0
  0
LINE
  5
121
330
1F
100
AcDbEntity
  8
0
  6
Continuous
 62
     7
370
    25
100
AcDbLine
 10
-145.0
 20
114.0
 30
0.0
 11
-150.0
 21
114.0
 31
0.0
  0
LINE
  5
122
330
1F
100
AcDbEntity
  8
0
  6
Continuous
 62
     7
370
    25
100
AcDbLine
 10
-145.0
 20
150.0
 30
0.0
 11
-145.0
 21
114.0
 31
0.0
  0
LINE
  5
123
330
1F
100
AcDbEntity
  8
0
  6
Continuous
 62
     7
370
    25
100
AcDbLine
 10
-145.0
 20
150.0
 30
0.0
 11
145.0
 21
150.0
 31
0.0
  0
LINE
  5
124
330
1F
100
AcDbEntity
  8
0
  6
Continuous
 62
     7
370
    25
100
AcDbLine
 10
-18.0
 20
145.0
 30
0.0
 11
-18.0
 21
140.0
 31
0.0
  0
LINE
  5
125
330
1F
100
AcDbEntity
  8
0
  6
Continuous
 62
     7
370
    25
100
AcDbLine
 10
-48.0
 20
145.0
 30
0.0
 11
-18.0
 21
145.0
 31
0.0
  0
LINE
  5
126
330
1F
100
AcDbEntity
  8
0
  6
Continuous
 62
     7
370
    25
100
AcDbLine
 10
-48.0
 20
145.0
 30
0.0
 11
-48.0
 21
140.0
 31
0.0
  0
LINE
  5
127
330
1F
100
AcDbEntity
  8
0
  6
Continuous
 62
     7
370
    25
100
AcDbLine
 10
-48.0
 20
140.0
 30
0.0
 11
-18.0
 21
140.0
 31
0.0
  0
LINE
  5
128
330
1F
100
AcDbEntity
  8
0
  6
Continuous
 62
     7
370
    25
100
AcDbLine
 10
39.1629832788
 20
-33.3800847107
 30
0.0
 11
43.2801463527
 21
-29.1938085877
 31
0.0
  0
LINE
  5
129
330
1F
100
AcDbEntity
  8
0
  6
Continuous
 62
     7
370
    25
100
AcDbLine
 10
52.8473670208
 20
-46.8275094269
 30
0.0
 11
39.1629832788
 21
-33.3800847107
 31
0.0
  0
LINE
  5
12A
330
1F
100
AcDbEntity
  8
0
  6
Continuous
 62
     7
370
    25
100
AcDbLine
 10
30.9385304238
 20
-41.7526369569
 30
0.0
 11
44.6229141658
 21
-55.2000616731
 31
0.0
  0
LINE
  5
12B
330
1F
100
AcDbEntity
  8
0
  6
Continuous
 62
     7
370
    25
100
AcDbLine
 10
26.8213673499
 20
-45.93891308
 30
0.0
 11
30.9385304238
 21
-41.7526369569
 31
0.0
  0
LINE
  5
12C
330
1F
100
AcDbEntity
  8
0
  6
Continuous
 62
     7
370
    25
100
AcDbLine
 10
40.5057510919
 20
-59.3863377961
 30
0.0
 11
26.8213673499
 21
-45.93891308
 31
0.0
  0
LINE
  5
12D
330
1F
100
AcDbEntity
  8
0
  6
Continuous
 62
     7
370
    25
100
AcDbLine
 10
43.2801463527
 20
-29.1938085877
 30
0.0
 11
56.9645300947
 21
-42.6412333038
 31
0.0
  0
LINE
  5
12E
330
1F
100
AcDbEntity
  8
0
  6
Continuous
 62
     7
370
    25
100
AcDbLine
 10
86.0211952025
 20
-28.2807627846
 30
0.0
 11
72.835412744
 21
-23.4971524505
 31
0.0
  0
LINE
  5
12F
330
1F
100
AcDbEntity
  8
0
  6
Continuous
 62
     7
370
    25
100
AcDbLine
 10
90.0988651054
 20
-24.1290431861
 30
0.0
 11
86.0211952025
 21
-28.2807627846
 31
0.0
  0
LINE
  5
130
330
1F
100
AcDbEntity
  8
0
  6
Continuous
 62
     7
370
    25
100
AcDbLine
 10
73.9659047631
 20
-18.4370899197
 30
0.0
 11
90.0988651054
 21
-24.1290431861
 31
0.0
  0
LINE
  5
131
330
1F
100
AcDbEntity
  8
0
  6
Continuous
 62
     7
370
    25
100
AcDbLine
 10
68.8169825976
 20
-3.0890563505
 30
0.0
 11
73.9659047631
 21
-18.4370899197
 31
0.0
  0
LINE
  5
132
330
1F
100
AcDbEntity
  8
0
  6
Continuous
 62
     7
370
    25
100
AcDbLine
 10
64.7047561701
 20
-7.2753324735
 30
0.0
 11
68.8169825976
 21
-3.0890563505
 31
0.0
  0
LINE
  5
133
330
1F
100
AcDbEntity
  8
0
  6
Continuous
 62
     7
370
    25
100
AcDbLine
 10
69.0440683307
 20
-19.7749210864
 30
0.0
 11
64.7047561701
 21
-7.2753324735
 31
0.0
  0
LINE
  5
134
330
1F
100
AcDbEntity
  8
0
  6
Continuous
 62
     7
370
    25
100
AcDbLine
 10
56.4753666687
 20
-15.6478847197
 30
0.0
 11
69.0440683307
 21
-19.7749210864
 31
0.0
  0
LINE
  5
135
330
1F
100
AcDbEntity
  8
0
  6
Continuous
 62
     7
370
    25
100
AcDbLine
 10
52.3631402412
 20
-19.8341608428
 30
0.0
 11
56.4753666687
 21
-15.6478847197
 31
0.0
  0
LINE
  5
136
330
1F
100
AcDbEntity
  8
0
  6
Continuous
 62
     7
370
    25
100
AcDbLine
 10
67.8444632624
 20
-24.765870568
 30
0.0
 11
52.3631402412
 21
-19.8341608428
 31
0.0
  0
LINE
  5
137
330
1F
100
AcDbEntity
  8
0
  6
Continuous
 62
     7
370
    25
100
AcDbLine
 10
73.7437556764
 20
-40.775414751
 30
0.0
 11
67.8444632624
 21
-24.765870568
 31
0.0
  0
LINE
  5
138
330
1F
100
AcDbEntity
  8
0
  6
Continuous
 62
     7
370
    25
100
AcDbLine
 10
77.8559821039
 20
-36.5891386279
 30
0.0
 11
73.7437556764
 21
-40.775414751
 31
0.0
  0
LINE
  5
139
330
1F
100
AcDbEntity
  8
0
  6
Continuous
 62
     7
370
    25
100
AcDbLine
 10
72.835412744
 20
-23.4971524505
 30
0.0
 11
77.8559821039
 21
-36.5891386279
 31
0.0
  0
LINE
  5
13A
330
1F
100
AcDbEntity
  8
0
  6
Continuous
 62
     7
370
    25
100
AcDbLine
 10
29.9697295009
 20
-80.751766831
 30
0.0
 11
37.1673599107
 21
-73.4257836156
 31
0.0
  0
LINE
  5
13B
330
1F
100
AcDbEntity
  8
0
  6
Continuous
 62
     7
370
    25
100
AcDbLine
 10
10.9636409704
 20
-62.0764336074
 30
0.0
 11
29.9697295009
 21
-80.751766831
 31
0.0
  0
LINE
  5
13C
330
1F
100
AcDbEntity
  8
0
  6
Continuous
 62
     7
370
    25
100
AcDbLine
 10
6.8514145429
 20
-66.2627097304
 30
0.0
 11
10.9636409704
 21
-62.0764336074
 31
0.0
  0
LINE
  5
13D
330
1F
100
AcDbEntity
  8
0
  6
Continuous
 62
     7
370
    25
100
AcDbLine
 10
28.1382336971
 20
-87.1792804068
 30
0.0
 11
6.8514145429
 21
-66.2627097304
 31
0.0
  0
LINE
  5
13E
330
1F
100
AcDbEntity
  8
0
  6
Continuous
 62
     7
370
    25
100
AcDbLine
 10
39.4480905344
 20
-75.6670210683
 30
0.0
 11
28.1382336971
 21
-87.1792804068
 31
0.0
  0
LINE
  5
13F
330
1F
100
AcDbEntity
  8
0
  6
Continuous
 62
     7
370
    25
100
AcDbLine
 10
37.1673599107
 20
-73.4257836156
 30
0.0
 11
39.4480905344
 21
-75.6670210683
 31
0.0
  0
ARC
  5
140
330
1F
100
AcDbEntity
  8
0
  6
Continuous
 62
     7
370
    25
100
AcDbCircle
 10
43.1047769149
 20
91.1521266036
 30
0.0
 40
8.01605409594111
100
AcDbArc
 50
90.0
 51
184.5503600351
  0
ARC
  5
141
330
1F
100
AcDbEntity
  8
0
  6
Continuous
 62
     7
370
    25
100
AcDbCircle
 10
43.1047769149
 20
110.1681806995
 30
0.0
 40
11.00000000000001
100
AcDbArc
 50
270.0
 51
182.7724447877
  0
ARC
  5
142
330
1F
100
AcDbEntity
  8
0
  6
Continuous
 62
     7
370
    25
100
AcDbCircle
 10
27.1391315659
 20
109.3950269025
 30
0.0
 40
4.984354794785617
100
AcDbArc
 50
242.3870378554
 51
2.7724447877
  0
ARC
  5
143
330
1F
100
AcDbEntity
  8
0
  6
Continuous
 62
     7
370
    25
100
AcDbCircle
 10
120.1331828424
 20
9.8952449912
 30
0.0
 40
5.531787841112447
100
AcDbArc
 50
93.9902027694
 51
207.3796276059
  0
ARC
  5
144
330
1F
100
AcDbEntity
  8
0
  6
Continuous
 62
     7
370
    25
100
AcDbCircle
 10
118.9828035841
 20
26.3869591769
 30
0.0
 40
11.00000000000001
100
AcDbArc
 50
273.9902027694
 51
174.2070746107
  0
ARC
  5
145
330
1F
100
AcDbEntity
  8
0
  6
Continuous
 62
     7
370
    25
100
AcDbCircle
 10
102.5354406211
 20
28.0555696124
 30
0.0
 40
5.531787841112449
100
AcDbArc
 50
240.9342716094
 51
354.2070746107
  0
ENDSEC
  0
SECTION
  2
OBJECTS
  0
DICTIONARY
  5
C
330
0
100
AcDbDictionary
281
     1
  3
ACAD_GROUP
350
D
  3
ACAD_LAYOUT
350
1A
  3
ACAD_MLINESTYLE
350
17
  3
ACAD_PLOTSETTINGS
350
19
  3
ACAD_PLOTSTYLENAME
350
E
  3
ACAD_SCALELIST
350
47
  0
DICTIONARY
  5
D
102
{ACAD_REACTORS
330
C
102
}
330
C
100
AcDbDictionary
281
     1
  0
DICTIONARY
  5
1A
102
{ACAD_REACTORS
330
C
102
}
330
C
100
AcDbDictionary
281
     1
  3
Layout1
350
1E
  3
Layout2
350
26
  3
Model
350
22
  0
DICTIONARY
  5
17
102
{ACAD_REACTORS
330
C
102
}
330
C
100
AcDbDictionary
281
     1
  3
Standard
350
18
  0
DICTIONARY
  5
19
102
{ACAD_REACTORS
330
C
102
}
330
C
100
AcDbDictionary
281
     1
  0
ACDBDICTIONARYWDFLT
  5
E
102
{ACAD_REACTORS
330
C
102
}
330
C
100
AcDbDictionary
281
     1
  3
Normal
350
F
100
AcDbDictionaryWithDefault
340
F
  0
DICTIONARY
  5
47
102
{ACAD_REACTORS
330
C
102
}
330
C
100
AcDbDictionary
281
     1
  3
A0
350
48
  3
A1
350
49
  3
A2
350
4A
  3
A3
350
4B
  3
A4
350
4C
  3
A5
350
4D
  3
A6
350
4E
  3
A7
350
4F
  3
A8
350
50
  3
A9
350
51
  3
B0
350
52
  3
B1
350
53
  3
B2
350
54
  3
B3
350
55
  3
B4
350
56
  3
B5
350
57
  3
B6
350
58
  3
B7
350
59
  3
B8
350
5A
  3
B9
350
5B
  3
C0
350
5C
  3
C1
350
5D
  3
C2
350
5E
  3
C3
350
5F
  3
C4
350
60
  3
C5
350
61
  3
C6
350
62
  3
C7
350
63
  3
C8
350
64
  3
C9
350
65
  3
D0
350
66
  3
D1
350
67
  3
D2
350
68
  0
LAYOUT
  5
1E
102
{ACAD_REACTORS
330
1A
102
}
330
1A
100
AcDbPlotSettings
  1

  2
none_device
  4

  6

 40
0.0
 41
0.0
 42
0.0
 43
0.0
 44
0.0
 45
0.0
 46
0.0
 47
0.0
 48
0.0
 49
0.0
140
0.0
141
0.0
142
1.0
143
1.0
 70
   688
 72
     1
 73
     0
 74
     5
  7

 75
    16
147
1.0
148
0.0
149
0.0
100
AcDbLayout
  1
Layout1
 70
     1
 71
     1
 10
0.0
 20
0.0
 11
420.0
 21
297.0
 12
0.0
 22
0.0
 32
0.0
 14
1.0000000000E+20
 24
1.0000000000E+20
 34
1.0000000000E+20
 15
-1.0000000000E+20
 25
-1.0000000000E+20
 35
-1.0000000000E+20
146
0.0
 13
0.0
 23
0.0
 33
0.0
 16
1.0
 26
0.0
 36
0.0
 17
0.0
 27
1.0
 37
0.0
 76
     0
330
1B
  0
LAYOUT
  5
26
102
{ACAD_REACTORS
330
1A
102
}
330
1A
100
AcDbPlotSettings
  1

  2
none_device
  4

  6

 40
0.0
 41
0.0
 42
0.0
 43
0.0
 44
0.0
 45
0.0
 46
0.0
 47
0.0
 48
0.0
 49
0.0
140
0.0
141
0.0
142
1.0
143
1.0
 70
   688
 72
     1
 73
     0
 74
     5
  7

 75
    16
147
1.0
148
0.0
149
0.0
100
AcDbLayout
  1
Layout2
 70
     1
 71
     2
 10
0.0
 20
0.0
 11
0.0
 21
0.0
 12
0.0
 22
0.0
 32
0.0
 14
0.0
 24
0.0
 34
0.0
 15
0.0
 25
0.0
 35
0.0
146
0.0
 13
0.0
 23
0.0
 33
0.0
 16
1.0
 26
0.0
 36
0.0
 17
0.0
 27
1.0
 37
0.0
 76
     0
330
23
  0
LAYOUT
  5
22
102
{ACAD_REACTORS
330
1A
102
}
330
1A
100
AcDbPlotSettings
  1

  2
none_device
  4
ANSI_A_(11.00_x_8.50_Inches)
  6

 40
6.35
 41
19.05
 42
6.35000508
 43
19.05000254
 44
279.4
 45
215.9
 46
133.34999746
 47
88.89999873
 48
0.0
 49
0.0
140
0.0
141
0.0
142
0.02805
143
1.0
 70
  1696
 72
     0
 73
     0
 74
     0
  7

 75
     0
147
0.0179189148
148
-1300.4909072572
149
0.0
100
AcDbLayout
  1
Model
 70
     1
 71
     0
 10
0.0
 20
0.0
 11
420.0
 21
297.0
 12
0.0
 22
0.0
 32
0.0
 14
-150.0
 24
-150.0
 34
0.0
 15
150.0
 25
150.0
 35
0.0
146
0.0
 13
0.0
 23
0.0
 33
0.0
 16
1.0
 26
0.0
 36
0.0
 17
0.0
 27
1.0
 37
0.0
 76
     0
330
1F
331
29
  0
MLINESTYLE
  5
18
102
{ACAD_REACTORS
330
17
102
}
330
17
100
AcDbMlineStyle
  2
Standard
 70
     0
  3

 62
   256
 51
90.0
 52
90.0
 71
     2
 49
0.5
 62
   256
  6
BYLAYER
 49
-0.5
 62
   256
  6
BYLAYER
  0
ACDBPLACEHOLDER
  5
F
102
{ACAD_REACTORS
330
E
102
}
330
E
  0
SCALE
  5
48
102
{ACAD_REACTORS
330
47
102
}
330
47
100
AcDbScale
 70
     0
300
1:1
140
1.0
141
1.0
290
     1
  0
SCALE
  5
49
102
{ACAD_REACTORS
330
47
102
}
330
47
100
AcDbScale
 70
     0
300
1:2
140
1.0
141
2.0
290
     0
  0
SCALE
  5
4A
102
{ACAD_REACTORS
330
47
102
}
330
47
100
AcDbScale
 70
     0
300
1:4
140
1.0
141
4.0
290
     0
  0
SCALE
  5
4B
102
{ACAD_REACTORS
330
47
102
}
330
47
100
AcDbScale
 70
     0
300
1:5
140
1.0
141
5.0
290
     0
  0
SCALE
  5
4C
102
{ACAD_REACTORS
330
47
102
}
330
47
100
AcDbScale
 70
     0
300
1:8
140
1.0
141
8.0
290
     0
  0
SCALE
  5
4D
102
{ACAD_REACTORS
330
47
102
}
330
47
100
AcDbScale
 70
     0
300
1:10
140
1.0
141
10.0
290
     0
  0
SCALE
  5
4E
102
{ACAD_REACTORS
330
47
102
}
330
47
100
AcDbScale
 70
     0
300
1:16
140
1.0
141
16.0
290
     0
  0
SCALE
  5
4F
102
{ACAD_REACTORS
330
47
102
}
330
47
100
AcDbScale
 70
     0
300
1:20
140
1.0
141
20.0
290
     0
  0
SCALE
  5
50
102
{ACAD_REACTORS
330
47
102
}
330
47
100
AcDbScale
 70
     0
300
1:30
140
1.0
141
30.0
290
     0
  0
SCALE
  5
51
102
{ACAD_REACTORS
330
47
102
}
330
47
100
AcDbScale
 70
     0
300
1:40
140
1.0
141
40.0
290
     0
  0
SCALE
  5
52
102
{ACAD_REACTORS
330
47
102
}
330
47
100
AcDbScale
 70
     0
300
1:50
140
1.0
141
50.0
290
     0
  0
SCALE
  5
53
102
{ACAD_REACTORS
330
47
102
}
330
47
100
AcDbScale
 70
     0
300
1:100
140
1.0
141
100.0
290
     0
  0
SCALE
  5
54
102
{ACAD_REACTORS
330
47
102
}
330
47
100
AcDbScale
 70
     0
300
2:1
140
2.0
141
1.0
290
     0
  0
SCALE
  5
55
102
{ACAD_REACTORS
330
47
102
}
330
47
100
AcDbScale
 70
     0
300
4:1
140
4.0
141
1.0
290
     0
  0
SCALE
  5
56
102
{ACAD_REACTORS
330
47
102
}
330
47
100
AcDbScale
 70
     0
300
8:1
140
8.0
141
1.0
290
     0
  0
SCALE
  5
57
102
{ACAD_REACTORS
330
47
102
}
330
47
100
AcDbScale
 70
     0
300
10:1
140
10.0
141
1.0
290
     0
  0
SCALE
  5
58
102
{ACAD_REACTORS
330
47
102
}
330
47
100
AcDbScale
 70
     0
300
100:1
140
100.0
141
1.0
290
     0
  0
SCALE
  5
59
102
{ACAD_REACTORS
330
47
102
}
330
47
100
AcDbScale
 70
     0
300
1/128" = 1'-0"
140
0.0078125
141
12.0
290
     0
  0
SCALE
  5
5A
102
{ACAD_REACTORS
330
47
102
}
330
47
100
AcDbScale
 70
     0
300
1/64" = 1'-0"
140
0.015625
141
12.0
290
     0
  0
SCALE
  5
5B
102
{ACAD_REACTORS
330
47
102
}
330
47
100
AcDbScale
 70
     0
300
1/32" = 1'-0"
140
0.03125
141
12.0
290
     0
  0
SCALE
  5
5C
102
{ACAD_REACTORS
330
47
102
}
330
47
100
AcDbScale
 70
     0
300
1/16" = 1'-0"
140
0.0625
141
12.0
290
     0
  0
SCALE
  5
5D
102
{ACAD_REACTORS
330
47
102
}
330
47
100
AcDbScale
 70
     0
300
3/32" = 1'-0"
140
0.09375
141
12.0
290
     0
  0
SCALE
  5
5E
102
{ACAD_REACTORS
330
47
102
}
330
47
100
AcDbScale
 70
     0
300
1/8" = 1'-0"
140
0.125
141
12.0
290
     0
  0
SCALE
  5
5F
102
{ACAD_REACTORS
330
47
102
}
330
47
100
AcDbScale
 70
     0
300
3/16" = 1'-0"
140
0.1875
141
12.0
290
     0
  0
SCALE
  5
60
102
{ACAD_REACTORS
330
47
102
}
330
47
100
AcDbScale
 70
     0
300
1/4" = 1'-0"
140
0.25
141
12.0
290
     0
  0
SCALE
  5
61
102
{ACAD_REACTORS
330
47
102
}
330
47
100
AcDbScale
 70
     0
300
3/8" = 1'-0"
140
0.375
141
12.0
290
     0
  0
SCALE
  5
62
102
{ACAD_REACTORS
330
47
102
}
330
47
100
AcDbScale
 70
     0
300
1/2" = 1'-0"
140
0.5
141
12.0
290
     0
  0
SCALE
  5
63
102
{ACAD_REACTORS
330
47
102
}
330
47
100
AcDbScale
 70
     0
300
3/4" = 1'-0"
140
0.75
141
12.0
290
     0
  0
SCALE
  5
64
102
{ACAD_REACTORS
330
47
102
}
330
47
100
AcDbScale
 70
     0
300
1" = 1'-0"
140
1.0
141
12.0
290
     0
  0
SCALE
  5
65
102
{ACAD_REACTORS
330
47
102
}
330
47
100
AcDbScale
 70
     0
300
1-1/2" = 1'-0"
140
1.5
141
12.0
290
     0
  0
SCALE
  5
66
102
{ACAD_REACTORS
330
47
102
}
330
47
100
AcDbScale
 70
     0
300
3" = 1'-0"
140
3.0
141
12.0
290
     0
  0
SCALE
  5
67
102
{ACAD_REACTORS
330
47
102
}
330
47
100
AcDbScale
 70
     0
300
6" = 1'-0"
140
6.0
141
12.0
290
     0
  0
SCALE
  5
68
102
{ACAD_REACTORS
330
47
102
}
330
47
100
AcDbScale
 70
     0
300
1'-0" = 1'-0"
140
12.0
141
12.0
290
     0
  0
ENDSEC
  0
EOF
