  0
SECTION
  2
HEADER
  9
$ACADVER
  1
AC1015
  9
$ACADMAINTVER
 70
     6
  9
$DWGCODEPAGE
  3
ANSI_1252
  9
$INSBASE
 10
0.0
 20
0.0
 30
0.0
  9
$EXTMIN
 10
-150.0
 20
-150.0
 30
0.0
  9
$EXTMAX
 10
150.0
 20
150.0
 30
0.0
  9
$LIMMIN
 10
0.0
 20
0.0
  9
$LIMMAX
 10
420.0
 20
297.0
  9
$ORTHOMODE
 70
     0
  9
$REGENMODE
 70
     1
  9
$FILLMODE
 70
     1
  9
$QTEXTMODE
 70
     0
  9
$MIRRTEXT
 70
     1
  9
$LTSCALE
 40
1.0
  9
$ATTMODE
 70
     1
  9
$TEXTSIZE
 40
3.5
  9
$TRACEWID
 40
1.0
  9
$TEXTSTYLE
  7
Standard
  9
$CLAYER
  8
0
  9
$CELTYPE
  6
ByLayer
  9
$CECOLOR
 62
   256
  9
$CELTSCALE
 40
1.0
  9
$DISPSILH
 70
     0
  9
$DIMSCALE
 40
1.0
  9
$DIMASZ
 40
3.302
  9
$DIMEXO
 40
1.0
  9
$DIMDLI
 40
3.75
  9
$DIMRND
 40
0.0
  9
$DIMDLE
 40
0.0
  9
$DIMEXE
 40
1.0
  9
$DIMTP
 40
0.0
  9
$DIMTM
 40
0.0
  9
$DIMTXT
 40
3.5
  9
$DIMCEN
 40
2.5
  9
$DIMTSZ
 40
0.0
  9
$DIMTOL
 70
     0
  9
$DIMLIM
 70
     0
  9
$DIMTIH
 70
     1
  9
$DIMTOH
 70
     1
  9
$DIMSE1
 70
     0
  9
$DIMSE2
 70
     0
  9
$DIMTAD
 70
     1
  9
$DIMZIN
 70
     1
  9
$DIMBLK
  1

  9
$DIMASO
 70
     1
  9
$DIMSHO
 70
     1
  9
$DIMPOST
  1

  9
$DIMAPOST
  1

  9
$DIMALT
 70
     0
  9
$DIMALTD
 70
     3
  9
$DIMALTF
 40
0.0393700787
  9
$DIMLFAC
 40
1.0
  9
$DIMTOFL
 70
     1
  9
$DIMTVP
 40
0.0
  9
$DIMTIX
 70
     0
  9
$DIMSOXD
 70
     0
  9
$DIMSAH
 70
     0
  9
$DIMBLK1
  1

  9
$DIMBLK2
  1

  9
$DIMSTYLE
  2
ISO-25
  9
$DIMCLRD
 70
     0
  9
$DIMCLRE
 70
     0
  9
$DIMCLRT
 70
     0
  9
$DIMTFAC
 40
1.0
  9
$DIMGAP
 40
1.524
  9
$DIMJUST
 70
     0
  9
$DIMSD1
 70
     0
  9
$DIMSD2
 70
     0
  9
$DIMTOLJ
 70
     0
  9
$DIMTZIN
 70
     1
  9
$DIMALTZ
 70
     0
  9
$DIMALTTZ
 70
     0
  9
$DIMUPT
 70
     0
  9
$DIMDEC
 70
     2
  9
$DIMTDEC
 70
     2
  9
$DIMALTU
 70
     2
  9
$DIMALTTD
 70
     3
  9
$DIMTXSTY
  7
Standard
  9
$DIMAUNIT
 70
     0
  9
$DIMADEC
 70
     2
  9
$DIMALTRND
 40
0.0
  9
$DIMAZIN
 70
     0
  9
$DIMDSEP
 70
    44
  9
$DIMATFIT
 70
     3
  9
$DIMFRAC
 70
     0
  9
$DIMLDRBLK
  1

  9
$DIMLUNIT
 70
     2
  9
$DIMLWD
 70
    -2
  9
$DIMLWE
 70
    -2
  9
$DIMTMOVE
 70
     0
  9
$LUNITS
 70
     2
  9
$LUPREC
 70
     2
  9
$SKETCHINC
 40
1.0
  9
$FILLETRAD
 40
10.0
  9
$AUNITS
 70
     0
  9
$AUPREC
 70
     2
  9
$MENU
  1
.
  9
$ELEVATION
 40
0.0
  9
$PELEVATION
 40
0.0
  9
$THICKNESS
 40
0.0
  9
$LIMCHECK
 70
     0
  9
$CHAMFERA
 40
0.0
  9
$CHAMFERB
 40
0.0
  9
$CHAMFERC
 40
0.0
  9
$CHAMFERD
 40
0.0
  9
$SKPOLY
 70
     0
  9
$TDCREATE
 40
2458940.053849433
  9
$TDUCREATE
 40
2458939.9705161
  9
$TDUPDATE
 40
2458940.053882743
  9
$TDUUPDATE
 40
2458939.97054941
  9
$TDINDWG
 40
0.0000000116
  9
$TDUSRTIMER
 40
0.0000000116
  9
$USRTIMER
 70
     1
  9
$ANGBASE
 50
0.0
  9
$ANGDIR
 70
     0
  9
$PDMODE
 70
     0
  9
$PDSIZE
 40
-1.0
  9
$PLINEWID
 40
0.0
  9
$SPLFRAME
 70
     0
  9
$SPLINETYPE
 70
     6
  9
$SPLINESEGS
 70
     8
  9
$HANDSEED
  5
1A8
  9
$SURFTAB1
 70
     6
  9
$SURFTAB2
 70
     6
  9
$SURFTYPE
 70
     6
  9
$SURFU
 70
     6
  9
$SURFV
 70
     6
  9
$UCSBASE
  2

  9
$UCSNAME
  2

  9
$UCSORG
 10
0.0
 20
0.0
 30
0.0
  9
$UCSXDIR
 10
1.0
 20
0.0
 30
0.0
  9
$UCSYDIR
 10
0.0
 20
1.0
 30
0.0
  9
$UCSORTHOREF
  2

  9
$UCSORTHOVIEW
 70
     0
  9
$UCSORGTOP
 10
0.0
 20
0.0
 30
0.0
  9
$UCSORGBOTTOM
 10
0.0
 20
0.0
 30
0.0
  9
$UCSORGLEFT
 10
0.0
 20
0.0
 30
0.0
  9
$UCSORGRIGHT
 10
0.0
 20
0.0
 30
0.0
  9
$UCSORGFRONT
 10
0.0
 20
0.0
 30
0.0
  9
$UCSORGBACK
 10
0.0
 20
0.0
 30
0.0
  9
$PUCSBASE
  2

  9
$PUCSNAME
  2

  9
$PUCSORG
 10
0.0
 20
0.0
 30
0.0
  9
$PUCSXDIR
 10
1.0
 20
0.0
 30
0.0
  9
$PUCSYDIR
 10
0.0
 20
1.0
 30
0.0
  9
$PUCSORTHOREF
  2

  9
$PUCSORTHOVIEW
 70
     0
  9
$PUCSORGTOP
 10
0.0
 20
0.0
 30
0.0
  9
$PUCSORGBOTTOM
 10
0.0
 20
0.0
 30
0.0
  9
$PUCSORGLEFT
 10
0.0
 20
0.0
 30
0.0
  9
$PUCSORGRIGHT
 10
0.0
 20
0.0
 30
0.0
  9
$PUCSORGFRONT
 10
0.0
 20
0.0
 30
0.0
  9
$PUCSORGBACK
 10
0.0
 20
0.0
 30
0.0
  9
$USERI1
 70
     0
  9
$USERI2
 70
     0
  9
$USERI3
 70
     0
  9
$USERI4
 70
     0
  9
$USERI5
 70
     0
  9
$USERR1
 40
0.0
  9
$USERR2
 40
0.0
  9
$USERR3
 40
0.0
  9
$USERR4
 40
0.0
  9
$USERR5
 40
0.0
  9
$WORLDVIEW
 70
     1
  9
$SHADEDGE
 70
     3
  9
$SHADEDIF
 70
    70
  9
$TILEMODE
 70
     1
  9
$MAXACTVP
 70
    64
  9
$PINSBASE
 10
0.0
 20
0.0
 30
0.0
  9
$PLIMCHECK
 70
     0
  9
$PEXTMIN
 10
1.0000000000E+20
 20
1.0000000000E+20
 30
1.0000000000E+20
  9
$PEXTMAX
 10
-1.0000000000E+20
 20
-1.0000000000E+20
 30
-1.0000000000E+20
  9
$PLIMMIN
 10
0.0
 20
0.0
  9
$PLIMMAX
 10
420.0
 20
297.0
  9
$UNITMODE
 70
     0
  9
$VISRETAIN
 70
     1
  9
$PLINEGEN
 70
     0
  9
$PSLTSCALE
 70
     1
  9
$TREEDEPTH
 70
  3020
  9
$CMLSTYLE
  2
Standard
  9
$CMLJUST
 70
     0
  9
$CMLSCALE
 40
20.0
  9
$PROXYGRAPHICS
 70
     1
  9
$MEASUREMENT
 70
     1
  9
$CELWEIGHT
370
    -1
  9
$ENDCAPS
280
     0
  9
$JOINSTYLE
280
     0
  9
$LWDISPLAY
290
     1
  9
$INSUNITS
 70
     4
  9
$HYPERLINKBASE
  1

  9
$STYLESHEET
  1

  9
$XEDIT
290
     1
  9
$CEPSNTYPE
380
     0
  9
$PSTYLEMODE
290
     1
  9
$FINGERPRINTGUID
  2
{EF51C03C-F57B-49D7-B37D-53296B637D85}
  9
$VERSIONGUID
  2
{FAEB1C32-E019-11D5-929B-00C0DF256EC4}
  9
$EXTNAMES
290
     1
  9
$PSVPSCALE
 40
0.0
  9
$OLESTARTUP
290
     0
  0
ENDSEC
  0
SECTION
  2
CLASSES
  0
CLASS
  1
ACDBDICTIONARYWDFLT
  2
AcDbDictionaryWithDefault
  3
ObjectDBX Classes
 90
        0
280
     0
281
     0
  0
CLASS
  1
VISUALSTYLE
  2
AcDbVisualStyle
  3
ObjectDBX Classes
 90
     4095
280
     0
281
     0
  0
CLASS
  1
MATERIAL
  2
AcDbMaterial
  3
ObjectDBX Classes
 90
     1153
280
     0
281
     0
  0
CLASS
  1
SCALE
  2
AcDbScale
  3
ObjectDBX Classes
 90
     1153
280
     0
281
     0
  0
CLASS
  1
TABLESTYLE
  2
AcDbTableStyle
  3
ObjectDBX Classes
 90
     4095
280
     0
281
     0
  0
CLASS
  1
MLEADERSTYLE
  2
AcDbMLeaderStyle
  3
ACDB_MLEADERSTYLE_CLASS
 90
     4095
280
     0
281
     0
  0
CLASS
  1
SUN
  2
AcDbSun
  3
SCENEOE
 90
     1153
280
     0
281
     0
  0
CLASS
  1
ACDBPLACEHOLDER
  2
AcDbPlaceHolder
  3
ObjectDBX Classes
 90
        0
280
     0
281
     0
  0
CLASS
  1
LAYOUT
  2
AcDbLayout
  3
ObjectDBX Classes
 90
        0
280
     0
281
     0
  0
ENDSEC
  0
SECTION
  2
TABLES
  0
TABLE
  2
VPORT
  5
8
330
0
100
AcDbSymbolTable
 70
     1
  0
VPORT
  5
29
330
8
100
AcDbSymbolTableRecord
100
AcDbViewportTableRecord
  2
*Active
 70
     0
 10
0.0
 20
0.0
 11
1.0
 21
1.0
 12
0.0
 22
0.0
 13
0.0
 23
0.0
 14
10.0
 24
10.0
 15
10.0
 25
10.0
 16
0.0
 26
0.0
 36
1.0
 17
0.0
 27
0.0
 37
0.0
 40
306.0
 41
1.0
 42
50.0
 43
0.0
 44
0.0
 50
0.0
 51
0.0
 71
     0
 72
   100
 73
     1
 74
     3
 75
     0
 76
     0
 77
     0
 78
     0
281
     0
 65
     1
110
0.0
120
0.0
130
0.0
111
1.0
121
0.0
131
0.0
112
0.0
122
1.0
132
0.0
 79
     0
146
0.0
  0
ENDTAB
  0
TABLE
  2
LTYPE
  5
5
330
0
100
AcDbSymbolTable
 70
     6
  0
LTYPE
  5
14
330
5
100
AcDbSymbolTableRecord
100
AcDbLinetypeTableRecord
  2
ByBlock
 70
     0
  3

 72
    65
 73
     0
 40
0.0
  0
LTYPE
  5
15
330
5
100
AcDbSymbolTableRecord
100
AcDbLinetypeTableRecord
  2
ByLayer
 70
     0
  3

 72
    65
 73
     0
 40
0.0
  0
LTYPE
  5
16
330
5
100
AcDbSymbolTableRecord
100
AcDbLinetypeTableRecord
  2
Continuous
 70
     0
  3
Solid line
 72
    65
 73
     0
 40
0.0
  0
LTYPE
  5
6E
330
5
100
AcDbSymbolTableRecord
100
AcDbLinetypeTableRecord
  2
HIDDEN
 70
     0
  3
Hidden __ __ __ __ __ __ __ __ __ __ __ __ __ __
 72
    65
 73
     2
 40
1.905
 49
1.27
 74
     0
 49
-0.635
 74
     0
  0
LTYPE
  5
6F
330
5
100
AcDbSymbolTableRecord
100
AcDbLinetypeTableRecord
  2
PHANTOM
 70
     0
  3
Phantom ______  __  __  ______  __  __  ______
 72
    65
 73
     6
 40
12.7
 49
6.35
 74
     0
 49
-1.27
 74
     0
 49
1.27
 74
     0
 49
-1.27
 74
     0
 49
1.27
 74
     0
 49
-1.27
 74
     0
  0
LTYPE
  5
70
330
5
100
AcDbSymbolTableRecord
100
AcDbLinetypeTableRecord
  2
CENTER
 70
     0
  3
Center ____ _ ____ _ ____ _ ____ _ ____ _ ____
 72
    65
 73
     4
 40
10.16
 49
6.35
 74
     0
 49
-1.27
 74
     0
 49
1.27
 74
     0
 49
-1.27
 74
     0
  0
LTYPE
  5
71
330
5
100
AcDbSymbolTableRecord
100
AcDbLinetypeTableRecord
  2
CENTERX2
 70
     0
  3
Center (2x) ________  __  ________  __  _____
 72
    65
 73
     4
 40
20.32
 49
12.7
 74
     0
 49
-2.54
 74
     0
 49
2.54
 74
     0
 49
-2.54
 74
     0
  0
LTYPE
  5
72
330
5
100
AcDbSymbolTableRecord
100
AcDbLinetypeTableRecord
  2
DOT2
 70
     0
  3
Dot (.5x) ........................................
 72
    65
 73
     2
 40
0.635
 49
0.0
 74
     0
 49
-0.635
 74
     0
  0
ENDTAB
  0
TABLE
  2
LAYER
  5
2
330
0
100
AcDbSymbolTable
 70
     1
  0
LAYER
  5
10
330
2
100
AcDbSymbolTableRecord
100
AcDbLayerTableRecord
  2
0
 70
     0
 62
     7
  6
Continuous
370
    -3
390
F
  0
ENDTAB
  0
TABLE
  2
STYLE
  5
3
330
0
100
AcDbSymbolTable
 70
     1
  0
STYLE
  5
11
330
3
100
AcDbSymbolTableRecord
100
AcDbTextStyleTableRecord
  2
Standard
 70
     0
 40
0.0
 41
1.0
 50
0.0
 71
     0
 42
3.5
  3
txt
  4

  0
ENDTAB
  0
TABLE
  2
VIEW
  5
6
330
0
100
AcDbSymbolTable
 70
     0
  0
ENDTAB
  0
TABLE
  2
UCS
  5
7
330
0
100
AcDbSymbolTable
 70
     0
  0
ENDTAB
  0
TABLE
  2
APPID
  5
9
330
0
100
AcDbSymbolTable
 70
     1
  0
APPID
  5
12
330
9
100
AcDbSymbolTableRecord
100
AcDbRegAppTableRecord
  2
ACAD
 70
     0
  0
ENDTAB
  0
TABLE
  2
DIMSTYLE
  5
A
330
0
100
AcDbSymbolTable
 70
     1
100
AcDbDimStyleTable
  0
DIMSTYLE
105
27
330
A
100
AcDbSymbolTableRecord
100
AcDbDimStyleTableRecord
  2
ISO-25
 70
     0
 41
2.5
 42
0.625
 43
3.75
 44
1.25
 73
     0
 74
     0
 77
     1
 78
     8
140
2.5
141
2.5
143
0.0393700787
147
0.625
171
     3
172
     1
178
     0
271
     2
272
     2
274
     3
278
    44
283
     0
284
     8
340
11
  0
ENDTAB
  0
TABLE
  2
BLOCK_RECORD
  5
1
330
0
100
AcDbSymbolTable
 70
     1
  0
BLOCK_RECORD
  5
1F
330
1
100
AcDbSymbolTableRecord
100
AcDbBlockTableRecord
  2
*Model_Space
340
22
  0
BLOCK_RECORD
  5
1B
330
1
100
AcDbSymbolTableRecord
100
AcDbBlockTableRecord
  2
*Paper_Space
340
1E
  0
BLOCK_RECORD
  5
23
330
1
100
AcDbSymbolTableRecord
100
AcDbBlockTableRecord
  2
*Paper_Space0
340
26
  0
ENDTAB
  0
ENDSEC
  0
SECTION
  2
BLOCKS
  0
BLOCK
  5
20
330
1F
100
AcDbEntity
  8
0
100
AcDbBlockBegin
  2
*Model_Space
 70
     0
 10
0.0
 20
0.0
 30
0.0
  3
*Model_Space
  1

  0
ENDBLK
  5
21
330
1F
100
AcDbEntity
  8
0
100
AcDbBlockEnd
  0
BLOCK
  5
1C
330
1B
100
AcDbEntity
 67
     1
  8
0
100
AcDbBlockBegin
  2
*Paper_Space
 70
     0
 10
0.0
 20
0.0
 30
0.0
  3
*Paper_Space
  1

  0
ENDBLK
  5
1D
330
1B
100
AcDbEntity
 67
     1
  8
0
100
AcDbBlockEnd
  0
BLOCK
  5
24
330
23
100
AcDbEntity
  8
0
100
AcDbBlockBegin
  2
*Paper_Space0
 70
     0
 10
0.0
 20
0.0
 30
0.0
  3
*Paper_Space0
  1

  0
ENDBLK
  5
25
330
23
100
AcDbEntity
  8
0
100
AcDbBlockEnd
  0
ENDSEC
  0
SECTION
  2
ENTITIES
  0
SPLINE
  5
75
330
1F
100
AcDbEntity
  8
0
  6
Continuous
 62
     7
370
    25
100
AcDbSpline
210
0.0
220
0.0
230
1.0
 70
     8
 71
     3
 72
    18
 73
    14
 74
     0
 42
0.000000001
 43
0.00000001
 40
0.6539313385303058
 40
0.6539313385303058
 40
0.6539313385303058
 40
0.6539313385303058
 40
0.7308458541670075
 40
0.7760006436863884
 40
1.0
 40
1.0
 40
1.0
 40
1.120175092595121
 40
1.227562072524921
 40
1.331160360596595
 40
1.389938074838195
 40
1.516983144483311
 40
1.552215243246232
 40
1.552215243246232
 40
1.552215243246232
 40
1.552215243246232
 10
-58.06262582058452
 20
-24.67979149806931
 30
0.0
 10
-62.27482802252
 20
-21.32760442003961
 30
0.0
 10
-69.12401167425911
 20
-13.37991599255339
 30
0.0
 10
-84.28709049937946
 20
-0.4771907713419374
 30
0.0
 10
-102.7800233197907
 20
22.01140097914709
 30
0.0
 10
-96.19076391310031
 20
31.28837637555714
 30
0.0
 10
-92.65564277541436
 20
36.26545039761536
 30
0.0
 10
-73.9819657373673
 20
40.54553937217457
 30
0.0
 10
-54.17459699507634
 20
34.18880209705812
 30
0.0
 10
-41.6318540299658
 20
21.11030860743579
 30
0.0
 10
-34.95447775647829
 20
3.446209880270599
 30
0.0
 10
-36.89560579819349
 20
-10.18062666956452
 30
0.0
 10
-42.14565616232931
 20
-21.26265568401326
 30
0.0
 10
-43.44778001053133
 20
-23.27943779188752
 30
0.0
  0
SPLINE
  5
78
330
1F
100
AcDbEntity
  8
0
  6
Continuous
 62
     7
370
    25
100
AcDbSpline
210
0.0
220
0.0
230
1.0
 70
     8
 71
     3
 72
    18
 73
    14
 74
     0
 42
0.000000001
 43
0.00000001
 40
0.6539313385303052
 40
0.6539313385303052
 40
0.6539313385303052
 40
0.6539313385303052
 40
0.7308458541670071
 40
0.7760006436863882
 40
1.0
 40
1.0
 40
1.0
 40
1.120175092595122
 40
1.227562072524922
 40
1.331160360596595
 40
1.389938074838195
 40
1.516983144483311
 40
1.552215243246233
 40
1.552215243246233
 40
1.552215243246233
 40
1.552215243246233
 10
-62.12852748722469
 20
-30.38255049456435
 30
0.0
 10
-66.283227316681
 20
-26.95935390026608
 30
0.0
 10
-75.48126503716098
 20
-21.91225868338364
 30
0.0
 10
-91.2546161117502
 20
-9.763156927753476
 30
0.0
 10
-117.0966751072441
 20
3.650019806108893
 30
0.0
 10
-124.8009422688274
 20
-4.724040113500375
 30
0.0
 10
-128.9342622691963
 20
-9.216702247882541
 30
0.0
 10
-129.2383452638236
 20
-28.37219517507743
 30
0.0
 10
-118.9023344238125
 20
-46.42508539224534
 30
0.0
 10
-103.5018544983572
 20
-55.97456763541268
 30
0.0
 10
-84.83545411800826
 20
-58.83345458338465
 30
0.0
 10
-71.90997985444203
 20
-54.10156621909042
 30
0.0
 10
-62.16166661078241
 20
-46.66215866159374
 30
0.0
 10
-60.45968280169613
 20
-44.96917676555748
 30
0.0
  0
SPLINE
  5
CA
330
1F
100
AcDbEntity
  8
0
  6
Continuous
 62
     7
370
    25
100
AcDbSpline
210
0.0
220
0.0
230
1.0
 70
     8
 71
     3
 72
     8
 73
     4
 74
     0
 42
0.000000001
 43
0.00000001
 40
0.0
 40
0.0
 40
0.0
 40
0.0
 40
1.0
 40
1.0
 40
1.0
 40
1.0
 10
-72.06453380588118
 20
96.5508158792979
 30
0.0
 10
-72.84012180017804
 20
96.29287516509473
 30
0.0
 10
-75.03664901058109
 20
91.09666798526882
 30
0.0
 10
-72.06453380588118
 20
92.3128126486191
 30
0.0
  0
SPLINE
  5
CC
330
1F
100
AcDbEntity
  8
0
  6
Continuous
 62
     7
370
    25
100
AcDbSpline
210
0.0
220
0.0
230
1.0
 70
     8
 71
     3
 72
     8
 73
     4
 74
     0
 42
0.000000001
 43
0.00000001
 40
0.0
 40
0.0
 40
0.0
 40
0.0
 40
1.0
 40
1.0
 40
1.0
 40
1.0
 10
-41.12419101722084
 20
115.7486305859622
 30
0.0
 10
-37.78168566920791
 20
118.8692542218473
 30
0.0
 10
-36.15293872487868
 20
113.7419331666643
 30
0.0
 10
-37.74817216779651
 20
111.8618165115133
 30
0.0
  0
SPLINE
  5
CE
330
1F
100
AcDbEntity
  8
0
  6
Continuous
 62
     7
370
    25
100
AcDbSpline
210
0.0
220
0.0
230
1.0
 70
     8
 71
     3
 72
     8
 73
     4
 74
     0
 42
0.000000001
 43
0.00000001
 40
0.0
 40
0.0
 40
0.0
 40
0.0
 40
1.0
 40
1.0
 40
1.0
 40
1.0
 10
-64.86569197666655
 20
86.89656156771623
 30
0.0
 10
-65.2853580052796
 20
85.2959619488467
 30
0.0
 10
-64.56788550821774
 20
84.51663585363178
 30
0.0
 10
-62.71327448548097
 20
84.55858328207148
 30
0.0
  0
SPLINE
  5
D0
330
1F
100
AcDbEntity
  8
0
  6
Continuous
 62
     7
370
    25
100
AcDbSpline
210
0.0
220
0.0
230
1.0
 70
     8
 71
     3
 72
     8
 73
     4
 74
     0
 42
0.000000001
 43
0.00000001
 40
0.0
 40
0.0
 40
0.0
 40
0.0
 40
1.0
 40
1.0
 40
1.0
 40
1.0
 10
-34.28176958992939
 20
107.5858644897777
 30
0.0
 10
-32.33497748452373
 20
110.5573277421897
 30
0.0
 10
-27.53112837592259
 20
107.0262099628605
 30
0.0
 10
-30.58438129533002
 20
104.0804322906012
 30
0.0
  0
SPLINE
  5
D2
330
1F
100
AcDbEntity
  8
0
  6
Continuous
 62
     7
370
    25
100
AcDbSpline
210
0.0
220
0.0
230
1.0
 70
     8
 71
     3
 72
     8
 73
     4
 74
     0
 42
0.000000001
 43
0.00000001
 40
0.0
 40
0.0
 40
0.0
 40
0.0
 40
1.0
 40
1.0
 40
1.0
 40
1.0
 10
-57.70190110420007
 20
79.11517734680403
 30
0.0
 10
-58.05325495659768
 20
77.55920097193568
 30
0.0
 10
-57.33578245953582
 20
76.77987487672077
 30
0.0
 10
-55.54948361301448
 20
76.7771990611593
 30
0.0
  0
SPLINE
  5
D4
330
1F
100
AcDbEntity
  8
0
  6
Continuous
 62
     7
370
    25
100
AcDbSpline
210
0.0
220
0.0
230
1.0
 70
     8
 71
     3
 72
     8
 73
     4
 74
     0
 42
0.000000001
 43
0.00000001
 40
0.0
 40
0.0
 40
0.0
 40
0.0
 40
1.0
 40
1.0
 40
1.0
 40
1.0
 10
-27.1179787174629
 20
99.80448026886549
 30
0.0
 10
-25.20926743789666
 20
102.806098619951
 30
0.0
 10
-19.98576674742632
 20
99.34549770937048
 30
0.0
 10
-23.42059042286353
 20
96.299048069689
 30
0.0
  0
SPLINE
  5
D6
330
1F
100
AcDbEntity
  8
0
  6
Continuous
 62
     7
370
    25
100
AcDbSpline
210
0.0
220
0.0
230
1.0
 70
     8
 71
     3
 72
     8
 73
     4
 74
     0
 42
0.000000001
 43
0.00000001
 40
0.0
 40
0.0
 40
0.0
 40
0.0
 40
1.0
 40
1.0
 40
1.0
 40
1.0
 10
-50.53811023173358
 20
71.33379312589187
 30
0.0
 10
-50.82084922814992
 20
69.82249405251241
 30
0.0
 10
-50.10337673108805
 20
69.0431679572975
 30
0.0
 10
-48.385692740548
 20
68.99581484024712
 30
0.0
  0
SPLINE
  5
D8
330
1F
100
AcDbEntity
  8
0
  6
Continuous
 62
     7
370
    25
100
AcDbSpline
210
0.0
220
0.0
230
1.0
 70
     8
 71
     3
 72
     8
 73
     4
 74
     0
 42
0.000000001
 43
0.00000001
 40
0.0
 40
0.0
 40
0.0
 40
0.0
 40
1.0
 40
1.0
 40
1.0
 40
1.0
 10
-19.9541878449964
 20
92.02309604795332
 30
0.0
 10
-17.9770053956613
 20
95.2602853909151
 30
0.0
 10
-13.13334201729574
 20
91.37311886725223
 30
0.0
 10
-16.25679955039704
 20
88.5176638487768
 30
0.0
  0
SPLINE
  5
DA
330
1F
100
AcDbEntity
  8
0
  6
Continuous
 62
     7
370
    25
100
AcDbSpline
210
0.0
220
0.0
230
1.0
 70
     8
 71
     3
 72
     8
 73
     4
 74
     0
 42
0.000000001
 43
0.00000001
 40
0.0
 40
0.0
 40
0.0
 40
0.0
 40
1.0
 40
1.0
 40
1.0
 40
1.0
 10
-43.37431935926708
 20
63.55240890497969
 30
0.0
 10
-43.58816273243129
 20
62.08593034830216
 30
0.0
 10
-42.87069023536944
 20
61.30660425308724
 30
0.0
 10
-41.2219018680815
 20
61.21443061933494
 30
0.0
  0
SPLINE
  5
DC
330
1F
100
AcDbEntity
  8
0
  6
Continuous
 62
     7
370
    25
100
AcDbSpline
210
0.0
220
0.0
230
1.0
 70
     8
 71
     3
 72
     8
 73
     4
 74
     0
 42
0.000000001
 43
0.00000001
 40
0.0
 40
0.0
 40
0.0
 40
0.0
 40
1.0
 40
1.0
 40
1.0
 40
1.0
 10
-12.79039697252992
 20
84.24171182704114
 30
0.0
 10
-10.93131477802828
 20
87.34403585164868
 30
0.0
 10
-5.221261245317454
 20
83.96205023438641
 30
0.0
 10
-9.093008677930548
 20
80.73627962786465
 30
0.0
  0
SPLINE
  5
DE
330
1F
100
AcDbEntity
  8
0
  6
Continuous
 62
     7
370
    25
100
AcDbSpline
210
0.0
220
0.0
230
1.0
 70
     8
 71
     3
 72
     8
 73
     4
 74
     0
 42
0.000000001
 43
0.00000001
 40
0.0
 40
0.0
 40
0.0
 40
0.0
 40
1.0
 40
1.0
 40
1.0
 40
1.0
 10
-36.21052848680059
 20
55.77102468406752
 30
0.0
 10
-36.35522669561443
 20
54.34961085904524
 30
0.0
 10
-35.63775419855257
 20
53.57028476383032
 30
0.0
 10
-34.05811099561501
 20
53.43304639842277
 30
0.0
  0
SPLINE
  5
E0
330
1F
100
AcDbEntity
  8
0
  6
Continuous
 62
     7
370
    25
100
AcDbSpline
210
0.0
220
0.0
230
1.0
 70
     8
 71
     3
 72
     8
 73
     4
 74
     0
 42
0.000000001
 43
0.00000001
 40
0.0
 40
0.0
 40
0.0
 40
0.0
 40
1.0
 40
1.0
 40
1.0
 40
1.0
 10
-5.626606100063426
 20
76.46032760612897
 30
0.0
 10
-3.754306912160263
 20
79.70883163058076
 30
0.0
 10
1.977228700893508
 20
76.10097739562667
 30
0.0
 10
-1.929217805464061
 20
72.95489540695246
 30
0.0
  0
SPLINE
  5
E2
330
1F
100
AcDbEntity
  8
0
  6
Continuous
 62
     7
370
    25
100
AcDbSpline
210
0.0
220
0.0
230
1.0
 70
     8
 71
     3
 72
     8
 73
     4
 74
     0
 42
0.000000001
 43
0.00000001
 40
0.0
 40
0.0
 40
0.0
 40
0.0
 40
1.0
 40
1.0
 40
1.0
 40
1.0
 10
-29.04673761433411
 20
47.98964046315535
 30
0.0
 10
-29.12208326393123
 20
46.61364788545676
 30
0.0
 10
-28.40461076686937
 20
45.83432179024185
 30
0.0
 10
-26.89432012314853
 20
45.6516621775106
 30
0.0
  0
SPLINE
  5
E4
330
1F
100
AcDbEntity
  8
0
  6
Continuous
 62
     7
370
    25
100
AcDbSpline
210
0.0
220
0.0
230
1.0
 70
     8
 71
     3
 72
     8
 73
     4
 74
     0
 42
0.000000001
 43
0.00000001
 40
0.0
 40
0.0
 40
0.0
 40
0.0
 40
1.0
 40
1.0
 40
1.0
 40
1.0
 10
1.537184772403062
 20
68.6789433852168
 30
0.0
 10
3.445943992763071
 20
72.10673991230776
 30
0.0
 10
8.987910589150058
 20
68.2127501641361
 30
0.0
 10
5.23457306700243
 20
65.17351118604029
 30
0.0
  0
SPLINE
  5
E6
330
1F
100
AcDbEntity
  8
0
  6
Continuous
 62
     7
370
    25
100
AcDbSpline
210
0.0
220
0.0
230
1.0
 70
     8
 71
     3
 72
     8
 73
     4
 74
     0
 42
0.000000001
 43
0.00000001
 40
0.0
 40
0.0
 40
0.0
 40
0.0
 40
1.0
 40
1.0
 40
1.0
 40
1.0
 10
-21.88294674186762
 20
40.20825624224317
 30
0.0
 10
-21.88878707847607
 20
38.87816380425682
 30
0.0
 10
-21.17131458141421
 20
38.0988377090419
 30
0.0
 10
-19.73052925068204
 20
37.87027795659842
 30
0.0
  0
SPLINE
  5
E8
330
1F
100
AcDbEntity
  8
0
  6
Continuous
 62
     7
370
    25
100
AcDbSpline
210
0.0
220
0.0
230
1.0
 70
     8
 71
     3
 72
     8
 73
     4
 74
     0
 42
0.000000001
 43
0.00000001
 40
0.0
 40
0.0
 40
0.0
 40
0.0
 40
1.0
 40
1.0
 40
1.0
 40
1.0
 10
8.700975644869553
 20
60.89755916430462
 30
0.0
 10
10.58288995191545
 20
64.39638241408805
 30
0.0
 10
16.5120766178231
 20
60.44636408360686
 30
0.0
 10
12.39836393946892
 20
57.39212696512811
 30
0.0
  0
SPLINE
  5
EA
330
1F
100
AcDbEntity
  8
0
  6
Continuous
 62
     7
370
    25
100
AcDbSpline
210
0.0
220
0.0
230
1.0
 70
     8
 71
     3
 72
     8
 73
     4
 74
     0
 42
0.000000001
 43
0.00000001
 40
0.0
 40
0.0
 40
0.0
 40
0.0
 40
1.0
 40
1.0
 40
1.0
 40
1.0
 10
-14.71915586940113
 20
32.42687202133099
 30
0.0
 10
-14.65540667825797
 20
31.14328902718074
 30
0.0
 10
-13.93793418119611
 20
30.36396293196582
 30
0.0
 10
-12.56673837821554
 20
30.08889373568625
 30
0.0
  0
SPLINE
  5
EC
330
1F
100
AcDbEntity
  8
0
  6
Continuous
 62
     7
370
    25
100
AcDbSpline
210
0.0
220
0.0
230
1.0
 70
     8
 71
     3
 72
     8
 73
     4
 74
     0
 42
0.000000001
 43
0.00000001
 40
0.0
 40
0.0
 40
0.0
 40
0.0
 40
1.0
 40
1.0
 40
1.0
 40
1.0
 10
15.86476651733604
 20
53.11617494339244
 30
0.0
 10
17.80240370486332
 20
56.80048990623801
 30
0.0
 10
23.27641874196796
 20
52.61067092576339
 30
0.0
 10
19.56215481193541
 20
49.61074274421594
 30
0.0
  0
SPLINE
  5
EE
330
1F
100
AcDbEntity
  8
0
  6
Continuous
 62
     7
370
    25
100
AcDbSpline
210
0.0
220
0.0
230
1.0
 70
     8
 71
     3
 72
     8
 73
     4
 74
     0
 42
0.000000001
 43
0.00000001
 40
0.0
 40
0.0
 40
0.0
 40
0.0
 40
1.0
 40
1.0
 40
1.0
 40
1.0
 10
-7.555364996934634
 20
24.64548780041882
 30
0.0
 10
-7.422025547237782
 20
23.40915904430535
 30
0.0
 10
-6.704553050175921
 20
22.62983294909042
 30
0.0
 10
-5.402947505749052
 20
22.30750951477408
 30
0.0
  0
SPLINE
  5
F0
330
1F
100
AcDbEntity
  8
0
  6
Continuous
 62
     7
370
    25
100
AcDbSpline
210
0.0
220
0.0
230
1.0
 70
     8
 71
     3
 72
     8
 73
     4
 74
     0
 42
0.000000001
 43
0.00000001
 40
0.0
 40
0.0
 40
0.0
 40
0.0
 40
1.0
 40
1.0
 40
1.0
 40
1.0
 10
23.02855738980254
 20
45.33479072248027
 30
0.0
 10
24.80921040655197
 20
48.79325432084617
 30
0.0
 10
31.39126890242244
 20
45.31911616268796
 30
0.0
 10
26.7259456844019
 20
41.82935852330376
 30
0.0
  0
SPLINE
  5
F2
330
1F
100
AcDbEntity
  8
0
  6
Continuous
 62
     7
370
    25
100
AcDbSpline
210
0.0
220
0.0
230
1.0
 70
     8
 71
     3
 72
     8
 73
     4
 74
     0
 42
0.000000001
 43
0.00000001
 40
0.0
 40
0.0
 40
0.0
 40
0.0
 40
1.0
 40
1.0
 40
1.0
 40
1.0
 10
-0.3915741244681498
 20
16.86410357950664
 30
0.0
 10
-0.1887425830202526
 20
15.67591051232385
 30
0.0
 10
0.5287299140416081
 20
14.89658441710894
 30
0.0
 10
1.760843366717432
 20
14.52612529386189
 30
0.0
  0
SPLINE
  5
F4
330
1F
100
AcDbEntity
  8
0
  6
Continuous
 62
     7
370
    25
100
AcDbSpline
210
0.0
220
0.0
230
1.0
 70
     8
 71
     3
 72
     8
 73
     4
 74
     0
 42
0.000000001
 43
0.00000001
 40
0.0
 40
0.0
 40
0.0
 40
0.0
 40
1.0
 40
1.0
 40
1.0
 40
1.0
 10
30.19234826226902
 20
37.55340650156809
 30
0.0
 10
32.03861008249912
 20
41.28557650057203
 30
0.0
 10
38.26663443473819
 20
37.26672363529119
 30
0.0
 10
33.88973655686839
 20
34.04797430239159
 30
0.0
  0
SPLINE
  5
F6
330
1F
100
AcDbEntity
  8
0
  6
Continuous
 62
     7
370
    25
100
AcDbSpline
210
0.0
220
0.0
230
1.0
 70
     8
 71
     3
 72
     8
 73
     4
 74
     0
 42
0.000000001
 43
0.00000001
 40
0.0
 40
0.0
 40
0.0
 40
0.0
 40
1.0
 40
1.0
 40
1.0
 40
1.0
 10
6.772216747998342
 20
9.082719358594476
 30
0.0
 10
7.044328256326174
 20
7.94367643930769
 30
0.0
 10
7.761800753388035
 20
7.164350344092774
 30
0.0
 10
8.924634239183924
 20
6.744741072949728
 30
0.0
  0
SPLINE
  5
F8
330
1F
100
AcDbEntity
  8
0
  6
Continuous
 62
     7
370
    25
100
AcDbSpline
210
0.0
220
0.0
230
1.0
 70
     8
 71
     3
 72
     8
 73
     4
 74
     0
 42
0.000000001
 43
0.00000001
 40
0.0
 40
0.0
 40
0.0
 40
0.0
 40
1.0
 40
1.0
 40
1.0
 40
1.0
 10
37.35613913473551
 20
29.77202228065592
 30
0.0
 10
39.41404528689981
 20
33.90785949552398
 30
0.0
 10
45.9351193272281
 20
28.74655192910306
 30
0.0
 10
41.61337891763343
 20
26.04442296628215
 30
0.0
  0
SPLINE
  5
F9
330
1F
100
AcDbEntity
  8
0
  6
Continuous
 62
     7
370
    25
100
AcDbSpline
210
0.0
220
0.0
230
1.0
 70
     8
 71
     3
 72
    32
 73
    28
 74
     0
 42
0.000000001
 43
0.00000001
 40
0.0
 40
0.0
 40
0.0
 40
0.0
 40
0.0409731569747777
 40
0.0809521527455141
 40
0.0857239926020124
 40
0.0886915555397602
 40
0.098238781706669
 40
0.1015481026153219
 40
0.1217847646262894
 40
0.1498817826058736
 40
0.164909967744281
 40
0.20104188234648
 40
0.3026122312011842
 40
0.3676467129654371
 40
0.3848539778379552
 40
0.3936124430655447
 40
0.4183455034427176
 40
0.4568242404611411
 40
0.4935432256844123
 40
0.5350626338135915
 40
0.5984405533387326
 40
0.6660621720822184
 40
0.7077261469231111
 40
0.856677151944942
 40
0.9569951352161715
 40
0.9735605944272537
 40
1.0
 40
1.0
 40
1.0
 40
1.0
 10
41.61337891763343
 20
26.04442296628215
 30
0.0
 10
34.76343830867962
 20
18.56739837727822
 30
0.0
 10
28.77792496755314
 20
14.04697857779066
 30
0.0
 10
22.79304192900442
 20
5.50044532420296
 30
0.0
 10
14.16135463727059
 20
-0.4264098113543064
 30
0.0
 10
15.09677548119826
 20
-3.47815836155446
 30
0.0
 10
17.39233740773352
 20
-1.744990675518987
 30
0.0
 10
22.03750378973048
 20
2.059465415011525
 30
0.0
 10
27.68180451716694
 20
5.656319848584128
 30
0.0
 10
33.88328498747613
 20
11.66362655091605
 30
0.0
 10
51.13860523310983
 20
15.86564401194614
 30
0.0
 10
79.62411848499785
 20
-12.2268458359334
 30
0.0
 10
84.33236613480591
 20
-18.6177330975724
 30
0.0
 10
101.2281789308588
 20
-43.75442252581986
 30
0.0
 10
107.4591280204654
 20
-58.119902063593
 30
0.0
 10
115.5845598219226
 20
-57.64973154964145
 30
0.0
 10
126.7793369932447
 20
-56.57709036834508
 30
0.0
 10
133.8283893844765
 20
-38.5017737826106
 30
0.0
 10
122.2173876717569
 20
-23.82905076510369
 30
0.0
 10
106.9565456665025
 20
-9.583456203206827
 30
0.0
 10
86.46522883667338
 20
6.518621019175122
 30
0.0
 10
69.50248406642014
 20
26.13790618657823
 30
0.0
 10
45.05949039585882
 20
56.07348250651178
 30
0.0
 10
17.11403403409482
 20
89.91385870878895
 30
0.0
 10
-11.22230966783584
 20
117.1980250688562
 30
0.0
 10
-26.17400479082741
 20
133.3314245126101
 30
0.0
 10
-33.68179622395999
 20
133.3950523300621
 30
0.0
 10
-37.13582760702823
 20
131.4795220781515
 30
0.0
  0
SPLINE
  5
FA
330
1F
100
AcDbEntity
  8
0
  6
Continuous
 62
     7
370
    25
100
AcDbSpline
210
0.0
220
0.0
230
1.0
 70
    11
 71
     3
 72
    15
 73
    11
 74
     0
 42
0.000000001
 43
0.00000001
 40
0.0
 40
0.0
 40
0.0
 40
0.0
 40
0.1586294652312275
 40
0.2723929236486367
 40
0.3962468973022967
 40
0.4829742532159902
 40
0.6857193791764346
 40
0.8008292488568844
 40
0.8923673044852561
 40
1.0
 40
1.0
 40
1.0
 40
1.0
 10
-45.94753685303976
 20
2.176087582791379
 30
0.0
 10
-47.02105402444659
 20
8.906522729074464
 30
0.0
 10
-53.62774459166388
 20
17.54215525408613
 30
0.0
 10
-65.24591322330589
 20
28.25262292134002
 30
0.0
 10
-80.91802967556391
 20
28.70780734573907
 30
0.0
 10
-88.9716683716865
 20
10.81991300809016
 30
0.0
 10
-71.88318706989119
 20
0.013517727434413
 30
0.0
 10
-61.95344082126777
 20
-12.3787641391123
 30
0.0
 10
-46.2344386036987
 20
-12.29066253791668
 30
0.0
 10
-45.21913783415977
 20
-2.39062312083275
 30
0.0
 10
-45.94753685303976
 20
2.176087582791379
 30
0.0
  0
SPLINE
  5
FC
330
1F
100
AcDbEntity
  8
0
  6
Continuous
 62
     7
370
    25
100
AcDbSpline
210
0.0
220
0.0
230
1.0
 70
    11
 71
     3
 72
    15
 73
    11
 74
     0
 42
0.000000001
 43
0.00000001
 40
0.0
 40
0.0
 40
0.0
 40
0.0
 40
0.1076326955147431
 40
0.1991707511431154
 40
0.3142806208235656
 40
0.5170257467840096
 40
0.603753102697703
 40
0.7276070763513631
 40
0.8413705347687709
 40
1.0
 40
1.0
 40
1.0
 40
1.0
 10
-85.87867254411596
 20
-47.81654692894383
 30
0.0
 10
-81.26031275451533
 20
-47.57955613777209
 30
0.0
 10
-71.78770585120799
 20
-44.52810819165605
 30
0.0
 10
-74.96969381040068
 20
-29.13428653374318
 30
0.0
 10
-89.15568491772295
 20
-21.99802934072048
 30
0.0
 10
-103.2788295750414
 20
-7.52974826963115
 30
0.0
 10
-119.1013848650464
 20
-19.12649799433038
 30
0.0
 10
-115.3977310821472
 20
-34.36150293721659
 30
0.0
 10
-102.5057597462753
 20
-43.49895526703033
 30
0.0
 10
-92.68522830457643
 20
-48.16582483458867
 30
0.0
 10
-85.87867254411596
 20
-47.81654692894383
 30
0.0
  0
SPLINE
  5
FE
330
1F
100
AcDbEntity
  8
0
  6
Continuous
 62
     7
370
    25
100
AcDbSpline
210
0.0
220
0.0
230
1.0
 70
     8
 71
     3
 72
    18
 73
    14
 74
     0
 42
0.000000001
 43
0.00000001
 40
0.6539313385303052
 40
0.6539313385303052
 40
0.6539313385303052
 40
0.6539313385303052
 40
0.7308458541670071
 40
0.7760006436863882
 40
1.0
 40
1.0
 40
1.0
 40
1.120175092595122
 40
1.227562072524922
 40
1.331160360596595
 40
1.389938074838195
 40
1.516983144483311
 40
1.552215243246233
 40
1.552215243246233
 40
1.552215243246233
 40
1.552215243246233
 10
-62.12852748722469
 20
-30.38255049456435
 30
0.0
 10
-66.283227316681
 20
-26.95935390026608
 30
0.0
 10
-75.48126503716098
 20
-21.91225868338364
 30
0.0
 10
-91.2546161117502
 20
-9.763156927753476
 30
0.0
 10
-117.0966751072441
 20
3.650019806108893
 30
0.0
 10
-124.8009422688274
 20
-4.724040113500375
 30
0.0
 10
-128.9342622691963
 20
-9.216702247882541
 30
0.0
 10
-129.2383452638236
 20
-28.37219517507743
 30
0.0
 10
-118.9023344238125
 20
-46.42508539224534
 30
0.0
 10
-103.5018544983572
 20
-55.97456763541268
 30
0.0
 10
-84.83545411800826
 20
-58.83345458338465
 30
0.0
 10
-71.90997985444203
 20
-54.10156621909042
 30
0.0
 10
-62.16166661078241
 20
-46.66215866159374
 30
0.0
 10
-60.45968280169613
 20
-44.96917676555748
 30
0.0
  0
SPLINE
  5
109
330
1F
100
AcDbEntity
  8
0
  6
Continuous
 62
     7
370
    25
100
AcDbSpline
210
0.0
220
0.0
230
1.0
 70
     8
 71
     3
 72
    18
 73
    14
 74
     0
 42
0.000000001
 43
0.00000001
 40
0.6539313385303058
 40
0.6539313385303058
 40
0.6539313385303058
 40
0.6539313385303058
 40
0.7308458541670075
 40
0.7760006436863884
 40
1.0
 40
1.0
 40
1.0
 40
1.120175092595121
 40
1.227562072524921
 40
1.331160360596595
 40
1.389938074838195
 40
1.516983144483311
 40
1.552215243246232
 40
1.552215243246232
 40
1.552215243246232
 40
1.552215243246232
 10
-58.06262582058452
 20
-24.67979149806931
 30
0.0
 10
-62.27482802252
 20
-21.32760442003961
 30
0.0
 10
-69.12401167425911
 20
-13.37991599255339
 30
0.0
 10
-84.28709049937946
 20
-0.4771907713419374
 30
0.0
 10
-102.7800233197907
 20
22.01140097914709
 30
0.0
 10
-96.19076391310031
 20
31.28837637555714
 30
0.0
 10
-92.65564277541436
 20
36.26545039761536
 30
0.0
 10
-73.9819657373673
 20
40.54553937217457
 30
0.0
 10
-54.17459699507634
 20
34.18880209705812
 30
0.0
 10
-41.6318540299658
 20
21.11030860743579
 30
0.0
 10
-34.95447775647829
 20
3.446209880270599
 30
0.0
 10
-36.89560579819349
 20
-10.18062666956452
 30
0.0
 10
-42.14565616232931
 20
-21.26265568401326
 30
0.0
 10
-43.44778001053133
 20
-23.27943779188752
 30
0.0
  0
SPLINE
  5
10A
330
1F
100
AcDbEntity
  8
0
  6
Continuous
 62
     7
370
    25
100
AcDbSpline
210
0.0
220
0.0
230
1.0
 70
     8
 71
     3
 72
     8
 73
     4
 74
     0
 42
0.000000001
 43
0.00000001
 40
0.4995969598769074
 40
0.4995969598769074
 40
0.4995969598769074
 40
0.4995969598769074
 40
0.5004948721801067
 40
0.5004948721801067
 40
0.5004948721801067
 40
0.5004948721801067
 10
-36.21052848691621
 20
55.77102468406759
 30
0.0
 10
-36.35522669569173
 20
54.34961085907577
 30
0.0
 10
-35.63775419859383
 20
53.57028476388961
 30
0.0
 10
-34.05811099562253
 20
53.4330463985091
 30
0.0
  0
SPLINE
  5
10C
330
1F
100
AcDbEntity
  8
0
  6
Continuous
 62
     7
370
    25
100
AcDbSpline
210
0.0
220
0.0
230
1.0
 70
     8
 71
     3
 72
     8
 73
     4
 74
     0
 42
0.000000001
 43
0.00000001
 40
0.0
 40
0.0
 40
0.0
 40
0.0
 40
1.0
 40
1.0
 40
1.0
 40
1.0
 10
-12.79039697252992
 20
84.24171182704114
 30
0.0
 10
-10.93131477802828
 20
87.34403585164868
 30
0.0
 10
-5.221261245317454
 20
83.96205023438641
 30
0.0
 10
-9.093008677930548
 20
80.73627962786465
 30
0.0
  0
SPLINE
  5
10E
330
1F
100
AcDbEntity
  8
0
  6
Continuous
 62
     7
370
    25
100
AcDbSpline
210
0.0
220
0.0
230
1.0
 70
     8
 71
     3
 72
     8
 73
     4
 74
     0
 42
0.000000001
 43
0.00000001
 40
0.4995802988386325
 40
0.4995802988386325
 40
0.4995802988386325
 40
0.4995802988386325
 40
0.5005119826746331
 40
0.5005119826746331
 40
0.5005119826746331
 40
0.5005119826746331
 10
-43.37431935927041
 20
63.55240890498459
 30
0.0
 10
-43.5881627324129
 20
62.0859303483405
 30
0.0
 10
-42.87069023535404
 20
61.30660425314082
 30
0.0
 10
-41.2219018680938
 20
61.21443061938552
 30
0.0
  0
SPLINE
  5
110
330
1F
100
AcDbEntity
  8
0
  6
Continuous
 62
     7
370
    25
100
AcDbSpline
210
0.0
220
0.0
230
1.0
 70
     8
 71
     3
 72
     8
 73
     4
 74
     0
 42
0.000000001
 43
0.00000001
 40
0.0
 40
0.0
 40
0.0
 40
0.0
 40
1.0
 40
1.0
 40
1.0
 40
1.0
 10
-19.9541878449964
 20
92.02309604795332
 30
0.0
 10
-17.9770053956613
 20
95.2602853909151
 30
0.0
 10
-13.13334201729574
 20
91.37311886725223
 30
0.0
 10
-16.25679955039704
 20
88.5176638487768
 30
0.0
  0
SPLINE
  5
112
330
1F
100
AcDbEntity
  8
0
  6
Continuous
 62
     7
370
    25
100
AcDbSpline
210
0.0
220
0.0
230
1.0
 70
     8
 71
     3
 72
     8
 73
     4
 74
     0
 42
0.000000001
 43
0.00000001
 40
0.4995641124087946
 40
0.4995641124087946
 40
0.4995641124087946
 40
0.4995641124087946
 40
0.5005282590663647
 40
0.5005282590663647
 40
0.5005282590663647
 40
0.5005282590663647
 10
-50.53811023172268
 20
71.33379312586874
 30
0.0
 10
-50.82084922812311
 20
69.82249405251571
 30
0.0
 10
-50.10337673106807
 20
69.0431679573106
 30
0.0
 10
-48.38569274055753
 20
68.99581484025339
 30
0.0
  0
SPLINE
  5
114
330
1F
100
AcDbEntity
  8
0
  6
Continuous
 62
     7
370
    25
100
AcDbSpline
210
0.0
220
0.0
230
1.0
 70
     8
 71
     3
 72
     8
 73
     4
 74
     0
 42
0.000000001
 43
0.00000001
 40
0.0
 40
0.0
 40
0.0
 40
0.0
 40
1.0
 40
1.0
 40
1.0
 40
1.0
 10
-27.1179787174629
 20
99.80448026886549
 30
0.0
 10
-25.20926743789666
 20
102.806098619951
 30
0.0
 10
-19.98576674742632
 20
99.34549770937048
 30
0.0
 10
-23.42059042286353
 20
96.299048069689
 30
0.0
  0
SPLINE
  5
116
330
1F
100
AcDbEntity
  8
0
  6
Continuous
 62
     7
370
    25
100
AcDbSpline
210
0.0
220
0.0
230
1.0
 70
     8
 71
     3
 72
     8
 73
     4
 74
     0
 42
0.000000001
 43
0.00000001
 40
0.4995483542370569
 40
0.4995483542370569
 40
0.4995483542370569
 40
0.4995483542370569
 40
0.5005437946913153
 40
0.5005437946913153
 40
0.5005437946913153
 40
0.5005437946913153
 10
-57.70190110425094
 20
79.11517734683149
 30
0.0
 10
-58.0532549566703
 20
77.55920097192448
 30
0.0
 10
-57.33578245959259
 20
76.77987487669824
 30
0.0
 10
-55.54948361301778
 20
76.77719906115277
 30
0.0
  0
SPLINE
  5
118
330
1F
100
AcDbEntity
  8
0
  6
Continuous
 62
     7
370
    25
100
AcDbSpline
210
0.0
220
0.0
230
1.0
 70
     8
 71
     3
 72
     8
 73
     4
 74
     0
 42
0.000000001
 43
0.00000001
 40
0.0
 40
0.0
 40
0.0
 40
0.0
 40
1.0
 40
1.0
 40
1.0
 40
1.0
 10
-34.28176958992939
 20
107.5858644897777
 30
0.0
 10
-32.33497748452373
 20
110.5573277421897
 30
0.0
 10
-27.53112837592259
 20
107.0262099628605
 30
0.0
 10
-30.58438129533002
 20
104.0804322906012
 30
0.0
  0
SPLINE
  5
11A
330
1F
100
AcDbEntity
  8
0
  6
Continuous
 62
     7
370
    25
100
AcDbSpline
210
0.0
220
0.0
230
1.0
 70
     8
 71
     3
 72
     8
 73
     4
 74
     0
 42
0.000000001
 43
0.00000001
 40
0.4995329866007877
 40
0.4995329866007877
 40
0.4995329866007877
 40
0.4995329866007877
 40
0.5005586702043562
 40
0.5005586702043562
 40
0.5005586702043562
 40
0.5005586702043562
 10
-64.86569197666005
 20
86.89656156770909
 30
0.0
 10
-65.28535800528971
 20
85.29596194881465
 30
0.0
 10
-64.56788550822172
 20
84.51663585359124
 30
0.0
 10
-62.71327448545603
 20
84.55858328203887
 30
0.0
  0
SPLINE
  5
11C
330
1F
100
AcDbEntity
  8
0
  6
Continuous
 62
     7
370
    25
100
AcDbSpline
210
0.0
220
0.0
230
1.0
 70
     8
 71
     3
 72
     8
 73
     4
 74
     0
 42
0.000000001
 43
0.00000001
 40
0.0
 40
0.0
 40
0.0
 40
0.0
 40
1.0
 40
1.0
 40
1.0
 40
1.0
 10
-41.12419101722084
 20
115.7486305859622
 30
0.0
 10
-37.78168566920791
 20
118.8692542218473
 30
0.0
 10
-36.15293872487868
 20
113.7419331666643
 30
0.0
 10
-37.74817216779651
 20
111.8618165115133
 30
0.0
  0
SPLINE
  5
11E
330
1F
100
AcDbEntity
  8
0
  6
Continuous
 62
     7
370
    25
100
AcDbSpline
210
0.0
220
0.0
230
1.0
 70
     8
 71
     3
 72
     8
 73
     4
 74
     0
 42
0.000000001
 43
0.00000001
 40
0.0
 40
0.0
 40
0.0
 40
0.0
 40
1.0
 40
1.0
 40
1.0
 40
1.0
 10
-72.06453380588118
 20
96.5508158792979
 30
0.0
 10
-72.84012180017804
 20
96.29287516509473
 30
0.0
 10
-75.03664901058109
 20
91.09666798526882
 30
0.0
 10
-72.06453380588118
 20
92.3128126486191
 30
0.0
  0
SPLINE
  5
120
330
1F
100
AcDbEntity
  8
0
  6
Continuous
 62
     7
370
    25
100
AcDbSpline
210
0.0
220
0.0
230
1.0
 70
     8
 71
     3
 72
    32
 73
    28
 74
     0
 42
0.000000001
 43
0.00000001
 40
0.0
 40
0.0
 40
0.0
 40
0.0
 40
0.0409731569747777
 40
0.0809521527455141
 40
0.0857239926020124
 40
0.0886915555397602
 40
0.098238781706669
 40
0.1015481026153219
 40
0.1217847646262894
 40
0.1498817826058736
 40
0.164909967744281
 40
0.20104188234648
 40
0.3026122312011842
 40
0.3676467129654371
 40
0.3848539778379552
 40
0.3936124430655447
 40
0.4183455034427176
 40
0.4568242404611411
 40
0.4935432256844123
 40
0.5350626338135915
 40
0.5984405533387326
 40
0.6660621720822184
 40
0.7077261469231111
 40
0.856677151944942
 40
0.9569951352161715
 40
0.9735605944272537
 40
1.0
 40
1.0
 40
1.0
 40
1.0
 10
41.61337891763343
 20
26.04442296628215
 30
0.0
 10
34.76343830867962
 20
18.56739837727822
 30
0.0
 10
28.77792496755314
 20
14.04697857779066
 30
0.0
 10
22.79304192900442
 20
5.50044532420296
 30
0.0
 10
14.16135463727059
 20
-0.4264098113543064
 30
0.0
 10
15.09677548119826
 20
-3.47815836155446
 30
0.0
 10
17.39233740773352
 20
-1.744990675518987
 30
0.0
 10
22.03750378973048
 20
2.059465415011525
 30
0.0
 10
27.68180451716694
 20
5.656319848584128
 30
0.0
 10
33.88328498747613
 20
11.66362655091605
 30
0.0
 10
51.13860523310983
 20
15.86564401194614
 30
0.0
 10
79.62411848499785
 20
-12.2268458359334
 30
0.0
 10
84.33236613480591
 20
-18.6177330975724
 30
0.0
 10
101.2281789308588
 20
-43.75442252581986
 30
0.0
 10
107.4591280204654
 20
-58.119902063593
 30
0.0
 10
115.5845598219226
 20
-57.64973154964145
 30
0.0
 10
126.7793369932447
 20
-56.57709036834508
 30
0.0
 10
133.8283893844765
 20
-38.5017737826106
 30
0.0
 10
122.2173876717569
 20
-23.82905076510369
 30
0.0
 10
106.9565456665025
 20
-9.583456203206827
 30
0.0
 10
86.46522883667338
 20
6.518621019175122
 30
0.0
 10
69.50248406642014
 20
26.13790618657823
 30
0.0
 10
45.05949039585882
 20
56.07348250651178
 30
0.0
 10
17.11403403409482
 20
89.91385870878895
 30
0.0
 10
-11.22230966783584
 20
117.1980250688562
 30
0.0
 10
-26.17400479082741
 20
133.3314245126101
 30
0.0
 10
-33.68179622395999
 20
133.3950523300621
 30
0.0
 10
-37.13582760702823
 20
131.4795220781515
 30
0.0
  0
SPLINE
  5
121
330
1F
100
AcDbEntity
  8
0
  6
Continuous
 62
     7
370
    25
100
AcDbSpline
210
0.0
220
0.0
230
1.0
 70
     8
 71
     3
 72
     8
 73
     4
 74
     0
 42
0.000000001
 43
0.00000001
 40
0.0
 40
0.0
 40
0.0
 40
0.0
 40
1.0
 40
1.0
 40
1.0
 40
1.0
 10
37.35613913473551
 20
29.77202228065592
 30
0.0
 10
39.41404528689981
 20
33.90785949552398
 30
0.0
 10
45.9351193272281
 20
28.74655192910306
 30
0.0
 10
41.61337891763343
 20
26.04442296628215
 30
0.0
  0
SPLINE
  5
123
330
1F
100
AcDbEntity
  8
0
  6
Continuous
 62
     7
370
    25
100
AcDbSpline
210
0.0
220
0.0
230
1.0
 70
     8
 71
     3
 72
     8
 73
     4
 74
     0
 42
0.000000001
 43
0.00000001
 40
0.499711553953322
 40
0.499711553953322
 40
0.499711553953322
 40
0.499711553953322
 40
0.500366814253767
 40
0.500366814253767
 40
0.500366814253767
 40
0.500366814253767
 10
6.772216747931935
 20
9.08271935853433
 30
0.0
 10
7.044328256316404
 20
7.9436764393142
 30
0.0
 10
7.761800753421412
 20
7.164350344155046
 30
0.0
 10
8.92463423924696
 20
6.744741073056868
 30
0.0
  0
SPLINE
  5
125
330
1F
100
AcDbEntity
  8
0
  6
Continuous
 62
     7
370
    25
100
AcDbSpline
210
0.0
220
0.0
230
1.0
 70
     8
 71
     3
 72
     8
 73
     4
 74
     0
 42
0.000000001
 43
0.00000001
 40
0.0
 40
0.0
 40
0.0
 40
0.0
 40
1.0
 40
1.0
 40
1.0
 40
1.0
 10
30.19234826226902
 20
37.55340650156809
 30
0.0
 10
32.03861008249912
 20
41.28557650057203
 30
0.0
 10
38.26663443473819
 20
37.26672363529119
 30
0.0
 10
33.88973655686839
 20
34.04797430239159
 30
0.0
  0
SPLINE
  5
127
330
1F
100
AcDbEntity
  8
0
  6
Continuous
 62
     7
370
    25
100
AcDbSpline
210
0.0
220
0.0
230
1.0
 70
     8
 71
     3
 72
     8
 73
     4
 74
     0
 42
0.000000001
 43
0.00000001
 40
0.4996900589758436
 40
0.4996900589758436
 40
0.4996900589758436
 40
0.4996900589758436
 40
0.5003921743505653
 40
0.5003921743505653
 40
0.5003921743505653
 40
0.5003921743505653
 10
-0.3915741243916415
 20
16.86410357953327
 30
0.0
 10
-0.1887425829473233
 20
15.6759105123736
 30
0.0
 10
0.5287299140913072
 20
14.89658441716619
 30
0.0
 10
1.76084336672425
 20
14.52612529391104
 30
0.0
  0
SPLINE
  5
129
330
1F
100
AcDbEntity
  8
0
  6
Continuous
 62
     7
370
    25
100
AcDbSpline
210
0.0
220
0.0
230
1.0
 70
     8
 71
     3
 72
     8
 73
     4
 74
     0
 42
0.000000001
 43
0.00000001
 40
0.0
 40
0.0
 40
0.0
 40
0.0
 40
1.0
 40
1.0
 40
1.0
 40
1.0
 10
23.02855738980254
 20
45.33479072248027
 30
0.0
 10
24.80921040655197
 20
48.79325432084617
 30
0.0
 10
31.39126890242244
 20
45.31911616268796
 30
0.0
 10
26.7259456844019
 20
41.82935852330376
 30
0.0
  0
SPLINE
  5
12B
330
1F
100
AcDbEntity
  8
0
  6
Continuous
 62
     7
370
    25
100
AcDbSpline
210
0.0
220
0.0
230
1.0
 70
     8
 71
     3
 72
     8
 73
     4
 74
     0
 42
0.000000001
 43
0.00000001
 40
0.499669763419014
 40
0.499669763419014
 40
0.499669763419014
 40
0.499669763419014
 40
0.5004155828779326
 40
0.5004155828779326
 40
0.5004155828779326
 40
0.5004155828779326
 10
-7.555364997006973
 20
24.64548780041309
 30
0.0
 10
-7.42202554733671
 20
23.40915904423046
 30
0.0
 10
-6.704553050259167
 20
22.62983294897947
 30
0.0
 10
-5.402947505774347
 20
22.30750951466011
 30
0.0
  0
SPLINE
  5
12D
330
1F
100
AcDbEntity
  8
0
  6
Continuous
 62
     7
370
    25
100
AcDbSpline
210
0.0
220
0.0
230
1.0
 70
     8
 71
     3
 72
     8
 73
     4
 74
     0
 42
0.000000001
 43
0.00000001
 40
0.0
 40
0.0
 40
0.0
 40
0.0
 40
1.0
 40
1.0
 40
1.0
 40
1.0
 10
15.86476651733604
 20
53.11617494339244
 30
0.0
 10
17.80240370486332
 20
56.80048990623801
 30
0.0
 10
23.27641874196796
 20
52.61067092576339
 30
0.0
 10
19.56215481193541
 20
49.61074274421594
 30
0.0
  0
SPLINE
  5
12F
330
1F
100
AcDbEntity
  8
0
  6
Continuous
 62
     7
370
    25
100
AcDbSpline
210
0.0
220
0.0
230
1.0
 70
     8
 71
     3
 72
     8
 73
     4
 74
     0
 42
0.000000001
 43
0.00000001
 40
0.4996504478932719
 40
0.4996504478932719
 40
0.4996504478932719
 40
0.4996504478932719
 40
0.5004373445050377
 40
0.5004373445050377
 40
0.5004373445050377
 40
0.5004373445050377
 10
-14.71915586942579
 20
32.42687202133809
 30
0.0
 10
-14.65540667828023
 20
31.14328902717626
 30
0.0
 10
-13.93793418120258
 20
30.36396293196009
 30
0.0
 10
-12.56673837819285
 20
30.08889373568958
 30
0.0
  0
SPLINE
  5
131
330
1F
100
AcDbEntity
  8
0
  6
Continuous
 62
     7
370
    25
100
AcDbSpline
210
0.0
220
0.0
230
1.0
 70
     8
 71
     3
 72
     8
 73
     4
 74
     0
 42
0.000000001
 43
0.00000001
 40
0.0
 40
0.0
 40
0.0
 40
0.0
 40
1.0
 40
1.0
 40
1.0
 40
1.0
 10
8.700975644869553
 20
60.89755916430462
 30
0.0
 10
10.58288995191545
 20
64.39638241408805
 30
0.0
 10
16.5120766178231
 20
60.44636408360686
 30
0.0
 10
12.39836393946892
 20
57.39212696512811
 30
0.0
  0
SPLINE
  5
133
330
1F
100
AcDbEntity
  8
0
  6
Continuous
 62
     7
370
    25
100
AcDbSpline
210
0.0
220
0.0
230
1.0
 70
     8
 71
     3
 72
     8
 73
     4
 74
     0
 42
0.000000001
 43
0.00000001
 40
0.4996319515184844
 40
0.4996319515184844
 40
0.4996319515184844
 40
0.4996319515184844
 40
0.5004576940090485
 40
0.5004576940090485
 40
0.5004576940090485
 40
0.5004576940090485
 10
-21.88294674183772
 20
40.20825624223701
 30
0.0
 10
-21.88878707841262
 20
38.87816380430684
 30
0.0
 10
-21.17131458135053
 20
38.09883770912275
 30
0.0
 10
-19.73052925065145
 20
37.87027795668472
 30
0.0
  0
SPLINE
  5
135
330
1F
100
AcDbEntity
  8
0
  6
Continuous
 62
     7
370
    25
100
AcDbSpline
210
0.0
220
0.0
230
1.0
 70
     8
 71
     3
 72
     8
 73
     4
 74
     0
 42
0.000000001
 43
0.00000001
 40
0.0
 40
0.0
 40
0.0
 40
0.0
 40
1.0
 40
1.0
 40
1.0
 40
1.0
 10
1.537184772403062
 20
68.6789433852168
 30
0.0
 10
3.445943992763071
 20
72.10673991230776
 30
0.0
 10
8.987910589150058
 20
68.2127501641361
 30
0.0
 10
5.23457306700243
 20
65.17351118604029
 30
0.0
  0
SPLINE
  5
137
330
1F
100
AcDbEntity
  8
0
  6
Continuous
 62
     7
370
    25
100
AcDbSpline
210
0.0
220
0.0
230
1.0
 70
     8
 71
     3
 72
     8
 73
     4
 74
     0
 42
0.000000001
 43
0.00000001
 40
0.499614153196396
 40
0.499614153196396
 40
0.499614153196396
 40
0.499614153196396
 40
0.500476818730901
 40
0.500476818730901
 40
0.500476818730901
 40
0.500476818730901
 10
-29.0467376143205
 20
47.98964046315613
 30
0.0
 10
-29.12208326390109
 20
46.61364788548191
 30
0.0
 10
-28.40461076683683
 20
45.83432179028071
 30
0.0
 10
-26.8943201231277
 20
45.65166217755256
 30
0.0
  0
SPLINE
  5
139
330
1F
100
AcDbEntity
  8
0
  6
Continuous
 62
     7
370
    25
100
AcDbSpline
210
0.0
220
0.0
230
1.0
 70
     8
 71
     3
 72
     8
 73
     4
 74
     0
 42
0.000000001
 43
0.00000001
 40
0.0
 40
0.0
 40
0.0
 40
0.0
 40
1.0
 40
1.0
 40
1.0
 40
1.0
 10
-5.626606100063426
 20
76.46032760612897
 30
0.0
 10
-3.754306912160263
 20
79.70883163058076
 30
0.0
 10
1.977228700893508
 20
76.10097739562667
 30
0.0
 10
-1.929217805464061
 20
72.95489540695246
 30
0.0
  0
CIRCLE
  5
13B
330
1F
100
AcDbEntity
  8
0
  6
Continuous
 62
     7
370
    25
100
AcDbCircle
 10
114.9867376501
 20
-41.1992676438
 30
0.0
 40
8.500000000000014
  0
LINE
  5
13C
330
1F
100
AcDbEntity
  8
0
  6
Continuous
 62
     7
370
    25
100
AcDbLine
 10
-25.6474672887
 20
-53.1784469378
 30
0.0
 11
-33.6747682438
 21
-43.6830856497
 31
0.0
  0
LINE
  5
13D
330
1F
100
AcDbEntity
  8
0
  6
Continuous
 62
     7
370
    25
100
AcDbLine
 10
-58.0626258206
 20
-24.6797914981
 30
0.0
 11
-37.9890929041
 21
-45.466543338
 31
0.0
  0
LINE
  5
13E
330
1F
100
AcDbEntity
  8
0
  6
Continuous
 62
     7
370
    25
100
AcDbLine
 10
-62.1285274872
 20
-30.3825504946
 30
0.0
 11
-37.9890929041
 21
-45.466543338
 31
0.0
  0
LINE
  5
13F
330
1F
100
AcDbEntity
  8
0
  6
Continuous
 62
     7
370
    25
100
AcDbLine
 10
-27.8204504543
 20
-55.9993056814
 30
0.0
 11
-38.4699802026
 21
-50.2864678522
 31
0.0
  0
LINE
  5
140
330
1F
100
AcDbEntity
  8
0
  6
Continuous
 62
     7
370
    25
100
AcDbLine
 10
-12.8567401341
 20
-80.3347866687
 30
0.0
 11
29.7176958282
 21
-118.6689809928
 31
0.0
  0
LINE
  5
141
330
1F
100
AcDbEntity
  8
0
  6
Continuous
 62
     7
370
    25
100
AcDbLine
 10
29.7176958282
 20
-118.6689809928
 30
0.0
 11
-19.4805904187
 21
-60.4731434027
 31
0.0
  0
LINE
  5
142
330
1F
100
AcDbEntity
  8
0
  6
Continuous
 62
     7
370
    25
100
AcDbLine
 10
48.0573278065
 20
-96.7032102005
 30
0.0
 11
-19.4805904187
 21
-60.4731434027
 31
0.0
  0
LINE
  5
143
330
1F
100
AcDbEntity
  8
0
  6
Continuous
 62
     7
370
    25
100
AcDbLine
 10
1.7091046357
 20
-63.0292549695
 30
0.0
 11
48.0573278065
 21
-96.7032102005
 31
0.0
  0
LINE
  5
144
330
1F
100
AcDbEntity
  8
0
  6
Continuous
 62
     7
370
    25
100
AcDbLine
 10
-140.0
 20
-84.0
 30
0.0
 11
-140.0
 21
-114.0
 31
0.0
  0
LINE
  5
145
330
1F
100
AcDbEntity
  8
0
  6
Continuous
 62
     7
370
    25
100
AcDbLine
 10
-145.0
 20
-84.0
 30
0.0
 11
-140.0
 21
-84.0
 31
0.0
  0
LINE
  5
146
330
1F
100
AcDbEntity
  8
0
  6
Continuous
 62
     7
370
    25
100
AcDbLine
 10
-145.0
 20
-84.0
 30
0.0
 11
-145.0
 21
-114.0
 31
0.0
  0
LINE
  5
147
330
1F
100
AcDbEntity
  8
0
  6
Continuous
 62
     7
370
    25
100
AcDbLine
 10
-145.0
 20
-114.0
 30
0.0
 11
-140.0
 21
-114.0
 31
0.0
  0
LINE
  5
148
330
1F
100
AcDbEntity
  8
0
  6
Continuous
 62
     7
370
    25
100
AcDbLine
 10
-140.0
 20
-18.0
 30
0.0
 11
-140.0
 21
-48.0
 31
0.0
  0
LINE
  5
149
330
1F
100
AcDbEntity
  8
0
  6
Continuous
 62
     7
370
    25
100
AcDbLine
 10
-145.0
 20
-18.0
 30
0.0
 11
-140.0
 21
-18.0
 31
0.0
  0
LINE
  5
14A
330
1F
100
AcDbEntity
  8
0
  6
Continuous
 62
     7
370
    25
100
AcDbLine
 10
-145.0
 20
-18.0
 30
0.0
 11
-145.0
 21
-48.0
 31
0.0
  0
LINE
  5
14B
330
1F
100
AcDbEntity
  8
0
  6
Continuous
 62
     7
370
    25
100
AcDbLine
 10
-145.0
 20
-48.0
 30
0.0
 11
-140.0
 21
-48.0
 31
0.0
  0
LINE
  5
14C
330
1F
100
AcDbEntity
  8
0
  6
Continuous
 62
     7
370
    25
100
AcDbLine
 10
-140.0
 20
48.0
 30
0.0
 11
-140.0
 21
18.0
 31
0.0
  0
LINE
  5
14D
330
1F
100
AcDbEntity
  8
0
  6
Continuous
 62
     7
370
    25
100
AcDbLine
 10
-145.0
 20
48.0
 30
0.0
 11
-140.0
 21
48.0
 31
0.0
  0
LINE
  5
14E
330
1F
100
AcDbEntity
  8
0
  6
Continuous
 62
     7
370
    25
100
AcDbLine
 10
-145.0
 20
48.0
 30
0.0
 11
-145.0
 21
18.0
 31
0.0
  0
LINE
  5
14F
330
1F
100
AcDbEntity
  8
0
  6
Continuous
 62
     7
370
    25
100
AcDbLine
 10
-145.0
 20
18.0
 30
0.0
 11
-140.0
 21
18.0
 31
0.0
  0
LINE
  5
150
330
1F
100
AcDbEntity
  8
0
  6
Continuous
 62
     7
370
    25
100
AcDbLine
 10
114.0
 20
145.0
 30
0.0
 11
114.0
 21
140.0
 31
0.0
  0
LINE
  5
151
330
1F
100
AcDbEntity
  8
0
  6
Continuous
 62
     7
370
    25
100
AcDbLine
 10
84.0
 20
145.0
 30
0.0
 11
114.0
 21
145.0
 31
0.0
  0
LINE
  5
152
330
1F
100
AcDbEntity
  8
0
  6
Continuous
 62
     7
370
    25
100
AcDbLine
 10
84.0
 20
145.0
 30
0.0
 11
84.0
 21
140.0
 31
0.0
  0
LINE
  5
153
330
1F
100
AcDbEntity
  8
0
  6
Continuous
 62
     7
370
    25
100
AcDbLine
 10
84.0
 20
140.0
 30
0.0
 11
114.0
 21
140.0
 31
0.0
  0
LINE
  5
154
330
1F
100
AcDbEntity
  8
0
  6
Continuous
 62
     7
370
    25
100
AcDbLine
 10
48.0
 20
145.0
 30
0.0
 11
48.0
 21
140.0
 31
0.0
  0
LINE
  5
155
330
1F
100
AcDbEntity
  8
0
  6
Continuous
 62
     7
370
    25
100
AcDbLine
 10
18.0
 20
145.0
 30
0.0
 11
48.0
 21
145.0
 31
0.0
  0
LINE
  5
156
330
1F
100
AcDbEntity
  8
0
  6
Continuous
 62
     7
370
    25
100
AcDbLine
 10
18.0
 20
145.0
 30
0.0
 11
18.0
 21
140.0
 31
0.0
  0
LINE
  5
157
330
1F
100
AcDbEntity
  8
0
  6
Continuous
 62
     7
370
    25
100
AcDbLine
 10
18.0
 20
140.0
 30
0.0
 11
48.0
 21
140.0
 31
0.0
  0
LINE
  5
158
330
1F
100
AcDbEntity
  8
0
  6
Continuous
 62
     7
370
    25
100
AcDbLine
 10
-18.0
 20
145.0
 30
0.0
 11
-18.0
 21
140.0
 31
0.0
  0
LINE
  5
159
330
1F
100
AcDbEntity
  8
0
  6
Continuous
 62
     7
370
    25
100
AcDbLine
 10
-48.0
 20
145.0
 30
0.0
 11
-18.0
 21
145.0
 31
0.0
  0
LINE
  5
15A
330
1F
100
AcDbEntity
  8
0
  6
Continuous
 62
     7
370
    25
100
AcDbLine
 10
-48.0
 20
145.0
 30
0.0
 11
-48.0
 21
140.0
 31
0.0
  0
LINE
  5
15B
330
1F
100
AcDbEntity
  8
0
  6
Continuous
 62
     7
370
    25
100
AcDbLine
 10
-48.0
 20
140.0
 30
0.0
 11
-18.0
 21
140.0
 31
0.0
  0
LINE
  5
15C
330
1F
100
AcDbEntity
  8
0
  6
Continuous
 62
     7
370
    25
100
AcDbLine
 10
-145.0
 20
-150.0
 30
0.0
 11
145.0
 21
-150.0
 31
0.0
  0
LINE
  5
15D
330
1F
100
AcDbEntity
  8
0
  6
Continuous
 62
     7
370
    25
100
AcDbLine
 10
-150.0
 20
-145.0
 30
0.0
 11
-150.0
 21
145.0
 31
0.0
  0
LINE
  5
15E
330
1F
100
AcDbEntity
  8
0
  6
Continuous
 62
     7
370
    25
100
AcDbLine
 10
-145.0
 20
150.0
 30
0.0
 11
145.0
 21
150.0
 31
0.0
  0
LINE
  5
15F
330
1F
100
AcDbEntity
  8
0
  6
Continuous
 62
     7
370
    25
100
AcDbLine
 10
150.0
 20
-145.0
 30
0.0
 11
150.0
 21
145.0
 31
0.0
  0
LINE
  5
160
330
1F
100
AcDbEntity
  8
0
  6
Continuous
 62
     7
370
    25
100
AcDbLine
 10
-114.0
 20
145.0
 30
0.0
 11
-114.0
 21
140.0
 31
0.0
  0
LINE
  5
161
330
1F
100
AcDbEntity
  8
0
  6
Continuous
 62
     7
370
    25
100
AcDbLine
 10
-114.0
 20
140.0
 30
0.0
 11
-84.0
 21
140.0
 31
0.0
  0
LINE
  5
162
330
1F
100
AcDbEntity
  8
0
  6
Continuous
 62
     7
370
    25
100
AcDbLine
 10
-84.0
 20
145.0
 30
0.0
 11
-84.0
 21
140.0
 31
0.0
  0
LINE
  5
163
330
1F
100
AcDbEntity
  8
0
  6
Continuous
 62
     7
370
    25
100
AcDbLine
 10
-114.0
 20
145.0
 30
0.0
 11
-84.0
 21
145.0
 31
0.0
  0
LINE
  5
164
330
1F
100
AcDbEntity
  8
0
  6
Continuous
 62
     7
370
    25
100
AcDbLine
 10
-84.0
 20
-145.0
 30
0.0
 11
-84.0
 21
-140.0
 31
0.0
  0
LINE
  5
165
330
1F
100
AcDbEntity
  8
0
  6
Continuous
 62
     7
370
    25
100
AcDbLine
 10
-114.0
 20
-140.0
 30
0.0
 11
-84.0
 21
-140.0
 31
0.0
  0
LINE
  5
166
330
1F
100
AcDbEntity
  8
0
  6
Continuous
 62
     7
370
    25
100
AcDbLine
 10
-114.0
 20
-145.0
 30
0.0
 11
-114.0
 21
-140.0
 31
0.0
  0
LINE
  5
167
330
1F
100
AcDbEntity
  8
0
  6
Continuous
 62
     7
370
    25
100
AcDbLine
 10
-114.0
 20
-145.0
 30
0.0
 11
-84.0
 21
-145.0
 31
0.0
  0
LINE
  5
168
330
1F
100
AcDbEntity
  8
0
  6
Continuous
 62
     7
370
    25
100
AcDbLine
 10
-18.0
 20
-145.0
 30
0.0
 11
-18.0
 21
-140.0
 31
0.0
  0
LINE
  5
169
330
1F
100
AcDbEntity
  8
0
  6
Continuous
 62
     7
370
    25
100
AcDbLine
 10
-48.0
 20
-140.0
 30
0.0
 11
-18.0
 21
-140.0
 31
0.0
  0
LINE
  5
16A
330
1F
100
AcDbEntity
  8
0
  6
Continuous
 62
     7
370
    25
100
AcDbLine
 10
-48.0
 20
-145.0
 30
0.0
 11
-48.0
 21
-140.0
 31
0.0
  0
LINE
  5
16B
330
1F
100
AcDbEntity
  8
0
  6
Continuous
 62
     7
370
    25
100
AcDbLine
 10
-48.0
 20
-145.0
 30
0.0
 11
-18.0
 21
-145.0
 31
0.0
  0
LINE
  5
16C
330
1F
100
AcDbEntity
  8
0
  6
Continuous
 62
     7
370
    25
100
AcDbLine
 10
48.0
 20
-145.0
 30
0.0
 11
48.0
 21
-140.0
 31
0.0
  0
LINE
  5
16D
330
1F
100
AcDbEntity
  8
0
  6
Continuous
 62
     7
370
    25
100
AcDbLine
 10
18.0
 20
-140.0
 30
0.0
 11
48.0
 21
-140.0
 31
0.0
  0
LINE
  5
16E
330
1F
100
AcDbEntity
  8
0
  6
Continuous
 62
     7
370
    25
100
AcDbLine
 10
18.0
 20
-145.0
 30
0.0
 11
18.0
 21
-140.0
 31
0.0
  0
LINE
  5
16F
330
1F
100
AcDbEntity
  8
0
  6
Continuous
 62
     7
370
    25
100
AcDbLine
 10
18.0
 20
-145.0
 30
0.0
 11
48.0
 21
-145.0
 31
0.0
  0
LINE
  5
170
330
1F
100
AcDbEntity
  8
0
  6
Continuous
 62
     7
370
    25
100
AcDbLine
 10
114.0
 20
-145.0
 30
0.0
 11
114.0
 21
-140.0
 31
0.0
  0
LINE
  5
171
330
1F
100
AcDbEntity
  8
0
  6
Continuous
 62
     7
370
    25
100
AcDbLine
 10
84.0
 20
-140.0
 30
0.0
 11
114.0
 21
-140.0
 31
0.0
  0
LINE
  5
172
330
1F
100
AcDbEntity
  8
0
  6
Continuous
 62
     7
370
    25
100
AcDbLine
 10
84.0
 20
-145.0
 30
0.0
 11
84.0
 21
-140.0
 31
0.0
  0
LINE
  5
173
330
1F
100
AcDbEntity
  8
0
  6
Continuous
 62
     7
370
    25
100
AcDbLine
 10
84.0
 20
-145.0
 30
0.0
 11
114.0
 21
-145.0
 31
0.0
  0
LINE
  5
174
330
1F
100
AcDbEntity
  8
0
  6
Continuous
 62
     7
370
    25
100
AcDbLine
 10
-145.0
 20
114.0
 30
0.0
 11
-145.0
 21
84.0
 31
0.0
  0
LINE
  5
175
330
1F
100
AcDbEntity
  8
0
  6
Continuous
 62
     7
370
    25
100
AcDbLine
 10
-145.0
 20
84.0
 30
0.0
 11
-140.0
 21
84.0
 31
0.0
  0
LINE
  5
176
330
1F
100
AcDbEntity
  8
0
  6
Continuous
 62
     7
370
    25
100
AcDbLine
 10
-140.0
 20
114.0
 30
0.0
 11
-140.0
 21
84.0
 31
0.0
  0
LINE
  5
177
330
1F
100
AcDbEntity
  8
0
  6
Continuous
 62
     7
370
    25
100
AcDbLine
 10
-145.0
 20
114.0
 30
0.0
 11
-140.0
 21
114.0
 31
0.0
  0
LINE
  5
178
330
1F
100
AcDbEntity
  8
0
  6
Continuous
 62
     7
370
    25
100
AcDbLine
 10
140.0
 20
114.0
 30
0.0
 11
140.0
 21
84.0
 31
0.0
  0
LINE
  5
179
330
1F
100
AcDbEntity
  8
0
  6
Continuous
 62
     7
370
    25
100
AcDbLine
 10
145.0
 20
84.0
 30
0.0
 11
140.0
 21
84.0
 31
0.0
  0
LINE
  5
17A
330
1F
100
AcDbEntity
  8
0
  6
Continuous
 62
     7
370
    25
100
AcDbLine
 10
145.0
 20
114.0
 30
0.0
 11
145.0
 21
84.0
 31
0.0
  0
LINE
  5
17B
330
1F
100
AcDbEntity
  8
0
  6
Continuous
 62
     7
370
    25
100
AcDbLine
 10
145.0
 20
114.0
 30
0.0
 11
140.0
 21
114.0
 31
0.0
  0
LINE
  5
17C
330
1F
100
AcDbEntity
  8
0
  6
Continuous
 62
     7
370
    25
100
AcDbLine
 10
140.0
 20
48.0
 30
0.0
 11
140.0
 21
18.0
 31
0.0
  0
LINE
  5
17D
330
1F
100
AcDbEntity
  8
0
  6
Continuous
 62
     7
370
    25
100
AcDbLine
 10
145.0
 20
18.0
 30
0.0
 11
140.0
 21
18.0
 31
0.0
  0
LINE
  5
17E
330
1F
100
AcDbEntity
  8
0
  6
Continuous
 62
     7
370
    25
100
AcDbLine
 10
145.0
 20
48.0
 30
0.0
 11
145.0
 21
18.0
 31
0.0
  0
LINE
  5
17F
330
1F
100
AcDbEntity
  8
0
  6
Continuous
 62
     7
370
    25
100
AcDbLine
 10
145.0
 20
48.0
 30
0.0
 11
140.0
 21
48.0
 31
0.0
  0
LINE
  5
180
330
1F
100
AcDbEntity
  8
0
  6
Continuous
 62
     7
370
    25
100
AcDbLine
 10
140.0
 20
-18.0
 30
0.0
 11
140.0
 21
-48.0
 31
0.0
  0
LINE
  5
181
330
1F
100
AcDbEntity
  8
0
  6
Continuous
 62
     7
370
    25
100
AcDbLine
 10
145.0
 20
-48.0
 30
0.0
 11
140.0
 21
-48.0
 31
0.0
  0
LINE
  5
182
330
1F
100
AcDbEntity
  8
0
  6
Continuous
 62
     7
370
    25
100
AcDbLine
 10
145.0
 20
-18.0
 30
0.0
 11
145.0
 21
-48.0
 31
0.0
  0
LINE
  5
183
330
1F
100
AcDbEntity
  8
0
  6
Continuous
 62
     7
370
    25
100
AcDbLine
 10
145.0
 20
-18.0
 30
0.0
 11
140.0
 21
-18.0
 31
0.0
  0
LINE
  5
184
330
1F
100
AcDbEntity
  8
0
  6
Continuous
 62
     7
370
    25
100
AcDbLine
 10
140.0
 20
-84.0
 30
0.0
 11
140.0
 21
-114.0
 31
0.0
  0
LINE
  5
185
330
1F
100
AcDbEntity
  8
0
  6
Continuous
 62
     7
370
    25
100
AcDbLine
 10
145.0
 20
-114.0
 30
0.0
 11
140.0
 21
-114.0
 31
0.0
  0
LINE
  5
186
330
1F
100
AcDbEntity
  8
0
  6
Continuous
 62
     7
370
    25
100
AcDbLine
 10
145.0
 20
-84.0
 30
0.0
 11
145.0
 21
-114.0
 31
0.0
  0
LINE
  5
187
330
1F
100
AcDbEntity
  8
0
  6
Continuous
 62
     7
370
    25
100
AcDbLine
 10
145.0
 20
-84.0
 30
0.0
 11
140.0
 21
-84.0
 31
0.0
  0
LINE
  5
188
330
1F
100
AcDbEntity
  8
0
  6
Continuous
 62
     7
370
    25
100
AcDbLine
 10
-37.135827607
 20
131.4795220782
 30
0.0
 11
-72.0645338059
 21
96.5508158793
 31
0.0
  0
LINE
  5
189
330
1F
100
AcDbEntity
  8
0
  6
Continuous
 62
     7
370
    25
100
AcDbLine
 10
-72.0645338059
 20
92.3128126486
 30
0.0
 11
-41.1241910172
 21
115.748630586
 31
0.0
  0
LINE
  5
18A
330
1F
100
AcDbEntity
  8
0
  6
Continuous
 62
     7
370
    25
100
AcDbLine
 10
-37.7481721678
 20
111.8618165115
 30
0.0
 11
-64.8656919767
 21
86.8965615677
 31
0.0
  0
LINE
  5
18B
330
1F
100
AcDbEntity
  8
0
  6
Continuous
 62
     7
370
    25
100
AcDbLine
 10
-62.7132744855
 20
84.5585832821
 30
0.0
 11
-34.2817695899
 21
107.5858644898
 31
0.0
  0
LINE
  5
18C
330
1F
100
AcDbEntity
  8
0
  6
Continuous
 62
     7
370
    25
100
AcDbLine
 10
-30.5843812953
 20
104.0804322906
 30
0.0
 11
-57.7019011042
 21
79.1151773468
 31
0.0
  0
LINE
  5
18D
330
1F
100
AcDbEntity
  8
0
  6
Continuous
 62
     7
370
    25
100
AcDbLine
 10
-55.549483613
 20
76.7771990612
 30
0.0
 11
-27.1179787175
 21
99.8044802689
 31
0.0
  0
LINE
  5
18E
330
1F
100
AcDbEntity
  8
0
  6
Continuous
 62
     7
370
    25
100
AcDbLine
 10
-23.4205904229
 20
96.2990480697
 30
0.0
 11
-50.5381102317
 21
71.3337931259
 31
0.0
  0
LINE
  5
18F
330
1F
100
AcDbEntity
  8
0
  6
Continuous
 62
     7
370
    25
100
AcDbLine
 10
-48.3856927405
 20
68.9958148402
 30
0.0
 11
-19.954187845
 21
92.023096048
 31
0.0
  0
LINE
  5
190
330
1F
100
AcDbEntity
  8
0
  6
Continuous
 62
     7
370
    25
100
AcDbLine
 10
-16.2567995504
 20
88.5176638488
 30
0.0
 11
-43.3743193593
 21
63.552408905
 31
0.0
  0
LINE
  5
191
330
1F
100
AcDbEntity
  8
0
  6
Continuous
 62
     7
370
    25
100
AcDbLine
 10
-41.2219018681
 20
61.2144306193
 30
0.0
 11
-12.7903969725
 21
84.241711827
 31
0.0
  0
LINE
  5
192
330
1F
100
AcDbEntity
  8
0
  6
Continuous
 62
     7
370
    25
100
AcDbLine
 10
-9.0930086779
 20
80.7362796279
 30
0.0
 11
-36.2105284868
 21
55.7710246841
 31
0.0
  0
LINE
  5
193
330
1F
100
AcDbEntity
  8
0
  6
Continuous
 62
     7
370
    25
100
AcDbLine
 10
-34.0581109956
 20
53.4330463984
 30
0.0
 11
-5.6266061001
 21
76.4603276061
 31
0.0
  0
LINE
  5
194
330
1F
100
AcDbEntity
  8
0
  6
Continuous
 62
     7
370
    25
100
AcDbLine
 10
-1.9292178055
 20
72.954895407
 30
0.0
 11
-29.0467376143
 21
47.9896404632
 31
0.0
  0
LINE
  5
195
330
1F
100
AcDbEntity
  8
0
  6
Continuous
 62
     7
370
    25
100
AcDbLine
 10
-26.8943201231
 20
45.6516621775
 30
0.0
 11
1.5371847724
 21
68.6789433852
 31
0.0
  0
LINE
  5
196
330
1F
100
AcDbEntity
  8
0
  6
Continuous
 62
     7
370
    25
100
AcDbLine
 10
5.234573067
 20
65.173511186
 30
0.0
 11
-21.8829467419
 21
40.2082562422
 31
0.0
  0
LINE
  5
197
330
1F
100
AcDbEntity
  8
0
  6
Continuous
 62
     7
370
    25
100
AcDbLine
 10
-19.7305292507
 20
37.8702779566
 30
0.0
 11
8.7009756449
 21
60.8975591643
 31
0.0
  0
LINE
  5
198
330
1F
100
AcDbEntity
  8
0
  6
Continuous
 62
     7
370
    25
100
AcDbLine
 10
12.3983639395
 20
57.3921269651
 30
0.0
 11
-14.7191558694
 21
32.4268720213
 31
0.0
  0
LINE
  5
199
330
1F
100
AcDbEntity
  8
0
  6
Continuous
 62
     7
370
    25
100
AcDbLine
 10
-12.5667383782
 20
30.0888937357
 30
0.0
 11
15.8647665173
 21
53.1161749434
 31
0.0
  0
LINE
  5
19A
330
1F
100
AcDbEntity
  8
0
  6
Continuous
 62
     7
370
    25
100
AcDbLine
 10
19.5621548119
 20
49.6107427442
 30
0.0
 11
-7.5553649969
 21
24.6454878004
 31
0.0
  0
LINE
  5
19B
330
1F
100
AcDbEntity
  8
0
  6
Continuous
 62
     7
370
    25
100
AcDbLine
 10
-5.4029475057
 20
22.3075095148
 30
0.0
 11
23.0285573898
 21
45.3347907225
 31
0.0
  0
LINE
  5
19C
330
1F
100
AcDbEntity
  8
0
  6
Continuous
 62
     7
370
    25
100
AcDbLine
 10
26.7259456844
 20
41.8293585233
 30
0.0
 11
-0.3915741245
 21
16.8641035795
 31
0.0
  0
LINE
  5
19D
330
1F
100
AcDbEntity
  8
0
  6
Continuous
 62
     7
370
    25
100
AcDbLine
 10
1.7608433667
 20
14.5261252939
 30
0.0
 11
30.1923482623
 21
37.5534065016
 31
0.0
  0
LINE
  5
19E
330
1F
100
AcDbEntity
  8
0
  6
Continuous
 62
     7
370
    25
100
AcDbLine
 10
33.8897365569
 20
34.0479743024
 30
0.0
 11
6.772216748
 21
9.0827193586
 31
0.0
  0
LINE
  5
19F
330
1F
100
AcDbEntity
  8
0
  6
Continuous
 62
     7
370
    25
100
AcDbLine
 10
8.9246342392
 20
6.7447410729
 30
0.0
 11
37.3561391347
 21
29.7720222807
 31
0.0
  0
ARC
  5
1A0
330
1F
100
AcDbEntity
  8
0
  6
Continuous
 62
     7
370
    25
100
AcDbCircle
 10
0.555843753
 20
-14.744805574
 30
0.0
 40
44.82364165721375
100
AcDbArc
 50
190.976403192
 51
220.2109056744
  0
ARC
  5
1A1
330
1F
100
AcDbEntity
  8
0
  6
Continuous
 62
     7
370
    25
100
AcDbCircle
 10
-59.65894501
 20
-89.7856655883
 30
0.0
 40
44.82364165721343
100
AcDbArc
 50
61.7890943256
 51
91.023596808
  0
ARC
  5
1A2
330
1F
100
AcDbEntity
  8
0
  6
Continuous
 62
     7
370
    25
100
AcDbCircle
 10
-77.6805111457
 20
-103.4261733095
 30
0.0
 40
68.81375898145748
100
AcDbArc
 50
19.606808456
 51
43.5673035616
  0
ARC
  5
1A3
330
1F
100
AcDbEntity
  8
0
  6
Continuous
 62
     7
370
    25
100
AcDbCircle
 10
10.8182692398
 20
5.1789303558
 30
0.0
 40
68.81375898145643
100
AcDbArc
 50
238.0
 51
262.393191544
  0
ARC
  5
1A4
330
1F
100
AcDbEntity
  8
0
  6
Continuous
 62
     7
370
    25
100
AcDbCircle
 10
145.0
 20
-145.0
 30
0.0
 40
5.000000000000057
100
AcDbArc
 50
270.0
 51
0.0
  0
ARC
  5
1A5
330
1F
100
AcDbEntity
  8
0
  6
Continuous
 62
     7
370
    25
100
AcDbCircle
 10
-145.0
 20
-145.0
 30
0.0
 40
5.000000000000057
100
AcDbArc
 50
180.0
 51
270.0
  0
ARC
  5
1A6
330
1F
100
AcDbEntity
  8
0
  6
Continuous
 62
     7
370
    25
100
AcDbCircle
 10
-145.0
 20
145.0
 30
0.0
 40
5.000000000000057
100
AcDbArc
 50
90.0
 51
180.0
  0
ARC
  5
1A7
330
1F
100
AcDbEntity
  8
0
  6
Continuous
 62
     7
370
    25
100
AcDbCircle
 10
145.0
 20
145.0
 30
0.0
 40
5.000000000000028
100
AcDbArc
 50
0.0
 51
90.0
  0
ENDSEC
  0
SECTION
  2
OBJECTS
  0
DICTIONARY
  5
C
330
0
100
AcDbDictionary
281
     1
  3
ACAD_GROUP
350
D
  3
ACAD_LAYOUT
350
1A
  3
ACAD_MLINESTYLE
350
17
  3
ACAD_PLOTSETTINGS
350
19
  3
ACAD_PLOTSTYLENAME
350
E
  3
ACAD_SCALELIST
350
47
  0
DICTIONARY
  5
D
102
{ACAD_REACTORS
330
C
102
}
330
C
100
AcDbDictionary
281
     1
  0
DICTIONARY
  5
1A
102
{ACAD_REACTORS
330
C
102
}
330
C
100
AcDbDictionary
281
     1
  3
Layout1
350
1E
  3
Layout2
350
26
  3
Model
350
22
  0
DICTIONARY
  5
17
102
{ACAD_REACTORS
330
C
102
}
330
C
100
AcDbDictionary
281
     1
  3
Standard
350
18
  0
DICTIONARY
  5
19
102
{ACAD_REACTORS
330
C
102
}
330
C
100
AcDbDictionary
281
     1
  0
ACDBDICTIONARYWDFLT
  5
E
102
{ACAD_REACTORS
330
C
102
}
330
C
100
AcDbDictionary
281
     1
  3
Normal
350
F
100
AcDbDictionaryWithDefault
340
F
  0
DICTIONARY
  5
47
102
{ACAD_REACTORS
330
C
102
}
330
C
100
AcDbDictionary
281
     1
  3
A0
350
48
  3
A1
350
49
  3
A2
350
4A
  3
A3
350
4B
  3
A4
350
4C
  3
A5
350
4D
  3
A6
350
4E
  3
A7
350
4F
  3
A8
350
50
  3
A9
350
51
  3
B0
350
52
  3
B1
350
53
  3
B2
350
54
  3
B3
350
55
  3
B4
350
56
  3
B5
350
57
  3
B6
350
58
  3
B7
350
59
  3
B8
350
5A
  3
B9
350
5B
  3
C0
350
5C
  3
C1
350
5D
  3
C2
350
5E
  3
C3
350
5F
  3
C4
350
60
  3
C5
350
61
  3
C6
350
62
  3
C7
350
63
  3
C8
350
64
  3
C9
350
65
  3
D0
350
66
  3
D1
350
67
  3
D2
350
68
  0
LAYOUT
  5
1E
102
{ACAD_REACTORS
330
1A
102
}
330
1A
100
AcDbPlotSettings
  1

  2
none_device
  4

  6

 40
0.0
 41
0.0
 42
0.0
 43
0.0
 44
0.0
 45
0.0
 46
0.0
 47
0.0
 48
0.0
 49
0.0
140
0.0
141
0.0
142
1.0
143
1.0
 70
   688
 72
     1
 73
     0
 74
     5
  7

 75
    16
147
1.0
148
0.0
149
0.0
100
AcDbLayout
  1
Layout1
 70
     1
 71
     1
 10
0.0
 20
0.0
 11
420.0
 21
297.0
 12
0.0
 22
0.0
 32
0.0
 14
1.0000000000E+20
 24
1.0000000000E+20
 34
1.0000000000E+20
 15
-1.0000000000E+20
 25
-1.0000000000E+20
 35
-1.0000000000E+20
146
0.0
 13
0.0
 23
0.0
 33
0.0
 16
1.0
 26
0.0
 36
0.0
 17
0.0
 27
1.0
 37
0.0
 76
     0
330
1B
  0
LAYOUT
  5
26
102
{ACAD_REACTORS
330
1A
102
}
330
1A
100
AcDbPlotSettings
  1

  2
none_device
  4

  6

 40
0.0
 41
0.0
 42
0.0
 43
0.0
 44
0.0
 45
0.0
 46
0.0
 47
0.0
 48
0.0
 49
0.0
140
0.0
141
0.0
142
1.0
143
1.0
 70
   688
 72
     1
 73
     0
 74
     5
  7

 75
    16
147
1.0
148
0.0
149
0.0
100
AcDbLayout
  1
Layout2
 70
     1
 71
     2
 10
0.0
 20
0.0
 11
0.0
 21
0.0
 12
0.0
 22
0.0
 32
0.0
 14
0.0
 24
0.0
 34
0.0
 15
0.0
 25
0.0
 35
0.0
146
0.0
 13
0.0
 23
0.0
 33
0.0
 16
1.0
 26
0.0
 36
0.0
 17
0.0
 27
1.0
 37
0.0
 76
     0
330
23
  0
LAYOUT
  5
22
102
{ACAD_REACTORS
330
1A
102
}
330
1A
100
AcDbPlotSettings
  1

  2
none_device
  4
ANSI_A_(11.00_x_8.50_Inches)
  6

 40
6.35
 41
19.05
 42
6.35000508
 43
19.05000254
 44
279.4
 45
215.9
 46
133.34999746
 47
88.89999873
 48
0.0
 49
0.0
140
0.0
141
0.0
142
0.02805
143
1.0
 70
  1696
 72
     0
 73
     0
 74
     0
  7

 75
     0
147
0.0179189148
148
-1300.4909072572
149
0.0
100
AcDbLayout
  1
Model
 70
     1
 71
     0
 10
0.0
 20
0.0
 11
420.0
 21
297.0
 12
0.0
 22
0.0
 32
0.0
 14
-150.0
 24
-150.0
 34
0.0
 15
150.0
 25
150.0
 35
0.0
146
0.0
 13
0.0
 23
0.0
 33
0.0
 16
1.0
 26
0.0
 36
0.0
 17
0.0
 27
1.0
 37
0.0
 76
     0
330
1F
331
29
  0
MLINESTYLE
  5
18
102
{ACAD_REACTORS
330
17
102
}
330
17
100
AcDbMlineStyle
  2
Standard
 70
     0
  3

 62
   256
 51
90.0
 52
90.0
 71
     2
 49
0.5
 62
   256
  6
BYLAYER
 49
-0.5
 62
   256
  6
BYLAYER
  0
ACDBPLACEHOLDER
  5
F
102
{ACAD_REACTORS
330
E
102
}
330
E
  0
SCALE
  5
48
102
{ACAD_REACTORS
330
47
102
}
330
47
100
AcDbScale
 70
     0
300
1:1
140
1.0
141
1.0
290
     1
  0
SCALE
  5
49
102
{ACAD_REACTORS
330
47
102
}
330
47
100
AcDbScale
 70
     0
300
1:2
140
1.0
141
2.0
290
     0
  0
SCALE
  5
4A
102
{ACAD_REACTORS
330
47
102
}
330
47
100
AcDbScale
 70
     0
300
1:4
140
1.0
141
4.0
290
     0
  0
SCALE
  5
4B
102
{ACAD_REACTORS
330
47
102
}
330
47
100
AcDbScale
 70
     0
300
1:5
140
1.0
141
5.0
290
     0
  0
SCALE
  5
4C
102
{ACAD_REACTORS
330
47
102
}
330
47
100
AcDbScale
 70
     0
300
1:8
140
1.0
141
8.0
290
     0
  0
SCALE
  5
4D
102
{ACAD_REACTORS
330
47
102
}
330
47
100
AcDbScale
 70
     0
300
1:10
140
1.0
141
10.0
290
     0
  0
SCALE
  5
4E
102
{ACAD_REACTORS
330
47
102
}
330
47
100
AcDbScale
 70
     0
300
1:16
140
1.0
141
16.0
290
     0
  0
SCALE
  5
4F
102
{ACAD_REACTORS
330
47
102
}
330
47
100
AcDbScale
 70
     0
300
1:20
140
1.0
141
20.0
290
     0
  0
SCALE
  5
50
102
{ACAD_REACTORS
330
47
102
}
330
47
100
AcDbScale
 70
     0
300
1:30
140
1.0
141
30.0
290
     0
  0
SCALE
  5
51
102
{ACAD_REACTORS
330
47
102
}
330
47
100
AcDbScale
 70
     0
300
1:40
140
1.0
141
40.0
290
     0
  0
SCALE
  5
52
102
{ACAD_REACTORS
330
47
102
}
330
47
100
AcDbScale
 70
     0
300
1:50
140
1.0
141
50.0
290
     0
  0
SCALE
  5
53
102
{ACAD_REACTORS
330
47
102
}
330
47
100
AcDbScale
 70
     0
300
1:100
140
1.0
141
100.0
290
     0
  0
SCALE
  5
54
102
{ACAD_REACTORS
330
47
102
}
330
47
100
AcDbScale
 70
     0
300
2:1
140
2.0
141
1.0
290
     0
  0
SCALE
  5
55
102
{ACAD_REACTORS
330
47
102
}
330
47
100
AcDbScale
 70
     0
300
4:1
140
4.0
141
1.0
290
     0
  0
SCALE
  5
56
102
{ACAD_REACTORS
330
47
102
}
330
47
100
AcDbScale
 70
     0
300
8:1
140
8.0
141
1.0
290
     0
  0
SCALE
  5
57
102
{ACAD_REACTORS
330
47
102
}
330
47
100
AcDbScale
 70
     0
300
10:1
140
10.0
141
1.0
290
     0
  0
SCALE
  5
58
102
{ACAD_REACTORS
330
47
102
}
330
47
100
AcDbScale
 70
     0
300
100:1
140
100.0
141
1.0
290
     0
  0
SCALE
  5
59
102
{ACAD_REACTORS
330
47
102
}
330
47
100
AcDbScale
 70
     0
300
1/128" = 1'-0"
140
0.0078125
141
12.0
290
     0
  0
SCALE
  5
5A
102
{ACAD_REACTORS
330
47
102
}
330
47
100
AcDbScale
 70
     0
300
1/64" = 1'-0"
140
0.015625
141
12.0
290
     0
  0
SCALE
  5
5B
102
{ACAD_REACTORS
330
47
102
}
330
47
100
AcDbScale
 70
     0
300
1/32" = 1'-0"
140
0.03125
141
12.0
290
     0
  0
SCALE
  5
5C
102
{ACAD_REACTORS
330
47
102
}
330
47
100
AcDbScale
 70
     0
300
1/16" = 1'-0"
140
0.0625
141
12.0
290
     0
  0
SCALE
  5
5D
102
{ACAD_REACTORS
330
47
102
}
330
47
100
AcDbScale
 70
     0
300
3/32" = 1'-0"
140
0.09375
141
12.0
290
     0
  0
SCALE
  5
5E
102
{ACAD_REACTORS
330
47
102
}
330
47
100
AcDbScale
 70
     0
300
1/8" = 1'-0"
140
0.125
141
12.0
290
     0
  0
SCALE
  5
5F
102
{ACAD_REACTORS
330
47
102
}
330
47
100
AcDbScale
 70
     0
300
3/16" = 1'-0"
140
0.1875
141
12.0
290
     0
  0
SCALE
  5
60
102
{ACAD_REACTORS
330
47
102
}
330
47
100
AcDbScale
 70
     0
300
1/4" = 1'-0"
140
0.25
141
12.0
290
     0
  0
SCALE
  5
61
102
{ACAD_REACTORS
330
47
102
}
330
47
100
AcDbScale
 70
     0
300
3/8" = 1'-0"
140
0.375
141
12.0
290
     0
  0
SCALE
  5
62
102
{ACAD_REACTORS
330
47
102
}
330
47
100
AcDbScale
 70
     0
300
1/2" = 1'-0"
140
0.5
141
12.0
290
     0
  0
SCALE
  5
63
102
{ACAD_REACTORS
330
47
102
}
330
47
100
AcDbScale
 70
     0
300
3/4" = 1'-0"
140
0.75
141
12.0
290
     0
  0
SCALE
  5
64
102
{ACAD_REACTORS
330
47
102
}
330
47
100
AcDbScale
 70
     0
300
1" = 1'-0"
140
1.0
141
12.0
290
     0
  0
SCALE
  5
65
102
{ACAD_REACTORS
330
47
102
}
330
47
100
AcDbScale
 70
     0
300
1-1/2" = 1'-0"
140
1.5
141
12.0
290
     0
  0
SCALE
  5
66
102
{ACAD_REACTORS
330
47
102
}
330
47
100
AcDbScale
 70
     0
300
3" = 1'-0"
140
3.0
141
12.0
290
     0
  0
SCALE
  5
67
102
{ACAD_REACTORS
330
47
102
}
330
47
100
AcDbScale
 70
     0
300
6" = 1'-0"
140
6.0
141
12.0
290
     0
  0
SCALE
  5
68
102
{ACAD_REACTORS
330
47
102
}
330
47
100
AcDbScale
 70
     0
300
1'-0" = 1'-0"
140
12.0
141
12.0
290
     0
  0
ENDSEC
  0
EOF
