  0
SECTION
  2
HEADER
  9
$ACADVER
  1
AC1015
  9
$ACADMAINTVER
 70
     6
  9
$DWGCODEPAGE
  3
ANSI_1256
  9
$INSBASE
 10
0.0
 20
0.0
 30
0.0
  9
$EXTMIN
 10
-76.5
 20
-28.75
 30
0.0
  9
$EXTMAX
 10
76.5
 20
28.75
 30
0.0
  9
$LIMMIN
 10
0.0
 20
0.0
  9
$LIMMAX
 10
420.0
 20
297.0
  9
$ORTHOMODE
 70
     0
  9
$REGENMODE
 70
     1
  9
$FILLMODE
 70
     1
  9
$QTEXTMODE
 70
     0
  9
$MIRRTEXT
 70
     1
  9
$LTSCALE
 40
1.0
  9
$ATTMODE
 70
     1
  9
$TEXTSIZE
 40
6.35
  9
$TRACEWID
 40
1.0
  9
$TEXTSTYLE
  7
Standard
  9
$CLAYER
  8
0
  9
$CELTYPE
  6
ByLayer
  9
$CECOLOR
 62
   256
  9
$CELTSCALE
 40
1.0
  9
$DISPSILH
 70
     0
  9
$DIMSCALE
 40
1.0
  9
$DIMASZ
 40
5.9944
  9
$DIMEXO
 40
0.9906
  9
$DIMDLI
 40
3.75
  9
$DIMRND
 40
0.0
  9
$DIMDLE
 40
0.0
  9
$DIMEXE
 40
0.9906
  9
$DIMTP
 40
0.0
  9
$DIMTM
 40
0.0
  9
$DIMTXT
 40
6.35
  9
$DIMCEN
 40
2.5
  9
$DIMTSZ
 40
0.0
  9
$DIMTOL
 70
     0
  9
$DIMLIM
 70
     0
  9
$DIMTIH
 70
     1
  9
$DIMTOH
 70
     1
  9
$DIMSE1
 70
     0
  9
$DIMSE2
 70
     0
  9
$DIMTAD
 70
     1
  9
$DIMZIN
 70
     1
  9
$DIMBLK
  1

  9
$DIMASO
 70
     1
  9
$DIMSHO
 70
     1
  9
$DIMPOST
  1

  9
$DIMAPOST
  1

  9
$DIMALT
 70
     0
  9
$DIMALTD
 70
     3
  9
$DIMALTF
 40
0.0393700787
  9
$DIMLFAC
 40
1.0
  9
$DIMTOFL
 70
     1
  9
$DIMTVP
 40
0.0
  9
$DIMTIX
 70
     0
  9
$DIMSOXD
 70
     0
  9
$DIMSAH
 70
     0
  9
$DIMBLK1
  1

  9
$DIMBLK2
  1

  9
$DIMSTYLE
  2
ISO-25
  9
$DIMCLRD
 70
     0
  9
$DIMCLRE
 70
     0
  9
$DIMCLRT
 70
     0
  9
$DIMTFAC
 40
1.0
  9
$DIMGAP
 40
1.524
  9
$DIMJUST
 70
     0
  9
$DIMSD1
 70
     0
  9
$DIMSD2
 70
     0
  9
$DIMTOLJ
 70
     0
  9
$DIMTZIN
 70
     1
  9
$DIMALTZ
 70
     0
  9
$DIMALTTZ
 70
     0
  9
$DIMUPT
 70
     0
  9
$DIMDEC
 70
     2
  9
$DIMTDEC
 70
     2
  9
$DIMALTU
 70
     2
  9
$DIMALTTD
 70
     3
  9
$DIMTXSTY
  7
Standard
  9
$DIMAUNIT
 70
     0
  9
$DIMADEC
 70
     2
  9
$DIMALTRND
 40
0.0
  9
$DIMAZIN
 70
     0
  9
$DIMDSEP
 70
    44
  9
$DIMATFIT
 70
     3
  9
$DIMFRAC
 70
     0
  9
$DIMLDRBLK
  1

  9
$DIMLUNIT
 70
     2
  9
$DIMLWD
 70
    -2
  9
$DIMLWE
 70
    -2
  9
$DIMTMOVE
 70
     0
  9
$LUNITS
 70
     2
  9
$LUPREC
 70
     2
  9
$SKETCHINC
 40
1.0
  9
$FILLETRAD
 40
10.0
  9
$AUNITS
 70
     0
  9
$AUPREC
 70
     2
  9
$MENU
  1
.
  9
$ELEVATION
 40
0.0
  9
$PELEVATION
 40
0.0
  9
$THICKNESS
 40
0.0
  9
$LIMCHECK
 70
     0
  9
$CHAMFERA
 40
0.0
  9
$CHAMFERB
 40
0.0
  9
$CHAMFERC
 40
0.0
  9
$CHAMFERD
 40
0.0
  9
$SKPOLY
 70
     0
  9
$TDCREATE
 40
2458818.517969653
  9
$TDUCREATE
 40
2458818.43463632
  9
$TDUPDATE
 40
2458818.518004931
  9
$TDUUPDATE
 40
2458818.434671597
  9
$TDINDWG
 40
0.0000000116
  9
$TDUSRTIMER
 40
0.0000000116
  9
$USRTIMER
 70
     1
  9
$ANGBASE
 50
0.0
  9
$ANGDIR
 70
     0
  9
$PDMODE
 70
     0
  9
$PDSIZE
 40
-1.0
  9
$PLINEWID
 40
0.0
  9
$SPLFRAME
 70
     0
  9
$SPLINETYPE
 70
     6
  9
$SPLINESEGS
 70
     8
  9
$HANDSEED
  5
2A8
  9
$SURFTAB1
 70
     6
  9
$SURFTAB2
 70
     6
  9
$SURFTYPE
 70
     6
  9
$SURFU
 70
     6
  9
$SURFV
 70
     6
  9
$UCSBASE
  2

  9
$UCSNAME
  2

  9
$UCSORG
 10
0.0
 20
0.0
 30
0.0
  9
$UCSXDIR
 10
1.0
 20
0.0
 30
0.0
  9
$UCSYDIR
 10
0.0
 20
1.0
 30
0.0
  9
$UCSORTHOREF
  2

  9
$UCSORTHOVIEW
 70
     0
  9
$UCSORGTOP
 10
0.0
 20
0.0
 30
0.0
  9
$UCSORGBOTTOM
 10
0.0
 20
0.0
 30
0.0
  9
$UCSORGLEFT
 10
0.0
 20
0.0
 30
0.0
  9
$UCSORGRIGHT
 10
0.0
 20
0.0
 30
0.0
  9
$UCSORGFRONT
 10
0.0
 20
0.0
 30
0.0
  9
$UCSORGBACK
 10
0.0
 20
0.0
 30
0.0
  9
$PUCSBASE
  2

  9
$PUCSNAME
  2

  9
$PUCSORG
 10
0.0
 20
0.0
 30
0.0
  9
$PUCSXDIR
 10
1.0
 20
0.0
 30
0.0
  9
$PUCSYDIR
 10
0.0
 20
1.0
 30
0.0
  9
$PUCSORTHOREF
  2

  9
$PUCSORTHOVIEW
 70
     0
  9
$PUCSORGTOP
 10
0.0
 20
0.0
 30
0.0
  9
$PUCSORGBOTTOM
 10
0.0
 20
0.0
 30
0.0
  9
$PUCSORGLEFT
 10
0.0
 20
0.0
 30
0.0
  9
$PUCSORGRIGHT
 10
0.0
 20
0.0
 30
0.0
  9
$PUCSORGFRONT
 10
0.0
 20
0.0
 30
0.0
  9
$PUCSORGBACK
 10
0.0
 20
0.0
 30
0.0
  9
$USERI1
 70
     0
  9
$USERI2
 70
     0
  9
$USERI3
 70
     0
  9
$USERI4
 70
     0
  9
$USERI5
 70
     0
  9
$USERR1
 40
0.0
  9
$USERR2
 40
0.0
  9
$USERR3
 40
0.0
  9
$USERR4
 40
0.0
  9
$USERR5
 40
0.0
  9
$WORLDVIEW
 70
     1
  9
$SHADEDGE
 70
     3
  9
$SHADEDIF
 70
    70
  9
$TILEMODE
 70
     1
  9
$MAXACTVP
 70
    64
  9
$PINSBASE
 10
0.0
 20
0.0
 30
0.0
  9
$PLIMCHECK
 70
     0
  9
$PEXTMIN
 10
1.0000000000E+20
 20
1.0000000000E+20
 30
1.0000000000E+20
  9
$PEXTMAX
 10
-1.0000000000E+20
 20
-1.0000000000E+20
 30
-1.0000000000E+20
  9
$PLIMMIN
 10
0.0
 20
0.0
  9
$PLIMMAX
 10
420.0
 20
297.0
  9
$UNITMODE
 70
     0
  9
$VISRETAIN
 70
     1
  9
$PLINEGEN
 70
     0
  9
$PSLTSCALE
 70
     1
  9
$TREEDEPTH
 70
  3020
  9
$CMLSTYLE
  2
Standard
  9
$CMLJUST
 70
     0
  9
$CMLSCALE
 40
20.0
  9
$PROXYGRAPHICS
 70
     1
  9
$MEASUREMENT
 70
     1
  9
$CELWEIGHT
370
    -1
  9
$ENDCAPS
280
     0
  9
$JOINSTYLE
280
     0
  9
$LWDISPLAY
290
     1
  9
$INSUNITS
 70
     4
  9
$HYPERLINKBASE
  1

  9
$STYLESHEET
  1

  9
$XEDIT
290
     1
  9
$CEPSNTYPE
380
     0
  9
$PSTYLEMODE
290
     1
  9
$FINGERPRINTGUID
  2
{9CC56A95-F9E3-4611-A3D3-6AA78416D4F8}
  9
$VERSIONGUID
  2
{FAEB1C32-E019-11D5-929B-00C0DF256EC4}
  9
$EXTNAMES
290
     1
  9
$PSVPSCALE
 40
0.0
  9
$OLESTARTUP
290
     0
  0
ENDSEC
  0
SECTION
  2
CLASSES
  0
CLASS
  1
ACDBDICTIONARYWDFLT
  2
AcDbDictionaryWithDefault
  3
ObjectDBX Classes
 90
        0
280
     0
281
     0
  0
CLASS
  1
VISUALSTYLE
  2
AcDbVisualStyle
  3
ObjectDBX Classes
 90
     4095
280
     0
281
     0
  0
CLASS
  1
MATERIAL
  2
AcDbMaterial
  3
ObjectDBX Classes
 90
     1153
280
     0
281
     0
  0
CLASS
  1
SCALE
  2
AcDbScale
  3
ObjectDBX Classes
 90
     1153
280
     0
281
     0
  0
CLASS
  1
TABLESTYLE
  2
AcDbTableStyle
  3
ObjectDBX Classes
 90
     4095
280
     0
281
     0
  0
CLASS
  1
MLEADERSTYLE
  2
AcDbMLeaderStyle
  3
ACDB_MLEADERSTYLE_CLASS
 90
     4095
280
     0
281
     0
  0
CLASS
  1
SUN
  2
AcDbSun
  3
SCENEOE
 90
     1153
280
     0
281
     0
  0
CLASS
  1
ACDBPLACEHOLDER
  2
AcDbPlaceHolder
  3
ObjectDBX Classes
 90
        0
280
     0
281
     0
  0
CLASS
  1
LAYOUT
  2
AcDbLayout
  3
ObjectDBX Classes
 90
        0
280
     0
281
     0
  0
ENDSEC
  0
SECTION
  2
TABLES
  0
TABLE
  2
VPORT
  5
8
330
0
100
AcDbSymbolTable
 70
     1
  0
VPORT
  5
29
330
8
100
AcDbSymbolTableRecord
100
AcDbViewportTableRecord
  2
*Active
 70
     0
 10
0.0
 20
0.0
 11
1.0
 21
1.0
 12
0.0
 22
0.0
 13
0.0
 23
0.0
 14
10.0
 24
10.0
 15
10.0
 25
10.0
 16
0.0
 26
0.0
 36
1.0
 17
0.0
 27
0.0
 37
0.0
 40
58.65
 41
2.6608695652
 42
50.0
 43
0.0
 44
0.0
 50
0.0
 51
0.0
 71
     0
 72
   100
 73
     1
 74
     3
 75
     0
 76
     0
 77
     0
 78
     0
281
     0
 65
     1
110
0.0
120
0.0
130
0.0
111
1.0
121
0.0
131
0.0
112
0.0
122
1.0
132
0.0
 79
     0
146
0.0
  0
ENDTAB
  0
TABLE
  2
LTYPE
  5
5
330
0
100
AcDbSymbolTable
 70
     6
  0
LTYPE
  5
14
330
5
100
AcDbSymbolTableRecord
100
AcDbLinetypeTableRecord
  2
ByBlock
 70
     0
  3

 72
    65
 73
     0
 40
0.0
  0
LTYPE
  5
15
330
5
100
AcDbSymbolTableRecord
100
AcDbLinetypeTableRecord
  2
ByLayer
 70
     0
  3

 72
    65
 73
     0
 40
0.0
  0
LTYPE
  5
16
330
5
100
AcDbSymbolTableRecord
100
AcDbLinetypeTableRecord
  2
Continuous
 70
     0
  3
Solid line
 72
    65
 73
     0
 40
0.0
  0
LTYPE
  5
6E
330
5
100
AcDbSymbolTableRecord
100
AcDbLinetypeTableRecord
  2
HIDDEN
 70
     0
  3
Hidden __ __ __ __ __ __ __ __ __ __ __ __ __ __
 72
    65
 73
     2
 40
1.905
 49
1.27
 74
     0
 49
-0.635
 74
     0
  0
LTYPE
  5
6F
330
5
100
AcDbSymbolTableRecord
100
AcDbLinetypeTableRecord
  2
PHANTOM
 70
     0
  3
Phantom ______  __  __  ______  __  __  ______
 72
    65
 73
     6
 40
12.7
 49
6.35
 74
     0
 49
-1.27
 74
     0
 49
1.27
 74
     0
 49
-1.27
 74
     0
 49
1.27
 74
     0
 49
-1.27
 74
     0
  0
LTYPE
  5
70
330
5
100
AcDbSymbolTableRecord
100
AcDbLinetypeTableRecord
  2
CENTER
 70
     0
  3
Center ____ _ ____ _ ____ _ ____ _ ____ _ ____
 72
    65
 73
     4
 40
10.16
 49
6.35
 74
     0
 49
-1.27
 74
     0
 49
1.27
 74
     0
 49
-1.27
 74
     0
  0
LTYPE
  5
71
330
5
100
AcDbSymbolTableRecord
100
AcDbLinetypeTableRecord
  2
CENTERX2
 70
     0
  3
Center (2x) ________  __  ________  __  _____
 72
    65
 73
     4
 40
20.32
 49
12.7
 74
     0
 49
-2.54
 74
     0
 49
2.54
 74
     0
 49
-2.54
 74
     0
  0
LTYPE
  5
72
330
5
100
AcDbSymbolTableRecord
100
AcDbLinetypeTableRecord
  2
DOT2
 70
     0
  3
Dot (.5x) ........................................
 72
    65
 73
     2
 40
0.635
 49
0.0
 74
     0
 49
-0.635
 74
     0
  0
ENDTAB
  0
TABLE
  2
LAYER
  5
2
330
0
100
AcDbSymbolTable
 70
     1
  0
LAYER
  5
10
330
2
100
AcDbSymbolTableRecord
100
AcDbLayerTableRecord
  2
0
 70
     0
 62
     7
  6
Continuous
370
    -3
390
F
  0
ENDTAB
  0
TABLE
  2
STYLE
  5
3
330
0
100
AcDbSymbolTable
 70
     1
  0
STYLE
  5
11
330
3
100
AcDbSymbolTableRecord
100
AcDbTextStyleTableRecord
  2
Standard
 70
     0
 40
0.0
 41
1.0
 50
0.0
 71
     0
 42
6.35
  3
txt
  4

  0
ENDTAB
  0
TABLE
  2
VIEW
  5
6
330
0
100
AcDbSymbolTable
 70
     0
  0
ENDTAB
  0
TABLE
  2
UCS
  5
7
330
0
100
AcDbSymbolTable
 70
     0
  0
ENDTAB
  0
TABLE
  2
APPID
  5
9
330
0
100
AcDbSymbolTable
 70
     1
  0
APPID
  5
12
330
9
100
AcDbSymbolTableRecord
100
AcDbRegAppTableRecord
  2
ACAD
 70
     0
  0
ENDTAB
  0
TABLE
  2
DIMSTYLE
  5
A
330
0
100
AcDbSymbolTable
 70
     1
100
AcDbDimStyleTable
  0
DIMSTYLE
105
27
330
A
100
AcDbSymbolTableRecord
100
AcDbDimStyleTableRecord
  2
ISO-25
 70
     0
 41
2.5
 42
0.625
 43
3.75
 44
1.25
 73
     0
 74
     0
 77
     1
 78
     8
140
2.5
141
2.5
143
0.0393700787
147
0.625
171
     3
172
     1
178
     0
271
     2
272
     2
274
     3
278
    44
283
     0
284
     8
340
11
  0
ENDTAB
  0
TABLE
  2
BLOCK_RECORD
  5
1
330
0
100
AcDbSymbolTable
 70
     1
  0
BLOCK_RECORD
  5
1F
330
1
100
AcDbSymbolTableRecord
100
AcDbBlockTableRecord
  2
*Model_Space
340
22
  0
BLOCK_RECORD
  5
1B
330
1
100
AcDbSymbolTableRecord
100
AcDbBlockTableRecord
  2
*Paper_Space
340
1E
  0
BLOCK_RECORD
  5
23
330
1
100
AcDbSymbolTableRecord
100
AcDbBlockTableRecord
  2
*Paper_Space0
340
26
  0
ENDTAB
  0
ENDSEC
  0
SECTION
  2
BLOCKS
  0
BLOCK
  5
20
330
1F
100
AcDbEntity
  8
0
100
AcDbBlockBegin
  2
*Model_Space
 70
     0
 10
0.0
 20
0.0
 30
0.0
  3
*Model_Space
  1

  0
ENDBLK
  5
21
330
1F
100
AcDbEntity
  8
0
100
AcDbBlockEnd
  0
BLOCK
  5
1C
330
1B
100
AcDbEntity
 67
     1
  8
0
100
AcDbBlockBegin
  2
*Paper_Space
 70
     0
 10
0.0
 20
0.0
 30
0.0
  3
*Paper_Space
  1

  0
ENDBLK
  5
1D
330
1B
100
AcDbEntity
 67
     1
  8
0
100
AcDbBlockEnd
  0
BLOCK
  5
24
330
23
100
AcDbEntity
  8
0
100
AcDbBlockBegin
  2
*Paper_Space0
 70
     0
 10
0.0
 20
0.0
 30
0.0
  3
*Paper_Space0
  1

  0
ENDBLK
  5
25
330
23
100
AcDbEntity
  8
0
100
AcDbBlockEnd
  0
ENDSEC
  0
SECTION
  2
ENTITIES
  0
SPLINE
  5
73
330
1F
100
AcDbEntity
  8
0
  6
Continuous
 62
     7
370
    25
100
AcDbSpline
210
0.0
220
0.0
230
1.0
 70
     8
 71
     3
 72
    23
 73
    19
 74
     0
 42
0.000000001
 43
0.00000001
 40
0.0
 40
0.0
 40
0.0
 40
0.0
 40
0.0725383714064926
 40
0.1400338305012499
 40
0.2024956806336218
 40
0.2605750556694147
 40
0.3132283378464654
 40
0.3615831937532657
 40
0.4048783612951255
 40
0.4441274373055402
 40
0.5163996933371977
 40
0.5865066709977669
 40
0.6550853737960485
 40
0.7243837831470357
 40
0.7939735287256625
 40
0.8616376821817775
 40
0.9301109423064041
 40
1.0
 40
1.0
 40
1.0
 40
1.0
 10
44.24773769920643
 20
-12.41180007242607
 30
0.0
 10
44.29048045036765
 20
-12.41182216327056
 30
0.0
 10
44.37299445027161
 20
-12.4118648091904
 30
0.0
 10
44.49218905489052
 20
-12.40617163279151
 30
0.0
 10
44.60277375103773
 20
-12.39959944327095
 30
0.0
 10
44.70440885871392
 20
-12.38997669546809
 30
0.0
 10
44.79714019369007
 20
-12.37637489906211
 30
0.0
 10
44.88112237779643
 20
-12.36264384489333
 30
0.0
 10
44.95570421050343
 20
-12.34277904118114
 30
0.0
 10
45.04298878445467
 20
-12.31603179955383
 30
0.0
 10
45.14025070942148
 20
-12.27041377718098
 30
0.0
 10
45.24606149302606
 20
-12.20419964853303
 30
0.0
 10
45.33573375924215
 20
-12.11979863681859
 30
0.0
 10
45.41333132604439
 20
-12.0249017349236
 30
0.0
 10
45.47491115167066
 20
-11.91933155002922
 30
0.0
 10
45.51999114069421
 20
-11.80637592613491
 30
0.0
 10
45.54647850835642
 20
-11.68719328396104
 30
0.0
 10
45.55003021357881
 20
-11.60563879988222
 30
0.0
 10
45.55182423766797
 20
-11.5644443031953
 30
0.0
  0
SPLINE
  5
75
330
1F
100
AcDbEntity
  8
0
  6
Continuous
 62
     7
370
    25
100
AcDbSpline
210
0.0
220
0.0
230
1.0
 70
     8
 71
     3
 72
    23
 73
    19
 74
     0
 42
0.000000001
 43
0.00000001
 40
0.0
 40
0.0
 40
0.0
 40
0.0
 40
0.0700437554181555
 40
0.1392383167626454
 40
0.2081974550441382
 40
0.2791733744245676
 40
0.3499868116864772
 40
0.4183538456626573
 40
0.4876095837571514
 40
0.5574110731083887
 40
0.5953301567632422
 40
0.6379640515652211
 40
0.6859127777112949
 40
0.7381851646524803
 40
0.7961026471849435
 40
0.8585165439469266
 40
0.9266577264685212
 40
1.0
 40
1.0
 40
1.0
 40
1.0
 10
45.55182423766797
 20
-11.5644443031953
 30
0.0
 10
45.55002045696006
 20
-11.52424642683979
 30
0.0
 10
45.54643476415876
 20
-11.44433802376001
 30
0.0
 10
45.51978353107211
 20
-11.32722550860328
 30
0.0
 10
45.47499879698132
 20
-11.21546021662216
 30
0.0
 10
45.4129179476744
 20
-11.11121295183155
 30
0.0
 10
45.33757347630208
 20
-11.01665751759547
 30
0.0
 10
45.25000298614779
 20
-10.93451876464853
 30
0.0
 10
45.150412612814
 20
-10.86848776074695
 30
0.0
 10
45.05777228276722
 20
-10.82586878696311
 30
0.0
 10
44.97548487415656
 20
-10.79984696491576
 30
0.0
 10
44.90401064575117
 20
-10.78164004997686
 30
0.0
 10
44.82330968219925
 20
-10.76710346962696
 30
0.0
 10
44.73335571147017
 20
-10.75533275134669
 30
0.0
 10
44.63484594878385
 20
-10.74525637817045
 30
0.0
 10
44.52693407036298
 20
-10.73841926783618
 30
0.0
 10
44.41002886569952
 20
-10.73441718749827
 30
0.0
 10
44.32887090732103
 20
-10.73421867998873
 30
0.0
 10
44.28680019920643
 20
-10.73411577755428
 30
0.0
  0
SPLINE
  5
78
330
1F
100
AcDbEntity
  8
0
  6
Continuous
 62
     7
370
    25
100
AcDbSpline
210
0.0
220
0.0
230
1.0
 70
     8
 71
     3
 72
    23
 73
    19
 74
     0
 42
0.000000001
 43
0.00000001
 40
0.0
 40
0.0
 40
0.0
 40
0.0
 40
0.0725383714064926
 40
0.1400338305012499
 40
0.2024956806336218
 40
0.2605750556694147
 40
0.3132283378464654
 40
0.3615831937532657
 40
0.4048783612951255
 40
0.4441274373055402
 40
0.5163996933371977
 40
0.5865066709977669
 40
0.6550853737960485
 40
0.7243837831470357
 40
0.7939735287256625
 40
0.8616376821817775
 40
0.9301109423064041
 40
1.0
 40
1.0
 40
1.0
 40
1.0
 10
40.14517359664231
 20
-12.41180007242607
 30
0.0
 10
40.18791634780354
 20
-12.41182216327056
 30
0.0
 10
40.27043034770749
 20
-12.4118648091904
 30
0.0
 10
40.38962495232639
 20
-12.40617163279151
 30
0.0
 10
40.50020964847362
 20
-12.39959944327095
 30
0.0
 10
40.6018447561498
 20
-12.38997669546809
 30
0.0
 10
40.69457609112595
 20
-12.37637489906211
 30
0.0
 10
40.77855827523231
 20
-12.36264384489333
 30
0.0
 10
40.85314010793931
 20
-12.34277904118114
 30
0.0
 10
40.94042468189055
 20
-12.31603179955383
 30
0.0
 10
41.03768660685736
 20
-12.27041377718098
 30
0.0
 10
41.14349739046193
 20
-12.20419964853303
 30
0.0
 10
41.23316965667802
 20
-12.11979863681859
 30
0.0
 10
41.31076722348028
 20
-12.0249017349236
 30
0.0
 10
41.37234704910654
 20
-11.91933155002922
 30
0.0
 10
41.41742703813009
 20
-11.80637592613491
 30
0.0
 10
41.44391440579229
 20
-11.68719328396104
 30
0.0
 10
41.44746611101468
 20
-11.60563879988222
 30
0.0
 10
41.44926013510385
 20
-11.5644443031953
 30
0.0
  0
SPLINE
  5
7A
330
1F
100
AcDbEntity
  8
0
  6
Continuous
 62
     7
370
    25
100
AcDbSpline
210
0.0
220
0.0
230
1.0
 70
     8
 71
     3
 72
    23
 73
    19
 74
     0
 42
0.000000001
 43
0.00000001
 40
0.0
 40
0.0
 40
0.0
 40
0.0
 40
0.0700437554181555
 40
0.1392383167626454
 40
0.2081974550441382
 40
0.2791733744245676
 40
0.3499868116864772
 40
0.4183538456626573
 40
0.4876095837571514
 40
0.5574110731083887
 40
0.5953301567632422
 40
0.6379640515652211
 40
0.6859127777112949
 40
0.7381851646524803
 40
0.7961026471849435
 40
0.8585165439469266
 40
0.9266577264685212
 40
1.0
 40
1.0
 40
1.0
 40
1.0
 10
41.44926013510385
 20
-11.5644443031953
 30
0.0
 10
41.44745635439594
 20
-11.52424642683979
 30
0.0
 10
41.44387066159464
 20
-11.44433802376001
 30
0.0
 10
41.41721942850798
 20
-11.32722550860328
 30
0.0
 10
41.3724346944172
 20
-11.21546021662216
 30
0.0
 10
41.31035384511028
 20
-11.11121295183155
 30
0.0
 10
41.23500937373796
 20
-11.01665751759547
 30
0.0
 10
41.14743888358366
 20
-10.93451876464853
 30
0.0
 10
41.04784851024989
 20
-10.86848776074695
 30
0.0
 10
40.9552081802031
 20
-10.82586878696311
 30
0.0
 10
40.87292077159245
 20
-10.79984696491576
 30
0.0
 10
40.80144654318705
 20
-10.78164004997686
 30
0.0
 10
40.72074557963513
 20
-10.76710346962696
 30
0.0
 10
40.63079160890604
 20
-10.75533275134669
 30
0.0
 10
40.53228184621975
 20
-10.74525637817045
 30
0.0
 10
40.42436996779886
 20
-10.73841926783618
 30
0.0
 10
40.30746476313539
 20
-10.73441718749827
 30
0.0
 10
40.2263068047569
 20
-10.73421867998873
 30
0.0
 10
40.18423609664231
 20
-10.73411577755428
 30
0.0
  0
SPLINE
  5
85
330
1F
100
AcDbEntity
  8
0
  6
Continuous
 62
     7
370
    25
100
AcDbSpline
210
0.0
220
0.0
230
1.0
 70
     8
 71
     3
 72
    31
 73
    27
 74
     0
 42
0.000000001
 43
0.00000001
 40
0.0
 40
0.0
 40
0.0
 40
0.0
 40
0.0420341186638466
 40
0.0839054330862338
 40
0.1250689344486254
 40
0.1661584697031421
 40
0.20721027287073
 40
0.2484907320562544
 40
0.2898781122327928
 40
0.3321695142040874
 40
0.3744758421539223
 40
0.4162249804562084
 40
0.4576095869585071
 40
0.4990731704672239
 40
0.5405533615534486
 40
0.5822488491953589
 40
0.6245497501259986
 40
0.6674328009210346
 40
0.7103225433055322
 40
0.7524671185698675
 40
0.794064756843806
 40
0.8352157072950138
 40
0.8762283442246847
 40
0.9174461887061515
 40
0.9586431404713248
 40
1.0
 40
1.0
 40
1.0
 40
1.0
 10
53.91720885305256
 20
-19.11792988011838
 30
0.0
 10
53.91765385271732
 20
-19.0930700835477
 30
0.0
 10
53.91854212849852
 20
-19.04344677600605
 30
0.0
 10
53.92621439651406
 20
-18.96983587424539
 30
0.0
 10
53.93715855887751
 20
-18.89721064403805
 30
0.0
 10
53.95447950373116
 20
-18.82631966544486
 30
0.0
 10
53.97532738016906
 20
-18.75635559250483
 30
0.0
 10
54.00114758521814
 20
-18.68783520129499
 30
0.0
 10
54.03219223607837
 20
-18.62073762206024
 30
0.0
 10
54.06734345008675
 20
-18.55501316653559
 30
0.0
 10
54.10684410093086
 20
-18.49154378230605
 30
0.0
 10
54.15015765590835
 20
-18.43126380010205
 30
0.0
 10
54.19733640527387
 20
-18.37461679559414
 30
0.0
 10
54.24772947580552
 20
-18.32103129113553
 30
0.0
 10
54.30195217612408
 20
-18.27102429694998
 30
0.0
 10
54.35997645527717
 20
-18.2247171841927
 30
0.0
 10
54.42123035263112
 20
-18.18133373310453
 30
0.0
 10
54.4859037097705
 20
-18.14180972982365
 30
0.0
 10
54.55299861421339
 20
-18.10685351852083
 30
0.0
 10
54.62081045803585
 20
-18.07495700687111
 30
0.0
 10
54.6902375166251
 20
-18.04964204727386
 30
0.0
 10
54.75998540755991
 20
-18.02733653381486
 30
0.0
 10
54.83128247735674
 20
-18.01153493791212
 30
0.0
 10
54.90325452903317
 20
-17.99934444483978
 30
0.0
 10
54.97614796139483
 20
-17.99191754110381
 30
0.0
 10
55.02496472857844
 20
-17.99099046826151
 30
0.0
 10
55.0494203915141
 20
-17.99052603396453
 30
0.0
  0
SPLINE
  5
86
330
1F
100
AcDbEntity
  8
0
  6
Continuous
 62
     7
370
    25
100
AcDbSpline
210
0.0
220
0.0
230
1.0
 70
     8
 71
     3
 72
    31
 73
    27
 74
     0
 42
0.000000001
 43
0.00000001
 40
0.0
 40
0.0
 40
0.0
 40
0.0
 40
0.0428647590311936
 40
0.0852222575672332
 40
0.12720228414374
 40
0.1690253126086028
 40
0.2108820330997103
 40
0.2529626777271211
 40
0.2956282851000513
 40
0.3385532936306117
 40
0.381463247717187
 40
0.4235815621432656
 40
0.465066165395451
 40
0.506312218841864
 40
0.5470395054616152
 40
0.5876758328931718
 40
0.6286747862975612
 40
0.6699464646027605
 40
0.7110355744560772
 40
0.7519958286352165
 40
0.792672607483504
 40
0.833446017885442
 40
0.874190607042243
 40
0.9154935830294668
 40
0.9574778068391482
 40
1.0
 40
1.0
 40
1.0
 40
1.0
 10
55.04100692997565
 20
-20.22129526473376
 30
0.0
 10
55.01594727047148
 20
-20.22085381347337
 30
0.0
 10
54.96612450685213
 20
-20.21997613507584
 30
0.0
 10
54.89210615208162
 20
-20.21229718299718
 30
0.0
 10
54.81918006208585
 20
-20.20115540388786
 30
0.0
 10
54.74751631611987
 20
-20.18479988475895
 30
0.0
 10
54.67701150491965
 20
-20.16380697629712
 30
0.0
 10
54.60778214024425
 20
-20.13756405736899
 30
0.0
 10
54.53926768890124
 20
-20.10789395599751
 30
0.0
 10
54.47271354787696
 20
-20.07294583876415
 30
0.0
 10
54.40878257867597
 20
-20.03406386145558
 30
0.0
 10
54.34795699141717
 20
-19.9919448122755
 30
0.0
 10
54.29055538648501
 20
-19.94680913663999
 30
0.0
 10
54.23712410981399
 20
-19.89821175967187
 30
0.0
 10
54.18773324857204
 20
-19.84622301730416
 30
0.0
 10
54.14171850452517
 20
-19.79139711470479
 30
0.0
 10
54.09984077846774
 20
-19.73296847926577
 30
0.0
 10
54.06124073054732
 20
-19.67200251566592
 30
0.0
 10
54.02776283022747
 20
-19.60809315239889
 30
0.0
 10
53.99837622580583
 20
-19.54262621346082
 30
0.0
 10
53.97282530719949
 20
-19.47574168104479
 30
0.0
 10
53.95245496285387
 20
-19.40721562734091
 30
0.0
 10
53.93689686576552
 20
-19.33709125402703
 30
0.0
 10
53.92531667120346
 20
-19.26548344070827
 30
0.0
 10
53.91874844406997
 20
-19.19217167988252
 30
0.0
 10
53.91772422346055
 20
-19.14278195200135
 30
0.0
 10
53.91720885305256
 20
-19.11792988011838
 30
0.0
  0
SPLINE
  5
87
330
1F
100
AcDbEntity
  8
0
  6
Continuous
 62
     7
370
    25
100
AcDbSpline
210
0.0
220
0.0
230
1.0
 70
     8
 71
     3
 72
    15
 73
    11
 74
     0
 42
0.000000001
 43
0.00000001
 40
0.0
 40
0.0
 40
0.0
 40
0.0
 40
0.1265607130145259
 40
0.2508952618879516
 40
0.3747192653150456
 40
0.4998264235934747
 40
0.6249635314328695
 40
0.749039474738743
 40
0.873180119941352
 40
1.0
 40
1.0
 40
1.0
 40
1.0
 10
55.91720885305257
 20
-19.80122314934915
 30
0.0
 10
55.88988218099328
 20
-19.83374469405528
 30
0.0
 10
55.83570950465845
 20
-19.89821573946658
 30
0.0
 10
55.74215465283027
 20
-19.9826971423464
 30
0.0
 10
55.63996872514746
 20
-20.05545668260472
 30
0.0
 10
55.52932568880266
 20
-20.11512979790171
 30
0.0
 10
55.41293576695227
 20
-20.1628567332811
 30
0.0
 10
55.29205956945165
 20
-20.19623641405491
 30
0.0
 10
55.16778066499354
 20
-20.21780204253237
 30
0.0
 10
55.08356453657237
 20
-20.22012259930602
 30
0.0
 10
55.04100692997565
 20
-20.22129526473376
 30
0.0
  0
SPLINE
  5
89
330
1F
100
AcDbEntity
  8
0
  6
Continuous
 62
     7
370
    25
100
AcDbSpline
210
0.0
220
0.0
230
1.0
 70
     8
 71
     3
 72
    15
 73
    11
 74
     0
 42
0.000000001
 43
0.00000001
 40
0.0
 40
0.0
 40
0.0
 40
0.0
 40
0.1247164867023081
 40
0.243805373915508
 40
0.3600615340644454
 40
0.4751119996584098
 40
0.5935250978119081
 40
0.7193501703843617
 40
0.8538547713042685
 40
0.9999999999999999
 40
0.9999999999999999
 40
0.9999999999999999
 40
0.9999999999999999
 10
54.22490116074488
 20
-20.37514141857992
 30
0.0
 10
54.24655448300667
 20
-20.4095178835277
 30
0.0
 10
54.28888406163849
 20
-20.4767196393829
 30
0.0
 10
54.36803990246717
 20
-20.56373091589845
 30
0.0
 10
54.45478818219355
 20
-20.6380909427734
 30
0.0
 10
54.55205648206593
 20
-20.6980144634003
 30
0.0
 10
54.66024952384429
 20
-20.74319428460178
 30
0.0
 10
54.77943239770385
 20
-20.77540168154689
 30
0.0
 10
54.91057493061951
 20
-20.79468419599521
 30
0.0
 10
55.00187625706211
 20
-20.79700816240123
 30
0.0
 10
55.0494203915141
 20
-20.79821834165684
 30
0.0
  0
SPLINE
  5
8B
330
1F
100
AcDbEntity
  8
0
  6
Continuous
 62
     7
370
    25
100
AcDbSpline
210
0.0
220
0.0
230
1.0
 70
     8
 71
     3
 72
    19
 73
    15
 74
     0
 42
0.000000001
 43
0.00000001
 40
0.0
 40
0.0
 40
0.0
 40
0.0
 40
0.096491423769117
 40
0.1884736749923102
 40
0.2768399149588135
 40
0.3621365621714281
 40
0.4434367545654587
 40
0.5201655209986248
 40
0.5927096635690027
 40
0.6629173343528159
 40
0.7354188002027054
 40
0.8148809699994175
 40
0.9030605557399858
 40
0.9999999999999999
 40
0.9999999999999999
 40
0.9999999999999999
 40
0.9999999999999999
 10
55.07526173766796
 20
-21.06744911088761
 30
0.0
 10
55.02993196515217
 20
-21.06671498019276
 30
0.0
 10
54.94139074066927
 20
-21.06528102570667
 30
0.0
 10
54.81230074693956
 20
-21.0485745270569
 30
0.0
 10
54.68969955843153
 20
-21.02495649299401
 30
0.0
 10
54.57520716697433
 20
-20.98920898359487
 30
0.0
 10
54.46954708394235
 20
-20.94546299239686
 30
0.0
 10
54.37344090491652
 20
-20.89523874700732
 30
0.0
 10
54.28775138418696
 20
-20.83764791089185
 30
0.0
 10
54.2105025216129
 20
-20.77207596724915
 30
0.0
 10
54.14078115863915
 20
-20.69410709727426
 30
0.0
 10
54.07518633865582
 20
-20.60222237373875
 30
0.0
 10
54.01204838849188
 20
-20.49502218303774
 30
0.0
 10
53.97504669889096
 20
-20.41634271456817
 30
0.0
 10
53.95567039151411
 20
-20.37514141857991
 30
0.0
  0
SPLINE
  5
8C
330
1F
100
AcDbEntity
  8
0
  6
Continuous
 62
     7
370
    25
100
AcDbSpline
210
0.0
220
0.0
230
1.0
 70
     8
 71
     3
 72
    23
 73
    19
 74
     0
 42
0.000000001
 43
0.00000001
 40
0.0
 40
0.0
 40
0.0
 40
0.0
 40
0.0613707062984607
 40
0.1209064680177776
 40
0.1794236650000297
 40
0.2376066874397817
 40
0.2959384682493717
 40
0.3542182268208574
 40
0.4135370665946777
 40
0.4740867825531855
 40
0.5351211890802711
 40
0.5969876649622251
 40
0.6600198335468064
 40
0.7242774964844972
 40
0.7900118502255398
 40
0.8577476843344458
 40
0.9278290322155465
 40
1.0
 40
1.0
 40
1.0
 40
1.0
 10
56.10651173766796
 20
-20.44124718781069
 30
0.0
 10
56.09692096160808
 20
-20.46587283488902
 30
0.0
 10
56.07802616751348
 20
-20.51438783806356
 30
0.0
 10
56.04263848169152
 20
-20.58316011302955
 30
0.0
 10
56.00300942144681
 20
-20.6479141614692
 30
0.0
 10
55.95774649233087
 20
-20.70828911973031
 30
0.0
 10
55.90705437458936
 20
-20.76398190175527
 30
0.0
 10
55.85212738131406
 20
-20.81620247256647
 30
0.0
 10
55.79189578866704
 20
-20.86384604461096
 30
0.0
 10
55.72639403534762
 20
-20.90609058528823
 30
0.0
 10
55.65713206403255
 20
-20.94413663170547
 30
0.0
 10
55.58414969083255
 20
-20.97709083214857
 30
0.0
 10
55.50785845794939
 20
-21.00579384096799
 30
0.0
 10
55.42754169372177
 20
-21.02729338016493
 30
0.0
 10
55.34445863560627
 20
-21.04592314065085
 30
0.0
 10
55.25763226610876
 20
-21.05804715704599
 30
0.0
 10
55.16756986884717
 20
-21.06629892115484
 30
0.0
 10
55.10633097163542
 20
-21.06706197799414
 30
0.0
 10
55.07526173766797
 20
-21.06744911088761
 30
0.0
  0
SPLINE
  5
8D
330
1F
100
AcDbEntity
  8
0
  6
Continuous
 62
     7
370
    25
100
AcDbSpline
210
0.0
220
0.0
230
1.0
 70
     8
 71
     3
 72
    15
 73
    11
 74
     0
 42
0.000000001
 43
0.00000001
 40
0.0
 40
0.0
 40
0.0
 40
0.0
 40
0.1634452548497626
 40
0.3154887127129221
 40
0.4562908239366656
 40
0.5858641495747732
 40
0.7054286858067547
 40
0.8133707129824352
 40
0.9117182381600982
 40
1.0
 40
1.0
 40
1.0
 40
1.0
 10
56.18643962228334
 20
-19.76877122627223
 30
0.0
 10
56.18620215722257
 20
-19.8058320216495
 30
0.0
 10
56.18574379245447
 20
-19.87736828396829
 30
0.0
 10
56.18244295995051
 20
-19.98080680935079
 30
0.0
 10
56.17548237947592
 20
-20.07634916837813
 30
0.0
 10
56.16758922402999
 20
-20.16443110431174
 30
0.0
 10
56.1562348957561
 20
-20.24464434150601
 30
0.0
 10
56.14236943812318
 20
-20.31722823122657
 30
0.0
 10
56.12673885599283
 20
-20.38225242754166
 30
0.0
 10
56.11300724103199
 20
-20.42230229127955
 30
0.0
 10
56.10651173766795
 20
-20.44124718781068
 30
0.0
  0
SPLINE
  5
91
330
1F
100
AcDbEntity
  8
0
  6
Continuous
 62
     7
370
    25
100
AcDbSpline
210
0.0
220
0.0
230
1.0
 70
     8
 71
     3
 72
    15
 73
    11
 74
     0
 42
0.000000001
 43
0.00000001
 40
0.0
 40
0.0
 40
0.0
 40
0.0
 40
0.1209110787487145
 40
0.2387622286387228
 40
0.3547548590848634
 40
0.4703593994502172
 40
0.5891440987928738
 40
0.7163289048363456
 40
0.8524452858576004
 40
1.0
 40
1.0
 40
1.0
 40
1.0
 10
55.0494203915141
 20
-17.99052603396453
 30
0.0
 10
55.08974976778222
 20
-17.99168889677779
 30
0.0
 10
55.16938789405678
 20
-17.99398519352552
 30
0.0
 10
55.28658589613834
 20
-18.0120033181397
 30
0.0
 10
55.39967924469002
 20
-18.04072961529826
 30
0.0
 10
55.5093061152703
 20
-18.08188587002127
 30
0.0
 10
55.6163595304142
 20
-18.13807161716558
 30
0.0
 10
55.72048666353711
 20
-18.21207985831725
 30
0.0
 10
55.82198877854416
 20
-18.30457443523036
 30
0.0
 10
55.88462691901362
 20
-18.37550546183083
 30
0.0
 10
55.91720885305257
 20
-18.41240103396453
 30
0.0
  0
SPLINE
  5
92
330
1F
100
AcDbEntity
  8
0
  6
Continuous
 62
     7
370
    25
100
AcDbSpline
210
0.0
220
0.0
230
1.0
 70
     8
 71
     3
 72
    15
 73
    11
 74
     0
 42
0.000000001
 43
0.00000001
 40
0.0
 40
0.0
 40
0.0
 40
0.0
 40
0.1288840014739257
 40
0.2529849718578379
 40
0.3742104371825993
 40
0.4941015128996893
 40
0.6147527632399906
 40
0.7385110703733303
 40
0.8662425140769293
 40
1.0
 40
1.0
 40
1.0
 40
1.0
 10
41.41480500689872
 20
-17.99052603396453
 30
0.0
 10
41.459562270665
 20
-17.99186925913767
 30
0.0
 10
41.54741580550917
 20
-17.99450586087831
 30
0.0
 10
41.67590025253459
 20
-18.01653988973908
 30
0.0
 10
41.79743249013801
 20
-18.05353664214782
 30
0.0
 10
41.91271219368317
 20
-18.10418631183967
 30
0.0
 10
42.02105210244016
 20
-18.17001552722807
 30
0.0
 10
42.12324636580203
 20
-18.24951676823766
 30
0.0
 10
42.2175177854411
 20
-18.34494003631064
 30
0.0
 10
42.27329363333273
 20
-18.41660709927571
 30
0.0
 10
42.30182423766794
 20
-18.45326641857991
 30
0.0
  0
SPLINE
  5
93
330
1F
100
AcDbEntity
  8
0
  6
Continuous
 62
     7
370
    25
100
AcDbSpline
210
0.0
220
0.0
230
1.0
 70
     8
 71
     3
 72
    23
 73
    19
 74
     0
 42
0.000000001
 43
0.00000001
 40
0.0
 40
0.0
 40
0.0
 40
0.0
 40
0.0637745323056333
 40
0.126078809989506
 40
0.1869040927472086
 40
0.2475739349176196
 40
0.3080033561644461
 40
0.3691318984609775
 40
0.4320332277442046
 40
0.4967907944370895
 40
0.5616108232295648
 40
0.6249138657484603
 40
0.686726349241923
 40
0.7480788332577697
 40
0.8095822911398934
 40
0.8716307425688279
 40
0.9348858208285525
 40
1.0
 40
1.0
 40
1.0
 40
1.0
 10
40.2633626992064
 20
-19.1191318031953
 30
0.0
 10
40.26443667467917
 20
-19.08102005727865
 30
0.0
 10
40.26655986625216
 20
-19.00567519157636
 30
0.0
 10
40.28237691182952
 20
-18.89486487901705
 30
0.0
 10
40.3089749192517
 20
-18.78813494124571
 30
0.0
 10
40.34630164582244
 20
-18.68582898991106
 30
0.0
 10
40.39416617864799
 20
-18.58782323264084
 30
0.0
 10
40.45239025323727
 20
-18.4940483540566
 30
0.0
 10
40.52097807440772
 20
-18.40424601337486
 30
0.0
 10
40.60005156613605
 20
-18.32052781895876
 30
0.0
 10
40.68570994056116
 20
-18.24319586387072
 30
0.0
 10
40.77734599563148
 20
-18.17598811063432
 30
0.0
 10
40.8726802367636
 20
-18.11794509736344
 30
0.0
 10
40.97319138863995
 20
-18.07195640338658
 30
0.0
 10
41.07739176419479
 20
-18.03474859949133
 30
0.0
 10
41.18620900340673
 20
-18.00900605540517
 30
0.0
 10
41.2991903565572
 20
-17.99383692291373
 30
0.0
 10
41.3758964926126
 20
-17.99164026792709
 30
0.0
 10
41.41480500689872
 20
-17.99052603396453
 30
0.0
  0
SPLINE
  5
94
330
1F
100
AcDbEntity
  8
0
  6
Continuous
 62
     7
370
    25
100
AcDbSpline
210
0.0
220
0.0
230
1.0
 70
     8
 71
     3
 72
    23
 73
    19
 74
     0
 42
0.000000001
 43
0.00000001
 40
0.0
 40
0.0
 40
0.0
 40
0.0
 40
0.0646199913407686
 40
0.1274334841444676
 40
0.1890041265579403
 40
0.2499300706860463
 40
0.3106684537406695
 40
0.3723289611368225
 40
0.4349391099970068
 40
0.4995755441940325
 40
0.5641912077719222
 40
0.6267352169294784
 40
0.6881093335614001
 40
0.7492936065367521
 40
0.8103305278109451
 40
0.8719011702244158
 40
0.9350459146845317
 40
1.0
 40
1.0
 40
1.0
 40
1.0
 10
41.40639154536025
 20
-20.2597568031953
 30
0.0
 10
41.36767615636094
 20
-20.2587056269646
 30
0.0
 10
41.29132769502837
 20
-20.25663266089406
 30
0.0
 10
41.17901705748073
 20
-20.2405506863641
 30
0.0
 10
41.07093798652131
 20
-20.21472443924233
 30
0.0
 10
40.96698835281121
 20
-20.17880939110653
 30
0.0
 10
40.86784079958197
 20
-20.13116868684522
 30
0.0
 10
40.7726464310057
 20
-20.07413333138115
 30
0.0
 10
40.68189840927503
 20
-20.00621261988345
 30
0.0
 10
40.59697994730601
 20
-19.92856573843812
 30
0.0
 10
40.51878108984096
 20
-19.84422717799503
 30
0.0
 10
40.45015714187909
 20
-19.75427385210206
 30
0.0
 10
40.39294021628933
 20
-19.65909473447978
 30
0.0
 10
40.34509443282589
 20
-19.55989488828943
 30
0.0
 10
40.30824042330531
 20
-19.45591067154599
 30
0.0
 10
40.2825487367985
 20
-19.34750167045475
 30
0.0
 10
40.26648549676936
 20
-19.23479606456345
 30
0.0
 10
40.26441338761083
 20
-19.15804790191007
 30
0.0
 10
40.2633626992064
 20
-19.1191318031953
 30
0.0
  0
SPLINE
  5
95
330
1F
100
AcDbEntity
  8
0
  6
Continuous
 62
     7
370
    25
100
AcDbSpline
210
0.0
220
0.0
230
1.0
 70
     8
 71
     3
 72
    15
 73
    11
 74
     0
 42
0.000000001
 43
0.00000001
 40
0.0
 40
0.0
 40
0.0
 40
0.0
 40
0.1342983790141629
 40
0.2620849753822993
 40
0.3862699121344983
 40
0.5071645966227998
 40
0.6273002357255043
 40
0.7481449416029898
 40
0.8723701771613497
 40
1.0
 40
1.0
 40
1.0
 40
1.0
 10
42.30182423766794
 20
-19.84208853396453
 30
0.0
 10
42.2714652742741
 20
-19.87640818592839
 30
0.0
 10
42.21221937546196
 20
-19.94338341828863
 30
0.0
 10
42.11326984577209
 20
-20.03088242328069
 30
0.0
 10
42.00838283614141
 20
-20.10320669888646
 30
0.0
 10
41.89806741802937
 20
-20.16162091234393
 30
0.0
 10
41.78242320944827
 20
-20.20549981777595
 30
0.0
 10
41.66170656321147
 20
-20.2366879541695
 30
0.0
 10
41.53586823675532
 20
-20.25673981288857
 30
0.0
 10
41.44993764693532
 20
-20.25874211734774
 30
0.0
 10
41.40639154536025
 20
-20.2597568031953
 30
0.0
  0
SPLINE
  5
9D
330
1F
100
AcDbEntity
  8
0
  6
Continuous
 62
     7
370
    25
100
AcDbSpline
210
0.0
220
0.0
230
1.0
 70
     8
 71
     3
 72
    15
 73
    11
 74
     0
 42
0.000000001
 43
0.00000001
 40
0.0
 40
0.0
 40
0.0
 40
0.0
 40
0.0751731173762237
 40
0.164746257511804
 40
0.2680168809877824
 40
0.3859118756529578
 40
0.5177894792733974
 40
0.6636909770022785
 40
0.8244132205366401
 40
1.0
 40
1.0
 40
1.0
 40
1.0
 10
40.90038192997564
 20
-12.83147154678504
 30
0.0
 10
40.86905716713078
 20
-12.83813294832489
 30
0.0
 10
40.80040712804418
 20
-12.85273179711256
 30
0.0
 10
40.68734609636167
 20
-12.86902959260524
 30
0.0
 10
40.55570983074767
 20
-12.88294045072732
 30
0.0
 10
40.40567800229685
 20
-12.89337064727169
 30
0.0
 10
40.23738528098031
 20
-12.90229974507455
 30
0.0
 10
40.0507406276521
 20
-12.90939702206123
 30
0.0
 10
39.84537766025309
 20
-12.91329681325432
 30
0.0
 10
39.70213302585601
 20
-12.91349794582359
 30
0.0
 10
39.62734507100128
 20
-12.91360295704146
 30
0.0
  0
SPLINE
  5
9E
330
1F
100
AcDbEntity
  8
0
  6
Continuous
 62
     7
370
    25
100
AcDbSpline
210
0.0
220
0.0
230
1.0
 70
     8
 71
     3
 72
    23
 73
    19
 74
     0
 42
0.000000001
 43
0.00000001
 40
0.0
 40
0.0
 40
0.0
 40
0.0
 40
0.0701188944197149
 40
0.137192352785971
 40
0.2020161807247515
 40
0.264631406974743
 40
0.3261165471458173
 40
0.3860103046676395
 40
0.4458118469576799
 40
0.5052976967309601
 40
0.5646332777264881
 40
0.6242826253338425
 40
0.6839020319037502
 40
0.7439527709382721
 40
0.8053877310076346
 40
0.8683880308962799
 40
0.9330840282524759
 40
1.0
 40
1.0
 40
1.0
 40
1.0
 10
41.8979780838218
 20
-11.5624410980671
 30
0.0
 10
41.89737604849471
 20
-11.6035522077635
 30
0.0
 10
41.89619812571559
 20
-11.68398887054274
 30
0.0
 10
41.88206057524584
 20
-11.80166428224088
 30
0.0
 10
41.86301744436192
 20
-11.91411912528601
 30
0.0
 10
41.8337359410374
 20
-12.02110405452805
 30
0.0
 10
41.79538497946822
 20
-12.12198372662913
 30
0.0
 10
41.75039633254583
 20
-12.21829977237306
 30
0.0
 10
41.69613414630329
 20
-12.30841358937105
 30
0.0
 10
41.633784389574
 20
-12.39265232871627
 30
0.0
 10
41.56442496901273
 20
-12.47109506059365
 30
0.0
 10
41.48834934308807
 20
-12.54317333844037
 30
0.0
 10
41.40586463951625
 20
-12.60846525047256
 30
0.0
 10
41.31723299940717
 20
-12.66711717001597
 30
0.0
 10
41.22159035821212
 20
-12.7177689978698
 30
0.0
 10
41.12038728168218
 20
-12.76313657633485
 30
0.0
 10
41.01274411536516
 20
-12.8012380915327
 30
0.0
 10
40.93825480968606
 20
-12.82128103642756
 30
0.0
 10
40.90038192997564
 20
-12.83147154678504
 30
0.0
  0
SPLINE
  5
9F
330
1F
100
AcDbEntity
  8
0
  6
Continuous
 62
     7
370
    25
100
AcDbSpline
210
0.0
220
0.0
230
1.0
 70
     8
 71
     3
 72
    23
 73
    19
 74
     0
 42
0.000000001
 43
0.00000001
 40
0.0
 40
0.0
 40
0.0
 40
0.0
 40
0.0624813386352062
 40
0.1234903826872908
 40
0.1834110942063122
 40
0.2431532209997802
 40
0.3021267353720861
 40
0.3617096708329069
 40
0.4218422916948791
 40
0.4829319014466675
 40
0.544552254431323
 40
0.6056807199653579
 40
0.6676797383436869
 40
0.7299843875380619
 40
0.7945509212861295
 40
0.8603456197120823
 40
0.9289073562657081
 40
1.0
 40
1.0
 40
1.0
 40
1.0
 10
40.94044603253975
 20
-10.29641545704146
 30
0.0
 10
40.9750082236616
 20
-10.30587538537246
 30
0.0
 10
41.04331819110754
 20
-10.32457233065736
 30
0.0
 10
41.14174825268126
 20
-10.36202050705113
 30
0.0
 10
41.23539660336752
 20
-10.40642360015898
 30
0.0
 10
41.32458454400349
 20
-10.4570292285174
 30
0.0
 10
41.40821609124756
 20
-10.5160086059276
 30
0.0
 10
41.48753900691334
 20
-10.58097091698373
 30
0.0
 10
41.56185326447857
 20
-10.65341601494435
 30
0.0
 10
41.63074096717028
 20
-10.73253135758354
 30
0.0
 10
41.69400496371875
 20
-10.81698880027139
 30
0.0
 10
41.74847593904332
 20
-10.90804912871065
 30
0.0
 10
41.79408626337654
 20
-11.00417956216757
 30
0.0
 10
41.8332052226396
 20
-11.10531323524948
 30
0.0
 10
41.86136015759565
 20
-11.21229941166568
 30
0.0
 10
41.88257001431766
 20
-11.32439471505737
 30
0.0
 10
41.8960323394829
 20
-11.44158712963093
 30
0.0
 10
41.89732171341882
 20
-11.52167265466074
 30
0.0
 10
41.8979780838218
 20
-11.5624410980671
 30
0.0
  0
SPLINE
  5
A0
330
1F
100
AcDbEntity
  8
0
  6
Continuous
 62
     7
370
    25
100
AcDbSpline
210
0.0
220
0.0
230
1.0
 70
     8
 71
     3
 72
    15
 73
    11
 74
     0
 42
0.000000001
 43
0.00000001
 40
0.0
 40
0.0
 40
0.0
 40
0.0
 40
0.1769557521312513
 40
0.3390550796425779
 40
0.486318224942078
 40
0.6187809228353788
 40
0.7356188277673772
 40
0.8387424767201109
 40
0.9264570678763164
 40
0.9999999999999999
 40
0.9999999999999999
 40
0.9999999999999999
 40
0.9999999999999999
 10
39.80162391715513
 20
-10.22129526473377
 30
0.0
 10
39.86906806880035
 20
-10.22136940222068
 30
0.0
 10
39.99829405852991
 20
-10.22151145293805
 30
0.0
 10
40.1836012809712
 20
-10.22581823268898
 30
0.0
 10
40.35190089758024
 20
-10.23157064996435
 30
0.0
 10
40.50283001318986
 20
-10.23954478309738
 30
0.0
 10
40.63685301045638
 20
-10.24896848345096
 30
0.0
 10
40.75336343838004
 20
-10.26218568256157
 30
0.0
 10
40.85327709028554
 20
-10.27598610478061
 30
0.0
 10
40.9131434466377
 20
-10.29001668552261
 30
0.0
 10
40.94044603253975
 20
-10.29641545704146
 30
0.0
  0
SPLINE
  5
A4
330
1F
100
AcDbEntity
  8
0
  6
Continuous
 62
     7
370
    25
100
AcDbSpline
210
0.0
220
0.0
230
1.0
 70
     8
 71
     3
 72
    23
 73
    19
 74
     0
 42
0.000000001
 43
0.00000001
 40
0.0
 40
0.0
 40
0.0
 40
0.0
 40
0.0652265038922758
 40
0.1285689957067289
 40
0.1903203781044671
 40
0.2513779886240625
 40
0.3123875283336944
 40
0.3737887042767239
 40
0.43643115978045
 40
0.5005667553098543
 40
0.5646867953847436
 40
0.6271355178835138
 40
0.6884554088949795
 40
0.749245746463748
 40
0.8101551773646786
 40
0.8716709256529245
 40
0.9347734961077248
 40
1.0
 40
1.0
 40
1.0
 40
1.0
 10
52.02618321202693
 20
-12.71929205960556
 30
0.0
 10
52.02396902270682
 20
-12.80923126868637
 30
0.0
 10
52.0196045990415
 20
-12.98651186930348
 30
0.0
 10
51.98222063113358
 20
-13.24671678954735
 30
0.0
 10
51.92359063117068
 20
-13.49684635595052
 30
0.0
 10
51.83988167948127
 20
-13.73648300277186
 30
0.0
 10
51.73241671024797
 20
-13.96587952243615
 30
0.0
 10
51.60005218006093
 20
-14.18443231369594
 30
0.0
 10
51.44413616471498
 20
-14.39221302567582
 30
0.0
 10
51.266697806096
 20
-14.58694540456679
 30
0.0
 10
51.0732677460759
 20
-14.76551321984337
 30
0.0
 10
50.86579593634883
 20
-14.92111161367719
 30
0.0
 10
50.64894833646022
 20
-15.05500322024702
 30
0.0
 10
50.41993446766116
 20
-15.16183704019737
 30
0.0
 10
50.18179155790908
 20
-15.24722549797606
 30
0.0
 10
49.9323882392112
 20
-15.30544354087802
 30
0.0
 10
49.67289316201066
 20
-15.34299645980955
 30
0.0
 10
49.49593458514983
 20
-15.3473086254712
 30
0.0
 10
49.40599090433462
 20
-15.34950039293889
 30
0.0
  0
SPLINE
  5
A5
330
1F
100
AcDbEntity
  8
0
  6
Continuous
 62
     7
370
    25
100
AcDbSpline
210
0.0
220
0.0
230
1.0
 70
     8
 71
     3
 72
    23
 73
    19
 74
     0
 42
0.000000001
 43
0.00000001
 40
0.0
 40
0.0
 40
0.0
 40
0.0
 40
0.0665700352151794
 40
0.1307490414821778
 40
0.1934128000295043
 40
0.2549893988897093
 40
0.316113555875901
 40
0.3772617579089845
 40
0.4394007841555527
 40
0.5029705893719765
 40
0.5665249763607315
 40
0.6282311025133084
 40
0.6890906105998625
 40
0.7493446689958045
 40
0.8101695933722065
 40
0.8716098243170436
 40
0.9348691840727639
 40
1.0
 40
1.0
 40
1.0
 40
1.0
 10
49.36592680177051
 20
-10.09309013652864
 30
0.0
 10
49.45850981021056
 20
-10.09543510705873
 30
0.0
 10
49.64035047729062
 20
-10.10004082265016
 30
0.0
 10
49.90760033118207
 20
-10.13529668487214
 30
0.0
 10
50.16273618158854
 20
-10.19629009911081
 30
0.0
 10
50.40783637987685
 20
-10.27752293122615
 30
0.0
 10
50.6399692035471
 20
-10.38588633891296
 30
0.0
 10
50.86088190710507
 20
-10.51686512225513
 30
0.0
 10
51.07004886971304
 20
-10.67183149190979
 30
0.0
 10
51.26465084332508
 20
-10.84958753026923
 30
0.0
 10
51.4427322008725
 20
-11.04299246441433
 30
0.0
 10
51.59962632411431
 20
-11.24938947880421
 30
0.0
 10
51.73111531515963
 20
-11.4675306249566
 30
0.0
 10
51.83909501111
 20
-11.6967603830162
 30
0.0
 10
51.92380731067259
 20
-11.9365603372657
 30
0.0
 10
51.98226308737344
 20
-12.18820891261052
 30
0.0
 10
52.01960330187764
 20
-12.45007561271346
 30
0.0
 10
52.02396869817402
 20
-12.62868541946167
 30
0.0
 10
52.02618321202693
 20
-12.71929205960556
 30
0.0
  0
SPLINE
  5
A6
330
1F
100
AcDbEntity
  8
0
  6
Continuous
 62
     7
370
    25
100
AcDbSpline
210
0.0
220
0.0
230
1.0
 70
     8
 71
     3
 72
    31
 73
    27
 74
     0
 42
0.000000001
 43
0.00000001
 40
0.0
 40
0.0
 40
0.0
 40
0.0
 40
0.0432089861713365
 40
0.0858728716306186
 40
0.1281200066967024
 40
0.1701519644541987
 40
0.211917620987861
 40
0.2537530026191236
 40
0.2960064088559502
 40
0.3384433571447837
 40
0.3810153681620334
 40
0.4228204794407603
 40
0.4640890557943136
 40
0.5051258486836859
 40
0.5459749706852407
 40
0.5869852111338593
 40
0.6283385916346631
 40
0.670083801591206
 40
0.7119916023637222
 40
0.7530391548630192
 40
0.7940493953116375
 40
0.8348855427015818
 40
0.8754983129295136
 40
0.9165472998303791
 40
0.9580037786449604
 40
1.0
 40
1.0
 40
1.0
 40
1.0
 10
46.76977295561667
 20
-12.74333052114402
 30
0.0
 10
46.77053672062399
 20
-12.68385527952023
 30
0.0
 10
46.77205461540098
 20
-12.56565510308221
 30
0.0
 10
46.79032846178497
 20
-12.39013138857887
 30
0.0
 10
46.8168451777946
 20
-12.21743044891174
 30
0.0
 10
46.85484791000802
 20
-12.04804338039129
 30
0.0
 10
46.90455029141729
 20
-11.88238483081657
 30
0.0
 10
46.96319604483197
 20
-11.71931231247894
 30
0.0
 10
47.03482439534268
 20
-11.56047842141405
 30
0.0
 10
47.11579674968392
 20
-11.40513071896958
 30
0.0
 10
47.20617076114508
 20
-11.25569085348917
 30
0.0
 10
47.30599326036221
 20
-11.11443430613042
 30
0.0
 10
47.41175807245916
 20
-10.98017573929864
 30
0.0
 10
47.5277057776421
 20
-10.85639430524287
 30
0.0
 10
47.65001498506419
 20
-10.73948908182868
 30
0.0
 10
47.78066981097024
 20
-10.63125662894264
 30
0.0
 10
47.91887301720673
 20
-10.53072098471901
 30
0.0
 10
48.06521927401472
 20
-10.44012049746124
 30
0.0
 10
48.21610252384266
 20
-10.35817887658148
 30
0.0
 10
48.37164077781319
 20
-10.28786194660613
 30
0.0
 10
48.52972159424984
 20
-10.2275104301625
 30
0.0
 10
48.69108537700053
 20
-10.1785949655953
 30
0.0
 10
48.85530362282959
 20
-10.13997777132102
 30
0.0
 10
49.02273474364797
 20
-10.11368155173694
 30
0.0
 10
49.19324535261862
 20
-10.09536109761197
 30
0.0
 10
49.30811866540431
 20
-10.09385038048439
 30
0.0
 10
49.36592680177051
 20
-10.09309013652864
 30
0.0
  0
SPLINE
  5
A7
330
1F
100
AcDbEntity
  8
0
  6
Continuous
 62
     7
370
    25
100
AcDbSpline
210
0.0
220
0.0
230
1.0
 70
     8
 71
     3
 72
    23
 73
    19
 74
     0
 42
0.000000001
 43
0.00000001
 40
0.0
 40
0.0
 40
0.0
 40
0.0
 40
0.0658188768433069
 40
0.1297465269068314
 40
0.1920719544880055
 40
0.2534594242982032
 40
0.3145695877964208
 40
0.3762798811880261
 40
0.4390256536685603
 40
0.5032670288290858
 40
0.5674928228792945
 40
0.6297047956052448
 40
0.6909996492157556
 40
0.7514516509174466
 40
0.8120043642646944
 40
0.8731496810680426
 40
0.9356354837317855
 40
1.0
 40
1.0
 40
1.0
 40
1.0
 10
49.40599090433462
 20
-15.34950039293889
 30
0.0
 10
49.31538473436378
 20
-15.34728698314705
 30
0.0
 10
49.13677585445183
 20
-15.34292376324895
 30
0.0
 10
48.87458008962364
 20
-15.3055217563889
 30
0.0
 10
48.62275474126962
 20
-15.24703417953001
 30
0.0
 10
48.38201995382345
 20
-15.16344927064639
 30
0.0
 10
48.15224148296846
 20
-15.05542465532518
 30
0.0
 10
47.93296993626195
 20
-14.92370411380371
 30
0.0
 10
47.72508544020246
 20
-14.76740819783141
 30
0.0
 10
47.53031151665311
 20
-14.59002737700142
 30
0.0
 10
47.3520983763925
 20
-14.39692515983601
 30
0.0
 10
47.19672783968837
 20
-14.19001908115287
 30
0.0
 10
47.0649776778038
 20
-13.97336842880507
 30
0.0
 10
46.95731577423913
 20
-13.74637196578693
 30
0.0
 10
46.87208083231813
 20
-13.51012704764156
 30
0.0
 10
46.8139310921194
 20
-13.26305779408519
 30
0.0
 10
46.77630830344964
 20
-13.00657278577834
 30
0.0
 10
46.77197280847576
 20
-12.83194007388505
 30
0.0
 10
46.76977295561667
 20
-12.74333052114402
 30
0.0
  0
SPLINE
  5
B4
330
1F
100
AcDbEntity
  8
0
  6
Continuous
 62
     7
370
    25
100
AcDbSpline
210
0.0
220
0.0
230
1.0
 70
     8
 71
     3
 72
    23
 73
    19
 74
     0
 42
0.000000001
 43
0.00000001
 40
0.0
 40
0.0
 40
0.0
 40
0.0
 40
0.0652265038922758
 40
0.1285689957067289
 40
0.1903203781044671
 40
0.2513779886240629
 40
0.3123875283336944
 40
0.3737887042767236
 40
0.4364311597804499
 40
0.5005667553098543
 40
0.5646867953847436
 40
0.6271355178835138
 40
0.6884554088949795
 40
0.749245746463748
 40
0.8101551773646786
 40
0.8716709256529245
 40
0.9347734961077248
 40
1.0
 40
1.0
 40
1.0
 40
1.0
 10
37.7954139812577
 20
-12.71929205960556
 30
0.0
 10
37.79319979193758
 20
-12.80923126868637
 30
0.0
 10
37.78883536827227
 20
-12.98651186930347
 30
0.0
 10
37.75145140036435
 20
-13.24671678954735
 30
0.0
 10
37.69282140040146
 20
-13.49684635595052
 30
0.0
 10
37.60911244871203
 20
-13.73648300277185
 30
0.0
 10
37.50164747947875
 20
-13.96587952243615
 30
0.0
 10
37.36928294929169
 20
-14.18443231369594
 30
0.0
 10
37.21336693394578
 20
-14.39221302567582
 30
0.0
 10
37.03592857532675
 20
-14.58694540456678
 30
0.0
 10
36.84249851530668
 20
-14.76551321984337
 30
0.0
 10
36.6350267055796
 20
-14.92111161367719
 30
0.0
 10
36.41817910569099
 20
-15.05500322024702
 30
0.0
 10
36.18916523689192
 20
-15.16183704019737
 30
0.0
 10
35.95102232713985
 20
-15.24722549797606
 30
0.0
 10
35.70161900844198
 20
-15.30544354087802
 30
0.0
 10
35.44212393124143
 20
-15.34299645980954
 30
0.0
 10
35.26516535438061
 20
-15.3473086254712
 30
0.0
 10
35.17522167356539
 20
-15.34950039293889
 30
0.0
  0
SPLINE
  5
B5
330
1F
100
AcDbEntity
  8
0
  6
Continuous
 62
     7
370
    25
100
AcDbSpline
210
0.0
220
0.0
230
1.0
 70
     8
 71
     3
 72
    23
 73
    19
 74
     0
 42
0.000000001
 43
0.00000001
 40
0.0
 40
0.0
 40
0.0
 40
0.0
 40
0.0665700352151794
 40
0.1307490414821778
 40
0.1934128000295043
 40
0.2549893988897094
 40
0.3161135558759007
 40
0.3772617579089845
 40
0.4394007841555529
 40
0.5029705893719765
 40
0.5665249763607317
 40
0.6282311025133087
 40
0.6890906105998625
 40
0.7493446689958045
 40
0.8101695933722065
 40
0.8716098243170436
 40
0.9348691840727639
 40
1.0
 40
1.0
 40
1.0
 40
1.0
 10
35.13515757100129
 20
-10.09309013652863
 30
0.0
 10
35.22774057944133
 20
-10.09543510705873
 30
0.0
 10
35.40958124652141
 20
-10.10004082265017
 30
0.0
 10
35.67683110041282
 20
-10.13529668487213
 30
0.0
 10
35.93196695081934
 20
-10.19629009911081
 30
0.0
 10
36.17706714910759
 20
-10.27752293122614
 30
0.0
 10
36.4091999727779
 20
-10.38588633891296
 30
0.0
 10
36.63011267633586
 20
-10.51686512225513
 30
0.0
 10
36.83927963894381
 20
-10.6718314919098
 30
0.0
 10
37.03388161255585
 20
-10.84958753026923
 30
0.0
 10
37.21196297010327
 20
-11.04299246441432
 30
0.0
 10
37.3688570933451
 20
-11.24938947880422
 30
0.0
 10
37.50034608439039
 20
-11.4675306249566
 30
0.0
 10
37.60832578034077
 20
-11.69676038301621
 30
0.0
 10
37.69303807990335
 20
-11.9365603372657
 30
0.0
 10
37.75149385660421
 20
-12.18820891261052
 30
0.0
 10
37.78883407110842
 20
-12.45007561271345
 30
0.0
 10
37.79319946740479
 20
-12.62868541946166
 30
0.0
 10
37.7954139812577
 20
-12.71929205960556
 30
0.0
  0
SPLINE
  5
B6
330
1F
100
AcDbEntity
  8
0
  6
Continuous
 62
     7
370
    25
100
AcDbSpline
210
0.0
220
0.0
230
1.0
 70
     8
 71
     3
 72
    31
 73
    27
 74
     0
 42
0.000000001
 43
0.00000001
 40
0.0
 40
0.0
 40
0.0
 40
0.0
 40
0.0432089861713369
 40
0.0858728716306189
 40
0.1281200066967031
 40
0.170151964454199
 40
0.2119176209878613
 40
0.2537530026191239
 40
0.2960064088559504
 40
0.3384433571447839
 40
0.3810153681620339
 40
0.4228204794407607
 40
0.4640890557943135
 40
0.505125848683686
 40
0.5459749706852407
 40
0.5869852111338594
 40
0.6283385916346631
 40
0.670083801591206
 40
0.7119916023637223
 40
0.7530391548630193
 40
0.7940493953116377
 40
0.8348855427015817
 40
0.8754983129295135
 40
0.916547299830379
 40
0.9580037786449606
 40
1.0
 40
1.0
 40
1.0
 40
1.0
 10
32.53900372484744
 20
-12.74333052114402
 30
0.0
 10
32.53976748985475
 20
-12.68385527952023
 30
0.0
 10
32.54128538463173
 20
-12.56565510308221
 30
0.0
 10
32.55955923101575
 20
-12.39013138857887
 30
0.0
 10
32.58607594702536
 20
-12.21743044891174
 30
0.0
 10
32.6240786792388
 20
-12.04804338039129
 30
0.0
 10
32.67378106064807
 20
-11.88238483081657
 30
0.0
 10
32.73242681406273
 20
-11.71931231247893
 30
0.0
 10
32.80405516457346
 20
-11.56047842141405
 30
0.0
 10
32.88502751891468
 20
-11.40513071896958
 30
0.0
 10
32.97540153037586
 20
-11.25569085348917
 30
0.0
 10
33.07522402959297
 20
-11.11443430613042
 30
0.0
 10
33.18098884168995
 20
-10.98017573929864
 30
0.0
 10
33.29693654687285
 20
-10.85639430524286
 30
0.0
 10
33.41924575429498
 20
-10.73948908182868
 30
0.0
 10
33.549900580201
 20
-10.63125662894264
 30
0.0
 10
33.68810378643752
 20
-10.53072098471901
 30
0.0
 10
33.83445004324548
 20
-10.44012049746124
 30
0.0
 10
33.98533329307344
 20
-10.35817887658147
 30
0.0
 10
34.14087154704397
 20
-10.28786194660613
 30
0.0
 10
34.29895236348059
 20
-10.2275104301625
 30
0.0
 10
34.46031614623131
 20
-10.17859496559531
 30
0.0
 10
34.62453439206036
 20
-10.13997777132102
 30
0.0
 10
34.79196551287875
 20
-10.11368155173694
 30
0.0
 10
34.96247612184937
 20
-10.09536109761197
 30
0.0
 10
35.07734943463507
 20
-10.09385038048439
 30
0.0
 10
35.13515757100129
 20
-10.09309013652863
 30
0.0
  0
SPLINE
  5
B7
330
1F
100
AcDbEntity
  8
0
  6
Continuous
 62
     7
370
    25
100
AcDbSpline
210
0.0
220
0.0
230
1.0
 70
     8
 71
     3
 72
    23
 73
    19
 74
     0
 42
0.000000001
 43
0.00000001
 40
0.0
 40
0.0
 40
0.0
 40
0.0
 40
0.0658188768433069
 40
0.1297465269068314
 40
0.1920719544880056
 40
0.2534594242982033
 40
0.314569587796421
 40
0.3762798811880264
 40
0.4390256536685606
 40
0.503267028829086
 40
0.567492822879295
 40
0.6297047956052452
 40
0.690999649215756
 40
0.7514516509174469
 40
0.8120043642646948
 40
0.8731496810680432
 40
0.9356354837317858
 40
1.0
 40
1.0
 40
1.0
 40
1.0
 10
35.17522167356539
 20
-15.34950039293889
 30
0.0
 10
35.08461550359457
 20
-15.34728698314705
 30
0.0
 10
34.90600662368262
 20
-15.34292376324895
 30
0.0
 10
34.64381085885439
 20
-15.30552175638889
 30
0.0
 10
34.39198551050041
 20
-15.24703417953001
 30
0.0
 10
34.15125072305422
 20
-15.16344927064639
 30
0.0
 10
33.92147225219922
 20
-15.05542465532518
 30
0.0
 10
33.70220070549273
 20
-14.92370411380372
 30
0.0
 10
33.49431620943322
 20
-14.7674081978314
 30
0.0
 10
33.2995422858839
 20
-14.59002737700142
 30
0.0
 10
33.12132914562327
 20
-14.396925159836
 30
0.0
 10
32.96595860891914
 20
-14.19001908115287
 30
0.0
 10
32.83420844703456
 20
-13.97336842880506
 30
0.0
 10
32.72654654346991
 20
-13.74637196578693
 30
0.0
 10
32.64131160154889
 20
-13.51012704764155
 30
0.0
 10
32.58316186135019
 20
-13.26305779408518
 30
0.0
 10
32.54553907268042
 20
-13.00657278577834
 30
0.0
 10
32.54120357770653
 20
-12.83194007388505
 30
0.0
 10
32.53900372484744
 20
-12.74333052114402
 30
0.0
  0
SPLINE
  5
129
330
1F
100
AcDbEntity
  8
0
  6
Continuous
 62
     7
370
    25
100
AcDbSpline
210
0.0
220
0.0
230
1.0
 70
     8
 71
     3
 72
    15
 73
    11
 74
     0
 42
0.000000001
 43
0.00000001
 40
0.0
 40
0.0
 40
0.0
 40
0.0
 40
0.1268408077971957
 40
0.2505477821575797
 40
0.3712302035652593
 40
0.4921157704266517
 40
0.6134009879986346
 40
0.7379973201236238
 40
0.8661319098407461
 40
1.0
 40
1.0
 40
1.0
 40
1.0
 10
60.15759346843718
 20
-20.2597568031953
 30
0.0
 10
60.11402697819442
 20
-20.25864696801215
 30
0.0
 10
60.02797038728896
 20
-20.25645471814771
 30
0.0
 10
59.90214381264965
 20
-20.23423808095761
 30
0.0
 10
59.78104936815503
 20
-20.20103499324909
 30
0.0
 10
59.66602866124218
 20
-20.15243585584714
 30
0.0
 10
59.55617053622237
 20
-20.09050255653896
 30
0.0
 10
59.4520964169977
 20
-20.01497952284567
 30
0.0
 10
59.35325348593748
 20
-19.92602470164218
 30
0.0
 10
59.293760265416
 20
-19.85854028778894
 30
0.0
 10
59.26336269920643
 20
-19.82405968781068
 30
0.0
  0
SPLINE
  5
12A
330
1F
100
AcDbEntity
  8
0
  6
Continuous
 62
     7
370
    25
100
AcDbSpline
210
0.0
220
0.0
230
1.0
 70
     8
 71
     3
 72
    23
 73
    19
 74
     0
 42
0.000000001
 43
0.00000001
 40
0.0
 40
0.0
 40
0.0
 40
0.0
 40
0.0649212959378677
 40
0.1280341643911159
 40
0.1895737254178901
 40
0.2505798347323805
 40
0.3117332213636317
 40
0.3732500799286345
 40
0.4357625163356375
 40
0.5003455613741129
 40
0.5649493665465383
 40
0.6275279092682844
 40
0.6891572899131292
 40
0.7498650117126991
 40
0.8107601999033149
 40
0.8722997609300872
 40
0.9354126293833372
 40
1.0
 40
1.0
 40
1.0
 40
1.0
 10
61.30182423766796
 20
-19.1191318031953
 30
0.0
 10
61.3007738214739
 20
-19.15804806766947
 30
0.0
 10
61.29870224915347
 20
-19.23479655722428
 30
0.0
 10
61.2826351012037
 20
-19.34749978343194
 30
0.0
 10
61.25695778052049
 20
-19.45591753242737
 30
0.0
 10
61.22005076641295
 20
-19.55986947263301
 30
0.0
 10
61.17235806211122
 20
-19.65928403088384
 30
0.0
 10
61.11432558179999
 20
-19.75408951321237
 30
0.0
 10
61.04585146713517
 20
-19.84425554448383
 30
0.0
 10
60.96759335766793
 20
-19.9285580302842
 30
0.0
 10
60.88269084104777
 20
-20.00621458419387
 30
0.0
 10
60.79193870719291
 20
-20.07413292957746
 30
0.0
 10
60.69674534244216
 20
-20.13116839411428
 30
0.0
 10
60.59759777061115
 20
-20.17881093088685
 30
0.0
 10
60.49364722332227
 20
-20.2147185172318
 30
0.0
 10
60.38537869957808
 20
-20.24061948919545
 30
0.0
 10
60.27285114543759
 20
-20.25659191411095
 30
0.0
 10
60.19630730087276
 20
-20.25869375048699
 30
0.0
 10
60.15759346843718
 20
-20.2597568031953
 30
0.0
  0
SPLINE
  5
12B
330
1F
100
AcDbEntity
  8
0
  6
Continuous
 62
     7
370
    25
100
AcDbSpline
210
0.0
220
0.0
230
1.0
 70
     8
 71
     3
 72
    23
 73
    19
 74
     0
 42
0.000000001
 43
0.00000001
 40
0.0
 40
0.0
 40
0.0
 40
0.0
 40
0.0650810177750306
 40
0.128636050563081
 40
0.1906529019116441
 40
0.2521250372681093
 40
0.3134462756463774
 40
0.3752272792333939
 40
0.4384980827328611
 40
0.503285099934038
 40
0.5680096868463705
 40
0.6308789816949751
 40
0.6921535040082765
 40
0.7525521497156012
 40
0.8131910939047681
 40
0.8739853995183315
 40
0.9362579468344557
 40
1.0
 40
1.0
 40
1.0
 40
1.0
 10
60.14918000689873
 20
-17.99052603396453
 30
0.0
 10
60.18808709535342
 20
-17.99165161587172
 30
0.0
 10
60.2649889996079
 20
-17.99387638764196
 30
0.0
 10
60.37818605297608
 20
-18.00893900584246
 30
0.0
 10
60.48719352456895
 20
-18.03475417078498
 30
0.0
 10
60.59139471369166
 20
-18.07195495538335
 30
0.0
 10
60.69190591242262
 20
-18.11794535818478
 30
0.0
 10
60.78723914085317
 20
-18.17598853153667
 30
0.0
 10
60.87887933139169
 20
-18.24319383792967
 30
0.0
 10
60.96452177919458
 20
-18.32053568149033
 30
0.0
 10
61.04365437993104
 20
-18.40421705270558
 30
0.0
 10
61.1120939637465
 20
-18.49423617053447
 30
0.0
 10
61.17112702458766
 20
-18.58763267316222
 30
0.0
 10
61.21884442155541
 20
-18.68585446649817
 30
0.0
 10
61.25622300505415
 20
-18.78812809207261
 30
0.0
 10
61.28280701445852
 20
-18.89486675570925
 30
0.0
 10
61.2986278517323
 20
-19.00567470466018
 30
0.0
 10
61.30075052458157
 20
-19.08101989371633
 30
0.0
 10
61.30182423766796
 20
-19.1191318031953
 30
0.0
  0
SPLINE
  5
12C
330
1F
100
AcDbEntity
  8
0
  6
Continuous
 62
     7
370
    25
100
AcDbSpline
210
0.0
220
0.0
230
1.0
 70
     8
 71
     3
 72
    15
 73
    11
 74
     0
 42
0.000000001
 43
0.00000001
 40
0.0
 40
0.0
 40
0.0
 40
0.0
 40
0.1353597999413045
 40
0.2630446827611699
 40
0.3860610822643559
 40
0.5057706525454615
 40
0.6251780311386976
 40
0.7461477220466124
 40
0.8705380668997077
 40
1.0
 40
1.0
 40
1.0
 40
1.0
 10
59.26336269920643
 20
-18.43463661088761
 30
0.0
 10
59.29195482839353
 20
-18.39783283904309
 30
0.0
 10
59.34751790956499
 20
-18.32631207369434
 30
0.0
 10
59.44328211373519
 20
-18.23374910633403
 30
0.0
 10
59.54436223566306
 20
-18.15568456035158
 30
0.0
 10
59.65335944637918
 20
-18.09449953207891
 30
0.0
 10
59.76857975210608
 20
-18.04836740758231
 30
0.0
 10
59.88955030991887
 20
-18.01427073625178
 30
0.0
 10
60.01729782267375
 20
-17.99417804373492
 30
0.0
 10
60.10463763925646
 20
-17.99175947700145
 30
0.0
 10
60.14918000689873
 20
-17.99052603396453
 30
0.0
  0
SPLINE
  5
156
330
1F
100
AcDbEntity
  8
0
  6
Continuous
 62
     7
370
    25
100
AcDbSpline
210
0.0
220
0.0
230
1.0
 70
     8
 71
     3
 72
    19
 73
    15
 74
     0
 42
0.000000001
 43
0.00000001
 40
0.0
 40
0.0
 40
0.0
 40
0.0
 40
0.0969723103815164
 40
0.1877734389628681
 40
0.272396139013694
 40
0.3513209973752901
 40
0.4243347744514677
 40
0.4919087840005262
 40
0.5542332197968003
 40
0.6112676582441547
 40
0.7163478449915532
 40
0.8145400858216161
 40
0.9084954561491857
 40
1.0
 40
1.0
 40
1.0
 40
1.0
 10
54.30983705818078
 20
-12.3827535980671
 30
0.0
 10
54.36410264861994
 20
-12.42224125456669
 30
0.0
 10
54.46918044344635
 20
-12.49870362849944
 30
0.0
 10
54.61869127189138
 20
-12.61358317139579
 30
0.0
 10
54.75425385488404
 20
-12.72593712650192
 30
0.0
 10
54.87634414569855
 20
-12.83504799378204
 30
0.0
 10
54.9861683006125
 20
-12.9400881266444
 30
0.0
 10
55.08250790157651
 20
-13.0423212414018
 30
0.0
 10
55.16634458778675
 20
-13.14101491666212
 30
0.0
 10
55.25660061415839
 20
-13.26754716764952
 30
0.0
 10
55.34882607061622
 20
-13.42294871661287
 30
0.0
 10
55.42802822408213
 20
-13.61334620024897
 30
0.0
 10
55.47796872044579
 20
-13.80448380095893
 30
0.0
 10
55.48449945677714
 20
-13.93295071020901
 30
0.0
 10
55.48772167356539
 20
-13.99633532883633
 30
0.0
  0
SPLINE
  5
157
330
1F
100
AcDbEntity
  8
0
  6
Continuous
 62
     7
370
    25
100
AcDbSpline
210
0.0
220
0.0
230
1.0
 70
     8
 71
     3
 72
    15
 73
    11
 74
     0
 42
0.000000001
 43
0.00000001
 40
0.0
 40
0.0
 40
0.0
 40
0.0
 40
0.0525942815291392
 40
0.1249519739750398
 40
0.2180938989285954
 40
0.3335024107325184
 40
0.4687891785044477
 40
0.6249375859646007
 40
0.8016830479282306
 40
0.9999999999999999
 40
0.9999999999999999
 40
0.9999999999999999
 40
0.9999999999999999
 10
53.63776173766795
 20
-11.88495712370812
 30
0.0
 10
53.64870655539322
 20
-11.89472430344501
 30
0.0
 10
53.67470893701739
 20
-11.91792888677252
 30
0.0
 10
53.72224597378833
 20
-11.95591785912072
 30
0.0
 10
53.78502139983113
 20
-12.00277896239968
 30
0.0
 10
53.8613959729409
 20
-12.06076084307796
 30
0.0
 10
53.95277791826524
 20
-12.12802007467406
 30
0.0
 10
54.05917728418615
 20
-12.20369666347948
 30
0.0
 10
54.17940804537891
 20
-12.2902473192036
 30
0.0
 10
54.26472506809259
 20
-12.35075809150351
 30
0.0
 10
54.30983705818078
 20
-12.3827535980671
 30
0.0
  0
SPLINE
  5
158
330
1F
100
AcDbEntity
  8
0
  6
Continuous
 62
     7
370
    25
100
AcDbSpline
210
0.0
220
0.0
230
1.0
 70
     8
 71
     3
 72
    15
 73
    11
 74
     0
 42
0.000000001
 43
0.00000001
 40
0.0
 40
0.0
 40
0.0
 40
0.0
 40
0.1072852142689578
 40
0.2147458609696413
 40
0.3229385595552882
 40
0.4341161625174677
 40
0.5534123109627974
 40
0.6860729848107319
 40
0.8342559920595878
 40
1.0
 40
1.0
 40
1.0
 40
1.0
 10
53.30823449407821
 20
-11.23892346986197
 30
0.0
 10
53.30879610355665
 20
-11.26571129634834
 30
0.0
 10
53.3099202408555
 20
-11.3193307526874
 30
0.0
 10
53.32559852326465
 20
-11.39854706976448
 30
0.0
 10
53.34574042177584
 20
-11.47756326893395
 30
0.0
 10
53.37765846713786
 20
-11.55602410155419
 30
0.0
 10
53.42172318658898
 20
-11.63530175734314
 30
0.0
 10
53.47958772359807
 20
-11.71676138242678
 30
0.0
 10
53.55246388366947
 20
-11.8011209662441
 30
0.0
 10
53.60828818702863
 20
-11.85598864306539
 30
0.0
 10
53.63776173766795
 20
-11.88495712370812
 30
0.0
  0
SPLINE
  5
159
330
1F
100
AcDbEntity
  8
0
  6
Continuous
 62
     7
370
    25
100
AcDbSpline
210
0.0
220
0.0
230
1.0
 70
     8
 71
     3
 72
    15
 73
    11
 74
     0
 42
0.000000001
 43
0.00000001
 40
0.0
 40
0.0
 40
0.0
 40
0.0
 40
0.1430730837303654
 40
0.2759029640930108
 40
0.4023708562739945
 40
0.5284136450935979
 40
0.6503563791869539
 40
0.765895086124694
 40
0.8807741308440212
 40
1.0
 40
1.0
 40
1.0
 40
1.0
 10
54.04140757100129
 20
-10.60591064934915
 30
0.0
 10
53.98975539613632
 20
-10.60764164928042
 30
0.0
 10
53.89014904268729
 20
-10.61097971958288
 30
0.0
 10
53.74873441967647
 20
-10.64743684142809
 30
0.0
 10
53.62145738387181
 20
-10.70483949900787
 30
0.0
 10
53.51209657664868
 20
-10.78528946771597
 30
0.0
 10
53.42104375230146
 20
-10.88060517155185
 30
0.0
 10
53.35517881120877
 20
-10.99028925023031
 30
0.0
 10
53.31553571899155
 20
-11.11140696823679
 30
0.0
 10
53.31069817663293
 20
-11.19589504871066
 30
0.0
 10
53.30823449407821
 20
-11.23892346986197
 30
0.0
  0
SPLINE
  5
15A
330
1F
100
AcDbEntity
  8
0
  6
Continuous
 62
     7
370
    25
100
AcDbSpline
210
0.0
220
0.0
230
1.0
 70
     8
 71
     3
 72
    19
 73
    15
 74
     0
 42
0.000000001
 43
0.00000001
 40
0.0
 40
0.0
 40
0.0
 40
0.0
 40
0.0984694310255584
 40
0.1896291011376328
 40
0.274184089437971
 40
0.3521831609671532
 40
0.4231988731834695
 40
0.4885509460005321
 40
0.5484733460279363
 40
0.6014401636178726
 40
0.7011980824257649
 40
0.7995918021381848
 40
0.8985450984822264
 40
1.0
 40
1.0
 40
1.0
 40
1.0
 10
55.01797007100129
 20
-11.24693629037479
 30
0.0
 10
54.99347588175513
 20
-11.21538101834247
 30
0.0
 10
54.94630580022353
 20
-11.15461294230791
 30
0.0
 10
54.87469224756565
 20
-11.06951106287039
 30
0.0
 10
54.80719417910811
 20
-10.99177323496762
 30
0.0
 10
54.74069360798781
 20
-10.92425162349613
 30
0.0
 10
54.67870270589363
 20
-10.86324857587058
 30
0.0
 10
54.61853550268369
 20
-10.81102035183565
 30
0.0
 10
54.56105785805884
 20
-10.76705521550695
 30
0.0
 10
54.48860512856447
 20
-10.72013584413671
 30
0.0
 10
54.39757981667424
 20
-10.67362655334421
 30
0.0
 10
54.28331619347519
 20
-10.63427072751889
 30
0.0
 10
54.1639072291395
 20
-10.61062063906348
 30
0.0
 10
54.08257918415281
 20
-10.60749365682373
 30
0.0
 10
54.04140757100129
 20
-10.60591064934915
 30
0.0
  0
SPLINE
  5
15C
330
1F
100
AcDbEntity
  8
0
  6
Continuous
 62
     7
370
    25
100
AcDbSpline
210
0.0
220
0.0
230
1.0
 70
     8
 71
     3
 72
    19
 73
    15
 74
     0
 42
0.000000001
 43
0.00000001
 40
0.0
 40
0.0
 40
0.0
 40
0.0
 40
0.1072327993600909
 40
0.213251812781851
 40
0.3188304473075867
 40
0.4267935306342736
 40
0.4836459507827197
 40
0.5436038220211433
 40
0.6083076495640849
 40
0.6771267602600388
 40
0.7506856360204954
 40
0.8287134184432878
 40
0.9121903482234512
 40
1.0
 40
1.0
 40
1.0
 40
1.0
 10
54.09148769920642
 20
-10.09309013652863
 30
0.0
 10
54.15040784248929
 20
-10.09512235309889
 30
0.0
 10
54.26758120212758
 20
-10.09916378324116
 30
0.0
 10
54.43993722436976
 20
-10.13430311369792
 30
0.0
 10
54.60588110494209
 20
-10.19244693053791
 30
0.0
 10
54.73937148325563
 20
-10.25843072764872
 30
0.0
 10
54.84384685677253
 20
-10.32433275009624
 30
0.0
 10
54.92352218918528
 20
-10.38436107049459
 30
0.0
 10
55.00426140459467
 20
-10.45346836850059
 30
0.0
 10
55.08671576863573
 20
-10.53183872004461
 30
0.0
 10
55.16948813926312
 20
-10.6201912216012
 30
0.0
 10
55.25380735675476
 20
-10.7179207771858
 30
0.0
 10
55.33987059791291
 20
-10.82443014270635
 30
0.0
 10
55.39523611237563
 20
-10.90046514378423
 30
0.0
 10
55.42361910946283
 20
-10.9394443031953
 30
0.0
  0
SPLINE
  5
15D
330
1F
100
AcDbEntity
  8
0
  6
Continuous
 62
     7
370
    25
100
AcDbSpline
210
0.0
220
0.0
230
1.0
 70
     8
 71
     3
 72
    19
 73
    15
 74
     0
 42
0.000000001
 43
0.00000001
 40
0.0
 40
0.0
 40
0.0
 40
0.0
 40
0.0837853706537099
 40
0.165779887922142
 40
0.2462800078932633
 40
0.3274609277363908
 40
0.4087969540320684
 40
0.4897152412309894
 40
0.5713760321300533
 40
0.655523321111276
 40
0.7410194827999741
 40
0.8265467605037593
 40
0.9119888516548349
 40
1.0
 40
1.0
 40
1.0
 40
1.0
 10
52.85951654536026
 20
-11.25995712370812
 30
0.0
 10
52.86138112963651
 20
-11.20705744575855
 30
0.0
 10
52.86507044401112
 20
-11.10238878327994
 30
0.0
 10
52.89627118296886
 20
-10.94948759693408
 30
0.0
 10
52.94551817390387
 20
-10.80350700090899
 30
0.0
 10
53.01451087084897
 20
-10.66589223844511
 30
0.0
 10
53.10344994644645
 20
-10.54022655146195
 30
0.0
 10
53.20637276696819
 20
-10.4250644272019
 30
0.0
 10
53.32896060445027
 20
-10.32825216688636
 30
0.0
 10
53.46346435196942
 20
-10.24366351204461
 30
0.0
 10
53.61068774065899
 20
-10.1774550474631
 30
0.0
 10
53.76496045979845
 20
-10.12751079009096
 30
0.0
 10
53.92652770554872
 20
-10.09921185053245
 30
0.0
 10
54.03596075501076
 20
-10.0951507578001
 30
0.0
 10
54.09148769920642
 20
-10.09309013652863
 30
0.0
  0
SPLINE
  5
15E
330
1F
100
AcDbEntity
  8
0
  6
Continuous
 62
     7
370
    25
100
AcDbSpline
210
0.0
220
0.0
230
1.0
 70
     8
 71
     3
 72
    15
 73
    11
 74
     0
 42
0.000000001
 43
0.00000001
 40
0.0
 40
0.0
 40
0.0
 40
0.0
 40
0.1335067689985194
 40
0.2625589787303693
 40
0.3882644471488781
 40
0.5126673546814297
 40
0.6337222699657591
 40
0.7553938601370939
 40
0.8775529450912773
 40
1.0
 40
1.0
 40
1.0
 40
1.0
 10
53.13896366074488
 20
-12.02117507242607
 30
0.0
 10
53.11686002470038
 20
-11.99174501977721
 30
0.0
 10
53.07339025796417
 20
-11.93386687153478
 30
0.0
 10
53.01601025015687
 20
-11.84340278900948
 30
0.0
 10
52.96724001758778
 20
-11.75079812413915
 30
0.0
 10
52.929008114536
 20
-11.65580403190403
 30
0.0
 10
52.89681351619373
 20
-11.5597541335032
 30
0.0
 10
52.87515932945409
 20
-11.46139521107519
 30
0.0
 10
52.86160019100295
 20
-11.36116861326877
 30
0.0
 10
52.86021163881281
 20
-11.29372075523662
 30
0.0
 10
52.85951654536026
 20
-11.25995712370812
 30
0.0
  0
SPLINE
  5
15F
330
1F
100
AcDbEntity
  8
0
  6
Continuous
 62
     7
370
    25
100
AcDbSpline
210
0.0
220
0.0
230
1.0
 70
     8
 71
     3
 72
    15
 73
    11
 74
     0
 42
0.000000001
 43
0.00000001
 40
0.0
 40
0.0
 40
0.0
 40
0.0
 40
0.1815353013762835
 40
0.3470816724816271
 40
0.4955678164315556
 40
0.6283573018772151
 40
0.745519669992155
 40
0.8458307507576509
 40
0.9307818073847586
 40
1.0
 40
1.0
 40
1.0
 40
1.0
 10
53.95827455818078
 20
-12.70126321345171
 30
0.0
 10
53.90566884935355
 20
-12.66379380256696
 30
0.0
 10
53.8050907399533
 20
-12.59215514221723
 30
0.0
 10
53.66443562231562
 20
-12.48583473648348
 30
0.0
 10
53.53865781801576
 20
-12.38862920856649
 30
0.0
 10
53.42831636583956
 20
-12.29962347699143
 30
0.0
 10
53.33345979891667
 20
-12.21880547023447
 30
0.0
 10
53.25334064032501
 20
-12.14695127145994
 30
0.0
 10
53.1899998444742
 20
-12.08211761307657
 30
0.0
 10
53.1547775863906
 20
-12.04005855344063
 30
0.0
 10
53.13896366074488
 20
-12.02117507242607
 30
0.0
  0
SPLINE
  5
160
330
1F
100
AcDbEntity
  8
0
  6
Continuous
 62
     7
370
    25
100
AcDbSpline
210
0.0
220
0.0
230
1.0
 70
     8
 71
     3
 72
    15
 73
    11
 74
     0
 42
0.000000001
 43
0.00000001
 40
0.0
 40
0.0
 40
0.0
 40
0.0
 40
0.0902792146500187
 40
0.189529918446961
 40
0.2991978724002876
 40
0.4189258867738209
 40
0.5483762854012485
 40
0.6881363695386814
 40
0.8390835016589171
 40
1.0
 40
1.0
 40
1.0
 40
1.0
 10
54.85971686587308
 20
-13.49853885447735
 30
0.0
 10
54.83733027418652
 20
-13.46990053504401
 30
0.0
 10
54.79033242520092
 20
-13.40977796566077
 30
0.0
 10
54.70953597863949
 20
-13.32028477212443
 30
0.0
 10
54.61472724391747
 20
-13.22797274505006
 30
0.0
 10
54.50915073690082
 20
-13.12931694940816
 30
0.0
 10
54.38896060998564
 20
-13.02890581128239
 30
0.0
 10
54.25792130369541
 20
-12.92195112851246
 30
0.0
 10
54.11268721945813
 20
-12.81252030416006
 30
0.0
 10
54.01083079571813
 20
-12.73913092480784
 30
0.0
 10
53.95827455818078
 20
-12.70126321345171
 30
0.0
  0
SPLINE
  5
161
330
1F
100
AcDbEntity
  8
0
  6
Continuous
 62
     7
370
    25
100
AcDbSpline
210
0.0
220
0.0
230
1.0
 70
     8
 71
     3
 72
    11
 73
     7
 74
     0
 42
0.000000001
 43
0.00000001
 40
0.0
 40
0.0
 40
0.0
 40
0.0
 40
0.2347233736739011
 40
0.4771583189289906
 40
0.7285562842030568
 40
1.0
 40
1.0
 40
1.0
 40
1.0
 10
55.03900372484745
 20
-13.98932411088761
 30
0.0
 10
55.03689756670559
 20
-13.94769432559123
 30
0.0
 10
55.03261605497271
 20
-13.86306705537744
 30
0.0
 10
54.99642822629777
 20
-13.73821040830036
 30
0.0
 10
54.93950073080713
 20
-13.61464959397999
 30
0.0
 10
54.88698266837145
 20
-13.53821921458319
 30
0.0
 10
54.85971686587308
 20
-13.49853885447735
 30
0.0
  0
SPLINE
  5
162
330
1F
100
AcDbEntity
  8
0
  6
Continuous
 62
     7
370
    25
100
AcDbSpline
210
0.0
220
0.0
230
1.0
 70
     8
 71
     3
 72
    19
 73
    15
 74
     0
 42
0.000000001
 43
0.00000001
 40
0.0
 40
0.0
 40
0.0
 40
0.0
 40
0.0912636048966263
 40
0.1809303110850848
 40
0.2700882198317218
 40
0.3601561333877251
 40
0.4483425324981556
 40
0.5326658421383309
 40
0.613833704107048
 40
0.6939815272835578
 40
0.7727159770890046
 40
0.8493351720622466
 40
0.923967326575232
 40
0.9999999999999999
 40
0.9999999999999999
 40
0.9999999999999999
 40
0.9999999999999999
 10
54.05943641715514
 20
-14.83667988011838
 30
0.0
 10
54.10327478931442
 20
-14.83545891938664
 30
0.0
 10
54.19018446509619
 20
-14.83303836186795
 30
0.0
 10
54.31813052646919
 20
-14.80978007322595
 30
0.0
 10
54.44239024399212
 20
-14.77404846049242
 30
0.0
 10
54.56040258360721
 20
-14.7228757011946
 30
0.0
 10
54.67053917579506
 20
-14.66096357873033
 30
0.0
 10
54.76712016913316
 20
-14.58618332514846
 30
0.0
 10
54.85061461653237
 20
-14.5024601741289
 30
0.0
 10
54.91891335162833
 20
-14.40905638178331
 30
0.0
 10
54.97131340204024
 20
-14.3086033123443
 30
0.0
 10
55.01158778548771
 20
-14.20549481043246
 30
0.0
 10
55.03393789071111
 20
-14.09811114146247
 30
0.0
 10
55.03730468136352
 20
-14.02581048025135
 30
0.0
 10
55.03900372484745
 20
-13.98932411088761
 30
0.0
  0
SPLINE
  5
163
330
1F
100
AcDbEntity
  8
0
  6
Continuous
 62
     7
370
    25
100
AcDbSpline
210
0.0
220
0.0
230
1.0
 70
     8
 71
     3
 72
    15
 73
    11
 74
     0
 42
0.000000001
 43
0.00000001
 40
0.0
 40
0.0
 40
0.0
 40
0.0
 40
0.1590042985173773
 40
0.3046460998968157
 40
0.4385469045795932
 40
0.5623222987759272
 40
0.6774325425257335
 40
0.7868973929387538
 40
0.8936108891042658
 40
0.9999999999999999
 40
0.9999999999999999
 40
0.9999999999999999
 40
0.9999999999999999
 10
52.96168000689873
 20
-14.00334654678505
 30
0.0
 10
53.00099177439949
 20
-14.0691528109952
 30
0.0
 10
53.07631160386841
 20
-14.19523507372228
 30
0.0
 10
53.20195640265772
 20
-14.36560370290625
 30
0.0
 10
53.33214627575187
 20
-14.51040678399053
 30
0.0
 10
53.46784532367964
 20
-14.62880193761886
 30
0.0
 10
53.60822524956875
 20
-14.72201463297259
 30
0.0
 10
53.75420246919261
 20
-14.78801782114195
 30
0.0
 10
53.90528505592322
 20
-14.82918350024386
 30
0.0
 10
54.00810480089384
 20
-14.83418362389338
 30
0.0
 10
54.05943641715513
 20
-14.83667988011838
 30
0.0
  0
SPLINE
  5
165
330
1F
100
AcDbEntity
  8
0
  6
Continuous
 62
     7
370
    25
100
AcDbSpline
210
0.0
220
0.0
230
1.0
 70
     8
 71
     3
 72
    23
 73
    19
 74
     0
 42
0.000000001
 43
0.00000001
 40
0.0
 40
0.0
 40
0.0
 40
0.0
 40
0.0572082694335101
 40
0.1136960596574882
 40
0.1691779164171952
 40
0.2241592165805411
 40
0.2787198783810424
 40
0.3337942174469876
 40
0.3892414593400037
 40
0.4458220733936205
 40
0.5037042811090198
 40
0.5642938918193633
 40
0.6279754158952228
 40
0.6950382596840493
 40
0.7653727258510121
 40
0.8396114430907348
 40
0.9175377500777887
 40
1.0
 40
1.0
 40
1.0
 40
1.0
 10
54.05943641715513
 20
-15.34950039293889
 30
0.0
 10
54.02167164146802
 20
-15.34877013351402
 30
0.0
 10
53.94661769853303
 20
-15.34731881152931
 30
0.0
 10
53.83560415299991
 20
-15.3344884109262
 30
0.0
 10
53.72683331128838
 20
-15.31633540579595
 30
0.0
 10
53.62167005123964
 20
-15.2875153058289
 30
0.0
 10
53.51875946318
 20
-15.25254819576876
 30
0.0
 10
53.41854912814291
 20
-15.20949343491419
 30
0.0
 10
53.3209904797774
 20
-15.15789743284653
 30
0.0
 10
53.22553678996543
 20
-15.09890454051988
 30
0.0
 10
53.13243082627099
 20
-15.03025061971475
 30
0.0
 10
53.04254587208691
 20
-14.95028848194591
 30
0.0
 10
52.95293274992507
 20
-14.86122347481548
 30
0.0
 10
52.86623646946565
 20
-14.76063695572734
 30
0.0
 10
52.78070340617164
 20
-14.65015398021623
 30
0.0
 10
52.69801996397666
 20
-14.52874086107706
 30
0.0
 10
52.6164746530066
 20
-14.39705892713566
 30
0.0
 10
52.56530969896758
 20
-14.30439451896449
 30
0.0
 10
52.53900372484744
 20
-14.25675199550299
 30
0.0
  0
SPLINE
  5
166
330
1F
100
AcDbEntity
  8
0
  6
Continuous
 62
     7
370
    25
100
AcDbSpline
210
0.0
220
0.0
230
1.0
 70
     8
 71
     3
 72
    23
 73
    19
 74
     0
 42
0.000000001
 43
0.00000001
 40
0.0
 40
0.0
 40
0.0
 40
0.0
 40
0.0614842551968899
 40
0.1217745277022103
 40
0.1809195598139317
 40
0.2402561150782706
 40
0.3001144444023517
 40
0.3611459476126107
 40
0.4235005824125851
 40
0.488669361280718
 40
0.5539541046535627
 40
0.61758126101526
 40
0.6802384268167397
 40
0.7421873887724515
 40
0.8046632117692937
 40
0.8682589893126614
 40
0.9330202571803742
 40
1.0
 40
1.0
 40
1.0
 40
1.0
 10
55.4877216735654
 20
-13.99633532883633
 30
0.0
 10
55.48678290481689
 20
-14.04116156468717
 30
0.0
 10
55.48492359757465
 20
-14.12994354117732
 30
0.0
 10
55.46355086360519
 20
-14.26030793672319
 30
0.0
 10
55.4322370562301
 20
-14.38692346484313
 30
0.0
 10
55.3850410077293
 20
-14.50822505405029
 30
0.0
 10
55.32743649592945
 20
-14.62643185788378
 30
0.0
 10
55.25434185612084
 20
-14.7384431441851
 30
0.0
 10
55.16961659220985
 20
-14.8467379993093
 30
0.0
 10
55.07242549948929
 20
-14.94842870124524
 30
0.0
 10
54.96607421046575
 20
-15.04178040979582
 30
0.0
 10
54.85366893237605
 20
-15.12482192618507
 30
0.0
 10
54.73502568532727
 20
-15.19406238817838
 30
0.0
 10
54.61078809006551
 20
-15.25056359110686
 30
0.0
 10
54.4809276090554
 20
-15.29475433043007
 30
0.0
 10
54.34548791786326
 20
-15.32677271490274
 30
0.0
 10
54.20424575897816
 20
-15.34642373049345
 30
0.0
 10
54.10824507101749
 20
-15.3484633897286
 30
0.0
 10
54.05943641715513
 20
-15.34950039293889
 30
0.0
  0
SPLINE
  5
169
330
1F
100
AcDbEntity
  8
0
  6
Continuous
 62
     7
370
    25
100
AcDbSpline
210
0.0
220
0.0
230
1.0
 70
     8
 71
     3
 72
    15
 73
    11
 74
     0
 42
0.000000001
 43
0.00000001
 40
0.0
 40
0.0
 40
0.0
 40
0.0
 40
0.0751731173762237
 40
0.164746257511804
 40
0.2680168809877824
 40
0.3859118756529578
 40
0.5177894792733974
 40
0.6636909770022785
 40
0.8244132205366401
 40
1.0
 40
1.0
 40
1.0
 40
1.0
 10
45.00294603253977
 20
-12.83147154678504
 30
0.0
 10
44.97162126969489
 20
-12.83813294832489
 30
0.0
 10
44.9029712306083
 20
-12.85273179711256
 30
0.0
 10
44.78991019892578
 20
-12.86902959260524
 30
0.0
 10
44.65827393331179
 20
-12.88294045072732
 30
0.0
 10
44.50824210486098
 20
-12.89337064727169
 30
0.0
 10
44.33994938354444
 20
-12.90229974507455
 30
0.0
 10
44.15330473021623
 20
-12.90939702206123
 30
0.0
 10
43.94794176281721
 20
-12.91329681325432
 30
0.0
 10
43.80469712842012
 20
-12.91349794582359
 30
0.0
 10
43.7299091735654
 20
-12.91360295704146
 30
0.0
  0
SPLINE
  5
16A
330
1F
100
AcDbEntity
  8
0
  6
Continuous
 62
     7
370
    25
100
AcDbSpline
210
0.0
220
0.0
230
1.0
 70
     8
 71
     3
 72
    23
 73
    19
 74
     0
 42
0.000000001
 43
0.00000001
 40
0.0
 40
0.0
 40
0.0
 40
0.0
 40
0.0701188944197149
 40
0.137192352785971
 40
0.2020161807247516
 40
0.2646314069747431
 40
0.3261165471458173
 40
0.3860103046676412
 40
0.4458118469576797
 40
0.5052976967309598
 40
0.5646332777264879
 40
0.6242826253338393
 40
0.6839020319037501
 40
0.743952770938272
 40
0.8053877310076345
 40
0.8683880308962798
 40
0.9330840282524759
 40
1.0
 40
1.0
 40
1.0
 40
1.0
 10
46.00054218638592
 20
-11.5624410980671
 30
0.0
 10
45.99994015105882
 20
-11.6035522077635
 30
0.0
 10
45.99876222827971
 20
-11.68398887054274
 30
0.0
 10
45.98462467780995
 20
-11.80166428224088
 30
0.0
 10
45.96558154692605
 20
-11.91411912528601
 30
0.0
 10
45.93630004360151
 20
-12.02110405452805
 30
0.0
 10
45.89794908203235
 20
-12.12198372662914
 30
0.0
 10
45.85296043510994
 20
-12.21829977237305
 30
0.0
 10
45.79869824886742
 20
-12.30841358937105
 30
0.0
 10
45.7363484921381
 20
-12.39265232871626
 30
0.0
 10
45.66698907157685
 20
-12.47109506059365
 30
0.0
 10
45.59091344565217
 20
-12.54317333844037
 30
0.0
 10
45.50842874208039
 20
-12.60846525047256
 30
0.0
 10
45.41979710197128
 20
-12.66711717001596
 30
0.0
 10
45.32415446077623
 20
-12.71776899786981
 30
0.0
 10
45.2229513842463
 20
-12.76313657633485
 30
0.0
 10
45.11530821792927
 20
-12.8012380915327
 30
0.0
 10
45.04081891225018
 20
-12.82128103642756
 30
0.0
 10
45.00294603253977
 20
-12.83147154678504
 30
0.0
  0
SPLINE
  5
16B
330
1F
100
AcDbEntity
  8
0
  6
Continuous
 62
     7
370
    25
100
AcDbSpline
210
0.0
220
0.0
230
1.0
 70
     8
 71
     3
 72
    23
 73
    19
 74
     0
 42
0.000000001
 43
0.00000001
 40
0.0
 40
0.0
 40
0.0
 40
0.0
 40
0.0624813386352062
 40
0.1234903826872908
 40
0.1834110942063122
 40
0.2431532209997803
 40
0.3021267353720862
 40
0.3617096708329071
 40
0.4218422916948793
 40
0.4829319014466677
 40
0.5445522544313233
 40
0.6056807199653581
 40
0.6676797383436871
 40
0.7299843875380623
 40
0.7945509212861288
 40
0.8603456197120825
 40
0.9289073562657082
 40
1.0
 40
1.0
 40
1.0
 40
1.0
 10
45.04301013510387
 20
-10.29641545704146
 30
0.0
 10
45.07757232622571
 20
-10.30587538537246
 30
0.0
 10
45.14588229367163
 20
-10.32457233065735
 30
0.0
 10
45.2443123552454
 20
-10.36202050705113
 30
0.0
 10
45.33796070593161
 20
-10.40642360015898
 30
0.0
 10
45.4271486465676
 20
-10.4570292285174
 30
0.0
 10
45.51078019381171
 20
-10.51600860592761
 30
0.0
 10
45.59010310947743
 20
-10.58097091698373
 30
0.0
 10
45.66441736704272
 20
-10.65341601494435
 30
0.0
 10
45.73330506973439
 20
-10.73253135758354
 30
0.0
 10
45.79656906628289
 20
-10.81698880027139
 30
0.0
 10
45.85104004160743
 20
-10.90804912871065
 30
0.0
 10
45.89665036594066
 20
-11.00417956216756
 30
0.0
 10
45.93576932520374
 20
-11.10531323524948
 30
0.0
 10
45.96392426015973
 20
-11.21229941166567
 30
0.0
 10
45.98513411688181
 20
-11.32439471505737
 30
0.0
 10
45.99859644204704
 20
-11.44158712963094
 30
0.0
 10
45.99988581598294
 20
-11.52167265466074
 30
0.0
 10
46.00054218638592
 20
-11.5624410980671
 30
0.0
  0
SPLINE
  5
16C
330
1F
100
AcDbEntity
  8
0
  6
Continuous
 62
     7
370
    25
100
AcDbSpline
210
0.0
220
0.0
230
1.0
 70
     8
 71
     3
 72
    15
 73
    11
 74
     0
 42
0.000000001
 43
0.00000001
 40
0.0
 40
0.0
 40
0.0
 40
0.0
 40
0.1769557521312513
 40
0.3390550796425779
 40
0.486318224942078
 40
0.6187809228353788
 40
0.7356188277673772
 40
0.8387424767201109
 40
0.9264570678763164
 40
0.9999999999999999
 40
0.9999999999999999
 40
0.9999999999999999
 40
0.9999999999999999
 10
43.90418801971925
 20
-10.22129526473377
 30
0.0
 10
43.97163217136448
 20
-10.22136940222068
 30
0.0
 10
44.10085816109403
 20
-10.22151145293805
 30
0.0
 10
44.28616538353533
 20
-10.22581823268898
 30
0.0
 10
44.45446500014435
 20
-10.23157064996435
 30
0.0
 10
44.60539411575397
 20
-10.23954478309738
 30
0.0
 10
44.7394171130205
 20
-10.24896848345096
 30
0.0
 10
44.85592754094416
 20
-10.26218568256157
 30
0.0
 10
44.95584119284965
 20
-10.27598610478061
 30
0.0
 10
45.01570754920183
 20
-10.29001668552261
 30
0.0
 10
45.04301013510387
 20
-10.29641545704146
 30
0.0
  0
SPLINE
  5
170
330
1F
100
AcDbEntity
  8
0
  6
Continuous
 62
     7
370
    25
100
AcDbSpline
210
0.0
220
0.0
230
1.0
 70
     8
 71
     3
 72
    15
 73
    11
 74
     0
 42
0.000000001
 43
0.00000001
 40
0.0
 40
0.0
 40
0.0
 40
0.0
 40
0.1298621417207365
 40
0.254653530897288
 40
0.376014554193715
 40
0.4952552518176059
 40
0.6147977192994589
 40
0.7381055541683342
 40
0.8651963000723584
 40
0.9999999999999999
 40
0.9999999999999999
 40
0.9999999999999999
 40
0.9999999999999999
 10
38.56865116074487
 20
-17.99052603396453
 30
0.0
 10
38.61339389708454
 20
-17.99175839242898
 30
0.0
 10
38.70113229135347
 20
-17.99417498921497
 30
0.0
 10
38.82947058501075
 20
-18.01428589834552
 30
0.0
 10
38.9508801374995
 20
-18.04826172733539
 30
0.0
 10
39.06629815352529
 20
-18.09447672564126
 30
0.0
 10
39.17531017017799
 20
-18.15588992199718
 30
0.0
 10
39.27688415673452
 20
-18.23335846001745
 30
0.0
 10
39.37208314242693
 20
-18.3263937631347
 30
0.0
 10
39.4272662495634
 20
-18.39785414410833
 30
0.0
 10
39.4556703915141
 20
-18.43463661088761
 30
0.0
  0
SPLINE
  5
171
330
1F
100
AcDbEntity
  8
0
  6
Continuous
 62
     7
370
    25
100
AcDbSpline
210
0.0
220
0.0
230
1.0
 70
     8
 71
     3
 72
    23
 73
    19
 74
     0
 42
0.000000001
 43
0.00000001
 40
0.0
 40
0.0
 40
0.0
 40
0.0
 40
0.0637745323056333
 40
0.126078809989506
 40
0.1869040927472086
 40
0.2475739349176196
 40
0.3080033561644461
 40
0.3691318984609775
 40
0.4320332277442046
 40
0.4967907944370895
 40
0.5616108232295648
 40
0.6249138657484603
 40
0.686726349241923
 40
0.7480788332577697
 40
0.8095822911398934
 40
0.8716307425688279
 40
0.9348858208285525
 40
1.0
 40
1.0
 40
1.0
 40
1.0
 10
37.41720885305256
 20
-19.1191318031953
 30
0.0
 10
37.41828282852532
 20
-19.08102005727865
 30
0.0
 10
37.42040602009831
 20
-19.00567519157636
 30
0.0
 10
37.43622306567569
 20
-18.89486487901705
 30
0.0
 10
37.46282107309785
 20
-18.78813494124571
 30
0.0
 10
37.5001477996686
 20
-18.68582898991106
 30
0.0
 10
37.54801233249414
 20
-18.58782323264084
 30
0.0
 10
37.60623640708342
 20
-18.4940483540566
 30
0.0
 10
37.67482422825388
 20
-18.40424601337486
 30
0.0
 10
37.75389771998219
 20
-18.32052781895876
 30
0.0
 10
37.83955609440732
 20
-18.24319586387072
 30
0.0
 10
37.93119214947762
 20
-18.17598811063432
 30
0.0
 10
38.02652639060977
 20
-18.11794509736344
 30
0.0
 10
38.1270375424861
 20
-18.07195640338658
 30
0.0
 10
38.23123791804095
 20
-18.03474859949133
 30
0.0
 10
38.34005515725288
 20
-18.00900605540517
 30
0.0
 10
38.45303651040336
 20
-17.99383692291373
 30
0.0
 10
38.52974264645875
 20
-17.99164026792709
 30
0.0
 10
38.56865116074487
 20
-17.99052603396453
 30
0.0
  0
SPLINE
  5
172
330
1F
100
AcDbEntity
  8
0
  6
Continuous
 62
     7
370
    25
100
AcDbSpline
210
0.0
220
0.0
230
1.0
 70
     8
 71
     3
 72
    23
 73
    19
 74
     0
 42
0.000000001
 43
0.00000001
 40
0.0
 40
0.0
 40
0.0
 40
0.0
 40
0.0646199913407686
 40
0.1274334841444676
 40
0.1890041265579403
 40
0.2499300706860463
 40
0.3106684537406695
 40
0.3723289611368225
 40
0.4349391099970068
 40
0.4995755441940325
 40
0.5641912077719222
 40
0.6267352169294784
 40
0.6881093335614001
 40
0.7492936065367521
 40
0.8103305278109451
 40
0.8719011702244158
 40
0.9350459146845317
 40
1.0
 40
1.0
 40
1.0
 40
1.0
 10
38.5602376992064
 20
-20.2597568031953
 30
0.0
 10
38.52152231020709
 20
-20.2587056269646
 30
0.0
 10
38.44517384887452
 20
-20.25663266089406
 30
0.0
 10
38.33286321132688
 20
-20.2405506863641
 30
0.0
 10
38.22478414036747
 20
-20.21472443924233
 30
0.0
 10
38.12083450665736
 20
-20.17880939110653
 30
0.0
 10
38.02168695342813
 20
-20.13116868684522
 30
0.0
 10
37.92649258485186
 20
-20.07413333138115
 30
0.0
 10
37.83574456312119
 20
-20.00621261988345
 30
0.0
 10
37.75082610115217
 20
-19.92856573843812
 30
0.0
 10
37.67262724368712
 20
-19.84422717799503
 30
0.0
 10
37.60400329572524
 20
-19.75427385210206
 30
0.0
 10
37.54678637013548
 20
-19.65909473447978
 30
0.0
 10
37.49894058667206
 20
-19.55989488828943
 30
0.0
 10
37.46208657715147
 20
-19.45591067154599
 30
0.0
 10
37.43639489064465
 20
-19.34750167045475
 30
0.0
 10
37.42033165061553
 20
-19.23479606456345
 30
0.0
 10
37.41825954145698
 20
-19.15804790191007
 30
0.0
 10
37.41720885305256
 20
-19.1191318031953
 30
0.0
  0
SPLINE
  5
173
330
1F
100
AcDbEntity
  8
0
  6
Continuous
 62
     7
370
    25
100
AcDbSpline
210
0.0
220
0.0
230
1.0
 70
     8
 71
     3
 72
    15
 73
    11
 74
     0
 42
0.000000001
 43
0.00000001
 40
0.0
 40
0.0
 40
0.0
 40
0.0
 40
0.1342983790141629
 40
0.2620849753822993
 40
0.3862699121344983
 40
0.5071645966227998
 40
0.6273002357255043
 40
0.7481449416029898
 40
0.8723701771613497
 40
1.0
 40
1.0
 40
1.0
 40
1.0
 10
39.4556703915141
 20
-19.84208853396453
 30
0.0
 10
39.42531142812025
 20
-19.87640818592839
 30
0.0
 10
39.36606552930811
 20
-19.94338341828863
 30
0.0
 10
39.26711599961825
 20
-20.03088242328069
 30
0.0
 10
39.16222898998756
 20
-20.10320669888646
 30
0.0
 10
39.05191357187553
 20
-20.16162091234393
 30
0.0
 10
38.93626936329442
 20
-20.20549981777595
 30
0.0
 10
38.81555271705764
 20
-20.2366879541695
 30
0.0
 10
38.68971439060147
 20
-20.25673981288857
 30
0.0
 10
38.60378380078147
 20
-20.25874211734774
 30
0.0
 10
38.5602376992064
 20
-20.2597568031953
 30
0.0
  0
SPLINE
  5
17A
330
1F
100
AcDbEntity
  8
0
  6
Continuous
 62
     7
370
    25
100
AcDbSpline
210
0.0
220
0.0
230
1.0
 70
     8
 71
     3
 72
    15
 73
    11
 74
     0
 42
0.000000001
 43
0.00000001
 40
0.0
 40
0.0
 40
0.0
 40
0.0
 40
0.1185218400132605
 40
0.2362547631617473
 40
0.3561744339909324
 40
0.47724965489856
 40
0.6015398708217059
 40
0.7296183821680464
 40
0.8621582661414401
 40
0.9999999999999999
 40
0.9999999999999999
 40
0.9999999999999999
 40
0.9999999999999999
 10
45.10170404536026
 20
-18.42201641857991
 30
0.0
 10
45.12066999248525
 20
-18.44790520262531
 30
0.0
 10
45.15847564371081
 20
-18.49951044721572
 30
0.0
 10
45.20583030088379
 20
-18.58365715330202
 30
0.0
 10
45.24693663944122
 20
-18.67169480560215
 30
0.0
 10
45.27979346316818
 20
-18.76504648881958
 30
0.0
 10
45.30639874990807
 20
-18.8626061289678
 30
0.0
 10
45.32564745168536
 20
-18.96507116729435
 30
0.0
 10
45.33693569618409
 20
-19.07241109131794
 30
0.0
 10
45.3391545796256
 20
-19.1455481388694
 30
0.0
 10
45.3402857761295
 20
-19.18283372627222
 30
0.0
  0
SPLINE
  5
17B
330
1F
100
AcDbEntity
  8
0
  6
Continuous
 62
     7
370
    25
100
AcDbSpline
210
0.0
220
0.0
230
1.0
 70
     8
 71
     3
 72
    15
 73
    11
 74
     0
 42
0.000000001
 43
0.00000001
 40
0.0
 40
0.0
 40
0.0
 40
0.0
 40
0.1320402344259831
 40
0.2590328407793673
 40
0.381879823925015
 40
0.5022584437149853
 40
0.6227521895274812
 40
0.7447426318590035
 40
0.8701089273418217
 40
1.0
 40
1.0
 40
1.0
 40
1.0
 10
44.21889154536026
 20
-17.99052603396453
 30
0.0
 10
44.26384663562057
 20
-17.99168664730096
 30
0.0
 10
44.35203827499657
 20
-17.99396350610001
 30
0.0
 10
44.48063723588523
 20
-18.01507179187922
 30
0.0
 10
44.60231785006292
 20
-18.04854541007641
 30
0.0
 10
44.71703142518472
 20
-18.09582008764829
 30
0.0
 10
44.82478959154431
 20
-18.1568139891829
 30
0.0
 10
44.92489191975119
 20
-18.23236413902372
 30
0.0
 10
45.0190503590787
 20
-18.32015107093092
 30
0.0
 10
45.07382914095201
 20
-18.38766239329717
 30
0.0
 10
45.10170404536026
 20
-18.42201641857991
 30
0.0
  0
SPLINE
  5
17C
330
1F
100
AcDbEntity
  8
0
  6
Continuous
 62
     7
370
    25
100
AcDbSpline
210
0.0
220
0.0
230
1.0
 70
     8
 71
     3
 72
    15
 73
    11
 74
     0
 42
0.000000001
 43
0.00000001
 40
0.0
 40
0.0
 40
0.0
 40
0.0
 40
0.1288352544875561
 40
0.2535893349864777
 40
0.3746432573141682
 40
0.4953400422377893
 40
0.6163247746357933
 40
0.7397593354405142
 40
0.866842320380542
 40
1.0
 40
1.0
 40
1.0
 40
1.0
 10
43.36192039151411
 20
-18.39917988011838
 30
0.0
 10
43.38909840532197
 20
-18.36672084861434
 30
0.0
 10
43.44259350241476
 20
-18.30283100537107
 30
0.0
 10
43.53307037843238
 20
-18.21888386898683
 30
0.0
 10
43.63104197529724
 20
-18.14856063312076
 30
0.0
 10
43.73528051195455
 20
-18.09026880214516
 30
0.0
 10
43.84699748972076
 20
-18.04597710472277
 30
0.0
 10
43.96469116775299
 20
-18.01297060566654
 30
0.0
 10
44.08970167023294
 20
-17.99447516763802
 30
0.0
 10
44.17516328809425
 20
-17.99186273881917
 30
0.0
 10
44.21889154536026
 20
-17.99052603396453
 30
0.0
  0
SPLINE
  5
17D
330
1F
100
AcDbEntity
  8
0
  6
Continuous
 62
     7
370
    25
100
AcDbSpline
210
0.0
220
0.0
230
1.0
 70
     8
 71
     3
 72
    15
 73
    11
 74
     0
 42
0.000000001
 43
0.00000001
 40
0.0
 40
0.0
 40
0.0
 40
0.0
 40
0.1280448079611216
 40
0.253767900024489
 40
0.3774284265813027
 40
0.5005508414825323
 40
0.6232958832424768
 40
0.7465783319335086
 40
0.8723475406047204
 40
1.0
 40
1.0
 40
1.0
 40
1.0
 10
43.10951654536026
 20
-19.13115103396453
 30
0.0
 10
43.11042438078649
 20
-19.09746975074946
 30
0.0
 10
43.11222359071424
 20
-19.03071789530358
 30
0.0
 10
43.12356426562313
 20
-18.93191885713476
 30
0.0
 10
43.14366280253859
 20
-18.83589446925315
 30
0.0
 10
43.17124250878067
 20
-18.74256494242268
 30
0.0
 10
43.20685786265204
 20
-18.6520865418649
 30
0.0
 10
43.25042833626592
 20
-18.56440420161647
 30
0.0
 10
43.30202180294203
 20
-18.47961122459322
 30
0.0
 10
43.3418555233047
 20
-18.42612282427224
 30
0.0
 10
43.36192039151411
 20
-18.39917988011838
 30
0.0
  0
SPLINE
  5
17E
330
1F
100
AcDbEntity
  8
0
  6
Continuous
 62
     7
370
    25
100
AcDbSpline
210
0.0
220
0.0
230
1.0
 70
     8
 71
     3
 72
    23
 73
    19
 74
     0
 42
0.000000001
 43
0.00000001
 40
0.0
 40
0.0
 40
0.0
 40
0.0
 40
0.0715786576891439
 40
0.1396292246928476
 40
0.2047966973966663
 40
0.2681349633966836
 40
0.3298137469867288
 40
0.3913013977745595
 40
0.4534335150970542
 40
0.5165516903197671
 40
0.5796312707049224
 40
0.6411189214927541
 40
0.7012940466987747
 40
0.7608103356761328
 40
0.8199317217781424
 40
0.878919575499383
 40
0.9389828222504469
 40
1.0
 40
1.0
 40
1.0
 40
1.0
 10
44.21228096843719
 20
-20.2597568031953
 30
0.0
 10
44.17015927340681
 20
-20.25877351005567
 30
0.0
 10
44.08799204912913
 20
-20.25685539000194
 30
0.0
 10
43.9683865516038
 20
-20.24031899191524
 30
0.0
 10
43.85577562154879
 20
-20.21334268446352
 30
0.0
 10
43.75016559010283
 20
-20.17565793461387
 30
0.0
 10
43.65181508789352
 20
-20.12643451396505
 30
0.0
 10
43.56052864091186
 20
-20.06646924384757
 30
0.0
 10
43.47582619016703
 20
-19.99607016840025
 30
0.0
 10
43.40037686800833
 20
-19.91462750255427
 30
0.0
 10
43.33245353997081
 20
-19.82747153915821
 30
0.0
 10
43.27251712284881
 20
-19.73665220959881
 30
0.0
 10
43.22241075337784
 20
-19.64239801719259
 30
0.0
 10
43.18165137321009
 20
-19.54530899658384
 30
0.0
 10
43.14873291752167
 20
-19.44599708783258
 30
0.0
 10
43.12579002857671
 20
-19.34355868705896
 30
0.0
 10
43.11256453030636
 20
-19.23827104342453
 30
0.0
 10
43.11053786270293
 20
-19.16704475566645
 30
0.0
 10
43.10951654536027
 20
-19.13115103396454
 30
0.0
  0
SPLINE
  5
17F
330
1F
100
AcDbEntity
  8
0
  6
Continuous
 62
     7
370
    25
100
AcDbSpline
210
0.0
220
0.0
230
1.0
 70
     8
 71
     3
 72
    19
 73
    15
 74
     0
 42
0.000000001
 43
0.00000001
 40
0.0
 40
0.0
 40
0.0
 40
0.0
 40
0.0933698567361932
 40
0.1816607660710033
 40
0.2658742270426192
 40
0.3463547840343079
 40
0.4245998617178945
 40
0.5019031838373765
 40
0.5799920909873487
 40
0.658443430529432
 40
0.7386722364878362
 40
0.8218941484362458
 40
0.9088007920466143
 40
1.0
 40
1.0
 40
1.0
 40
1.0
 10
45.22490116074488
 20
-19.65458853396453
 30
0.0
 10
45.20584122196776
 20
-19.68839710362909
 30
0.0
 10
45.1687581289809
 20
-19.75417519175856
 30
0.0
 10
45.10498605936022
 20
-19.84454535787747
 30
0.0
 10
45.03813571143609
 20
-19.92584340002499
 30
0.0
 10
44.96518945314731
 20
-19.99589738941118
 30
0.0
 10
44.88832972832956
 20
-20.05697000510335
 30
0.0
 10
44.80713030994185
 20
-20.11040242629102
 30
0.0
 10
44.72116846616868
 20
-20.15593258658743
 30
0.0
 10
44.63044013064446
 20
-20.19429189619267
 30
0.0
 10
44.53418337252319
 20
-20.22378574828516
 30
0.0
 10
44.43216492988601
 20
-20.24461793764604
 30
0.0
 10
44.32418936241849
 20
-20.2574950250607
 30
0.0
 10
44.25017835110327
 20
-20.25899086001246
 30
0.0
 10
44.2122809684372
 20
-20.25975680319531
 30
0.0
  0
SPLINE
  5
181
330
1F
100
AcDbEntity
  8
0
  6
Continuous
 62
     7
370
    25
100
AcDbSpline
210
0.0
220
0.0
230
1.0
 70
     8
 71
     3
 72
    19
 73
    15
 74
     0
 42
0.000000001
 43
0.00000001
 40
0.0
 40
0.0
 40
0.0
 40
0.0
 40
0.0825922633314348
 40
0.1638788940984955
 40
0.2456587396295072
 40
0.3277256953541202
 40
0.4086099609103243
 40
0.4857490859539301
 40
0.5591690561972763
 40
0.6302684758575481
 40
0.7053060284320686
 40
0.7920649660966094
 40
0.8897964374100906
 40
1.0
 40
1.0
 40
1.0
 40
1.0
 10
44.17862712228334
 20
-19.99052603396453
 30
0.0
 10
44.20549953451535
 20
-19.99000484254177
 30
0.0
 10
44.25881955531041
 20
-19.988970698779
 30
0.0
 10
44.3382260044616
 20
-19.97891477514098
 30
0.0
 10
44.41634559937549
 20
-19.96265453889434
 30
0.0
 10
44.49285501360454
 20
-19.94046311882264
 30
0.0
 10
44.56620145296171
 20
-19.91339724558829
 30
0.0
 10
44.63412621015704
 20
-19.88073765331765
 30
0.0
 10
44.69659496640801
 20
-19.84460929896657
 30
0.0
 10
44.7549809377677
 20
-19.80328672035363
 30
0.0
 10
44.81161321778374
 20
-19.75270827435106
 30
0.0
 10
44.86779249185351
 20
-19.68959194207514
 30
0.0
 10
44.92802962330775
 20
-19.61494548968919
 30
0.0
 10
44.96573498851669
 20
-19.55876349027955
 30
0.0
 10
44.98571846843719
 20
-19.52898757242607
 30
0.0
  0
SPLINE
  5
182
330
1F
100
AcDbEntity
  8
0
  6
Continuous
 62
     7
370
    25
100
AcDbSpline
210
0.0
220
0.0
230
1.0
 70
     8
 71
     3
 72
    23
 73
    19
 74
     0
 42
0.000000001
 43
0.00000001
 40
0.0
 40
0.0
 40
0.0
 40
0.0
 40
0.0683846151037704
 40
0.1344755875434518
 40
0.1983910577839578
 40
0.2607534774484898
 40
0.3218292228076517
 40
0.383037238479527
 40
0.4446531231064263
 40
0.5073980112040053
 40
0.5698252379730284
 40
0.6307776406313155
 40
0.6909286865237204
 40
0.7509451326917382
 40
0.811049476729331
 40
0.8723308525469955
 40
0.9350040935894076
 40
0.9999999999999999
 40
0.9999999999999999
 40
0.9999999999999999
 40
0.9999999999999999
 10
43.37874731459104
 20
-19.18283372627222
 30
0.0
 10
43.3800669772446
 20
-19.21171983848403
 30
0.0
 10
43.38266204062877
 20
-19.26852321312664
 30
0.0
 10
43.39476073477142
 20
-19.35164102719733
 30
0.0
 10
43.41383111229219
 20
-19.43081817762329
 30
0.0
 10
43.44063316598234
 20
-19.50546078502913
 30
0.0
 10
43.47309046191511
 20
-19.5765437514708
 30
0.0
 10
43.51284964773163
 20
-19.6435397831582
 30
0.0
 10
43.56028355111948
 20
-19.70614372320097
 30
0.0
 10
43.61319129344892
 20
-19.76491555542365
 30
0.0
 10
43.6720830894509
 20
-19.81725335071025
 30
0.0
 10
43.73403972992619
 20
-19.86409773033963
 30
0.0
 10
43.79994849991692
 20
-19.90335967039337
 30
0.0
 10
43.86928971434033
 20
-19.9352281473249
 30
0.0
 10
43.94195124446389
 20
-19.9601764182327
 30
0.0
 10
44.01795598313453
 20
-19.97720597881807
 30
0.0
 10
44.09715436858146
 20
-19.98861207042509
 30
0.0
 10
44.15114214060954
 20
-19.98988035488268
 30
0.0
 10
44.17862712228334
 20
-19.99052603396453
 30
0.0
  0
SPLINE
  5
188
330
1F
100
AcDbEntity
  8
0
  6
Continuous
 62
     7
370
    25
100
AcDbSpline
210
0.0
220
0.0
230
1.0
 70
     8
 71
     3
 72
    15
 73
    11
 74
     0
 42
0.000000001
 43
0.00000001
 40
0.0
 40
0.0
 40
0.0
 40
0.0
 40
0.076995454717055
 40
0.1676150771831686
 40
0.2710523936342326
 40
0.3894595025720748
 40
0.5208428024655775
 40
0.6663987586080706
 40
0.8260936125153163
 40
1.0
 40
1.0
 40
1.0
 40
1.0
 10
48.38175212228334
 20
-18.84028564934915
 30
0.0
 10
48.37837528064703
 20
-18.85507582339534
 30
0.0
 10
48.37102407305193
 20
-18.88727325859999
 30
0.0
 10
48.36308420460148
 20
-18.94011133235821
 30
0.0
 10
48.35587771140005
 20
-19.00123416806577
 30
0.0
 10
48.34984603258413
 20
-19.07057043982793
 30
0.0
 10
48.34615567560933
 20
-19.14836290421438
 30
0.0
 10
48.34213190694621
 20
-19.23427933661781
 30
0.0
 10
48.34066699746072
 20
-19.3286623266373
 30
0.0
 10
48.34041640830285
 20
-19.39437234897282
 30
0.0
 10
48.34028577612951
 20
-19.428626995503
 30
0.0
  0
SPLINE
  5
189
330
1F
100
AcDbEntity
  8
0
  6
Continuous
 62
     7
370
    25
100
AcDbSpline
210
0.0
220
0.0
230
1.0
 70
     8
 71
     3
 72
    23
 73
    19
 74
     0
 42
0.000000001
 43
0.00000001
 40
0.0
 40
0.0
 40
0.0
 40
0.0
 40
0.0639861098164605
 40
0.1266268580894725
 40
0.1889843719814811
 40
0.2502301939603966
 40
0.3123511629623226
 40
0.3745736184579355
 40
0.4381475308781998
 40
0.5029204126073704
 40
0.5679740951402683
 40
0.6307713337491916
 40
0.6929346089254578
 40
0.7543975343123267
 40
0.8152183520172943
 40
0.8761169254810892
 40
0.9380146047939498
 40
1.0
 40
1.0
 40
1.0
 40
1.0
 10
49.1275453915141
 20
-18.2597568031953
 30
0.0
 10
49.10588737699566
 20
-18.26016480719263
 30
0.0
 10
49.06302672585131
 20
-18.26097223656155
 30
0.0
 10
48.99946960707457
 20
-18.26907334915266
 30
0.0
 10
48.9378203157792
 20
-18.28232345395127
 30
0.0
 10
48.8774601366408
 20
-18.30021085752196
 30
0.0
 10
48.81959631343935
 20
-18.3247785168557
 30
0.0
 10
48.76236977814205
 20
-18.35266083419133
 30
0.0
 10
48.70793540888791
 20
-18.38741644446447
 30
0.0
 10
48.6551324970635
 20
-18.4261512628414
 30
0.0
 10
48.60600723336077
 20
-18.46907629758219
 30
0.0
 10
48.56029722900879
 20
-18.51437159199896
 30
0.0
 10
48.51955035450785
 20
-18.56260782382418
 30
0.0
 10
48.48263434712182
 20
-18.6130077788491
 30
0.0
 10
48.45076726422676
 20
-18.66626363998947
 30
0.0
 10
48.42295033160192
 20
-18.7218616169713
 30
0.0
 10
48.39934830749473
 20
-18.77987488739176
 30
0.0
 10
48.3876202853777
 20
-18.82013922558954
 30
0.0
 10
48.38175212228334
 20
-18.84028564934915
 30
0.0
  0
SPLINE
  5
18A
330
1F
100
AcDbEntity
  8
0
  6
Continuous
 62
     7
370
    25
100
AcDbSpline
210
0.0
220
0.0
230
1.0
 70
     8
 71
     3
 72
    15
 73
    11
 74
     0
 42
0.000000001
 43
0.00000001
 40
0.0
 40
0.0
 40
0.0
 40
0.0
 40
0.1355195283706024
 40
0.2608331631936767
 40
0.3784760291245023
 40
0.4931776464746689
 40
0.6092809649289324
 40
0.7299810378566386
 40
0.8592613089300644
 40
1.0
 40
1.0
 40
1.0
 40
1.0
 10
49.69305019920642
 20
-18.69124718781068
 30
0.0
 10
49.68394260077243
 20
-18.65720902928413
 30
0.0
 10
49.66641329162267
 20
-18.59169610532022
 30
0.0
 10
49.62309844894398
 20
-18.50283237450182
 30
0.0
 10
49.56840057969769
 20
-18.427233927791
 30
0.0
 10
49.50163099452753
 20
-18.36536816639867
 30
0.0
 10
49.42343464397863
 20
-18.31722173493723
 30
0.0
 10
49.33402852160623
 20
-18.28381548802832
 30
0.0
 10
49.23427540102993
 20
-18.26292154300067
 30
0.0
 10
49.16411450159552
 20
-18.2608411441304
 30
0.0
 10
49.1275453915141
 20
-18.2597568031953
 30
0.0
  0
SPLINE
  5
18B
330
1F
100
AcDbEntity
  8
0
  6
Continuous
 62
     7
370
    25
100
AcDbSpline
210
0.0
220
0.0
230
1.0
 70
     8
 71
     3
 72
    15
 73
    11
 74
     0
 42
0.000000001
 43
0.00000001
 40
0.0
 40
0.0
 40
0.0
 40
0.0
 40
0.1788500194111555
 40
0.3421096489422994
 40
0.4898256633683912
 40
0.6232544282245603
 40
0.7400796760857912
 40
0.841482673069982
 40
0.928907672184064
 40
1.0
 40
1.0
 40
1.0
 40
1.0
 10
49.72490116074488
 20
-19.19004526473376
 30
0.0
 10
49.7247355538715
 20
-19.16019745479483
 30
0.0
 10
49.72441877610709
 20
-19.10310367413143
 30
0.0
 10
49.72341965037749
 20
-19.02135879711114
 30
0.0
 10
49.7210112447178
 20
-18.94722744419447
 30
0.0
 10
49.71762697650405
 20
-18.88088684356125
 30
0.0
 10
49.71267352176468
 20
-18.82240069793552
 30
0.0
 10
49.70751126632183
 20
-18.77164988930251
 30
0.0
 10
49.7011984290673
 20
-18.72869885293153
 30
0.0
 10
49.69557307494973
 20
-18.70284306803171
 30
0.0
 10
49.69305019920642
 20
-18.69124718781068
 30
0.0
  0
SPLINE
  5
18F
330
1F
100
AcDbEntity
  8
0
  6
Continuous
 62
     7
370
    25
100
AcDbSpline
210
0.0
220
0.0
230
1.0
 70
     8
 71
     3
 72
    23
 73
    19
 74
     0
 42
0.000000001
 43
0.00000001
 40
0.0
 40
0.0
 40
0.0
 40
0.0
 40
0.0772404236164806
 40
0.1511781404663818
 40
0.2234879838003997
 40
0.29554264419887
 40
0.3669762546197898
 40
0.4371305254863849
 40
0.5070436156432676
 40
0.5785597335236778
 40
0.6166135446965527
 40
0.6587562369775284
 40
0.704491226114404
 40
0.7548031149051504
 40
0.8093316253185656
 40
0.8682744554728208
 40
0.9320728834092932
 40
1.0
 40
1.0
 40
1.0
 40
1.0
 10
49.17442039151411
 20
-17.99052603396453
 30
0.0
 10
49.21498950647115
 20
-17.99202191577127
 30
0.0
 10
49.29439305026872
 20
-17.99494971729425
 30
0.0
 10
49.41000281716762
 20
-18.01810688110372
 30
0.0
 10
49.51798001175627
 20
-18.05765995692486
 30
0.0
 10
49.61793963100321
 20
-18.11184173155603
 30
0.0
 10
49.70804867102833
 20
-18.1792187087593
 30
0.0
 10
49.78718425800789
 20
-18.25771395026714
 30
0.0
 10
49.85263847004584
 20
-18.34800202161195
 30
0.0
 10
49.89652192404559
 20
-18.43176472695761
 30
0.0
 10
49.92542962206643
 20
-18.50606940776287
 30
0.0
 10
49.94362876850685
 20
-18.56970947927616
 30
0.0
 10
49.95908389547204
 20
-18.6406107517068
 30
0.0
 10
49.97248253663005
 20
-18.71855897089628
 30
0.0
 10
49.98154863251645
 20
-18.80410027682688
 30
0.0
 10
49.98869916811465
 20
-18.89688401287223
 30
0.0
 10
49.99382376321895
 20
-18.9968801247256
 30
0.0
 10
49.99402708349329
 20
-19.06604009107692
 30
0.0
 10
49.99413192997565
 20
-19.10170391857992
 30
0.0
  0
SPLINE
  5
190
330
1F
100
AcDbEntity
  8
0
  6
Continuous
 62
     7
370
    25
100
AcDbSpline
210
0.0
220
0.0
230
1.0
 70
     8
 71
     3
 72
    15
 73
    11
 74
     0
 42
0.000000001
 43
0.00000001
 40
0.0
 40
0.0
 40
0.0
 40
0.0
 40
0.1409759662687732
 40
0.2735687809631709
 40
0.3989883138042511
 40
0.5199297813924292
 40
0.6381100215247438
 40
0.7565889007405935
 40
0.8768597544106076
 40
1.0
 40
1.0
 40
1.0
 40
1.0
 10
48.3402857761295
 20
-18.42442026473376
 30
0.0
 10
48.36903232052845
 20
-18.38855507373008
 30
0.0
 10
48.42481599285408
 20
-18.31895741931017
 30
0.0
 10
48.51771684994731
 20
-18.22748264111582
 30
0.0
 10
48.61589733593807
 20
-18.15210101964885
 30
0.0
 10
48.71875619606998
 20
-18.09201205341088
 30
0.0
 10
48.82643306186987
 20
-18.04671494528344
 30
0.0
 10
48.93827157898112
 20
-18.01400129006716
 30
0.0
 10
49.05494132705638
 20
-17.99438572274747
 30
0.0
 10
49.13428227294797
 20
-17.99182266820503
 30
0.0
 10
49.17442039151411
 20
-17.99052603396453
 30
0.0
  0
SPLINE
  5
1A1
330
1F
100
AcDbEntity
  8
0
  6
Continuous
 62
     7
370
    25
100
AcDbSpline
210
0.0
220
0.0
230
1.0
 70
     8
 71
     3
 72
    23
 73
    19
 74
     0
 42
0.000000001
 43
0.00000001
 40
0.0
 40
0.0
 40
0.0
 40
0.0
 40
0.0981712978276937
 40
0.1892644356875845
 40
0.2744630560180418
 40
0.3550231712817396
 40
0.4309204620429338
 40
0.5010860453857549
 40
0.566607627037599
 40
0.6297208634282998
 40
0.6627106951128597
 40
0.6987655616316144
 40
0.738610537388963
 40
0.7825812280784448
 40
0.8304087872491274
 40
0.8825778660702784
 40
0.9392286810451779
 40
1.0
 40
1.0
 40
1.0
 40
1.0
 10
55.0494203915141
 20
-20.79821834165684
 30
0.0
 10
55.09636344038031
 20
-20.7969924998325
 30
0.0
 10
55.18686493979727
 20
-20.79462919949667
 30
0.0
 10
55.31700594183615
 20
-20.77539307592009
 30
0.0
 10
55.43580160303723
 20
-20.7431872755529
 30
0.0
 10
55.54256748928894
 20
-20.6980943730562
 30
0.0
 10
55.63604386232096
 20
-20.64285116745509
 30
0.0
 10
55.71662556913626
 20
-20.58113681796097
 30
0.0
 10
55.7818924344014
 20
-20.51155310109135
 30
0.0
 10
55.82578926297549
 20
-20.44745441015642
 30
0.0
 10
55.85307607806025
 20
-20.39034801327337
 30
0.0
 10
55.87045228100219
 20
-20.34118864530971
 30
0.0
 10
55.88457282624879
 20
-20.28560046445621
 30
0.0
 10
55.89638411556503
 20
-20.22376983340829
 30
0.0
 10
55.90613061274069
 20
-20.155608413065
 30
0.0
 10
55.91230451189565
 20
-20.08096035302941
 30
0.0
 10
55.91676663610046
 20
-19.99999530532494
 30
0.0
 10
55.91705803882786
 20
-19.94385832971666
 30
0.0
 10
55.91720885305257
 20
-19.91480488011838
 30
0.0
  0
SPLINE
  5
1A2
330
1F
100
AcDbEntity
  8
0
  6
Continuous
 62
     7
370
    25
100
AcDbSpline
210
0.0
220
0.0
230
1.0
 70
     8
 71
     3
 72
    23
 73
    19
 74
     0
 42
0.000000001
 43
0.00000001
 40
0.0
 40
0.0
 40
0.0
 40
0.0
 40
0.0645039992970556
 40
0.1268993215900402
 40
0.1877465401000115
 40
0.2481497329298264
 40
0.3085860647627423
 40
0.3695830050869943
 40
0.4318269653810495
 40
0.4961797225241572
 40
0.5606678546118795
 40
0.6235044551176646
 40
0.6852604113304273
 40
0.7465368217511656
 40
0.8083273517367076
 40
0.8704861878877675
 40
0.9343168833592462
 40
1.0
 40
1.0
 40
1.0
 40
1.0
 10
32.98772167356539
 20
-12.74132731601581
 30
0.0
 10
32.98954290493331
 20
-12.81355906002011
 30
0.0
 10
32.99312583045058
 20
-12.95566124610627
 30
0.0
 10
33.02449378775817
 20
-13.16390145165618
 30
0.0
 10
33.07281089411936
 20
-13.36402757500474
 30
0.0
 10
33.14403570331466
 20
-13.5549445882812
 30
0.0
 10
33.23310800996843
 20
-13.73829356375486
 30
0.0
 10
33.34314642464654
 20
-13.91244799902264
 30
0.0
 10
33.473516546888
 20
-14.07745496239932
 30
0.0
 10
33.6216072991763
 20
-14.23216248949895
 30
0.0
 10
33.78349688003285
 20
-14.37337078126967
 30
0.0
 10
33.9554007799314
 20
-14.49731850790552
 30
0.0
 10
34.13547736205612
 20
-14.60219029336765
 30
0.0
 10
34.32419622307392
 20
-14.68762611105819
 30
0.0
 10
34.52054985025871
 20
-14.75532573648533
 30
0.0
 10
34.7258034945979
 20
-14.80172378095325
 30
0.0
 10
34.93858986543164
 20
-14.83226014576452
 30
0.0
 10
35.0836336585175
 20
-14.83519265422328
 30
0.0
 10
35.15719282741155
 20
-14.83667988011838
 30
0.0
  0
SPLINE
  5
1A3
330
1F
100
AcDbEntity
  8
0
  6
Continuous
 62
     7
370
    25
100
AcDbSpline
210
0.0
220
0.0
230
1.0
 70
     8
 71
     3
 72
    31
 73
    27
 74
     0
 42
0.000000001
 43
0.00000001
 40
0.0
 40
0.0
 40
0.0
 40
0.0
 40
0.0420233285259239
 40
0.0836449111687119
 40
0.124983795417394
 40
0.1662474611728957
 40
0.2077015560969893
 40
0.2496310707996491
 40
0.2917417703321305
 40
0.3347428753531995
 40
0.3774601685508653
 40
0.4195563188419408
 40
0.4610441763330342
 40
0.5020962839443965
 40
0.5428907140756
 40
0.5838008186265053
 40
0.6248635833101939
 40
0.6662246890691704
 40
0.7073991864779368
 40
0.7485566775366935
 40
0.7896545909521802
 40
0.8307397264898326
 40
0.8720701422586051
 40
0.9139933952421332
 40
0.9564981300675885
 40
1.0
 40
1.0
 40
1.0
 40
1.0
 10
35.15719282741155
 20
-10.60591064934915
 30
0.0
 10
35.10974335091677
 20
-10.60648906399664
 30
0.0
 10
35.01529801815452
 20
-10.60764036360819
 30
0.0
 10
34.87489153780202
 20
-10.6228056715684
 30
0.0
 10
34.73633163232944
 20
-10.64441979867034
 30
0.0
 10
34.59958968636998
 20
-10.67525054261968
 30
0.0
 10
34.46523784440168
 20
-10.71725633229628
 30
0.0
 10
34.33202378558298
 20
-10.76560048685257
 30
0.0
 10
34.2011622800562
 20
-10.82448775913174
 30
0.0
 10
34.07308534026141
 20
-10.89102019394553
 30
0.0
 10
33.9489209471957
 20
-10.96466150937946
 30
0.0
 10
33.83175994511748
 20
-11.04604974800104
 30
0.0
 10
33.72129902516925
 20
-11.1332762540686
 30
0.0
 10
33.61780864423682
 20
-11.22654459317907
 30
0.0
 10
33.52159268398751
 20
-11.32632973859501
 30
0.0
 10
33.43075739619785
 20
-11.43111893304891
 30
0.0
 10
33.34894370813205
 20
-11.54390734882556
 30
0.0
 10
33.27396431266502
 20
-11.66163650149253
 30
0.0
 10
33.20686739798308
 20
-11.78415304607223
 30
0.0
 10
33.14720260552236
 20
-11.91016713502641
 30
0.0
 10
33.09839687865737
 20
-12.04070668756695
 30
0.0
 10
33.0585934839657
 20
-12.17435548410445
 30
0.0
 10
33.02559375418461
 20
-12.31090185505226
 30
0.0
 10
33.00468814833556
 20
-12.4513816391083
 30
0.0
 10
32.98935620626606
 20
-12.59508894200776
 30
0.0
 10
32.98827071276236
 20
-12.69220587635374
 30
0.0
 10
32.98772167356539
 20
-12.74132731601581
 30
0.0
  0
SPLINE
  5
1A4
330
1F
100
AcDbEntity
  8
0
  6
Continuous
 62
     7
370
    25
100
AcDbSpline
210
0.0
220
0.0
230
1.0
 70
     8
 71
     3
 72
    31
 73
    27
 74
     0
 42
0.000000001
 43
0.00000001
 40
0.0
 40
0.0
 40
0.0
 40
0.0
 40
0.0429150821010501
 40
0.0851299705846993
 40
0.1264733185549993
 40
0.1674530378853892
 40
0.2079763328949886
 40
0.2482493780637606
 40
0.2887499869834436
 40
0.329669856910873
 40
0.3705372867119749
 40
0.4111285639171184
 40
0.4518189126736381
 40
0.4924058769342636
 40
0.5334858617420232
 40
0.5752630624415521
 40
0.6174406128021906
 40
0.6606716882923658
 40
0.7039402042434898
 40
0.74686752215987
 40
0.7890793003947234
 40
0.8311040424574053
 40
0.8732379898547759
 40
0.9151657696593339
 40
0.9573806581429837
 40
0.9999999999999999
 40
0.9999999999999999
 40
0.9999999999999999
 40
0.9999999999999999
 10
37.34669603253975
 20
-12.71829045704146
 30
0.0
 10
37.3461230139995
 20
-12.66983973665795
 30
0.0
 10
37.3449863261712
 20
-12.57372880783942
 30
0.0
 10
37.32992564813641
 20
-12.43164192446609
 30
0.0
 10
37.30835294760807
 20
-12.29270876521777
 30
0.0
 10
37.27726336469446
 20
-12.15747476093771
 30
0.0
 10
37.23719171650073
 20
-12.02590543941377
 30
0.0
 10
37.18778124451666
 20
-11.89812437126923
 30
0.0
 10
37.12951653098261
 20
-11.77365552115032
 30
0.0
 10
37.06264763900882
 20
-11.65280652543631
 30
0.0
 10
36.98748217689967
 20
-11.53684261402563
 30
0.0
 10
36.90534754359837
 20
-11.42598202470358
 30
0.0
 10
36.81482561768246
 20
-11.32230667997418
 30
0.0
 10
36.71850272500563
 20
-11.22325711705504
 30
0.0
 10
36.6139728888212
 20
-11.13094584618676
 30
0.0
 10
36.50170961156527
 20
-11.04534224524741
 30
0.0
 10
36.38307578619177
 20
-10.96438042483466
 30
0.0
 10
36.25746544985891
 20
-10.89134390791944
 30
0.0
 10
36.12783123024197
 20
-10.82389500404345
 30
0.0
 10
35.99481129028114
 20
-10.76610785669402
 30
0.0
 10
35.85991257654363
 20
-10.71700482899779
 30
0.0
 10
35.72347813035486
 20
-10.6751234503541
 30
0.0
 10
35.58435958987572
 20
-10.64454055014822
 30
0.0
 10
35.44349697723729
 20
-10.62278619320536
 30
0.0
 10
35.30108517927216
 20
-10.60764564192903
 30
0.0
 10
35.20530915109564
 20
-10.6064908154489
 30
0.0
 10
35.15719282741155
 20
-10.60591064934915
 30
0.0
  0
SPLINE
  5
1A5
330
1F
100
AcDbEntity
  8
0
  6
Continuous
 62
     7
370
    25
100
AcDbSpline
210
0.0
220
0.0
230
1.0
 70
     8
 71
     3
 72
    31
 73
    27
 74
     0
 42
0.000000001
 43
0.00000001
 40
0.0
 40
0.0
 40
0.0
 40
0.0
 40
0.0436332182657575
 40
0.0865377766972015
 40
0.1291773360898909
 40
0.1714363236638274
 40
0.213415894570908
 40
0.255265954553849
 40
0.2973694811566226
 40
0.3399407478985561
 40
0.382347458751811
 40
0.4239529468152711
 40
0.4648711632610176
 40
0.5055722941182719
 40
0.546002577108316
 40
0.5865679748069133
 40
0.6270647991481676
 40
0.6682706840331739
 40
0.7095492248503333
 40
0.750428153513189
 40
0.7910961944485934
 40
0.8320271447794343
 40
0.8731359553359672
 40
0.9146107643654494
 40
0.956955986480438
 40
1.0
 40
1.0
 40
1.0
 40
1.0
 10
35.15719282741155
 20
-14.83667988011838
 30
0.0
 10
35.20663497257183
 20
-14.8360005881667
 30
0.0
 10
35.30469359596405
 20
-14.8346533482068
 30
0.0
 10
35.45054434218229
 20
-14.82108380986844
 30
0.0
 10
35.59376750179796
 20
-14.79932399641392
 30
0.0
 10
35.73416218734121
 20
-14.76799448840128
 30
0.0
 10
35.87156906075046
 20
-14.72878419350403
 30
0.0
 10
36.00656163662894
 20
-14.68220172499105
 30
0.0
 10
36.13770205137114
 20
-14.62408571972941
 30
0.0
 10
36.26664467680139
 20
-14.55987436033081
 30
0.0
 10
36.39006787921734
 20
-14.48667413528313
 30
0.0
 10
36.50789006820423
 20
-14.40804820719841
 30
0.0
 10
36.61714146799692
 20
-14.32095017761294
 30
0.0
 10
36.72055442716969
 20
-14.22906758826436
 30
0.0
 10
36.81716541144483
 20
-14.13054780561122
 30
0.0
 10
36.90632110319503
 20
-14.02551891725851
 30
0.0
 10
36.98772129198098
 20
-13.913317978354
 30
0.0
 10
37.06267221570813
 20
-13.79576739872503
 30
0.0
 10
37.12953401964499
 20
-13.67291560917473
 30
0.0
 10
37.18778987542943
 20
-13.54644464067705
 30
0.0
 10
37.2372128980476
 20
-13.41666591301035
 30
0.0
 10
37.27711076208941
 20
-13.28339223946554
 30
0.0
 10
37.30837570735105
 20
-13.14687674122148
 30
0.0
 10
37.32991845007675
 20
-13.00693662956242
 30
0.0
 10
37.34498764814388
 20
-12.86385185457654
 30
0.0
 10
37.34612347269627
 20
-12.76707491748837
 30
0.0
 10
37.34669603253975
 20
-12.71829045704146
 30
0.0
  0
SPLINE
  5
1A6
330
1F
100
AcDbEntity
  8
0
  6
Continuous
 62
     7
370
    25
100
AcDbSpline
210
0.0
220
0.0
230
1.0
 70
     8
 71
     3
 72
    19
 73
    15
 74
     0
 42
0.000000001
 43
0.00000001
 40
0.0
 40
0.0
 40
0.0
 40
0.0
 40
0.085920517411767
 40
0.1695934351247425
 40
0.2524755148685359
 40
0.3362444769570483
 40
0.4195045210415715
 40
0.5020359066440891
 40
0.584774647676871
 40
0.6698464747058005
 40
0.7541848663887859
 40
0.836658238329328
 40
0.918009725708805
 40
0.9999999999999999
 40
0.9999999999999999
 40
0.9999999999999999
 40
0.9999999999999999
 10
41.41841077612948
 20
-18.2597568031953
 30
0.0
 10
41.379055629382
 20
-18.2611570641072
 30
0.0
 10
41.30137482940781
 20
-18.26392095642622
 30
0.0
 10
41.1873371133543
 20
-18.28549823801299
 30
0.0
 10
41.07821132985027
 20
-18.3213993188962
 30
0.0
 10
40.97454326619151
 20
-18.37049809132624
 30
0.0
 10
40.8779705090864
 20
-18.43223700842656
 30
0.0
 10
40.79166164837555
 20
-18.50691247981956
 30
0.0
 10
40.71491076149906
 20
-18.5924870633807
 30
0.0
 10
40.6503608207281
 20
-18.68857458657227
 30
0.0
 10
40.59774039479695
 20
-18.79158437891682
 30
0.0
 10
40.56074008170832
 20
-18.89926246871773
 30
0.0
 10
40.53633786964333
 20
-19.00966673519489
 30
0.0
 10
40.5338448520192
 20
-19.0845490372901
 30
0.0
 10
40.53259346843718
 20
-19.12213661088761
 30
0.0
  0
SPLINE
  5
1A7
330
1F
100
AcDbEntity
  8
0
  6
Continuous
 62
     7
370
    25
100
AcDbSpline
210
0.0
220
0.0
230
1.0
 70
     8
 71
     3
 72
    23
 73
    19
 74
     0
 42
0.000000001
 43
0.00000001
 40
0.0
 40
0.0
 40
0.0
 40
0.0
 40
0.0656337996756884
 40
0.1291880880571282
 40
0.191218683112188
 40
0.2519128178811554
 40
0.3125074743865487
 40
0.3734944337751994
 40
0.4351515996540486
 40
0.4987414744066471
 40
0.5620952169966306
 40
0.6241865668116549
 40
0.685475718465193
 40
0.7460968148060506
 40
0.8076116364477864
 40
0.8699665806571878
 40
0.9339510189149048
 40
1.0
 40
1.0
 40
1.0
 40
1.0
 10
42.30182423766794
 20
-19.12994911088761
 30
0.0
 10
42.30100167506372
 20
-19.09965954188096
 30
0.0
 10
42.29938261155267
 20
-19.0400400847205
 30
0.0
 10
42.28701355195497
 20
-18.9525022125159
 30
0.0
 10
42.26733790074477
 20
-18.86873044735562
 30
0.0
 10
42.23961261215921
 20
-18.78863671387682
 30
0.0
 10
42.2031915112316
 20
-18.71266384353461
 30
0.0
 10
42.15926485475754
 20
-18.64026633478291
 30
0.0
 10
42.10706018355732
 20
-18.57182072502033
 30
0.0
 10
42.04741787261449
 20
-18.5082695213245
 30
0.0
 10
41.98213341328979
 20
-18.45030398224517
 30
0.0
 10
41.91305237846231
 20
-18.39856320449223
 30
0.0
 10
41.83935630964164
 20
-18.35605854214377
 30
0.0
 10
41.76228456371215
 20
-18.32088030943151
 30
0.0
 10
41.68170341988753
 20
-18.29288675237643
 30
0.0
 10
41.59695717432876
 20
-18.27421158628951
 30
0.0
 10
41.50894661410558
 20
-18.26138845397345
 30
0.0
 10
41.44890713805159
 20
-18.26030641331405
 30
0.0
 10
41.41841077612948
 20
-18.2597568031953
 30
0.0
  0
SPLINE
  5
1A8
330
1F
100
AcDbEntity
  8
0
  6
Continuous
 62
     7
370
    25
100
AcDbSpline
210
0.0
220
0.0
230
1.0
 70
     8
 71
     3
 72
    19
 73
    15
 74
     0
 42
0.000000001
 43
0.00000001
 40
0.0
 40
0.0
 40
0.0
 40
0.0
 40
0.0848023883688293
 40
0.1686635395998432
 40
0.2525519243727814
 40
0.3382396894642449
 40
0.4231026613931556
 40
0.5055560510576225
 40
0.5861756559890513
 40
0.6671357203303612
 40
0.7484991803055326
 40
0.8304523987582796
 40
0.9134557062010144
 40
1.0
 40
1.0
 40
1.0
 40
1.0
 10
41.41600692997564
 20
-19.99052603396454
 30
0.0
 10
41.45496107520037
 20
-19.98910320774241
 30
0.0
 10
41.53243700650446
 20
-19.98627334750529
 30
0.0
 10
41.64681304183019
 20
-19.96460369153967
 30
0.0
 10
41.75780872422835
 20
-19.92880186438247
 30
0.0
 10
41.86391206283837
 20
-19.87917404146763
 30
0.0
 10
41.96275446096509
 20
-19.81766773641299
 30
0.0
 10
42.05146692749346
 20
-19.74566165838651
 30
0.0
 10
42.12648061467074
 20
-19.66191607199623
 30
0.0
 10
42.1900742800235
 20
-19.56987911224337
 30
0.0
 10
42.23993892290803
 20
-19.46898311527691
 30
0.0
 10
42.27626125936265
 20
-19.36155380892327
 30
0.0
 10
42.29773603574235
 20
-19.24758745337038
 30
0.0
 10
42.30044266115026
 20
-19.16970408740585
 30
0.0
 10
42.30182423766795
 20
-19.12994911088761
 30
0.0
  0
SPLINE
  5
1A9
330
1F
100
AcDbEntity
  8
0
  6
Continuous
 62
     7
370
    25
100
AcDbSpline
210
0.0
220
0.0
230
1.0
 70
     8
 71
     3
 72
    19
 73
    15
 74
     0
 42
0.000000001
 43
0.00000001
 40
0.0
 40
0.0
 40
0.0
 40
0.0
 40
0.0815893489321827
 40
0.1628588951679352
 40
0.2454836892755789
 40
0.3308071391580112
 40
0.416493373776284
 40
0.4998932031606312
 40
0.5830481559950207
 40
0.6671578520621575
 40
0.7513119292929133
 40
0.8337847893576162
 40
0.9162564885439818
 40
1.0
 40
1.0
 40
1.0
 40
1.0
 10
40.53259346843718
 20
-19.12213661088761
 30
0.0
 10
40.53419194841698
 20
-19.15949955990246
 30
0.0
 10
40.53738264287485
 20
-19.23407900778889
 30
0.0
 10
40.5603118095017
 20
-19.34463378787607
 30
0.0
 10
40.59878027244473
 20
-19.45233725250005
 30
0.0
 10
40.65127346906877
 20
-19.5562752469455
 30
0.0
 10
40.71700486169338
 20
-19.6527759044001
 30
0.0
 10
40.79319513530957
 20
-19.73998172373858
 30
0.0
 10
40.8805810907206
 20
-19.81497279940099
 30
0.0
 10
40.9773760967841
 20
-19.87774786249141
 30
0.0
 10
41.08075435712725
 20
-19.9284585946875
 30
0.0
 10
41.18946915553256
 20
-19.96374342855062
 30
0.0
 10
41.30147684538097
 20
-19.9865243833679
 30
0.0
 10
41.37763598868264
 20
-19.98918536351396
 30
0.0
 10
41.41600692997564
 20
-19.99052603396453
 30
0.0
  0
SPLINE
  5
1AA
330
1F
100
AcDbEntity
  8
0
  6
Continuous
 62
     7
370
    25
100
AcDbSpline
210
0.0
220
0.0
230
1.0
 70
     8
 71
     3
 72
    19
 73
    15
 74
     0
 42
0.000000001
 43
0.00000001
 40
0.0
 40
0.0
 40
0.0
 40
0.0
 40
0.085920517411767
 40
0.1695934351247425
 40
0.2524755148685359
 40
0.3362444769570483
 40
0.4195045210415715
 40
0.5020359066440891
 40
0.584774647676871
 40
0.6698464747058005
 40
0.7541848663887859
 40
0.836658238329328
 40
0.918009725708805
 40
0.9999999999999999
 40
0.9999999999999999
 40
0.9999999999999999
 40
0.9999999999999999
 10
38.57225692997564
 20
-18.2597568031953
 30
0.0
 10
38.53290178322816
 20
-18.2611570641072
 30
0.0
 10
38.45522098325397
 20
-18.26392095642622
 30
0.0
 10
38.34118326720045
 20
-18.28549823801299
 30
0.0
 10
38.23205748369642
 20
-18.3213993188962
 30
0.0
 10
38.12838942003767
 20
-18.37049809132624
 30
0.0
 10
38.03181666293256
 20
-18.43223700842656
 30
0.0
 10
37.94550780222171
 20
-18.50691247981956
 30
0.0
 10
37.86875691534522
 20
-18.5924870633807
 30
0.0
 10
37.80420697457425
 20
-18.68857458657227
 30
0.0
 10
37.75158654864311
 20
-18.79158437891682
 30
0.0
 10
37.71458623555447
 20
-18.89926246871773
 30
0.0
 10
37.69018402348948
 20
-19.00966673519489
 30
0.0
 10
37.68769100586536
 20
-19.0845490372901
 30
0.0
 10
37.68643962228333
 20
-19.12213661088761
 30
0.0
  0
SPLINE
  5
1AB
330
1F
100
AcDbEntity
  8
0
  6
Continuous
 62
     7
370
    25
100
AcDbSpline
210
0.0
220
0.0
230
1.0
 70
     8
 71
     3
 72
    23
 73
    19
 74
     0
 42
0.000000001
 43
0.00000001
 40
0.0
 40
0.0
 40
0.0
 40
0.0
 40
0.0656337996756884
 40
0.1291880880571282
 40
0.191218683112188
 40
0.2519128178811554
 40
0.3125074743865487
 40
0.3734944337751994
 40
0.4351515996540486
 40
0.4987414744066471
 40
0.5620952169966306
 40
0.6241865668116549
 40
0.685475718465193
 40
0.7460968148060506
 40
0.8076116364477864
 40
0.8699665806571878
 40
0.9339510189149048
 40
1.0
 40
1.0
 40
1.0
 40
1.0
 10
39.4556703915141
 20
-19.12994911088761
 30
0.0
 10
39.45484782890988
 20
-19.09965954188096
 30
0.0
 10
39.45322876539883
 20
-19.0400400847205
 30
0.0
 10
39.44085970580113
 20
-18.9525022125159
 30
0.0
 10
39.42118405459092
 20
-18.86873044735562
 30
0.0
 10
39.39345876600536
 20
-18.78863671387682
 30
0.0
 10
39.35703766507775
 20
-18.71266384353461
 30
0.0
 10
39.31311100860368
 20
-18.64026633478291
 30
0.0
 10
39.26090633740347
 20
-18.57182072502033
 30
0.0
 10
39.20126402646065
 20
-18.5082695213245
 30
0.0
 10
39.13597956713595
 20
-18.45030398224517
 30
0.0
 10
39.06689853230846
 20
-18.39856320449223
 30
0.0
 10
38.9932024634878
 20
-18.35605854214377
 30
0.0
 10
38.91613071755831
 20
-18.32088030943151
 30
0.0
 10
38.83554957373368
 20
-18.29288675237643
 30
0.0
 10
38.75080332817492
 20
-18.27421158628951
 30
0.0
 10
38.66279276795174
 20
-18.26138845397345
 30
0.0
 10
38.60275329189776
 20
-18.26030641331405
 30
0.0
 10
38.57225692997564
 20
-18.2597568031953
 30
0.0
  0
SPLINE
  5
1AC
330
1F
100
AcDbEntity
  8
0
  6
Continuous
 62
     7
370
    25
100
AcDbSpline
210
0.0
220
0.0
230
1.0
 70
     8
 71
     3
 72
    19
 73
    15
 74
     0
 42
0.000000001
 43
0.00000001
 40
0.0
 40
0.0
 40
0.0
 40
0.0
 40
0.0848023883688293
 40
0.1686635395998432
 40
0.2525519243727814
 40
0.3382396894642449
 40
0.4231026613931556
 40
0.5055560510576225
 40
0.5861756559890513
 40
0.6671357203303612
 40
0.7484991803055326
 40
0.8304523987582796
 40
0.9134557062010144
 40
1.0
 40
1.0
 40
1.0
 40
1.0
 10
38.5698530838218
 20
-19.99052603396454
 30
0.0
 10
38.60880722904652
 20
-19.98910320774241
 30
0.0
 10
38.68628316035061
 20
-19.98627334750529
 30
0.0
 10
38.80065919567635
 20
-19.96460369153967
 30
0.0
 10
38.91165487807449
 20
-19.92880186438247
 30
0.0
 10
39.01775821668453
 20
-19.87917404146763
 30
0.0
 10
39.11660061481125
 20
-19.81766773641299
 30
0.0
 10
39.20531308133961
 20
-19.74566165838651
 30
0.0
 10
39.28032676851689
 20
-19.66191607199623
 30
0.0
 10
39.34392043386966
 20
-19.56987911224337
 30
0.0
 10
39.39378507675418
 20
-19.46898311527691
 30
0.0
 10
39.43010741320881
 20
-19.36155380892327
 30
0.0
 10
39.45158218958851
 20
-19.24758745337038
 30
0.0
 10
39.45428881499642
 20
-19.16970408740585
 30
0.0
 10
39.4556703915141
 20
-19.12994911088761
 30
0.0
  0
SPLINE
  5
1AD
330
1F
100
AcDbEntity
  8
0
  6
Continuous
 62
     7
370
    25
100
AcDbSpline
210
0.0
220
0.0
230
1.0
 70
     8
 71
     3
 72
    19
 73
    15
 74
     0
 42
0.000000001
 43
0.00000001
 40
0.0
 40
0.0
 40
0.0
 40
0.0
 40
0.0815893489321827
 40
0.1628588951679352
 40
0.2454836892755789
 40
0.3308071391580112
 40
0.416493373776284
 40
0.4998932031606312
 40
0.5830481559950207
 40
0.6671578520621575
 40
0.7513119292929133
 40
0.8337847893576162
 40
0.9162564885439818
 40
1.0
 40
1.0
 40
1.0
 40
1.0
 10
37.68643962228333
 20
-19.12213661088761
 30
0.0
 10
37.68803810226312
 20
-19.15949955990246
 30
0.0
 10
37.69122879672099
 20
-19.23407900778889
 30
0.0
 10
37.71415796334785
 20
-19.34463378787607
 30
0.0
 10
37.75262642629087
 20
-19.45233725250005
 30
0.0
 10
37.80511962291492
 20
-19.5562752469455
 30
0.0
 10
37.87085101553951
 20
-19.6527759044001
 30
0.0
 10
37.94704128915572
 20
-19.73998172373858
 30
0.0
 10
38.03442724456675
 20
-19.81497279940099
 30
0.0
 10
38.13122225063026
 20
-19.87774786249141
 30
0.0
 10
38.2346005109734
 20
-19.9284585946875
 30
0.0
 10
38.34331530937872
 20
-19.96374342855062
 30
0.0
 10
38.45532299922713
 20
-19.9865243833679
 30
0.0
 10
38.53148214252879
 20
-19.98918536351396
 30
0.0
 10
38.56985308382179
 20
-19.99052603396453
 30
0.0
  0
SPLINE
  5
1AE
330
1F
100
AcDbEntity
  8
0
  6
Continuous
 62
     7
370
    25
100
AcDbSpline
210
0.0
220
0.0
230
1.0
 70
     8
 71
     3
 72
    23
 73
    19
 74
     0
 42
0.000000001
 43
0.00000001
 40
0.0
 40
0.0
 40
0.0
 40
0.0
 40
0.0649830441815932
 40
0.1278026449472866
 40
0.1890563364713619
 40
0.248394647374936
 40
0.3076907059547572
 40
0.3669766194961128
 40
0.4273400442260062
 40
0.4887947153913458
 40
0.5506736934060078
 40
0.6120451114224865
 40
0.6733691390064666
 40
0.7349297539342525
 40
0.7978099682993257
 40
0.8628916725659023
 40
0.9300953375428145
 40
1.0
 40
1.0
 40
1.0
 40
1.0
 10
54.18643962228334
 20
-19.12874718781068
 30
0.0
 10
54.18706169956823
 20
-19.15783284999004
 30
0.0
 10
54.18828514367385
 20
-19.21503584199172
 30
0.0
 10
54.20004821031738
 20
-19.29898260889202
 30
0.0
 10
54.21906046614126
 20
-19.3789371634357
 30
0.0
 10
54.24600664297689
 20
-19.4549043415421
 30
0.0
 10
54.27939466716501
 20
-19.52731988001087
 30
0.0
 10
54.32138812799601
 20
-19.59568493836751
 30
0.0
 10
54.37080324659156
 20
-19.66006040071643
 30
0.0
 10
54.42725325052868
 20
-19.71997012795396
 30
0.0
 10
54.48946157784516
 20
-19.77453667231304
 30
0.0
 10
54.55693517725364
 20
-19.82248356428979
 30
0.0
 10
54.62958253415872
 20
-19.86169846793784
 30
0.0
 10
54.70561694290481
 20
-19.89559061446561
 30
0.0
 10
54.78688330517473
 20
-19.92034410126658
 30
0.0
 10
54.87221109323077
 20
-19.93923448328414
 30
0.0
 10
54.96220397593331
 20
-19.95004198975019
 30
0.0
 10
55.02355118102544
 20
-19.95138153071879
 30
0.0
 10
55.05482904536026
 20
-19.952064495503
 30
0.0
  0
SPLINE
  5
1AF
330
1F
100
AcDbEntity
  8
0
  6
Continuous
 62
     7
370
    25
100
AcDbSpline
210
0.0
220
0.0
230
1.0
 70
     8
 71
     3
 72
    19
 73
    15
 74
     0
 42
0.000000001
 43
0.00000001
 40
0.0
 40
0.0
 40
0.0
 40
0.0
 40
0.0855188992526815
 40
0.1693092867993386
 40
0.2522179032131825
 40
0.3367564541858562
 40
0.4205954942562031
 40
0.5027411035138971
 40
0.5848035507161513
 40
0.6682684846239478
 40
0.7518231297771577
 40
0.8336286284455313
 40
0.916219799115292
 40
0.9999999999999999
 40
0.9999999999999999
 40
0.9999999999999999
 40
0.9999999999999999
 10
55.07105500689872
 20
-18.2597568031953
 30
0.0
 10
55.03168583214061
 20
-18.26109485934002
 30
0.0
 10
54.95374321409452
 20
-18.26374392678053
 30
0.0
 10
54.83949606339258
 20
-18.2863593951975
 30
0.0
 10
54.72920154899541
 20
-18.32179873805859
 30
0.0
 10
54.62496832483693
 20
-18.37249240843146
 30
0.0
 10
54.52733365920307
 20
-18.43428746952793
 30
0.0
 10
54.44069809881044
 20
-18.50915057317731
 30
0.0
 10
54.36492245644514
 20
-18.59464731335866
 30
0.0
 10
54.30082279505005
 20
-18.69000466793422
 30
0.0
 10
54.24979590950021
 20
-18.79288090405096
 30
0.0
 10
54.21367297852997
 20
-18.90131867616597
 30
0.0
 10
54.19031581571895
 20
-19.0135658128502
 30
0.0
 10
54.18773782825317
 20
-19.09017090128859
 30
0.0
 10
54.18643962228334
 20
-19.12874718781068
 30
0.0
  0
SPLINE
  5
1B0
330
1F
100
AcDbEntity
  8
0
  6
Continuous
 62
     7
370
    25
100
AcDbSpline
210
0.0
220
0.0
230
1.0
 70
     8
 71
     3
 72
    19
 73
    15
 74
     0
 42
0.000000001
 43
0.00000001
 40
0.0
 40
0.0
 40
0.0
 40
0.0
 40
0.0892427932208493
 40
0.1743490578004788
 40
0.2576131087527845
 40
0.339527367322938
 40
0.4209973901479339
 40
0.5015790589405742
 40
0.5825417599975037
 40
0.6661326583338277
 40
0.7500491310216046
 40
0.8327429397442847
 40
0.9156474213323861
 40
0.9999999999999999
 40
0.9999999999999999
 40
0.9999999999999999
 40
0.9999999999999999
 10
55.91720885305257
 20
-19.11312218781069
 30
0.0
 10
55.9160606517645
 20
-19.07316402727421
 30
0.0
 10
55.91381746992856
 20
-18.995099822989
 30
0.0
 10
55.8926484776452
 20
-18.8813511647122
 30
0.0
 10
55.85851686891424
 20
-18.77440658719623
 30
0.0
 10
55.81064822410217
 20
-18.67460432216242
 30
0.0
 10
55.75066364523245
 20
-18.58300185098873
 30
0.0
 10
55.67841434624093
 20
-18.50129569858629
 30
0.0
 10
55.59514631999845
 20
-18.42938067866666
 30
0.0
 10
55.5010988055606
 20
-18.36946794136598
 30
0.0
 10
55.39991528116258
 20
-18.3210689975632
 30
0.0
 10
55.29403997022801
 20
-18.28475890716653
 30
0.0
 10
55.18363005831505
 20
-18.26419235142537
 30
0.0
 10
55.10879599298035
 20
-18.26124382862331
 30
0.0
 10
55.07105500689873
 20
-18.25975680319531
 30
0.0
  0
SPLINE
  5
1B1
330
1F
100
AcDbEntity
  8
0
  6
Continuous
 62
     7
370
    25
100
AcDbSpline
210
0.0
220
0.0
230
1.0
 70
     8
 71
     3
 72
    23
 73
    19
 74
     0
 42
0.000000001
 43
0.00000001
 40
0.0
 40
0.0
 40
0.0
 40
0.0
 40
0.0701214992195638
 40
0.1371218486740225
 40
0.2014871210766344
 40
0.2637651191668743
 40
0.3245600950367271
 40
0.384738886959465
 40
0.4449046043522681
 40
0.505231919616712
 40
0.5654939949839889
 40
0.6250997441456841
 40
0.6843497139440954
 40
0.7438828254849652
 40
0.8046082057523075
 40
0.8672389137717528
 40
0.9320942880208524
 40
0.9999999999999999
 40
0.9999999999999999
 40
0.9999999999999999
 40
0.9999999999999999
 10
55.05482904536026
 20
-19.952064495503
 30
0.0
 10
55.08651226667082
 20
-19.95140654489731
 30
0.0
 10
55.14846847020903
 20
-19.95011992945992
 30
0.0
 10
55.23895784426013
 20
-19.93905978784065
 30
0.0
 10
55.3247001931498
 20
-19.92121237959498
 30
0.0
 10
55.40561689803165
 20
-19.89587264360002
 30
0.0
 10
55.48201347608637
 20
-19.86353971449197
 30
0.0
 10
55.55303171717657
 20
-19.82262261376875
 30
0.0
 10
55.62019438694897
 20
-19.77602452915994
 30
0.0
 10
55.68135702373528
 20
-19.72167137411336
 30
0.0
 10
55.73666345132582
 20
-19.66176994983596
 30
0.0
 10
55.78486125151921
 20
-19.59658861125191
 30
0.0
 10
55.82593077925458
 20
-19.52710816635393
 30
0.0
 10
55.85994021055043
 20
-19.45333644720414
 30
0.0
 10
55.88590409983663
 20
-19.3747001445772
 30
0.0
 10
55.90332030412787
 20
-19.29139583962916
 30
0.0
 10
55.91549751426629
 20
-19.20382263489118
 30
0.0
 10
55.91662973543192
 20
-19.14381524959693
 30
0.0
 10
55.91720885305257
 20
-19.11312218781069
 30
0.0
  0
SPLINE
  5
1B2
330
1F
100
AcDbEntity
  8
0
  6
Continuous
 62
     7
370
    25
100
AcDbSpline
210
0.0
220
0.0
230
1.0
 70
     8
 71
     3
 72
    19
 73
    15
 74
     0
 42
0.000000001
 43
0.00000001
 40
0.0
 40
0.0
 40
0.0
 40
0.0
 40
0.0864403724626688
 40
0.1693440105424722
 40
0.2510606708491863
 40
0.3323264305703416
 40
0.4131892790502051
 40
0.4942994993596396
 40
0.5766538799957618
 40
0.6617849185411955
 40
0.7477649302742697
 40
0.8319674345471991
 40
0.9152994413086198
 40
1.0
 40
1.0
 40
1.0
 40
1.0
 10
59.26336269920643
 20
-19.12994911088761
 30
0.0
 10
59.26472629014932
 20
-19.16971035020341
 30
0.0
 10
59.26739768029294
 20
-19.24760598551878
 30
0.0
 10
59.28911542427178
 20
-19.36142094715898
 30
0.0
 10
59.32445993629705
 20
-19.46912236618126
 30
0.0
 10
59.37462740517218
 20
-19.56980325501592
 30
0.0
 10
59.43801104024799
 20
-19.66235997085118
 30
0.0
 10
59.51438088859756
 20
-19.74523763354653
 30
0.0
 10
59.60304593234301
 20
-19.81791528300155
 30
0.0
 10
59.70253209665307
 20
-19.87913350048039
 30
0.0
 10
59.80917963720029
 20
-19.92883755733622
 30
0.0
 10
59.92042470468068
 20
-19.96442116630073
 30
0.0
 10
60.03473745972229
 20
-19.98634021916048
 30
0.0
 10
60.11202459092952
 20
-19.98912320695607
 30
0.0
 10
60.15098289151411
 20
-19.99052603396453
 30
0.0
  0
SPLINE
  5
1B3
330
1F
100
AcDbEntity
  8
0
  6
Continuous
 62
     7
370
    25
100
AcDbSpline
210
0.0
220
0.0
230
1.0
 70
     8
 71
     3
 72
    23
 73
    19
 74
     0
 42
0.000000001
 43
0.00000001
 40
0.0
 40
0.0
 40
0.0
 40
0.0
 40
0.0660440693700012
 40
0.130023749441808
 40
0.1923740566421953
 40
0.2538843037504058
 40
0.3148960853343808
 40
0.3758058275294926
 40
0.4382422362453608
 40
0.5015912675509477
 40
0.5648807602801269
 40
0.626533341040064
 40
0.6875157651495291
 40
0.7481059155492422
 40
0.8087955368148524
 40
0.8708215189810375
 40
0.9343710811645495
 40
0.9999999999999999
 40
0.9999999999999999
 40
0.9999999999999999
 40
0.9999999999999999
 10
60.14677616074488
 20
-18.2597568031953
 30
0.0
 10
60.11627939289369
 20
-18.26030559594663
 30
0.0
 10
60.05623911766996
 20
-18.26138602742027
 30
0.0
 10
59.96823435854818
 20
-18.27422084067151
 30
0.0
 10
59.8834668490396
 20
-18.29285319026502
 30
0.0
 10
59.80279089068628
 20
-18.32106339047937
 30
0.0
 10
59.72543321942324
 20
-18.35569094462706
 30
0.0
 10
59.65198964962457
 20
-18.39896123994183
 30
0.0
 10
59.58251173456492
 20
-18.45009153066418
 30
0.0
 10
59.51717427995585
 20
-18.50810239686902
 30
0.0
 10
59.4581485998372
 20
-18.57202355811509
 30
0.0
 10
59.40589466157752
 20
-18.64024168022455
 30
0.0
 10
59.3620026857881
 20
-18.71267037133024
 30
0.0
 10
59.32557238270611
 20
-18.78863496776326
 30
0.0
 10
59.29784956898354
 20
-18.8687309264592
 30
0.0
 10
59.2781732377406
 20
-18.95250208018341
 30
0.0
 10
59.26580436390843
 20
-19.04004011941489
 30
0.0
 10
59.26418527481019
 20
-19.0996595535692
 30
0.0
 10
59.26336269920643
 20
-19.12994911088761
 30
0.0
  0
SPLINE
  5
1B4
330
1F
100
AcDbEntity
  8
0
  6
Continuous
 62
     7
370
    25
100
AcDbSpline
210
0.0
220
0.0
230
1.0
 70
     8
 71
     3
 72
    19
 73
    15
 74
     0
 42
0.000000001
 43
0.00000001
 40
0.0
 40
0.0
 40
0.0
 40
0.0
 40
0.0819940568376546
 40
0.1633492972937403
 40
0.2458264740680112
 40
0.3303671599787231
 40
0.4151983742785684
 40
0.4979409323876399
 40
0.5804761255002937
 40
0.6637400107109428
 40
0.7475128374040573
 40
0.8303987408369411
 40
0.9140755187235945
 40
1.0
 40
1.0
 40
1.0
 40
1.0
 10
61.03259346843718
 20
-19.12213661088761
 30
0.0
 10
61.03134655372144
 20
-19.08454662020738
 30
0.0
 10
61.02886243901295
 20
-19.00965950277826
 30
0.0
 10
61.00439354953705
 20
-18.89929130021682
 30
0.0
 10
60.96762214009031
 20
-18.79138732072258
 30
0.0
 10
60.91400009554332
 20
-18.6889411352223
 30
0.0
 10
60.85039900745673
 20
-18.59227763581627
 30
0.0
 10
60.77347301006464
 20
-18.5069457395386
 30
0.0
 10
60.6872305559607
 20
-18.43222802003465
 30
0.0
 10
60.59063984398631
 20
-18.3705005258837
 30
0.0
 10
60.48697662217702
 20
-18.32139867305244
 30
0.0
 10
60.37784955139468
 20
-18.2854984111401
 30
0.0
 10
60.26381217791063
 20
-18.26392091160945
 30
0.0
 10
60.18613133118026
 20
-18.26115704903687
 30
0.0
 10
60.14677616074488
 20
-18.2597568031953
 30
0.0
  0
SPLINE
  5
1B5
330
1F
100
AcDbEntity
  8
0
  6
Continuous
 62
     7
370
    25
100
AcDbSpline
210
0.0
220
0.0
230
1.0
 70
     8
 71
     3
 72
    19
 73
    15
 74
     0
 42
0.000000001
 43
0.00000001
 40
0.0
 40
0.0
 40
0.0
 40
0.0
 40
0.0834200466710291
 40
0.1655737957865948
 40
0.2481587766688926
 40
0.3320333067748062
 40
0.4162573489175284
 40
0.4995253498660675
 40
0.5830385602711591
 40
0.6685959042141681
 40
0.7540353502552558
 40
0.8369197002092041
 40
0.9182997313725128
 40
1.0
 40
1.0
 40
1.0
 40
1.0
 10
60.15098289151411
 20
-19.99052603396453
 30
0.0
 10
60.18915640690268
 20
-19.98919199663809
 30
0.0
 10
60.26492397229771
 20
-19.98654417237195
 30
0.0
 10
60.37648807642835
 20
-19.96362572584972
 30
0.0
 10
60.48490862364704
 20
-19.9286157048146
 30
0.0
 10
60.58792020004138
 20
-19.87756465643082
 30
0.0
 10
60.68462604671895
 20
-19.81500174955399
 30
0.0
 10
60.77195309262683
 20
-19.73995029258044
 30
0.0
 10
60.84824473279798
 20
-19.65295891267062
 30
0.0
 10
60.91327132285542
 20
-19.5560944816294
 30
0.0
 10
60.96566973882805
 20
-19.4522298670721
 30
0.0
 10
61.00503851591031
 20
-19.34476010542346
 30
0.0
 10
61.02776015012211
 20
-19.23406402848968
 30
0.0
 10
61.03098025458096
 20
-19.15949456027043
 30
0.0
 10
61.03259346843718
 20
-19.12213661088761
 30
0.0
  0
SPLINE
  5
1B6
330
1F
100
AcDbEntity
  8
0
  6
Continuous
 62
     7
370
    25
100
AcDbSpline
210
0.0
220
0.0
230
1.0
 70
     8
 71
     3
 72
    23
 73
    19
 74
     0
 42
0.000000001
 43
0.00000001
 40
0.0
 40
0.0
 40
0.0
 40
0.0
 40
0.0645039992970556
 40
0.1268993215900402
 40
0.1877465401000115
 40
0.2481497329298264
 40
0.3085860647627423
 40
0.3695830050869943
 40
0.4318269653810495
 40
0.4961797225241572
 40
0.5606678546118795
 40
0.6235044551176644
 40
0.6852604113304273
 40
0.7465368217511656
 40
0.8083273517367076
 40
0.8704861878877675
 40
0.9343168833592462
 40
1.0
 40
1.0
 40
1.0
 40
1.0
 10
47.21849090433462
 20
-12.74132731601582
 30
0.0
 10
47.22031213570254
 20
-12.81355906002012
 30
0.0
 10
47.22389506121981
 20
-12.95566124610627
 30
0.0
 10
47.2552630185274
 20
-13.16390145165619
 30
0.0
 10
47.30358012488859
 20
-13.36402757500474
 30
0.0
 10
47.37480493408389
 20
-13.5549445882812
 30
0.0
 10
47.46387724073765
 20
-13.73829356375486
 30
0.0
 10
47.57391565541579
 20
-13.91244799902264
 30
0.0
 10
47.70428577765721
 20
-14.07745496239932
 30
0.0
 10
47.85237652994553
 20
-14.23216248949895
 30
0.0
 10
48.01426611080206
 20
-14.37337078126967
 30
0.0
 10
48.18617001070063
 20
-14.49731850790551
 30
0.0
 10
48.36624659282534
 20
-14.60219029336765
 30
0.0
 10
48.55496545384315
 20
-14.68762611105818
 30
0.0
 10
48.75131908102793
 20
-14.75532573648534
 30
0.0
 10
48.95657272536712
 20
-14.80172378095325
 30
0.0
 10
49.16935909620087
 20
-14.83226014576452
 30
0.0
 10
49.31440288928673
 20
-14.83519265422328
 30
0.0
 10
49.38796205818078
 20
-14.83667988011838
 30
0.0
  0
SPLINE
  5
1B7
330
1F
100
AcDbEntity
  8
0
  6
Continuous
 62
     7
370
    25
100
AcDbSpline
210
0.0
220
0.0
230
1.0
 70
     8
 71
     3
 72
    31
 73
    27
 74
     0
 42
0.000000001
 43
0.00000001
 40
0.0
 40
0.0
 40
0.0
 40
0.0
 40
0.0420233285259239
 40
0.0836449111687118
 40
0.1249837954173941
 40
0.1662474611728958
 40
0.2077015560969893
 40
0.2496310707996492
 40
0.2917417703321303
 40
0.3347428753531996
 40
0.377460168550865
 40
0.4195563188419406
 40
0.4610441763330346
 40
0.5020962839443962
 40
0.5428907140756001
 40
0.5838008186265058
 40
0.6248635833101939
 40
0.6662246890691704
 40
0.7073991864779368
 40
0.7485566775366935
 40
0.7896545909521806
 40
0.8307397264898322
 40
0.8720701422586047
 40
0.9139933952421332
 40
0.9564981300675885
 40
1.0
 40
1.0
 40
1.0
 40
1.0
 10
49.38796205818078
 20
-10.60591064934915
 30
0.0
 10
49.34051258168601
 20
-10.60648906399664
 30
0.0
 10
49.24606724892376
 20
-10.60764036360819
 30
0.0
 10
49.10566076857125
 20
-10.6228056715684
 30
0.0
 10
48.96710086309866
 20
-10.64441979867034
 30
0.0
 10
48.83035891713921
 20
-10.67525054261968
 30
0.0
 10
48.6960070751709
 20
-10.71725633229628
 30
0.0
 10
48.5627930163522
 20
-10.76560048685258
 30
0.0
 10
48.43193151082541
 20
-10.82448775913174
 30
0.0
 10
48.30385457103063
 20
-10.89102019394553
 30
0.0
 10
48.17969017796491
 20
-10.96466150937946
 30
0.0
 10
48.06252917588672
 20
-11.04604974800104
 30
0.0
 10
47.95206825593847
 20
-11.1332762540686
 30
0.0
 10
47.84857787500604
 20
-11.22654459317906
 30
0.0
 10
47.75236191475674
 20
-11.32632973859501
 30
0.0
 10
47.66152662696708
 20
-11.43111893304892
 30
0.0
 10
47.57971293890127
 20
-11.54390734882555
 30
0.0
 10
47.50473354343425
 20
-11.66163650149254
 30
0.0
 10
47.43763662875232
 20
-11.78415304607224
 30
0.0
 10
47.37797183629159
 20
-11.91016713502641
 30
0.0
 10
47.32916610942661
 20
-12.04070668756695
 30
0.0
 10
47.28936271473492
 20
-12.17435548410445
 30
0.0
 10
47.25636298495385
 20
-12.31090185505227
 30
0.0
 10
47.23545737910478
 20
-12.4513816391083
 30
0.0
 10
47.22012543703528
 20
-12.59508894200776
 30
0.0
 10
47.21903994353158
 20
-12.69220587635374
 30
0.0
 10
47.21849090433462
 20
-12.74132731601582
 30
0.0
  0
SPLINE
  5
1B8
330
1F
100
AcDbEntity
  8
0
  6
Continuous
 62
     7
370
    25
100
AcDbSpline
210
0.0
220
0.0
230
1.0
 70
     8
 71
     3
 72
    31
 73
    27
 74
     0
 42
0.000000001
 43
0.00000001
 40
0.0
 40
0.0
 40
0.0
 40
0.0
 40
0.0429150821010496
 40
0.0851299705846989
 40
0.1264733185549984
 40
0.1674530378853888
 40
0.2079763328949877
 40
0.2482493780637602
 40
0.2887499869834432
 40
0.3296698569108723
 40
0.3705372867119746
 40
0.4111285639171177
 40
0.4518189126736378
 40
0.4924058769342634
 40
0.5334858617420233
 40
0.5752630624415522
 40
0.6174406128021909
 40
0.6606716882923658
 40
0.70394020424349
 40
0.7468675221598698
 40
0.7890793003947234
 40
0.8311040424574053
 40
0.873237989854776
 40
0.9151657696593343
 40
0.9573806581429839
 40
1.0
 40
1.0
 40
1.0
 40
1.0
 10
51.57746526330897
 20
-12.71829045704146
 30
0.0
 10
51.57689224476874
 20
-12.66983973665795
 30
0.0
 10
51.57575555694043
 20
-12.57372880783942
 30
0.0
 10
51.56069487890562
 20
-12.43164192446609
 30
0.0
 10
51.5391221783773
 20
-12.29270876521777
 30
0.0
 10
51.5080325954637
 20
-12.15747476093772
 30
0.0
 10
51.46796094726994
 20
-12.02590543941377
 30
0.0
 10
51.41855047528589
 20
-11.89812437126922
 30
0.0
 10
51.36028576175185
 20
-11.77365552115032
 30
0.0
 10
51.29341686977802
 20
-11.65280652543631
 30
0.0
 10
51.21825140766889
 20
-11.53684261402563
 30
0.0
 10
51.13611677436759
 20
-11.42598202470359
 30
0.0
 10
51.0455948484517
 20
-11.32230667997419
 30
0.0
 10
50.94927195577485
 20
-11.22325711705504
 30
0.0
 10
50.84474211959043
 20
-11.13094584618675
 30
0.0
 10
50.73247884233452
 20
-11.04534224524742
 30
0.0
 10
50.61384501696099
 20
-10.96438042483465
 30
0.0
 10
50.48823468062813
 20
-10.89134390791944
 30
0.0
 10
50.35860046101122
 20
-10.82389500404345
 30
0.0
 10
50.22558052105036
 20
-10.76610785669403
 30
0.0
 10
50.09068180731284
 20
-10.71700482899778
 30
0.0
 10
49.95424736112409
 20
-10.67512345035411
 30
0.0
 10
49.81512882064498
 20
-10.64454055014823
 30
0.0
 10
49.67426620800651
 20
-10.62278619320536
 30
0.0
 10
49.53185441004138
 20
-10.60764564192903
 30
0.0
 10
49.43607838186487
 20
-10.6064908154489
 30
0.0
 10
49.38796205818078
 20
-10.60591064934915
 30
0.0
  0
SPLINE
  5
1B9
330
1F
100
AcDbEntity
  8
0
  6
Continuous
 62
     7
370
    25
100
AcDbSpline
210
0.0
220
0.0
230
1.0
 70
     8
 71
     3
 72
    31
 73
    27
 74
     0
 42
0.000000001
 43
0.00000001
 40
0.0
 40
0.0
 40
0.0
 40
0.0
 40
0.0436332182657575
 40
0.0865377766972015
 40
0.1291773360898908
 40
0.1714363236638274
 40
0.2134158945709079
 40
0.2552659545538489
 40
0.2973694811566224
 40
0.3399407478985558
 40
0.382347458751811
 40
0.4239529468152708
 40
0.4648711632610172
 40
0.5055722941182715
 40
0.5460025771083157
 40
0.5865679748069126
 40
0.6270647991481674
 40
0.6682706840331736
 40
0.709549224850333
 40
0.7504281535131887
 40
0.791096194448593
 40
0.832027144779434
 40
0.8731359553359669
 40
0.9146107643654485
 40
0.9569559864804376
 40
1.0
 40
1.0
 40
1.0
 40
1.0
 10
49.38796205818078
 20
-14.83667988011838
 30
0.0
 10
49.43740420334107
 20
-14.8360005881667
 30
0.0
 10
49.53546282673327
 20
-14.83465334820679
 30
0.0
 10
49.68131357295152
 20
-14.82108380986845
 30
0.0
 10
49.82453673256717
 20
-14.79932399641392
 30
0.0
 10
49.96493141811043
 20
-14.76799448840128
 30
0.0
 10
50.10233829151969
 20
-14.72878419350403
 30
0.0
 10
50.23733086739816
 20
-14.68220172499105
 30
0.0
 10
50.36847128214037
 20
-14.62408571972941
 30
0.0
 10
50.49741390757061
 20
-14.55987436033081
 30
0.0
 10
50.62083710998658
 20
-14.48667413528314
 30
0.0
 10
50.73865929897348
 20
-14.40804820719841
 30
0.0
 10
50.84791069876615
 20
-14.32095017761295
 30
0.0
 10
50.95132365793892
 20
-14.22906758826436
 30
0.0
 10
51.04793464221405
 20
-14.13054780561123
 30
0.0
 10
51.13709033396428
 20
-14.02551891725852
 30
0.0
 10
51.21849052275019
 20
-13.913317978354
 30
0.0
 10
51.29344144647737
 20
-13.79576739872504
 30
0.0
 10
51.3603032504142
 20
-13.67291560917473
 30
0.0
 10
51.41855910619866
 20
-13.54644464067706
 30
0.0
 10
51.46798212881683
 20
-13.41666591301035
 30
0.0
 10
51.50787999285864
 20
-13.28339223946554
 30
0.0
 10
51.53914493812027
 20
-13.14687674122148
 30
0.0
 10
51.56068768084597
 20
-13.00693662956241
 30
0.0
 10
51.57575687891311
 20
-12.86385185457655
 30
0.0
 10
51.5768927034655
 20
-12.76707491748836
 30
0.0
 10
51.57746526330897
 20
-12.71829045704146
 30
0.0
  0
SPLINE
  5
1BA
330
1F
100
AcDbEntity
  8
0
  6
Continuous
 62
     7
370
    25
100
AcDbSpline
210
0.0
220
0.0
230
1.0
 70
     8
 71
     3
 72
    19
 73
    15
 74
     0
 42
0.000000001
 43
0.00000001
 40
0.0
 40
0.0
 40
0.0
 40
0.0
 40
0.0962401251801519
 40
0.1852312611287023
 40
0.2675005230774396
 40
0.3444003817777769
 40
0.4195948685557282
 40
0.496890626592779
 40
0.5766379188385182
 40
0.6602678524196357
 40
0.7453866150876289
 40
0.8300403273864517
 40
0.9144742116388047
 40
1.0
 40
1.0
 40
1.0
 40
1.0
 10
45.07105500689873
 20
-18.91360295704145
 30
0.0
 10
45.06120075728141
 20
-18.87789192242044
 30
0.0
 10
45.04223449886605
 20
-18.80915967621151
 30
0.0
 10
45.00260332934053
 20
-18.71398177011667
 30
0.0
 10
44.95797058017241
 20
-18.62939214067986
 30
0.0
 10
44.90515195327971
 20
-18.55603816948893
 30
0.0
 10
44.845307331314
 20
-18.49089230121852
 30
0.0
 10
44.77618288904436
 20
-18.43396208536044
 30
0.0
 10
44.69866640890742
 20
-18.38303284158835
 30
0.0
 10
44.61315857404067
 20
-18.34004498490247
 30
0.0
 10
44.52260847254708
 20
-18.30345367742616
 30
0.0
 10
44.4278031651429
 20
-18.27891786392647
 30
0.0
 10
44.33106791839651
 20
-18.26210968481249
 30
0.0
 10
44.26563853009848
 20
-18.26054444901461
 30
0.0
 10
44.23271366074489
 20
-18.25975680319531
 30
0.0
  0
SPLINE
  5
1BC
330
1F
100
AcDbEntity
  8
0
  6
Continuous
 62
     7
370
    25
100
AcDbSpline
210
0.0
220
0.0
230
1.0
 70
     8
 71
     3
 72
    15
 73
    11
 74
     0
 42
0.000000001
 43
0.00000001
 40
0.0
 40
0.0
 40
0.0
 40
0.0
 40
0.1099838451118716
 40
0.2225804973638885
 40
0.3384998709624456
 40
0.4587085654776388
 40
0.5855353464579984
 40
0.7175177429458943
 40
0.8546668197510223
 40
1.0
 40
1.0
 40
1.0
 40
1.0
 10
43.66780981459104
 20
-18.46528564934915
 30
0.0
 10
43.65350128719301
 20
-18.47822363417011
 30
0.0
 10
43.62454431499805
 20
-18.50440696221621
 30
0.0
 10
43.58585243943582
 20
-18.54951771068853
 30
0.0
 10
43.54880631999049
 20
-18.59816190682741
 30
0.0
 10
43.51509176048823
 20
-18.65220058505439
 30
0.0
 10
43.48416811495131
 20
-18.71101839563147
 30
0.0
 10
43.45523099165332
 20
-18.77411922583273
 30
0.0
 10
43.42918549558339
 20
-18.84198190891411
 30
0.0
 10
43.41453168698327
 20
-18.88927257110978
 30
0.0
 10
43.40699250689873
 20
-18.91360295704145
 30
0.0
  0
SPLINE
  5
1BD
330
1F
100
AcDbEntity
  8
0
  6
Continuous
 62
     7
370
    25
100
AcDbSpline
210
0.0
220
0.0
230
1.0
 70
     8
 71
     3
 72
    15
 73
    11
 74
     0
 42
0.000000001
 43
0.00000001
 40
0.0
 40
0.0
 40
0.0
 40
0.0
 40
0.1310919762569256
 40
0.2591412763281474
 40
0.3841617634834029
 40
0.5059919524977741
 40
0.6290980893898569
 40
0.7506691234237024
 40
0.8740389376151235
 40
1.0
 40
1.0
 40
1.0
 40
1.0
 10
44.23271366074488
 20
-18.2597568031953
 30
0.0
 10
44.20584271344497
 20
-18.26028109309109
 30
0.0
 10
44.15272449997171
 20
-18.26131750398854
 30
0.0
 10
44.07446644152042
 20
-18.27114904341657
 30
0.0
 10
43.99931241387627
 20
-18.28740033902103
 30
0.0
 10
43.926707881638
 20
-18.30965601610859
 30
0.0
 10
43.85760428017613
 20
-18.33932053253952
 30
0.0
 10
43.79058019313154
 20
-18.37410615534765
 30
0.0
 10
43.72733985349313
 20
-18.41657037003549
 30
0.0
 10
43.68779017165566
 20
-18.44893510274879
 30
0.0
 10
43.66780981459104
 20
-18.46528564934915
 30
0.0
  0
LINE
  5
1BE
330
1F
100
AcDbEntity
  8
0
  6
Continuous
 62
     7
370
    25
100
AcDbLine
 10
43.3723370582
 20
-12.4007824442
 30
0.0
 11
44.2477376992
 21
-12.4118000724
 31
0.0
  0
LINE
  5
1BF
330
1F
100
AcDbEntity
  8
0
  6
Continuous
 62
     7
370
    25
100
AcDbLine
 10
43.3723370582
 20
-10.7341157776
 30
0.0
 11
43.3723370582
 21
-12.4007824442
 31
0.0
  0
LINE
  5
1C0
330
1F
100
AcDbEntity
  8
0
  6
Continuous
 62
     7
370
    25
100
AcDbLine
 10
44.2868001992
 20
-10.7341157776
 30
0.0
 11
43.3723370582
 21
-10.7341157776
 31
0.0
  0
LINE
  5
1C1
330
1F
100
AcDbEntity
  8
0
  6
Continuous
 62
     7
370
    25
100
AcDbLine
 10
39.2697729556
 20
-12.4007824442
 30
0.0
 11
40.1451735966
 21
-12.4118000724
 31
0.0
  0
LINE
  5
1C2
330
1F
100
AcDbEntity
  8
0
  6
Continuous
 62
     7
370
    25
100
AcDbLine
 10
40.1842360966
 20
-10.7341157776
 30
0.0
 11
39.2697729556
 21
-10.7341157776
 31
0.0
  0
LINE
  5
1C3
330
1F
100
AcDbEntity
  8
0
  6
Continuous
 62
     7
370
    25
100
AcDbLine
 10
39.2697729556
 20
-10.7341157776
 30
0.0
 11
39.2697729556
 21
-12.4007824442
 31
0.0
  0
LINE
  5
1C4
330
1F
100
AcDbEntity
  8
0
  6
Continuous
 62
     7
370
    25
100
AcDbLine
 10
57.3018242377
 20
-21.0289875724
 30
0.0
 11
57.0109588531
 21
-21.0289875724
 31
0.0
  0
LINE
  5
1C5
330
1F
100
AcDbEntity
  8
0
  6
Continuous
 62
     7
370
    25
100
AcDbLine
 10
58.6479780838
 20
-18.0289875724
 30
0.0
 11
57.3018242377
 21
-21.0289875724
 31
0.0
  0
LINE
  5
1C6
330
1F
100
AcDbEntity
  8
0
  6
Continuous
 62
     7
370
    25
100
AcDbLine
 10
58.3571126992
 20
-18.0289875724
 30
0.0
 11
58.6479780838
 21
-18.0289875724
 31
0.0
  0
LINE
  5
1C7
330
1F
100
AcDbEntity
  8
0
  6
Continuous
 62
     7
370
    25
100
AcDbLine
 10
57.60350693
 20
-19.7080741109
 30
0.0
 11
58.3571126992
 21
-18.0289875724
 31
0.0
  0
LINE
  5
1C8
330
1F
100
AcDbEntity
  8
0
  6
Continuous
 62
     7
370
    25
100
AcDbLine
 10
56.86131943
 20
-18.0289875724
 30
0.0
 11
57.60350693
 21
-19.7080741109
 31
0.0
  0
LINE
  5
1C9
330
1F
100
AcDbEntity
  8
0
  6
Continuous
 62
     7
370
    25
100
AcDbLine
 10
56.5710550069
 20
-18.0289875724
 30
0.0
 11
56.86131943
 21
-18.0289875724
 31
0.0
  0
LINE
  5
1CA
330
1F
100
AcDbEntity
  8
0
  6
Continuous
 62
     7
370
    25
100
AcDbLine
 10
57.4574732761
 20
-20.0343962263
 30
0.0
 11
56.5710550069
 21
-18.0289875724
 31
0.0
  0
LINE
  5
1CB
330
1F
100
AcDbEntity
  8
0
  6
Continuous
 62
     7
370
    25
100
AcDbLine
 10
57.0109588531
 20
-21.0289875724
 30
0.0
 11
57.4574732761
 21
-20.0343962263
 31
0.0
  0
LINE
  5
1CC
330
1F
100
AcDbEntity
  8
0
  6
Continuous
 62
     7
370
    25
100
AcDbLine
 10
55.9172088531
 20
-19.9148048801
 30
0.0
 11
55.9172088531
 21
-19.8012231493
 31
0.0
  0
LINE
  5
1CD
330
1F
100
AcDbEntity
  8
0
  6
Continuous
 62
     7
370
    25
100
AcDbLine
 10
53.9556703915
 20
-20.3751414186
 30
0.0
 11
54.2249011607
 21
-20.3751414186
 31
0.0
  0
LINE
  5
1CE
330
1F
100
AcDbEntity
  8
0
  6
Continuous
 62
     7
370
    25
100
AcDbLine
 10
56.1864396223
 20
-18.0289875724
 30
0.0
 11
56.1864396223
 21
-19.7687712263
 31
0.0
  0
LINE
  5
1CF
330
1F
100
AcDbEntity
  8
0
  6
Continuous
 62
     7
370
    25
100
AcDbLine
 10
55.9172088531
 20
-18.0289875724
 30
0.0
 11
56.1864396223
 21
-18.0289875724
 31
0.0
  0
LINE
  5
1D0
330
1F
100
AcDbEntity
  8
0
  6
Continuous
 62
     7
370
    25
100
AcDbLine
 10
55.9172088531
 20
-18.412401034
 30
0.0
 11
55.9172088531
 21
-18.0289875724
 31
0.0
  0
LINE
  5
1D1
330
1F
100
AcDbEntity
  8
0
  6
Continuous
 62
     7
370
    25
100
AcDbLine
 10
42.3018242377
 20
-20.2212952647
 30
0.0
 11
42.3018242377
 21
-19.842088534
 31
0.0
  0
LINE
  5
1D2
330
1F
100
AcDbEntity
  8
0
  6
Continuous
 62
     7
370
    25
100
AcDbLine
 10
42.5710550069
 20
-20.2212952647
 30
0.0
 11
42.3018242377
 21
-20.2212952647
 31
0.0
  0
LINE
  5
1D3
330
1F
100
AcDbEntity
  8
0
  6
Continuous
 62
     7
370
    25
100
AcDbLine
 10
42.5710550069
 20
-17.1443721878
 30
0.0
 11
42.5710550069
 21
-20.2212952647
 31
0.0
  0
LINE
  5
1D4
330
1F
100
AcDbEntity
  8
0
  6
Continuous
 62
     7
370
    25
100
AcDbLine
 10
42.3018242377
 20
-17.1443721878
 30
0.0
 11
42.5710550069
 21
-17.1443721878
 31
0.0
  0
LINE
  5
1D5
330
1F
100
AcDbEntity
  8
0
  6
Continuous
 62
     7
370
    25
100
AcDbLine
 10
42.3018242377
 20
-18.4532664186
 30
0.0
 11
42.3018242377
 21
-17.1443721878
 31
0.0
  0
LINE
  5
1D6
330
1F
100
AcDbEntity
  8
0
  6
Continuous
 62
     7
370
    25
100
AcDbLine
 10
39.2697729556
 20
-12.913602957
 30
0.0
 11
39.2697729556
 21
-15.2212952647
 31
0.0
  0
LINE
  5
1D7
330
1F
100
AcDbEntity
  8
0
  6
Continuous
 62
     7
370
    25
100
AcDbLine
 10
39.627345071
 20
-12.913602957
 30
0.0
 11
39.2697729556
 21
-12.913602957
 31
0.0
  0
LINE
  5
1D8
330
1F
100
AcDbEntity
  8
0
  6
Continuous
 62
     7
370
    25
100
AcDbLine
 10
38.8210550069
 20
-10.2212952647
 30
0.0
 11
39.8016239172
 21
-10.2212952647
 31
0.0
  0
LINE
  5
1D9
330
1F
100
AcDbEntity
  8
0
  6
Continuous
 62
     7
370
    25
100
AcDbLine
 10
38.8210550069
 20
-15.2212952647
 30
0.0
 11
38.8210550069
 21
-10.2212952647
 31
0.0
  0
LINE
  5
1DA
330
1F
100
AcDbEntity
  8
0
  6
Continuous
 62
     7
370
    25
100
AcDbLine
 10
39.2697729556
 20
-15.2212952647
 30
0.0
 11
38.8210550069
 21
-15.2212952647
 31
0.0
  0
LINE
  5
1DB
330
1F
100
AcDbEntity
  8
0
  6
Continuous
 62
     7
370
    25
100
AcDbLine
 10
61.7249011607
 20
-18.2982183417
 30
0.0
 11
61.7249011607
 21
-18.0289875724
 31
0.0
  0
LINE
  5
1DC
330
1F
100
AcDbEntity
  8
0
  6
Continuous
 62
     7
370
    25
100
AcDbLine
 10
62.1095165454
 20
-18.2982183417
 30
0.0
 11
61.7249011607
 21
-18.2982183417
 31
0.0
  0
LINE
  5
1DD
330
1F
100
AcDbEntity
  8
0
  6
Continuous
 62
     7
370
    25
100
AcDbLine
 10
62.1095165454
 20
-20.2212952647
 30
0.0
 11
62.1095165454
 21
-18.2982183417
 31
0.0
  0
LINE
  5
1DE
330
1F
100
AcDbEntity
  8
0
  6
Continuous
 62
     7
370
    25
100
AcDbLine
 10
62.3787473146
 20
-20.2212952647
 30
0.0
 11
62.1095165454
 21
-20.2212952647
 31
0.0
  0
LINE
  5
1DF
330
1F
100
AcDbEntity
  8
0
  6
Continuous
 62
     7
370
    25
100
AcDbLine
 10
62.3787473146
 20
-18.2982183417
 30
0.0
 11
62.3787473146
 21
-20.2212952647
 31
0.0
  0
LINE
  5
1E0
330
1F
100
AcDbEntity
  8
0
  6
Continuous
 62
     7
370
    25
100
AcDbLine
 10
62.7633626992
 20
-18.2982183417
 30
0.0
 11
62.3787473146
 21
-18.2982183417
 31
0.0
  0
LINE
  5
1E1
330
1F
100
AcDbEntity
  8
0
  6
Continuous
 62
     7
370
    25
100
AcDbLine
 10
62.7633626992
 20
-18.0289875724
 30
0.0
 11
62.7633626992
 21
-18.2982183417
 31
0.0
  0
LINE
  5
1E2
330
1F
100
AcDbEntity
  8
0
  6
Continuous
 62
     7
370
    25
100
AcDbLine
 10
62.3787473146
 20
-18.0289875724
 30
0.0
 11
62.7633626992
 21
-18.0289875724
 31
0.0
  0
LINE
  5
1E3
330
1F
100
AcDbEntity
  8
0
  6
Continuous
 62
     7
370
    25
100
AcDbLine
 10
62.3787473146
 20
-17.1443721878
 30
0.0
 11
62.3787473146
 21
-18.0289875724
 31
0.0
  0
LINE
  5
1E4
330
1F
100
AcDbEntity
  8
0
  6
Continuous
 62
     7
370
    25
100
AcDbLine
 10
62.1095165454
 20
-17.1443721878
 30
0.0
 11
62.3787473146
 21
-17.1443721878
 31
0.0
  0
LINE
  5
1E5
330
1F
100
AcDbEntity
  8
0
  6
Continuous
 62
     7
370
    25
100
AcDbLine
 10
62.1095165454
 20
-18.0289875724
 30
0.0
 11
62.1095165454
 21
-17.1443721878
 31
0.0
  0
LINE
  5
1E6
330
1F
100
AcDbEntity
  8
0
  6
Continuous
 62
     7
370
    25
100
AcDbLine
 10
61.7249011607
 20
-18.0289875724
 30
0.0
 11
62.1095165454
 21
-18.0289875724
 31
0.0
  0
LINE
  5
1E7
330
1F
100
AcDbEntity
  8
0
  6
Continuous
 62
     7
370
    25
100
AcDbLine
 10
-24.0
 20
26.25
 30
0.0
 11
-33.0
 21
26.25
 31
0.0
  0
LINE
  5
1E8
330
1F
100
AcDbEntity
  8
0
  6
Continuous
 62
     7
370
    25
100
AcDbLine
 10
-24.0
 20
28.75
 30
0.0
 11
-24.0
 21
26.25
 31
0.0
  0
LINE
  5
1E9
330
1F
100
AcDbEntity
  8
0
  6
Continuous
 62
     7
370
    25
100
AcDbLine
 10
-14.0
 20
28.75
 30
0.0
 11
-24.0
 21
28.75
 31
0.0
  0
LINE
  5
1EA
330
1F
100
AcDbEntity
  8
0
  6
Continuous
 62
     7
370
    25
100
AcDbLine
 10
-14.0
 20
26.25
 30
0.0
 11
-14.0
 21
28.75
 31
0.0
  0
LINE
  5
1EB
330
1F
100
AcDbEntity
  8
0
  6
Continuous
 62
     7
370
    25
100
AcDbLine
 10
-5.0
 20
26.25
 30
0.0
 11
-14.0
 21
26.25
 31
0.0
  0
LINE
  5
1EC
330
1F
100
AcDbEntity
  8
0
  6
Continuous
 62
     7
370
    25
100
AcDbLine
 10
-5.0
 20
28.75
 30
0.0
 11
-5.0
 21
26.25
 31
0.0
  0
LINE
  5
1ED
330
1F
100
AcDbEntity
  8
0
  6
Continuous
 62
     7
370
    25
100
AcDbLine
 10
5.0
 20
28.75
 30
0.0
 11
-5.0
 21
28.75
 31
0.0
  0
LINE
  5
1EE
330
1F
100
AcDbEntity
  8
0
  6
Continuous
 62
     7
370
    25
100
AcDbLine
 10
5.0
 20
26.25
 30
0.0
 11
5.0
 21
28.75
 31
0.0
  0
LINE
  5
1EF
330
1F
100
AcDbEntity
  8
0
  6
Continuous
 62
     7
370
    25
100
AcDbLine
 10
14.0
 20
26.25
 30
0.0
 11
5.0
 21
26.25
 31
0.0
  0
LINE
  5
1F0
330
1F
100
AcDbEntity
  8
0
  6
Continuous
 62
     7
370
    25
100
AcDbLine
 10
14.0
 20
28.75
 30
0.0
 11
14.0
 21
26.25
 31
0.0
  0
LINE
  5
1F1
330
1F
100
AcDbEntity
  8
0
  6
Continuous
 62
     7
370
    25
100
AcDbLine
 10
24.0
 20
28.75
 30
0.0
 11
14.0
 21
28.75
 31
0.0
  0
LINE
  5
1F2
330
1F
100
AcDbEntity
  8
0
  6
Continuous
 62
     7
370
    25
100
AcDbLine
 10
24.0
 20
26.25
 30
0.0
 11
24.0
 21
28.75
 31
0.0
  0
LINE
  5
1F3
330
1F
100
AcDbEntity
  8
0
  6
Continuous
 62
     7
370
    25
100
AcDbLine
 10
33.0
 20
26.25
 30
0.0
 11
24.0
 21
26.25
 31
0.0
  0
LINE
  5
1F4
330
1F
100
AcDbEntity
  8
0
  6
Continuous
 62
     7
370
    25
100
AcDbLine
 10
33.0
 20
28.75
 30
0.0
 11
33.0
 21
26.25
 31
0.0
  0
LINE
  5
1F5
330
1F
100
AcDbEntity
  8
0
  6
Continuous
 62
     7
370
    25
100
AcDbLine
 10
43.0
 20
28.75
 30
0.0
 11
33.0
 21
28.75
 31
0.0
  0
LINE
  5
1F6
330
1F
100
AcDbEntity
  8
0
  6
Continuous
 62
     7
370
    25
100
AcDbLine
 10
43.0
 20
26.25
 30
0.0
 11
43.0
 21
28.75
 31
0.0
  0
LINE
  5
1F7
330
1F
100
AcDbEntity
  8
0
  6
Continuous
 62
     7
370
    25
100
AcDbLine
 10
52.0
 20
26.25
 30
0.0
 11
43.0
 21
26.25
 31
0.0
  0
LINE
  5
1F8
330
1F
100
AcDbEntity
  8
0
  6
Continuous
 62
     7
370
    25
100
AcDbLine
 10
52.0
 20
28.75
 30
0.0
 11
52.0
 21
26.25
 31
0.0
  0
LINE
  5
1F9
330
1F
100
AcDbEntity
  8
0
  6
Continuous
 62
     7
370
    25
100
AcDbLine
 10
62.0
 20
28.75
 30
0.0
 11
52.0
 21
28.75
 31
0.0
  0
LINE
  5
1FA
330
1F
100
AcDbEntity
  8
0
  6
Continuous
 62
     7
370
    25
100
AcDbLine
 10
62.0
 20
26.25
 30
0.0
 11
62.0
 21
28.75
 31
0.0
  0
LINE
  5
1FB
330
1F
100
AcDbEntity
  8
0
  6
Continuous
 62
     7
370
    25
100
AcDbLine
 10
76.5
 20
26.25
 30
0.0
 11
62.0
 21
26.25
 31
0.0
  0
LINE
  5
1FC
330
1F
100
AcDbEntity
  8
0
  6
Continuous
 62
     7
370
    25
100
AcDbLine
 10
76.5
 20
-26.25
 30
0.0
 11
76.5
 21
26.25
 31
0.0
  0
LINE
  5
1FD
330
1F
100
AcDbEntity
  8
0
  6
Continuous
 62
     7
370
    25
100
AcDbLine
 10
62.0
 20
-26.25
 30
0.0
 11
76.5
 21
-26.25
 31
0.0
  0
LINE
  5
1FE
330
1F
100
AcDbEntity
  8
0
  6
Continuous
 62
     7
370
    25
100
AcDbLine
 10
62.0
 20
-28.75
 30
0.0
 11
62.0
 21
-26.25
 31
0.0
  0
LINE
  5
1FF
330
1F
100
AcDbEntity
  8
0
  6
Continuous
 62
     7
370
    25
100
AcDbLine
 10
52.0
 20
-28.75
 30
0.0
 11
62.0
 21
-28.75
 31
0.0
  0
LINE
  5
200
330
1F
100
AcDbEntity
  8
0
  6
Continuous
 62
     7
370
    25
100
AcDbLine
 10
52.0
 20
-26.25
 30
0.0
 11
52.0
 21
-28.75
 31
0.0
  0
LINE
  5
201
330
1F
100
AcDbEntity
  8
0
  6
Continuous
 62
     7
370
    25
100
AcDbLine
 10
43.0
 20
-26.25
 30
0.0
 11
52.0
 21
-26.25
 31
0.0
  0
LINE
  5
202
330
1F
100
AcDbEntity
  8
0
  6
Continuous
 62
     7
370
    25
100
AcDbLine
 10
43.0
 20
-28.75
 30
0.0
 11
43.0
 21
-26.25
 31
0.0
  0
LINE
  5
203
330
1F
100
AcDbEntity
  8
0
  6
Continuous
 62
     7
370
    25
100
AcDbLine
 10
33.0
 20
-28.75
 30
0.0
 11
43.0
 21
-28.75
 31
0.0
  0
LINE
  5
204
330
1F
100
AcDbEntity
  8
0
  6
Continuous
 62
     7
370
    25
100
AcDbLine
 10
33.0
 20
-26.25
 30
0.0
 11
33.0
 21
-28.75
 31
0.0
  0
LINE
  5
205
330
1F
100
AcDbEntity
  8
0
  6
Continuous
 62
     7
370
    25
100
AcDbLine
 10
24.0
 20
-26.25
 30
0.0
 11
33.0
 21
-26.25
 31
0.0
  0
LINE
  5
206
330
1F
100
AcDbEntity
  8
0
  6
Continuous
 62
     7
370
    25
100
AcDbLine
 10
24.0
 20
-28.75
 30
0.0
 11
24.0
 21
-26.25
 31
0.0
  0
LINE
  5
207
330
1F
100
AcDbEntity
  8
0
  6
Continuous
 62
     7
370
    25
100
AcDbLine
 10
14.0
 20
-28.75
 30
0.0
 11
24.0
 21
-28.75
 31
0.0
  0
LINE
  5
208
330
1F
100
AcDbEntity
  8
0
  6
Continuous
 62
     7
370
    25
100
AcDbLine
 10
14.0
 20
-26.25
 30
0.0
 11
14.0
 21
-28.75
 31
0.0
  0
LINE
  5
209
330
1F
100
AcDbEntity
  8
0
  6
Continuous
 62
     7
370
    25
100
AcDbLine
 10
5.0
 20
-26.25
 30
0.0
 11
14.0
 21
-26.25
 31
0.0
  0
LINE
  5
20A
330
1F
100
AcDbEntity
  8
0
  6
Continuous
 62
     7
370
    25
100
AcDbLine
 10
5.0
 20
-28.75
 30
0.0
 11
5.0
 21
-26.25
 31
0.0
  0
LINE
  5
20B
330
1F
100
AcDbEntity
  8
0
  6
Continuous
 62
     7
370
    25
100
AcDbLine
 10
-5.0
 20
-28.75
 30
0.0
 11
5.0
 21
-28.75
 31
0.0
  0
LINE
  5
20C
330
1F
100
AcDbEntity
  8
0
  6
Continuous
 62
     7
370
    25
100
AcDbLine
 10
-5.0
 20
-26.25
 30
0.0
 11
-5.0
 21
-28.75
 31
0.0
  0
LINE
  5
20D
330
1F
100
AcDbEntity
  8
0
  6
Continuous
 62
     7
370
    25
100
AcDbLine
 10
-14.0
 20
-26.25
 30
0.0
 11
-5.0
 21
-26.25
 31
0.0
  0
LINE
  5
20E
330
1F
100
AcDbEntity
  8
0
  6
Continuous
 62
     7
370
    25
100
AcDbLine
 10
-14.0
 20
-28.75
 30
0.0
 11
-14.0
 21
-26.25
 31
0.0
  0
LINE
  5
20F
330
1F
100
AcDbEntity
  8
0
  6
Continuous
 62
     7
370
    25
100
AcDbLine
 10
-24.0
 20
-28.75
 30
0.0
 11
-14.0
 21
-28.75
 31
0.0
  0
LINE
  5
210
330
1F
100
AcDbEntity
  8
0
  6
Continuous
 62
     7
370
    25
100
AcDbLine
 10
-24.0
 20
-26.25
 30
0.0
 11
-24.0
 21
-28.75
 31
0.0
  0
LINE
  5
211
330
1F
100
AcDbEntity
  8
0
  6
Continuous
 62
     7
370
    25
100
AcDbLine
 10
-33.0
 20
-26.25
 30
0.0
 11
-24.0
 21
-26.25
 31
0.0
  0
LINE
  5
212
330
1F
100
AcDbEntity
  8
0
  6
Continuous
 62
     7
370
    25
100
AcDbLine
 10
-33.0
 20
-28.75
 30
0.0
 11
-33.0
 21
-26.25
 31
0.0
  0
LINE
  5
213
330
1F
100
AcDbEntity
  8
0
  6
Continuous
 62
     7
370
    25
100
AcDbLine
 10
-43.0
 20
-28.75
 30
0.0
 11
-33.0
 21
-28.75
 31
0.0
  0
LINE
  5
214
330
1F
100
AcDbEntity
  8
0
  6
Continuous
 62
     7
370
    25
100
AcDbLine
 10
-43.0
 20
-26.25
 30
0.0
 11
-43.0
 21
-28.75
 31
0.0
  0
LINE
  5
215
330
1F
100
AcDbEntity
  8
0
  6
Continuous
 62
     7
370
    25
100
AcDbLine
 10
-52.0
 20
-26.25
 30
0.0
 11
-43.0
 21
-26.25
 31
0.0
  0
LINE
  5
216
330
1F
100
AcDbEntity
  8
0
  6
Continuous
 62
     7
370
    25
100
AcDbLine
 10
-52.0
 20
-28.75
 30
0.0
 11
-52.0
 21
-26.25
 31
0.0
  0
LINE
  5
217
330
1F
100
AcDbEntity
  8
0
  6
Continuous
 62
     7
370
    25
100
AcDbLine
 10
-62.0
 20
-28.75
 30
0.0
 11
-52.0
 21
-28.75
 31
0.0
  0
LINE
  5
218
330
1F
100
AcDbEntity
  8
0
  6
Continuous
 62
     7
370
    25
100
AcDbLine
 10
-62.0
 20
-26.25
 30
0.0
 11
-62.0
 21
-28.75
 31
0.0
  0
LINE
  5
219
330
1F
100
AcDbEntity
  8
0
  6
Continuous
 62
     7
370
    25
100
AcDbLine
 10
-76.5
 20
-26.25
 30
0.0
 11
-62.0
 21
-26.25
 31
0.0
  0
LINE
  5
21A
330
1F
100
AcDbEntity
  8
0
  6
Continuous
 62
     7
370
    25
100
AcDbLine
 10
-76.5
 20
26.25
 30
0.0
 11
-76.5
 21
-26.25
 31
0.0
  0
LINE
  5
21B
330
1F
100
AcDbEntity
  8
0
  6
Continuous
 62
     7
370
    25
100
AcDbLine
 10
-62.0
 20
26.25
 30
0.0
 11
-76.5
 21
26.25
 31
0.0
  0
LINE
  5
21C
330
1F
100
AcDbEntity
  8
0
  6
Continuous
 62
     7
370
    25
100
AcDbLine
 10
-62.0
 20
28.75
 30
0.0
 11
-62.0
 21
26.25
 31
0.0
  0
LINE
  5
21D
330
1F
100
AcDbEntity
  8
0
  6
Continuous
 62
     7
370
    25
100
AcDbLine
 10
-52.0
 20
28.75
 30
0.0
 11
-62.0
 21
28.75
 31
0.0
  0
LINE
  5
21E
330
1F
100
AcDbEntity
  8
0
  6
Continuous
 62
     7
370
    25
100
AcDbLine
 10
-52.0
 20
26.25
 30
0.0
 11
-52.0
 21
28.75
 31
0.0
  0
LINE
  5
21F
330
1F
100
AcDbEntity
  8
0
  6
Continuous
 62
     7
370
    25
100
AcDbLine
 10
-43.0
 20
26.25
 30
0.0
 11
-52.0
 21
26.25
 31
0.0
  0
LINE
  5
220
330
1F
100
AcDbEntity
  8
0
  6
Continuous
 62
     7
370
    25
100
AcDbLine
 10
-43.0
 20
28.75
 30
0.0
 11
-43.0
 21
26.25
 31
0.0
  0
LINE
  5
221
330
1F
100
AcDbEntity
  8
0
  6
Continuous
 62
     7
370
    25
100
AcDbLine
 10
-33.0
 20
28.75
 30
0.0
 11
-43.0
 21
28.75
 31
0.0
  0
LINE
  5
222
330
1F
100
AcDbEntity
  8
0
  6
Continuous
 62
     7
370
    25
100
AcDbLine
 10
-33.0
 20
26.25
 30
0.0
 11
-33.0
 21
28.75
 31
0.0
  0
LINE
  5
223
330
1F
100
AcDbEntity
  8
0
  6
Continuous
 62
     7
370
    25
100
AcDbLine
 10
71.0
 20
20.625
 30
0.0
 11
71.0
 21
10.625
 31
0.0
  0
LINE
  5
224
330
1F
100
AcDbEntity
  8
0
  6
Continuous
 62
     7
370
    25
100
AcDbLine
 10
71.0
 20
10.625
 30
0.0
 11
73.5
 21
10.625
 31
0.0
  0
LINE
  5
225
330
1F
100
AcDbEntity
  8
0
  6
Continuous
 62
     7
370
    25
100
AcDbLine
 10
73.5
 20
10.625
 30
0.0
 11
73.5
 21
20.625
 31
0.0
  0
LINE
  5
226
330
1F
100
AcDbEntity
  8
0
  6
Continuous
 62
     7
370
    25
100
AcDbLine
 10
73.5
 20
20.625
 30
0.0
 11
71.0
 21
20.625
 31
0.0
  0
LINE
  5
227
330
1F
100
AcDbEntity
  8
0
  6
Continuous
 62
     7
370
    25
100
AcDbLine
 10
-71.0
 20
10.625
 30
0.0
 11
-71.0
 21
20.625
 31
0.0
  0
LINE
  5
228
330
1F
100
AcDbEntity
  8
0
  6
Continuous
 62
     7
370
    25
100
AcDbLine
 10
-71.0
 20
20.625
 30
0.0
 11
-73.5
 21
20.625
 31
0.0
  0
LINE
  5
229
330
1F
100
AcDbEntity
  8
0
  6
Continuous
 62
     7
370
    25
100
AcDbLine
 10
-73.5
 20
20.625
 30
0.0
 11
-73.5
 21
10.625
 31
0.0
  0
LINE
  5
22A
330
1F
100
AcDbEntity
  8
0
  6
Continuous
 62
     7
370
    25
100
AcDbLine
 10
-73.5
 20
10.625
 30
0.0
 11
-71.0
 21
10.625
 31
0.0
  0
LINE
  5
22B
330
1F
100
AcDbEntity
  8
0
  6
Continuous
 62
     7
370
    25
100
AcDbLine
 10
71.0
 20
-5.0
 30
0.0
 11
73.5
 21
-5.0
 31
0.0
  0
LINE
  5
22C
330
1F
100
AcDbEntity
  8
0
  6
Continuous
 62
     7
370
    25
100
AcDbLine
 10
73.5
 20
-5.0
 30
0.0
 11
73.5
 21
5.0
 31
0.0
  0
LINE
  5
22D
330
1F
100
AcDbEntity
  8
0
  6
Continuous
 62
     7
370
    25
100
AcDbLine
 10
73.5
 20
5.0
 30
0.0
 11
71.0
 21
5.0
 31
0.0
  0
LINE
  5
22E
330
1F
100
AcDbEntity
  8
0
  6
Continuous
 62
     7
370
    25
100
AcDbLine
 10
71.0
 20
5.0
 30
0.0
 11
71.0
 21
-5.0
 31
0.0
  0
LINE
  5
22F
330
1F
100
AcDbEntity
  8
0
  6
Continuous
 62
     7
370
    25
100
AcDbLine
 10
-71.0
 20
-5.0
 30
0.0
 11
-71.0
 21
5.0
 31
0.0
  0
LINE
  5
230
330
1F
100
AcDbEntity
  8
0
  6
Continuous
 62
     7
370
    25
100
AcDbLine
 10
-71.0
 20
5.0
 30
0.0
 11
-73.5
 21
5.0
 31
0.0
  0
LINE
  5
231
330
1F
100
AcDbEntity
  8
0
  6
Continuous
 62
     7
370
    25
100
AcDbLine
 10
-73.5
 20
5.0
 30
0.0
 11
-73.5
 21
-5.0
 31
0.0
  0
LINE
  5
232
330
1F
100
AcDbEntity
  8
0
  6
Continuous
 62
     7
370
    25
100
AcDbLine
 10
-73.5
 20
-5.0
 30
0.0
 11
-71.0
 21
-5.0
 31
0.0
  0
LINE
  5
233
330
1F
100
AcDbEntity
  8
0
  6
Continuous
 62
     7
370
    25
100
AcDbLine
 10
71.0
 20
-20.625
 30
0.0
 11
73.5
 21
-20.625
 31
0.0
  0
LINE
  5
234
330
1F
100
AcDbEntity
  8
0
  6
Continuous
 62
     7
370
    25
100
AcDbLine
 10
73.5
 20
-20.625
 30
0.0
 11
73.5
 21
-10.625
 31
0.0
  0
LINE
  5
235
330
1F
100
AcDbEntity
  8
0
  6
Continuous
 62
     7
370
    25
100
AcDbLine
 10
73.5
 20
-10.625
 30
0.0
 11
71.0
 21
-10.625
 31
0.0
  0
LINE
  5
236
330
1F
100
AcDbEntity
  8
0
  6
Continuous
 62
     7
370
    25
100
AcDbLine
 10
71.0
 20
-10.625
 30
0.0
 11
71.0
 21
-20.625
 31
0.0
  0
LINE
  5
237
330
1F
100
AcDbEntity
  8
0
  6
Continuous
 62
     7
370
    25
100
AcDbLine
 10
-71.0
 20
-20.625
 30
0.0
 11
-71.0
 21
-10.625
 31
0.0
  0
LINE
  5
238
330
1F
100
AcDbEntity
  8
0
  6
Continuous
 62
     7
370
    25
100
AcDbLine
 10
-71.0
 20
-10.625
 30
0.0
 11
-73.5
 21
-10.625
 31
0.0
  0
LINE
  5
239
330
1F
100
AcDbEntity
  8
0
  6
Continuous
 62
     7
370
    25
100
AcDbLine
 10
-73.5
 20
-10.625
 30
0.0
 11
-73.5
 21
-20.625
 31
0.0
  0
LINE
  5
23A
330
1F
100
AcDbEntity
  8
0
  6
Continuous
 62
     7
370
    25
100
AcDbLine
 10
-73.5
 20
-20.625
 30
0.0
 11
-71.0
 21
-20.625
 31
0.0
  0
LINE
  5
23B
330
1F
100
AcDbEntity
  8
0
  6
Continuous
 62
     7
370
    25
100
AcDbLine
 10
-62.0
 20
1.25
 30
0.0
 11
-62.0
 21
-1.25
 31
0.0
  0
LINE
  5
23C
330
1F
100
AcDbEntity
  8
0
  6
Continuous
 62
     7
370
    25
100
AcDbLine
 10
-62.0
 20
-1.25
 30
0.0
 11
-52.0
 21
-1.25
 31
0.0
  0
LINE
  5
23D
330
1F
100
AcDbEntity
  8
0
  6
Continuous
 62
     7
370
    25
100
AcDbLine
 10
-52.0
 20
-1.25
 30
0.0
 11
-52.0
 21
1.25
 31
0.0
  0
LINE
  5
23E
330
1F
100
AcDbEntity
  8
0
  6
Continuous
 62
     7
370
    25
100
AcDbLine
 10
-52.0
 20
1.25
 30
0.0
 11
-62.0
 21
1.25
 31
0.0
  0
LINE
  5
23F
330
1F
100
AcDbEntity
  8
0
  6
Continuous
 62
     7
370
    25
100
AcDbLine
 10
-43.0
 20
-1.25
 30
0.0
 11
-33.0
 21
-1.25
 31
0.0
  0
LINE
  5
240
330
1F
100
AcDbEntity
  8
0
  6
Continuous
 62
     7
370
    25
100
AcDbLine
 10
-33.0
 20
-1.25
 30
0.0
 11
-33.0
 21
1.25
 31
0.0
  0
LINE
  5
241
330
1F
100
AcDbEntity
  8
0
  6
Continuous
 62
     7
370
    25
100
AcDbLine
 10
-33.0
 20
1.25
 30
0.0
 11
-43.0
 21
1.25
 31
0.0
  0
LINE
  5
242
330
1F
100
AcDbEntity
  8
0
  6
Continuous
 62
     7
370
    25
100
AcDbLine
 10
-43.0
 20
1.25
 30
0.0
 11
-43.0
 21
-1.25
 31
0.0
  0
LINE
  5
243
330
1F
100
AcDbEntity
  8
0
  6
Continuous
 62
     7
370
    25
100
AcDbLine
 10
-24.0
 20
-1.25
 30
0.0
 11
-14.0
 21
-1.25
 31
0.0
  0
LINE
  5
244
330
1F
100
AcDbEntity
  8
0
  6
Continuous
 62
     7
370
    25
100
AcDbLine
 10
-14.0
 20
-1.25
 30
0.0
 11
-14.0
 21
1.25
 31
0.0
  0
LINE
  5
245
330
1F
100
AcDbEntity
  8
0
  6
Continuous
 62
     7
370
    25
100
AcDbLine
 10
-14.0
 20
1.25
 30
0.0
 11
-24.0
 21
1.25
 31
0.0
  0
LINE
  5
246
330
1F
100
AcDbEntity
  8
0
  6
Continuous
 62
     7
370
    25
100
AcDbLine
 10
-24.0
 20
1.25
 30
0.0
 11
-24.0
 21
-1.25
 31
0.0
  0
LINE
  5
247
330
1F
100
AcDbEntity
  8
0
  6
Continuous
 62
     7
370
    25
100
AcDbLine
 10
-5.0
 20
-1.25
 30
0.0
 11
5.0
 21
-1.25
 31
0.0
  0
LINE
  5
248
330
1F
100
AcDbEntity
  8
0
  6
Continuous
 62
     7
370
    25
100
AcDbLine
 10
5.0
 20
-1.25
 30
0.0
 11
5.0
 21
1.25
 31
0.0
  0
LINE
  5
249
330
1F
100
AcDbEntity
  8
0
  6
Continuous
 62
     7
370
    25
100
AcDbLine
 10
5.0
 20
1.25
 30
0.0
 11
-5.0
 21
1.25
 31
0.0
  0
LINE
  5
24A
330
1F
100
AcDbEntity
  8
0
  6
Continuous
 62
     7
370
    25
100
AcDbLine
 10
-5.0
 20
1.25
 30
0.0
 11
-5.0
 21
-1.25
 31
0.0
  0
LINE
  5
24B
330
1F
100
AcDbEntity
  8
0
  6
Continuous
 62
     7
370
    25
100
AcDbLine
 10
14.0
 20
-1.25
 30
0.0
 11
24.0
 21
-1.25
 31
0.0
  0
LINE
  5
24C
330
1F
100
AcDbEntity
  8
0
  6
Continuous
 62
     7
370
    25
100
AcDbLine
 10
24.0
 20
-1.25
 30
0.0
 11
24.0
 21
1.25
 31
0.0
  0
LINE
  5
24D
330
1F
100
AcDbEntity
  8
0
  6
Continuous
 62
     7
370
    25
100
AcDbLine
 10
24.0
 20
1.25
 30
0.0
 11
14.0
 21
1.25
 31
0.0
  0
LINE
  5
24E
330
1F
100
AcDbEntity
  8
0
  6
Continuous
 62
     7
370
    25
100
AcDbLine
 10
14.0
 20
1.25
 30
0.0
 11
14.0
 21
-1.25
 31
0.0
  0
LINE
  5
24F
330
1F
100
AcDbEntity
  8
0
  6
Continuous
 62
     7
370
    25
100
AcDbLine
 10
33.0
 20
-1.25
 30
0.0
 11
43.0
 21
-1.25
 31
0.0
  0
LINE
  5
250
330
1F
100
AcDbEntity
  8
0
  6
Continuous
 62
     7
370
    25
100
AcDbLine
 10
43.0
 20
-1.25
 30
0.0
 11
43.0
 21
1.25
 31
0.0
  0
LINE
  5
251
330
1F
100
AcDbEntity
  8
0
  6
Continuous
 62
     7
370
    25
100
AcDbLine
 10
43.0
 20
1.25
 30
0.0
 11
33.0
 21
1.25
 31
0.0
  0
LINE
  5
252
330
1F
100
AcDbEntity
  8
0
  6
Continuous
 62
     7
370
    25
100
AcDbLine
 10
33.0
 20
1.25
 30
0.0
 11
33.0
 21
-1.25
 31
0.0
  0
LINE
  5
253
330
1F
100
AcDbEntity
  8
0
  6
Continuous
 62
     7
370
    25
100
AcDbLine
 10
52.0
 20
-1.25
 30
0.0
 11
62.0
 21
-1.25
 31
0.0
  0
LINE
  5
254
330
1F
100
AcDbEntity
  8
0
  6
Continuous
 62
     7
370
    25
100
AcDbLine
 10
62.0
 20
-1.25
 30
0.0
 11
62.0
 21
1.25
 31
0.0
  0
LINE
  5
255
330
1F
100
AcDbEntity
  8
0
  6
Continuous
 62
     7
370
    25
100
AcDbLine
 10
62.0
 20
1.25
 30
0.0
 11
52.0
 21
1.25
 31
0.0
  0
LINE
  5
256
330
1F
100
AcDbEntity
  8
0
  6
Continuous
 62
     7
370
    25
100
AcDbLine
 10
52.0
 20
1.25
 30
0.0
 11
52.0
 21
-1.25
 31
0.0
  0
LINE
  5
257
330
1F
100
AcDbEntity
  8
0
  6
Continuous
 62
     7
370
    25
100
AcDbLine
 10
59.2633626992
 20
-19.8240596878
 30
0.0
 11
59.2633626992
 21
-21.0289875724
 31
0.0
  0
LINE
  5
258
330
1F
100
AcDbEntity
  8
0
  6
Continuous
 62
     7
370
    25
100
AcDbLine
 10
59.2633626992
 20
-18.0289875724
 30
0.0
 11
59.2633626992
 21
-18.4346366109
 31
0.0
  0
LINE
  5
259
330
1F
100
AcDbEntity
  8
0
  6
Continuous
 62
     7
370
    25
100
AcDbLine
 10
58.99413193
 20
-18.0289875724
 30
0.0
 11
59.2633626992
 21
-18.0289875724
 31
0.0
  0
LINE
  5
25A
330
1F
100
AcDbEntity
  8
0
  6
Continuous
 62
     7
370
    25
100
AcDbLine
 10
58.99413193
 20
-21.0289875724
 30
0.0
 11
58.99413193
 21
-18.0289875724
 31
0.0
  0
LINE
  5
25B
330
1F
100
AcDbEntity
  8
0
  6
Continuous
 62
     7
370
    25
100
AcDbLine
 10
59.2633626992
 20
-21.0289875724
 30
0.0
 11
58.99413193
 21
-21.0289875724
 31
0.0
  0
LINE
  5
25C
330
1F
100
AcDbEntity
  8
0
  6
Continuous
 62
     7
370
    25
100
AcDbLine
 10
56.9620806479
 20
-10.2212952647
 30
0.0
 11
56.9620806479
 21
-15.2212952647
 31
0.0
  0
LINE
  5
25D
330
1F
100
AcDbEntity
  8
0
  6
Continuous
 62
     7
370
    25
100
AcDbLine
 10
56.5133626992
 20
-10.2212952647
 30
0.0
 11
56.9620806479
 21
-10.2212952647
 31
0.0
  0
LINE
  5
25E
330
1F
100
AcDbEntity
  8
0
  6
Continuous
 62
     7
370
    25
100
AcDbLine
 10
56.5133626992
 20
-15.2212952647
 30
0.0
 11
56.5133626992
 21
-10.2212952647
 31
0.0
  0
LINE
  5
25F
330
1F
100
AcDbEntity
  8
0
  6
Continuous
 62
     7
370
    25
100
AcDbLine
 10
56.9620806479
 20
-15.2212952647
 30
0.0
 11
56.5133626992
 21
-15.2212952647
 31
0.0
  0
LINE
  5
260
330
1F
100
AcDbEntity
  8
0
  6
Continuous
 62
     7
370
    25
100
AcDbLine
 10
59.2056703915
 20
-15.2212952647
 30
0.0
 11
58.7569524428
 21
-15.2212952647
 31
0.0
  0
LINE
  5
261
330
1F
100
AcDbEntity
  8
0
  6
Continuous
 62
     7
370
    25
100
AcDbLine
 10
59.2056703915
 20
-10.7341157776
 30
0.0
 11
59.2056703915
 21
-15.2212952647
 31
0.0
  0
LINE
  5
262
330
1F
100
AcDbEntity
  8
0
  6
Continuous
 62
     7
370
    25
100
AcDbLine
 10
60.2954139813
 20
-10.7341157776
 30
0.0
 11
59.2056703915
 21
-10.7341157776
 31
0.0
  0
LINE
  5
263
330
1F
100
AcDbEntity
  8
0
  6
Continuous
 62
     7
370
    25
100
AcDbLine
 10
60.2954139813
 20
-10.2212952647
 30
0.0
 11
60.2954139813
 21
-10.7341157776
 31
0.0
  0
LINE
  5
264
330
1F
100
AcDbEntity
  8
0
  6
Continuous
 62
     7
370
    25
100
AcDbLine
 10
57.6672088531
 20
-10.2212952647
 30
0.0
 11
60.2954139813
 21
-10.2212952647
 31
0.0
  0
LINE
  5
265
330
1F
100
AcDbEntity
  8
0
  6
Continuous
 62
     7
370
    25
100
AcDbLine
 10
57.6672088531
 20
-10.7341157776
 30
0.0
 11
57.6672088531
 21
-10.2212952647
 31
0.0
  0
LINE
  5
266
330
1F
100
AcDbEntity
  8
0
  6
Continuous
 62
     7
370
    25
100
AcDbLine
 10
58.7569524428
 20
-10.7341157776
 30
0.0
 11
57.6672088531
 21
-10.7341157776
 31
0.0
  0
LINE
  5
267
330
1F
100
AcDbEntity
  8
0
  6
Continuous
 62
     7
370
    25
100
AcDbLine
 10
58.7569524428
 20
-15.2212952647
 30
0.0
 11
58.7569524428
 21
-10.7341157776
 31
0.0
  0
LINE
  5
268
330
1F
100
AcDbEntity
  8
0
  6
Continuous
 62
     7
370
    25
100
AcDbLine
 10
63.885157571
 20
-14.7084747519
 30
0.0
 11
63.885157571
 21
-15.2212952647
 31
0.0
  0
LINE
  5
269
330
1F
100
AcDbEntity
  8
0
  6
Continuous
 62
     7
370
    25
100
AcDbLine
 10
61.5133626992
 20
-14.7084747519
 30
0.0
 11
63.885157571
 21
-14.7084747519
 31
0.0
  0
LINE
  5
26A
330
1F
100
AcDbEntity
  8
0
  6
Continuous
 62
     7
370
    25
100
AcDbLine
 10
61.5133626992
 20
-12.7853978288
 30
0.0
 11
61.5133626992
 21
-14.7084747519
 31
0.0
  0
LINE
  5
26B
330
1F
100
AcDbEntity
  8
0
  6
Continuous
 62
     7
370
    25
100
AcDbLine
 10
63.885157571
 20
-12.7853978288
 30
0.0
 11
61.5133626992
 21
-12.7853978288
 31
0.0
  0
LINE
  5
26C
330
1F
100
AcDbEntity
  8
0
  6
Continuous
 62
     7
370
    25
100
AcDbLine
 10
63.885157571
 20
-12.272577316
 30
0.0
 11
63.885157571
 21
-12.7853978288
 31
0.0
  0
LINE
  5
26D
330
1F
100
AcDbEntity
  8
0
  6
Continuous
 62
     7
370
    25
100
AcDbLine
 10
61.5133626992
 20
-12.272577316
 30
0.0
 11
63.885157571
 21
-12.272577316
 31
0.0
  0
LINE
  5
26E
330
1F
100
AcDbEntity
  8
0
  6
Continuous
 62
     7
370
    25
100
AcDbLine
 10
61.5133626992
 20
-10.7341157776
 30
0.0
 11
61.5133626992
 21
-12.272577316
 31
0.0
  0
LINE
  5
26F
330
1F
100
AcDbEntity
  8
0
  6
Continuous
 62
     7
370
    25
100
AcDbLine
 10
63.885157571
 20
-10.7341157776
 30
0.0
 11
61.5133626992
 21
-10.7341157776
 31
0.0
  0
LINE
  5
270
330
1F
100
AcDbEntity
  8
0
  6
Continuous
 62
     7
370
    25
100
AcDbLine
 10
63.885157571
 20
-10.2212952647
 30
0.0
 11
63.885157571
 21
-10.7341157776
 31
0.0
  0
LINE
  5
271
330
1F
100
AcDbEntity
  8
0
  6
Continuous
 62
     7
370
    25
100
AcDbLine
 10
61.0646447505
 20
-10.2212952647
 30
0.0
 11
63.885157571
 21
-10.2212952647
 31
0.0
  0
LINE
  5
272
330
1F
100
AcDbEntity
  8
0
  6
Continuous
 62
     7
370
    25
100
AcDbLine
 10
61.0646447505
 20
-15.2212952647
 30
0.0
 11
61.0646447505
 21
-10.2212952647
 31
0.0
  0
LINE
  5
273
330
1F
100
AcDbEntity
  8
0
  6
Continuous
 62
     7
370
    25
100
AcDbLine
 10
63.885157571
 20
-15.2212952647
 30
0.0
 11
61.0646447505
 21
-15.2212952647
 31
0.0
  0
LINE
  5
274
330
1F
100
AcDbEntity
  8
0
  6
Continuous
 62
     7
370
    25
100
AcDbLine
 10
35.2543482761
 20
-20.2212952647
 30
0.0
 11
34.1672088531
 21
-18.0578337263
 31
0.0
  0
LINE
  5
275
330
1F
100
AcDbEntity
  8
0
  6
Continuous
 62
     7
370
    25
100
AcDbLine
 10
35.3150453915
 20
-20.2212952647
 30
0.0
 11
35.2543482761
 21
-20.2212952647
 31
0.0
  0
LINE
  5
276
330
1F
100
AcDbEntity
  8
0
  6
Continuous
 62
     7
370
    25
100
AcDbLine
 10
36.3979780838
 20
-18.0626414186
 30
0.0
 11
35.3150453915
 21
-20.2212952647
 31
0.0
  0
LINE
  5
277
330
1F
100
AcDbEntity
  8
0
  6
Continuous
 62
     7
370
    25
100
AcDbLine
 10
36.6852376992
 20
-20.2212952647
 30
0.0
 11
36.3979780838
 21
-18.0626414186
 31
0.0
  0
LINE
  5
278
330
1F
100
AcDbEntity
  8
0
  6
Continuous
 62
     7
370
    25
100
AcDbLine
 10
36.9556703915
 20
-20.2212952647
 30
0.0
 11
36.6852376992
 21
-20.2212952647
 31
0.0
  0
LINE
  5
279
330
1F
100
AcDbEntity
  8
0
  6
Continuous
 62
     7
370
    25
100
AcDbLine
 10
36.5572328915
 20
-17.2212952647
 30
0.0
 11
36.9556703915
 21
-20.2212952647
 31
0.0
  0
LINE
  5
27A
330
1F
100
AcDbEntity
  8
0
  6
Continuous
 62
     7
370
    25
100
AcDbLine
 10
36.5181703915
 20
-17.2212952647
 30
0.0
 11
36.5572328915
 21
-17.2212952647
 31
0.0
  0
LINE
  5
27B
330
1F
100
AcDbEntity
  8
0
  6
Continuous
 62
     7
370
    25
100
AcDbLine
 10
35.2825934684
 20
-19.6828337263
 30
0.0
 11
36.5181703915
 21
-17.2212952647
 31
0.0
  0
LINE
  5
27C
330
1F
100
AcDbEntity
  8
0
  6
Continuous
 62
     7
370
    25
100
AcDbLine
 10
34.0440117377
 20
-17.2212952647
 30
0.0
 11
35.2825934684
 21
-19.6828337263
 31
0.0
  0
LINE
  5
27D
330
1F
100
AcDbEntity
  8
0
  6
Continuous
 62
     7
370
    25
100
AcDbLine
 10
34.0055501992
 20
-17.2212952647
 30
0.0
 11
34.0440117377
 21
-17.2212952647
 31
0.0
  0
LINE
  5
27E
330
1F
100
AcDbEntity
  8
0
  6
Continuous
 62
     7
370
    25
100
AcDbLine
 10
33.6095165454
 20
-20.2212952647
 30
0.0
 11
34.0055501992
 21
-17.2212952647
 31
0.0
  0
LINE
  5
27F
330
1F
100
AcDbEntity
  8
0
  6
Continuous
 62
     7
370
    25
100
AcDbLine
 10
33.8805501992
 20
-20.2212952647
 30
0.0
 11
33.6095165454
 21
-20.2212952647
 31
0.0
  0
LINE
  5
280
330
1F
100
AcDbEntity
  8
0
  6
Continuous
 62
     7
370
    25
100
AcDbLine
 10
34.1672088531
 20
-18.0578337263
 30
0.0
 11
33.8805501992
 21
-20.2212952647
 31
0.0
  0
LINE
  5
281
330
1F
100
AcDbEntity
  8
0
  6
Continuous
 62
     7
370
    25
100
AcDbLine
 10
55.4236191095
 20
-10.9394443032
 30
0.0
 11
55.017970071
 21
-11.2469362904
 31
0.0
  0
LINE
  5
282
330
1F
100
AcDbEntity
  8
0
  6
Continuous
 62
     7
370
    25
100
AcDbLine
 10
52.5390037248
 20
-14.2567519955
 30
0.0
 11
52.9616800069
 21
-14.0033465468
 31
0.0
  0
LINE
  5
283
330
1F
100
AcDbEntity
  8
0
  6
Continuous
 62
     7
370
    25
100
AcDbLine
 10
43.3723370582
 20
-12.913602957
 30
0.0
 11
43.3723370582
 21
-15.2212952647
 31
0.0
  0
LINE
  5
284
330
1F
100
AcDbEntity
  8
0
  6
Continuous
 62
     7
370
    25
100
AcDbLine
 10
43.7299091736
 20
-12.913602957
 30
0.0
 11
43.3723370582
 21
-12.913602957
 31
0.0
  0
LINE
  5
285
330
1F
100
AcDbEntity
  8
0
  6
Continuous
 62
     7
370
    25
100
AcDbLine
 10
42.9236191095
 20
-10.2212952647
 30
0.0
 11
43.9041880197
 21
-10.2212952647
 31
0.0
  0
LINE
  5
286
330
1F
100
AcDbEntity
  8
0
  6
Continuous
 62
     7
370
    25
100
AcDbLine
 10
42.9236191095
 20
-15.2212952647
 30
0.0
 11
42.9236191095
 21
-10.2212952647
 31
0.0
  0
LINE
  5
287
330
1F
100
AcDbEntity
  8
0
  6
Continuous
 62
     7
370
    25
100
AcDbLine
 10
43.3723370582
 20
-15.2212952647
 30
0.0
 11
42.9236191095
 21
-15.2212952647
 31
0.0
  0
LINE
  5
288
330
1F
100
AcDbEntity
  8
0
  6
Continuous
 62
     7
370
    25
100
AcDbLine
 10
39.4556703915
 20
-20.2212952647
 30
0.0
 11
39.4556703915
 21
-19.842088534
 31
0.0
  0
LINE
  5
289
330
1F
100
AcDbEntity
  8
0
  6
Continuous
 62
     7
370
    25
100
AcDbLine
 10
39.7249011607
 20
-20.2212952647
 30
0.0
 11
39.4556703915
 21
-20.2212952647
 31
0.0
  0
LINE
  5
28A
330
1F
100
AcDbEntity
  8
0
  6
Continuous
 62
     7
370
    25
100
AcDbLine
 10
39.7249011607
 20
-18.0289875724
 30
0.0
 11
39.7249011607
 21
-20.2212952647
 31
0.0
  0
LINE
  5
28B
330
1F
100
AcDbEntity
  8
0
  6
Continuous
 62
     7
370
    25
100
AcDbLine
 10
39.4556703915
 20
-18.0289875724
 30
0.0
 11
39.7249011607
 21
-18.0289875724
 31
0.0
  0
LINE
  5
28C
330
1F
100
AcDbEntity
  8
0
  6
Continuous
 62
     7
370
    25
100
AcDbLine
 10
39.4556703915
 20
-18.4346366109
 30
0.0
 11
39.4556703915
 21
-18.0289875724
 31
0.0
  0
LINE
  5
28D
330
1F
100
AcDbEntity
  8
0
  6
Continuous
 62
     7
370
    25
100
AcDbLine
 10
45.3402857761
 20
-19.1828337263
 30
0.0
 11
43.3787473146
 21
-19.1828337263
 31
0.0
  0
LINE
  5
28E
330
1F
100
AcDbEntity
  8
0
  6
Continuous
 62
     7
370
    25
100
AcDbLine
 10
44.9857184684
 20
-19.5289875724
 30
0.0
 11
45.2249011607
 21
-19.654588534
 31
0.0
  0
LINE
  5
28F
330
1F
100
AcDbEntity
  8
0
  6
Continuous
 62
     7
370
    25
100
AcDbLine
 10
47.3787473146
 20
-17.2212952647
 30
0.0
 11
47.3787473146
 21
-20.2212952647
 31
0.0
  0
LINE
  5
290
330
1F
100
AcDbEntity
  8
0
  6
Continuous
 62
     7
370
    25
100
AcDbLine
 10
47.1095165454
 20
-17.2212952647
 30
0.0
 11
47.3787473146
 21
-17.2212952647
 31
0.0
  0
LINE
  5
291
330
1F
100
AcDbEntity
  8
0
  6
Continuous
 62
     7
370
    25
100
AcDbLine
 10
47.1095165454
 20
-20.2212952647
 30
0.0
 11
47.1095165454
 21
-17.2212952647
 31
0.0
  0
LINE
  5
292
330
1F
100
AcDbEntity
  8
0
  6
Continuous
 62
     7
370
    25
100
AcDbLine
 10
47.3787473146
 20
-20.2212952647
 30
0.0
 11
47.1095165454
 21
-20.2212952647
 31
0.0
  0
LINE
  5
293
330
1F
100
AcDbEntity
  8
0
  6
Continuous
 62
     7
370
    25
100
AcDbLine
 10
48.3402857761
 20
-19.4286269955
 30
0.0
 11
48.3402857761
 21
-20.2212952647
 31
0.0
  0
LINE
  5
294
330
1F
100
AcDbEntity
  8
0
  6
Continuous
 62
     7
370
    25
100
AcDbLine
 10
49.7249011607
 20
-20.2212952647
 30
0.0
 11
49.7249011607
 21
-19.1900452647
 31
0.0
  0
LINE
  5
295
330
1F
100
AcDbEntity
  8
0
  6
Continuous
 62
     7
370
    25
100
AcDbLine
 10
49.99413193
 20
-20.2212952647
 30
0.0
 11
49.7249011607
 21
-20.2212952647
 31
0.0
  0
LINE
  5
296
330
1F
100
AcDbEntity
  8
0
  6
Continuous
 62
     7
370
    25
100
AcDbLine
 10
49.99413193
 20
-19.1017039186
 30
0.0
 11
49.99413193
 21
-20.2212952647
 31
0.0
  0
LINE
  5
297
330
1F
100
AcDbEntity
  8
0
  6
Continuous
 62
     7
370
    25
100
AcDbLine
 10
48.3402857761
 20
-18.0289875724
 30
0.0
 11
48.3402857761
 21
-18.4244202647
 31
0.0
  0
LINE
  5
298
330
1F
100
AcDbEntity
  8
0
  6
Continuous
 62
     7
370
    25
100
AcDbLine
 10
48.0710550069
 20
-18.0289875724
 30
0.0
 11
48.3402857761
 21
-18.0289875724
 31
0.0
  0
LINE
  5
299
330
1F
100
AcDbEntity
  8
0
  6
Continuous
 62
     7
370
    25
100
AcDbLine
 10
48.0710550069
 20
-20.2212952647
 30
0.0
 11
48.0710550069
 21
-18.0289875724
 31
0.0
  0
LINE
  5
29A
330
1F
100
AcDbEntity
  8
0
  6
Continuous
 62
     7
370
    25
100
AcDbLine
 10
48.3402857761
 20
-20.2212952647
 30
0.0
 11
48.0710550069
 21
-20.2212952647
 31
0.0
  0
LINE
  5
29B
330
1F
100
AcDbEntity
  8
0
  6
Continuous
 62
     7
370
    25
100
AcDbLine
 10
53.5325934684
 20
-19.913602957
 30
0.0
 11
53.5325934684
 21
-20.2212952647
 31
0.0
  0
LINE
  5
29C
330
1F
100
AcDbEntity
  8
0
  6
Continuous
 62
     7
370
    25
100
AcDbLine
 10
52.1095165454
 20
-19.913602957
 30
0.0
 11
53.5325934684
 21
-19.913602957
 31
0.0
  0
LINE
  5
29D
330
1F
100
AcDbEntity
  8
0
  6
Continuous
 62
     7
370
    25
100
AcDbLine
 10
52.1095165454
 20
-18.7597568032
 30
0.0
 11
52.1095165454
 21
-19.913602957
 31
0.0
  0
LINE
  5
29E
330
1F
100
AcDbEntity
  8
0
  6
Continuous
 62
     7
370
    25
100
AcDbLine
 10
53.5325934684
 20
-18.7597568032
 30
0.0
 11
52.1095165454
 21
-18.7597568032
 31
0.0
  0
LINE
  5
29F
330
1F
100
AcDbEntity
  8
0
  6
Continuous
 62
     7
370
    25
100
AcDbLine
 10
53.5325934684
 20
-18.4520644955
 30
0.0
 11
53.5325934684
 21
-18.7597568032
 31
0.0
  0
LINE
  5
2A0
330
1F
100
AcDbEntity
  8
0
  6
Continuous
 62
     7
370
    25
100
AcDbLine
 10
52.1095165454
 20
-18.4520644955
 30
0.0
 11
53.5325934684
 21
-18.4520644955
 31
0.0
  0
LINE
  5
2A1
330
1F
100
AcDbEntity
  8
0
  6
Continuous
 62
     7
370
    25
100
AcDbLine
 10
52.1095165454
 20
-17.5289875724
 30
0.0
 11
52.1095165454
 21
-18.4520644955
 31
0.0
  0
LINE
  5
2A2
330
1F
100
AcDbEntity
  8
0
  6
Continuous
 62
     7
370
    25
100
AcDbLine
 10
53.5325934684
 20
-17.5289875724
 30
0.0
 11
52.1095165454
 21
-17.5289875724
 31
0.0
  0
LINE
  5
2A3
330
1F
100
AcDbEntity
  8
0
  6
Continuous
 62
     7
370
    25
100
AcDbLine
 10
53.5325934684
 20
-17.2212952647
 30
0.0
 11
53.5325934684
 21
-17.5289875724
 31
0.0
  0
LINE
  5
2A4
330
1F
100
AcDbEntity
  8
0
  6
Continuous
 62
     7
370
    25
100
AcDbLine
 10
51.8402857761
 20
-17.2212952647
 30
0.0
 11
53.5325934684
 21
-17.2212952647
 31
0.0
  0
LINE
  5
2A5
330
1F
100
AcDbEntity
  8
0
  6
Continuous
 62
     7
370
    25
100
AcDbLine
 10
51.8402857761
 20
-20.2212952647
 30
0.0
 11
51.8402857761
 21
-17.2212952647
 31
0.0
  0
LINE
  5
2A6
330
1F
100
AcDbEntity
  8
0
  6
Continuous
 62
     7
370
    25
100
AcDbLine
 10
53.5325934684
 20
-20.2212952647
 30
0.0
 11
51.8402857761
 21
-20.2212952647
 31
0.0
  0
LINE
  5
2A7
330
1F
100
AcDbEntity
  8
0
  6
Continuous
 62
     7
370
    25
100
AcDbLine
 10
43.4069925069
 20
-18.913602957
 30
0.0
 11
45.0710550069
 21
-18.913602957
 31
0.0
  0
ENDSEC
  0
SECTION
  2
OBJECTS
  0
DICTIONARY
  5
C
330
0
100
AcDbDictionary
281
     1
  3
ACAD_GROUP
350
D
  3
ACAD_LAYOUT
350
1A
  3
ACAD_MLINESTYLE
350
17
  3
ACAD_PLOTSETTINGS
350
19
  3
ACAD_PLOTSTYLENAME
350
E
  3
ACAD_SCALELIST
350
47
  0
DICTIONARY
  5
D
102
{ACAD_REACTORS
330
C
102
}
330
C
100
AcDbDictionary
281
     1
  0
DICTIONARY
  5
1A
102
{ACAD_REACTORS
330
C
102
}
330
C
100
AcDbDictionary
281
     1
  3
Layout1
350
1E
  3
Layout2
350
26
  3
Model
350
22
  0
DICTIONARY
  5
17
102
{ACAD_REACTORS
330
C
102
}
330
C
100
AcDbDictionary
281
     1
  3
Standard
350
18
  0
DICTIONARY
  5
19
102
{ACAD_REACTORS
330
C
102
}
330
C
100
AcDbDictionary
281
     1
  0
ACDBDICTIONARYWDFLT
  5
E
102
{ACAD_REACTORS
330
C
102
}
330
C
100
AcDbDictionary
281
     1
  3
Normal
350
F
100
AcDbDictionaryWithDefault
340
F
  0
DICTIONARY
  5
47
102
{ACAD_REACTORS
330
C
102
}
330
C
100
AcDbDictionary
281
     1
  3
A0
350
48
  3
A1
350
49
  3
A2
350
4A
  3
A3
350
4B
  3
A4
350
4C
  3
A5
350
4D
  3
A6
350
4E
  3
A7
350
4F
  3
A8
350
50
  3
A9
350
51
  3
B0
350
52
  3
B1
350
53
  3
B2
350
54
  3
B3
350
55
  3
B4
350
56
  3
B5
350
57
  3
B6
350
58
  3
B7
350
59
  3
B8
350
5A
  3
B9
350
5B
  3
C0
350
5C
  3
C1
350
5D
  3
C2
350
5E
  3
C3
350
5F
  3
C4
350
60
  3
C5
350
61
  3
C6
350
62
  3
C7
350
63
  3
C8
350
64
  3
C9
350
65
  3
D0
350
66
  3
D1
350
67
  3
D2
350
68
  0
LAYOUT
  5
1E
102
{ACAD_REACTORS
330
1A
102
}
330
1A
100
AcDbPlotSettings
  1

  2
none_device
  4

  6

 40
0.0
 41
0.0
 42
0.0
 43
0.0
 44
0.0
 45
0.0
 46
0.0
 47
0.0
 48
0.0
 49
0.0
140
0.0
141
0.0
142
1.0
143
1.0
 70
   688
 72
     1
 73
     0
 74
     5
  7

 75
    16
147
1.0
148
0.0
149
0.0
100
AcDbLayout
  1
Layout1
 70
     1
 71
     1
 10
0.0
 20
0.0
 11
420.0
 21
297.0
 12
0.0
 22
0.0
 32
0.0
 14
1.0000000000E+20
 24
1.0000000000E+20
 34
1.0000000000E+20
 15
-1.0000000000E+20
 25
-1.0000000000E+20
 35
-1.0000000000E+20
146
0.0
 13
0.0
 23
0.0
 33
0.0
 16
1.0
 26
0.0
 36
0.0
 17
0.0
 27
1.0
 37
0.0
 76
     0
330
1B
  0
LAYOUT
  5
26
102
{ACAD_REACTORS
330
1A
102
}
330
1A
100
AcDbPlotSettings
  1

  2
none_device
  4

  6

 40
0.0
 41
0.0
 42
0.0
 43
0.0
 44
0.0
 45
0.0
 46
0.0
 47
0.0
 48
0.0
 49
0.0
140
0.0
141
0.0
142
1.0
143
1.0
 70
   688
 72
     1
 73
     0
 74
     5
  7

 75
    16
147
1.0
148
0.0
149
0.0
100
AcDbLayout
  1
Layout2
 70
     1
 71
     2
 10
0.0
 20
0.0
 11
0.0
 21
0.0
 12
0.0
 22
0.0
 32
0.0
 14
0.0
 24
0.0
 34
0.0
 15
0.0
 25
0.0
 35
0.0
146
0.0
 13
0.0
 23
0.0
 33
0.0
 16
1.0
 26
0.0
 36
0.0
 17
0.0
 27
1.0
 37
0.0
 76
     0
330
23
  0
LAYOUT
  5
22
102
{ACAD_REACTORS
330
1A
102
}
330
1A
100
AcDbPlotSettings
  1

  2
none_device
  4
ANSI_A_(11.00_x_8.50_Inches)
  6

 40
6.35
 41
19.05
 42
6.35000508
 43
19.05000254
 44
279.4
 45
215.9
 46
133.34999746
 47
88.89999873
 48
0.0
 49
0.0
140
0.0
141
0.0
142
0.0711764706
143
1.0
 70
  1696
 72
     0
 73
     0
 74
     0
  7

 75
     0
147
0.0179189148
148
-1300.4909072572
149
0.0
100
AcDbLayout
  1
Model
 70
     1
 71
     0
 10
0.0
 20
0.0
 11
420.0
 21
297.0
 12
0.0
 22
0.0
 32
0.0
 14
-76.5
 24
-28.75
 34
0.0
 15
76.5
 25
28.75
 35
0.0
146
0.0
 13
0.0
 23
0.0
 33
0.0
 16
1.0
 26
0.0
 36
0.0
 17
0.0
 27
1.0
 37
0.0
 76
     0
330
1F
331
29
  0
MLINESTYLE
  5
18
102
{ACAD_REACTORS
330
17
102
}
330
17
100
AcDbMlineStyle
  2
Standard
 70
     0
  3

 62
   256
 51
90.0
 52
90.0
 71
     2
 49
0.5
 62
   256
  6
BYLAYER
 49
-0.5
 62
   256
  6
BYLAYER
  0
ACDBPLACEHOLDER
  5
F
102
{ACAD_REACTORS
330
E
102
}
330
E
  0
SCALE
  5
48
102
{ACAD_REACTORS
330
47
102
}
330
47
100
AcDbScale
 70
     0
300
1:1
140
1.0
141
1.0
290
     1
  0
SCALE
  5
49
102
{ACAD_REACTORS
330
47
102
}
330
47
100
AcDbScale
 70
     0
300
1:2
140
1.0
141
2.0
290
     0
  0
SCALE
  5
4A
102
{ACAD_REACTORS
330
47
102
}
330
47
100
AcDbScale
 70
     0
300
1:4
140
1.0
141
4.0
290
     0
  0
SCALE
  5
4B
102
{ACAD_REACTORS
330
47
102
}
330
47
100
AcDbScale
 70
     0
300
1:5
140
1.0
141
5.0
290
     0
  0
SCALE
  5
4C
102
{ACAD_REACTORS
330
47
102
}
330
47
100
AcDbScale
 70
     0
300
1:8
140
1.0
141
8.0
290
     0
  0
SCALE
  5
4D
102
{ACAD_REACTORS
330
47
102
}
330
47
100
AcDbScale
 70
     0
300
1:10
140
1.0
141
10.0
290
     0
  0
SCALE
  5
4E
102
{ACAD_REACTORS
330
47
102
}
330
47
100
AcDbScale
 70
     0
300
1:16
140
1.0
141
16.0
290
     0
  0
SCALE
  5
4F
102
{ACAD_REACTORS
330
47
102
}
330
47
100
AcDbScale
 70
     0
300
1:20
140
1.0
141
20.0
290
     0
  0
SCALE
  5
50
102
{ACAD_REACTORS
330
47
102
}
330
47
100
AcDbScale
 70
     0
300
1:30
140
1.0
141
30.0
290
     0
  0
SCALE
  5
51
102
{ACAD_REACTORS
330
47
102
}
330
47
100
AcDbScale
 70
     0
300
1:40
140
1.0
141
40.0
290
     0
  0
SCALE
  5
52
102
{ACAD_REACTORS
330
47
102
}
330
47
100
AcDbScale
 70
     0
300
1:50
140
1.0
141
50.0
290
     0
  0
SCALE
  5
53
102
{ACAD_REACTORS
330
47
102
}
330
47
100
AcDbScale
 70
     0
300
1:100
140
1.0
141
100.0
290
     0
  0
SCALE
  5
54
102
{ACAD_REACTORS
330
47
102
}
330
47
100
AcDbScale
 70
     0
300
2:1
140
2.0
141
1.0
290
     0
  0
SCALE
  5
55
102
{ACAD_REACTORS
330
47
102
}
330
47
100
AcDbScale
 70
     0
300
4:1
140
4.0
141
1.0
290
     0
  0
SCALE
  5
56
102
{ACAD_REACTORS
330
47
102
}
330
47
100
AcDbScale
 70
     0
300
8:1
140
8.0
141
1.0
290
     0
  0
SCALE
  5
57
102
{ACAD_REACTORS
330
47
102
}
330
47
100
AcDbScale
 70
     0
300
10:1
140
10.0
141
1.0
290
     0
  0
SCALE
  5
58
102
{ACAD_REACTORS
330
47
102
}
330
47
100
AcDbScale
 70
     0
300
100:1
140
100.0
141
1.0
290
     0
  0
SCALE
  5
59
102
{ACAD_REACTORS
330
47
102
}
330
47
100
AcDbScale
 70
     0
300
1/128" = 1'-0"
140
0.0078125
141
12.0
290
     0
  0
SCALE
  5
5A
102
{ACAD_REACTORS
330
47
102
}
330
47
100
AcDbScale
 70
     0
300
1/64" = 1'-0"
140
0.015625
141
12.0
290
     0
  0
SCALE
  5
5B
102
{ACAD_REACTORS
330
47
102
}
330
47
100
AcDbScale
 70
     0
300
1/32" = 1'-0"
140
0.03125
141
12.0
290
     0
  0
SCALE
  5
5C
102
{ACAD_REACTORS
330
47
102
}
330
47
100
AcDbScale
 70
     0
300
1/16" = 1'-0"
140
0.0625
141
12.0
290
     0
  0
SCALE
  5
5D
102
{ACAD_REACTORS
330
47
102
}
330
47
100
AcDbScale
 70
     0
300
3/32" = 1'-0"
140
0.09375
141
12.0
290
     0
  0
SCALE
  5
5E
102
{ACAD_REACTORS
330
47
102
}
330
47
100
AcDbScale
 70
     0
300
1/8" = 1'-0"
140
0.125
141
12.0
290
     0
  0
SCALE
  5
5F
102
{ACAD_REACTORS
330
47
102
}
330
47
100
AcDbScale
 70
     0
300
3/16" = 1'-0"
140
0.1875
141
12.0
290
     0
  0
SCALE
  5
60
102
{ACAD_REACTORS
330
47
102
}
330
47
100
AcDbScale
 70
     0
300
1/4" = 1'-0"
140
0.25
141
12.0
290
     0
  0
SCALE
  5
61
102
{ACAD_REACTORS
330
47
102
}
330
47
100
AcDbScale
 70
     0
300
3/8" = 1'-0"
140
0.375
141
12.0
290
     0
  0
SCALE
  5
62
102
{ACAD_REACTORS
330
47
102
}
330
47
100
AcDbScale
 70
     0
300
1/2" = 1'-0"
140
0.5
141
12.0
290
     0
  0
SCALE
  5
63
102
{ACAD_REACTORS
330
47
102
}
330
47
100
AcDbScale
 70
     0
300
3/4" = 1'-0"
140
0.75
141
12.0
290
     0
  0
SCALE
  5
64
102
{ACAD_REACTORS
330
47
102
}
330
47
100
AcDbScale
 70
     0
300
1" = 1'-0"
140
1.0
141
12.0
290
     0
  0
SCALE
  5
65
102
{ACAD_REACTORS
330
47
102
}
330
47
100
AcDbScale
 70
     0
300
1-1/2" = 1'-0"
140
1.5
141
12.0
290
     0
  0
SCALE
  5
66
102
{ACAD_REACTORS
330
47
102
}
330
47
100
AcDbScale
 70
     0
300
3" = 1'-0"
140
3.0
141
12.0
290
     0
  0
SCALE
  5
67
102
{ACAD_REACTORS
330
47
102
}
330
47
100
AcDbScale
 70
     0
300
6" = 1'-0"
140
6.0
141
12.0
290
     0
  0
SCALE
  5
68
102
{ACAD_REACTORS
330
47
102
}
330
47
100
AcDbScale
 70
     0
300
1'-0" = 1'-0"
140
12.0
141
12.0
290
     0
  0
ENDSEC
  0
EOF
