  0
SECTION
  2
HEADER
  9
$ACADVER
  1
AC1015
  9
$ACADMAINTVER
 70
     6
  9
$DWGCODEPAGE
  3
ANSI_1256
  9
$INSBASE
 10
0.0
 20
0.0
 30
0.0
  9
$EXTMIN
 10
-54.5
 20
-11.5
 30
0.0
  9
$EXTMAX
 10
54.5
 20
11.5
 30
0.0
  9
$LIMMIN
 10
0.0
 20
0.0
  9
$LIMMAX
 10
420.0
 20
297.0
  9
$ORTHOMODE
 70
     0
  9
$REGENMODE
 70
     1
  9
$FILLMODE
 70
     1
  9
$QTEXTMODE
 70
     0
  9
$MIRRTEXT
 70
     1
  9
$LTSCALE
 40
1.0
  9
$ATTMODE
 70
     1
  9
$TEXTSIZE
 40
6.35
  9
$TRACEWID
 40
1.0
  9
$TEXTSTYLE
  7
Standard
  9
$CLAYER
  8
0
  9
$CELTYPE
  6
ByLayer
  9
$CECOLOR
 62
   256
  9
$CELTSCALE
 40
1.0
  9
$DISPSILH
 70
     0
  9
$DIMSCALE
 40
1.0
  9
$DIMASZ
 40
5.9944
  9
$DIMEXO
 40
0.9906
  9
$DIMDLI
 40
3.75
  9
$DIMRND
 40
0.0
  9
$DIMDLE
 40
0.0
  9
$DIMEXE
 40
0.9906
  9
$DIMTP
 40
0.0
  9
$DIMTM
 40
0.0
  9
$DIMTXT
 40
6.35
  9
$DIMCEN
 40
2.5
  9
$DIMTSZ
 40
0.0
  9
$DIMTOL
 70
     0
  9
$DIMLIM
 70
     0
  9
$DIMTIH
 70
     1
  9
$DIMTOH
 70
     1
  9
$DIMSE1
 70
     0
  9
$DIMSE2
 70
     0
  9
$DIMTAD
 70
     1
  9
$DIMZIN
 70
     1
  9
$DIMBLK
  1

  9
$DIMASO
 70
     1
  9
$DIMSHO
 70
     1
  9
$DIMPOST
  1

  9
$DIMAPOST
  1

  9
$DIMALT
 70
     0
  9
$DIMALTD
 70
     3
  9
$DIMALTF
 40
0.0393700787
  9
$DIMLFAC
 40
1.0
  9
$DIMTOFL
 70
     1
  9
$DIMTVP
 40
0.0
  9
$DIMTIX
 70
     0
  9
$DIMSOXD
 70
     0
  9
$DIMSAH
 70
     0
  9
$DIMBLK1
  1

  9
$DIMBLK2
  1

  9
$DIMSTYLE
  2
ISO-25
  9
$DIMCLRD
 70
     0
  9
$DIMCLRE
 70
     0
  9
$DIMCLRT
 70
     0
  9
$DIMTFAC
 40
1.0
  9
$DIMGAP
 40
1.524
  9
$DIMJUST
 70
     0
  9
$DIMSD1
 70
     0
  9
$DIMSD2
 70
     0
  9
$DIMTOLJ
 70
     0
  9
$DIMTZIN
 70
     1
  9
$DIMALTZ
 70
     0
  9
$DIMALTTZ
 70
     0
  9
$DIMUPT
 70
     0
  9
$DIMDEC
 70
     2
  9
$DIMTDEC
 70
     2
  9
$DIMALTU
 70
     2
  9
$DIMALTTD
 70
     3
  9
$DIMTXSTY
  7
Standard
  9
$DIMAUNIT
 70
     0
  9
$DIMADEC
 70
     2
  9
$DIMALTRND
 40
0.0
  9
$DIMAZIN
 70
     0
  9
$DIMDSEP
 70
    44
  9
$DIMATFIT
 70
     3
  9
$DIMFRAC
 70
     0
  9
$DIMLDRBLK
  1

  9
$DIMLUNIT
 70
     2
  9
$DIMLWD
 70
    -2
  9
$DIMLWE
 70
    -2
  9
$DIMTMOVE
 70
     0
  9
$LUNITS
 70
     2
  9
$LUPREC
 70
     2
  9
$SKETCHINC
 40
1.0
  9
$FILLETRAD
 40
10.0
  9
$AUNITS
 70
     0
  9
$AUPREC
 70
     2
  9
$MENU
  1
.
  9
$ELEVATION
 40
0.0
  9
$PELEVATION
 40
0.0
  9
$THICKNESS
 40
0.0
  9
$LIMCHECK
 70
     0
  9
$CHAMFERA
 40
0.0
  9
$CHAMFERB
 40
0.0
  9
$CHAMFERC
 40
0.0
  9
$CHAMFERD
 40
0.0
  9
$SKPOLY
 70
     0
  9
$TDCREATE
 40
2458818.49364059
  9
$TDUCREATE
 40
2458818.410307257
  9
$TDUPDATE
 40
2458818.493661169
  9
$TDUUPDATE
 40
2458818.410327835
  9
$TDINDWG
 40
0.0000000116
  9
$TDUSRTIMER
 40
0.0000000116
  9
$USRTIMER
 70
     1
  9
$ANGBASE
 50
0.0
  9
$ANGDIR
 70
     0
  9
$PDMODE
 70
     0
  9
$PDSIZE
 40
-1.0
  9
$PLINEWID
 40
0.0
  9
$SPLFRAME
 70
     0
  9
$SPLINETYPE
 70
     6
  9
$SPLINESEGS
 70
     8
  9
$HANDSEED
  5
1E8
  9
$SURFTAB1
 70
     6
  9
$SURFTAB2
 70
     6
  9
$SURFTYPE
 70
     6
  9
$SURFU
 70
     6
  9
$SURFV
 70
     6
  9
$UCSBASE
  2

  9
$UCSNAME
  2

  9
$UCSORG
 10
0.0
 20
0.0
 30
0.0
  9
$UCSXDIR
 10
1.0
 20
0.0
 30
0.0
  9
$UCSYDIR
 10
0.0
 20
1.0
 30
0.0
  9
$UCSORTHOREF
  2

  9
$UCSORTHOVIEW
 70
     0
  9
$UCSORGTOP
 10
0.0
 20
0.0
 30
0.0
  9
$UCSORGBOTTOM
 10
0.0
 20
0.0
 30
0.0
  9
$UCSORGLEFT
 10
0.0
 20
0.0
 30
0.0
  9
$UCSORGRIGHT
 10
0.0
 20
0.0
 30
0.0
  9
$UCSORGFRONT
 10
0.0
 20
0.0
 30
0.0
  9
$UCSORGBACK
 10
0.0
 20
0.0
 30
0.0
  9
$PUCSBASE
  2

  9
$PUCSNAME
  2

  9
$PUCSORG
 10
0.0
 20
0.0
 30
0.0
  9
$PUCSXDIR
 10
1.0
 20
0.0
 30
0.0
  9
$PUCSYDIR
 10
0.0
 20
1.0
 30
0.0
  9
$PUCSORTHOREF
  2

  9
$PUCSORTHOVIEW
 70
     0
  9
$PUCSORGTOP
 10
0.0
 20
0.0
 30
0.0
  9
$PUCSORGBOTTOM
 10
0.0
 20
0.0
 30
0.0
  9
$PUCSORGLEFT
 10
0.0
 20
0.0
 30
0.0
  9
$PUCSORGRIGHT
 10
0.0
 20
0.0
 30
0.0
  9
$PUCSORGFRONT
 10
0.0
 20
0.0
 30
0.0
  9
$PUCSORGBACK
 10
0.0
 20
0.0
 30
0.0
  9
$USERI1
 70
     0
  9
$USERI2
 70
     0
  9
$USERI3
 70
     0
  9
$USERI4
 70
     0
  9
$USERI5
 70
     0
  9
$USERR1
 40
0.0
  9
$USERR2
 40
0.0
  9
$USERR3
 40
0.0
  9
$USERR4
 40
0.0
  9
$USERR5
 40
0.0
  9
$WORLDVIEW
 70
     1
  9
$SHADEDGE
 70
     3
  9
$SHADEDIF
 70
    70
  9
$TILEMODE
 70
     1
  9
$MAXACTVP
 70
    64
  9
$PINSBASE
 10
0.0
 20
0.0
 30
0.0
  9
$PLIMCHECK
 70
     0
  9
$PEXTMIN
 10
1.0000000000E+20
 20
1.0000000000E+20
 30
1.0000000000E+20
  9
$PEXTMAX
 10
-1.0000000000E+20
 20
-1.0000000000E+20
 30
-1.0000000000E+20
  9
$PLIMMIN
 10
0.0
 20
0.0
  9
$PLIMMAX
 10
420.0
 20
297.0
  9
$UNITMODE
 70
     0
  9
$VISRETAIN
 70
     1
  9
$PLINEGEN
 70
     0
  9
$PSLTSCALE
 70
     1
  9
$TREEDEPTH
 70
  3020
  9
$CMLSTYLE
  2
Standard
  9
$CMLJUST
 70
     0
  9
$CMLSCALE
 40
20.0
  9
$PROXYGRAPHICS
 70
     1
  9
$MEASUREMENT
 70
     1
  9
$CELWEIGHT
370
    -1
  9
$ENDCAPS
280
     0
  9
$JOINSTYLE
280
     0
  9
$LWDISPLAY
290
     1
  9
$INSUNITS
 70
     4
  9
$HYPERLINKBASE
  1

  9
$STYLESHEET
  1

  9
$XEDIT
290
     1
  9
$CEPSNTYPE
380
     0
  9
$PSTYLEMODE
290
     1
  9
$FINGERPRINTGUID
  2
{B7E779FA-E03A-4790-A898-9D11838B4C7C}
  9
$VERSIONGUID
  2
{FAEB1C32-E019-11D5-929B-00C0DF256EC4}
  9
$EXTNAMES
290
     1
  9
$PSVPSCALE
 40
0.0
  9
$OLESTARTUP
290
     0
  0
ENDSEC
  0
SECTION
  2
CLASSES
  0
CLASS
  1
ACDBDICTIONARYWDFLT
  2
AcDbDictionaryWithDefault
  3
ObjectDBX Classes
 90
        0
280
     0
281
     0
  0
CLASS
  1
VISUALSTYLE
  2
AcDbVisualStyle
  3
ObjectDBX Classes
 90
     4095
280
     0
281
     0
  0
CLASS
  1
MATERIAL
  2
AcDbMaterial
  3
ObjectDBX Classes
 90
     1153
280
     0
281
     0
  0
CLASS
  1
SCALE
  2
AcDbScale
  3
ObjectDBX Classes
 90
     1153
280
     0
281
     0
  0
CLASS
  1
TABLESTYLE
  2
AcDbTableStyle
  3
ObjectDBX Classes
 90
     4095
280
     0
281
     0
  0
CLASS
  1
MLEADERSTYLE
  2
AcDbMLeaderStyle
  3
ACDB_MLEADERSTYLE_CLASS
 90
     4095
280
     0
281
     0
  0
CLASS
  1
SUN
  2
AcDbSun
  3
SCENEOE
 90
     1153
280
     0
281
     0
  0
CLASS
  1
ACDBPLACEHOLDER
  2
AcDbPlaceHolder
  3
ObjectDBX Classes
 90
        0
280
     0
281
     0
  0
CLASS
  1
LAYOUT
  2
AcDbLayout
  3
ObjectDBX Classes
 90
        0
280
     0
281
     0
  0
ENDSEC
  0
SECTION
  2
TABLES
  0
TABLE
  2
VPORT
  5
8
330
0
100
AcDbSymbolTable
 70
     1
  0
VPORT
  5
29
330
8
100
AcDbSymbolTableRecord
100
AcDbViewportTableRecord
  2
*Active
 70
     0
 10
0.0
 20
0.0
 11
1.0
 21
1.0
 12
0.0
 22
0.0
 13
0.0
 23
0.0
 14
10.0
 24
10.0
 15
10.0
 25
10.0
 16
0.0
 26
0.0
 36
1.0
 17
0.0
 27
0.0
 37
0.0
 40
23.46
 41
4.7391304348
 42
50.0
 43
0.0
 44
0.0
 50
0.0
 51
0.0
 71
     0
 72
   100
 73
     1
 74
     3
 75
     0
 76
     0
 77
     0
 78
     0
281
     0
 65
     1
110
0.0
120
0.0
130
0.0
111
1.0
121
0.0
131
0.0
112
0.0
122
1.0
132
0.0
 79
     0
146
0.0
  0
ENDTAB
  0
TABLE
  2
LTYPE
  5
5
330
0
100
AcDbSymbolTable
 70
     6
  0
LTYPE
  5
14
330
5
100
AcDbSymbolTableRecord
100
AcDbLinetypeTableRecord
  2
ByBlock
 70
     0
  3

 72
    65
 73
     0
 40
0.0
  0
LTYPE
  5
15
330
5
100
AcDbSymbolTableRecord
100
AcDbLinetypeTableRecord
  2
ByLayer
 70
     0
  3

 72
    65
 73
     0
 40
0.0
  0
LTYPE
  5
16
330
5
100
AcDbSymbolTableRecord
100
AcDbLinetypeTableRecord
  2
Continuous
 70
     0
  3
Solid line
 72
    65
 73
     0
 40
0.0
  0
LTYPE
  5
6E
330
5
100
AcDbSymbolTableRecord
100
AcDbLinetypeTableRecord
  2
HIDDEN
 70
     0
  3
Hidden __ __ __ __ __ __ __ __ __ __ __ __ __ __
 72
    65
 73
     2
 40
1.905
 49
1.27
 74
     0
 49
-0.635
 74
     0
  0
LTYPE
  5
6F
330
5
100
AcDbSymbolTableRecord
100
AcDbLinetypeTableRecord
  2
PHANTOM
 70
     0
  3
Phantom ______  __  __  ______  __  __  ______
 72
    65
 73
     6
 40
12.7
 49
6.35
 74
     0
 49
-1.27
 74
     0
 49
1.27
 74
     0
 49
-1.27
 74
     0
 49
1.27
 74
     0
 49
-1.27
 74
     0
  0
LTYPE
  5
70
330
5
100
AcDbSymbolTableRecord
100
AcDbLinetypeTableRecord
  2
CENTER
 70
     0
  3
Center ____ _ ____ _ ____ _ ____ _ ____ _ ____
 72
    65
 73
     4
 40
10.16
 49
6.35
 74
     0
 49
-1.27
 74
     0
 49
1.27
 74
     0
 49
-1.27
 74
     0
  0
LTYPE
  5
71
330
5
100
AcDbSymbolTableRecord
100
AcDbLinetypeTableRecord
  2
CENTERX2
 70
     0
  3
Center (2x) ________  __  ________  __  _____
 72
    65
 73
     4
 40
20.32
 49
12.7
 74
     0
 49
-2.54
 74
     0
 49
2.54
 74
     0
 49
-2.54
 74
     0
  0
LTYPE
  5
72
330
5
100
AcDbSymbolTableRecord
100
AcDbLinetypeTableRecord
  2
DOT2
 70
     0
  3
Dot (.5x) ........................................
 72
    65
 73
     2
 40
0.635
 49
0.0
 74
     0
 49
-0.635
 74
     0
  0
ENDTAB
  0
TABLE
  2
LAYER
  5
2
330
0
100
AcDbSymbolTable
 70
     1
  0
LAYER
  5
10
330
2
100
AcDbSymbolTableRecord
100
AcDbLayerTableRecord
  2
0
 70
     0
 62
     7
  6
Continuous
370
    -3
390
F
  0
ENDTAB
  0
TABLE
  2
STYLE
  5
3
330
0
100
AcDbSymbolTable
 70
     1
  0
STYLE
  5
11
330
3
100
AcDbSymbolTableRecord
100
AcDbTextStyleTableRecord
  2
Standard
 70
     0
 40
0.0
 41
1.0
 50
0.0
 71
     0
 42
6.35
  3
txt
  4

  0
ENDTAB
  0
TABLE
  2
VIEW
  5
6
330
0
100
AcDbSymbolTable
 70
     0
  0
ENDTAB
  0
TABLE
  2
UCS
  5
7
330
0
100
AcDbSymbolTable
 70
     0
  0
ENDTAB
  0
TABLE
  2
APPID
  5
9
330
0
100
AcDbSymbolTable
 70
     1
  0
APPID
  5
12
330
9
100
AcDbSymbolTableRecord
100
AcDbRegAppTableRecord
  2
ACAD
 70
     0
  0
ENDTAB
  0
TABLE
  2
DIMSTYLE
  5
A
330
0
100
AcDbSymbolTable
 70
     1
100
AcDbDimStyleTable
  0
DIMSTYLE
105
27
330
A
100
AcDbSymbolTableRecord
100
AcDbDimStyleTableRecord
  2
ISO-25
 70
     0
 41
2.5
 42
0.625
 43
3.75
 44
1.25
 73
     0
 74
     0
 77
     1
 78
     8
140
2.5
141
2.5
143
0.0393700787
147
0.625
171
     3
172
     1
178
     0
271
     2
272
     2
274
     3
278
    44
283
     0
284
     8
340
11
  0
ENDTAB
  0
TABLE
  2
BLOCK_RECORD
  5
1
330
0
100
AcDbSymbolTable
 70
     1
  0
BLOCK_RECORD
  5
1F
330
1
100
AcDbSymbolTableRecord
100
AcDbBlockTableRecord
  2
*Model_Space
340
22
  0
BLOCK_RECORD
  5
1B
330
1
100
AcDbSymbolTableRecord
100
AcDbBlockTableRecord
  2
*Paper_Space
340
1E
  0
BLOCK_RECORD
  5
23
330
1
100
AcDbSymbolTableRecord
100
AcDbBlockTableRecord
  2
*Paper_Space0
340
26
  0
ENDTAB
  0
ENDSEC
  0
SECTION
  2
BLOCKS
  0
BLOCK
  5
20
330
1F
100
AcDbEntity
  8
0
100
AcDbBlockBegin
  2
*Model_Space
 70
     0
 10
0.0
 20
0.0
 30
0.0
  3
*Model_Space
  1

  0
ENDBLK
  5
21
330
1F
100
AcDbEntity
  8
0
100
AcDbBlockEnd
  0
BLOCK
  5
1C
330
1B
100
AcDbEntity
 67
     1
  8
0
100
AcDbBlockBegin
  2
*Paper_Space
 70
     0
 10
0.0
 20
0.0
 30
0.0
  3
*Paper_Space
  1

  0
ENDBLK
  5
1D
330
1B
100
AcDbEntity
 67
     1
  8
0
100
AcDbBlockEnd
  0
BLOCK
  5
24
330
23
100
AcDbEntity
  8
0
100
AcDbBlockBegin
  2
*Paper_Space0
 70
     0
 10
0.0
 20
0.0
 30
0.0
  3
*Paper_Space0
  1

  0
ENDBLK
  5
25
330
23
100
AcDbEntity
  8
0
100
AcDbBlockEnd
  0
ENDSEC
  0
SECTION
  2
ENTITIES
  0
SPLINE
  5
73
330
1F
100
AcDbEntity
  8
0
  6
Continuous
 62
     7
370
    25
100
AcDbSpline
210
0.0
220
0.0
230
1.0
 70
     8
 71
     3
 72
    15
 73
    11
 74
     0
 42
0.000000001
 43
0.00000001
 40
0.0
 40
0.0
 40
0.0
 40
0.0
 40
0.1288840014739262
 40
0.2529849718578373
 40
0.3742104371825974
 40
0.4941015128996904
 40
0.614752763239988
 40
0.7385110703733286
 40
0.8662425140769304
 40
1.0
 40
1.0
 40
1.0
 40
1.0
 10
-3.927684294871767
 20
-1.198717948717928
 30
0.0
 10
-3.901575891008102
 20
-1.199501496735595
 30
0.0
 10
-3.850327995682334
 20
-1.201039514417634
 30
0.0
 10
-3.775378734917521
 20
-1.213892697919741
 30
0.0
 10
-3.704484929648832
 20
-1.235474136824854
 30
0.0
 10
-3.637238435914172
 20
-1.265019777478424
 30
0.0
 10
-3.574040155805916
 20
-1.303420153121662
 30
0.0
 10
-3.514426835511503
 20
-1.349795877043922
 30
0.0
 10
-3.459435174055375
 20
-1.405459450086485
 30
0.0
 10
-3.426899262785249
 20
-1.447265236816115
 30
0.0
 10
-3.410256410256381
 20
-1.468649839743569
 30
0.0
  0
SPLINE
  5
74
330
1F
100
AcDbEntity
  8
0
  6
Continuous
 62
     7
370
    25
100
AcDbSpline
210
0.0
220
0.0
230
1.0
 70
     8
 71
     3
 72
    23
 73
    19
 74
     0
 42
0.000000001
 43
0.00000001
 40
0.0
 40
0.0
 40
0.0
 40
0.0
 40
0.0637745323056322
 40
0.1260788099895057
 40
0.1869040927472073
 40
0.2475739349176198
 40
0.3080033561644469
 40
0.3691318984609779
 40
0.4320332277442046
 40
0.4967907944370912
 40
0.5616108232295652
 40
0.6249138657484627
 40
0.686726349241925
 40
0.7480788332577712
 40
0.8095822911398958
 40
0.8716307425688274
 40
0.9348858208285543
 40
1.0
 40
1.0
 40
1.0
 40
1.0
 10
-4.599358974358945
 20
-1.857071314102543
 30
0.0
 10
-4.598732488666504
 20
-1.834839462317829
 30
0.0
 10
-4.597493960248922
 20
-1.790888290658161
 30
0.0
 10
-4.588267350328788
 20
-1.726248941665233
 30
0.0
 10
-4.572751845999199
 20
-1.663989811298612
 30
0.0
 10
-4.550977922166253
 20
-1.604311339686732
 30
0.0
 10
-4.523056944684694
 20
-1.547141314612437
 30
0.0
 10
-4.489092901174267
 20
-1.492439302104968
 30
0.0
 10
-4.44908333882485
 20
-1.440054603373951
 30
0.0
 10
-4.402957135316656
 20
-1.391218989964563
 30
0.0
 10
-4.352989750235339
 20
-1.346108682829873
 30
0.0
 10
-4.299535384777654
 20
-1.306904160108641
 30
0.0
 10
-4.243923744117236
 20
-1.273045735700629
 30
0.0
 10
-4.185292238856047
 20
-1.246218997547454
 30
0.0
 10
-4.124508686449047
 20
-1.224514445275224
 30
0.0
 10
-4.061031963575433
 20
-1.209497961224967
 30
0.0
 10
-3.995126174237645
 20
-1.200649300604963
 30
0.0
 10
-3.950380928205338
 20
-1.199367918529421
 30
0.0
 10
-3.927684294871767
 20
-1.198717948717928
 30
0.0
  0
SPLINE
  5
75
330
1F
100
AcDbEntity
  8
0
  6
Continuous
 62
     7
370
    25
100
AcDbSpline
210
0.0
220
0.0
230
1.0
 70
     8
 71
     3
 72
    23
 73
    19
 74
     0
 42
0.000000001
 43
0.00000001
 40
0.0
 40
0.0
 40
0.0
 40
0.0
 40
0.0646199913407683
 40
0.1274334841444695
 40
0.1890041265579401
 40
0.2499300706860472
 40
0.3106684537406721
 40
0.3723289611368243
 40
0.4349391099970082
 40
0.4995755441940345
 40
0.5641912077719242
 40
0.6267352169294784
 40
0.6881093335614018
 40
0.7492936065367514
 40
0.8103305278109453
 40
0.8719011702244159
 40
0.9350459146845315
 40
1.0
 40
1.0
 40
1.0
 40
1.0
 10
-3.932592147435868
 20
-2.522435897435876
 30
0.0
 10
-3.955176124352136
 20
-2.5218227113013
 30
0.0
 10
-3.999712726796134
 20
-2.520613481093484
 30
0.0
 10
-4.065227265365591
 20
-2.511232329284345
 30
0.0
 10
-4.128273390091922
 20
-2.496167018463307
 30
0.0
 10
-4.188910676422815
 20
-2.475216573717423
 30
0.0
 10
-4.246746749139869
 20
-2.44742616289833
 30
0.0
 10
-4.302276797476023
 20
-2.414155538877621
 30
0.0
 10
-4.355213143485582
 20
-2.374535123837297
 30
0.0
 10
-4.404748912967507
 20
-2.329241109660853
 30
0.0
 10
-4.45036491315546
 20
-2.280043616069048
 30
0.0
 10
-4.49039554946655
 20
-2.227570842631482
 30
0.0
 10
-4.523772089393924
 20
-2.172049690685149
 30
0.0
 10
-4.551682129747558
 20
-2.114183113740792
 30
0.0
 10
-4.57318030196793
 20
-2.053525653973777
 30
0.0
 10
-4.588167119096885
 20
-1.990287070003886
 30
0.0
 10
-4.597537342447218
 20
-1.924542133233963
 30
0.0
 10
-4.598746072789695
 20
-1.879772371686158
 30
0.0
 10
-4.599358974358945
 20
-1.857071314102543
 30
0.0
  0
SPLINE
  5
76
330
1F
100
AcDbEntity
  8
0
  6
Continuous
 62
     7
370
    25
100
AcDbSpline
210
0.0
220
0.0
230
1.0
 70
     8
 71
     3
 72
    15
 73
    11
 74
     0
 42
0.000000001
 43
0.00000001
 40
0.0
 40
0.0
 40
0.0
 40
0.0
 40
0.1342983790141679
 40
0.2620849753823016
 40
0.3862699121345007
 40
0.5071645966228004
 40
0.6273002357255071
 40
0.7481449416029942
 40
0.8723701771613526
 40
1.0
 40
1.0
 40
1.0
 40
1.0
 10
-3.410256410256381
 20
-2.278796073717928
 30
0.0
 10
-3.427965805569461
 20
-2.298815870696844
 30
0.0
 10
-3.462525913209885
 20
-2.337884756240314
 30
0.0
 10
-3.52024647219562
 20
-2.388925842485689
 30
0.0
 10
-3.581430561146864
 20
-2.431115003255717
 30
0.0
 10
-3.645781221712214
 20
-2.465189961105913
 30
0.0
 10
-3.713240343384522
 20
-2.490785989274591
 30
0.0
 10
-3.783658387022648
 20
-2.50897906883749
 30
0.0
 10
-3.857064077455418
 20
-2.520675986423616
 30
0.0
 10
-3.907190254850421
 20
-2.521843997358132
 30
0.0
 10
-3.932592147435868
 20
-2.522435897435876
 30
0.0
  0
SPLINE
  5
81
330
1F
100
AcDbEntity
  8
0
  6
Continuous
 62
     7
370
    25
100
AcDbSpline
210
0.0
220
0.0
230
1.0
 70
     8
 71
     3
 72
    15
 73
    11
 74
     0
 42
0.000000001
 43
0.00000001
 40
0.0
 40
0.0
 40
0.0
 40
0.0
 40
0.0769954547170576
 40
0.1676150771831729
 40
0.2710523936342343
 40
0.3894595025720738
 40
0.5208428024655758
 40
0.6663987586080733
 40
0.826093612515315
 40
1.0
 40
1.0
 40
1.0
 40
1.0
 10
0.1363681891025925
 20
-1.694411057692286
 30
0.0
 10
0.1343983648147473
 20
-1.703038659219233
 30
0.0
 10
0.1301101603842678
 20
-1.721820496421949
 30
0.0
 10
0.1254785704548385
 20
-1.752642706114238
 30
0.0
 10
0.1212747827540007
 20
-1.788297693610317
 30
0.0
 10
0.1177563034447134
 20
-1.828743852138236
 30
0.0
 10
0.115603595209425
 20
-1.874122789697008
 30
0.0
 10
0.1132563968225976
 20
-1.924240708599003
 30
0.0
 10
0.1124018662894049
 20
-1.979297452777045
 30
0.0
 10
0.1122556892806318
 20
-2.017628299139429
 30
0.0
 10
0.1121794871795156
 20
-2.037610176282029
 30
0.0
  0
SPLINE
  5
82
330
1F
100
AcDbEntity
  8
0
  6
Continuous
 62
     7
370
    25
100
AcDbSpline
210
0.0
220
0.0
230
1.0
 70
     8
 71
     3
 72
    23
 73
    19
 74
     0
 42
0.000000001
 43
0.00000001
 40
0.0
 40
0.0
 40
0.0
 40
0.0
 40
0.0639861098164668
 40
0.126626858089477
 40
0.1889843719814867
 40
0.250230193960398
 40
0.3123511629623216
 40
0.3745736184579387
 40
0.438147530878204
 40
0.50292041260737
 40
0.5679740951402713
 40
0.6307713337491899
 40
0.6929346089254588
 40
0.7543975343123289
 40
0.8152183520172952
 40
0.8761169254810908
 40
0.9380146047939528
 40
1.0
 40
1.0
 40
1.0
 40
1.0
 10
0.5714142628205413
 20
-1.355769230769209
 30
0.0
 10
0.5587804210181065
 20
-1.356007233100979
 30
0.0
 10
0.5337783745172253
 20
-1.35647823356618
 30
0.0
 10
0.4967033885641508
 20
-1.361203882577675
 30
0.0
 10
0.4607413019751716
 20
-1.368933110376855
 30
0.0
 10
0.4255311974777831
 20
-1.379367429126428
 30
0.0
 10
0.3917773006102619
 20
-1.393698563737773
 30
0.0
 10
0.3583951550201703
 20
-1.409963248850226
 30
0.0
 10
0.3266417729552563
 20
-1.430237354842891
 30
0.0
 10
0.2958400743910161
 20
-1.452832665562771
 30
0.0
 10
0.267183670564431
 20
-1.477872269161565
 30
0.0
 10
0.2405195013591034
 20
-1.504294524238009
 30
0.0
 10
0.2167504912335529
 20
-1.532432326136053
 30
0.0
 10
0.1952161535917064
 20
-1.561832299900589
 30
0.0
 10
0.1766270219029194
 20
-1.592898218899139
 30
0.0
 10
0.1604004778717629
 20
-1.625330372138541
 30
0.0
 10
0.1466326304758959
 20
-1.659171446550474
 30
0.0
 10
0.1397912842409719
 20
-1.682658977165852
 30
0.0
 10
0.1363681891025925
 20
-1.694411057692286
 30
0.0
  0
SPLINE
  5
83
330
1F
100
AcDbEntity
  8
0
  6
Continuous
 62
     7
370
    25
100
AcDbSpline
210
0.0
220
0.0
230
1.0
 70
     8
 71
     3
 72
    15
 73
    11
 74
     0
 42
0.000000001
 43
0.00000001
 40
0.0
 40
0.0
 40
0.0
 40
0.0
 40
0.1355195283706052
 40
0.2608331631936791
 40
0.3784760291245033
 40
0.4931776464746765
 40
0.6092809649289386
 40
0.7299810378566458
 40
0.8592613089300661
 40
1.0
 40
1.0
 40
1.0
 40
1.0
 10
0.9012920673077207
 20
-1.607471955128183
 30
0.0
 10
0.8959793015545592
 20
-1.587616362654359
 30
0.0
 10
0.8857538712172089
 20
-1.549400490342073
 30
0.0
 10
0.860486879654637
 20
-1.49756331403135
 30
0.0
 10
0.8285797892609527
 20
-1.4534642201167
 30
0.0
 10
0.789630864578369
 20
-1.417375859304504
 30
0.0
 10
0.7440163267581833
 20
-1.389290440951999
 30
0.0
 10
0.6918627553742659
 20
-1.369803463588469
 30
0.0
 10
0.6336734350381058
 20
-1.357615328989016
 30
0.0
 10
0.5927462437013644
 20
-1.356401762981353
 30
0.0
 10
0.5714142628205413
 20
-1.355769230769209
 30
0.0
  0
SPLINE
  5
84
330
1F
100
AcDbEntity
  8
0
  6
Continuous
 62
     7
370
    25
100
AcDbSpline
210
0.0
220
0.0
230
1.0
 70
     8
 71
     3
 72
    15
 73
    11
 74
     0
 42
0.000000001
 43
0.00000001
 40
0.0
 40
0.0
 40
0.0
 40
0.0
 40
0.1788500194111597
 40
0.3421096489422992
 40
0.489825663368392
 40
0.6232544282245642
 40
0.7400796760857922
 40
0.8414826730699855
 40
0.9289076721840651
 40
1.0
 40
1.0
 40
1.0
 40
1.0
 10
0.9198717948718234
 20
-1.898437499999978
 30
0.0
 10
0.9197751908623502
 20
-1.881026277535599
 30
0.0
 10
0.9195904038331056
 20
-1.847721572148616
 30
0.0
 10
0.9190075804908377
 20
-1.800037060553444
 30
0.0
 10
0.9176026771893543
 20
-1.756793771352055
 30
0.0
 10
0.9156285207313339
 20
-1.718095087649344
 30
0.0
 10
0.9127390054667076
 20
-1.683978169367669
 30
0.0
 10
0.9097276897917078
 20
-1.654373530998417
 30
0.0
 10
0.9060452013932357
 20
-1.62931875978201
 30
0.0
 10
0.9027637448246544
 20
-1.614236218590445
 30
0.0
 10
0.9012920673077207
 20
-1.607471955128183
 30
0.0
  0
SPLINE
  5
88
330
1F
100
AcDbEntity
  8
0
  6
Continuous
 62
     7
370
    25
100
AcDbSpline
210
0.0
220
0.0
230
1.0
 70
     8
 71
     3
 72
    23
 73
    19
 74
     0
 42
0.000000001
 43
0.00000001
 40
0.0
 40
0.0
 40
0.0
 40
0.0
 40
0.0772404236164787
 40
0.1511781404663829
 40
0.2234879838003996
 40
0.2955426441988697
 40
0.3669762546197896
 40
0.4371305254863862
 40
0.5070436156432693
 40
0.5785597335236781
 40
0.6166135446965535
 40
0.6587562369775292
 40
0.7044912261144045
 40
0.7548031149051502
 40
0.8093316253185657
 40
0.8682744554728212
 40
0.9320728834092938
 40
1.0
 40
1.0
 40
1.0
 40
1.0
 10
0.5987580128205413
 20
-1.198717948717927
 30
0.0
 10
0.6224233298788159
 20
-1.199590546438524
 30
0.0
 10
0.6687420637607211
 20
-1.201298430660265
 30
0.0
 10
0.7361810944517495
 20
-1.214806776215787
 30
0.0
 10
0.7991677912951395
 20
-1.237879403778114
 30
0.0
 10
0.8574775691891832
 20
-1.269485438979637
 30
0.0
 10
0.9100411758705039
 20
-1.308788675681539
 30
0.0
 10
0.9562036016085883
 20
-1.354577566561117
 30
0.0
 10
0.9943852252973804
 20
-1.407245608178921
 30
0.0
 10
1.019983906797235
 20
-1.456107186297222
 30
0.0
 10
1.03684673064273
 20
-1.49945158343362
 30
0.0
 10
1.047462899399641
 20
-1.536574958483044
 30
0.0
 10
1.056478390129328
 20
-1.577934034067581
 30
0.0
 10
1.064294264138176
 20
-1.62340382859478
 30
0.0
 10
1.069582820071893
 20
-1.673302923720959
 30
0.0
 10
1.073753965837534
 20
-1.727426769747421
 30
0.0
 10
1.076743312981683
 20
-1.78575783499521
 30
0.0
 10
1.076861916475059
 20
-1.826101148700151
 30
0.0
 10
1.076923076923105
 20
-1.846905048076901
 30
0.0
  0
SPLINE
  5
89
330
1F
100
AcDbEntity
  8
0
  6
Continuous
 62
     7
370
    25
100
AcDbSpline
210
0.0
220
0.0
230
1.0
 70
     8
 71
     3
 72
    15
 73
    11
 74
     0
 42
0.000000001
 43
0.00000001
 40
0.0
 40
0.0
 40
0.0
 40
0.0
 40
0.1409759662687707
 40
0.2735687809631697
 40
0.3989883138042539
 40
0.5199297813924318
 40
0.6381100215247449
 40
0.7565889007405949
 40
0.8768597544106073
 40
1.0
 40
1.0
 40
1.0
 40
1.0
 10
0.1121794871795156
 20
-1.451822916666645
 30
0.0
 10
0.1289483047455726
 20
-1.430901555247832
 30
0.0
 10
0.161488780268855
 20
-1.390302923502881
 30
0.0
 10
0.2156809469065619
 20
-1.336942636222839
 30
0.0
 10
0.2729528970678679
 20
-1.292970023700449
 30
0.0
 10
0.3329538988114482
 20
-1.257918126728288
 30
0.0
 10
0.395765403861412
 20
-1.231494813653957
 30
0.0
 10
0.4610045388429591
 20
-1.212411848111121
 30
0.0
 10
0.5290618918868617
 20
-1.200969433841312
 30
0.0
 10
0.5753441103236304
 20
-1.199474318691549
 30
0.0
 10
0.5987580128205414
 20
-1.198717948717927
 30
0.0
  0
SPLINE
  5
9A
330
1F
100
AcDbEntity
  8
0
  6
Continuous
 62
     7
370
    25
100
AcDbSpline
210
0.0
220
0.0
230
1.0
 70
     8
 71
     3
 72
    31
 73
    27
 74
     0
 42
0.000000001
 43
0.00000001
 40
0.0
 40
0.0
 40
0.0
 40
0.0
 40
0.0420341186638458
 40
0.0839054330862333
 40
0.1250689344486243
 40
0.1661584697031404
 40
0.2072102728707296
 40
0.2484907320562536
 40
0.2898781122327938
 40
0.3321695142040873
 40
0.3744758421539219
 40
0.4162249804562092
 40
0.457609586958506
 40
0.4990731704672243
 40
0.5405533615534479
 40
0.5822488491953584
 40
0.6245497501259993
 40
0.667432800921036
 40
0.7103225433055328
 40
0.7524671185698669
 40
0.7940647568438064
 40
0.8352157072950135
 40
0.876228344224686
 40
0.9174461887061521
 40
0.9586431404713243
 40
1.0
 40
1.0
 40
1.0
 40
1.0
 10
3.365384615384645
 20
-1.85637019230767
 30
0.0
 10
3.365644198522416
 20
-1.841868644308112
 30
0.0
 10
3.366162359394794
 20
-1.812921714908819
 30
0.0
 10
3.370637849070498
 20
-1.769982022215087
 30
0.0
 10
3.377021943782538
 20
-1.727617304594144
 30
0.0
 10
3.387125828280483
 20
-1.686264233748118
 30
0.0
 10
3.399287089535925
 20
-1.645451857866434
 30
0.0
 10
3.414348875814562
 20
-1.60548162966069
 30
0.0
 10
3.432458255483029
 20
-1.566341375107085
 30
0.0
 10
3.452963130321237
 20
-1.528002109384378
 30
0.0
 10
3.47600517664699
 20
-1.490978301917148
 30
0.0
 10
3.501271417050521
 20
-1.455814978964812
 30
0.0
 10
3.528792354180408
 20
-1.422770893001868
 30
0.0
 10
3.558188311990538
 20
-1.391512682067676
 30
0.0
 10
3.589818220509692
 20
-1.362341935459437
 30
0.0
 10
3.62366571668233
 20
-1.33532945301769
 30
0.0
 10
3.659397156805475
 20
-1.310022439882929
 30
0.0
 10
3.697123281803433
 20
-1.286966771302412
 30
0.0
 10
3.736261976061786
 20
-1.266575648042432
 30
0.0
 10
3.775818884958229
 20
-1.247969349580098
 30
0.0
 10
3.816318002468619
 20
-1.233202289815032
 30
0.0
 10
3.85700427218059
 20
-1.220190740297286
 30
0.0
 10
3.898594229562093
 20
-1.210973142687361
 30
0.0
 10
3.940577926373323
 20
-1.203862021728484
 30
0.0
 10
3.983099095250958
 20
-1.199529661215837
 30
0.0
 10
4.011575542774736
 20
-1.1989888687245
 30
0.0
 10
4.025841346153875
 20
-1.198717948717927
 30
0.0
  0
SPLINE
  5
9B
330
1F
100
AcDbEntity
  8
0
  6
Continuous
 62
     7
370
    25
100
AcDbSpline
210
0.0
220
0.0
230
1.0
 70
     8
 71
     3
 72
    31
 73
    27
 74
     0
 42
0.000000001
 43
0.00000001
 40
0.0
 40
0.0
 40
0.0
 40
0.0
 40
0.0428647590311916
 40
0.0852222575672315
 40
0.127202284143737
 40
0.1690253126086001
 40
0.2108820330997102
 40
0.2529626777271215
 40
0.2956282851000497
 40
0.3385532936306107
 40
0.381463247717187
 40
0.4235815621432642
 40
0.465066165395451
 40
0.5063122188418635
 40
0.5470395054616144
 40
0.5876758328931715
 40
0.6286747862975597
 40
0.6699464646027599
 40
0.7110355744560756
 40
0.7519958286352163
 40
0.7926726074835041
 40
0.8334460178854421
 40
0.8741906070422418
 40
0.9154935830294662
 40
0.9574778068391468
 40
1.0
 40
1.0
 40
1.0
 40
1.0
 10
4.020933493589773
 20
-2.499999999999978
 30
0.0
 10
4.00631535887901
 20
-2.499742486764748
 30
0.0
 10
3.977252080101061
 20
-2.499230507699528
 30
0.0
 10
3.934074706484919
 20
-2.49475111898697
 30
0.0
 10
3.891534487320723
 20
-2.488251747839868
 30
0.0
 10
3.849730635507244
 20
-2.478711028348002
 30
0.0
 10
3.808602828973783
 20
-2.466465165078609
 30
0.0
 10
3.768219032913112
 20
-2.451156795703857
 30
0.0
 10
3.728252269629716
 20
-2.4338492365705
 30
0.0
 10
3.689429020698854
 20
-2.413462834851031
 30
0.0
 10
3.652135955331635
 20
-2.390781681421038
 30
0.0
 10
3.616654362763983
 20
-2.366212236065982
 30
0.0
 10
3.583170093220233
 20
-2.339883091945278
 30
0.0
 10
3.552001848495467
 20
-2.311534622047202
 30
0.0
 10
3.523190512771008
 20
-2.281207855666043
 30
0.0
 10
3.496348578743656
 20
-2.249226079149739
 30
0.0
 10
3.471919905210165
 20
-2.215142708476987
 30
0.0
 10
3.449403210589908
 20
-2.179579229710404
 30
0.0
 10
3.429874435403335
 20
-2.142298767804632
 30
0.0
 10
3.412732249490714
 20
-2.104109720090763
 30
0.0
 10
3.397827546970338
 20
-2.065093742848074
 30
0.0
 10
3.385944846102067
 20
-2.025120211520816
 30
0.0
 10
3.376869289467194
 20
-1.984214327087714
 30
0.0
 10
3.37011417597267
 20
-1.942443102651775
 30
0.0
 10
3.366282710144788
 20
-1.899677908836749
 30
0.0
 10
3.365685248122641
 20
-1.870867234239407
 30
0.0
 10
3.365384615384645
 20
-1.85637019230767
 30
0.0
  0
SPLINE
  5
9C
330
1F
100
AcDbEntity
  8
0
  6
Continuous
 62
     7
370
    25
100
AcDbSpline
210
0.0
220
0.0
230
1.0
 70
     8
 71
     3
 72
    15
 73
    11
 74
     0
 42
0.000000001
 43
0.00000001
 40
0.0
 40
0.0
 40
0.0
 40
0.0
 40
0.1265607130145252
 40
0.250895261887949
 40
0.374719265315044
 40
0.4998264235934747
 40
0.6249635314328658
 40
0.7490394747387403
 40
0.873180119941354
 40
1.0
 40
1.0
 40
1.0
 40
1.0
 10
4.532051282051311
 20
-2.254957932692286
 30
0.0
 10
4.51611072335006
 20
-2.273928833770864
 30
0.0
 10
4.484509995488074
 20
-2.311536943594124
 30
0.0
 10
4.429936331921628
 20
-2.36081776194068
 30
0.0
 10
4.370327874106677
 20
-2.403260827091375
 30
0.0
 10
4.305786102905525
 20
-2.438070144347946
 30
0.0
 10
4.237891981826142
 20
-2.465910856652589
 30
0.0
 10
4.167380866617445
 20
-2.485382337103987
 30
0.0
 10
4.094884839016868
 20
-2.497962287049158
 30
0.0
 10
4.045758764104527
 20
-2.499315945167123
 30
0.0
 10
4.020933493589773
 20
-2.499999999999978
 30
0.0
  0
SPLINE
  5
9E
330
1F
100
AcDbEntity
  8
0
  6
Continuous
 62
     7
370
    25
100
AcDbSpline
210
0.0
220
0.0
230
1.0
 70
     8
 71
     3
 72
    23
 73
    19
 74
     0
 42
0.000000001
 43
0.00000001
 40
0.0
 40
0.0
 40
0.0
 40
0.0
 40
0.0981712978276955
 40
0.1892644356875871
 40
0.2744630560180403
 40
0.355023171281738
 40
0.4309204620429343
 40
0.5010860453857535
 40
0.5666076270375981
 40
0.6297208634282994
 40
0.6627106951128597
 40
0.6987655616316136
 40
0.7386105373889623
 40
0.7825812280784438
 40
0.8304087872491274
 40
0.8825778660702774
 40
0.9392286810451789
 40
1.0
 40
1.0
 40
1.0
 40
1.0
 10
4.025841346153876
 20
-2.83653846153844
 30
0.0
 10
4.053224791325825
 20
-2.83582338714091
 30
0.0
 10
4.106017332652386
 20
-2.83444479527834
 30
0.0
 10
4.181932917175065
 20
-2.823223723192001
 30
0.0
 10
4.251230386209023
 20
-2.804437006311142
 30
0.0
 10
4.313510486522535
 20
-2.77813281318807
 30
0.0
 10
4.368038370791198
 20
-2.745907609920752
 30
0.0
 10
4.415044366433474
 20
-2.709907572715855
 30
0.0
 10
4.453116704504786
 20
-2.669317071208566
 30
0.0
 10
4.478723187839698
 20
-2.631926168163203
 30
0.0
 10
4.494640496639112
 20
-2.59861410331474
 30
0.0
 10
4.50477661502193
 20
-2.569937805335951
 30
0.0
 10
4.513013599749094
 20
-2.537511366504735
 30
0.0
 10
4.519903518516922
 20
-2.501443498393453
 30
0.0
 10
4.525588975202711
 20
-2.461682669859864
 30
0.0
 10
4.529190416376442
 20
-2.418137968172441
 30
0.0
 10
4.531793322162576
 20
-2.370908357011495
 30
0.0
 10
4.5319633070869
 20
-2.338161787906667
 30
0.0
 10
4.532051282051311
 20
-2.32121394230767
 30
0.0
  0
SPLINE
  5
9F
330
1F
100
AcDbEntity
  8
0
  6
Continuous
 62
     7
370
    25
100
AcDbSpline
210
0.0
220
0.0
230
1.0
 70
     8
 71
     3
 72
    15
 73
    11
 74
     0
 42
0.000000001
 43
0.00000001
 40
0.0
 40
0.0
 40
0.0
 40
0.0
 40
0.1247164867023062
 40
0.2438053739155092
 40
0.360061534064444
 40
0.4751119996584072
 40
0.5935250978119061
 40
0.7193501703843591
 40
0.8538547713042661
 40
1.0
 40
1.0
 40
1.0
 40
1.0
 10
3.544871794871825
 20
-2.589743589743568
 30
0.0
 10
3.557502899524536
 20
-2.609796527629771
 30
0.0
 10
3.582195153726428
 20
-2.648997551878635
 30
0.0
 10
3.62836939420984
 20
-2.699754129846046
 30
0.0
 10
3.678972557383548
 20
-2.743130812189768
 30
0.0
 10
3.735712398975774
 20
-2.778086199222124
 30
0.0
 10
3.798825006679796
 20
-2.804441094922984
 30
0.0
 10
3.868348349764565
 20
-2.823228743140973
 30
0.0
 10
3.944848160632015
 20
-2.83447687656915
 30
0.0
 10
3.998107267723537
 20
-2.835832523639335
 30
0.0
 10
4.025841346153875
 20
-2.836538461538439
 30
0.0
  0
SPLINE
  5
A1
330
1F
100
AcDbEntity
  8
0
  6
Continuous
 62
     7
370
    25
100
AcDbSpline
210
0.0
220
0.0
230
1.0
 70
     8
 71
     3
 72
    19
 73
    15
 74
     0
 42
0.000000001
 43
0.00000001
 40
0.0
 40
0.0
 40
0.0
 40
0.0
 40
0.0964914237691191
 40
0.1884736749923093
 40
0.2768399149588142
 40
0.3621365621714255
 40
0.4434367545654574
 40
0.520165520998623
 40
0.5927096635690019
 40
0.6629173343528176
 40
0.7354188002027041
 40
0.8148809699994164
 40
0.9030605557399856
 40
1.0
 40
1.0
 40
1.0
 40
1.0
 10
4.04091546474362
 20
-2.993589743589721
 30
0.0
 10
4.014473097442743
 20
-2.993161500684391
 30
0.0
 10
3.962824049827721
 20
-2.992325027234171
 30
0.0
 10
3.887521553485396
 20
-2.982579569688476
 30
0.0
 10
3.816004193522368
 20
-2.968802383151793
 30
0.0
 10
3.749216965172341
 20
-2.947949669335621
 30
0.0
 10
3.687581916737022
 20
-2.922431174470116
 30
0.0
 10
3.631519978971947
 20
-2.893133697992886
 30
0.0
 10
3.581534425213042
 20
-2.859539043592193
 30
0.0
 10
3.536472588711504
 20
-2.821288743133954
 30
0.0
 10
3.495801793643476
 20
-2.775806902315266
 30
0.0
 10
3.457538148653211
 20
-2.722207480252889
 30
0.0
 10
3.420707677724237
 20
-2.659674035677298
 30
0.0
 10
3.399123358790368
 20
-2.613777679070052
 30
0.0
 10
3.387820512820542
 20
-2.589743589743568
 30
0.0
  0
SPLINE
  5
A2
330
1F
100
AcDbEntity
  8
0
  6
Continuous
 62
     7
370
    25
100
AcDbSpline
210
0.0
220
0.0
230
1.0
 70
     8
 71
     3
 72
    23
 73
    19
 74
     0
 42
0.000000001
 43
0.00000001
 40
0.0
 40
0.0
 40
0.0
 40
0.0
 40
0.06137070629846
 40
0.1209064680177781
 40
0.1794236650000284
 40
0.2376066874397825
 40
0.295938468249372
 40
0.3542182268208567
 40
0.4135370665946767
 40
0.4740867825531878
 40
0.5351211890802694
 40
0.5969876649622259
 40
0.6600198335468074
 40
0.7242774964844949
 40
0.7900118502255389
 40
0.857747684334447
 40
0.9278290322155488
 40
1.0
 40
1.0
 40
1.0
 40
1.0
 10
4.64247796474362
 20
-2.628305288461517
 30
0.0
 10
4.636883345375357
 20
-2.642670249257211
 30
0.0
 10
4.625861382153507
 20
-2.670970667775693
 30
0.0
 10
4.605218565424037
 20
-2.711087828172523
 30
0.0
 10
4.58210161361463
 20
-2.748861023095649
 30
0.0
 10
4.555698238296991
 20
-2.784079748747967
 30
0.0
 10
4.526127836281105
 20
-2.816567204929192
 30
0.0
 10
4.494087090203847
 20
-2.847029204569054
 30
0.0
 10
4.458951994493083
 20
-2.874821288261677
 30
0.0
 10
4.420742638390097
 20
-2.899463936990085
 30
0.0
 10
4.380339821789635
 20
-2.921657464066805
 30
0.0
 10
4.337766770756299
 20
-2.940880747658609
 30
0.0
 10
4.293263551574463
 20
-2.957624169469947
 30
0.0
 10
4.246412105774997
 20
-2.970165567334815
 30
0.0
 10
4.197946988540974
 20
-2.98103292761828
 30
0.0
 10
4.147298273000754
 20
-2.988105270515442
 30
0.0
 10
4.094761874598154
 20
-2.992918799578934
 30
0.0
 10
4.059039184557966
 20
-2.993363916068529
 30
0.0
 10
4.040915464743621
 20
-2.993589743589721
 30
0.0
  0
SPLINE
  5
A3
330
1F
100
AcDbEntity
  8
0
  6
Continuous
 62
     7
370
    25
100
AcDbSpline
210
0.0
220
0.0
230
1.0
 70
     8
 71
     3
 72
    15
 73
    11
 74
     0
 42
0.000000001
 43
0.00000001
 40
0.0
 40
0.0
 40
0.0
 40
0.0
 40
0.1634452548497624
 40
0.3154887127129207
 40
0.456290823936666
 40
0.5858641495747745
 40
0.7054286858067526
 40
0.8133707129824377
 40
0.9117182381600998
 40
0.9999999999999999
 40
0.9999999999999999
 40
0.9999999999999999
 40
0.9999999999999999
 10
4.689102564102593
 20
-2.236027644230747
 30
0.0
 10
4.688964042817147
 20
-2.257646441534158
 30
0.0
 10
4.688696663369094
 20
-2.299375927886786
 30
0.0
 10
4.686771177741773
 20
-2.35971506769324
 30
0.0
 10
4.682710839131583
 20
-2.415448110459186
 30
0.0
 10
4.678106498454807
 20
-2.466829239753798
 30
0.0
 10
4.671483140295035
 20
-2.513620294783788
 30
0.0
 10
4.66339495667584
 20
-2.555960897120779
 30
0.0
 10
4.654277117099798
 20
-2.593891678304587
 30
0.0
 10
4.646267008372641
 20
-2.617254098818352
 30
0.0
 10
4.642477964743619
 20
-2.628305288461517
 30
0.0
  0
SPLINE
  5
A7
330
1F
100
AcDbEntity
  8
0
  6
Continuous
 62
     7
370
    25
100
AcDbSpline
210
0.0
220
0.0
230
1.0
 70
     8
 71
     3
 72
    15
 73
    11
 74
     0
 42
0.000000001
 43
0.00000001
 40
0.0
 40
0.0
 40
0.0
 40
0.0
 40
0.1209110787487137
 40
0.2387622286387253
 40
0.3547548590848623
 40
0.4703593994502185
 40
0.5891440987928706
 40
0.7163289048363438
 40
0.8524452858576012
 40
1.0
 40
1.0
 40
1.0
 40
1.0
 10
4.025841346153875
 20
-1.198717948717927
 30
0.0
 10
4.049366815643607
 20
-1.199396285358996
 30
0.0
 10
4.09582238930377
 20
-1.200735791795174
 30
0.0
 10
4.164187890518012
 20
-1.211246364486775
 30
0.0
 10
4.230159010506491
 20
-1.228003371162599
 30
0.0
 10
4.294108018344978
 20
-1.252011186417689
 30
0.0
 10
4.356555843845609
 20
-1.284786205585204
 30
0.0
 10
4.417296671500617
 20
-1.327957679590343
 30
0.0
 10
4.476506238588078
 20
-1.381912849456326
 30
0.0
 10
4.513045153861921
 20
-1.423289281639931
 30
0.0
 10
4.532051282051311
 20
-1.444811698717927
 30
0.0
  0
SPLINE
  5
CC
330
1F
100
AcDbEntity
  8
0
  6
Continuous
 62
     7
370
    25
100
AcDbSpline
210
0.0
220
0.0
230
1.0
 70
     8
 71
     3
 72
    19
 73
    15
 74
     0
 42
0.000000001
 43
0.00000001
 40
0.0
 40
0.0
 40
0.0
 40
0.0
 40
0.0969723103815159
 40
0.1877734389628682
 40
0.272396139013693
 40
0.3513209973752889
 40
0.4243347744514666
 40
0.4919087840005266
 40
0.5542332197968005
 40
0.6112676582441545
 40
0.7163478449915538
 40
0.8145400858216157
 40
0.9084954561491854
 40
1.0
 40
1.0
 40
1.0
 40
1.0
 10
3.697115384615413
 20
3.203125000000014
 30
0.0
 10
3.729674738878911
 20
3.179432406100256
 30
0.0
 10
3.792721415774759
 20
3.133554981740608
 30
0.0
 10
3.882427912841775
 20
3.064627256002799
 30
0.0
 10
3.963765462637358
 20
2.997214882939123
 30
0.0
 10
4.037019637126076
 20
2.931748362571047
 30
0.0
 10
4.10291413007445
 20
2.868724282853635
 30
0.0
 10
4.160717890652839
 20
2.807384413999193
 30
0.0
 10
4.211019902378999
 20
2.748168208843003
 30
0.0
 10
4.265173518201983
 20
2.672248858250558
 30
0.0
 10
4.320508792076683
 20
2.579007928872554
 30
0.0
 10
4.368030084156223
 20
2.46476943869089
 30
0.0
 10
4.397994381974414
 20
2.350086878264919
 30
0.0
 10
4.401912823773235
 20
2.273006732714869
 30
0.0
 10
4.403846153846182
 20
2.234975961538476
 30
0.0
  0
SPLINE
  5
CD
330
1F
100
AcDbEntity
  8
0
  6
Continuous
 62
     7
370
    25
100
AcDbSpline
210
0.0
220
0.0
230
1.0
 70
     8
 71
     3
 72
    15
 73
    11
 74
     0
 42
0.000000001
 43
0.00000001
 40
0.0
 40
0.0
 40
0.0
 40
0.0
 40
0.052594281529137
 40
0.1249519739750395
 40
0.2180938989285937
 40
0.3335024107325191
 40
0.4687891785044473
 40
0.6249375859645976
 40
0.801683047928227
 40
1.0
 40
1.0
 40
1.0
 40
1.0
 10
3.29387019230772
 20
3.5018028846154
 30
0.0
 10
3.300437082942883
 20
3.495942576773266
 30
0.0
 10
3.316038511917382
 20
3.48201982677676
 30
0.0
 10
3.344560733979954
 20
3.459226443367839
 30
0.0
 10
3.382225989605617
 20
3.431109781400464
 30
0.0
 10
3.428050733471483
 20
3.3963206529935
 30
0.0
 10
3.482879900666101
 20
3.35596511403584
 30
0.0
 10
3.546719520218622
 20
3.310559160752584
 30
0.0
 10
3.618857976934283
 20
3.258628767318113
 30
0.0
 10
3.670048190562499
 20
3.222322303938169
 30
0.0
 10
3.697115384615413
 20
3.203125000000014
 30
0.0
  0
SPLINE
  5
CE
330
1F
100
AcDbEntity
  8
0
  6
Continuous
 62
     7
370
    25
100
AcDbSpline
210
0.0
220
0.0
230
1.0
 70
     8
 71
     3
 72
    15
 73
    11
 74
     0
 42
0.000000001
 43
0.00000001
 40
0.0
 40
0.0
 40
0.0
 40
0.0
 40
0.1072852142689563
 40
0.2147458609696406
 40
0.3229385595552872
 40
0.4341161625174669
 40
0.5534123109627955
 40
0.6860729848107308
 40
0.8342559920595849
 40
1.0
 40
1.0
 40
1.0
 40
1.0
 10
3.096153846153874
 20
3.889423076923092
 30
0.0
 10
3.096490811840939
 20
3.873350381031269
 30
0.0
 10
3.097165294220258
 20
3.84117870722783
 30
0.0
 10
3.10657226366573
 20
3.793648916981583
 30
0.0
 10
3.118657402772451
 20
3.746239197479903
 30
0.0
 10
3.137808229989669
 20
3.699162697907758
 30
0.0
 10
3.164247061660336
 20
3.651596104434391
 30
0.0
 10
3.198965783865792
 20
3.602720329384206
 30
0.0
 10
3.242691479908629
 20
3.552104579093813
 30
0.0
 10
3.27618606192413
 20
3.519183973001037
 30
0.0
 10
3.29387019230772
 20
3.501802884615399
 30
0.0
  0
SPLINE
  5
CF
330
1F
100
AcDbEntity
  8
0
  6
Continuous
 62
     7
370
    25
100
AcDbSpline
210
0.0
220
0.0
230
1.0
 70
     8
 71
     3
 72
    15
 73
    11
 74
     0
 42
0.000000001
 43
0.00000001
 40
0.0
 40
0.0
 40
0.0
 40
0.0
 40
0.1430730837303632
 40
0.2759029640930101
 40
0.402370856273997
 40
0.5284136450935957
 40
0.6503563791869519
 40
0.7658950861246949
 40
0.8807741308440215
 40
1.0
 40
1.0
 40
1.0
 40
1.0
 10
3.53605769230772
 20
4.269230769230784
 30
0.0
 10
3.505066387388744
 20
4.268192169272023
 30
0.0
 10
3.445302575319311
 20
4.266189327090546
 30
0.0
 10
3.360453801512823
 20
4.244315053983422
 30
0.0
 10
3.28408758003004
 20
4.209873459435548
 30
0.0
 10
3.218471095696154
 20
4.161603478210692
 30
0.0
 10
3.163839401087833
 20
4.104414055909161
 30
0.0
 10
3.124320436432205
 20
4.038603608702088
 30
0.0
 10
3.100534581101879
 20
3.9659329778982
 30
0.0
 10
3.097632055686701
 20
3.915240129613877
 30
0.0
 10
3.096153846153874
 20
3.889423076923091
 30
0.0
  0
SPLINE
  5
D0
330
1F
100
AcDbEntity
  8
0
  6
Continuous
 62
     7
370
    25
100
AcDbSpline
210
0.0
220
0.0
230
1.0
 70
     8
 71
     3
 72
    19
 73
    15
 74
     0
 42
0.000000001
 43
0.00000001
 40
0.0
 40
0.0
 40
0.0
 40
0.0
 40
0.0984694310255575
 40
0.1896291011376312
 40
0.2741840894379698
 40
0.3521831609671549
 40
0.4231988731834694
 40
0.4885509460005329
 40
0.5484733460279377
 40
0.6014401636178722
 40
0.7011980824257665
 40
0.7995918021381847
 40
0.8985450984822284
 40
1.0
 40
1.0
 40
1.0
 40
1.0
 10
4.121995192307721
 20
3.8846153846154
 30
0.0
 10
4.107298678760021
 20
3.903548547834789
 30
0.0
 10
4.078996629841066
 20
3.940009393455532
 30
0.0
 10
4.036028498246335
 20
3.991070521118038
 30
0.0
 10
3.99552965717181
 20
4.0377132178597
 30
0.0
 10
3.955629314499625
 20
4.078226184742594
 30
0.0
 10
3.918434773243126
 20
4.114828013317923
 30
0.0
 10
3.882334451317161
 20
4.146164947738885
 30
0.0
 10
3.847847864542242
 20
4.172544029536104
 30
0.0
 10
3.804376226845638
 20
4.200695652358244
 30
0.0
 10
3.749761039711472
 20
4.22860122683375
 30
0.0
 10
3.681202865792055
 20
4.252214722328939
 30
0.0
 10
3.60955748719065
 20
4.266404775402185
 30
0.0
 10
3.56076066019863
 20
4.268280964746038
 30
0.0
 10
3.53605769230772
 20
4.269230769230784
 30
0.0
  0
SPLINE
  5
D2
330
1F
100
AcDbEntity
  8
0
  6
Continuous
 62
     7
370
    25
100
AcDbSpline
210
0.0
220
0.0
230
1.0
 70
     8
 71
     3
 72
    19
 73
    15
 74
     0
 42
0.000000001
 43
0.00000001
 40
0.0
 40
0.0
 40
0.0
 40
0.0
 40
0.1072327993600884
 40
0.213251812781849
 40
0.3188304473075868
 40
0.426793530634275
 40
0.4836459507827182
 40
0.5436038220211419
 40
0.6083076495640833
 40
0.6771267602600402
 40
0.7506856360204955
 40
0.8287134184432865
 40
0.9121903482234522
 40
1.0
 40
1.0
 40
1.0
 40
1.0
 10
3.566105769230797
 20
4.576923076923091
 30
0.0
 10
3.601457855200521
 20
4.575703746980937
 30
0.0
 10
3.671761870983487
 20
4.573278888895579
 30
0.0
 10
3.775175484328812
 20
4.552195290621516
 30
0.0
 10
3.874741812672192
 20
4.517309000517534
 30
0.0
 10
3.954836039660329
 20
4.477718722251047
 30
0.0
 10
4.017521263770462
 20
4.438177508782525
 30
0.0
 10
4.065326463218118
 20
4.402160516543521
 30
0.0
 10
4.113769992463745
 20
4.360696137739921
 30
0.0
 10
4.163242610888389
 20
4.313673926813506
 30
0.0
 10
4.212906033264815
 20
4.260662425879556
 30
0.0
 10
4.263497563759807
 20
4.202024692528791
 30
0.0
 10
4.315135508454686
 20
4.138119073216465
 30
0.0
 10
4.348354817132321
 20
4.092498072569739
 30
0.0
 10
4.365384615384643
 20
4.069110576923091
 30
0.0
  0
SPLINE
  5
D3
330
1F
100
AcDbEntity
  8
0
  6
Continuous
 62
     7
370
    25
100
AcDbSpline
210
0.0
220
0.0
230
1.0
 70
     8
 71
     3
 72
    19
 73
    15
 74
     0
 42
0.000000001
 43
0.00000001
 40
0.0
 40
0.0
 40
0.0
 40
0.0
 40
0.0837853706537098
 40
0.1657798879221421
 40
0.2462800078932623
 40
0.32746092773639
 40
0.4087969540320678
 40
0.489715241230988
 40
0.5713760321300526
 40
0.6555233211112768
 40
0.7410194827999729
 40
0.8265467605037605
 40
0.9119888516548332
 40
0.9999999999999999
 40
0.9999999999999999
 40
0.9999999999999999
 40
0.9999999999999999
 10
2.826923076923105
 20
3.8768028846154
 30
0.0
 10
2.828041827488849
 20
3.908542691385145
 30
0.0
 10
2.830255416113628
 20
3.971343888872309
 30
0.0
 10
2.848975859488271
 20
4.063084600679826
 30
0.0
 10
2.878524054049261
 20
4.15067295829488
 30
0.0
 10
2.919919672216325
 20
4.233241815773207
 30
0.0
 10
2.973283117574813
 20
4.308641227963105
 30
0.0
 10
3.035036809887861
 20
4.377738502519132
 30
0.0
 10
3.108589512377111
 20
4.435825858708461
 30
0.0
 10
3.189291760888604
 20
4.486579051613504
 30
0.0
 10
3.277625794102333
 20
4.526304130362417
 30
0.0
 10
3.370189425586016
 20
4.556270684785696
 30
0.0
 10
3.46712977303618
 20
4.573250048520803
 30
0.0
 10
3.532789602713394
 20
4.575686704160214
 30
0.0
 10
3.566105769230797
 20
4.576923076923091
 30
0.0
  0
SPLINE
  5
D4
330
1F
100
AcDbEntity
  8
0
  6
Continuous
 62
     7
370
    25
100
AcDbSpline
210
0.0
220
0.0
230
1.0
 70
     8
 71
     3
 72
    15
 73
    11
 74
     0
 42
0.000000001
 43
0.00000001
 40
0.0
 40
0.0
 40
0.0
 40
0.0
 40
0.1335067689985187
 40
0.2625589787303702
 40
0.3882644471488787
 40
0.5126673546814274
 40
0.6337222699657598
 40
0.7553938601370943
 40
0.8775529450912782
 40
1.0
 40
1.0
 40
1.0
 40
1.0
 10
2.994591346153874
 20
3.42007211538463
 30
0.0
 10
2.981329164527175
 20
3.437730146973944
 30
0.0
 10
2.955247304485446
 20
3.472457035919406
 30
0.0
 10
2.92081929980108
 20
3.526735485434584
 30
0.0
 10
2.891557160259608
 20
3.582298284356781
 30
0.0
 10
2.868618018428547
 20
3.639294739697856
 30
0.0
 10
2.849301259423197
 20
3.696924678738346
 30
0.0
 10
2.836308747379394
 20
3.755940032195161
 30
0.0
 10
2.828173264308724
 20
3.816075990879009
 30
0.0
 10
2.827340132994632
 20
3.856544705698301
 30
0.0
 10
2.826923076923105
 20
3.876802884615399
 30
0.0
  0
SPLINE
  5
D5
330
1F
100
AcDbEntity
  8
0
  6
Continuous
 62
     7
370
    25
100
AcDbSpline
210
0.0
220
0.0
230
1.0
 70
     8
 71
     3
 72
    15
 73
    11
 74
     0
 42
0.000000001
 43
0.00000001
 40
0.0
 40
0.0
 40
0.0
 40
0.0
 40
0.1815353013762846
 40
0.3470816724816286
 40
0.4955678164315542
 40
0.6283573018772142
 40
0.7455196699921559
 40
0.8458307507576522
 40
0.9307818073847586
 40
1.0
 40
1.0
 40
1.0
 40
1.0
 10
3.486177884615412
 20
3.012019230769245
 30
0.0
 10
3.454614459319079
 20
3.034500877300096
 30
0.0
 10
3.394267593678923
 20
3.077484073509934
 30
0.0
 10
3.309874523096322
 20
3.141276316950181
 30
0.0
 10
3.234407840516397
 20
3.199599633700381
 30
0.0
 10
3.168202969210703
 20
3.253003072645413
 30
0.0
 10
3.111289029056935
 20
3.301493876699591
 30
0.0
 10
3.063217533901954
 20
3.34460639596431
 30
0.0
 10
3.02521305639147
 20
3.38350659099433
 30
0.0
 10
3.004079701541305
 20
3.408742026775895
 30
0.0
 10
2.994591346153874
 20
3.42007211538463
 30
0.0
  0
SPLINE
  5
D6
330
1F
100
AcDbEntity
  8
0
  6
Continuous
 62
     7
370
    25
100
AcDbSpline
210
0.0
220
0.0
230
1.0
 70
     8
 71
     3
 72
    15
 73
    11
 74
     0
 42
0.000000001
 43
0.00000001
 40
0.0
 40
0.0
 40
0.0
 40
0.0
 40
0.0902792146500143
 40
0.1895299184469579
 40
0.2991978724002878
 40
0.418925886773819
 40
0.5483762854012472
 40
0.6881363695386802
 40
0.8390835016589197
 40
1.0
 40
1.0
 40
1.0
 40
1.0
 10
4.027043269230797
 20
2.533653846153861
 30
0.0
 10
4.013611314218858
 20
2.550836837813867
 30
0.0
 10
3.985412604827496
 20
2.58691037944381
 30
0.0
 10
3.936934736890624
 20
2.640606295565616
 30
0.0
 10
3.880049496057435
 20
2.695993511810235
 30
0.0
 10
3.816703591847431
 20
2.75518698919538
 30
0.0
 10
3.744589515698336
 20
2.815433672070842
 30
0.0
 10
3.665965931924206
 20
2.879606481732798
 30
0.0
 10
3.578825481381809
 20
2.945264976344234
 30
0.0
 10
3.517711627137819
 20
2.989298603955567
 30
0.0
 10
3.486177884615412
 20
3.012019230769245
 30
0.0
  0
SPLINE
  5
D7
330
1F
100
AcDbEntity
  8
0
  6
Continuous
 62
     7
370
    25
100
AcDbSpline
210
0.0
220
0.0
230
1.0
 70
     8
 71
     3
 72
    11
 73
     7
 74
     0
 42
0.000000001
 43
0.00000001
 40
0.0
 40
0.0
 40
0.0
 40
0.0
 40
0.2347233736739014
 40
0.4771583189289876
 40
0.728556284203054
 40
1.0
 40
1.0
 40
1.0
 40
1.0
 10
4.134615384615412
 20
2.239182692307707
 30
0.0
 10
4.133351689730301
 20
2.264160563485533
 30
0.0
 10
4.130782782690576
 20
2.314936925613808
 30
0.0
 10
4.109070085485606
 20
2.389850913860058
 30
0.0
 10
4.074913588191221
 20
2.463987402452278
 30
0.0
 10
4.043402750729816
 20
2.50984563009036
 30
0.0
 10
4.027043269230797
 20
2.533653846153861
 30
0.0
  0
SPLINE
  5
D8
330
1F
100
AcDbEntity
  8
0
  6
Continuous
 62
     7
370
    25
100
AcDbSpline
210
0.0
220
0.0
230
1.0
 70
     8
 71
     3
 72
    19
 73
    15
 74
     0
 42
0.000000001
 43
0.00000001
 40
0.0
 40
0.0
 40
0.0
 40
0.0
 40
0.091263604896626
 40
0.180930311085082
 40
0.2700882198317229
 40
0.3601561333877272
 40
0.4483425324981536
 40
0.5326658421383307
 40
0.613833704107048
 40
0.6939815272835587
 40
0.7727159770890042
 40
0.8493351720622467
 40
0.9239673265752323
 40
1.0
 40
1.0
 40
1.0
 40
1.0
 10
3.546875000000028
 20
1.730769230769245
 30
0.0
 10
3.573178023295593
 20
1.731501807208288
 30
0.0
 10
3.625323828764655
 20
1.732954141719506
 30
0.0
 10
3.702091465588464
 20
1.746909114904703
 30
0.0
 10
3.776647296102226
 20
1.768348082544815
 30
0.0
 10
3.84745469987126
 20
1.799051738123516
 30
0.0
 10
3.913536655183999
 20
1.836199011602074
 30
0.0
 10
3.971485251186833
 20
1.881067163751195
 30
0.0
 10
4.02158191962638
 20
1.931301054362933
 30
0.0
 10
4.062561160683934
 20
1.987343329770288
 30
0.0
 10
4.094001190931101
 20
2.04761517143369
 30
0.0
 10
4.11816582099957
 20
2.109480272580795
 30
0.0
 10
4.131575884133613
 20
2.173910473962787
 30
0.0
 10
4.133595958525058
 20
2.217290870689465
 30
0.0
 10
4.134615384615412
 20
2.239182692307707
 30
0.0
  0
SPLINE
  5
D9
330
1F
100
AcDbEntity
  8
0
  6
Continuous
 62
     7
370
    25
100
AcDbSpline
210
0.0
220
0.0
230
1.0
 70
     8
 71
     3
 72
    15
 73
    11
 74
     0
 42
0.000000001
 43
0.00000001
 40
0.0
 40
0.0
 40
0.0
 40
0.0
 40
0.1590042985173775
 40
0.3046460998968146
 40
0.438546904579592
 40
0.562322298775928
 40
0.677432542525731
 40
0.7868973929387545
 40
0.8936108891042667
 40
1.0
 40
1.0
 40
1.0
 40
1.0
 10
2.888221153846182
 20
2.230769230769246
 30
0.0
 10
2.91180821434664
 20
2.191285472243153
 30
0.0
 10
2.957000112028003
 20
2.115636114606906
 30
0.0
 10
3.032386991301566
 20
2.013414937096526
 30
0.0
 10
3.110500915158068
 20
1.926533088445958
 30
0.0
 10
3.191920343914731
 20
1.855495996268962
 30
0.0
 10
3.276148299448199
 20
1.799568379056717
 30
0.0
 10
3.36373463122251
 20
1.759966466155104
 30
0.0
 10
3.454384183260888
 20
1.735267058693956
 30
0.0
 10
3.516076030243252
 20
1.732266984504246
 30
0.0
 10
3.546875000000028
 20
1.730769230769245
 30
0.0
  0
SPLINE
  5
DB
330
1F
100
AcDbEntity
  8
0
  6
Continuous
 62
     7
370
    25
100
AcDbSpline
210
0.0
220
0.0
230
1.0
 70
     8
 71
     3
 72
    23
 73
    19
 74
     0
 42
0.000000001
 43
0.00000001
 40
0.0
 40
0.0
 40
0.0
 40
0.0
 40
0.0572082694335094
 40
0.1136960596574904
 40
0.1691779164171952
 40
0.224159216580543
 40
0.2787198783810438
 40
0.3337942174469888
 40
0.3892414593400028
 40
0.4458220733936214
 40
0.5037042811090202
 40
0.5642938918193635
 40
0.6279754158952239
 40
0.6950382596840514
 40
0.7653727258510128
 40
0.8396114430907353
 40
0.917537750077789
 40
1.0
 40
1.0
 40
1.0
 40
1.0
 10
3.546875000000028
 20
1.423076923076938
 30
0.0
 10
3.524216134587764
 20
1.423515078731862
 30
0.0
 10
3.479183768826758
 20
1.424385871922686
 30
0.0
 10
3.412575641506898
 20
1.432084112284551
 30
0.0
 10
3.347313136479984
 20
1.442975915362703
 30
0.0
 10
3.284215180450728
 20
1.460267975342937
 30
0.0
 10
3.222468827614947
 20
1.481248241379019
 30
0.0
 10
3.162342626592699
 20
1.507081097891755
 30
0.0
 10
3.10380743757338
 20
1.538038699132359
 30
0.0
 10
3.046535223686218
 20
1.573434434528343
 30
0.0
 10
2.990671645469538
 20
1.614626787011427
 30
0.0
 10
2.936740672959089
 20
1.66260406967273
 30
0.0
 10
2.882972799661982
 20
1.716043073950986
 30
0.0
 10
2.830955031386337
 20
1.776394985403871
 30
0.0
 10
2.779635193409941
 20
1.842684770710532
 30
0.0
 10
2.730025128092939
 20
1.915532642194042
 30
0.0
 10
2.681097941510913
 20
1.994541802558879
 30
0.0
 10
2.650398969087504
 20
2.05014044746158
 30
0.0
 10
2.634615384615412
 20
2.078725961538476
 30
0.0
  0
SPLINE
  5
DC
330
1F
100
AcDbEntity
  8
0
  6
Continuous
 62
     7
370
    25
100
AcDbSpline
210
0.0
220
0.0
230
1.0
 70
     8
 71
     3
 72
    23
 73
    19
 74
     0
 42
0.000000001
 43
0.00000001
 40
0.0
 40
0.0
 40
0.0
 40
0.0
 40
0.0614842551968905
 40
0.1217745277022104
 40
0.1809195598139318
 40
0.2402561150782711
 40
0.3001144444023516
 40
0.3611459476126115
 40
0.4235005824125858
 40
0.4886693612807191
 40
0.5539541046535623
 40
0.6175812610152618
 40
0.6802384268167395
 40
0.7421873887724534
 40
0.804663211769293
 40
0.868258989312663
 40
0.933020257180376
 40
1.0
 40
1.0
 40
1.0
 40
1.0
 10
4.403846153846182
 20
2.234975961538476
 30
0.0
 10
4.403282892597075
 20
2.20808022002797
 30
0.0
 10
4.402167308251727
 20
2.154811034133884
 30
0.0
 10
4.389343667870055
 20
2.07659239680636
 30
0.0
 10
4.370555383444993
 20
2.000623079934397
 30
0.0
 10
4.342237754344526
 20
1.927842126410099
 30
0.0
 10
4.307675047264616
 20
1.856918044110004
 30
0.0
 10
4.263818263379449
 20
1.789711272329213
 30
0.0
 10
4.212983105032858
 20
1.724734359254687
 30
0.0
 10
4.154668449400528
 20
1.663719938093133
 30
0.0
 10
4.09085767598638
 20
1.607708912962782
 30
0.0
 10
4.023414509132574
 20
1.557884003129234
 30
0.0
 10
3.952228560903301
 20
1.516339725933249
 30
0.0
 10
3.877686003746244
 20
1.482439004176162
 30
0.0
 10
3.79976971514019
 20
1.455924560582233
 30
0.0
 10
3.718505900424896
 20
1.436713529898629
 30
0.0
 10
3.633760605093846
 20
1.424922920544198
 30
0.0
 10
3.576160192317435
 20
1.423699125003112
 30
0.0
 10
3.546875000000028
 20
1.423076923076938
 30
0.0
  0
SPLINE
  5
DD
330
1F
100
AcDbEntity
  8
0
  6
Continuous
 62
     7
370
    25
100
AcDbSpline
210
0.0
220
0.0
230
1.0
 70
     8
 71
     3
 72
    23
 73
    19
 74
     0
 42
0.000000001
 43
0.00000001
 40
0.0
 40
0.0
 40
0.0
 40
0.0
 40
0.0652265038922757
 40
0.1285689957067288
 40
0.190320378104467
 40
0.2513779886240629
 40
0.3123875283336942
 40
0.3737887042767236
 40
0.4364311597804504
 40
0.5005667553098538
 40
0.5646867953847439
 40
0.6271355178835134
 40
0.6884554088949796
 40
0.7492457464637473
 40
0.8101551773646786
 40
0.8716709256529235
 40
0.9347734961077242
 40
1.0
 40
1.0
 40
1.0
 40
1.0
 10
2.326923076923103
 20
3.001201923076937
 30
0.0
 10
2.325594563331029
 20
2.947238397628454
 30
0.0
 10
2.322975909131842
 20
2.840870037258191
 30
0.0
 10
2.300545528387097
 20
2.684747085111862
 30
0.0
 10
2.265367528409366
 20
2.534669345269959
 30
0.0
 10
2.215142157395698
 20
2.390887357177165
 30
0.0
 10
2.150663175855737
 20
2.253249445378583
 30
0.0
 10
2.071244457743499
 20
2.12211777062271
 30
0.0
 10
1.977694848535951
 20
1.997449343434782
 30
0.0
 10
1.871231833364536
 20
1.8806099161002
 30
0.0
 10
1.755173797352491
 20
1.773469226934251
 30
0.0
 10
1.630690711516245
 20
1.680110190633962
 30
0.0
 10
1.500582151583082
 20
1.599775226692058
 30
0.0
 10
1.363173830303631
 20
1.535674934721852
 30
0.0
 10
1.220288084452391
 20
1.484441860054642
 30
0.0
 10
1.070646093233676
 20
1.449511034313457
 30
0.0
 10
0.9149490469133414
 20
1.426979282954548
 30
0.0
 10
0.8087739007968434
 20
1.424391983557558
 30
0.0
 10
0.7548076923077187
 20
1.423076923076938
 30
0.0
  0
SPLINE
  5
DE
330
1F
100
AcDbEntity
  8
0
  6
Continuous
 62
     7
370
    25
100
AcDbSpline
210
0.0
220
0.0
230
1.0
 70
     8
 71
     3
 72
    23
 73
    19
 74
     0
 42
0.000000001
 43
0.00000001
 40
0.0
 40
0.0
 40
0.0
 40
0.0
 40
0.0665700352151802
 40
0.1307490414821779
 40
0.1934128000295038
 40
0.2549893988897087
 40
0.3161135558759003
 40
0.3772617579089842
 40
0.4394007841555529
 40
0.5029705893719757
 40
0.5665249763607308
 40
0.6282311025133086
 40
0.6890906105998627
 40
0.749344668995804
 40
0.8101695933722063
 40
0.8716098243170435
 40
0.9348691840727638
 40
1.0
 40
1.0
 40
1.0
 40
1.0
 10
0.730769230769257
 20
4.576923076923091
 30
0.0
 10
0.7863190358332858
 20
4.575516094605036
 30
0.0
 10
0.8954234360813322
 20
4.572752665250172
 30
0.0
 10
1.055773348416174
 20
4.551599147916995
 30
0.0
 10
1.20885485866009
 20
4.515003099373788
 30
0.0
 10
1.355914977633041
 20
4.466263400104587
 30
0.0
 10
1.495194671835214
 20
4.401245355492495
 30
0.0
 10
1.62774229397
 20
4.322658085487194
 30
0.0
 10
1.753242471534776
 20
4.229678263694398
 30
0.0
 10
1.870003655701985
 20
4.123024640678734
 30
0.0
 10
1.976852470230444
 20
4.006981680191677
 30
0.0
 10
2.070988944175543
 20
3.883143471557745
 30
0.0
 10
2.149882338802728
 20
3.752258783866311
 30
0.0
 10
2.21467015637294
 20
3.614720929030551
 30
0.0
 10
2.265497536110499
 20
3.470840956480854
 30
0.0
 10
2.30057100213102
 20
3.319851811273961
 30
0.0
 10
2.322975130833535
 20
3.1627317912122
 30
0.0
 10
2.325594368611354
 20
3.055565907163273
 30
0.0
 10
2.326923076923103
 20
3.001201923076937
 30
0.0
  0
SPLINE
  5
DF
330
1F
100
AcDbEntity
  8
0
  6
Continuous
 62
     7
370
    25
100
AcDbSpline
210
0.0
220
0.0
230
1.0
 70
     8
 71
     3
 72
    31
 73
    27
 74
     0
 42
0.000000001
 43
0.00000001
 40
0.0
 40
0.0
 40
0.0
 40
0.0
 40
0.0432089861713367
 40
0.0858728716306188
 40
0.1281200066967028
 40
0.1701519644541991
 40
0.2119176209878612
 40
0.2537530026191241
 40
0.2960064088559505
 40
0.3384433571447839
 40
0.3810153681620337
 40
0.4228204794407607
 40
0.4640890557943132
 40
0.5051258486836863
 40
0.5459749706852411
 40
0.5869852111338597
 40
0.6283385916346624
 40
0.670083801591206
 40
0.7119916023637222
 40
0.7530391548630186
 40
0.7940493953116375
 40
0.8348855427015817
 40
0.8754983129295132
 40
0.9165472998303793
 40
0.958003778644961
 40
1.0
 40
1.0
 40
1.0
 40
1.0
 10
-0.8269230769230508
 20
2.986778846153861
 30
0.0
 10
-0.8264648179186679
 20
3.022463991128136
 30
0.0
 10
-0.8255540810524776
 20
3.093384096990948
 30
0.0
 10
-0.8145897732220596
 20
3.198698325692947
 30
0.0
 10
-0.7986797436162958
 20
3.302318889493232
 30
0.0
 10
-0.7758781042882398
 20
3.403951130605503
 30
0.0
 10
-0.7460566754426748
 20
3.503346260350332
 30
0.0
 10
-0.7108692233938745
 20
3.601189771352914
 30
0.0
 10
-0.6678922130874337
 20
3.696490105991843
 30
0.0
 10
-0.6193088004827108
 20
3.789698727458526
 30
0.0
 10
-0.5650843936059997
 20
3.879362646746771
 30
0.0
 10
-0.5051908940757303
 20
3.96411657516202
 30
0.0
 10
-0.4417320068175543
 20
4.044671715261093
 30
0.0
 10
-0.3721633837077975
 20
4.118940575694555
 30
0.0
 10
-0.2987778592545334
 20
4.189083709743069
 30
0.0
 10
-0.2203849637109128
 20
4.25402318147469
 30
0.0
 10
-0.137463039969009
 20
4.314344568008869
 30
0.0
 10
-0.049655285884222
 20
4.368704860363529
 30
0.0
 10
0.0408746640125429
 20
4.417869832891389
 30
0.0
 10
0.1341976163948629
 20
4.460059990876597
 30
0.0
 10
0.229046106256846
 20
4.496270900742774
 30
0.0
 10
0.3258643759072649
 20
4.525620179483091
 30
0.0
 10
0.4243953234046985
 20
4.548790496047664
 30
0.0
 10
0.5248539958957341
 20
4.564568227798108
 30
0.0
 10
0.6271603612781091
 20
4.575560500273092
 30
0.0
 10
0.6960843489495254
 20
4.576466930549642
 30
0.0
 10
0.730769230769257
 20
4.576923076923091
 30
0.0
  0
SPLINE
  5
E0
330
1F
100
AcDbEntity
  8
0
  6
Continuous
 62
     7
370
    25
100
AcDbSpline
210
0.0
220
0.0
230
1.0
 70
     8
 71
     3
 72
    23
 73
    19
 74
     0
 42
0.000000001
 43
0.00000001
 40
0.0
 40
0.0
 40
0.0
 40
0.0
 40
0.065818876843307
 40
0.1297465269068315
 40
0.192071954488006
 40
0.2534594242982025
 40
0.3145695877964205
 40
0.3762798811880263
 40
0.4390256536685598
 40
0.5032670288290859
 40
0.5674928228792949
 40
0.6297047956052448
 40
0.6909996492157555
 40
0.751451650917447
 40
0.8120043642646945
 40
0.8731496810680429
 40
0.9356354837317858
 40
1.0
 40
1.0
 40
1.0
 40
1.0
 10
0.7548076923077187
 20
1.423076923076938
 30
0.0
 10
0.7004439903252223
 20
1.424404968952044
 30
0.0
 10
0.5932786623780595
 20
1.427022900890903
 30
0.0
 10
0.4359612034811178
 20
1.449464105006939
 30
0.0
 10
0.2848659944687389
 20
1.484556651122264
 30
0.0
 10
0.1404251220010094
 20
1.534707596452446
 30
0.0
 10
0.0025580394880237
 20
1.599522365645166
 30
0.0
 10
-0.1290048885358778
 20
1.678554690558042
 30
0.0
 10
-0.2537355861715808
 20
1.772332240141435
 30
0.0
 10
-0.3705999403011726
 20
1.878760732639419
 30
0.0
 10
-0.4775278244575543
 20
1.994622062938672
 30
0.0
 10
-0.5707501464800336
 20
2.118765710148554
 30
0.0
 10
-0.6498002436107719
 20
2.248756101557235
 30
0.0
 10
-0.7143973857495709
 20
2.384953979368115
 30
0.0
 10
-0.7655383509021797
 20
2.526700930255341
 30
0.0
 10
-0.8004281950213972
 20
2.674942482389163
 30
0.0
 10
-0.8230018682232674
 20
2.828833487373268
 30
0.0
 10
-0.825603165207602
 20
2.933613114509241
 30
0.0
 10
-0.8269230769230507
 20
2.98677884615386
 30
0.0
  0
SPLINE
  5
E3
330
1F
100
AcDbEntity
  8
0
  6
Continuous
 62
     7
370
    25
100
AcDbSpline
210
0.0
220
0.0
230
1.0
 70
     8
 71
     3
 72
    15
 73
    11
 74
     0
 42
0.000000001
 43
0.00000001
 40
0.0
 40
0.0
 40
0.0
 40
0.0
 40
0.0751731173762221
 40
0.164746257511801
 40
0.2680168809877796
 40
0.3859118756529562
 40
0.5177894792733976
 40
0.6636909770022811
 40
0.8244132205366407
 40
0.9999999999999999
 40
0.9999999999999999
 40
0.9999999999999999
 40
0.9999999999999999
 10
-4.348557692307666
 20
2.933894230769245
 30
0.0
 10
-4.367352550014591
 20
2.929897389845337
 30
0.0
 10
-4.408542573466543
 20
2.921138080572737
 30
0.0
 10
-4.476379192476043
 20
2.911359403277127
 30
0.0
 10
-4.555360951844456
 20
2.903012888403882
 30
0.0
 10
-4.645380048914943
 20
2.896754770477264
 30
0.0
 10
-4.746355681704866
 20
2.891397311795542
 30
0.0
 10
-4.858342473701788
 20
2.887138945603532
 30
0.0
 10
-4.981560254141195
 20
2.884799070887681
 30
0.0
 10
-5.067507034779447
 20
2.884678391346119
 30
0.0
 10
-5.112379807692283
 20
2.8846153846154
 30
0.0
  0
SPLINE
  5
E4
330
1F
100
AcDbEntity
  8
0
  6
Continuous
 62
     7
370
    25
100
AcDbSpline
210
0.0
220
0.0
230
1.0
 70
     8
 71
     3
 72
    23
 73
    19
 74
     0
 42
0.000000001
 43
0.00000001
 40
0.0
 40
0.0
 40
0.0
 40
0.0
 40
0.0701188944197149
 40
0.1371923527859712
 40
0.2020161807247513
 40
0.2646314069747437
 40
0.3261165471458179
 40
0.3860103046676411
 40
0.4458118469576801
 40
0.5052976967309601
 40
0.5646332777264886
 40
0.6242826253338406
 40
0.6839020319037511
 40
0.743952770938271
 40
0.8053877310076355
 40
0.8683880308962804
 40
0.933084028252477
 40
1.0
 40
1.0
 40
1.0
 40
1.0
 10
-3.749999999999973
 20
3.695312500000015
 30
0.0
 10
-3.750361221196225
 20
3.670645834182171
 30
0.0
 10
-3.751067974863694
 20
3.622383836514625
 30
0.0
 10
-3.759550505145555
 20
3.551778589495746
 30
0.0
 10
-3.770976383675881
 20
3.484305683668664
 30
0.0
 10
-3.788545285670622
 20
3.420114726123445
 30
0.0
 10
-3.811555862612111
 20
3.359586922862789
 30
0.0
 10
-3.838549050765561
 20
3.301797295416441
 30
0.0
 10
-3.87110636251108
 20
3.247729005217642
 30
0.0
 10
-3.908516216548656
 20
3.197185761610513
 30
0.0
 10
-3.950131868885419
 20
3.150120122484081
 30
0.0
 10
-3.995777244440214
 20
3.106873155776048
 30
0.0
 10
-4.0452680665833
 20
3.067698008556738
 30
0.0
 10
-4.098447050648756
 20
3.032506856830693
 30
0.0
 10
-4.15583263536579
 20
3.00211576011839
 30
0.0
 10
-4.216554481283744
 20
2.97489521303936
 30
0.0
 10
-4.28114038107396
 20
2.952034303920651
 30
0.0
 10
-4.32583396448142
 20
2.940008536983739
 30
0.0
 10
-4.348557692307666
 20
2.933894230769245
 30
0.0
  0
SPLINE
  5
E5
330
1F
100
AcDbEntity
  8
0
  6
Continuous
 62
     7
370
    25
100
AcDbSpline
210
0.0
220
0.0
230
1.0
 70
     8
 71
     3
 72
    23
 73
    19
 74
     0
 42
0.000000001
 43
0.00000001
 40
0.0
 40
0.0
 40
0.0
 40
0.0
 40
0.0624813386352052
 40
0.1234903826872912
 40
0.1834110942063115
 40
0.2431532209997802
 40
0.3021267353720883
 40
0.3617096708329066
 40
0.4218422916948804
 40
0.4829319014466697
 40
0.5445522544313244
 40
0.6056807199653587
 40
0.6676797383436877
 40
0.7299843875380629
 40
0.7945509212861296
 40
0.8603456197120827
 40
0.9289073562657089
 40
1.0
 40
1.0
 40
1.0
 40
1.0
 10
-4.324519230769205
 20
4.454927884615399
 30
0.0
 10
-4.303781916096097
 20
4.449251927616799
 30
0.0
 10
-4.262795935628548
 20
4.438033760445862
 30
0.0
 10
-4.203737898684297
 20
4.415564854609594
 30
0.0
 10
-4.147548888272545
 20
4.388922998744889
 30
0.0
 10
-4.094036123890963
 20
4.358559621729833
 30
0.0
 10
-4.043857195544501
 20
4.323171995283713
 30
0.0
 10
-3.996263446145065
 20
4.284194608650034
 30
0.0
 10
-3.951674891605897
 20
4.240727549873665
 30
0.0
 10
-3.910342269990889
 20
4.19325834429015
 30
0.0
 10
-3.87238387206179
 20
4.14258387867744
 30
0.0
 10
-3.839701286867067
 20
4.08794768161388
 30
0.0
 10
-3.812335092267128
 20
4.030269421539733
 30
0.0
 10
-3.788863716709279
 20
3.969589217690584
 30
0.0
 10
-3.771970755735681
 20
3.905397511840867
 30
0.0
 10
-3.759244841702436
 20
3.838140329805849
 30
0.0
 10
-3.751167446603309
 20
3.76782488106171
 30
0.0
 10
-3.750393822241757
 20
3.719773566043828
 30
0.0
 10
-3.749999999999973
 20
3.695312500000015
 30
0.0
  0
SPLINE
  5
E6
330
1F
100
AcDbEntity
  8
0
  6
Continuous
 62
     7
370
    25
100
AcDbSpline
210
0.0
220
0.0
230
1.0
 70
     8
 71
     3
 72
    15
 73
    11
 74
     0
 42
0.000000001
 43
0.00000001
 40
0.0
 40
0.0
 40
0.0
 40
0.0
 40
0.1769557521312517
 40
0.3390550796425811
 40
0.4863182249420783
 40
0.6187809228353788
 40
0.7356188277673822
 40
0.8387424767201109
 40
0.9264570678763181
 40
1.0
 40
1.0
 40
1.0
 40
1.0
 10
-5.007812499999974
 20
4.500000000000014
 30
0.0
 10
-4.967346009012835
 20
4.499955517507862
 30
0.0
 10
-4.889810415175098
 20
4.499870287077443
 30
0.0
 10
-4.778626081710336
 20
4.497286219226891
 30
0.0
 10
-4.677646311744906
 20
4.493834768861663
 30
0.0
 10
-4.587088842379145
 20
4.489050288981844
 30
0.0
 10
-4.506675044019214
 20
4.483396068769696
 30
0.0
 10
-4.436768787265022
 20
4.475465749303328
 30
0.0
 10
-4.376820596121729
 20
4.467185495971906
 30
0.0
 10
-4.340900782310429
 20
4.458767147526711
 30
0.0
 10
-4.324519230769205
 20
4.454927884615399
 30
0.0
  0
SPLINE
  5
F7
330
1F
100
AcDbEntity
  8
0
  6
Continuous
 62
     7
370
    25
100
AcDbSpline
210
0.0
220
0.0
230
1.0
 70
     8
 71
     3
 72
    23
 73
    19
 74
     0
 42
0.000000001
 43
0.00000001
 40
0.0
 40
0.0
 40
0.0
 40
0.0
 40
0.0652265038922757
 40
0.1285689957067288
 40
0.1903203781044669
 40
0.2513779886240631
 40
0.3123875283336942
 40
0.3737887042767236
 40
0.4364311597804504
 40
0.500566755309854
 40
0.5646867953847438
 40
0.6271355178835133
 40
0.6884554088949798
 40
0.7492457464637473
 40
0.8101551773646786
 40
0.8716709256529233
 40
0.9347734961077241
 40
1.0
 40
1.0
 40
1.0
 40
1.0
 10
-6.211538461538433
 20
3.001201923076938
 30
0.0
 10
-6.212866975130509
 20
2.947238397628454
 30
0.0
 10
-6.215485629329696
 20
2.84087003725819
 30
0.0
 10
-6.23791601007444
 20
2.684747085111864
 30
0.0
 10
-6.273094010052171
 20
2.534669345269958
 30
0.0
 10
-6.32331938106584
 20
2.390887357177166
 30
0.0
 10
-6.387798362605801
 20
2.253249445378584
 30
0.0
 10
-6.467217080718038
 20
2.12211777062271
 30
0.0
 10
-6.560766689925588
 20
1.997449343434782
 30
0.0
 10
-6.667229705097001
 20
1.880609916100201
 30
0.0
 10
-6.783287741109046
 20
1.773469226934251
 30
0.0
 10
-6.907770826945295
 20
1.680110190633962
 30
0.0
 10
-7.037879386878455
 20
1.599775226692059
 30
0.0
 10
-7.175287708157907
 20
1.535674934721852
 30
0.0
 10
-7.318173454009148
 20
1.484441860054642
 30
0.0
 10
-7.467815445227861
 20
1.449511034313457
 30
0.0
 10
-7.623512491548194
 20
1.426979282954548
 30
0.0
 10
-7.729687637664694
 20
1.424391983557558
 30
0.0
 10
-7.783653846153818
 20
1.423076923076938
 30
0.0
  0
SPLINE
  5
F8
330
1F
100
AcDbEntity
  8
0
  6
Continuous
 62
     7
370
    25
100
AcDbSpline
210
0.0
220
0.0
230
1.0
 70
     8
 71
     3
 72
    23
 73
    19
 74
     0
 42
0.000000001
 43
0.00000001
 40
0.0
 40
0.0
 40
0.0
 40
0.0
 40
0.0665700352151803
 40
0.1307490414821782
 40
0.1934128000295041
 40
0.2549893988897088
 40
0.3161135558759005
 40
0.3772617579089844
 40
0.4394007841555532
 40
0.5029705893719759
 40
0.5665249763607312
 40
0.6282311025133087
 40
0.6890906105998628
 40
0.749344668995804
 40
0.8101695933722065
 40
0.8716098243170434
 40
0.9348691840727636
 40
1.0
 40
1.0
 40
1.0
 40
1.0
 10
-7.80769230769228
 20
4.576923076923091
 30
0.0
 10
-7.752142502628253
 20
4.575516094605036
 30
0.0
 10
-7.643038102380206
 20
4.572752665250171
 30
0.0
 10
-7.482688190045362
 20
4.551599147916995
 30
0.0
 10
-7.329606679801448
 20
4.515003099373787
 30
0.0
 10
-7.182546560828497
 20
4.466263400104589
 30
0.0
 10
-7.043266866626322
 20
4.401245355492494
 30
0.0
 10
-6.910719244491539
 20
4.322658085487196
 30
0.0
 10
-6.785219066926762
 20
4.229678263694398
 30
0.0
 10
-6.668457882759553
 20
4.123024640678735
 30
0.0
 10
-6.561609068231092
 20
4.006981680191677
 30
0.0
 10
-6.467472594285995
 20
3.883143471557743
 30
0.0
 10
-6.38857919965881
 20
3.752258783866314
 30
0.0
 10
-6.3237913820886
 20
3.614720929030548
 30
0.0
 10
-6.272964002351036
 20
3.470840956480858
 30
0.0
 10
-6.237890536330517
 20
3.319851811273959
 30
0.0
 10
-6.215486407628004
 20
3.162731791212201
 30
0.0
 10
-6.212867169850183
 20
3.055565907163274
 30
0.0
 10
-6.211538461538433
 20
3.001201923076938
 30
0.0
  0
SPLINE
  5
F9
330
1F
100
AcDbEntity
  8
0
  6
Continuous
 62
     7
370
    25
100
AcDbSpline
210
0.0
220
0.0
230
1.0
 70
     8
 71
     3
 72
    31
 73
    27
 74
     0
 42
0.000000001
 43
0.00000001
 40
0.0
 40
0.0
 40
0.0
 40
0.0
 40
0.0432089861713367
 40
0.0858728716306187
 40
0.1281200066967029
 40
0.1701519644541993
 40
0.2119176209878614
 40
0.2537530026191242
 40
0.2960064088559506
 40
0.3384433571447842
 40
0.3810153681620337
 40
0.4228204794407606
 40
0.4640890557943133
 40
0.5051258486836868
 40
0.5459749706852413
 40
0.5869852111338599
 40
0.6283385916346629
 40
0.6700838015912062
 40
0.7119916023637223
 40
0.753039154863019
 40
0.7940493953116378
 40
0.8348855427015821
 40
0.8754983129295131
 40
0.9165472998303794
 40
0.9580037786449608
 40
1.0
 40
1.0
 40
1.0
 40
1.0
 10
-9.365384615384588
 20
2.986778846153861
 30
0.0
 10
-9.364926356380204
 20
3.022463991128136
 30
0.0
 10
-9.364015619514015
 20
3.093384096990948
 30
0.0
 10
-9.3530513116836
 20
3.198698325692948
 30
0.0
 10
-9.337141282077832
 20
3.302318889493232
 30
0.0
 10
-9.314339642749777
 20
3.403951130605503
 30
0.0
 10
-9.284518213904214
 20
3.503346260350333
 30
0.0
 10
-9.249330761855406
 20
3.601189771352913
 30
0.0
 10
-9.206353751548976
 20
3.696490105991845
 30
0.0
 10
-9.157770338944244
 20
3.789698727458525
 30
0.0
 10
-9.103545932067538
 20
3.879362646746772
 30
0.0
 10
-9.043652432537264
 20
3.964116575162017
 30
0.0
 10
-8.980193545279093
 20
4.044671715261096
 30
0.0
 10
-8.910624922169335
 20
4.118940575694554
 30
0.0
 10
-8.837239397716067
 20
4.189083709743069
 30
0.0
 10
-8.758846502172451
 20
4.25402318147469
 30
0.0
 10
-8.675924578430545
 20
4.314344568008869
 30
0.0
 10
-8.588116824345759
 20
4.368704860363529
 30
0.0
 10
-8.497586874448993
 20
4.41786983289139
 30
0.0
 10
-8.404263922066674
 20
4.460059990876598
 30
0.0
 10
-8.309415432204691
 20
4.496270900742773
 30
0.0
 10
-8.212597162554275
 20
4.525620179483091
 30
0.0
 10
-8.114066215056837
 20
4.548790496047664
 30
0.0
 10
-8.013607542565806
 20
4.564568227798108
 30
0.0
 10
-7.911301177183429
 20
4.575560500273093
 30
0.0
 10
-7.842377189512013
 20
4.576466930549642
 30
0.0
 10
-7.80769230769228
 20
4.576923076923091
 30
0.0
  0
SPLINE
  5
FA
330
1F
100
AcDbEntity
  8
0
  6
Continuous
 62
     7
370
    25
100
AcDbSpline
210
0.0
220
0.0
230
1.0
 70
     8
 71
     3
 72
    23
 73
    19
 74
     0
 42
0.000000001
 43
0.00000001
 40
0.0
 40
0.0
 40
0.0
 40
0.0
 40
0.0658188768433066
 40
0.1297465269068313
 40
0.1920719544880062
 40
0.2534594242982022
 40
0.3145695877964201
 40
0.3762798811880262
 40
0.4390256536685597
 40
0.5032670288290856
 40
0.567492822879295
 40
0.629704795605245
 40
0.6909996492157555
 40
0.7514516509174468
 40
0.8120043642646944
 40
0.8731496810680428
 40
0.9356354837317856
 40
1.0
 40
1.0
 40
1.0
 40
1.0
 10
-7.783653846153818
 20
1.423076923076938
 30
0.0
 10
-7.838017548136313
 20
1.424404968952044
 30
0.0
 10
-7.945182876083475
 20
1.427022900890903
 30
0.0
 10
-8.102500334980421
 20
1.44946410500694
 30
0.0
 10
-8.253595543992798
 20
1.484556651122264
 30
0.0
 10
-8.398036416460528
 20
1.534707596452448
 30
0.0
 10
-8.535903498973513
 20
1.599522365645167
 30
0.0
 10
-8.667466426997413
 20
1.678554690558042
 30
0.0
 10
-8.792197124633118
 20
1.772332240141434
 30
0.0
 10
-8.909061478762709
 20
1.878760732639421
 30
0.0
 10
-9.015989362919091
 20
1.994622062938671
 30
0.0
 10
-9.109211684941572
 20
2.118765710148554
 30
0.0
 10
-9.188261782072308
 20
2.248756101557235
 30
0.0
 10
-9.252858924211107
 20
2.384953979368115
 30
0.0
 10
-9.30399988936372
 20
2.526700930255342
 30
0.0
 10
-9.338889733482931
 20
2.674942482389163
 30
0.0
 10
-9.361463406684804
 20
2.828833487373269
 30
0.0
 10
-9.36406470366914
 20
2.933613114509242
 30
0.0
 10
-9.365384615384588
 20
2.986778846153861
 30
0.0
  0
SPLINE
  5
10B
330
1F
100
AcDbEntity
  8
0
  6
Continuous
 62
     7
370
    25
100
AcDbSpline
210
0.0
220
0.0
230
1.0
 70
     8
 71
     3
 72
    15
 73
    11
 74
     0
 42
0.000000001
 43
0.00000001
 40
0.0
 40
0.0
 40
0.0
 40
0.0
 40
0.1298621417207365
 40
0.2546535308972873
 40
0.376014554193712
 40
0.4952552518176077
 40
0.6147977192994585
 40
0.7381055541683322
 40
0.865196300072357
 40
1.0
 40
1.0
 40
1.0
 40
1.0
 10
-5.587940705128175
 20
-1.198717948717927
 30
0.0
 10
-5.561840775596704
 20
-1.199436824488857
 30
0.0
 10
-5.510660045606492
 20
-1.20084650594735
 30
0.0
 10
-5.435796040973081
 20
-1.212577869606839
 30
0.0
 10
-5.364973802021304
 20
-1.232397103184263
 30
0.0
 10
-5.297646626006262
 20
-1.259355852196017
 30
0.0
 10
-5.23405628295885
 20
-1.295180216736973
 30
0.0
 10
-5.174804790800876
 20
-1.340370197248793
 30
0.0
 10
-5.119272049146973
 20
-1.394640790733856
 30
0.0
 10
-5.087081903317361
 20
-1.43632601296847
 30
0.0
 10
-5.07051282051279
 20
-1.457782451923055
 30
0.0
  0
SPLINE
  5
10C
330
1F
100
AcDbEntity
  8
0
  6
Continuous
 62
     7
370
    25
100
AcDbSpline
210
0.0
220
0.0
230
1.0
 70
     8
 71
     3
 72
    23
 73
    19
 74
     0
 42
0.000000001
 43
0.00000001
 40
0.0
 40
0.0
 40
0.0
 40
0.0
 40
0.0637745323056322
 40
0.1260788099895057
 40
0.1869040927472073
 40
0.2475739349176198
 40
0.3080033561644469
 40
0.3691318984609779
 40
0.4320332277442046
 40
0.4967907944370912
 40
0.5616108232295652
 40
0.6249138657484627
 40
0.686726349241925
 40
0.7480788332577712
 40
0.8095822911398958
 40
0.8716307425688274
 40
0.9348858208285543
 40
1.0
 40
1.0
 40
1.0
 40
1.0
 10
-6.259615384615354
 20
-1.857071314102542
 30
0.0
 10
-6.258988898922912
 20
-1.834839462317828
 30
0.0
 10
-6.25775037050533
 20
-1.790888290658161
 30
0.0
 10
-6.248523760585198
 20
-1.726248941665232
 30
0.0
 10
-6.233008256255606
 20
-1.663989811298611
 30
0.0
 10
-6.211234332422663
 20
-1.604311339686731
 30
0.0
 10
-6.183313354941102
 20
-1.547141314612436
 30
0.0
 10
-6.149349311430675
 20
-1.492439302104967
 30
0.0
 10
-6.10933974908126
 20
-1.44005460337395
 30
0.0
 10
-6.063213545573063
 20
-1.391218989964562
 30
0.0
 10
-6.013246160491748
 20
-1.346108682829872
 30
0.0
 10
-5.959791795034062
 20
-1.30690416010864
 30
0.0
 10
-5.904180154373644
 20
-1.273045735700628
 30
0.0
 10
-5.845548649112456
 20
-1.246218997547454
 30
0.0
 10
-5.784765096705454
 20
-1.224514445275223
 30
0.0
 10
-5.721288373831841
 20
-1.209497961224966
 30
0.0
 10
-5.655382584494054
 20
-1.200649300604963
 30
0.0
 10
-5.610637338461746
 20
-1.19936791852942
 30
0.0
 10
-5.587940705128175
 20
-1.198717948717927
 30
0.0
  0
SPLINE
  5
10D
330
1F
100
AcDbEntity
  8
0
  6
Continuous
 62
     7
370
    25
100
AcDbSpline
210
0.0
220
0.0
230
1.0
 70
     8
 71
     3
 72
    23
 73
    19
 74
     0
 42
0.000000001
 43
0.00000001
 40
0.0
 40
0.0
 40
0.0
 40
0.0
 40
0.0646199913407683
 40
0.1274334841444695
 40
0.1890041265579401
 40
0.2499300706860472
 40
0.3106684537406721
 40
0.3723289611368243
 40
0.4349391099970082
 40
0.4995755441940345
 40
0.5641912077719242
 40
0.6267352169294784
 40
0.6881093335614018
 40
0.7492936065367514
 40
0.8103305278109453
 40
0.8719011702244159
 40
0.9350459146845315
 40
1.0
 40
1.0
 40
1.0
 40
1.0
 10
-5.592848557692277
 20
-2.522435897435876
 30
0.0
 10
-5.615432534608546
 20
-2.521822711301299
 30
0.0
 10
-5.659969137052543
 20
-2.520613481093483
 30
0.0
 10
-5.725483675621998
 20
-2.511232329284344
 30
0.0
 10
-5.78852980034833
 20
-2.496167018463305
 30
0.0
 10
-5.849167086679222
 20
-2.475216573717422
 30
0.0
 10
-5.907003159396278
 20
-2.44742616289833
 30
0.0
 10
-5.962533207732432
 20
-2.414155538877621
 30
0.0
 10
-6.015469553741989
 20
-2.374535123837297
 30
0.0
 10
-6.065005323223915
 20
-2.329241109660852
 30
0.0
 10
-6.110621323411869
 20
-2.280043616069048
 30
0.0
 10
-6.150651959722957
 20
-2.227570842631482
 30
0.0
 10
-6.184028499650331
 20
-2.172049690685148
 30
0.0
 10
-6.211938540003967
 20
-2.114183113740791
 30
0.0
 10
-6.233436712224337
 20
-2.053525653973777
 30
0.0
 10
-6.248423529353294
 20
-1.990287070003885
 30
0.0
 10
-6.257793752703627
 20
-1.924542133233962
 30
0.0
 10
-6.259002483046103
 20
-1.879772371686157
 30
0.0
 10
-6.259615384615354
 20
-1.857071314102542
 30
0.0
  0
SPLINE
  5
10E
330
1F
100
AcDbEntity
  8
0
  6
Continuous
 62
     7
370
    25
100
AcDbSpline
210
0.0
220
0.0
230
1.0
 70
     8
 71
     3
 72
    15
 73
    11
 74
     0
 42
0.000000001
 43
0.00000001
 40
0.0
 40
0.0
 40
0.0
 40
0.0
 40
0.1342983790141679
 40
0.2620849753823016
 40
0.3862699121345006
 40
0.5071645966228004
 40
0.6273002357255063
 40
0.7481449416029949
 40
0.8723701771613527
 40
1.0
 40
1.0
 40
1.0
 40
1.0
 10
-5.07051282051279
 20
-2.278796073717927
 30
0.0
 10
-5.08822221582587
 20
-2.298815870696843
 30
0.0
 10
-5.122782323466295
 20
-2.337884756240314
 30
0.0
 10
-5.180502882452029
 20
-2.388925842485688
 30
0.0
 10
-5.241686971403273
 20
-2.431115003255716
 30
0.0
 10
-5.306037631968622
 20
-2.465189961105912
 30
0.0
 10
-5.37349675364093
 20
-2.49078598927459
 30
0.0
 10
-5.443914797279059
 20
-2.50897906883749
 30
0.0
 10
-5.517320487711826
 20
-2.520675986423615
 30
0.0
 10
-5.567446665106829
 20
-2.52184399735813
 30
0.0
 10
-5.592848557692277
 20
-2.522435897435876
 30
0.0
  0
SPLINE
  5
116
330
1F
100
AcDbEntity
  8
0
  6
Continuous
 62
     7
370
    25
100
AcDbSpline
210
0.0
220
0.0
230
1.0
 70
     8
 71
     3
 72
    15
 73
    11
 74
     0
 42
0.000000001
 43
0.00000001
 40
0.0
 40
0.0
 40
0.0
 40
0.0
 40
0.0751731173762219
 40
0.1647462575118011
 40
0.2680168809877799
 40
0.3859118756529553
 40
0.5177894792733968
 40
0.6636909770022815
 40
0.8244132205366412
 40
1.0
 40
1.0
 40
1.0
 40
1.0
 10
-1.887019230769204
 20
2.933894230769245
 30
0.0
 10
-1.90581408847613
 20
2.929897389845338
 30
0.0
 10
-1.947004111928082
 20
2.921138080572739
 30
0.0
 10
-2.014840730937578
 20
2.911359403277125
 30
0.0
 10
-2.093822490305995
 20
2.903012888403884
 30
0.0
 10
-2.183841587376481
 20
2.896754770477264
 30
0.0
 10
-2.284817220166402
 20
2.891397311795541
 30
0.0
 10
-2.396804012163325
 20
2.887138945603532
 30
0.0
 10
-2.520021792602734
 20
2.884799070887681
 30
0.0
 10
-2.605968573240984
 20
2.884678391346118
 30
0.0
 10
-2.650841346153819
 20
2.8846153846154
 30
0.0
  0
SPLINE
  5
117
330
1F
100
AcDbEntity
  8
0
  6
Continuous
 62
     7
370
    25
100
AcDbSpline
210
0.0
220
0.0
230
1.0
 70
     8
 71
     3
 72
    23
 73
    19
 74
     0
 42
0.000000001
 43
0.00000001
 40
0.0
 40
0.0
 40
0.0
 40
0.0
 40
0.0701188944197148
 40
0.1371923527859712
 40
0.2020161807247512
 40
0.2646314069747436
 40
0.3261165471458177
 40
0.3860103046676409
 40
0.4458118469576798
 40
0.5052976967309598
 40
0.5646332777264883
 40
0.6242826253338402
 40
0.6839020319037504
 40
0.7439527709382704
 40
0.8053877310076347
 40
0.8683880308962796
 40
0.9330840282524768
 40
1.0
 40
1.0
 40
1.0
 40
1.0
 10
-1.288461538461511
 20
3.695312500000015
 30
0.0
 10
-1.288822759657763
 20
3.670645834182171
 30
0.0
 10
-1.28952951332523
 20
3.622383836514624
 30
0.0
 10
-1.298012043607092
 20
3.551778589495746
 30
0.0
 10
-1.309437922137417
 20
3.484305683668663
 30
0.0
 10
-1.32700682413216
 20
3.420114726123444
 30
0.0
 10
-1.35001740107365
 20
3.359586922862789
 30
0.0
 10
-1.377010589227098
 20
3.301797295416439
 30
0.0
 10
-1.409567900972619
 20
3.247729005217643
 30
0.0
 10
-1.446977755010191
 20
3.197185761610511
 30
0.0
 10
-1.488593407346958
 20
3.150120122484083
 30
0.0
 10
-1.534238782901752
 20
3.106873155776048
 30
0.0
 10
-1.583729605044838
 20
3.06769800855674
 30
0.0
 10
-1.636908589110291
 20
3.032506856830692
 30
0.0
 10
-1.694294173827327
 20
3.002115760118389
 30
0.0
 10
-1.75501601974528
 20
2.974895213039361
 30
0.0
 10
-1.819601919535499
 20
2.952034303920651
 30
0.0
 10
-1.864295502942959
 20
2.940008536983739
 30
0.0
 10
-1.887019230769204
 20
2.933894230769245
 30
0.0
  0
SPLINE
  5
118
330
1F
100
AcDbEntity
  8
0
  6
Continuous
 62
     7
370
    25
100
AcDbSpline
210
0.0
220
0.0
230
1.0
 70
     8
 71
     3
 72
    23
 73
    19
 74
     0
 42
0.000000001
 43
0.00000001
 40
0.0
 40
0.0
 40
0.0
 40
0.0
 40
0.0624813386352054
 40
0.1234903826872909
 40
0.1834110942063109
 40
0.2431532209997798
 40
0.3021267353720883
 40
0.3617096708329063
 40
0.4218422916948804
 40
0.4829319014466695
 40
0.5445522544313242
 40
0.6056807199653584
 40
0.6676797383436875
 40
0.7299843875380628
 40
0.7945509212861295
 40
0.8603456197120826
 40
0.9289073562657088
 40
1.0
 40
1.0
 40
1.0
 40
1.0
 10
-1.862980769230742
 20
4.4549278846154
 30
0.0
 10
-1.842243454557634
 20
4.449251927616799
 30
0.0
 10
-1.801257474090086
 20
4.438033760445862
 30
0.0
 10
-1.742199437145834
 20
4.415564854609595
 30
0.0
 10
-1.686010426734084
 20
4.388922998744888
 30
0.0
 10
-1.632497662352501
 20
4.358559621729833
 30
0.0
 10
-1.582318734006037
 20
4.323171995283713
 30
0.0
 10
-1.534724984606602
 20
4.284194608650034
 30
0.0
 10
-1.490136430067434
 20
4.240727549873665
 30
0.0
 10
-1.448803808452426
 20
4.193258344290149
 30
0.0
 10
-1.410845410523328
 20
4.14258387867744
 30
0.0
 10
-1.378162825328604
 20
4.08794768161388
 30
0.0
 10
-1.350796630728665
 20
4.030269421539733
 30
0.0
 10
-1.327325255170816
 20
3.969589217690584
 30
0.0
 10
-1.310432294197219
 20
3.905397511840867
 30
0.0
 10
-1.297706380163973
 20
3.838140329805849
 30
0.0
 10
-1.289628985064846
 20
3.767824881061709
 30
0.0
 10
-1.288855360703295
 20
3.719773566043826
 30
0.0
 10
-1.288461538461511
 20
3.695312500000015
 30
0.0
  0
SPLINE
  5
119
330
1F
100
AcDbEntity
  8
0
  6
Continuous
 62
     7
370
    25
100
AcDbSpline
210
0.0
220
0.0
230
1.0
 70
     8
 71
     3
 72
    15
 73
    11
 74
     0
 42
0.000000001
 43
0.00000001
 40
0.0
 40
0.0
 40
0.0
 40
0.0
 40
0.1769557521312505
 40
0.3390550796425813
 40
0.4863182249420772
 40
0.6187809228353778
 40
0.7356188277673813
 40
0.8387424767201113
 40
0.9264570678763175
 40
1.0
 40
1.0
 40
1.0
 40
1.0
 10
-2.546274038461511
 20
4.500000000000014
 30
0.0
 10
-2.505807547474373
 20
4.499955517507862
 30
0.0
 10
-2.428271953636635
 20
4.499870287077442
 30
0.0
 10
-2.317087620171875
 20
4.497286219226891
 30
0.0
 10
-2.216107850206442
 20
4.493834768861662
 30
0.0
 10
-2.125550380840681
 20
4.489050288981844
 30
0.0
 10
-2.045136582480754
 20
4.483396068769697
 30
0.0
 10
-1.97523032572656
 20
4.475465749303329
 30
0.0
 10
-1.915282134583266
 20
4.467185495971905
 30
0.0
 10
-1.879362320771966
 20
4.45876714752671
 30
0.0
 10
-1.862980769230742
 20
4.454927884615399
 30
0.0
  0
SPLINE
  5
11E
330
1F
100
AcDbEntity
  8
0
  6
Continuous
 62
     7
370
    25
100
AcDbSpline
210
0.0
220
0.0
230
1.0
 70
     8
 71
     3
 72
    15
 73
    11
 74
     0
 42
0.000000001
 43
0.00000001
 40
0.0
 40
0.0
 40
0.0
 40
0.0
 40
0.1268408077971992
 40
0.2505477821575811
 40
0.3712302035652635
 40
0.4921157704266512
 40
0.6134009879986337
 40
0.7379973201236235
 40
0.8661319098407452
 40
1.0
 40
1.0
 40
1.0
 40
1.0
 10
7.005608974359005
 20
-2.522435897435876
 30
0.0
 10
6.980195188384049
 20
-2.521788493579038
 30
0.0
 10
6.929995510355874
 20
-2.520509681158116
 30
0.0
 10
6.856596675149608
 20
-2.507549976130554
 30
0.0
 10
6.785958249194404
 20
-2.488181508300582
 30
0.0
 10
6.71886283682859
 20
-2.459832011482789
 30
0.0
 10
6.654778930567025
 20
-2.423704253553013
 30
0.0
 10
6.594069027685964
 20
-2.37964915056526
 30
0.0
 10
6.536410651234172
 20
-2.327758838196552
 30
0.0
 10
6.501706272596651
 20
-2.2883929301155
 30
0.0
 10
6.483974358974391
 20
-2.26827924679485
 30
0.0
  0
SPLINE
  5
11F
330
1F
100
AcDbEntity
  8
0
  6
Continuous
 62
     7
370
    25
100
AcDbSpline
210
0.0
220
0.0
230
1.0
 70
     8
 71
     3
 72
    23
 73
    19
 74
     0
 42
0.000000001
 43
0.00000001
 40
0.0
 40
0.0
 40
0.0
 40
0.0
 40
0.0649212959378681
 40
0.1280341643911161
 40
0.1895737254178903
 40
0.2505798347323818
 40
0.311733221363631
 40
0.3732500799286346
 40
0.4357625163356386
 40
0.5003455613741142
 40
0.5649493665465404
 40
0.6275279092682862
 40
0.6891572899131304
 40
0.7498650117126988
 40
0.8107601999033159
 40
0.8722997609300901
 40
0.9354126293833375
 40
1.0
 40
1.0
 40
1.0
 40
1.0
 10
7.673076923076954
 20
-1.857071314102542
 30
0.0
 10
7.672464180297082
 20
-1.879772468379135
 30
0.0
 10
7.67125576311017
 20
-1.924542420619445
 30
0.0
 10
7.66188326013947
 20
-1.990285969240581
 30
0.0
 10
7.646904823074274
 20
-2.053529656154588
 30
0.0
 10
7.625375731511523
 20
-2.114168287941205
 30
0.0
 10
7.597554987335526
 20
-2.172160113587526
 30
0.0
 10
7.563702707153967
 20
-2.227463311612497
 30
0.0
 10
7.523759473599499
 20
-2.280060163187514
 30
0.0
 10
7.478108909743597
 20
-2.329236613237732
 30
0.0
 10
7.428582441715177
 20
-2.374536269685041
 30
0.0
 10
7.375643696966515
 20
-2.414155304492134
 30
0.0
 10
7.32011423419523
 20
-2.447425992138611
 30
0.0
 10
7.262278150627151
 20
-2.475217471922614
 30
0.0
 10
7.20164033137531
 20
-2.49616356395717
 30
0.0
 10
7.138483692524528
 20
-2.511272464269296
 30
0.0
 10
7.072842619275908
 20
-2.52058971213667
 30
0.0
 10
7.02819204327975
 20
-2.521815783356029
 30
0.0
 10
7.005608974359005
 20
-2.522435897435876
 30
0.0
  0
SPLINE
  5
120
330
1F
100
AcDbEntity
  8
0
  6
Continuous
 62
     7
370
    25
100
AcDbSpline
210
0.0
220
0.0
230
1.0
 70
     8
 71
     3
 72
    23
 73
    19
 74
     0
 42
0.000000001
 43
0.00000001
 40
0.0
 40
0.0
 40
0.0
 40
0.0
 40
0.0650810177750287
 40
0.12863605056308
 40
0.190652901911644
 40
0.2521250372681096
 40
0.3134462756463774
 40
0.3752272792333932
 40
0.4384980827328623
 40
0.5032850999340378
 40
0.5680096868463692
 40
0.6308789816949757
 40
0.6921535040082759
 40
0.7525521497156011
 40
0.8131910939047695
 40
0.8739853995183318
 40
0.9362579468344568
 40
1.0
 40
1.0
 40
1.0
 40
1.0
 10
7.000701121794903
 20
-1.198717948717927
 30
0.0
 10
7.023396923393472
 20
-1.199374538163783
 30
0.0
 10
7.068256367541925
 20
-1.200672321696432
 30
0.0
 10
7.134287982006684
 20
-1.209458848980051
 30
0.0
 10
7.197875673769206
 20
-1.22451769519652
 30
0.0
 10
7.258659700757425
 20
-1.246218152878903
 30
0.0
 10
7.317291233350516
 20
-1.273045887846411
 30
0.0
 10
7.372902283268314
 20
-1.306904405635007
 30
0.0
 10
7.426359061082466
 20
-1.346107501030922
 30
0.0
 10
7.476317155634153
 20
-1.391223576441309
 30
0.0
 10
7.522477839397088
 20
-1.440037709650204
 30
0.0
 10
7.562400929956103
 20
-1.492548861717057
 30
0.0
 10
7.596836882113432
 20
-1.547030154916572
 30
0.0
 10
7.624672030344627
 20
-1.604326201029211
 30
0.0
 10
7.646476204052249
 20
-1.663985815947641
 30
0.0
 10
7.66198354287144
 20
-1.726250036402343
 30
0.0
 10
7.671212364614479
 20
-1.790888006623722
 30
0.0
 10
7.67245059044323
 20
-1.834839366906479
 30
0.0
 10
7.673076923076954
 20
-1.857071314102542
 30
0.0
  0
SPLINE
  5
121
330
1F
100
AcDbEntity
  8
0
  6
Continuous
 62
     7
370
    25
100
AcDbSpline
210
0.0
220
0.0
230
1.0
 70
     8
 71
     3
 72
    15
 73
    11
 74
     0
 42
0.000000001
 43
0.00000001
 40
0.0
 40
0.0
 40
0.0
 40
0.0
 40
0.1353597999413043
 40
0.2630446827611694
 40
0.3860610822643569
 40
0.5057706525454607
 40
0.6251780311387007
 40
0.7461477220466152
 40
0.8705380668997055
 40
1.0
 40
1.0
 40
1.0
 40
1.0
 10
6.483974358974391
 20
-1.457782451923055
 30
0.0
 10
6.500653101000203
 20
-1.436313585013751
 30
0.0
 10
6.53306489835021
 20
-1.394593138560309
 30
0.0
 10
6.588927350782845
 20
-1.340598074266803
 30
0.0
 10
6.647890755240768
 20
-1.29506042244371
 30
0.0
 10
6.711472461491836
 20
-1.259369155951311
 30
0.0
 10
6.778684306499194
 20
-1.232458749994966
 30
0.0
 10
6.84925046522333
 20
-1.212569025052159
 30
0.0
 10
6.923769847663666
 20
-1.200848287750655
 30
0.0
 10
6.974718074003587
 20
-1.199437457156129
 30
0.0
 10
7.000701121794903
 20
-1.198717948717927
 30
0.0
  0
SPLINE
  5
12F
330
1F
100
AcDbEntity
  8
0
  6
Continuous
 62
     7
370
    25
100
AcDbSpline
210
0.0
220
0.0
230
1.0
 70
     8
 71
     3
 72
    15
 73
    11
 74
     0
 42
0.000000001
 43
0.00000001
 40
0.0
 40
0.0
 40
0.0
 40
0.0
 40
0.118521840013261
 40
0.2362547631617467
 40
0.3561744339909317
 40
0.4772496548985581
 40
0.6015398708217026
 40
0.729618382168043
 40
0.8621582661414388
 40
0.9999999999999999
 40
0.9999999999999999
 40
0.9999999999999999
 40
0.9999999999999999
 10
-1.776993189102538
 20
-1.450420673076901
 30
0.0
 10
-1.765929719946293
 20
-1.465522463770046
 30
0.0
 10
-1.743876423398049
 20
-1.495625523114451
 30
0.0
 10
-1.716252873380484
 20
-1.544711101664792
 30
0.0
 10
-1.692274175888646
 20
-1.596066398839869
 30
0.0
 10
-1.673107695381261
 20
-1.650521547383368
 30
0.0
 10
-1.657587944782987
 20
-1.707431337469834
 30
0.0
 10
-1.646359535412894
 20
-1.767202609826989
 30
0.0
 10
-1.639774726121975
 20
-1.829817565507417
 30
0.0
 10
-1.638480377447758
 20
-1.872480843245769
 30
0.0
 10
-1.637820512820487
 20
-1.894230769230747
 30
0.0
  0
SPLINE
  5
130
330
1F
100
AcDbEntity
  8
0
  6
Continuous
 62
     7
370
    25
100
AcDbSpline
210
0.0
220
0.0
230
1.0
 70
     8
 71
     3
 72
    15
 73
    11
 74
     0
 42
0.000000001
 43
0.00000001
 40
0.0
 40
0.0
 40
0.0
 40
0.0
 40
0.1320402344259814
 40
0.2590328407793698
 40
0.381879823925017
 40
0.5022584437149858
 40
0.6227521895274792
 40
0.7447426318590017
 40
0.8701089273418191
 40
1.0
 40
1.0
 40
1.0
 40
1.0
 10
-2.291967147435871
 20
-1.198717948717927
 30
0.0
 10
-2.265743344784029
 20
-1.199394973164178
 30
0.0
 10
-2.214298221814694
 20
-1.200723140796959
 30
0.0
 10
-2.139282161296302
 20
-1.21303630750149
 30
0.0
 10
-2.068301803025999
 20
-1.232562584783188
 30
0.0
 10
-2.001385550871595
 20
-1.260139480033457
 30
0.0
 10
-1.938526620495178
 20
-1.295719255928642
 30
0.0
 10
-1.880133595707833
 20
-1.339790176669119
 30
0.0
 10
-1.825207839433454
 20
-1.390999220281651
 30
0.0
 10
-1.793253550007354
 20
-1.430380824995297
 30
0.0
 10
-1.776993189102538
 20
-1.450420673076901
 30
0.0
  0
SPLINE
  5
131
330
1F
100
AcDbEntity
  8
0
  6
Continuous
 62
     7
370
    25
100
AcDbSpline
210
0.0
220
0.0
230
1.0
 70
     8
 71
     3
 72
    15
 73
    11
 74
     0
 42
0.000000001
 43
0.00000001
 40
0.0
 40
0.0
 40
0.0
 40
0.0
 40
0.1288352544875546
 40
0.2535893349864762
 40
0.3746432573141701
 40
0.4953400422377922
 40
0.6163247746357903
 40
0.7397593354405144
 40
0.866842320380546
 40
1.0
 40
1.0
 40
1.0
 40
1.0
 10
-2.791866987179461
 20
-1.437099358974337
 30
0.0
 10
-2.776013145791544
 20
-1.418164923930311
 30
0.0
 10
-2.74480767248741
 20
-1.380895848705076
 30
0.0
 10
-2.692029494810481
 20
-1.331926685814261
 30
0.0
 10
-2.63487939663929
 20
-1.290904798225732
 30
0.0
 10
-2.574073583589211
 20
-1.256901230156623
 30
0.0
 10
-2.508905346558914
 20
-1.231064406660231
 30
0.0
 10
-2.440250701040121
 20
-1.211810615544096
 30
0.0
 10
-2.367327907926812
 20
-1.201021610027457
 30
0.0
 10
-2.317475297507715
 20
-1.199497693216462
 30
0.0
 10
-2.291967147435871
 20
-1.198717948717927
 30
0.0
  0
SPLINE
  5
132
330
1F
100
AcDbEntity
  8
0
  6
Continuous
 62
     7
370
    25
100
AcDbSpline
210
0.0
220
0.0
230
1.0
 70
     8
 71
     3
 72
    15
 73
    11
 74
     0
 42
0.000000001
 43
0.00000001
 40
0.0
 40
0.0
 40
0.0
 40
0.0
 40
0.1280448079611199
 40
0.2537679000244893
 40
0.3774284265813013
 40
0.5005508414825327
 40
0.6232958832424761
 40
0.7465783319335076
 40
0.8723475406047165
 40
1.0
 40
1.0
 40
1.0
 40
1.0
 10
-2.939102564102538
 20
-1.86408253205126
 30
0.0
 10
-2.93857299343724
 20
-1.844435116842472
 30
0.0
 10
-2.937523454312717
 20
-1.805496534499038
 30
0.0
 10
-2.930908060615874
 20
-1.747863762233896
 30
0.0
 10
-2.919183914081866
 20
-1.691849535969617
 30
0.0
 10
-2.903095752107297
 20
-1.63740731198518
 30
0.0
 10
-2.88232012901568
 20
-1.584628244993138
 30
0.0
 10
-2.85690401940757
 20
-1.533480213181559
 30
0.0
 10
-2.826807830513178
 20
-1.484017643251328
 30
0.0
 10
-2.803571493634944
 20
-1.45281607639742
 30
0.0
 10
-2.791866987179461
 20
-1.437099358974337
 30
0.0
  0
SPLINE
  5
133
330
1F
100
AcDbEntity
  8
0
  6
Continuous
 62
     7
370
    25
100
AcDbSpline
210
0.0
220
0.0
230
1.0
 70
     8
 71
     3
 72
    23
 73
    19
 74
     0
 42
0.000000001
 43
0.00000001
 40
0.0
 40
0.0
 40
0.0
 40
0.0
 40
0.0715786576891419
 40
0.1396292246928478
 40
0.2047966973966656
 40
0.2681349633966817
 40
0.3298137469867302
 40
0.3913013977745598
 40
0.453433515097054
 40
0.5165516903197667
 40
0.5796312707049232
 40
0.6411189214927527
 40
0.701294046698774
 40
0.7608103356761332
 40
0.819931721778144
 40
0.8789195754993824
 40
0.9389828222504465
 40
1.0
 40
1.0
 40
1.0
 40
1.0
 10
-2.295823317307666
 20
-2.522435897435876
 30
0.0
 10
-2.320394306075388
 20
-2.52186230977109
 30
0.0
 10
-2.368325186904045
 20
-2.520743406406412
 30
0.0
 10
-2.438095060460473
 20
-2.511097174189177
 30
0.0
 10
-2.503784769659235
 20
-2.49536099484234
 30
0.0
 10
-2.565390621336036
 20
-2.473378224096702
 30
0.0
 10
-2.622761747624811
 20
-2.444664562051561
 30
0.0
 10
-2.676012175030774
 20
-2.4096848211497
 30
0.0
 10
-2.725421937965258
 20
-2.368618693805424
 30
0.0
 10
-2.769434042557836
 20
-2.321110472061944
 30
0.0
 10
-2.809055983913055
 20
-2.270269493414242
 30
0.0
 10
-2.844018893900898
 20
-2.217291551171252
 30
0.0
 10
-2.873247609425619
 20
-2.162309938934293
 30
0.0
 10
-2.897023914523483
 20
-2.105674676912519
 30
0.0
 10
-2.916226347008383
 20
-2.047742730140953
 30
0.0
 10
-2.929609698892948
 20
-1.987986996356343
 30
0.0
 10
-2.937324572883974
 20
-1.926569204236258
 30
0.0
 10
-2.938506795652654
 20
-1.885020536377379
 30
0.0
 10
-2.939102564102538
 20
-1.86408253205126
 30
0.0
  0
SPLINE
  5
134
330
1F
100
AcDbEntity
  8
0
  6
Continuous
 62
     7
370
    25
100
AcDbSpline
210
0.0
220
0.0
230
1.0
 70
     8
 71
     3
 72
    19
 73
    15
 74
     0
 42
0.000000001
 43
0.00000001
 40
0.0
 40
0.0
 40
0.0
 40
0.0
 40
0.093369856736195
 40
0.1816607660710045
 40
0.2658742270426188
 40
0.3463547840343081
 40
0.4245998617178935
 40
0.5019031838373769
 40
0.5799920909873474
 40
0.6584434305294312
 40
0.7386722364878344
 40
0.8218941484362435
 40
0.9088007920466151
 40
1.0
 40
1.0
 40
1.0
 40
1.0
 10
-1.705128205128179
 20
-2.169421073717927
 30
0.0
 10
-1.716246502748166
 20
-2.189142739355587
 30
0.0
 10
-1.737878306990502
 20
-2.227513290764443
 30
0.0
 10
-1.775078680935887
 20
-2.280229221000477
 30
0.0
 10
-1.814074717224984
 20
-2.327653078919859
 30
0.0
 10
-1.856626701226769
 20
-2.368517906061804
 30
0.0
 10
-1.901461540703777
 20
-2.404143598548904
 30
0.0
 10
-1.948827868096617
 20
-2.435312510908378
 30
0.0
 10
-1.99897227696429
 20
-2.461871771081286
 30
0.0
 10
-2.051897139353419
 20
-2.484248035017671
 30
0.0
 10
-2.108046914924167
 20
-2.501452782071631
 30
0.0
 10
-2.16755767312919
 20
-2.513604892532137
 30
0.0
 10
-2.230543420818583
 20
-2.521116526857354
 30
0.0
 10
-2.273716510752462
 20
-2.521989097245884
 30
0.0
 10
-2.295823317307666
 20
-2.522435897435876
 30
0.0
  0
SPLINE
  5
136
330
1F
100
AcDbEntity
  8
0
  6
Continuous
 62
     7
370
    25
100
AcDbSpline
210
0.0
220
0.0
230
1.0
 70
     8
 71
     3
 72
    19
 73
    15
 74
     0
 42
0.000000001
 43
0.00000001
 40
0.0
 40
0.0
 40
0.0
 40
0.0
 40
0.0825922633314367
 40
0.1638788940984972
 40
0.2456587396295032
 40
0.3277256953541228
 40
0.4086099609103196
 40
0.4857490859539307
 40
0.5591690561972783
 40
0.6302684758575454
 40
0.7053060284320708
 40
0.7920649660966081
 40
0.8897964374100894
 40
1.0
 40
1.0
 40
1.0
 40
1.0
 10
-2.315454727564077
 20
-2.365384615384594
 30
0.0
 10
-2.299779153762068
 20
-2.365080587054644
 30
0.0
 10
-2.268675808298295
 20
-2.364477336526361
 30
0.0
 10
-2.22235537962675
 20
-2.358611381070859
 30
0.0
 10
-2.176785615926989
 20
-2.349126243260317
 30
0.0
 10
-2.132155124293377
 20
-2.336181248218485
 30
0.0
 10
-2.089369701335027
 20
-2.320392822165119
 30
0.0
 10
-2.049746926304413
 20
-2.301341393340581
 30
0.0
 10
-2.013306818491349
 20
-2.280266519969115
 30
0.0
 10
-1.9792483351982
 20
-2.256161682444903
 30
0.0
 10
-1.946212838522184
 20
-2.226657588943401
 30
0.0
 10
-1.913441595314814
 20
-2.189839728449112
 30
0.0
 10
-1.878303268633178
 20
-2.146295964557311
 30
0.0
 10
-1.856308472261296
 20
-2.113523131568351
 30
0.0
 10
-1.844651442307666
 20
-2.096153846153824
 30
0.0
  0
SPLINE
  5
137
330
1F
100
AcDbEntity
  8
0
  6
Continuous
 62
     7
370
    25
100
AcDbSpline
210
0.0
220
0.0
230
1.0
 70
     8
 71
     3
 72
    23
 73
    19
 74
     0
 42
0.000000001
 43
0.00000001
 40
0.0
 40
0.0
 40
0.0
 40
0.0
 40
0.0683846151037681
 40
0.1344755875434512
 40
0.1983910577839568
 40
0.2607534774484869
 40
0.321829222807649
 40
0.3830372384795248
 40
0.4446531231064263
 40
0.5073980112040049
 40
0.5698252379730251
 40
0.630777640631313
 40
0.6909286865237172
 40
0.7509451326917362
 40
0.8110494767293278
 40
0.8723308525469933
 40
0.9350040935894053
 40
0.9999999999999999
 40
0.9999999999999999
 40
0.9999999999999999
 40
0.9999999999999999
 10
-2.782051282051256
 20
-1.894230769230747
 30
0.0
 10
-2.78128147883668
 20
-1.911081001354304
 30
0.0
 10
-2.77976769186258
 20
-1.944216303229157
 30
0.0
 10
-2.772710120279361
 20
-1.992701694770392
 30
0.0
 10
-2.761585733392245
 20
-2.038888365852205
 30
0.0
 10
-2.745951202072996
 20
-2.082429886838939
 30
0.0
 10
-2.727017779445552
 20
-2.123894950596585
 30
0.0
 10
-2.703824921052582
 20
-2.162975969080898
 30
0.0
 10
-2.676155144076332
 20
-2.199494934105846
 30
0.0
 10
-2.645292294384149
 20
-2.233778502902413
 30
0.0
 10
-2.610938746716344
 20
-2.264308883486263
 30
0.0
 10
-2.574797373105747
 20
-2.2916347716034
 30
0.0
 10
-2.536350590611154
 20
-2.314537569968081
 30
0.0
 10
-2.495901548864175
 20
-2.333127514844806
 30
0.0
 10
-2.453515656292088
 20
-2.347680672874357
 30
0.0
 10
-2.409179558734219
 20
-2.35761458321582
 30
0.0
 10
-2.362980500556843
 20
-2.36426813665325
 30
0.0
 10
-2.331487633540455
 20
-2.365007969253514
 30
0.0
 10
-2.315454727564076
 20
-2.365384615384593
 30
0.0
  0
SPLINE
  5
138
330
1F
100
AcDbEntity
  8
0
  6
Continuous
 62
     7
370
    25
100
AcDbSpline
210
0.0
220
0.0
230
1.0
 70
     8
 71
     3
 72
    19
 73
    15
 74
     0
 42
0.000000001
 43
0.00000001
 40
0.0
 40
0.0
 40
0.0
 40
0.0
 40
0.0864403724626691
 40
0.1693440105424732
 40
0.2510606708491856
 40
0.3323264305703403
 40
0.4131892790502045
 40
0.4942994993596387
 40
0.5766538799957601
 40
0.6617849185411925
 40
0.7477649302742692
 40
0.8319674345472006
 40
0.9152994413086163
 40
1.0
 40
1.0
 40
1.0
 40
1.0
 10
6.483974358974391
 20
-1.863381410256388
 30
0.0
 10
6.484769787024407
 20
-1.88657546652394
 30
0.0
 10
6.486328097941516
 20
-1.932014587124573
 30
0.0
 10
6.498996781929197
 20
-1.998406648081357
 30
0.0
 10
6.519614413943924
 20
-2.061232475844354
 30
0.0
 10
6.548878770787753
 20
-2.119962994331238
 30
0.0
 10
6.585852557915302
 20
-2.173954411901797
 30
0.0
 10
6.630401636119215
 20
-2.222299715140763
 30
0.0
 10
6.682122911637391
 20
-2.264695010656188
 30
0.0
 10
6.740156507484937
 20
-2.300405637518845
 30
0.0
 10
6.802367572804152
 20
-2.329399670684744
 30
0.0
 10
6.867260528834378
 20
-2.350156775914044
 30
0.0
 10
6.933942969275313
 20
-2.362942890082233
 30
0.0
 10
6.979027129146207
 20
-2.364566299629659
 30
0.0
 10
7.00175280448721
 20
-2.365384615384593
 30
0.0
  0
SPLINE
  5
139
330
1F
100
AcDbEntity
  8
0
  6
Continuous
 62
     7
370
    25
100
AcDbSpline
210
0.0
220
0.0
230
1.0
 70
     8
 71
     3
 72
    23
 73
    19
 74
     0
 42
0.000000001
 43
0.00000001
 40
0.0
 40
0.0
 40
0.0
 40
0.0
 40
0.0660440693699983
 40
0.1300237494418057
 40
0.1923740566421962
 40
0.2538843037504075
 40
0.3148960853343816
 40
0.3758058275294919
 40
0.4382422362453595
 40
0.5015912675509481
 40
0.5648807602801256
 40
0.6265333410400648
 40
0.6875157651495295
 40
0.7481059155492406
 40
0.8087955368148516
 40
0.8708215189810368
 40
0.9343710811645478
 40
1.0
 40
1.0
 40
1.0
 40
1.0
 10
6.999298878205159
 20
-1.355769230769209
 30
0.0
 10
6.981509096958629
 20
-1.356089359874153
 30
0.0
 10
6.946485603078131
 20
-1.356719611567112
 30
0.0
 10
6.895149493590418
 20
-1.364206585963662
 30
0.0
 10
6.845701779710409
 20
-1.37507545655988
 30
0.0
 10
6.798640804004318
 20
-1.391531406684921
 30
0.0
 10
6.753515495767529
 20
-1.411730813271069
 30
0.0
 10
6.710673413384963
 20
-1.436971818871348
 30
0.0
 10
6.670144629600188
 20
-1.466797821792723
 30
0.0
 10
6.632031114411569
 20
-1.500637493745543
 30
0.0
 10
6.59759946767567
 20
-1.537924837805749
 30
0.0
 10
6.567118003690867
 20
-1.577718742369607
 30
0.0
 10
6.541514351147034
 20
-1.619968812181256
 30
0.0
 10
6.520263341015871
 20
-1.664281493433852
 30
0.0
 10
6.504091699677709
 20
-1.711004136006481
 30
0.0
 10
6.492613839785996
 20
-1.75987064234561
 30
0.0
 10
6.485398663383891
 20
-1.810934498563965
 30
0.0
 10
6.484454194743246
 20
-1.845712501820648
 30
0.0
 10
6.483974358974391
 20
-1.863381410256388
 30
0.0
  0
SPLINE
  5
13A
330
1F
100
AcDbEntity
  8
0
  6
Continuous
 62
     7
370
    25
100
AcDbSpline
210
0.0
220
0.0
230
1.0
 70
     8
 71
     3
 72
    19
 73
    15
 74
     0
 42
0.000000001
 43
0.00000001
 40
0.0
 40
0.0
 40
0.0
 40
0.0
 40
0.0819940568376544
 40
0.1633492972937414
 40
0.2458264740680107
 40
0.3303671599787224
 40
0.4151983742785681
 40
0.4979409323876407
 40
0.5804761255002936
 40
0.6637400107109448
 40
0.7475128374040544
 40
0.8303987408369397
 40
0.914075518723594
 40
1.0
 40
1.0
 40
1.0
 40
1.0
 10
7.516025641025672
 20
-1.858824118589722
 30
0.0
 10
7.51529827410816
 20
-1.83689662402626
 30
0.0
 10
7.513849207194866
 20
-1.7932124721926
 30
0.0
 10
7.499575688333931
 20
-1.728831020698425
 30
0.0
 10
7.478125699489999
 20
-1.665887032660121
 30
0.0
 10
7.446846173504237
 20
-1.606126757784955
 30
0.0
 10
7.409745538787071
 20
-1.549739716464773
 30
0.0
 10
7.364872040308352
 20
-1.499962776969466
 30
0.0
 10
7.314563942081048
 20
-1.456377440592156
 30
0.0
 10
7.258219360095994
 20
-1.420369735670776
 30
0.0
 10
7.197749147373908
 20
-1.391726988185871
 30
0.0
 10
7.134091689417544
 20
-1.370785168737005
 30
0.0
 10
7.067569888218517
 20
-1.358198294010799
 30
0.0
 10
7.022256060959136
 20
-1.356586040843459
 30
0.0
 10
6.999298878205159
 20
-1.355769230769209
 30
0.0
  0
SPLINE
  5
13B
330
1F
100
AcDbEntity
  8
0
  6
Continuous
 62
     7
370
    25
100
AcDbSpline
210
0.0
220
0.0
230
1.0
 70
     8
 71
     3
 72
    19
 73
    15
 74
     0
 42
0.000000001
 43
0.00000001
 40
0.0
 40
0.0
 40
0.0
 40
0.0
 40
0.0834200466710276
 40
0.1655737957865938
 40
0.2481587766688898
 40
0.3320333067748058
 40
0.4162573489175274
 40
0.4995253498660665
 40
0.5830385602711593
 40
0.668595904214167
 40
0.7540353502552544
 40
0.8369197002092048
 40
0.9182997313725116
 40
1.0
 40
1.0
 40
1.0
 40
1.0
 10
7.00175280448721
 20
-2.365384615384593
 30
0.0
 10
7.024020688463875
 20
-2.364606426944171
 30
0.0
 10
7.068218434944305
 20
-2.363061862788914
 30
0.0
 10
7.133297495687185
 20
-2.349692768984289
 30
0.0
 10
7.19654281489808
 20
-2.329270256713802
 30
0.0
 10
7.256632901128125
 20
-2.299490478489933
 30
0.0
 10
7.313044645023364
 20
-2.262995449478444
 30
0.0
 10
7.363985421802964
 20
-2.219215432910538
 30
0.0
 10
7.408488878569461
 20
-2.168470461296478
 30
0.0
 10
7.446421056102978
 20
-2.11196620985577
 30
0.0
 10
7.47698679875367
 20
-2.051378518030672
 30
0.0
 10
7.499951918718326
 20
-1.988687823735639
 30
0.0
 10
7.51320620534187
 20
-1.92411511219093
 30
0.0
 10
7.515084599609545
 20
-1.880616255729705
 30
0.0
 10
7.516025641025672
 20
-1.858824118589722
 30
0.0
  0
SPLINE
  5
13C
330
1F
100
AcDbEntity
  8
0
  6
Continuous
 62
     7
370
    25
100
AcDbSpline
210
0.0
220
0.0
230
1.0
 70
     8
 71
     3
 72
    23
 73
    19
 74
     0
 42
0.000000001
 43
0.00000001
 40
0.0
 40
0.0
 40
0.0
 40
0.0
 40
0.0649830441815928
 40
0.1278026449472856
 40
0.1890563364713609
 40
0.2483946473749344
 40
0.307690705954758
 40
0.3669766194961128
 40
0.4273400442260062
 40
0.4887947153913447
 40
0.5506736934060061
 40
0.6120451114224886
 40
0.6733691390064681
 40
0.734929753934251
 40
0.7978099682993249
 40
0.8628916725659019
 40
0.9300953375428169
 40
1.0
 40
1.0
 40
1.0
 40
1.0
 10
3.522435897435927
 20
-1.862680288461516
 30
0.0
 10
3.522798775852109
 20
-1.879646924732805
 30
0.0
 10
3.52351245158039
 20
-1.913015336733784
 30
0.0
 10
3.530374240455787
 20
-1.961984284092296
 30
0.0
 10
3.541464723019703
 20
-2.008624440909437
 30
0.0
 10
3.557183326173841
 20
-2.052938628138174
 30
0.0
 10
3.576659673616902
 20
-2.09518102557829
 30
0.0
 10
3.601155859101653
 20
-2.135060642952991
 30
0.0
 10
3.629981344949054
 20
-2.172612995989869
 30
0.0
 10
3.662910513912372
 20
-2.207560336878427
 30
0.0
 10
3.699198704846985
 20
-2.239390821087893
 30
0.0
 10
3.73855830450193
 20
-2.267359841407658
 30
0.0
 10
3.780935929363229
 20
-2.290235201869021
 30
0.0
 10
3.825289334465125
 20
-2.31000562067689
 30
0.0
 10
3.872694712455913
 20
-2.32444515464412
 30
0.0
 10
3.922469255488585
 20
-2.335464544154363
 30
0.0
 10
3.974965103731751
 20
-2.34176892292623
 30
0.0
 10
4.010750973368826
 20
-2.34255032182458
 30
0.0
 10
4.028996394230799
 20
-2.342948717948696
 30
0.0
  0
SPLINE
  5
13D
330
1F
100
AcDbEntity
  8
0
  6
Continuous
 62
     7
370
    25
100
AcDbSpline
210
0.0
220
0.0
230
1.0
 70
     8
 71
     3
 72
    19
 73
    15
 74
     0
 42
0.000000001
 43
0.00000001
 40
0.0
 40
0.0
 40
0.0
 40
0.0
 40
0.0855188992526822
 40
0.1693092867993392
 40
0.2522179032131826
 40
0.3367564541858545
 40
0.4205954942562016
 40
0.5027411035138949
 40
0.5848035507161508
 40
0.6682684846239487
 40
0.7518231297771575
 40
0.8336286284455294
 40
0.9162197991152918
 40
1.0
 40
1.0
 40
1.0
 40
1.0
 10
4.038461538461568
 20
-1.355769230769209
 30
0.0
 10
4.015496186519338
 20
-1.356549763520293
 30
0.0
 10
3.970029659325788
 20
-1.358095052860597
 30
0.0
 10
3.903385488082982
 20
-1.371287409437162
 30
0.0
 10
3.839047021351298
 20
-1.391960359439458
 30
0.0
 10
3.778244307258853
 20
-1.42153166715697
 30
0.0
 10
3.721290752305768
 20
-1.457578786129909
 30
0.0
 10
3.67075334207674
 20
-1.501248929925384
 30
0.0
 10
3.626550884030307
 20
-1.551122028364497
 30
0.0
 10
3.589159414883164
 20
-1.606747151866907
 30
0.0
 10
3.559393731645776
 20
-1.666758289601681
 30
0.0
 10
3.538322021913122
 20
-1.73001365666876
 30
0.0
 10
3.524697010273372
 20
-1.795491153067904
 30
0.0
 10
3.523193184251664
 20
-1.840177454656962
 30
0.0
 10
3.522435897435927
 20
-1.862680288461516
 30
0.0
  0
SPLINE
  5
13E
330
1F
100
AcDbEntity
  8
0
  6
Continuous
 62
     7
370
    25
100
AcDbSpline
210
0.0
220
0.0
230
1.0
 70
     8
 71
     3
 72
    19
 73
    15
 74
     0
 42
0.000000001
 43
0.00000001
 40
0.0
 40
0.0
 40
0.0
 40
0.0
 40
0.0892427932208482
 40
0.1743490578004778
 40
0.257613108752782
 40
0.3395273673229374
 40
0.4209973901479334
 40
0.5015790589405741
 40
0.582541759997504
 40
0.6661326583338255
 40
0.7500491310216033
 40
0.8327429397442851
 40
0.9156474213323852
 40
1.0
 40
1.0
 40
1.0
 40
1.0
 10
4.532051282051312
 20
-1.853565705128183
 30
0.0
 10
4.5313814979666
 20
-1.830256778148571
 30
0.0
 10
4.53007297522897
 20
-1.784719325648864
 30
0.0
 10
4.517724396397
 20
-1.718365941654061
 30
0.0
 10
4.497814291303971
 20
-1.655981604769752
 30
0.0
 10
4.469890915163564
 20
-1.597763616833361
 30
0.0
 10
4.434899910822915
 20
-1.544328841982042
 30
0.0
 10
4.392754486411192
 20
-1.496666919747286
 30
0.0
 10
4.344181471103062
 20
-1.45471649146083
 30
0.0
 10
4.289320421014348
 20
-1.419767394702106
 30
0.0
 10
4.230296698448817
 20
-1.391534677483817
 30
0.0
 10
4.168536100403651
 20
-1.370353791419095
 30
0.0
 10
4.10413031845442
 20
-1.358356633903415
 30
0.0
 10
4.060477113675844
 20
-1.35663666226888
 30
0.0
 10
4.038461538461568
 20
-1.355769230769209
 30
0.0
  0
SPLINE
  5
13F
330
1F
100
AcDbEntity
  8
0
  6
Continuous
 62
     7
370
    25
100
AcDbSpline
210
0.0
220
0.0
230
1.0
 70
     8
 71
     3
 72
    23
 73
    19
 74
     0
 42
0.000000001
 43
0.00000001
 40
0.0
 40
0.0
 40
0.0
 40
0.0
 40
0.0701214992195633
 40
0.1371218486740219
 40
0.2014871210766342
 40
0.2637651191668747
 40
0.3245600950367294
 40
0.3847388869594632
 40
0.444904604352268
 40
0.5052319196167137
 40
0.5654939949839911
 40
0.6250997441456837
 40
0.684349713944094
 40
0.7438828254849645
 40
0.8046082057523065
 40
0.8672389137717526
 40
0.9320942880208511
 40
1.0
 40
1.0
 40
1.0
 40
1.0
 10
4.028996394230799
 20
-2.342948717948696
 30
0.0
 10
4.047478273328626
 20
-2.342564913428711
 30
0.0
 10
4.083619392059253
 20
-2.341814387756906
 30
0.0
 10
4.136404860255716
 20
-2.335362638478995
 30
0.0
 10
4.186421230441375
 20
-2.324951650335692
 30
0.0
 10
4.233622641622437
 20
-2.310170137671955
 30
0.0
 10
4.278187312154362
 20
-2.291309262358936
 30
0.0
 10
4.319614619456962
 20
-2.267440953603713
 30
0.0
 10
4.358792843490889
 20
-2.240258737581917
 30
0.0
 10
4.394471048282892
 20
-2.208552730471409
 30
0.0
 10
4.426733131044049
 20
-2.173610232976266
 30
0.0
 10
4.454848514490182
 20
-2.135587785468888
 30
0.0
 10
4.478805739002486
 20
-2.095057525945079
 30
0.0
 10
4.498644573925058
 20
-2.052024023107696
 30
0.0
 10
4.513790176008695
 20
-2.006152846575322
 30
0.0
 10
4.523949628511907
 20
-1.95755866868896
 30
0.0
 10
4.53105300109265
 20
-1.906474299258471
 30
0.0
 10
4.531713463439271
 20
-1.87146999117016
 30
0.0
 10
4.532051282051311
 20
-1.853565705128183
 30
0.0
  0
SPLINE
  5
140
330
1F
100
AcDbEntity
  8
0
  6
Continuous
 62
     7
370
    25
100
AcDbSpline
210
0.0
220
0.0
230
1.0
 70
     8
 71
     3
 72
    19
 73
    15
 74
     0
 42
0.000000001
 43
0.00000001
 40
0.0
 40
0.0
 40
0.0
 40
0.0
 40
0.0859205174117676
 40
0.169593435124744
 40
0.2524755148685381
 40
0.3362444769570501
 40
0.4195045210415722
 40
0.502035906644089
 40
0.584774647676872
 40
0.6698464747058012
 40
0.7541848663887865
 40
0.8366582383293272
 40
0.9180097257088053
 40
1.0
 40
1.0
 40
1.0
 40
1.0
 10
-3.925580929487152
 20
-1.35576923076921
 30
0.0
 10
-3.948538098423179
 20
-1.356586049634486
 30
0.0
 10
-3.993851898408128
 20
-1.358198320153912
 30
0.0
 10
-4.060373899439342
 20
-1.370785067746195
 30
0.0
 10
-4.124030606483359
 20
-1.391727364928072
 30
0.0
 10
-4.184503643617645
 20
-1.420368315512254
 30
0.0
 10
-4.240837751928942
 20
-1.45638268382078
 30
0.0
 10
-4.291184587343606
 20
-1.499943375466697
 30
0.0
 10
-4.335955938021576
 20
-1.549861882544022
 30
0.0
 10
-4.373610070137956
 20
-1.605912937739111
 30
0.0
 10
-4.404305318597798
 20
-1.666001983273425
 30
0.0
 10
-4.425888834566166
 20
-1.728814202323963
 30
0.0
 10
-4.440123458270745
 20
-1.793216691102305
 30
0.0
 10
-4.44157771855148
 20
-1.836898033991178
 30
0.0
 10
-4.442307692307665
 20
-1.858824118589723
 30
0.0
  0
SPLINE
  5
141
330
1F
100
AcDbEntity
  8
0
  6
Continuous
 62
     7
370
    25
100
AcDbSpline
210
0.0
220
0.0
230
1.0
 70
     8
 71
     3
 72
    23
 73
    19
 74
     0
 42
0.000000001
 43
0.00000001
 40
0.0
 40
0.0
 40
0.0
 40
0.0
 40
0.0656337996756901
 40
0.129188088057129
 40
0.191218683112189
 40
0.2519128178811573
 40
0.3125074743865506
 40
0.3734944337751983
 40
0.4351515996540501
 40
0.4987414744066493
 40
0.5620952169966308
 40
0.6241865668116555
 40
0.6854757184651953
 40
0.7460968148060529
 40
0.8076116364477852
 40
0.86996658065719
 40
0.9339510189149071
 40
1.0
 40
1.0
 40
1.0
 40
1.0
 10
-3.410256410256381
 20
-1.863381410256389
 30
0.0
 10
-3.410736238442177
 20
-1.845712495002511
 30
0.0
 10
-3.411680692156955
 20
-1.810934478325572
 30
0.0
 10
-3.418895976922277
 20
-1.759870719539557
 30
0.0
 10
-3.430373440128241
 20
-1.711003856529397
 30
0.0
 10
-3.446546525136474
 20
-1.664282512000096
 30
0.0
 10
-3.467792167344256
 20
-1.619965004300477
 30
0.0
 10
-3.493416050287451
 20
-1.577733124195317
 30
0.0
 10
-3.52386877515425
 20
-1.537806518500478
 30
0.0
 10
-3.558660123204234
 20
-1.500734983011242
 30
0.0
 10
-3.596742724476967
 20
-1.46692175188163
 30
0.0
 10
-3.637039994793008
 20
-1.43673963152575
 30
0.0
 10
-3.680029368271723
 20
-1.411945245155821
 30
0.0
 10
-3.724987886730598
 20
-1.391424609407
 30
0.0
 10
-3.771993553961626
 20
-1.375095034458199
 30
0.0
 10
-3.821428863870898
 20
-1.364201187574165
 30
0.0
 10
-3.872768357334427
 20
-1.356721027056465
 30
0.0
 10
-3.907791385032584
 20
-1.356089836671813
 30
0.0
 10
-3.925580929487151
 20
-1.35576923076921
 30
0.0
  0
SPLINE
  5
142
330
1F
100
AcDbEntity
  8
0
  6
Continuous
 62
     7
370
    25
100
AcDbSpline
210
0.0
220
0.0
230
1.0
 70
     8
 71
     3
 72
    19
 73
    15
 74
     0
 42
0.000000001
 43
0.00000001
 40
0.0
 40
0.0
 40
0.0
 40
0.0
 40
0.0848023883688271
 40
0.1686635395998408
 40
0.2525519243727815
 40
0.3382396894642443
 40
0.4231026613931551
 40
0.5055560510576222
 40
0.5861756559890523
 40
0.6671357203303604
 40
0.7484991803055336
 40
0.8304523987582787
 40
0.9134557062010134
 40
0.9999999999999999
 40
0.9999999999999999
 40
0.9999999999999999
 40
0.9999999999999999
 10
-3.926983173076894
 20
-2.365384615384594
 30
0.0
 10
-3.90425992169581
 20
-2.364554633421692
 30
0.0
 10
-3.859065628435085
 20
-2.362903881616704
 30
0.0
 10
-3.792346274495078
 20
-2.350263248970089
 30
0.0
 10
-3.727598793096147
 20
-2.329378849795059
 30
0.0
 10
-3.665705178906968
 20
-2.300429286428067
 30
0.0
 10
-3.608047113333046
 20
-2.264550608479529
 30
0.0
 10
-3.556298174524825
 20
-2.222547062964086
 30
0.0
 10
-3.512540190338089
 20
-2.173695470903084
 30
0.0
 10
-3.475443885548978
 20
-2.120007244380582
 30
0.0
 10
-3.446356177199666
 20
-2.061151246150147
 30
0.0
 10
-3.425168147601135
 20
-1.998484150777191
 30
0.0
 10
-3.412641194712978
 20
-1.932003776704672
 30
0.0
 10
-3.411062329891699
 20
-1.886571813225362
 30
0.0
 10
-3.410256410256381
 20
-1.863381410256389
 30
0.0
  0
SPLINE
  5
143
330
1F
100
AcDbEntity
  8
0
  6
Continuous
 62
     7
370
    25
100
AcDbSpline
210
0.0
220
0.0
230
1.0
 70
     8
 71
     3
 72
    19
 73
    15
 74
     0
 42
0.000000001
 43
0.00000001
 40
0.0
 40
0.0
 40
0.0
 40
0.0
 40
0.0815893489321834
 40
0.1628588951679346
 40
0.2454836892755789
 40
0.3308071391580106
 40
0.4164933737762844
 40
0.4998932031606318
 40
0.583048155995021
 40
0.667157852062157
 40
0.7513119292929136
 40
0.8337847893576147
 40
0.916256488543979
 40
1.0
 40
1.0
 40
1.0
 40
1.0
 10
-4.442307692307664
 20
-1.858824118589723
 30
0.0
 10
-4.441375245652779
 20
-1.880619172181723
 30
0.0
 10
-4.439514007219025
 20
-1.924123850115474
 30
0.0
 10
-4.426138660020032
 20
-1.988614138499655
 30
0.0
 10
-4.403698723303258
 20
-2.051441159530316
 30
0.0
 10
-4.373077691939239
 20
-2.112071656290162
 30
0.0
 10
-4.334734379574883
 20
-2.168363706472006
 30
0.0
 10
-4.290290053298771
 20
-2.21923376775279
 30
0.0
 10
-4.239314912642334
 20
-2.262978561889193
 30
0.0
 10
-4.182851159105293
 20
-2.299597348691938
 30
0.0
 10
-4.122547173905121
 20
-2.329178609139657
 30
0.0
 10
-4.05913020816869
 20
-2.349761428893141
 30
0.0
 10
-3.993792389090443
 20
-2.363050319203229
 30
0.0
 10
-3.949366222164479
 20
-2.364602557621757
 30
0.0
 10
-3.926983173076894
 20
-2.365384615384594
 30
0.0
  0
SPLINE
  5
144
330
1F
100
AcDbEntity
  8
0
  6
Continuous
 62
     7
370
    25
100
AcDbSpline
210
0.0
220
0.0
230
1.0
 70
     8
 71
     3
 72
    19
 73
    15
 74
     0
 42
0.000000001
 43
0.00000001
 40
0.0
 40
0.0
 40
0.0
 40
0.0
 40
0.0815893489321834
 40
0.1628588951679346
 40
0.2454836892755789
 40
0.3308071391580106
 40
0.4164933737762844
 40
0.4998932031606318
 40
0.583048155995021
 40
0.667157852062157
 40
0.7513119292929136
 40
0.8337847893576147
 40
0.916256488543979
 40
1.0
 40
1.0
 40
1.0
 40
1.0
 10
-6.102564102564072
 20
-1.858824118589722
 30
0.0
 10
-6.101631655909187
 20
-1.880619172181722
 30
0.0
 10
-6.099770417475433
 20
-1.924123850115474
 30
0.0
 10
-6.086395070276439
 20
-1.988614138499654
 30
0.0
 10
-6.063955133559668
 20
-2.051441159530316
 30
0.0
 10
-6.033334102195647
 20
-2.112071656290161
 30
0.0
 10
-5.994990789831292
 20
-2.168363706472005
 30
0.0
 10
-5.950546463555178
 20
-2.219233767752789
 30
0.0
 10
-5.899571322898743
 20
-2.262978561889192
 30
0.0
 10
-5.843107569361701
 20
-2.299597348691937
 30
0.0
 10
-5.782803584161529
 20
-2.329178609139655
 30
0.0
 10
-5.719386618425099
 20
-2.34976142889314
 30
0.0
 10
-5.654048799346851
 20
-2.363050319203228
 30
0.0
 10
-5.609622632420888
 20
-2.364602557621757
 30
0.0
 10
-5.587239583333303
 20
-2.365384615384593
 30
0.0
  0
SPLINE
  5
145
330
1F
100
AcDbEntity
  8
0
  6
Continuous
 62
     7
370
    25
100
AcDbSpline
210
0.0
220
0.0
230
1.0
 70
     8
 71
     3
 72
    19
 73
    15
 74
     0
 42
0.000000001
 43
0.00000001
 40
0.0
 40
0.0
 40
0.0
 40
0.0
 40
0.0859205174117676
 40
0.1695934351247429
 40
0.252475514868538
 40
0.33624447695705
 40
0.419504521041572
 40
0.5020359066440888
 40
0.5847746476768718
 40
0.6698464747058008
 40
0.7541848663887861
 40
0.836658238329327
 40
0.9180097257088052
 40
1.0
 40
1.0
 40
1.0
 40
1.0
 10
-5.585837339743559
 20
-1.355769230769209
 30
0.0
 10
-5.608794508679588
 20
-1.356586049634485
 30
0.0
 10
-5.654108308664535
 20
-1.358198320153911
 30
0.0
 10
-5.72063030969575
 20
-1.370785067746195
 30
0.0
 10
-5.784287016739766
 20
-1.391727364928071
 30
0.0
 10
-5.844760053874054
 20
-1.420368315512253
 30
0.0
 10
-5.901094162185351
 20
-1.456382683820779
 30
0.0
 10
-5.951440997600014
 20
-1.499943375466696
 30
0.0
 10
-5.996212348277983
 20
-1.549861882544021
 30
0.0
 10
-6.033866480394367
 20
-1.605912937739111
 30
0.0
 10
-6.064561728854207
 20
-1.666001983273423
 30
0.0
 10
-6.086145244822574
 20
-1.728814202323961
 30
0.0
 10
-6.100379868527154
 20
-1.793216691102304
 30
0.0
 10
-6.101834128807889
 20
-1.836898033991177
 30
0.0
 10
-6.102564102564072
 20
-1.858824118589722
 30
0.0
  0
SPLINE
  5
146
330
1F
100
AcDbEntity
  8
0
  6
Continuous
 62
     7
370
    25
100
AcDbSpline
210
0.0
220
0.0
230
1.0
 70
     8
 71
     3
 72
    23
 73
    19
 74
     0
 42
0.000000001
 43
0.00000001
 40
0.0
 40
0.0
 40
0.0
 40
0.0
 40
0.0656337996756901
 40
0.129188088057129
 40
0.191218683112189
 40
0.2519128178811573
 40
0.3125074743865507
 40
0.373494433775198
 40
0.43515159965405
 40
0.4987414744066492
 40
0.5620952169966307
 40
0.6241865668116554
 40
0.6854757184651951
 40
0.7460968148060524
 40
0.8076116364477852
 40
0.86996658065719
 40
0.9339510189149076
 40
1.0
 40
1.0
 40
1.0
 40
1.0
 10
-5.07051282051279
 20
-1.863381410256388
 30
0.0
 10
-5.070992648698586
 20
-1.84571249500251
 30
0.0
 10
-5.071937102413364
 20
-1.810934478325571
 30
0.0
 10
-5.079152387178685
 20
-1.759870719539556
 30
0.0
 10
-5.090629850384651
 20
-1.711003856529397
 30
0.0
 10
-5.106802935392883
 20
-1.664282512000095
 30
0.0
 10
-5.128048577600664
 20
-1.619965004300475
 30
0.0
 10
-5.15367246054386
 20
-1.577733124195316
 30
0.0
 10
-5.184125185410656
 20
-1.537806518500477
 30
0.0
 10
-5.218916533460643
 20
-1.500734983011241
 30
0.0
 10
-5.256999134733375
 20
-1.46692175188163
 30
0.0
 10
-5.297296405049415
 20
-1.436739631525749
 30
0.0
 10
-5.340285778528133
 20
-1.411945245155821
 30
0.0
 10
-5.385244296987004
 20
-1.391424609406999
 30
0.0
 10
-5.432249964218037
 20
-1.375095034458199
 30
0.0
 10
-5.481685274127306
 20
-1.364201187574164
 30
0.0
 10
-5.533024767590836
 20
-1.356721027056465
 30
0.0
 10
-5.568047795288992
 20
-1.356089836671812
 30
0.0
 10
-5.585837339743559
 20
-1.355769230769209
 30
0.0
  0
SPLINE
  5
147
330
1F
100
AcDbEntity
  8
0
  6
Continuous
 62
     7
370
    25
100
AcDbSpline
210
0.0
220
0.0
230
1.0
 70
     8
 71
     3
 72
    19
 73
    15
 74
     0
 42
0.000000001
 43
0.00000001
 40
0.0
 40
0.0
 40
0.0
 40
0.0
 40
0.0848023883688271
 40
0.1686635395998408
 40
0.2525519243727815
 40
0.3382396894642443
 40
0.4231026613931551
 40
0.5055560510576222
 40
0.5861756559890523
 40
0.6671357203303607
 40
0.7484991803055336
 40
0.8304523987582787
 40
0.9134557062010134
 40
0.9999999999999999
 40
0.9999999999999999
 40
0.9999999999999999
 40
0.9999999999999999
 10
-5.587239583333303
 20
-2.365384615384593
 30
0.0
 10
-5.564516331952218
 20
-2.364554633421692
 30
0.0
 10
-5.519322038691492
 20
-2.362903881616704
 30
0.0
 10
-5.452602684751486
 20
-2.350263248970088
 30
0.0
 10
-5.387855203352555
 20
-2.329378849795058
 30
0.0
 10
-5.325961589163375
 20
-2.300429286428066
 30
0.0
 10
-5.268303523589455
 20
-2.264550608479528
 30
0.0
 10
-5.216554584781231
 20
-2.222547062964086
 30
0.0
 10
-5.172796600594499
 20
-2.173695470903084
 30
0.0
 10
-5.135700295805385
 20
-2.12000724438058
 30
0.0
 10
-5.106612587456076
 20
-2.061151246150147
 30
0.0
 10
-5.085424557857542
 20
-1.99848415077719
 30
0.0
 10
-5.072897604969388
 20
-1.932003776704671
 30
0.0
 10
-5.071318740148108
 20
-1.886571813225361
 30
0.0
 10
-5.07051282051279
 20
-1.863381410256388
 30
0.0
  0
SPLINE
  5
148
330
1F
100
AcDbEntity
  8
0
  6
Continuous
 62
     7
370
    25
100
AcDbSpline
210
0.0
220
0.0
230
1.0
 70
     8
 71
     3
 72
    15
 73
    11
 74
     0
 42
0.000000001
 43
0.00000001
 40
0.0
 40
0.0
 40
0.0
 40
0.0
 40
0.1310919762569275
 40
0.2591412763281421
 40
0.3841617634834036
 40
0.5059919524977758
 40
0.6290980893898565
 40
0.7506691234237094
 40
0.874038937615128
 40
1.0
 40
1.0
 40
1.0
 40
1.0
 10
-2.283904246794846
 20
-1.355769230769209
 30
0.0
 10
-2.299578966053128
 20
-1.356075066541752
 30
0.0
 10
-2.330564590579191
 20
-1.356679639565265
 30
0.0
 10
-2.376215124675784
 20
-1.362414704231613
 30
0.0
 10
-2.420054974134869
 20
-1.371894626667555
 30
0.0
 10
-2.462407617940536
 20
-1.384877104968623
 30
0.0
 10
-2.502718052126613
 20
-1.402181406220003
 30
0.0
 10
-2.541815436235967
 20
-1.422473019524748
 30
0.0
 10
-2.578705634358371
 20
-1.447243811425982
 30
0.0
 10
-2.601776282096891
 20
-1.466123238842074
 30
0.0
 10
-2.613431490384589
 20
-1.475661057692286
 30
0.0
  0
SPLINE
  5
14A
330
1F
100
AcDbEntity
  8
0
  6
Continuous
 62
     7
370
    25
100
AcDbSpline
210
0.0
220
0.0
230
1.0
 70
     8
 71
     3
 72
    15
 73
    11
 74
     0
 42
0.000000001
 43
0.00000001
 40
0.0
 40
0.0
 40
0.0
 40
0.0
 40
0.1099838451118726
 40
0.2225804973638882
 40
0.3384998709624463
 40
0.4587085654776333
 40
0.5855353464579959
 40
0.7175177429458924
 40
0.8546668197510221
 40
1.0
 40
1.0
 40
1.0
 40
1.0
 10
-2.613431490384589
 20
-1.475661057692286
 30
0.0
 10
-2.621778131366773
 20
-1.483208215504513
 30
0.0
 10
-2.638669698480494
 20
-1.498481823531407
 30
0.0
 10
-2.661239959225143
 20
-1.524796426806923
 30
0.0
 10
-2.682850195568236
 20
-1.553172207887937
 30
0.0
 10
-2.702517021944563
 20
-1.584694770187009
 30
0.0
 10
-2.720555815174434
 20
-1.619005159690306
 30
0.0
 10
-2.737435803764912
 20
-1.655813977307711
 30
0.0
 10
-2.752629009805719
 20
-1.695400542438514
 30
0.0
 10
-2.761177064822459
 20
-1.722986762052656
 30
0.0
 10
-2.765574919871769
 20
-1.737179487179465
 30
0.0
  0
SPLINE
  5
14B
330
1F
100
AcDbEntity
  8
0
  6
Continuous
 62
     7
370
    25
100
AcDbSpline
210
0.0
220
0.0
230
1.0
 70
     8
 71
     3
 72
    19
 73
    15
 74
     0
 42
0.000000001
 43
0.00000001
 40
0.0
 40
0.0
 40
0.0
 40
0.0
 40
0.0962401251801506
 40
0.1852312611287011
 40
0.2675005230774394
 40
0.344400381777777
 40
0.4195948685557304
 40
0.4968906265927776
 40
0.5766379188385161
 40
0.6602678524196384
 40
0.7453866150876287
 40
0.8300403273864527
 40
0.9144742116388023
 40
1.0
 40
1.0
 40
1.0
 40
1.0
 10
-1.794871794871769
 20
-1.737179487179465
 30
0.0
 10
-1.800620107148539
 20
-1.716348050317208
 30
0.0
 10
-1.811683757890832
 20
-1.676254240028663
 30
0.0
 10
-1.834801940114044
 20
-1.620733794806675
 30
0.0
 10
-1.860837710462129
 20
-1.571389844301865
 30
0.0
 10
-1.891648576149533
 20
-1.528600027773824
 30
0.0
 10
-1.926557938962854
 20
-1.490598271282757
 30
0.0
 10
-1.966880530286817
 20
-1.457388978698873
 30
0.0
 10
-2.012098477033375
 20
-1.42768025316515
 30
0.0
 10
-2.061978047372283
 20
-1.402604003431726
 30
0.0
 10
-2.114798939910242
 20
-1.38125907407054
 30
0.0
 10
-2.170102035895998
 20
-1.366946516195726
 30
0.0
 10
-2.226530929831401
 20
-1.357141745045902
 30
0.0
 10
-2.264698073005252
 20
-1.356228690830471
 30
0.0
 10
-2.283904246794846
 20
-1.355769230769209
 30
0.0
  0
SPLINE
  5
14C
330
1F
100
AcDbEntity
  8
0
  6
Continuous
 62
     7
370
    25
100
AcDbSpline
210
0.0
220
0.0
230
1.0
 70
     8
 71
     3
 72
    23
 73
    19
 74
     0
 42
0.000000001
 43
0.00000001
 40
0.0
 40
0.0
 40
0.0
 40
0.0
 40
0.0645039992970556
 40
0.1268993215900401
 40
0.1877465401000117
 40
0.2481497329298263
 40
0.3085860647627417
 40
0.3695830050869939
 40
0.4318269653810494
 40
0.4961797225241574
 40
0.5606678546118797
 40
0.6235044551176646
 40
0.6852604113304276
 40
0.7465368217511669
 40
0.8083273517367078
 40
0.8704861878877674
 40
0.9343168833592461
 40
1.0
 40
1.0
 40
1.0
 40
1.0
 10
-0.5576923076922814
 20
2.987980769230783
 30
0.0
 10
-0.5565995688715306
 20
2.944641722828202
 30
0.0
 10
-0.5544498135611693
 20
2.859380411176513
 30
0.0
 10
-0.5356290391766129
 20
2.734436287846564
 30
0.0
 10
-0.5066387753599012
 20
2.614360613837431
 30
0.0
 10
-0.4639038898427199
 20
2.499810405871558
 30
0.0
 10
-0.4104605058504559
 20
2.389801020587354
 30
0.0
 10
-0.3444374570435951
 20
2.285308359426693
 30
0.0
 10
-0.2662153836987128
 20
2.186304181400677
 30
0.0
 10
-0.1773609323257369
 20
2.093479665140908
 30
0.0
 10
-0.0802271838118074
 20
2.008754690078465
 30
0.0
 10
0.0229151561273229
 20
1.934386054096964
 30
0.0
 10
0.1309611054021481
 20
1.871462982819684
 30
0.0
 10
0.2441924220128453
 20
1.820201492205362
 30
0.0
 10
0.3620045983237017
 20
1.779581716949074
 30
0.0
 10
0.4851567849272216
 20
1.751742890268326
 30
0.0
 10
0.6128286074274634
 20
1.733421071381563
 30
0.0
 10
0.6998548832789806
 20
1.731661566306307
 30
0.0
 10
0.7439903846154109
 20
1.730769230769245
 30
0.0
  0
SPLINE
  5
14D
330
1F
100
AcDbEntity
  8
0
  6
Continuous
 62
     7
370
    25
100
AcDbSpline
210
0.0
220
0.0
230
1.0
 70
     8
 71
     3
 72
    31
 73
    27
 74
     0
 42
0.000000001
 43
0.00000001
 40
0.0
 40
0.0
 40
0.0
 40
0.0
 40
0.0420233285259237
 40
0.0836449111687117
 40
0.1249837954173944
 40
0.1662474611728952
 40
0.2077015560969881
 40
0.2496310707996494
 40
0.2917417703321308
 40
0.3347428753531985
 40
0.3774601685508655
 40
0.4195563188419397
 40
0.4610441763330336
 40
0.5020962839443969
 40
0.5428907140755997
 40
0.5838008186265051
 40
0.6248635833101933
 40
0.6662246890691704
 40
0.7073991864779363
 40
0.7485566775366932
 40
0.7896545909521799
 40
0.8307397264898323
 40
0.8720701422586045
 40
0.9139933952421326
 40
0.956498130067588
 40
1.0
 40
1.0
 40
1.0
 40
1.0
 10
0.7439903846154109
 20
4.269230769230784
 30
0.0
 10
0.7155206987185402
 20
4.26888372044229
 30
0.0
 10
0.6588534990611908
 20
4.268192940675359
 30
0.0
 10
0.5746096108496949
 20
4.259093755899234
 30
0.0
 10
0.4914736675661447
 20
4.246125279638069
 30
0.0
 10
0.4094284999904694
 20
4.227626833268467
 30
0.0
 10
0.3288173948094929
 20
4.202423359462506
 30
0.0
 10
0.2488889595182713
 20
4.17341686672873
 30
0.0
 10
0.1703720562022033
 20
4.138084503361227
 30
0.0
 10
0.0935258923253273
 20
4.098165042472954
 30
0.0
 10
0.0190272564859053
 20
4.053980253212598
 30
0.0
 10
-0.0512693447610335
 20
4.00514731003965
 30
0.0
 10
-0.1175458967299614
 20
3.952811406399111
 30
0.0
 10
-0.1796401252894332
 20
3.896850402932837
 30
0.0
 10
-0.2373697014390067
 20
3.836979315683266
 30
0.0
 10
-0.2918708741128021
 20
3.774105799010925
 30
0.0
 10
-0.3409590869522954
 20
3.706432749544939
 30
0.0
 10
-0.3859467242325023
 20
3.635795257944752
 30
0.0
 10
-0.4262048730416649
 20
3.562285331196932
 30
0.0
 10
-0.4620037485180949
 20
3.48667687782443
 30
0.0
 10
-0.4912871846370954
 20
3.408353146300104
 30
0.0
 10
-0.5151692214520979
 20
3.328163868377604
 30
0.0
 10
-0.5349690593207458
 20
3.246236045808911
 30
0.0
 10
-0.5475124228301791
 20
3.161948175375292
 30
0.0
 10
-0.5567115880718787
 20
3.075723793635616
 30
0.0
 10
-0.5573628841740988
 20
3.017453633028028
 30
0.0
 10
-0.5576923076922814
 20
2.987980769230783
 30
0.0
  0
SPLINE
  5
14E
330
1F
100
AcDbEntity
  8
0
  6
Continuous
 62
     7
370
    25
100
AcDbSpline
210
0.0
220
0.0
230
1.0
 70
     8
 71
     3
 72
    31
 73
    27
 74
     0
 42
0.000000001
 43
0.00000001
 40
0.0
 40
0.0
 40
0.0
 40
0.0
 40
0.0429150821010499
 40
0.0851299705846993
 40
0.1264733185549985
 40
0.1674530378853888
 40
0.207976332894988
 40
0.2482493780637604
 40
0.2887499869834433
 40
0.329669856910873
 40
0.3705372867119747
 40
0.4111285639171176
 40
0.4518189126736377
 40
0.4924058769342636
 40
0.533485861742023
 40
0.5752630624415516
 40
0.6174406128021904
 40
0.6606716882923646
 40
0.7039402042434888
 40
0.7468675221598702
 40
0.789079300394723
 40
0.8311040424574037
 40
0.8732379898547747
 40
0.9151657696593329
 40
0.9573806581429823
 40
1.0
 40
1.0
 40
1.0
 40
1.0
 10
2.057692307692334
 20
3.001802884615399
 30
0.0
 10
2.05734849656819
 20
3.030873316845502
 30
0.0
 10
2.056666483871205
 20
3.088539874136619
 30
0.0
 10
2.047630077050329
 20
3.17379200416062
 30
0.0
 10
2.034686456733322
 20
3.25715189970961
 30
0.0
 10
2.016032706985161
 20
3.338292302277646
 30
0.0
 10
1.991989718068921
 20
3.417233895192009
 30
0.0
 10
1.962343434878482
 20
3.493902536078736
 30
0.0
 10
1.927384606758053
 20
3.568583846150083
 30
0.0
 10
1.88726327157377
 20
3.641093243578482
 30
0.0
 10
1.842163994308284
 20
3.710671590424898
 30
0.0
 10
1.792883214327507
 20
3.777187944018121
 30
0.0
 10
1.738570058777961
 20
3.839393150855762
 30
0.0
 10
1.680776323171856
 20
3.898822888607247
 30
0.0
 10
1.618058421461202
 20
3.954209651128222
 30
0.0
 10
1.550700455107655
 20
4.005571811691826
 30
0.0
 10
1.479520159883543
 20
4.05414890393948
 30
0.0
 10
1.404153958083833
 20
4.097970814088608
 30
0.0
 10
1.326373426313669
 20
4.138440156414205
 30
0.0
 10
1.246561462337169
 20
4.173112444823859
 30
0.0
 10
1.165622234094658
 20
4.202574261441603
 30
0.0
 10
1.0837615663814
 20
4.227703088627812
 30
0.0
 10
1.000290442093925
 20
4.246052828751337
 30
0.0
 10
0.9157728745108583
 20
4.259105442917059
 30
0.0
 10
0.83032579573178
 20
4.268189773682853
 30
0.0
 10
0.7728601788258674
 20
4.268882669570933
 30
0.0
 10
0.7439903846154109
 20
4.269230769230784
 30
0.0
  0
SPLINE
  5
14F
330
1F
100
AcDbEntity
  8
0
  6
Continuous
 62
     7
370
    25
100
AcDbSpline
210
0.0
220
0.0
230
1.0
 70
     8
 71
     3
 72
    31
 73
    27
 74
     0
 42
0.000000001
 43
0.00000001
 40
0.0
 40
0.0
 40
0.0
 40
0.0
 40
0.0436332182657581
 40
0.0865377766972013
 40
0.1291773360898922
 40
0.1714363236638288
 40
0.2134158945709081
 40
0.2552659545538504
 40
0.297369481156624
 40
0.3399407478985557
 40
0.3823474587518118
 40
0.4239529468152707
 40
0.4648711632610172
 40
0.5055722941182728
 40
0.5460025771083161
 40
0.5865679748069134
 40
0.627064799148168
 40
0.6682706840331737
 40
0.7095492248503333
 40
0.750428153513189
 40
0.7910961944485934
 40
0.8320271447794343
 40
0.8731359553359672
 40
0.9146107643654492
 40
0.9569559864804374
 40
1.0
 40
1.0
 40
1.0
 40
1.0
 10
0.7439903846154109
 20
1.730769230769245
 30
0.0
 10
0.7736556717115854
 20
1.731176805940254
 30
0.0
 10
0.8324908457469088
 20
1.731985149916196
 30
0.0
 10
0.9200012934778683
 20
1.740126872919209
 30
0.0
 10
1.005935189247258
 20
1.753182760991916
 30
0.0
 10
1.090172000573211
 20
1.771980465799507
 30
0.0
 10
1.172616124618757
 20
1.79550664273786
 30
0.0
 10
1.253611670145854
 20
1.823456123845642
 30
0.0
 10
1.33229591899117
 20
1.858325727002629
 30
0.0
 10
1.40966149424932
 20
1.896852542641787
 30
0.0
 10
1.483715415698892
 20
1.940772677670394
 30
0.0
 10
1.554408729091034
 20
1.987948234521227
 30
0.0
 10
1.619959568966644
 20
2.040207052272506
 30
0.0
 10
1.682007344470305
 20
2.095336605881653
 30
0.0
 10
1.739973935035374
 20
2.154448475473542
 30
0.0
 10
1.793467350085514
 20
2.217465808485163
 30
0.0
 10
1.842307463357068
 20
2.284786371827872
 30
0.0
 10
1.887278017593364
 20
2.355316719605252
 30
0.0
 10
1.927395099955478
 20
2.429027793335433
 30
0.0
 10
1.962348613426139
 20
2.504910374434043
 30
0.0
 10
1.992002426997048
 20
2.582777611034063
 30
0.0
 10
2.015941145422129
 20
2.662741815160952
 30
0.0
 10
2.034700112579121
 20
2.744651114107383
 30
0.0
 10
2.047625758214528
 20
2.828615181102825
 30
0.0
 10
2.056667277054809
 20
2.914466046094343
 30
0.0
 10
2.05734877178625
 20
2.972532208347253
 30
0.0
 10
2.057692307692334
 20
3.001802884615399
 30
0.0
  0
SPLINE
  5
150
330
1F
100
AcDbEntity
  8
0
  6
Continuous
 62
     7
370
    25
100
AcDbSpline
210
0.0
220
0.0
230
1.0
 70
     8
 71
     3
 72
    31
 73
    27
 74
     0
 42
0.000000001
 43
0.00000001
 40
0.0
 40
0.0
 40
0.0
 40
0.0
 40
0.0420233285259241
 40
0.0836449111687117
 40
0.1249837954173947
 40
0.1662474611728956
 40
0.2077015560969879
 40
0.2496310707996493
 40
0.2917417703321308
 40
0.3347428753531984
 40
0.3774601685508651
 40
0.4195563188419398
 40
0.4610441763330339
 40
0.5020962839443971
 40
0.5428907140755997
 40
0.5838008186265049
 40
0.624863583310193
 40
0.6662246890691702
 40
0.7073991864779364
 40
0.7485566775366931
 40
0.7896545909521802
 40
0.8307397264898321
 40
0.8720701422586046
 40
0.9139933952421325
 40
0.9564981300675881
 40
1.0
 40
1.0
 40
1.0
 40
1.0
 10
-7.794471153846126
 20
4.269230769230784
 30
0.0
 10
-7.822940839742998
 20
4.26888372044229
 30
0.0
 10
-7.879608039400349
 20
4.26819294067536
 30
0.0
 10
-7.963851927611839
 20
4.259093755899234
 30
0.0
 10
-8.046987870895393
 20
4.246125279638068
 30
0.0
 10
-8.129033038471068
 20
4.227626833268469
 30
0.0
 10
-8.209644143652044
 20
4.202423359462505
 30
0.0
 10
-8.289572578943263
 20
4.173416866728729
 30
0.0
 10
-8.368089482259334
 20
4.138084503361227
 30
0.0
 10
-8.444935646136207
 20
4.098165042472953
 30
0.0
 10
-8.51943428197563
 20
4.053980253212599
 30
0.0
 10
-8.589730883222575
 20
4.005147310039651
 30
0.0
 10
-8.656007435191496
 20
3.952811406399111
 30
0.0
 10
-8.718101663750971
 20
3.896850402932837
 30
0.0
 10
-8.775831239900544
 20
3.836979315683268
 30
0.0
 10
-8.83033241257434
 20
3.774105799010925
 30
0.0
 10
-8.87942062541383
 20
3.706432749544939
 30
0.0
 10
-8.924408262694042
 20
3.635795257944753
 30
0.0
 10
-8.964666411503204
 20
3.562285331196932
 30
0.0
 10
-9.000465286979626
 20
3.486676877824428
 30
0.0
 10
-9.029748723098637
 20
3.408353146300105
 30
0.0
 10
-9.053630759913634
 20
3.328163868377604
 30
0.0
 10
-9.07343059778228
 20
3.246236045808911
 30
0.0
 10
-9.08597396129172
 20
3.161948175375292
 30
0.0
 10
-9.095173126533414
 20
3.075723793635615
 30
0.0
 10
-9.095824422635637
 20
3.017453633028028
 30
0.0
 10
-9.096153846153818
 20
2.987980769230783
 30
0.0
  0
SPLINE
  5
151
330
1F
100
AcDbEntity
  8
0
  6
Continuous
 62
     7
370
    25
100
AcDbSpline
210
0.0
220
0.0
230
1.0
 70
     8
 71
     3
 72
    31
 73
    27
 74
     0
 42
0.000000001
 43
0.00000001
 40
0.0
 40
0.0
 40
0.0
 40
0.0
 40
0.0429150821010497
 40
0.085129970584699
 40
0.1264733185549985
 40
0.1674530378853886
 40
0.207976332894988
 40
0.2482493780637603
 40
0.2887499869834435
 40
0.329669856910873
 40
0.3705372867119747
 40
0.4111285639171179
 40
0.4518189126736377
 40
0.4924058769342637
 40
0.533485861742023
 40
0.5752630624415513
 40
0.617440612802191
 40
0.6606716882923649
 40
0.7039402042434891
 40
0.7468675221598703
 40
0.7890793003947228
 40
0.831104042457404
 40
0.8732379898547752
 40
0.9151657696593329
 40
0.9573806581429828
 40
1.0
 40
1.0
 40
1.0
 40
1.0
 10
-6.480769230769203
 20
3.001802884615399
 30
0.0
 10
-6.481113041893346
 20
3.030873316845502
 30
0.0
 10
-6.48179505459033
 20
3.088539874136619
 30
0.0
 10
-6.490831461411211
 20
3.17379200416062
 30
0.0
 10
-6.503775081728214
 20
3.25715189970961
 30
0.0
 10
-6.522428831476375
 20
3.338292302277647
 30
0.0
 10
-6.546471820392616
 20
3.417233895192008
 30
0.0
 10
-6.576118103583056
 20
3.493902536078739
 30
0.0
 10
-6.611076931703482
 20
3.56858384615008
 30
0.0
 10
-6.65119826688777
 20
3.641093243578484
 30
0.0
 10
-6.696297544153252
 20
3.710671590424897
 30
0.0
 10
-6.74557832413403
 20
3.777187944018121
 30
0.0
 10
-6.799891479683574
 20
3.839393150855763
 30
0.0
 10
-6.857685215289679
 20
3.898822888607248
 30
0.0
 10
-6.920403117000334
 20
3.954209651128219
 30
0.0
 10
-6.987761083353885
 20
4.005571811691826
 30
0.0
 10
-7.058941378577992
 20
4.05414890393948
 30
0.0
 10
-7.134307580377706
 20
4.097970814088609
 30
0.0
 10
-7.212088112147867
 20
4.138440156414205
 30
0.0
 10
-7.29190007612437
 20
4.17311244482386
 30
0.0
 10
-7.372839304366877
 20
4.2025742614416
 30
0.0
 10
-7.454699972080136
 20
4.227703088627814
 30
0.0
 10
-7.538171096367614
 20
4.246052828751337
 30
0.0
 10
-7.622688663950679
 20
4.259105442917059
 30
0.0
 10
-7.708135742729753
 20
4.268189773682852
 30
0.0
 10
-7.765601359635671
 20
4.268882669570933
 30
0.0
 10
-7.794471153846127
 20
4.269230769230784
 30
0.0
  0
SPLINE
  5
152
330
1F
100
AcDbEntity
  8
0
  6
Continuous
 62
     7
370
    25
100
AcDbSpline
210
0.0
220
0.0
230
1.0
 70
     8
 71
     3
 72
    31
 73
    27
 74
     0
 42
0.000000001
 43
0.00000001
 40
0.0
 40
0.0
 40
0.0
 40
0.0
 40
0.0436332182657578
 40
0.0865377766972011
 40
0.129177336089892
 40
0.1714363236638286
 40
0.2134158945709077
 40
0.2552659545538503
 40
0.2973694811566238
 40
0.3399407478985555
 40
0.3823474587518116
 40
0.4239529468152705
 40
0.464871163261017
 40
0.5055722941182725
 40
0.546002577108316
 40
0.586567974806913
 40
0.6270647991481678
 40
0.6682706840331736
 40
0.7095492248503333
 40
0.7504281535131889
 40
0.7910961944485932
 40
0.8320271447794341
 40
0.8731359553359672
 40
0.914610764365449
 40
0.9569559864804374
 40
1.0
 40
1.0
 40
1.0
 40
1.0
 10
-7.794471153846126
 20
1.730769230769246
 30
0.0
 10
-7.764805866749952
 20
1.731176805940254
 30
0.0
 10
-7.705970692714627
 20
1.731985149916196
 30
0.0
 10
-7.61846024498367
 20
1.740126872919209
 30
0.0
 10
-7.532526349214279
 20
1.753182760991917
 30
0.0
 10
-7.448289537888324
 20
1.771980465799506
 30
0.0
 10
-7.365845413842782
 20
1.79550664273786
 30
0.0
 10
-7.284849868315684
 20
1.823456123845642
 30
0.0
 10
-7.206165619470366
 20
1.858325727002629
 30
0.0
 10
-7.128800044212215
 20
1.896852542641788
 30
0.0
 10
-7.054746122762645
 20
1.940772677670394
 30
0.0
 10
-6.984052809370502
 20
1.987948234521228
 30
0.0
 10
-6.918501969494894
 20
2.040207052272506
 30
0.0
 10
-6.856454193991231
 20
2.095336605881654
 30
0.0
 10
-6.798487603426163
 20
2.154448475473542
 30
0.0
 10
-6.744994188376022
 20
2.217465808485164
 30
0.0
 10
-6.696154075104469
 20
2.284786371827871
 30
0.0
 10
-6.651183520868173
 20
2.355316719605254
 30
0.0
 10
-6.611066438506061
 20
2.429027793335432
 30
0.0
 10
-6.576112925035398
 20
2.504910374434044
 30
0.0
 10
-6.546459111464491
 20
2.582777611034063
 30
0.0
 10
-6.52252039303941
 20
2.662741815160953
 30
0.0
 10
-6.503761425882415
 20
2.744651114107382
 30
0.0
 10
-6.490835780247007
 20
2.828615181102824
 30
0.0
 10
-6.481794261406728
 20
2.914466046094345
 30
0.0
 10
-6.48111276667529
 20
2.972532208347254
 30
0.0
 10
-6.480769230769203
 20
3.001802884615399
 30
0.0
  0
SPLINE
  5
153
330
1F
100
AcDbEntity
  8
0
  6
Continuous
 62
     7
370
    25
100
AcDbSpline
210
0.0
220
0.0
230
1.0
 70
     8
 71
     3
 72
    23
 73
    19
 74
     0
 42
0.000000001
 43
0.00000001
 40
0.0
 40
0.0
 40
0.0
 40
0.0
 40
0.0645039992970555
 40
0.12689932159004
 40
0.1877465401000114
 40
0.2481497329298264
 40
0.3085860647627415
 40
0.3695830050869937
 40
0.4318269653810491
 40
0.496179722524157
 40
0.5606678546118795
 40
0.6235044551176641
 40
0.6852604113304273
 40
0.7465368217511665
 40
0.8083273517367071
 40
0.8704861878877675
 40
0.9343168833592455
 40
1.0
 40
1.0
 40
1.0
 40
1.0
 10
-9.096153846153818
 20
2.987980769230783
 30
0.0
 10
-9.095061107333066
 20
2.944641722828202
 30
0.0
 10
-9.092911352022707
 20
2.859380411176513
 30
0.0
 10
-9.074090577638149
 20
2.734436287846563
 30
0.0
 10
-9.04510031382144
 20
2.614360613837431
 30
0.0
 10
-9.002365428304257
 20
2.499810405871559
 30
0.0
 10
-8.948922044311997
 20
2.389801020587354
 30
0.0
 10
-8.88289899550513
 20
2.285308359426693
 30
0.0
 10
-8.804676922160253
 20
2.186304181400679
 30
0.0
 10
-8.715822470787272
 20
2.093479665140907
 30
0.0
 10
-8.618688722273346
 20
2.008754690078467
 30
0.0
 10
-8.515546382334211
 20
1.934386054096963
 30
0.0
 10
-8.407500433059392
 20
1.871462982819685
 30
0.0
 10
-8.294269116448689
 20
1.820201492205362
 30
0.0
 10
-8.176456940137834
 20
1.779581716949074
 30
0.0
 10
-8.053304753534315
 20
1.751742890268327
 30
0.0
 10
-7.925632931034075
 20
1.733421071381563
 30
0.0
 10
-7.838606655182556
 20
1.731661566306307
 30
0.0
 10
-7.794471153846126
 20
1.730769230769246
 30
0.0
  0
SPLINE
  5
154
330
1F
100
AcDbEntity
  8
0
  6
Continuous
 62
     7
370
    25
100
AcDbSpline
210
0.0
220
0.0
230
1.0
 70
     8
 71
     3
 72
    23
 73
    19
 74
     0
 42
0.000000001
 43
0.00000001
 40
0.0
 40
0.0
 40
0.0
 40
0.0
 40
0.0725383714064935
 40
0.1400338305012515
 40
0.2024956806336231
 40
0.2605750556694154
 40
0.3132283378464656
 40
0.3615831937532649
 40
0.4048783612951267
 40
0.4441274373055396
 40
0.5163996933371983
 40
0.5865066709977662
 40
0.6550853737960485
 40
0.7243837831470364
 40
0.7939735287256628
 40
0.8616376821817769
 40
0.930110942306404
 40
1.0
 40
1.0
 40
1.0
 40
1.0
 10
-4.801682692307666
 20
3.18569711538463
 30
0.0
 10
-4.776037041610931
 20
3.185683860877937
 30
0.0
 10
-4.726528641668559
 20
3.185658273326029
 30
0.0
 10
-4.655011878897212
 20
3.189074179165366
 30
0.0
 10
-4.588661061208884
 20
3.193017492877704
 30
0.0
 10
-4.527679996603179
 20
3.198791141559419
 30
0.0
 10
-4.472041195617479
 20
3.206952219403007
 30
0.0
 10
-4.421651885153664
 20
3.215190851904277
 30
0.0
 10
-4.376902785529461
 20
3.227109734131588
 30
0.0
 10
-4.324532041158735
 20
3.24315807910798
 30
0.0
 10
-4.266174886178629
 20
3.270528892531681
 30
0.0
 10
-4.202688416015894
 20
3.310257369720457
 30
0.0
 10
-4.148885056286234
 20
3.360897976749116
 30
0.0
 10
-4.102326516204891
 20
3.417836117886116
 30
0.0
 10
-4.065378620829122
 20
3.481178228822738
 30
0.0
 10
-4.038330627414999
 20
3.54895160315933
 30
0.0
 10
-4.022438206817672
 20
3.620461188463649
 30
0.0
 10
-4.020307183684239
 20
3.669393878910943
 30
0.0
 10
-4.019230769230743
 20
3.694110576923091
 30
0.0
  0
SPLINE
  5
156
330
1F
100
AcDbEntity
  8
0
  6
Continuous
 62
     7
370
    25
100
AcDbSpline
210
0.0
220
0.0
230
1.0
 70
     8
 71
     3
 72
    23
 73
    19
 74
     0
 42
0.000000001
 43
0.00000001
 40
0.0
 40
0.0
 40
0.0
 40
0.0
 40
0.0700437554181556
 40
0.1392383167626456
 40
0.2081974550441381
 40
0.2791733744245674
 40
0.3499868116864769
 40
0.418353845662656
 40
0.4876095837571511
 40
0.5574110731083888
 40
0.5953301567632406
 40
0.6379640515652195
 40
0.6859127777112934
 40
0.7381851646524793
 40
0.7961026471849427
 40
0.8585165439469274
 40
0.9266577264685195
 40
1.0
 40
1.0
 40
1.0
 40
1.0
 10
-4.019230769230743
 20
3.694110576923091
 30
0.0
 10
-4.020313037655486
 20
3.7182293027364
 30
0.0
 10
-4.022464453336258
 20
3.766174344584264
 30
0.0
 10
-4.038455193188265
 20
3.836441853678306
 30
0.0
 10
-4.065326033642727
 20
3.903501028866981
 30
0.0
 10
-4.102574543226883
 20
3.966049387741343
 30
0.0
 10
-4.147781226050284
 20
4.022782648282986
 30
0.0
 10
-4.20032352014284
 20
4.072065900051152
 30
0.0
 10
-4.26007774414313
 20
4.111684502392107
 30
0.0
 10
-4.315661942171187
 20
4.137255886662405
 30
0.0
 10
-4.365034387337578
 20
4.152868979890815
 30
0.0
 10
-4.40791892438082
 20
4.163793128854156
 30
0.0
 10
-4.456339502511972
 20
4.172515077064099
 30
0.0
 10
-4.510311884949426
 20
4.179577508032258
 30
0.0
 10
-4.569417742561207
 20
4.185623331938004
 30
0.0
 10
-4.634164869613733
 20
4.189725598138562
 30
0.0
 10
-4.704307992411813
 20
4.19212684634131
 30
0.0
 10
-4.753002767438912
 20
4.192245950847035
 30
0.0
 10
-4.778245192307666
 20
4.192307692307706
 30
0.0
  0
SPLINE
  5
159
330
1F
100
AcDbEntity
  8
0
  6
Continuous
 62
     7
370
    25
100
AcDbSpline
210
0.0
220
0.0
230
1.0
 70
     8
 71
     3
 72
    23
 73
    19
 74
     0
 42
0.000000001
 43
0.00000001
 40
0.0
 40
0.0
 40
0.0
 40
0.0
 40
0.0725383714064935
 40
0.1400338305012511
 40
0.2024956806336236
 40
0.2605750556694159
 40
0.3132283378464661
 40
0.3615831937532645
 40
0.4048783612951268
 40
0.4441274373055394
 40
0.5163996933371982
 40
0.5865066709977661
 40
0.6550853737960486
 40
0.7243837831470367
 40
0.793973528725663
 40
0.861637682181777
 40
0.930110942306404
 40
1.0
 40
1.0
 40
1.0
 40
1.0
 10
-2.340144230769203
 20
3.18569711538463
 30
0.0
 10
-2.314498580072468
 20
3.185683860877937
 30
0.0
 10
-2.264990180130098
 20
3.185658273326031
 30
0.0
 10
-2.193473417358749
 20
3.189074179165365
 30
0.0
 10
-2.127122599670422
 20
3.193017492877705
 30
0.0
 10
-2.066141535064715
 20
3.198791141559419
 30
0.0
 10
-2.010502734079017
 20
3.206952219403007
 30
0.0
 10
-1.960113423615202
 20
3.215190851904277
 30
0.0
 10
-1.915364323990999
 20
3.227109734131588
 30
0.0
 10
-1.862993579620271
 20
3.243158079107979
 30
0.0
 10
-1.804636424640167
 20
3.270528892531681
 30
0.0
 10
-1.741149954477432
 20
3.310257369720457
 30
0.0
 10
-1.687346594747772
 20
3.360897976749117
 30
0.0
 10
-1.640788054666428
 20
3.417836117886115
 30
0.0
 10
-1.60384015929066
 20
3.481178228822738
 30
0.0
 10
-1.576792165876536
 20
3.54895160315933
 30
0.0
 10
-1.56089974527921
 20
3.620461188463648
 30
0.0
 10
-1.558768722145777
 20
3.669393878910943
 30
0.0
 10
-1.55769230769228
 20
3.694110576923091
 30
0.0
  0
SPLINE
  5
15B
330
1F
100
AcDbEntity
  8
0
  6
Continuous
 62
     7
370
    25
100
AcDbSpline
210
0.0
220
0.0
230
1.0
 70
     8
 71
     3
 72
    23
 73
    19
 74
     0
 42
0.000000001
 43
0.00000001
 40
0.0
 40
0.0
 40
0.0
 40
0.0
 40
0.0700437554181556
 40
0.1392383167626456
 40
0.208197455044138
 40
0.2791733744245673
 40
0.349986811686477
 40
0.4183538456626556
 40
0.4876095837571511
 40
0.5574110731083886
 40
0.5953301567632412
 40
0.6379640515652196
 40
0.6859127777112931
 40
0.7381851646524794
 40
0.7961026471849433
 40
0.8585165439469276
 40
0.9266577264685192
 40
1.0
 40
1.0
 40
1.0
 40
1.0
 10
-1.55769230769228
 20
3.694110576923091
 30
0.0
 10
-1.558774576117024
 20
3.718229302736401
 30
0.0
 10
-1.560925991797796
 20
3.766174344584264
 30
0.0
 10
-1.576916731649803
 20
3.836441853678306
 30
0.0
 10
-1.603787572104264
 20
3.903501028866981
 30
0.0
 10
-1.641036081688421
 20
3.966049387741343
 30
0.0
 10
-1.686242764511821
 20
4.022782648282986
 30
0.0
 10
-1.738785058604376
 20
4.072065900051152
 30
0.0
 10
-1.798539282604668
 20
4.111684502392108
 30
0.0
 10
-1.854123480632726
 20
4.137255886662406
 30
0.0
 10
-1.903495925799114
 20
4.152868979890815
 30
0.0
 10
-1.946380462842358
 20
4.163793128854156
 30
0.0
 10
-1.994801040973511
 20
4.1725150770641
 30
0.0
 10
-2.048773423410964
 20
4.179577508032259
 30
0.0
 10
-2.107879281022744
 20
4.185623331938002
 30
0.0
 10
-2.172626408075272
 20
4.189725598138565
 30
0.0
 10
-2.24276953087335
 20
4.192126846341309
 30
0.0
 10
-2.291464305900449
 20
4.192245950847035
 30
0.0
 10
-2.316706730769204
 20
4.192307692307707
 30
0.0
  0
LINE
  5
15E
330
1F
100
AcDbEntity
  8
0
  6
Continuous
 62
     7
370
    25
100
AcDbLine
 10
-3.4102564103
 20
-2.5
 30
0.0
 11
-3.4102564103
 21
-2.2787960737
 31
0.0
  0
LINE
  5
15F
330
1F
100
AcDbEntity
  8
0
  6
Continuous
 62
     7
370
    25
100
AcDbLine
 10
-3.2532051282
 20
-2.5
 30
0.0
 11
-3.4102564103
 21
-2.5
 31
0.0
  0
LINE
  5
160
330
1F
100
AcDbEntity
  8
0
  6
Continuous
 62
     7
370
    25
100
AcDbLine
 10
-3.2532051282
 20
-0.7051282051
 30
0.0
 11
-3.2532051282
 21
-2.5
 31
0.0
  0
LINE
  5
161
330
1F
100
AcDbEntity
  8
0
  6
Continuous
 62
     7
370
    25
100
AcDbLine
 10
-3.4102564103
 20
-0.7051282051
 30
0.0
 11
-3.2532051282
 21
-0.7051282051
 31
0.0
  0
LINE
  5
162
330
1F
100
AcDbEntity
  8
0
  6
Continuous
 62
     7
370
    25
100
AcDbLine
 10
-3.4102564103
 20
-1.4686498397
 30
0.0
 11
-3.4102564103
 21
-0.7051282051
 31
0.0
  0
LINE
  5
163
330
1F
100
AcDbEntity
  8
0
  6
Continuous
 62
     7
370
    25
100
AcDbLine
 10
-0.4487179487
 20
-0.75
 30
0.0
 11
-0.4487179487
 21
-2.5
 31
0.0
  0
LINE
  5
164
330
1F
100
AcDbEntity
  8
0
  6
Continuous
 62
     7
370
    25
100
AcDbLine
 10
-0.6057692308
 20
-0.75
 30
0.0
 11
-0.4487179487
 21
-0.75
 31
0.0
  0
LINE
  5
165
330
1F
100
AcDbEntity
  8
0
  6
Continuous
 62
     7
370
    25
100
AcDbLine
 10
-0.6057692308
 20
-2.5
 30
0.0
 11
-0.6057692308
 21
-0.75
 31
0.0
  0
LINE
  5
166
330
1F
100
AcDbEntity
  8
0
  6
Continuous
 62
     7
370
    25
100
AcDbLine
 10
-0.4487179487
 20
-2.5
 30
0.0
 11
-0.6057692308
 21
-2.5
 31
0.0
  0
LINE
  5
167
330
1F
100
AcDbEntity
  8
0
  6
Continuous
 62
     7
370
    25
100
AcDbLine
 10
0.1121794872
 20
-2.0376101763
 30
0.0
 11
0.1121794872
 21
-2.5
 31
0.0
  0
LINE
  5
168
330
1F
100
AcDbEntity
  8
0
  6
Continuous
 62
     7
370
    25
100
AcDbLine
 10
0.9198717949
 20
-2.5
 30
0.0
 11
0.9198717949
 21
-1.8984375
 31
0.0
  0
LINE
  5
169
330
1F
100
AcDbEntity
  8
0
  6
Continuous
 62
     7
370
    25
100
AcDbLine
 10
1.0769230769
 20
-2.5
 30
0.0
 11
0.9198717949
 21
-2.5
 31
0.0
  0
LINE
  5
16A
330
1F
100
AcDbEntity
  8
0
  6
Continuous
 62
     7
370
    25
100
AcDbLine
 10
1.0769230769
 20
-1.8469050481
 30
0.0
 11
1.0769230769
 21
-2.5
 31
0.0
  0
LINE
  5
16B
330
1F
100
AcDbEntity
  8
0
  6
Continuous
 62
     7
370
    25
100
AcDbLine
 10
0.1121794872
 20
-1.2211538462
 30
0.0
 11
0.1121794872
 21
-1.4518229167
 31
0.0
  0
LINE
  5
16C
330
1F
100
AcDbEntity
  8
0
  6
Continuous
 62
     7
370
    25
100
AcDbLine
 10
-0.0448717949
 20
-1.2211538462
 30
0.0
 11
0.1121794872
 21
-1.2211538462
 31
0.0
  0
LINE
  5
16D
330
1F
100
AcDbEntity
  8
0
  6
Continuous
 62
     7
370
    25
100
AcDbLine
 10
-0.0448717949
 20
-2.5
 30
0.0
 11
-0.0448717949
 21
-1.2211538462
 31
0.0
  0
LINE
  5
16E
330
1F
100
AcDbEntity
  8
0
  6
Continuous
 62
     7
370
    25
100
AcDbLine
 10
0.1121794872
 20
-2.5
 30
0.0
 11
-0.0448717949
 21
-2.5
 31
0.0
  0
LINE
  5
16F
330
1F
100
AcDbEntity
  8
0
  6
Continuous
 62
     7
370
    25
100
AcDbLine
 10
3.141025641
 20
-2.3205128205
 30
0.0
 11
3.141025641
 21
-2.5
 31
0.0
  0
LINE
  5
170
330
1F
100
AcDbEntity
  8
0
  6
Continuous
 62
     7
370
    25
100
AcDbLine
 10
2.3108974359
 20
-2.3205128205
 30
0.0
 11
3.141025641
 21
-2.3205128205
 31
0.0
  0
LINE
  5
171
330
1F
100
AcDbEntity
  8
0
  6
Continuous
 62
     7
370
    25
100
AcDbLine
 10
2.3108974359
 20
-1.6474358974
 30
0.0
 11
2.3108974359
 21
-2.3205128205
 31
0.0
  0
LINE
  5
172
330
1F
100
AcDbEntity
  8
0
  6
Continuous
 62
     7
370
    25
100
AcDbLine
 10
3.141025641
 20
-1.6474358974
 30
0.0
 11
2.3108974359
 21
-1.6474358974
 31
0.0
  0
LINE
  5
173
330
1F
100
AcDbEntity
  8
0
  6
Continuous
 62
     7
370
    25
100
AcDbLine
 10
3.141025641
 20
-1.4679487179
 30
0.0
 11
3.141025641
 21
-1.6474358974
 31
0.0
  0
LINE
  5
174
330
1F
100
AcDbEntity
  8
0
  6
Continuous
 62
     7
370
    25
100
AcDbLine
 10
2.3108974359
 20
-1.4679487179
 30
0.0
 11
3.141025641
 21
-1.4679487179
 31
0.0
  0
LINE
  5
175
330
1F
100
AcDbEntity
  8
0
  6
Continuous
 62
     7
370
    25
100
AcDbLine
 10
2.3108974359
 20
-0.9294871795
 30
0.0
 11
2.3108974359
 21
-1.4679487179
 31
0.0
  0
LINE
  5
176
330
1F
100
AcDbEntity
  8
0
  6
Continuous
 62
     7
370
    25
100
AcDbLine
 10
3.141025641
 20
-0.9294871795
 30
0.0
 11
2.3108974359
 21
-0.9294871795
 31
0.0
  0
LINE
  5
177
330
1F
100
AcDbEntity
  8
0
  6
Continuous
 62
     7
370
    25
100
AcDbLine
 10
3.141025641
 20
-0.75
 30
0.0
 11
3.141025641
 21
-0.9294871795
 31
0.0
  0
LINE
  5
178
330
1F
100
AcDbEntity
  8
0
  6
Continuous
 62
     7
370
    25
100
AcDbLine
 10
2.1538461538
 20
-0.75
 30
0.0
 11
3.141025641
 21
-0.75
 31
0.0
  0
LINE
  5
179
330
1F
100
AcDbEntity
  8
0
  6
Continuous
 62
     7
370
    25
100
AcDbLine
 10
2.1538461538
 20
-2.5
 30
0.0
 11
2.1538461538
 21
-0.75
 31
0.0
  0
LINE
  5
17A
330
1F
100
AcDbEntity
  8
0
  6
Continuous
 62
     7
370
    25
100
AcDbLine
 10
3.141025641
 20
-2.5
 30
0.0
 11
2.1538461538
 21
-2.5
 31
0.0
  0
LINE
  5
17B
330
1F
100
AcDbEntity
  8
0
  6
Continuous
 62
     7
370
    25
100
AcDbLine
 10
4.5320512821
 20
-2.3212139423
 30
0.0
 11
4.5320512821
 21
-2.2549579327
 31
0.0
  0
LINE
  5
17C
330
1F
100
AcDbEntity
  8
0
  6
Continuous
 62
     7
370
    25
100
AcDbLine
 10
3.3878205128
 20
-2.5897435897
 30
0.0
 11
3.5448717949
 21
-2.5897435897
 31
0.0
  0
LINE
  5
17D
330
1F
100
AcDbEntity
  8
0
  6
Continuous
 62
     7
370
    25
100
AcDbLine
 10
4.6891025641
 20
-1.2211538462
 30
0.0
 11
4.6891025641
 21
-2.2360276442
 31
0.0
  0
LINE
  5
17E
330
1F
100
AcDbEntity
  8
0
  6
Continuous
 62
     7
370
    25
100
AcDbLine
 10
4.5320512821
 20
-1.2211538462
 30
0.0
 11
4.6891025641
 21
-1.2211538462
 31
0.0
  0
LINE
  5
17F
330
1F
100
AcDbEntity
  8
0
  6
Continuous
 62
     7
370
    25
100
AcDbLine
 10
4.5320512821
 20
-1.4448116987
 30
0.0
 11
4.5320512821
 21
-1.2211538462
 31
0.0
  0
LINE
  5
180
330
1F
100
AcDbEntity
  8
0
  6
Continuous
 62
     7
370
    25
100
AcDbLine
 10
7.9198717949
 20
-1.3782051282
 30
0.0
 11
7.9198717949
 21
-1.2211538462
 31
0.0
  0
LINE
  5
181
330
1F
100
AcDbEntity
  8
0
  6
Continuous
 62
     7
370
    25
100
AcDbLine
 10
8.1442307692
 20
-1.3782051282
 30
0.0
 11
7.9198717949
 21
-1.3782051282
 31
0.0
  0
LINE
  5
182
330
1F
100
AcDbEntity
  8
0
  6
Continuous
 62
     7
370
    25
100
AcDbLine
 10
8.1442307692
 20
-2.5
 30
0.0
 11
8.1442307692
 21
-1.3782051282
 31
0.0
  0
LINE
  5
183
330
1F
100
AcDbEntity
  8
0
  6
Continuous
 62
     7
370
    25
100
AcDbLine
 10
8.3012820513
 20
-2.5
 30
0.0
 11
8.1442307692
 21
-2.5
 31
0.0
  0
LINE
  5
184
330
1F
100
AcDbEntity
  8
0
  6
Continuous
 62
     7
370
    25
100
AcDbLine
 10
8.3012820513
 20
-1.3782051282
 30
0.0
 11
8.3012820513
 21
-2.5
 31
0.0
  0
LINE
  5
185
330
1F
100
AcDbEntity
  8
0
  6
Continuous
 62
     7
370
    25
100
AcDbLine
 10
8.5256410256
 20
-1.3782051282
 30
0.0
 11
8.3012820513
 21
-1.3782051282
 31
0.0
  0
LINE
  5
186
330
1F
100
AcDbEntity
  8
0
  6
Continuous
 62
     7
370
    25
100
AcDbLine
 10
8.5256410256
 20
-1.2211538462
 30
0.0
 11
8.5256410256
 21
-1.3782051282
 31
0.0
  0
LINE
  5
187
330
1F
100
AcDbEntity
  8
0
  6
Continuous
 62
     7
370
    25
100
AcDbLine
 10
8.3012820513
 20
-1.2211538462
 30
0.0
 11
8.5256410256
 21
-1.2211538462
 31
0.0
  0
LINE
  5
188
330
1F
100
AcDbEntity
  8
0
  6
Continuous
 62
     7
370
    25
100
AcDbLine
 10
8.3012820513
 20
-0.7051282051
 30
0.0
 11
8.3012820513
 21
-1.2211538462
 31
0.0
  0
LINE
  5
189
330
1F
100
AcDbEntity
  8
0
  6
Continuous
 62
     7
370
    25
100
AcDbLine
 10
8.1442307692
 20
-0.7051282051
 30
0.0
 11
8.3012820513
 21
-0.7051282051
 31
0.0
  0
LINE
  5
18A
330
1F
100
AcDbEntity
  8
0
  6
Continuous
 62
     7
370
    25
100
AcDbLine
 10
8.1442307692
 20
-1.2211538462
 30
0.0
 11
8.1442307692
 21
-0.7051282051
 31
0.0
  0
LINE
  5
18B
330
1F
100
AcDbEntity
  8
0
  6
Continuous
 62
     7
370
    25
100
AcDbLine
 10
7.9198717949
 20
-1.2211538462
 30
0.0
 11
8.1442307692
 21
-1.2211538462
 31
0.0
  0
LINE
  5
18C
330
1F
100
AcDbEntity
  8
0
  6
Continuous
 62
     7
370
    25
100
AcDbLine
 10
9.4423076923
 20
1.8076923077
 30
0.0
 11
9.4423076923
 21
1.5
 31
0.0
  0
LINE
  5
18D
330
1F
100
AcDbEntity
  8
0
  6
Continuous
 62
     7
370
    25
100
AcDbLine
 10
8.0192307692
 20
1.8076923077
 30
0.0
 11
9.4423076923
 21
1.8076923077
 31
0.0
  0
LINE
  5
18E
330
1F
100
AcDbEntity
  8
0
  6
Continuous
 62
     7
370
    25
100
AcDbLine
 10
8.0192307692
 20
2.9615384615
 30
0.0
 11
8.0192307692
 21
1.8076923077
 31
0.0
  0
LINE
  5
18F
330
1F
100
AcDbEntity
  8
0
  6
Continuous
 62
     7
370
    25
100
AcDbLine
 10
9.4423076923
 20
2.9615384615
 30
0.0
 11
8.0192307692
 21
2.9615384615
 31
0.0
  0
LINE
  5
190
330
1F
100
AcDbEntity
  8
0
  6
Continuous
 62
     7
370
    25
100
AcDbLine
 10
9.4423076923
 20
3.2692307692
 30
0.0
 11
9.4423076923
 21
2.9615384615
 31
0.0
  0
LINE
  5
191
330
1F
100
AcDbEntity
  8
0
  6
Continuous
 62
     7
370
    25
100
AcDbLine
 10
8.0192307692
 20
3.2692307692
 30
0.0
 11
9.4423076923
 21
3.2692307692
 31
0.0
  0
LINE
  5
192
330
1F
100
AcDbEntity
  8
0
  6
Continuous
 62
     7
370
    25
100
AcDbLine
 10
8.0192307692
 20
4.1923076923
 30
0.0
 11
8.0192307692
 21
3.2692307692
 31
0.0
  0
LINE
  5
193
330
1F
100
AcDbEntity
  8
0
  6
Continuous
 62
     7
370
    25
100
AcDbLine
 10
9.4423076923
 20
4.1923076923
 30
0.0
 11
8.0192307692
 21
4.1923076923
 31
0.0
  0
LINE
  5
194
330
1F
100
AcDbEntity
  8
0
  6
Continuous
 62
     7
370
    25
100
AcDbLine
 10
9.4423076923
 20
4.5
 30
0.0
 11
9.4423076923
 21
4.1923076923
 31
0.0
  0
LINE
  5
195
330
1F
100
AcDbEntity
  8
0
  6
Continuous
 62
     7
370
    25
100
AcDbLine
 10
7.75
 20
4.5
 30
0.0
 11
9.4423076923
 21
4.5
 31
0.0
  0
LINE
  5
196
330
1F
100
AcDbEntity
  8
0
  6
Continuous
 62
     7
370
    25
100
AcDbLine
 10
7.75
 20
1.5
 30
0.0
 11
7.75
 21
4.5
 31
0.0
  0
LINE
  5
197
330
1F
100
AcDbEntity
  8
0
  6
Continuous
 62
     7
370
    25
100
AcDbLine
 10
9.4423076923
 20
1.5
 30
0.0
 11
7.75
 21
1.5
 31
0.0
  0
LINE
  5
198
330
1F
100
AcDbEntity
  8
0
  6
Continuous
 62
     7
370
    25
100
AcDbLine
 10
6.6346153846
 20
1.5
 30
0.0
 11
6.3653846154
 21
1.5
 31
0.0
  0
LINE
  5
199
330
1F
100
AcDbEntity
  8
0
  6
Continuous
 62
     7
370
    25
100
AcDbLine
 10
6.6346153846
 20
4.1923076923
 30
0.0
 11
6.6346153846
 21
1.5
 31
0.0
  0
LINE
  5
19A
330
1F
100
AcDbEntity
  8
0
  6
Continuous
 62
     7
370
    25
100
AcDbLine
 10
7.2884615385
 20
4.1923076923
 30
0.0
 11
6.6346153846
 21
4.1923076923
 31
0.0
  0
LINE
  5
19B
330
1F
100
AcDbEntity
  8
0
  6
Continuous
 62
     7
370
    25
100
AcDbLine
 10
7.2884615385
 20
4.5
 30
0.0
 11
7.2884615385
 21
4.1923076923
 31
0.0
  0
LINE
  5
19C
330
1F
100
AcDbEntity
  8
0
  6
Continuous
 62
     7
370
    25
100
AcDbLine
 10
5.7115384615
 20
4.5
 30
0.0
 11
7.2884615385
 21
4.5
 31
0.0
  0
LINE
  5
19D
330
1F
100
AcDbEntity
  8
0
  6
Continuous
 62
     7
370
    25
100
AcDbLine
 10
5.7115384615
 20
4.1923076923
 30
0.0
 11
5.7115384615
 21
4.5
 31
0.0
  0
LINE
  5
19E
330
1F
100
AcDbEntity
  8
0
  6
Continuous
 62
     7
370
    25
100
AcDbLine
 10
6.3653846154
 20
4.1923076923
 30
0.0
 11
5.7115384615
 21
4.1923076923
 31
0.0
  0
LINE
  5
19F
330
1F
100
AcDbEntity
  8
0
  6
Continuous
 62
     7
370
    25
100
AcDbLine
 10
6.3653846154
 20
1.5
 30
0.0
 11
6.3653846154
 21
4.1923076923
 31
0.0
  0
LINE
  5
1A0
330
1F
100
AcDbEntity
  8
0
  6
Continuous
 62
     7
370
    25
100
AcDbLine
 10
5.2884615385
 20
4.5
 30
0.0
 11
5.2884615385
 21
1.5
 31
0.0
  0
LINE
  5
1A1
330
1F
100
AcDbEntity
  8
0
  6
Continuous
 62
     7
370
    25
100
AcDbLine
 10
5.0192307692
 20
4.5
 30
0.0
 11
5.2884615385
 21
4.5
 31
0.0
  0
LINE
  5
1A2
330
1F
100
AcDbEntity
  8
0
  6
Continuous
 62
     7
370
    25
100
AcDbLine
 10
5.0192307692
 20
1.5
 30
0.0
 11
5.0192307692
 21
4.5
 31
0.0
  0
LINE
  5
1A3
330
1F
100
AcDbEntity
  8
0
  6
Continuous
 62
     7
370
    25
100
AcDbLine
 10
5.2884615385
 20
1.5
 30
0.0
 11
5.0192307692
 21
1.5
 31
0.0
  0
LINE
  5
1A4
330
1F
100
AcDbEntity
  8
0
  6
Continuous
 62
     7
370
    25
100
AcDbLine
 10
4.3653846154
 20
4.0691105769
 30
0.0
 11
4.1219951923
 21
3.8846153846
 31
0.0
  0
LINE
  5
1A5
330
1F
100
AcDbEntity
  8
0
  6
Continuous
 62
     7
370
    25
100
AcDbLine
 10
2.6346153846
 20
2.0787259615
 30
0.0
 11
2.8882211538
 21
2.2307692308
 31
0.0
  0
LINE
  5
1A6
330
1F
100
AcDbEntity
  8
0
  6
Continuous
 62
     7
370
    25
100
AcDbLine
 10
-5.3269230769
 20
2.8846153846
 30
0.0
 11
-5.3269230769
 21
1.5
 31
0.0
  0
LINE
  5
1A7
330
1F
100
AcDbEntity
  8
0
  6
Continuous
 62
     7
370
    25
100
AcDbLine
 10
-5.1123798077
 20
2.8846153846
 30
0.0
 11
-5.3269230769
 21
2.8846153846
 31
0.0
  0
LINE
  5
1A8
330
1F
100
AcDbEntity
  8
0
  6
Continuous
 62
     7
370
    25
100
AcDbLine
 10
-5.5961538462
 20
4.5
 30
0.0
 11
-5.0078125
 21
4.5
 31
0.0
  0
LINE
  5
1A9
330
1F
100
AcDbEntity
  8
0
  6
Continuous
 62
     7
370
    25
100
AcDbLine
 10
-5.5961538462
 20
1.5
 30
0.0
 11
-5.5961538462
 21
4.5
 31
0.0
  0
LINE
  5
1AA
330
1F
100
AcDbEntity
  8
0
  6
Continuous
 62
     7
370
    25
100
AcDbLine
 10
-5.3269230769
 20
1.5
 30
0.0
 11
-5.5961538462
 21
1.5
 31
0.0
  0
LINE
  5
1AB
330
1F
100
AcDbEntity
  8
0
  6
Continuous
 62
     7
370
    25
100
AcDbLine
 10
-7.5212840545
 20
-2.5
 30
0.0
 11
-8.1554487179
 21
-1.2379807692
 31
0.0
  0
LINE
  5
1AC
330
1F
100
AcDbEntity
  8
0
  6
Continuous
 62
     7
370
    25
100
AcDbLine
 10
-7.4858774038
 20
-2.5
 30
0.0
 11
-7.5212840545
 21
-2.5
 31
0.0
  0
LINE
  5
1AD
330
1F
100
AcDbEntity
  8
0
  6
Continuous
 62
     7
370
    25
100
AcDbLine
 10
-6.8541666667
 20
-1.2407852564
 30
0.0
 11
-7.4858774038
 21
-2.5
 31
0.0
  0
LINE
  5
1AE
330
1F
100
AcDbEntity
  8
0
  6
Continuous
 62
     7
370
    25
100
AcDbLine
 10
-6.6865985577
 20
-2.5
 30
0.0
 11
-6.8541666667
 21
-1.2407852564
 31
0.0
  0
LINE
  5
1AF
330
1F
100
AcDbEntity
  8
0
  6
Continuous
 62
     7
370
    25
100
AcDbLine
 10
-6.5288461538
 20
-2.5
 30
0.0
 11
-6.6865985577
 21
-2.5
 31
0.0
  0
LINE
  5
1B0
330
1F
100
AcDbEntity
  8
0
  6
Continuous
 62
     7
370
    25
100
AcDbLine
 10
-6.7612680288
 20
-0.75
 30
0.0
 11
-6.5288461538
 21
-2.5
 31
0.0
  0
LINE
  5
1B1
330
1F
100
AcDbEntity
  8
0
  6
Continuous
 62
     7
370
    25
100
AcDbLine
 10
-6.7840544872
 20
-0.75
 30
0.0
 11
-6.7612680288
 21
-0.75
 31
0.0
  0
LINE
  5
1B2
330
1F
100
AcDbEntity
  8
0
  6
Continuous
 62
     7
370
    25
100
AcDbLine
 10
-7.5048076923
 20
-2.1858974359
 30
0.0
 11
-6.7840544872
 21
-0.75
 31
0.0
  0
LINE
  5
1B3
330
1F
100
AcDbEntity
  8
0
  6
Continuous
 62
     7
370
    25
100
AcDbLine
 10
-8.2273137019
 20
-0.75
 30
0.0
 11
-7.5048076923
 21
-2.1858974359
 31
0.0
  0
LINE
  5
1B4
330
1F
100
AcDbEntity
  8
0
  6
Continuous
 62
     7
370
    25
100
AcDbLine
 10
-8.2497495994
 20
-0.75
 30
0.0
 11
-8.2273137019
 21
-0.75
 31
0.0
  0
LINE
  5
1B5
330
1F
100
AcDbEntity
  8
0
  6
Continuous
 62
     7
370
    25
100
AcDbLine
 10
-8.4807692308
 20
-2.5
 30
0.0
 11
-8.2497495994
 21
-0.75
 31
0.0
  0
LINE
  5
1B6
330
1F
100
AcDbEntity
  8
0
  6
Continuous
 62
     7
370
    25
100
AcDbLine
 10
-8.322666266
 20
-2.5
 30
0.0
 11
-8.4807692308
 21
-2.5
 31
0.0
  0
LINE
  5
1B7
330
1F
100
AcDbEntity
  8
0
  6
Continuous
 62
     7
370
    25
100
AcDbLine
 10
-8.1554487179
 20
-1.2379807692
 30
0.0
 11
-8.322666266
 21
-2.5
 31
0.0
  0
LINE
  5
1B8
330
1F
100
AcDbEntity
  8
0
  6
Continuous
 62
     7
370
    25
100
AcDbLine
 10
-52.5
 20
11.5
 30
0.0
 11
52.5
 21
11.5
 31
0.0
  0
LINE
  5
1B9
330
1F
100
AcDbEntity
  8
0
  6
Continuous
 62
     7
370
    25
100
AcDbLine
 10
54.5
 20
9.5
 30
0.0
 11
54.5
 21
-9.5
 31
0.0
  0
LINE
  5
1BA
330
1F
100
AcDbEntity
  8
0
  6
Continuous
 62
     7
370
    25
100
AcDbLine
 10
52.5
 20
-11.5
 30
0.0
 11
-52.5
 21
-11.5
 31
0.0
  0
LINE
  5
1BB
330
1F
100
AcDbEntity
  8
0
  6
Continuous
 62
     7
370
    25
100
AcDbLine
 10
-54.5
 20
-9.5
 30
0.0
 11
-54.5
 21
9.5
 31
0.0
  0
LINE
  5
1BC
330
1F
100
AcDbEntity
  8
0
  6
Continuous
 62
     7
370
    25
100
AcDbLine
 10
-50.0
 20
4.0
 30
0.0
 11
-50.0
 21
-4.0
 31
0.0
  0
LINE
  5
1BD
330
1F
100
AcDbEntity
  8
0
  6
Continuous
 62
     7
370
    25
100
AcDbLine
 10
-52.5
 20
4.0
 30
0.0
 11
-50.0
 21
4.0
 31
0.0
  0
LINE
  5
1BE
330
1F
100
AcDbEntity
  8
0
  6
Continuous
 62
     7
370
    25
100
AcDbLine
 10
-52.5
 20
-4.0
 30
0.0
 11
-52.5
 21
4.0
 31
0.0
  0
LINE
  5
1BF
330
1F
100
AcDbEntity
  8
0
  6
Continuous
 62
     7
370
    25
100
AcDbLine
 10
-50.0
 20
-4.0
 30
0.0
 11
-52.5
 21
-4.0
 31
0.0
  0
LINE
  5
1C0
330
1F
100
AcDbEntity
  8
0
  6
Continuous
 62
     7
370
    25
100
AcDbLine
 10
52.5
 20
4.0
 30
0.0
 11
52.5
 21
-4.0
 31
0.0
  0
LINE
  5
1C1
330
1F
100
AcDbEntity
  8
0
  6
Continuous
 62
     7
370
    25
100
AcDbLine
 10
50.0
 20
4.0
 30
0.0
 11
52.5
 21
4.0
 31
0.0
  0
LINE
  5
1C2
330
1F
100
AcDbEntity
  8
0
  6
Continuous
 62
     7
370
    25
100
AcDbLine
 10
50.0
 20
-4.0
 30
0.0
 11
50.0
 21
4.0
 31
0.0
  0
LINE
  5
1C3
330
1F
100
AcDbEntity
  8
0
  6
Continuous
 62
     7
370
    25
100
AcDbLine
 10
52.5
 20
-4.0
 30
0.0
 11
50.0
 21
-4.0
 31
0.0
  0
LINE
  5
1C4
330
1F
100
AcDbEntity
  8
0
  6
Continuous
 62
     7
370
    25
100
AcDbLine
 10
-5.0705128205
 20
-2.5
 30
0.0
 11
-5.0705128205
 21
-2.2787960737
 31
0.0
  0
LINE
  5
1C5
330
1F
100
AcDbEntity
  8
0
  6
Continuous
 62
     7
370
    25
100
AcDbLine
 10
-4.9134615385
 20
-2.5
 30
0.0
 11
-5.0705128205
 21
-2.5
 31
0.0
  0
LINE
  5
1C6
330
1F
100
AcDbEntity
  8
0
  6
Continuous
 62
     7
370
    25
100
AcDbLine
 10
-4.9134615385
 20
-1.2211538462
 30
0.0
 11
-4.9134615385
 21
-2.5
 31
0.0
  0
LINE
  5
1C7
330
1F
100
AcDbEntity
  8
0
  6
Continuous
 62
     7
370
    25
100
AcDbLine
 10
-5.0705128205
 20
-1.2211538462
 30
0.0
 11
-4.9134615385
 21
-1.2211538462
 31
0.0
  0
LINE
  5
1C8
330
1F
100
AcDbEntity
  8
0
  6
Continuous
 62
     7
370
    25
100
AcDbLine
 10
-5.0705128205
 20
-1.4577824519
 30
0.0
 11
-5.0705128205
 21
-1.2211538462
 31
0.0
  0
LINE
  5
1C9
330
1F
100
AcDbEntity
  8
0
  6
Continuous
 62
     7
370
    25
100
AcDbLine
 10
-2.8653846154
 20
2.8846153846
 30
0.0
 11
-2.8653846154
 21
1.5
 31
0.0
  0
LINE
  5
1CA
330
1F
100
AcDbEntity
  8
0
  6
Continuous
 62
     7
370
    25
100
AcDbLine
 10
-2.6508413462
 20
2.8846153846
 30
0.0
 11
-2.8653846154
 21
2.8846153846
 31
0.0
  0
LINE
  5
1CB
330
1F
100
AcDbEntity
  8
0
  6
Continuous
 62
     7
370
    25
100
AcDbLine
 10
-3.1346153846
 20
4.5
 30
0.0
 11
-2.5462740385
 21
4.5
 31
0.0
  0
LINE
  5
1CC
330
1F
100
AcDbEntity
  8
0
  6
Continuous
 62
     7
370
    25
100
AcDbLine
 10
-3.1346153846
 20
1.5
 30
0.0
 11
-3.1346153846
 21
4.5
 31
0.0
  0
LINE
  5
1CD
330
1F
100
AcDbEntity
  8
0
  6
Continuous
 62
     7
370
    25
100
AcDbLine
 10
-2.8653846154
 20
1.5
 30
0.0
 11
-3.1346153846
 21
1.5
 31
0.0
  0
LINE
  5
1CE
330
1F
100
AcDbEntity
  8
0
  6
Continuous
 62
     7
370
    25
100
AcDbLine
 10
6.483974359
 20
-2.2682792468
 30
0.0
 11
6.483974359
 21
-2.9711538462
 31
0.0
  0
LINE
  5
1CF
330
1F
100
AcDbEntity
  8
0
  6
Continuous
 62
     7
370
    25
100
AcDbLine
 10
6.483974359
 20
-1.2211538462
 30
0.0
 11
6.483974359
 21
-1.4577824519
 31
0.0
  0
LINE
  5
1D0
330
1F
100
AcDbEntity
  8
0
  6
Continuous
 62
     7
370
    25
100
AcDbLine
 10
6.3269230769
 20
-1.2211538462
 30
0.0
 11
6.483974359
 21
-1.2211538462
 31
0.0
  0
LINE
  5
1D1
330
1F
100
AcDbEntity
  8
0
  6
Continuous
 62
     7
370
    25
100
AcDbLine
 10
6.3269230769
 20
-2.9711538462
 30
0.0
 11
6.3269230769
 21
-1.2211538462
 31
0.0
  0
LINE
  5
1D2
330
1F
100
AcDbEntity
  8
0
  6
Continuous
 62
     7
370
    25
100
AcDbLine
 10
6.483974359
 20
-2.9711538462
 30
0.0
 11
6.3269230769
 21
-2.9711538462
 31
0.0
  0
LINE
  5
1D3
330
1F
100
AcDbEntity
  8
0
  6
Continuous
 62
     7
370
    25
100
AcDbLine
 10
5.3397435897
 20
-2.9711538462
 30
0.0
 11
5.1700721154
 21
-2.9711538462
 31
0.0
  0
LINE
  5
1D4
330
1F
100
AcDbEntity
  8
0
  6
Continuous
 62
     7
370
    25
100
AcDbLine
 10
6.125
 20
-1.2211538462
 30
0.0
 11
5.3397435897
 21
-2.9711538462
 31
0.0
  0
LINE
  5
1D5
330
1F
100
AcDbEntity
  8
0
  6
Continuous
 62
     7
370
    25
100
AcDbLine
 10
5.9553285256
 20
-1.2211538462
 30
0.0
 11
6.125
 21
-1.2211538462
 31
0.0
  0
LINE
  5
1D6
330
1F
100
AcDbEntity
  8
0
  6
Continuous
 62
     7
370
    25
100
AcDbLine
 10
5.5157251603
 20
-2.2006209936
 30
0.0
 11
5.9553285256
 21
-1.2211538462
 31
0.0
  0
LINE
  5
1D7
330
1F
100
AcDbEntity
  8
0
  6
Continuous
 62
     7
370
    25
100
AcDbLine
 10
5.0827824519
 20
-1.2211538462
 30
0.0
 11
5.5157251603
 21
-2.2006209936
 31
0.0
  0
LINE
  5
1D8
330
1F
100
AcDbEntity
  8
0
  6
Continuous
 62
     7
370
    25
100
AcDbLine
 10
4.9134615385
 20
-1.2211538462
 30
0.0
 11
5.0827824519
 21
-1.2211538462
 31
0.0
  0
LINE
  5
1D9
330
1F
100
AcDbEntity
  8
0
  6
Continuous
 62
     7
370
    25
100
AcDbLine
 10
5.4305388622
 20
-2.3909755609
 30
0.0
 11
4.9134615385
 21
-1.2211538462
 31
0.0
  0
LINE
  5
1DA
330
1F
100
AcDbEntity
  8
0
  6
Continuous
 62
     7
370
    25
100
AcDbLine
 10
5.1700721154
 20
-2.9711538462
 30
0.0
 11
5.4305388622
 21
-2.3909755609
 31
0.0
  0
LINE
  5
1DB
330
1F
100
AcDbEntity
  8
0
  6
Continuous
 62
     7
370
    25
100
AcDbLine
 10
-1.6378205128
 20
-1.8942307692
 30
0.0
 11
-2.7820512821
 21
-1.8942307692
 31
0.0
  0
LINE
  5
1DC
330
1F
100
AcDbEntity
  8
0
  6
Continuous
 62
     7
370
    25
100
AcDbLine
 10
-1.8446514423
 20
-2.0961538462
 30
0.0
 11
-1.7051282051
 21
-2.1694210737
 31
0.0
  0
LINE
  5
1DD
330
1F
100
AcDbEntity
  8
0
  6
Continuous
 62
     7
370
    25
100
AcDbLine
 10
-2.7655749199
 20
-1.7371794872
 30
0.0
 11
-1.7948717949
 21
-1.7371794872
 31
0.0
  0
LINE
  5
1DE
330
1F
100
AcDbEntity
  8
0
  6
Continuous
 62
     7
370
    25
100
AcDbLine
 10
-4.7782451923
 20
4.1923076923
 30
0.0
 11
-5.3269230769
 21
4.1923076923
 31
0.0
  0
LINE
  5
1DF
330
1F
100
AcDbEntity
  8
0
  6
Continuous
 62
     7
370
    25
100
AcDbLine
 10
-5.3269230769
 20
3.1923076923
 30
0.0
 11
-4.8016826923
 21
3.1856971154
 31
0.0
  0
LINE
  5
1E0
330
1F
100
AcDbEntity
  8
0
  6
Continuous
 62
     7
370
    25
100
AcDbLine
 10
-5.3269230769
 20
4.1923076923
 30
0.0
 11
-5.3269230769
 21
3.1923076923
 31
0.0
  0
LINE
  5
1E1
330
1F
100
AcDbEntity
  8
0
  6
Continuous
 62
     7
370
    25
100
AcDbLine
 10
-2.3167067308
 20
4.1923076923
 30
0.0
 11
-2.8653846154
 21
4.1923076923
 31
0.0
  0
LINE
  5
1E2
330
1F
100
AcDbEntity
  8
0
  6
Continuous
 62
     7
370
    25
100
AcDbLine
 10
-2.8653846154
 20
4.1923076923
 30
0.0
 11
-2.8653846154
 21
3.1923076923
 31
0.0
  0
LINE
  5
1E3
330
1F
100
AcDbEntity
  8
0
  6
Continuous
 62
     7
370
    25
100
AcDbLine
 10
-2.8653846154
 20
3.1923076923
 30
0.0
 11
-2.3401442308
 21
3.1856971154
 31
0.0
  0
ARC
  5
1E4
330
1F
100
AcDbEntity
  8
0
  6
Continuous
 62
     7
370
    25
100
AcDbCircle
 10
-52.5
 20
9.5
 30
0.0
 40
2.000000000000028
100
AcDbArc
 50
90.0
 51
180.0
  0
ARC
  5
1E5
330
1F
100
AcDbEntity
  8
0
  6
Continuous
 62
     7
370
    25
100
AcDbCircle
 10
52.5
 20
9.5
 30
0.0
 40
2.000000000000004
100
AcDbArc
 50
0.0
 51
90.0
  0
ARC
  5
1E6
330
1F
100
AcDbEntity
  8
0
  6
Continuous
 62
     7
370
    25
100
AcDbCircle
 10
52.5
 20
-9.5
 30
0.0
 40
2.000000000000007
100
AcDbArc
 50
270.0
 51
0.0
  0
ARC
  5
1E7
330
1F
100
AcDbEntity
  8
0
  6
Continuous
 62
     7
370
    25
100
AcDbCircle
 10
-52.5
 20
-9.5
 30
0.0
 40
2.000000000000007
100
AcDbArc
 50
180.0
 51
270.0
  0
ENDSEC
  0
SECTION
  2
OBJECTS
  0
DICTIONARY
  5
C
330
0
100
AcDbDictionary
281
     1
  3
ACAD_GROUP
350
D
  3
ACAD_LAYOUT
350
1A
  3
ACAD_MLINESTYLE
350
17
  3
ACAD_PLOTSETTINGS
350
19
  3
ACAD_PLOTSTYLENAME
350
E
  3
ACAD_SCALELIST
350
47
  0
DICTIONARY
  5
D
102
{ACAD_REACTORS
330
C
102
}
330
C
100
AcDbDictionary
281
     1
  0
DICTIONARY
  5
1A
102
{ACAD_REACTORS
330
C
102
}
330
C
100
AcDbDictionary
281
     1
  3
Layout1
350
1E
  3
Layout2
350
26
  3
Model
350
22
  0
DICTIONARY
  5
17
102
{ACAD_REACTORS
330
C
102
}
330
C
100
AcDbDictionary
281
     1
  3
Standard
350
18
  0
DICTIONARY
  5
19
102
{ACAD_REACTORS
330
C
102
}
330
C
100
AcDbDictionary
281
     1
  0
ACDBDICTIONARYWDFLT
  5
E
102
{ACAD_REACTORS
330
C
102
}
330
C
100
AcDbDictionary
281
     1
  3
Normal
350
F
100
AcDbDictionaryWithDefault
340
F
  0
DICTIONARY
  5
47
102
{ACAD_REACTORS
330
C
102
}
330
C
100
AcDbDictionary
281
     1
  3
A0
350
48
  3
A1
350
49
  3
A2
350
4A
  3
A3
350
4B
  3
A4
350
4C
  3
A5
350
4D
  3
A6
350
4E
  3
A7
350
4F
  3
A8
350
50
  3
A9
350
51
  3
B0
350
52
  3
B1
350
53
  3
B2
350
54
  3
B3
350
55
  3
B4
350
56
  3
B5
350
57
  3
B6
350
58
  3
B7
350
59
  3
B8
350
5A
  3
B9
350
5B
  3
C0
350
5C
  3
C1
350
5D
  3
C2
350
5E
  3
C3
350
5F
  3
C4
350
60
  3
C5
350
61
  3
C6
350
62
  3
C7
350
63
  3
C8
350
64
  3
C9
350
65
  3
D0
350
66
  3
D1
350
67
  3
D2
350
68
  0
LAYOUT
  5
1E
102
{ACAD_REACTORS
330
1A
102
}
330
1A
100
AcDbPlotSettings
  1

  2
none_device
  4

  6

 40
0.0
 41
0.0
 42
0.0
 43
0.0
 44
0.0
 45
0.0
 46
0.0
 47
0.0
 48
0.0
 49
0.0
140
0.0
141
0.0
142
1.0
143
1.0
 70
   688
 72
     1
 73
     0
 74
     5
  7

 75
    16
147
1.0
148
0.0
149
0.0
100
AcDbLayout
  1
Layout1
 70
     1
 71
     1
 10
0.0
 20
0.0
 11
420.0
 21
297.0
 12
0.0
 22
0.0
 32
0.0
 14
1.0000000000E+20
 24
1.0000000000E+20
 34
1.0000000000E+20
 15
-1.0000000000E+20
 25
-1.0000000000E+20
 35
-1.0000000000E+20
146
0.0
 13
0.0
 23
0.0
 33
0.0
 16
1.0
 26
0.0
 36
0.0
 17
0.0
 27
1.0
 37
0.0
 76
     0
330
1B
  0
LAYOUT
  5
26
102
{ACAD_REACTORS
330
1A
102
}
330
1A
100
AcDbPlotSettings
  1

  2
none_device
  4

  6

 40
0.0
 41
0.0
 42
0.0
 43
0.0
 44
0.0
 45
0.0
 46
0.0
 47
0.0
 48
0.0
 49
0.0
140
0.0
141
0.0
142
1.0
143
1.0
 70
   688
 72
     1
 73
     0
 74
     5
  7

 75
    16
147
1.0
148
0.0
149
0.0
100
AcDbLayout
  1
Layout2
 70
     1
 71
     2
 10
0.0
 20
0.0
 11
0.0
 21
0.0
 12
0.0
 22
0.0
 32
0.0
 14
0.0
 24
0.0
 34
0.0
 15
0.0
 25
0.0
 35
0.0
146
0.0
 13
0.0
 23
0.0
 33
0.0
 16
1.0
 26
0.0
 36
0.0
 17
0.0
 27
1.0
 37
0.0
 76
     0
330
23
  0
LAYOUT
  5
22
102
{ACAD_REACTORS
330
1A
102
}
330
1A
100
AcDbPlotSettings
  1

  2
none_device
  4
ANSI_A_(11.00_x_8.50_Inches)
  6

 40
6.35
 41
19.05
 42
6.35000508
 43
19.05000254
 44
279.4
 45
215.9
 46
133.34999746
 47
88.89999873
 48
0.0
 49
0.0
140
0.0
141
0.0
142
0.0999082569
143
1.0
 70
  1696
 72
     0
 73
     0
 74
     0
  7

 75
     0
147
0.0179189148
148
-1300.4909072572
149
0.0
100
AcDbLayout
  1
Model
 70
     1
 71
     0
 10
0.0
 20
0.0
 11
420.0
 21
297.0
 12
0.0
 22
0.0
 32
0.0
 14
-54.5
 24
-11.5
 34
0.0
 15
54.5
 25
11.5
 35
0.0
146
0.0
 13
0.0
 23
0.0
 33
0.0
 16
1.0
 26
0.0
 36
0.0
 17
0.0
 27
1.0
 37
0.0
 76
     0
330
1F
331
29
  0
MLINESTYLE
  5
18
102
{ACAD_REACTORS
330
17
102
}
330
17
100
AcDbMlineStyle
  2
Standard
 70
     0
  3

 62
   256
 51
90.0
 52
90.0
 71
     2
 49
0.5
 62
   256
  6
BYLAYER
 49
-0.5
 62
   256
  6
BYLAYER
  0
ACDBPLACEHOLDER
  5
F
102
{ACAD_REACTORS
330
E
102
}
330
E
  0
SCALE
  5
48
102
{ACAD_REACTORS
330
47
102
}
330
47
100
AcDbScale
 70
     0
300
1:1
140
1.0
141
1.0
290
     1
  0
SCALE
  5
49
102
{ACAD_REACTORS
330
47
102
}
330
47
100
AcDbScale
 70
     0
300
1:2
140
1.0
141
2.0
290
     0
  0
SCALE
  5
4A
102
{ACAD_REACTORS
330
47
102
}
330
47
100
AcDbScale
 70
     0
300
1:4
140
1.0
141
4.0
290
     0
  0
SCALE
  5
4B
102
{ACAD_REACTORS
330
47
102
}
330
47
100
AcDbScale
 70
     0
300
1:5
140
1.0
141
5.0
290
     0
  0
SCALE
  5
4C
102
{ACAD_REACTORS
330
47
102
}
330
47
100
AcDbScale
 70
     0
300
1:8
140
1.0
141
8.0
290
     0
  0
SCALE
  5
4D
102
{ACAD_REACTORS
330
47
102
}
330
47
100
AcDbScale
 70
     0
300
1:10
140
1.0
141
10.0
290
     0
  0
SCALE
  5
4E
102
{ACAD_REACTORS
330
47
102
}
330
47
100
AcDbScale
 70
     0
300
1:16
140
1.0
141
16.0
290
     0
  0
SCALE
  5
4F
102
{ACAD_REACTORS
330
47
102
}
330
47
100
AcDbScale
 70
     0
300
1:20
140
1.0
141
20.0
290
     0
  0
SCALE
  5
50
102
{ACAD_REACTORS
330
47
102
}
330
47
100
AcDbScale
 70
     0
300
1:30
140
1.0
141
30.0
290
     0
  0
SCALE
  5
51
102
{ACAD_REACTORS
330
47
102
}
330
47
100
AcDbScale
 70
     0
300
1:40
140
1.0
141
40.0
290
     0
  0
SCALE
  5
52
102
{ACAD_REACTORS
330
47
102
}
330
47
100
AcDbScale
 70
     0
300
1:50
140
1.0
141
50.0
290
     0
  0
SCALE
  5
53
102
{ACAD_REACTORS
330
47
102
}
330
47
100
AcDbScale
 70
     0
300
1:100
140
1.0
141
100.0
290
     0
  0
SCALE
  5
54
102
{ACAD_REACTORS
330
47
102
}
330
47
100
AcDbScale
 70
     0
300
2:1
140
2.0
141
1.0
290
     0
  0
SCALE
  5
55
102
{ACAD_REACTORS
330
47
102
}
330
47
100
AcDbScale
 70
     0
300
4:1
140
4.0
141
1.0
290
     0
  0
SCALE
  5
56
102
{ACAD_REACTORS
330
47
102
}
330
47
100
AcDbScale
 70
     0
300
8:1
140
8.0
141
1.0
290
     0
  0
SCALE
  5
57
102
{ACAD_REACTORS
330
47
102
}
330
47
100
AcDbScale
 70
     0
300
10:1
140
10.0
141
1.0
290
     0
  0
SCALE
  5
58
102
{ACAD_REACTORS
330
47
102
}
330
47
100
AcDbScale
 70
     0
300
100:1
140
100.0
141
1.0
290
     0
  0
SCALE
  5
59
102
{ACAD_REACTORS
330
47
102
}
330
47
100
AcDbScale
 70
     0
300
1/128" = 1'-0"
140
0.0078125
141
12.0
290
     0
  0
SCALE
  5
5A
102
{ACAD_REACTORS
330
47
102
}
330
47
100
AcDbScale
 70
     0
300
1/64" = 1'-0"
140
0.015625
141
12.0
290
     0
  0
SCALE
  5
5B
102
{ACAD_REACTORS
330
47
102
}
330
47
100
AcDbScale
 70
     0
300
1/32" = 1'-0"
140
0.03125
141
12.0
290
     0
  0
SCALE
  5
5C
102
{ACAD_REACTORS
330
47
102
}
330
47
100
AcDbScale
 70
     0
300
1/16" = 1'-0"
140
0.0625
141
12.0
290
     0
  0
SCALE
  5
5D
102
{ACAD_REACTORS
330
47
102
}
330
47
100
AcDbScale
 70
     0
300
3/32" = 1'-0"
140
0.09375
141
12.0
290
     0
  0
SCALE
  5
5E
102
{ACAD_REACTORS
330
47
102
}
330
47
100
AcDbScale
 70
     0
300
1/8" = 1'-0"
140
0.125
141
12.0
290
     0
  0
SCALE
  5
5F
102
{ACAD_REACTORS
330
47
102
}
330
47
100
AcDbScale
 70
     0
300
3/16" = 1'-0"
140
0.1875
141
12.0
290
     0
  0
SCALE
  5
60
102
{ACAD_REACTORS
330
47
102
}
330
47
100
AcDbScale
 70
     0
300
1/4" = 1'-0"
140
0.25
141
12.0
290
     0
  0
SCALE
  5
61
102
{ACAD_REACTORS
330
47
102
}
330
47
100
AcDbScale
 70
     0
300
3/8" = 1'-0"
140
0.375
141
12.0
290
     0
  0
SCALE
  5
62
102
{ACAD_REACTORS
330
47
102
}
330
47
100
AcDbScale
 70
     0
300
1/2" = 1'-0"
140
0.5
141
12.0
290
     0
  0
SCALE
  5
63
102
{ACAD_REACTORS
330
47
102
}
330
47
100
AcDbScale
 70
     0
300
3/4" = 1'-0"
140
0.75
141
12.0
290
     0
  0
SCALE
  5
64
102
{ACAD_REACTORS
330
47
102
}
330
47
100
AcDbScale
 70
     0
300
1" = 1'-0"
140
1.0
141
12.0
290
     0
  0
SCALE
  5
65
102
{ACAD_REACTORS
330
47
102
}
330
47
100
AcDbScale
 70
     0
300
1-1/2" = 1'-0"
140
1.5
141
12.0
290
     0
  0
SCALE
  5
66
102
{ACAD_REACTORS
330
47
102
}
330
47
100
AcDbScale
 70
     0
300
3" = 1'-0"
140
3.0
141
12.0
290
     0
  0
SCALE
  5
67
102
{ACAD_REACTORS
330
47
102
}
330
47
100
AcDbScale
 70
     0
300
6" = 1'-0"
140
6.0
141
12.0
290
     0
  0
SCALE
  5
68
102
{ACAD_REACTORS
330
47
102
}
330
47
100
AcDbScale
 70
     0
300
1'-0" = 1'-0"
140
12.0
141
12.0
290
     0
  0
ENDSEC
  0
EOF
